<?xml version="1.0" encoding="utf-8"?>
<svg xmlns="http://www.w3.org/2000/svg" xmlns:xlink="http://www.w3.org/1999/xlink" width="672" height="480" viewBox="0 0 2688 1920">
<defs>
  <clipPath id="clip200">
    <rect x="0" y="0" width="2688" height="1920"/>
  </clipPath>
</defs>
<path clip-path="url(#clip200)" d="M0 1920 L2688 1920 L2688 -4.26326e-14 L0 -4.26326e-14  Z" fill="#ffffff" fill-rule="evenodd" fill-opacity="1"/>
<defs>
  <clipPath id="clip201">
    <rect x="537" y="0" width="1883" height="1883"/>
  </clipPath>
</defs>
<path clip-path="url(#clip200)" d="M226.141 1734.12 L2640.76 1734.12 L2640.76 127.792 L226.141 127.792  Z" fill="#ffffff" fill-rule="evenodd" fill-opacity="1"/>
<defs>
  <clipPath id="clip202">
    <rect x="226" y="127" width="2416" height="1607"/>
  </clipPath>
</defs>
<polyline clip-path="url(#clip202)" style="stroke:#000000; stroke-linecap:round; stroke-linejoin:round; stroke-width:2; stroke-opacity:0.1; fill:none" points="774.045,1734.12 774.045,127.792 "/>
<polyline clip-path="url(#clip202)" style="stroke:#000000; stroke-linecap:round; stroke-linejoin:round; stroke-width:2; stroke-opacity:0.1; fill:none" points="1373.5,1734.12 1373.5,127.792 "/>
<polyline clip-path="url(#clip202)" style="stroke:#000000; stroke-linecap:round; stroke-linejoin:round; stroke-width:2; stroke-opacity:0.1; fill:none" points="1972.96,1734.12 1972.96,127.792 "/>
<polyline clip-path="url(#clip202)" style="stroke:#000000; stroke-linecap:round; stroke-linejoin:round; stroke-width:2; stroke-opacity:0.1; fill:none" points="2572.42,1734.12 2572.42,127.792 "/>
<polyline clip-path="url(#clip202)" style="stroke:#000000; stroke-linecap:round; stroke-linejoin:round; stroke-width:2; stroke-opacity:0.1; fill:none" points="226.141,1433.64 2640.76,1433.64 "/>
<polyline clip-path="url(#clip202)" style="stroke:#000000; stroke-linecap:round; stroke-linejoin:round; stroke-width:2; stroke-opacity:0.1; fill:none" points="226.141,1107.5 2640.76,1107.5 "/>
<polyline clip-path="url(#clip202)" style="stroke:#000000; stroke-linecap:round; stroke-linejoin:round; stroke-width:2; stroke-opacity:0.1; fill:none" points="226.141,781.35 2640.76,781.35 "/>
<polyline clip-path="url(#clip202)" style="stroke:#000000; stroke-linecap:round; stroke-linejoin:round; stroke-width:2; stroke-opacity:0.1; fill:none" points="226.141,455.204 2640.76,455.204 "/>
<polyline clip-path="url(#clip202)" style="stroke:#000000; stroke-linecap:round; stroke-linejoin:round; stroke-width:2; stroke-opacity:0.1; fill:none" points="226.141,129.058 2640.76,129.058 "/>
<polyline clip-path="url(#clip200)" style="stroke:#000000; stroke-linecap:round; stroke-linejoin:round; stroke-width:4; stroke-opacity:1; fill:none" points="226.141,1734.12 2640.76,1734.12 "/>
<polyline clip-path="url(#clip200)" style="stroke:#000000; stroke-linecap:round; stroke-linejoin:round; stroke-width:4; stroke-opacity:1; fill:none" points="774.045,1734.12 774.045,1715.22 "/>
<polyline clip-path="url(#clip200)" style="stroke:#000000; stroke-linecap:round; stroke-linejoin:round; stroke-width:4; stroke-opacity:1; fill:none" points="1373.5,1734.12 1373.5,1715.22 "/>
<polyline clip-path="url(#clip200)" style="stroke:#000000; stroke-linecap:round; stroke-linejoin:round; stroke-width:4; stroke-opacity:1; fill:none" points="1972.96,1734.12 1972.96,1715.22 "/>
<polyline clip-path="url(#clip200)" style="stroke:#000000; stroke-linecap:round; stroke-linejoin:round; stroke-width:4; stroke-opacity:1; fill:none" points="2572.42,1734.12 2572.42,1715.22 "/>
<path clip-path="url(#clip200)" d="M764.323 1764.26 L782.679 1764.26 L782.679 1768.2 L768.605 1768.2 L768.605 1776.67 Q769.624 1776.32 770.642 1776.16 Q771.661 1775.97 772.679 1775.97 Q778.466 1775.97 781.846 1779.15 Q785.225 1782.32 785.225 1787.73 Q785.225 1793.31 781.753 1796.41 Q778.281 1799.49 771.962 1799.49 Q769.786 1799.49 767.517 1799.12 Q765.272 1798.75 762.864 1798.01 L762.864 1793.31 Q764.948 1794.45 767.17 1795 Q769.392 1795.56 771.869 1795.56 Q775.874 1795.56 778.211 1793.45 Q780.549 1791.34 780.549 1787.73 Q780.549 1784.12 778.211 1782.02 Q775.874 1779.91 771.869 1779.91 Q769.994 1779.91 768.119 1780.33 Q766.267 1780.74 764.323 1781.62 L764.323 1764.26 Z" fill="#000000" fill-rule="nonzero" fill-opacity="1" /><path clip-path="url(#clip200)" d="M1348.19 1794.89 L1355.83 1794.89 L1355.83 1768.52 L1347.52 1770.19 L1347.52 1765.93 L1355.78 1764.26 L1360.46 1764.26 L1360.46 1794.89 L1368.1 1794.89 L1368.1 1798.82 L1348.19 1798.82 L1348.19 1794.89 Z" fill="#000000" fill-rule="nonzero" fill-opacity="1" /><path clip-path="url(#clip200)" d="M1387.54 1767.34 Q1383.93 1767.34 1382.1 1770.9 Q1380.3 1774.45 1380.3 1781.58 Q1380.3 1788.68 1382.1 1792.25 Q1383.93 1795.79 1387.54 1795.79 Q1391.18 1795.79 1392.98 1792.25 Q1394.81 1788.68 1394.81 1781.58 Q1394.81 1774.45 1392.98 1770.9 Q1391.18 1767.34 1387.54 1767.34 M1387.54 1763.64 Q1393.35 1763.64 1396.41 1768.24 Q1399.49 1772.83 1399.49 1781.58 Q1399.49 1790.3 1396.41 1794.91 Q1393.35 1799.49 1387.54 1799.49 Q1381.73 1799.49 1378.65 1794.91 Q1375.6 1790.3 1375.6 1781.58 Q1375.6 1772.83 1378.65 1768.24 Q1381.73 1763.64 1387.54 1763.64 Z" fill="#000000" fill-rule="nonzero" fill-opacity="1" /><path clip-path="url(#clip200)" d="M1948.15 1794.89 L1955.78 1794.89 L1955.78 1768.52 L1947.47 1770.19 L1947.47 1765.93 L1955.74 1764.26 L1960.41 1764.26 L1960.41 1794.89 L1968.05 1794.89 L1968.05 1798.82 L1948.15 1798.82 L1948.15 1794.89 Z" fill="#000000" fill-rule="nonzero" fill-opacity="1" /><path clip-path="url(#clip200)" d="M1977.54 1764.26 L1995.9 1764.26 L1995.9 1768.2 L1981.83 1768.2 L1981.83 1776.67 Q1982.84 1776.32 1983.86 1776.16 Q1984.88 1775.97 1985.9 1775.97 Q1991.69 1775.97 1995.07 1779.15 Q1998.45 1782.32 1998.45 1787.73 Q1998.45 1793.31 1994.97 1796.41 Q1991.5 1799.49 1985.18 1799.49 Q1983.01 1799.49 1980.74 1799.12 Q1978.49 1798.75 1976.09 1798.01 L1976.09 1793.31 Q1978.17 1794.45 1980.39 1795 Q1982.61 1795.56 1985.09 1795.56 Q1989.09 1795.56 1991.43 1793.45 Q1993.77 1791.34 1993.77 1787.73 Q1993.77 1784.12 1991.43 1782.02 Q1989.09 1779.91 1985.09 1779.91 Q1983.21 1779.91 1981.34 1780.33 Q1979.49 1780.74 1977.54 1781.62 L1977.54 1764.26 Z" fill="#000000" fill-rule="nonzero" fill-opacity="1" /><path clip-path="url(#clip200)" d="M2551.19 1794.89 L2567.51 1794.89 L2567.51 1798.82 L2545.57 1798.82 L2545.57 1794.89 Q2548.23 1792.13 2552.81 1787.5 Q2557.42 1782.85 2558.6 1781.51 Q2560.84 1778.98 2561.72 1777.25 Q2562.63 1775.49 2562.63 1773.8 Q2562.63 1771.04 2560.68 1769.31 Q2558.76 1767.57 2555.66 1767.57 Q2553.46 1767.57 2551.01 1768.34 Q2548.58 1769.1 2545.8 1770.65 L2545.8 1765.93 Q2548.62 1764.79 2551.08 1764.21 Q2553.53 1763.64 2555.57 1763.64 Q2560.94 1763.64 2564.13 1766.32 Q2567.33 1769.01 2567.33 1773.5 Q2567.33 1775.63 2566.51 1777.55 Q2565.73 1779.45 2563.62 1782.04 Q2563.04 1782.71 2559.94 1785.93 Q2556.84 1789.12 2551.19 1794.89 Z" fill="#000000" fill-rule="nonzero" fill-opacity="1" /><path clip-path="url(#clip200)" d="M2587.33 1767.34 Q2583.71 1767.34 2581.89 1770.9 Q2580.08 1774.45 2580.08 1781.58 Q2580.08 1788.68 2581.89 1792.25 Q2583.71 1795.79 2587.33 1795.79 Q2590.96 1795.79 2592.76 1792.25 Q2594.59 1788.68 2594.59 1781.58 Q2594.59 1774.45 2592.76 1770.9 Q2590.96 1767.34 2587.33 1767.34 M2587.33 1763.64 Q2593.14 1763.64 2596.19 1768.24 Q2599.27 1772.83 2599.27 1781.58 Q2599.27 1790.3 2596.19 1794.91 Q2593.14 1799.49 2587.33 1799.49 Q2581.51 1799.49 2578.44 1794.91 Q2575.38 1790.3 2575.38 1781.58 Q2575.38 1772.83 2578.44 1768.24 Q2581.51 1763.64 2587.33 1763.64 Z" fill="#000000" fill-rule="nonzero" fill-opacity="1" /><path clip-path="url(#clip200)" d="M1340.41 1835.78 L1347.32 1835.78 L1359.13 1853.45 L1371 1835.78 L1377.91 1835.78 L1362.63 1858.6 L1378.93 1883.3 L1372.02 1883.3 L1358.65 1863.09 L1345.19 1883.3 L1338.25 1883.3 L1355.21 1857.93 L1340.41 1835.78 Z" fill="#000000" fill-rule="nonzero" fill-opacity="1" /><path clip-path="url(#clip200)" d="M1380.9 1862.84 L1398.05 1862.84 L1398.05 1868.06 L1380.9 1868.06 L1380.9 1862.84 Z" fill="#000000" fill-rule="nonzero" fill-opacity="1" /><path clip-path="url(#clip200)" d="M1423.58 1865.38 Q1416.48 1865.38 1413.75 1867 Q1411.01 1868.63 1411.01 1872.54 Q1411.01 1875.66 1413.05 1877.51 Q1415.11 1879.32 1418.65 1879.32 Q1423.52 1879.32 1426.45 1875.88 Q1429.41 1872.42 1429.41 1866.69 L1429.41 1865.38 L1423.58 1865.38 M1435.26 1862.96 L1435.26 1883.3 L1429.41 1883.3 L1429.41 1877.89 Q1427.4 1881.14 1424.41 1882.7 Q1421.42 1884.22 1417.09 1884.22 Q1411.61 1884.22 1408.37 1881.17 Q1405.15 1878.08 1405.15 1872.92 Q1405.15 1866.91 1409.16 1863.85 Q1413.21 1860.8 1421.19 1860.8 L1429.41 1860.8 L1429.41 1860.23 Q1429.41 1856.18 1426.73 1853.99 Q1424.09 1851.76 1419.28 1851.76 Q1416.23 1851.76 1413.33 1852.49 Q1410.44 1853.22 1407.76 1854.69 L1407.76 1849.28 Q1410.98 1848.03 1414 1847.43 Q1417.02 1846.79 1419.89 1846.79 Q1427.62 1846.79 1431.44 1850.8 Q1435.26 1854.81 1435.26 1862.96 Z" fill="#000000" fill-rule="nonzero" fill-opacity="1" /><path clip-path="url(#clip200)" d="M1476.96 1847.65 L1464.07 1865 L1477.63 1883.3 L1470.72 1883.3 L1460.34 1869.3 L1449.97 1883.3 L1443.06 1883.3 L1456.91 1864.65 L1444.24 1847.65 L1451.14 1847.65 L1460.6 1860.35 L1470.05 1847.65 L1476.96 1847.65 Z" fill="#000000" fill-rule="nonzero" fill-opacity="1" /><path clip-path="url(#clip200)" d="M1485.9 1847.65 L1491.76 1847.65 L1491.76 1883.3 L1485.9 1883.3 L1485.9 1847.65 M1485.9 1833.78 L1491.76 1833.78 L1491.76 1841.19 L1485.9 1841.19 L1485.9 1833.78 Z" fill="#000000" fill-rule="nonzero" fill-opacity="1" /><path clip-path="url(#clip200)" d="M1526.74 1848.7 L1526.74 1854.24 Q1524.26 1852.97 1521.58 1852.33 Q1518.91 1851.7 1516.04 1851.7 Q1511.68 1851.7 1509.49 1853.03 Q1507.32 1854.37 1507.32 1857.04 Q1507.32 1859.08 1508.88 1860.26 Q1510.44 1861.4 1515.15 1862.45 L1517.16 1862.9 Q1523.4 1864.24 1526.01 1866.69 Q1528.65 1869.11 1528.65 1873.47 Q1528.65 1878.43 1524.7 1881.33 Q1520.79 1884.22 1513.91 1884.22 Q1511.05 1884.22 1507.93 1883.65 Q1504.84 1883.11 1501.4 1882 L1501.4 1875.95 Q1504.65 1877.64 1507.8 1878.49 Q1510.95 1879.32 1514.04 1879.32 Q1518.18 1879.32 1520.4 1877.92 Q1522.63 1876.49 1522.63 1873.91 Q1522.63 1871.52 1521.01 1870.25 Q1519.42 1868.98 1513.97 1867.8 L1511.94 1867.32 Q1506.49 1866.18 1504.08 1863.82 Q1501.66 1861.43 1501.66 1857.3 Q1501.66 1852.27 1505.22 1849.53 Q1508.79 1846.79 1515.34 1846.79 Q1518.59 1846.79 1521.45 1847.27 Q1524.32 1847.75 1526.74 1848.7 Z" fill="#000000" fill-rule="nonzero" fill-opacity="1" /><polyline clip-path="url(#clip200)" style="stroke:#000000; stroke-linecap:round; stroke-linejoin:round; stroke-width:4; stroke-opacity:1; fill:none" points="226.141,1734.12 226.141,127.792 "/>
<polyline clip-path="url(#clip200)" style="stroke:#000000; stroke-linecap:round; stroke-linejoin:round; stroke-width:4; stroke-opacity:1; fill:none" points="226.141,1433.64 245.038,1433.64 "/>
<polyline clip-path="url(#clip200)" style="stroke:#000000; stroke-linecap:round; stroke-linejoin:round; stroke-width:4; stroke-opacity:1; fill:none" points="226.141,1107.5 245.038,1107.5 "/>
<polyline clip-path="url(#clip200)" style="stroke:#000000; stroke-linecap:round; stroke-linejoin:round; stroke-width:4; stroke-opacity:1; fill:none" points="226.141,781.35 245.038,781.35 "/>
<polyline clip-path="url(#clip200)" style="stroke:#000000; stroke-linecap:round; stroke-linejoin:round; stroke-width:4; stroke-opacity:1; fill:none" points="226.141,455.204 245.038,455.204 "/>
<polyline clip-path="url(#clip200)" style="stroke:#000000; stroke-linecap:round; stroke-linejoin:round; stroke-width:4; stroke-opacity:1; fill:none" points="226.141,129.058 245.038,129.058 "/>
<path clip-path="url(#clip200)" d="M130.242 1419.44 Q126.631 1419.44 124.802 1423.01 Q122.997 1426.55 122.997 1433.68 Q122.997 1440.78 124.802 1444.35 Q126.631 1447.89 130.242 1447.89 Q133.876 1447.89 135.682 1444.35 Q137.511 1440.78 137.511 1433.68 Q137.511 1426.55 135.682 1423.01 Q133.876 1419.44 130.242 1419.44 M130.242 1415.74 Q136.052 1415.74 139.108 1420.34 Q142.187 1424.93 142.187 1433.68 Q142.187 1442.4 139.108 1447.01 Q136.052 1451.59 130.242 1451.59 Q124.432 1451.59 121.353 1447.01 Q118.298 1442.4 118.298 1433.68 Q118.298 1424.93 121.353 1420.34 Q124.432 1415.74 130.242 1415.74 Z" fill="#000000" fill-rule="nonzero" fill-opacity="1" /><path clip-path="url(#clip200)" d="M150.404 1445.04 L155.288 1445.04 L155.288 1450.92 L150.404 1450.92 L150.404 1445.04 Z" fill="#000000" fill-rule="nonzero" fill-opacity="1" /><path clip-path="url(#clip200)" d="M169.501 1446.99 L185.821 1446.99 L185.821 1450.92 L163.876 1450.92 L163.876 1446.99 Q166.538 1444.23 171.122 1439.6 Q175.728 1434.95 176.909 1433.61 Q179.154 1431.08 180.034 1429.35 Q180.936 1427.59 180.936 1425.9 Q180.936 1423.14 178.992 1421.41 Q177.071 1419.67 173.969 1419.67 Q171.77 1419.67 169.316 1420.44 Q166.885 1421.2 164.108 1422.75 L164.108 1418.03 Q166.932 1416.89 169.385 1416.32 Q171.839 1415.74 173.876 1415.74 Q179.247 1415.74 182.441 1418.42 Q185.635 1421.11 185.635 1425.6 Q185.635 1427.73 184.825 1429.65 Q184.038 1431.55 181.932 1434.14 Q181.353 1434.81 178.251 1438.03 Q175.149 1441.22 169.501 1446.99 Z" fill="#000000" fill-rule="nonzero" fill-opacity="1" /><path clip-path="url(#clip200)" d="M128.159 1093.3 Q124.548 1093.3 122.719 1096.86 Q120.913 1100.4 120.913 1107.53 Q120.913 1114.64 122.719 1118.2 Q124.548 1121.74 128.159 1121.74 Q131.793 1121.74 133.599 1118.2 Q135.427 1114.64 135.427 1107.53 Q135.427 1100.4 133.599 1096.86 Q131.793 1093.3 128.159 1093.3 M128.159 1089.59 Q133.969 1089.59 137.025 1094.2 Q140.103 1098.78 140.103 1107.53 Q140.103 1116.26 137.025 1120.86 Q133.969 1125.45 128.159 1125.45 Q122.349 1125.45 119.27 1120.86 Q116.214 1116.26 116.214 1107.53 Q116.214 1098.78 119.27 1094.2 Q122.349 1089.59 128.159 1089.59 Z" fill="#000000" fill-rule="nonzero" fill-opacity="1" /><path clip-path="url(#clip200)" d="M148.321 1118.9 L153.205 1118.9 L153.205 1124.78 L148.321 1124.78 L148.321 1118.9 Z" fill="#000000" fill-rule="nonzero" fill-opacity="1" /><path clip-path="url(#clip200)" d="M176.237 1094.29 L164.432 1112.74 L176.237 1112.74 L176.237 1094.29 M175.01 1090.22 L180.89 1090.22 L180.89 1112.74 L185.821 1112.74 L185.821 1116.63 L180.89 1116.63 L180.89 1124.78 L176.237 1124.78 L176.237 1116.63 L160.636 1116.63 L160.636 1112.11 L175.01 1090.22 Z" fill="#000000" fill-rule="nonzero" fill-opacity="1" /><path clip-path="url(#clip200)" d="M128.483 767.149 Q124.872 767.149 123.043 770.714 Q121.238 774.256 121.238 781.385 Q121.238 788.492 123.043 792.056 Q124.872 795.598 128.483 795.598 Q132.117 795.598 133.923 792.056 Q135.751 788.492 135.751 781.385 Q135.751 774.256 133.923 770.714 Q132.117 767.149 128.483 767.149 M128.483 763.445 Q134.293 763.445 137.349 768.052 Q140.427 772.635 140.427 781.385 Q140.427 790.112 137.349 794.718 Q134.293 799.302 128.483 799.302 Q122.673 799.302 119.594 794.718 Q116.539 790.112 116.539 781.385 Q116.539 772.635 119.594 768.052 Q122.673 763.445 128.483 763.445 Z" fill="#000000" fill-rule="nonzero" fill-opacity="1" /><path clip-path="url(#clip200)" d="M148.645 792.751 L153.529 792.751 L153.529 798.63 L148.645 798.63 L148.645 792.751 Z" fill="#000000" fill-rule="nonzero" fill-opacity="1" /><path clip-path="url(#clip200)" d="M174.293 779.487 Q171.145 779.487 169.293 781.64 Q167.464 783.793 167.464 787.542 Q167.464 791.269 169.293 793.445 Q171.145 795.598 174.293 795.598 Q177.441 795.598 179.27 793.445 Q181.122 791.269 181.122 787.542 Q181.122 783.793 179.27 781.64 Q177.441 779.487 174.293 779.487 M183.575 764.834 L183.575 769.094 Q181.816 768.26 180.01 767.82 Q178.228 767.381 176.469 767.381 Q171.839 767.381 169.385 770.506 Q166.955 773.631 166.608 779.95 Q167.973 777.936 170.034 776.871 Q172.094 775.783 174.571 775.783 Q179.779 775.783 182.788 778.955 Q185.821 782.103 185.821 787.542 Q185.821 792.867 182.672 796.084 Q179.524 799.302 174.293 799.302 Q168.297 799.302 165.126 794.718 Q161.955 790.112 161.955 781.385 Q161.955 773.191 165.844 768.33 Q169.733 763.445 176.284 763.445 Q178.043 763.445 179.825 763.793 Q181.631 764.14 183.575 764.834 Z" fill="#000000" fill-rule="nonzero" fill-opacity="1" /><path clip-path="url(#clip200)" d="M128.738 441.003 Q125.126 441.003 123.298 444.568 Q121.492 448.11 121.492 455.239 Q121.492 462.346 123.298 465.91 Q125.126 469.452 128.738 469.452 Q132.372 469.452 134.177 465.91 Q136.006 462.346 136.006 455.239 Q136.006 448.11 134.177 444.568 Q132.372 441.003 128.738 441.003 M128.738 437.299 Q134.548 437.299 137.603 441.906 Q140.682 446.489 140.682 455.239 Q140.682 463.966 137.603 468.572 Q134.548 473.156 128.738 473.156 Q122.927 473.156 119.849 468.572 Q116.793 463.966 116.793 455.239 Q116.793 446.489 119.849 441.906 Q122.927 437.299 128.738 437.299 Z" fill="#000000" fill-rule="nonzero" fill-opacity="1" /><path clip-path="url(#clip200)" d="M148.899 466.605 L153.784 466.605 L153.784 472.484 L148.899 472.484 L148.899 466.605 Z" fill="#000000" fill-rule="nonzero" fill-opacity="1" /><path clip-path="url(#clip200)" d="M173.969 456.072 Q170.635 456.072 168.714 457.855 Q166.816 459.637 166.816 462.762 Q166.816 465.887 168.714 467.67 Q170.635 469.452 173.969 469.452 Q177.302 469.452 179.223 467.67 Q181.145 465.864 181.145 462.762 Q181.145 459.637 179.223 457.855 Q177.325 456.072 173.969 456.072 M169.293 454.082 Q166.284 453.341 164.594 451.281 Q162.927 449.221 162.927 446.258 Q162.927 442.114 165.867 439.707 Q168.83 437.299 173.969 437.299 Q179.131 437.299 182.071 439.707 Q185.01 442.114 185.01 446.258 Q185.01 449.221 183.321 451.281 Q181.654 453.341 178.668 454.082 Q182.047 454.869 183.922 457.16 Q185.821 459.452 185.821 462.762 Q185.821 467.785 182.742 470.471 Q179.686 473.156 173.969 473.156 Q168.251 473.156 165.173 470.471 Q162.117 467.785 162.117 462.762 Q162.117 459.452 164.015 457.16 Q165.913 454.869 169.293 454.082 M167.58 446.698 Q167.58 449.383 169.247 450.887 Q170.936 452.392 173.969 452.392 Q176.978 452.392 178.668 450.887 Q180.381 449.383 180.381 446.698 Q180.381 444.012 178.668 442.508 Q176.978 441.003 173.969 441.003 Q170.936 441.003 169.247 442.508 Q167.58 444.012 167.58 446.698 Z" fill="#000000" fill-rule="nonzero" fill-opacity="1" /><path clip-path="url(#clip200)" d="M119.455 142.403 L127.094 142.403 L127.094 116.038 L118.784 117.704 L118.784 113.445 L127.048 111.778 L131.724 111.778 L131.724 142.403 L139.362 142.403 L139.362 146.338 L119.455 146.338 L119.455 142.403 Z" fill="#000000" fill-rule="nonzero" fill-opacity="1" /><path clip-path="url(#clip200)" d="M148.807 140.459 L153.691 140.459 L153.691 146.338 L148.807 146.338 L148.807 140.459 Z" fill="#000000" fill-rule="nonzero" fill-opacity="1" /><path clip-path="url(#clip200)" d="M173.876 114.857 Q170.265 114.857 168.436 118.422 Q166.631 121.964 166.631 129.093 Q166.631 136.2 168.436 139.764 Q170.265 143.306 173.876 143.306 Q177.51 143.306 179.316 139.764 Q181.145 136.2 181.145 129.093 Q181.145 121.964 179.316 118.422 Q177.51 114.857 173.876 114.857 M173.876 111.153 Q179.686 111.153 182.742 115.76 Q185.821 120.343 185.821 129.093 Q185.821 137.82 182.742 142.426 Q179.686 147.01 173.876 147.01 Q168.066 147.01 164.987 142.426 Q161.932 137.82 161.932 129.093 Q161.932 120.343 164.987 115.76 Q168.066 111.153 173.876 111.153 Z" fill="#000000" fill-rule="nonzero" fill-opacity="1" /><path clip-path="url(#clip200)" d="M14.1184 1022.53 L14.1184 1015.62 L33.6612 1002.44 L14.1184 989.36 L14.1184 982.453 L39.0084 999.259 L61.6384 999.259 L61.6384 1005.72 L39.0084 1005.72 L14.1184 1022.53 Z" fill="#000000" fill-rule="nonzero" fill-opacity="1" /><path clip-path="url(#clip200)" d="M41.1727 987.132 L41.1727 969.976 L46.3926 969.976 L46.3926 987.132 L41.1727 987.132 Z" fill="#000000" fill-rule="nonzero" fill-opacity="1" /><path clip-path="url(#clip200)" d="M43.719 944.45 Q43.719 951.548 45.3422 954.285 Q46.9655 957.022 50.8804 957.022 Q53.9996 957.022 55.8457 954.985 Q57.6599 952.916 57.6599 949.383 Q57.6599 944.514 54.2224 941.585 Q50.7531 938.625 45.0239 938.625 L43.719 938.625 L43.719 944.45 M41.3 932.769 L61.6384 932.769 L61.6384 938.625 L56.2276 938.625 Q59.4741 940.63 61.0337 943.622 Q62.5615 946.614 62.5615 950.943 Q62.5615 956.417 59.5059 959.664 Q56.4186 962.879 51.2623 962.879 Q45.2467 962.879 42.1912 958.868 Q39.1357 954.826 39.1357 946.837 L39.1357 938.625 L38.5628 938.625 Q34.5205 938.625 32.3244 941.299 Q30.0964 943.941 30.0964 948.747 Q30.0964 951.802 30.8284 954.699 Q31.5605 957.595 33.0246 960.269 L27.6137 960.269 Q26.3724 957.054 25.7677 954.03 Q25.1311 951.007 25.1311 948.142 Q25.1311 940.408 29.1415 936.588 Q33.1519 932.769 41.3 932.769 Z" fill="#000000" fill-rule="nonzero" fill-opacity="1" /><path clip-path="url(#clip200)" d="M25.9905 891.073 L43.337 903.964 L61.6384 890.405 L61.6384 897.312 L47.6339 907.688 L61.6384 918.064 L61.6384 924.971 L42.9869 911.125 L25.9905 923.793 L25.9905 916.886 L38.6901 907.433 L25.9905 897.98 L25.9905 891.073 Z" fill="#000000" fill-rule="nonzero" fill-opacity="1" /><path clip-path="url(#clip200)" d="M25.9905 882.13 L25.9905 876.273 L61.6384 876.273 L61.6384 882.13 L25.9905 882.13 M12.1132 882.13 L12.1132 876.273 L19.5293 876.273 L19.5293 882.13 L12.1132 882.13 Z" fill="#000000" fill-rule="nonzero" fill-opacity="1" /><path clip-path="url(#clip200)" d="M27.0408 841.294 L32.579 841.294 Q31.3059 843.776 30.6693 846.45 Q30.0327 849.123 30.0327 851.988 Q30.0327 856.348 31.3695 858.545 Q32.7063 860.709 35.3799 860.709 Q37.4169 860.709 38.5946 859.149 Q39.7404 857.59 40.7908 852.879 L41.2364 850.874 Q42.5732 844.636 45.0239 842.026 Q47.4429 839.384 51.8034 839.384 Q56.7687 839.384 59.6651 843.331 Q62.5615 847.246 62.5615 854.12 Q62.5615 856.985 61.9886 860.104 Q61.4475 863.192 60.3335 866.629 L54.2861 866.629 Q55.973 863.383 56.8323 860.232 Q57.6599 857.081 57.6599 853.993 Q57.6599 849.855 56.2594 847.627 Q54.8271 845.399 52.249 845.399 Q49.8619 845.399 48.5887 847.023 Q47.3156 848.614 46.1379 854.057 L45.6605 856.094 Q44.5147 861.537 42.1594 863.955 Q39.7722 866.374 35.6345 866.374 Q30.6056 866.374 27.8684 862.81 Q25.1311 859.245 25.1311 852.688 Q25.1311 849.442 25.6085 846.577 Q26.086 843.713 27.0408 841.294 Z" fill="#000000" fill-rule="nonzero" fill-opacity="1" /><path clip-path="url(#clip200)" d="M1036.64 18.8205 L1036.64 41.5461 L1046.93 41.5461 Q1052.64 41.5461 1055.76 38.5889 Q1058.88 35.6318 1058.88 30.163 Q1058.88 24.7348 1055.76 21.7777 Q1052.64 18.8205 1046.93 18.8205 L1036.64 18.8205 M1028.46 12.096 L1046.93 12.096 Q1057.1 12.096 1062.28 16.714 Q1067.51 21.2916 1067.51 30.163 Q1067.51 39.1155 1062.28 43.6931 Q1057.1 48.2706 1046.93 48.2706 L1036.64 48.2706 L1036.64 72.576 L1028.46 72.576 L1028.46 12.096 Z" fill="#000000" fill-rule="nonzero" fill-opacity="1" /><path clip-path="url(#clip200)" d="M1078.16 9.54393 L1085.62 9.54393 L1085.62 72.576 L1078.16 72.576 L1078.16 9.54393 Z" fill="#000000" fill-rule="nonzero" fill-opacity="1" /><path clip-path="url(#clip200)" d="M1118.79 32.4315 Q1112.8 32.4315 1109.32 37.1306 Q1105.83 41.7891 1105.83 49.9314 Q1105.83 58.0738 1109.27 62.7728 Q1112.76 67.4314 1118.79 67.4314 Q1124.75 67.4314 1128.23 62.7323 Q1131.72 58.0333 1131.72 49.9314 Q1131.72 41.8701 1128.23 37.1711 Q1124.75 32.4315 1118.79 32.4315 M1118.79 26.1121 Q1128.52 26.1121 1134.07 32.4315 Q1139.62 38.7509 1139.62 49.9314 Q1139.62 61.0714 1134.07 67.4314 Q1128.52 73.7508 1118.79 73.7508 Q1109.03 73.7508 1103.48 67.4314 Q1097.97 61.0714 1097.97 49.9314 Q1097.97 38.7509 1103.48 32.4315 Q1109.03 26.1121 1118.79 26.1121 Z" fill="#000000" fill-rule="nonzero" fill-opacity="1" /><path clip-path="url(#clip200)" d="M1159.34 14.324 L1159.34 27.2059 L1174.7 27.2059 L1174.7 32.9987 L1159.34 32.9987 L1159.34 57.6282 Q1159.34 63.1779 1160.84 64.7578 Q1162.38 66.3376 1167.04 66.3376 L1174.7 66.3376 L1174.7 72.576 L1167.04 72.576 Q1158.41 72.576 1155.13 69.3758 Q1151.85 66.1351 1151.85 57.6282 L1151.85 32.9987 L1146.38 32.9987 L1146.38 27.2059 L1151.85 27.2059 L1151.85 14.324 L1159.34 14.324 Z" fill="#000000" fill-rule="nonzero" fill-opacity="1" /><path clip-path="url(#clip200)" d="M1206.54 27.2059 L1213.99 27.2059 L1223.31 62.6108 L1232.58 27.2059 L1241.37 27.2059 L1250.69 62.6108 L1259.97 27.2059 L1267.42 27.2059 L1255.55 72.576 L1246.76 72.576 L1237 35.3887 L1227.2 72.576 L1218.41 72.576 L1206.54 27.2059 Z" fill="#000000" fill-rule="nonzero" fill-opacity="1" /><path clip-path="url(#clip200)" d="M1278.72 27.2059 L1286.18 27.2059 L1286.18 72.576 L1278.72 72.576 L1278.72 27.2059 M1278.72 9.54393 L1286.18 9.54393 L1286.18 18.9825 L1278.72 18.9825 L1278.72 9.54393 Z" fill="#000000" fill-rule="nonzero" fill-opacity="1" /><path clip-path="url(#clip200)" d="M1309.15 14.324 L1309.15 27.2059 L1324.5 27.2059 L1324.5 32.9987 L1309.15 32.9987 L1309.15 57.6282 Q1309.15 63.1779 1310.65 64.7578 Q1312.18 66.3376 1316.84 66.3376 L1324.5 66.3376 L1324.5 72.576 L1316.84 72.576 Q1308.21 72.576 1304.93 69.3758 Q1301.65 66.1351 1301.65 57.6282 L1301.65 32.9987 L1296.18 32.9987 L1296.18 27.2059 L1301.65 27.2059 L1301.65 14.324 L1309.15 14.324 Z" fill="#000000" fill-rule="nonzero" fill-opacity="1" /><path clip-path="url(#clip200)" d="M1372.02 45.1919 L1372.02 72.576 L1364.56 72.576 L1364.56 45.4349 Q1364.56 38.994 1362.05 35.7938 Q1359.54 32.5936 1354.52 32.5936 Q1348.48 32.5936 1345 36.4419 Q1341.51 40.2903 1341.51 46.9338 L1341.51 72.576 L1334.02 72.576 L1334.02 9.54393 L1341.51 9.54393 L1341.51 34.2544 Q1344.19 30.163 1347.79 28.1376 Q1351.44 26.1121 1356.18 26.1121 Q1364 26.1121 1368.01 30.9732 Q1372.02 35.7938 1372.02 45.1919 Z" fill="#000000" fill-rule="nonzero" fill-opacity="1" /><path clip-path="url(#clip200)" d="M1405.19 12.096 L1456.36 12.096 L1456.36 18.9825 L1434.89 18.9825 L1434.89 72.576 L1426.66 72.576 L1426.66 18.9825 L1405.19 18.9825 L1405.19 12.096 Z" fill="#000000" fill-rule="nonzero" fill-opacity="1" /><path clip-path="url(#clip200)" d="M1445.86 27.2059 L1453.32 27.2059 L1462.63 62.6108 L1471.91 27.2059 L1480.7 27.2059 L1490.02 62.6108 L1499.3 27.2059 L1506.75 27.2059 L1494.88 72.576 L1486.09 72.576 L1476.33 35.3887 L1466.52 72.576 L1457.73 72.576 L1445.86 27.2059 Z" fill="#000000" fill-rule="nonzero" fill-opacity="1" /><path clip-path="url(#clip200)" d="M1535.63 32.4315 Q1529.64 32.4315 1526.15 37.1306 Q1522.67 41.7891 1522.67 49.9314 Q1522.67 58.0738 1526.11 62.7728 Q1529.6 67.4314 1535.63 67.4314 Q1541.59 67.4314 1545.07 62.7323 Q1548.55 58.0333 1548.55 49.9314 Q1548.55 41.8701 1545.07 37.1711 Q1541.59 32.4315 1535.63 32.4315 M1535.63 26.1121 Q1545.35 26.1121 1550.9 32.4315 Q1556.45 38.7509 1556.45 49.9314 Q1556.45 61.0714 1550.9 67.4314 Q1545.35 73.7508 1535.63 73.7508 Q1525.87 73.7508 1520.32 67.4314 Q1514.81 61.0714 1514.81 49.9314 Q1514.81 38.7509 1520.32 32.4315 Q1525.87 26.1121 1535.63 26.1121 Z" fill="#000000" fill-rule="nonzero" fill-opacity="1" /><path clip-path="url(#clip200)" d="M1631.76 14.0809 L1631.76 22.0612 Q1627.1 19.8332 1622.97 18.7395 Q1618.84 17.6457 1614.99 17.6457 Q1608.31 17.6457 1604.66 20.2383 Q1601.05 22.8309 1601.05 27.611 Q1601.05 31.6214 1603.44 33.6873 Q1605.87 35.7128 1612.6 36.9686 L1617.54 37.9813 Q1626.7 39.7232 1631.03 44.1387 Q1635.41 48.5136 1635.41 55.8863 Q1635.41 64.6767 1629.49 69.2137 Q1623.62 73.7508 1612.23 73.7508 Q1607.94 73.7508 1603.08 72.7785 Q1598.26 71.8063 1593.07 69.9024 L1593.07 61.4765 Q1598.06 64.2716 1602.84 65.6895 Q1607.62 67.1073 1612.23 67.1073 Q1619.24 67.1073 1623.05 64.3527 Q1626.86 61.598 1626.86 56.4939 Q1626.86 52.0379 1624.1 49.5264 Q1621.39 47.0148 1615.15 45.759 L1610.17 44.7868 Q1601.01 42.9639 1596.92 39.075 Q1592.83 35.1862 1592.83 28.2591 Q1592.83 20.2383 1598.46 15.6203 Q1604.13 11.0023 1614.06 11.0023 Q1618.31 11.0023 1622.73 11.7719 Q1627.14 12.5416 1631.76 14.0809 Z" fill="#000000" fill-rule="nonzero" fill-opacity="1" /><path clip-path="url(#clip200)" d="M1686.65 48.0275 L1686.65 51.6733 L1652.38 51.6733 Q1652.87 59.3701 1657 63.421 Q1661.17 67.4314 1668.58 67.4314 Q1672.88 67.4314 1676.89 66.3781 Q1680.94 65.3249 1684.91 63.2184 L1684.91 70.267 Q1680.9 71.9684 1676.68 72.8596 Q1672.47 73.7508 1668.14 73.7508 Q1657.28 73.7508 1650.92 67.4314 Q1644.6 61.1119 1644.6 50.3365 Q1644.6 39.1965 1650.6 32.6746 Q1656.63 26.1121 1666.84 26.1121 Q1676 26.1121 1681.3 32.0264 Q1686.65 37.9003 1686.65 48.0275 M1679.2 45.84 Q1679.12 39.7232 1675.75 36.0774 Q1672.43 32.4315 1666.92 32.4315 Q1660.68 32.4315 1656.92 35.9558 Q1653.19 39.4801 1652.62 45.8805 L1679.2 45.84 Z" fill="#000000" fill-rule="nonzero" fill-opacity="1" /><path clip-path="url(#clip200)" d="M1725.17 34.1734 Q1723.92 33.4443 1722.42 33.1202 Q1720.96 32.7556 1719.18 32.7556 Q1712.86 32.7556 1709.46 36.8875 Q1706.09 40.9789 1706.09 48.6757 L1706.09 72.576 L1698.6 72.576 L1698.6 27.2059 L1706.09 27.2059 L1706.09 34.2544 Q1708.44 30.1225 1712.21 28.1376 Q1715.98 26.1121 1721.37 26.1121 Q1722.14 26.1121 1723.07 26.2337 Q1724 26.3147 1725.13 26.5172 L1725.17 34.1734 Z" fill="#000000" fill-rule="nonzero" fill-opacity="1" /><path clip-path="url(#clip200)" d="M1732.99 27.2059 L1740.45 27.2059 L1740.45 72.576 L1732.99 72.576 L1732.99 27.2059 M1732.99 9.54393 L1740.45 9.54393 L1740.45 18.9825 L1732.99 18.9825 L1732.99 9.54393 Z" fill="#000000" fill-rule="nonzero" fill-opacity="1" /><path clip-path="url(#clip200)" d="M1794.85 48.0275 L1794.85 51.6733 L1760.58 51.6733 Q1761.07 59.3701 1765.2 63.421 Q1769.37 67.4314 1776.78 67.4314 Q1781.08 67.4314 1785.09 66.3781 Q1789.14 65.3249 1793.11 63.2184 L1793.11 70.267 Q1789.1 71.9684 1784.88 72.8596 Q1780.67 73.7508 1776.34 73.7508 Q1765.48 73.7508 1759.12 67.4314 Q1752.8 61.1119 1752.8 50.3365 Q1752.8 39.1965 1758.8 32.6746 Q1764.83 26.1121 1775.04 26.1121 Q1784.2 26.1121 1789.5 32.0264 Q1794.85 37.9003 1794.85 48.0275 M1787.4 45.84 Q1787.31 39.7232 1783.95 36.0774 Q1780.63 32.4315 1775.12 32.4315 Q1768.88 32.4315 1765.12 35.9558 Q1761.39 39.4801 1760.82 45.8805 L1787.4 45.84 Z" fill="#000000" fill-rule="nonzero" fill-opacity="1" /><path clip-path="url(#clip200)" d="M1836.01 28.5427 L1836.01 35.5912 Q1832.85 33.9709 1829.44 33.1607 Q1826.04 32.3505 1822.4 32.3505 Q1816.85 32.3505 1814.05 34.0519 Q1811.3 35.7533 1811.3 39.156 Q1811.3 41.7486 1813.28 43.2475 Q1815.27 44.7058 1821.26 46.0426 L1823.81 46.6097 Q1831.75 48.3111 1835.08 51.4303 Q1838.44 54.509 1838.44 60.0587 Q1838.44 66.3781 1833.41 70.0644 Q1828.43 73.7508 1819.68 73.7508 Q1816.04 73.7508 1812.07 73.0216 Q1808.14 72.3329 1803.76 70.9151 L1803.76 63.2184 Q1807.89 65.3654 1811.9 66.4591 Q1815.91 67.5124 1819.84 67.5124 Q1825.11 67.5124 1827.95 65.73 Q1830.78 63.9071 1830.78 60.6258 Q1830.78 57.5877 1828.72 55.9673 Q1826.69 54.3469 1819.76 52.8481 L1817.17 52.2405 Q1810.24 50.7821 1807.16 47.7845 Q1804.09 44.7463 1804.09 39.4801 Q1804.09 33.0797 1808.62 29.5959 Q1813.16 26.1121 1821.5 26.1121 Q1825.64 26.1121 1829.28 26.7198 Q1832.93 27.3274 1836.01 28.5427 Z" fill="#000000" fill-rule="nonzero" fill-opacity="1" /><polyline clip-path="url(#clip202)" style="stroke:#009af9; stroke-linecap:round; stroke-linejoin:round; stroke-width:4; stroke-opacity:1; fill:none" points="294.479,1595.48 414.37,678.899 534.262,245.116 654.153,1181.9 774.045,1667.15 893.936,228.527 1013.83,1688.65 1133.72,1052.78 1253.61,232.746 1373.5,252.192 1493.39,1474.48 1613.29,608.826 1733.18,702.041 1853.07,1126.27 1972.96,1390.1 2092.85,978.859 2212.74,647.983 2332.63,239.95 2452.53,1032.76 2572.42,578.23 "/>
<polyline clip-path="url(#clip202)" style="stroke:#e26f46; stroke-linecap:round; stroke-linejoin:round; stroke-width:4; stroke-opacity:1; fill:none" points="294.479,1444.42 414.37,1141.01 534.262,1419.4 654.153,485.299 774.045,1202.44 893.936,374.9 1013.83,472.932 1133.72,173.254 1253.61,373.131 1373.5,951.039 1493.39,232.199 1613.29,848.475 1733.18,1496.2 1853.07,1560.76 1972.96,1430.84 2092.85,1075.83 2212.74,1055.42 2332.63,1586.58 2452.53,350.343 2572.42,1043.65 "/>
<path clip-path="url(#clip200)" d="M2129.04 1680.57 L2560.27 1680.57 L2560.27 1525.05 L2129.04 1525.05  Z" fill="#ffffff" fill-rule="evenodd" fill-opacity="1"/>
<polyline clip-path="url(#clip200)" style="stroke:#000000; stroke-linecap:round; stroke-linejoin:round; stroke-width:4; stroke-opacity:1; fill:none" points="2129.04,1680.57 2560.27,1680.57 2560.27,1525.05 2129.04,1525.05 2129.04,1680.57 "/>
<polyline clip-path="url(#clip200)" style="stroke:#009af9; stroke-linecap:round; stroke-linejoin:round; stroke-width:4; stroke-opacity:1; fill:none" points="2155.87,1576.89 2316.84,1576.89 "/>
<path clip-path="url(#clip200)" d="M2365.92 1560.75 L2365.92 1565.31 Q2363.26 1564.03 2360.89 1563.41 Q2358.53 1562.78 2356.33 1562.78 Q2352.51 1562.78 2350.43 1564.27 Q2348.37 1565.75 2348.37 1568.48 Q2348.37 1570.77 2349.74 1571.95 Q2351.13 1573.11 2354.97 1573.83 L2357.79 1574.4 Q2363.02 1575.4 2365.5 1577.92 Q2368 1580.42 2368 1584.64 Q2368 1589.66 2364.62 1592.25 Q2361.26 1594.84 2354.76 1594.84 Q2352.31 1594.84 2349.53 1594.29 Q2346.77 1593.73 2343.81 1592.65 L2343.81 1587.83 Q2346.66 1589.43 2349.39 1590.24 Q2352.12 1591.05 2354.76 1591.05 Q2358.76 1591.05 2360.94 1589.47 Q2363.12 1587.9 2363.12 1584.98 Q2363.12 1582.44 2361.54 1581 Q2359.99 1579.57 2356.43 1578.85 L2353.58 1578.29 Q2348.35 1577.25 2346.01 1575.03 Q2343.67 1572.81 2343.67 1568.85 Q2343.67 1564.27 2346.89 1561.63 Q2350.13 1558.99 2355.8 1558.99 Q2358.23 1558.99 2360.76 1559.43 Q2363.28 1559.87 2365.92 1560.75 Z" fill="#000000" fill-rule="nonzero" fill-opacity="1" /><path clip-path="url(#clip200)" d="M2397.28 1580.15 L2397.28 1582.23 L2377.7 1582.23 Q2377.98 1586.63 2380.34 1588.94 Q2382.72 1591.23 2386.96 1591.23 Q2389.41 1591.23 2391.7 1590.63 Q2394.02 1590.03 2396.29 1588.83 L2396.29 1592.85 Q2394 1593.83 2391.59 1594.33 Q2389.18 1594.84 2386.7 1594.84 Q2380.5 1594.84 2376.87 1591.23 Q2373.26 1587.62 2373.26 1581.46 Q2373.26 1575.1 2376.68 1571.37 Q2380.13 1567.62 2385.96 1567.62 Q2391.2 1567.62 2394.23 1571 Q2397.28 1574.36 2397.28 1580.15 M2393.02 1578.9 Q2392.98 1575.4 2391.06 1573.32 Q2389.16 1571.23 2386.01 1571.23 Q2382.45 1571.23 2380.29 1573.25 Q2378.16 1575.26 2377.84 1578.92 L2393.02 1578.9 Z" fill="#000000" fill-rule="nonzero" fill-opacity="1" /><path clip-path="url(#clip200)" d="M2419.3 1572.23 Q2418.58 1571.81 2417.72 1571.63 Q2416.89 1571.42 2415.87 1571.42 Q2412.26 1571.42 2410.32 1573.78 Q2408.39 1576.12 2408.39 1580.52 L2408.39 1594.17 L2404.11 1594.17 L2404.11 1568.25 L2408.39 1568.25 L2408.39 1572.27 Q2409.74 1569.91 2411.89 1568.78 Q2414.04 1567.62 2417.12 1567.62 Q2417.56 1567.62 2418.09 1567.69 Q2418.63 1567.74 2419.27 1567.85 L2419.3 1572.23 Z" fill="#000000" fill-rule="nonzero" fill-opacity="1" /><path clip-path="url(#clip200)" d="M2423.76 1568.25 L2428.02 1568.25 L2428.02 1594.17 L2423.76 1594.17 L2423.76 1568.25 M2423.76 1558.15 L2428.02 1558.15 L2428.02 1563.55 L2423.76 1563.55 L2423.76 1558.15 Z" fill="#000000" fill-rule="nonzero" fill-opacity="1" /><path clip-path="url(#clip200)" d="M2459.11 1580.15 L2459.11 1582.23 L2439.53 1582.23 Q2439.81 1586.63 2442.17 1588.94 Q2444.55 1591.23 2448.79 1591.23 Q2451.24 1591.23 2453.53 1590.63 Q2455.85 1590.03 2458.12 1588.83 L2458.12 1592.85 Q2455.82 1593.83 2453.42 1594.33 Q2451.01 1594.84 2448.53 1594.84 Q2442.33 1594.84 2438.69 1591.23 Q2435.08 1587.62 2435.08 1581.46 Q2435.08 1575.1 2438.51 1571.37 Q2441.96 1567.62 2447.79 1567.62 Q2453.02 1567.62 2456.06 1571 Q2459.11 1574.36 2459.11 1580.15 M2454.85 1578.9 Q2454.81 1575.4 2452.88 1573.32 Q2450.99 1571.23 2447.84 1571.23 Q2444.27 1571.23 2442.12 1573.25 Q2439.99 1575.26 2439.67 1578.92 L2454.85 1578.9 Z" fill="#000000" fill-rule="nonzero" fill-opacity="1" /><path clip-path="url(#clip200)" d="M2482.63 1569.01 L2482.63 1573.04 Q2480.82 1572.11 2478.88 1571.65 Q2476.94 1571.19 2474.85 1571.19 Q2471.68 1571.19 2470.08 1572.16 Q2468.51 1573.13 2468.51 1575.08 Q2468.51 1576.56 2469.64 1577.41 Q2470.78 1578.25 2474.2 1579.01 L2475.66 1579.33 Q2480.2 1580.31 2482.1 1582.09 Q2484.02 1583.85 2484.02 1587.02 Q2484.02 1590.63 2481.15 1592.74 Q2478.3 1594.84 2473.3 1594.84 Q2471.22 1594.84 2468.95 1594.43 Q2466.7 1594.03 2464.2 1593.22 L2464.2 1588.83 Q2466.57 1590.05 2468.86 1590.68 Q2471.15 1591.28 2473.39 1591.28 Q2476.4 1591.28 2478.02 1590.26 Q2479.64 1589.22 2479.64 1587.34 Q2479.64 1585.61 2478.46 1584.68 Q2477.31 1583.76 2473.35 1582.9 L2471.87 1582.55 Q2467.91 1581.72 2466.15 1580.01 Q2464.39 1578.27 2464.39 1575.26 Q2464.39 1571.6 2466.98 1569.61 Q2469.57 1567.62 2474.34 1567.62 Q2476.7 1567.62 2478.79 1567.97 Q2480.87 1568.32 2482.63 1569.01 Z" fill="#000000" fill-rule="nonzero" fill-opacity="1" /><path clip-path="url(#clip200)" d="M2517.61 1564.22 L2511.26 1581.42 L2523.97 1581.42 L2517.61 1564.22 M2514.97 1559.61 L2520.27 1559.61 L2533.44 1594.17 L2528.58 1594.17 L2525.43 1585.31 L2509.85 1585.31 L2506.7 1594.17 L2501.77 1594.17 L2514.97 1559.61 Z" fill="#000000" fill-rule="nonzero" fill-opacity="1" /><polyline clip-path="url(#clip200)" style="stroke:#e26f46; stroke-linecap:round; stroke-linejoin:round; stroke-width:4; stroke-opacity:1; fill:none" points="2155.87,1628.73 2316.84,1628.73 "/>
<path clip-path="url(#clip200)" d="M2365.92 1612.59 L2365.92 1617.15 Q2363.26 1615.87 2360.89 1615.25 Q2358.53 1614.62 2356.33 1614.62 Q2352.51 1614.62 2350.43 1616.11 Q2348.37 1617.59 2348.37 1620.32 Q2348.37 1622.61 2349.74 1623.79 Q2351.13 1624.95 2354.97 1625.67 L2357.79 1626.24 Q2363.02 1627.24 2365.5 1629.76 Q2368 1632.26 2368 1636.48 Q2368 1641.5 2364.62 1644.09 Q2361.26 1646.68 2354.76 1646.68 Q2352.31 1646.68 2349.53 1646.13 Q2346.77 1645.57 2343.81 1644.49 L2343.81 1639.67 Q2346.66 1641.27 2349.39 1642.08 Q2352.12 1642.89 2354.76 1642.89 Q2358.76 1642.89 2360.94 1641.31 Q2363.12 1639.74 2363.12 1636.82 Q2363.12 1634.28 2361.54 1632.84 Q2359.99 1631.41 2356.43 1630.69 L2353.58 1630.13 Q2348.35 1629.09 2346.01 1626.87 Q2343.67 1624.65 2343.67 1620.69 Q2343.67 1616.11 2346.89 1613.47 Q2350.13 1610.83 2355.8 1610.83 Q2358.23 1610.83 2360.76 1611.27 Q2363.28 1611.71 2365.92 1612.59 Z" fill="#000000" fill-rule="nonzero" fill-opacity="1" /><path clip-path="url(#clip200)" d="M2397.28 1631.99 L2397.28 1634.07 L2377.7 1634.07 Q2377.98 1638.47 2380.34 1640.78 Q2382.72 1643.07 2386.96 1643.07 Q2389.41 1643.07 2391.7 1642.47 Q2394.02 1641.87 2396.29 1640.67 L2396.29 1644.69 Q2394 1645.67 2391.59 1646.17 Q2389.18 1646.68 2386.7 1646.68 Q2380.5 1646.68 2376.87 1643.07 Q2373.26 1639.46 2373.26 1633.3 Q2373.26 1626.94 2376.68 1623.21 Q2380.13 1619.46 2385.96 1619.46 Q2391.2 1619.46 2394.23 1622.84 Q2397.28 1626.2 2397.28 1631.99 M2393.02 1630.74 Q2392.98 1627.24 2391.06 1625.16 Q2389.16 1623.07 2386.01 1623.07 Q2382.45 1623.07 2380.29 1625.09 Q2378.16 1627.1 2377.84 1630.76 L2393.02 1630.74 Z" fill="#000000" fill-rule="nonzero" fill-opacity="1" /><path clip-path="url(#clip200)" d="M2419.3 1624.07 Q2418.58 1623.65 2417.72 1623.47 Q2416.89 1623.26 2415.87 1623.26 Q2412.26 1623.26 2410.32 1625.62 Q2408.39 1627.96 2408.39 1632.36 L2408.39 1646.01 L2404.11 1646.01 L2404.11 1620.09 L2408.39 1620.09 L2408.39 1624.11 Q2409.74 1621.75 2411.89 1620.62 Q2414.04 1619.46 2417.12 1619.46 Q2417.56 1619.46 2418.09 1619.53 Q2418.63 1619.58 2419.27 1619.69 L2419.3 1624.07 Z" fill="#000000" fill-rule="nonzero" fill-opacity="1" /><path clip-path="url(#clip200)" d="M2423.76 1620.09 L2428.02 1620.09 L2428.02 1646.01 L2423.76 1646.01 L2423.76 1620.09 M2423.76 1609.99 L2428.02 1609.99 L2428.02 1615.39 L2423.76 1615.39 L2423.76 1609.99 Z" fill="#000000" fill-rule="nonzero" fill-opacity="1" /><path clip-path="url(#clip200)" d="M2459.11 1631.99 L2459.11 1634.07 L2439.53 1634.07 Q2439.81 1638.47 2442.17 1640.78 Q2444.55 1643.07 2448.79 1643.07 Q2451.24 1643.07 2453.53 1642.47 Q2455.85 1641.87 2458.12 1640.67 L2458.12 1644.69 Q2455.82 1645.67 2453.42 1646.17 Q2451.01 1646.68 2448.53 1646.68 Q2442.33 1646.68 2438.69 1643.07 Q2435.08 1639.46 2435.08 1633.3 Q2435.08 1626.94 2438.51 1623.21 Q2441.96 1619.46 2447.79 1619.46 Q2453.02 1619.46 2456.06 1622.84 Q2459.11 1626.2 2459.11 1631.99 M2454.85 1630.74 Q2454.81 1627.24 2452.88 1625.16 Q2450.99 1623.07 2447.84 1623.07 Q2444.27 1623.07 2442.12 1625.09 Q2439.99 1627.1 2439.67 1630.76 L2454.85 1630.74 Z" fill="#000000" fill-rule="nonzero" fill-opacity="1" /><path clip-path="url(#clip200)" d="M2482.63 1620.85 L2482.63 1624.88 Q2480.82 1623.95 2478.88 1623.49 Q2476.94 1623.03 2474.85 1623.03 Q2471.68 1623.03 2470.08 1624 Q2468.51 1624.97 2468.51 1626.92 Q2468.51 1628.4 2469.64 1629.25 Q2470.78 1630.09 2474.2 1630.85 L2475.66 1631.17 Q2480.2 1632.15 2482.1 1633.93 Q2484.02 1635.69 2484.02 1638.86 Q2484.02 1642.47 2481.15 1644.58 Q2478.3 1646.68 2473.3 1646.68 Q2471.22 1646.68 2468.95 1646.27 Q2466.7 1645.87 2464.2 1645.06 L2464.2 1640.67 Q2466.57 1641.89 2468.86 1642.52 Q2471.15 1643.12 2473.39 1643.12 Q2476.4 1643.12 2478.02 1642.1 Q2479.64 1641.06 2479.64 1639.18 Q2479.64 1637.45 2478.46 1636.52 Q2477.31 1635.6 2473.35 1634.74 L2471.87 1634.39 Q2467.91 1633.56 2466.15 1631.85 Q2464.39 1630.11 2464.39 1627.1 Q2464.39 1623.44 2466.98 1621.45 Q2469.57 1619.46 2474.34 1619.46 Q2476.7 1619.46 2478.79 1619.81 Q2480.87 1620.16 2482.63 1620.85 Z" fill="#000000" fill-rule="nonzero" fill-opacity="1" /><path clip-path="url(#clip200)" d="M2510.73 1629.51 L2510.73 1642.17 L2518.23 1642.17 Q2522 1642.17 2523.81 1640.62 Q2525.64 1639.05 2525.64 1635.83 Q2525.64 1632.59 2523.81 1631.06 Q2522 1629.51 2518.23 1629.51 L2510.73 1629.51 M2510.73 1615.3 L2510.73 1625.71 L2517.65 1625.71 Q2521.08 1625.71 2522.75 1624.44 Q2524.44 1623.14 2524.44 1620.5 Q2524.44 1617.89 2522.75 1616.59 Q2521.08 1615.3 2517.65 1615.3 L2510.73 1615.3 M2506.06 1611.45 L2518 1611.45 Q2523.35 1611.45 2526.24 1613.68 Q2529.13 1615.9 2529.13 1619.99 Q2529.13 1623.17 2527.65 1625.04 Q2526.17 1626.92 2523.3 1627.38 Q2526.75 1628.12 2528.65 1630.48 Q2530.57 1632.82 2530.57 1636.34 Q2530.57 1640.97 2527.42 1643.49 Q2524.27 1646.01 2518.46 1646.01 L2506.06 1646.01 L2506.06 1611.45 Z" fill="#000000" fill-rule="nonzero" fill-opacity="1" /></svg>
