<?xml version="1.0" encoding="utf-8"?>
<svg xmlns="http://www.w3.org/2000/svg" xmlns:xlink="http://www.w3.org/1999/xlink" width="672" height="480" viewBox="0 0 2688 1920">
<defs>
  <clipPath id="clip430">
    <rect x="0" y="0" width="2688" height="1920"/>
  </clipPath>
</defs>
<path clip-path="url(#clip430)" d="M0 1920 L2688 1920 L2688 -4.26326e-14 L0 -4.26326e-14  Z" fill="#ffffff" fill-rule="evenodd" fill-opacity="1"/>
<defs>
  <clipPath id="clip431">
    <rect x="537" y="0" width="1883" height="1883"/>
  </clipPath>
</defs>
<path clip-path="url(#clip430)" d="M226.141 1734.12 L2640.76 1734.12 L2640.76 127.792 L226.141 127.792  Z" fill="#ffffff" fill-rule="evenodd" fill-opacity="1"/>
<defs>
  <clipPath id="clip432">
    <rect x="226" y="127" width="2416" height="1607"/>
  </clipPath>
</defs>
<polyline clip-path="url(#clip432)" style="stroke:#000000; stroke-linecap:round; stroke-linejoin:round; stroke-width:2; stroke-opacity:0.1; fill:none" points="774.045,1734.12 774.045,127.792 "/>
<polyline clip-path="url(#clip432)" style="stroke:#000000; stroke-linecap:round; stroke-linejoin:round; stroke-width:2; stroke-opacity:0.1; fill:none" points="1373.5,1734.12 1373.5,127.792 "/>
<polyline clip-path="url(#clip432)" style="stroke:#000000; stroke-linecap:round; stroke-linejoin:round; stroke-width:2; stroke-opacity:0.1; fill:none" points="1972.96,1734.12 1972.96,127.792 "/>
<polyline clip-path="url(#clip432)" style="stroke:#000000; stroke-linecap:round; stroke-linejoin:round; stroke-width:2; stroke-opacity:0.1; fill:none" points="2572.42,1734.12 2572.42,127.792 "/>
<polyline clip-path="url(#clip432)" style="stroke:#000000; stroke-linecap:round; stroke-linejoin:round; stroke-width:2; stroke-opacity:0.1; fill:none" points="226.141,1693.85 2640.76,1693.85 "/>
<polyline clip-path="url(#clip432)" style="stroke:#000000; stroke-linecap:round; stroke-linejoin:round; stroke-width:2; stroke-opacity:0.1; fill:none" points="226.141,1373.54 2640.76,1373.54 "/>
<polyline clip-path="url(#clip432)" style="stroke:#000000; stroke-linecap:round; stroke-linejoin:round; stroke-width:2; stroke-opacity:0.1; fill:none" points="226.141,1053.23 2640.76,1053.23 "/>
<polyline clip-path="url(#clip432)" style="stroke:#000000; stroke-linecap:round; stroke-linejoin:round; stroke-width:2; stroke-opacity:0.1; fill:none" points="226.141,732.917 2640.76,732.917 "/>
<polyline clip-path="url(#clip432)" style="stroke:#000000; stroke-linecap:round; stroke-linejoin:round; stroke-width:2; stroke-opacity:0.1; fill:none" points="226.141,412.605 2640.76,412.605 "/>
<polyline clip-path="url(#clip430)" style="stroke:#000000; stroke-linecap:round; stroke-linejoin:round; stroke-width:4; stroke-opacity:1; fill:none" points="226.141,1734.12 2640.76,1734.12 "/>
<polyline clip-path="url(#clip430)" style="stroke:#000000; stroke-linecap:round; stroke-linejoin:round; stroke-width:4; stroke-opacity:1; fill:none" points="774.045,1734.12 774.045,1715.22 "/>
<polyline clip-path="url(#clip430)" style="stroke:#000000; stroke-linecap:round; stroke-linejoin:round; stroke-width:4; stroke-opacity:1; fill:none" points="1373.5,1734.12 1373.5,1715.22 "/>
<polyline clip-path="url(#clip430)" style="stroke:#000000; stroke-linecap:round; stroke-linejoin:round; stroke-width:4; stroke-opacity:1; fill:none" points="1972.96,1734.12 1972.96,1715.22 "/>
<polyline clip-path="url(#clip430)" style="stroke:#000000; stroke-linecap:round; stroke-linejoin:round; stroke-width:4; stroke-opacity:1; fill:none" points="2572.42,1734.12 2572.42,1715.22 "/>
<path clip-path="url(#clip430)" d="M764.323 1764.26 L782.679 1764.26 L782.679 1768.2 L768.605 1768.2 L768.605 1776.67 Q769.624 1776.32 770.642 1776.16 Q771.661 1775.97 772.679 1775.97 Q778.466 1775.97 781.846 1779.15 Q785.225 1782.32 785.225 1787.73 Q785.225 1793.31 781.753 1796.41 Q778.281 1799.49 771.962 1799.49 Q769.786 1799.49 767.517 1799.12 Q765.272 1798.75 762.864 1798.01 L762.864 1793.31 Q764.948 1794.45 767.17 1795 Q769.392 1795.56 771.869 1795.56 Q775.874 1795.56 778.211 1793.45 Q780.549 1791.34 780.549 1787.73 Q780.549 1784.12 778.211 1782.02 Q775.874 1779.91 771.869 1779.91 Q769.994 1779.91 768.119 1780.33 Q766.267 1780.74 764.323 1781.62 L764.323 1764.26 Z" fill="#000000" fill-rule="nonzero" fill-opacity="1" /><path clip-path="url(#clip430)" d="M1348.19 1794.89 L1355.83 1794.89 L1355.83 1768.52 L1347.52 1770.19 L1347.52 1765.93 L1355.78 1764.26 L1360.46 1764.26 L1360.46 1794.89 L1368.1 1794.89 L1368.1 1798.82 L1348.19 1798.82 L1348.19 1794.89 Z" fill="#000000" fill-rule="nonzero" fill-opacity="1" /><path clip-path="url(#clip430)" d="M1387.54 1767.34 Q1383.93 1767.34 1382.1 1770.9 Q1380.3 1774.45 1380.3 1781.58 Q1380.3 1788.68 1382.1 1792.25 Q1383.93 1795.79 1387.54 1795.79 Q1391.18 1795.79 1392.98 1792.25 Q1394.81 1788.68 1394.81 1781.58 Q1394.81 1774.45 1392.98 1770.9 Q1391.18 1767.34 1387.54 1767.34 M1387.54 1763.64 Q1393.35 1763.64 1396.41 1768.24 Q1399.49 1772.83 1399.49 1781.58 Q1399.49 1790.3 1396.41 1794.91 Q1393.35 1799.49 1387.54 1799.49 Q1381.73 1799.49 1378.65 1794.91 Q1375.6 1790.3 1375.6 1781.58 Q1375.6 1772.83 1378.65 1768.24 Q1381.73 1763.64 1387.54 1763.64 Z" fill="#000000" fill-rule="nonzero" fill-opacity="1" /><path clip-path="url(#clip430)" d="M1948.15 1794.89 L1955.78 1794.89 L1955.78 1768.52 L1947.47 1770.19 L1947.47 1765.93 L1955.74 1764.26 L1960.41 1764.26 L1960.41 1794.89 L1968.05 1794.89 L1968.05 1798.82 L1948.15 1798.82 L1948.15 1794.89 Z" fill="#000000" fill-rule="nonzero" fill-opacity="1" /><path clip-path="url(#clip430)" d="M1977.54 1764.26 L1995.9 1764.26 L1995.9 1768.2 L1981.83 1768.2 L1981.83 1776.67 Q1982.84 1776.32 1983.86 1776.16 Q1984.88 1775.97 1985.9 1775.97 Q1991.69 1775.97 1995.07 1779.15 Q1998.45 1782.32 1998.45 1787.73 Q1998.45 1793.31 1994.97 1796.41 Q1991.5 1799.49 1985.18 1799.49 Q1983.01 1799.49 1980.74 1799.12 Q1978.49 1798.75 1976.09 1798.01 L1976.09 1793.31 Q1978.17 1794.45 1980.39 1795 Q1982.61 1795.56 1985.09 1795.56 Q1989.09 1795.56 1991.43 1793.45 Q1993.77 1791.34 1993.77 1787.73 Q1993.77 1784.12 1991.43 1782.02 Q1989.09 1779.91 1985.09 1779.91 Q1983.21 1779.91 1981.34 1780.33 Q1979.49 1780.74 1977.54 1781.62 L1977.54 1764.26 Z" fill="#000000" fill-rule="nonzero" fill-opacity="1" /><path clip-path="url(#clip430)" d="M2551.19 1794.89 L2567.51 1794.89 L2567.51 1798.82 L2545.57 1798.82 L2545.57 1794.89 Q2548.23 1792.13 2552.81 1787.5 Q2557.42 1782.85 2558.6 1781.51 Q2560.84 1778.98 2561.72 1777.25 Q2562.63 1775.49 2562.63 1773.8 Q2562.63 1771.04 2560.68 1769.31 Q2558.76 1767.57 2555.66 1767.57 Q2553.46 1767.57 2551.01 1768.34 Q2548.58 1769.1 2545.8 1770.65 L2545.8 1765.93 Q2548.62 1764.79 2551.08 1764.21 Q2553.53 1763.64 2555.57 1763.64 Q2560.94 1763.64 2564.13 1766.32 Q2567.33 1769.01 2567.33 1773.5 Q2567.33 1775.63 2566.51 1777.55 Q2565.73 1779.45 2563.62 1782.04 Q2563.04 1782.71 2559.94 1785.93 Q2556.84 1789.12 2551.19 1794.89 Z" fill="#000000" fill-rule="nonzero" fill-opacity="1" /><path clip-path="url(#clip430)" d="M2587.33 1767.34 Q2583.71 1767.34 2581.89 1770.9 Q2580.08 1774.45 2580.08 1781.58 Q2580.08 1788.68 2581.89 1792.25 Q2583.71 1795.79 2587.33 1795.79 Q2590.96 1795.79 2592.76 1792.25 Q2594.59 1788.68 2594.59 1781.58 Q2594.59 1774.45 2592.76 1770.9 Q2590.96 1767.34 2587.33 1767.34 M2587.33 1763.64 Q2593.14 1763.64 2596.19 1768.24 Q2599.27 1772.83 2599.27 1781.58 Q2599.27 1790.3 2596.19 1794.91 Q2593.14 1799.49 2587.33 1799.49 Q2581.51 1799.49 2578.44 1794.91 Q2575.38 1790.3 2575.38 1781.58 Q2575.38 1772.83 2578.44 1768.24 Q2581.51 1763.64 2587.33 1763.64 Z" fill="#000000" fill-rule="nonzero" fill-opacity="1" /><path clip-path="url(#clip430)" d="M1340.41 1835.78 L1347.32 1835.78 L1359.13 1853.45 L1371 1835.78 L1377.91 1835.78 L1362.63 1858.6 L1378.93 1883.3 L1372.02 1883.3 L1358.65 1863.09 L1345.19 1883.3 L1338.25 1883.3 L1355.21 1857.93 L1340.41 1835.78 Z" fill="#000000" fill-rule="nonzero" fill-opacity="1" /><path clip-path="url(#clip430)" d="M1380.9 1862.84 L1398.05 1862.84 L1398.05 1868.06 L1380.9 1868.06 L1380.9 1862.84 Z" fill="#000000" fill-rule="nonzero" fill-opacity="1" /><path clip-path="url(#clip430)" d="M1423.58 1865.38 Q1416.48 1865.38 1413.75 1867 Q1411.01 1868.63 1411.01 1872.54 Q1411.01 1875.66 1413.05 1877.51 Q1415.11 1879.32 1418.65 1879.32 Q1423.52 1879.32 1426.45 1875.88 Q1429.41 1872.42 1429.41 1866.69 L1429.41 1865.38 L1423.58 1865.38 M1435.26 1862.96 L1435.26 1883.3 L1429.41 1883.3 L1429.41 1877.89 Q1427.4 1881.14 1424.41 1882.7 Q1421.42 1884.22 1417.09 1884.22 Q1411.61 1884.22 1408.37 1881.17 Q1405.15 1878.08 1405.15 1872.92 Q1405.15 1866.91 1409.16 1863.85 Q1413.21 1860.8 1421.19 1860.8 L1429.41 1860.8 L1429.41 1860.23 Q1429.41 1856.18 1426.73 1853.99 Q1424.09 1851.76 1419.28 1851.76 Q1416.23 1851.76 1413.33 1852.49 Q1410.44 1853.22 1407.76 1854.69 L1407.76 1849.28 Q1410.98 1848.03 1414 1847.43 Q1417.02 1846.79 1419.89 1846.79 Q1427.62 1846.79 1431.44 1850.8 Q1435.26 1854.81 1435.26 1862.96 Z" fill="#000000" fill-rule="nonzero" fill-opacity="1" /><path clip-path="url(#clip430)" d="M1476.96 1847.65 L1464.07 1865 L1477.63 1883.3 L1470.72 1883.3 L1460.34 1869.3 L1449.97 1883.3 L1443.06 1883.3 L1456.91 1864.65 L1444.24 1847.65 L1451.14 1847.65 L1460.6 1860.35 L1470.05 1847.65 L1476.96 1847.65 Z" fill="#000000" fill-rule="nonzero" fill-opacity="1" /><path clip-path="url(#clip430)" d="M1485.9 1847.65 L1491.76 1847.65 L1491.76 1883.3 L1485.9 1883.3 L1485.9 1847.65 M1485.9 1833.78 L1491.76 1833.78 L1491.76 1841.19 L1485.9 1841.19 L1485.9 1833.78 Z" fill="#000000" fill-rule="nonzero" fill-opacity="1" /><path clip-path="url(#clip430)" d="M1526.74 1848.7 L1526.74 1854.24 Q1524.26 1852.97 1521.58 1852.33 Q1518.91 1851.7 1516.04 1851.7 Q1511.68 1851.7 1509.49 1853.03 Q1507.32 1854.37 1507.32 1857.04 Q1507.32 1859.08 1508.88 1860.26 Q1510.44 1861.4 1515.15 1862.45 L1517.16 1862.9 Q1523.4 1864.24 1526.01 1866.69 Q1528.65 1869.11 1528.65 1873.47 Q1528.65 1878.43 1524.7 1881.33 Q1520.79 1884.22 1513.91 1884.22 Q1511.05 1884.22 1507.93 1883.65 Q1504.84 1883.11 1501.4 1882 L1501.4 1875.95 Q1504.65 1877.64 1507.8 1878.49 Q1510.95 1879.32 1514.04 1879.32 Q1518.18 1879.32 1520.4 1877.92 Q1522.63 1876.49 1522.63 1873.91 Q1522.63 1871.52 1521.01 1870.25 Q1519.42 1868.98 1513.97 1867.8 L1511.94 1867.32 Q1506.49 1866.18 1504.08 1863.82 Q1501.66 1861.43 1501.66 1857.3 Q1501.66 1852.27 1505.22 1849.53 Q1508.79 1846.79 1515.34 1846.79 Q1518.59 1846.79 1521.45 1847.27 Q1524.32 1847.75 1526.74 1848.7 Z" fill="#000000" fill-rule="nonzero" fill-opacity="1" /><polyline clip-path="url(#clip430)" style="stroke:#000000; stroke-linecap:round; stroke-linejoin:round; stroke-width:4; stroke-opacity:1; fill:none" points="226.141,1734.12 226.141,127.792 "/>
<polyline clip-path="url(#clip430)" style="stroke:#000000; stroke-linecap:round; stroke-linejoin:round; stroke-width:4; stroke-opacity:1; fill:none" points="226.141,1693.85 245.038,1693.85 "/>
<polyline clip-path="url(#clip430)" style="stroke:#000000; stroke-linecap:round; stroke-linejoin:round; stroke-width:4; stroke-opacity:1; fill:none" points="226.141,1373.54 245.038,1373.54 "/>
<polyline clip-path="url(#clip430)" style="stroke:#000000; stroke-linecap:round; stroke-linejoin:round; stroke-width:4; stroke-opacity:1; fill:none" points="226.141,1053.23 245.038,1053.23 "/>
<polyline clip-path="url(#clip430)" style="stroke:#000000; stroke-linecap:round; stroke-linejoin:round; stroke-width:4; stroke-opacity:1; fill:none" points="226.141,732.917 245.038,732.917 "/>
<polyline clip-path="url(#clip430)" style="stroke:#000000; stroke-linecap:round; stroke-linejoin:round; stroke-width:4; stroke-opacity:1; fill:none" points="226.141,412.605 245.038,412.605 "/>
<path clip-path="url(#clip430)" d="M128.645 1679.65 Q125.034 1679.65 123.205 1683.21 Q121.4 1686.76 121.4 1693.89 Q121.4 1700.99 123.205 1704.56 Q125.034 1708.1 128.645 1708.1 Q132.279 1708.1 134.085 1704.56 Q135.913 1700.99 135.913 1693.89 Q135.913 1686.76 134.085 1683.21 Q132.279 1679.65 128.645 1679.65 M128.645 1675.95 Q134.455 1675.95 137.511 1680.55 Q140.589 1685.14 140.589 1693.89 Q140.589 1702.61 137.511 1707.22 Q134.455 1711.8 128.645 1711.8 Q122.835 1711.8 119.756 1707.22 Q116.701 1702.61 116.701 1693.89 Q116.701 1685.14 119.756 1680.55 Q122.835 1675.95 128.645 1675.95 Z" fill="#000000" fill-rule="nonzero" fill-opacity="1" /><path clip-path="url(#clip430)" d="M148.807 1705.25 L153.691 1705.25 L153.691 1711.13 L148.807 1711.13 L148.807 1705.25 Z" fill="#000000" fill-rule="nonzero" fill-opacity="1" /><path clip-path="url(#clip430)" d="M173.876 1679.65 Q170.265 1679.65 168.436 1683.21 Q166.631 1686.76 166.631 1693.89 Q166.631 1700.99 168.436 1704.56 Q170.265 1708.1 173.876 1708.1 Q177.51 1708.1 179.316 1704.56 Q181.145 1700.99 181.145 1693.89 Q181.145 1686.76 179.316 1683.21 Q177.51 1679.65 173.876 1679.65 M173.876 1675.95 Q179.686 1675.95 182.742 1680.55 Q185.821 1685.14 185.821 1693.89 Q185.821 1702.61 182.742 1707.22 Q179.686 1711.8 173.876 1711.8 Q168.066 1711.8 164.987 1707.22 Q161.932 1702.61 161.932 1693.89 Q161.932 1685.14 164.987 1680.55 Q168.066 1675.95 173.876 1675.95 Z" fill="#000000" fill-rule="nonzero" fill-opacity="1" /><path clip-path="url(#clip430)" d="M130.242 1359.34 Q126.631 1359.34 124.802 1362.9 Q122.997 1366.44 122.997 1373.57 Q122.997 1380.68 124.802 1384.25 Q126.631 1387.79 130.242 1387.79 Q133.876 1387.79 135.682 1384.25 Q137.511 1380.68 137.511 1373.57 Q137.511 1366.44 135.682 1362.9 Q133.876 1359.34 130.242 1359.34 M130.242 1355.63 Q136.052 1355.63 139.108 1360.24 Q142.187 1364.82 142.187 1373.57 Q142.187 1382.3 139.108 1386.91 Q136.052 1391.49 130.242 1391.49 Q124.432 1391.49 121.353 1386.91 Q118.298 1382.3 118.298 1373.57 Q118.298 1364.82 121.353 1360.24 Q124.432 1355.63 130.242 1355.63 Z" fill="#000000" fill-rule="nonzero" fill-opacity="1" /><path clip-path="url(#clip430)" d="M150.404 1384.94 L155.288 1384.94 L155.288 1390.82 L150.404 1390.82 L150.404 1384.94 Z" fill="#000000" fill-rule="nonzero" fill-opacity="1" /><path clip-path="url(#clip430)" d="M169.501 1386.88 L185.821 1386.88 L185.821 1390.82 L163.876 1390.82 L163.876 1386.88 Q166.538 1384.13 171.122 1379.5 Q175.728 1374.85 176.909 1373.5 Q179.154 1370.98 180.034 1369.25 Q180.936 1367.49 180.936 1365.8 Q180.936 1363.04 178.992 1361.31 Q177.071 1359.57 173.969 1359.57 Q171.77 1359.57 169.316 1360.33 Q166.885 1361.1 164.108 1362.65 L164.108 1357.93 Q166.932 1356.79 169.385 1356.21 Q171.839 1355.63 173.876 1355.63 Q179.247 1355.63 182.441 1358.32 Q185.635 1361 185.635 1365.5 Q185.635 1367.63 184.825 1369.55 Q184.038 1371.44 181.932 1374.04 Q181.353 1374.71 178.251 1377.93 Q175.149 1381.12 169.501 1386.88 Z" fill="#000000" fill-rule="nonzero" fill-opacity="1" /><path clip-path="url(#clip430)" d="M128.159 1039.03 Q124.548 1039.03 122.719 1042.59 Q120.913 1046.13 120.913 1053.26 Q120.913 1060.37 122.719 1063.93 Q124.548 1067.48 128.159 1067.48 Q131.793 1067.48 133.599 1063.93 Q135.427 1060.37 135.427 1053.26 Q135.427 1046.13 133.599 1042.59 Q131.793 1039.03 128.159 1039.03 M128.159 1035.32 Q133.969 1035.32 137.025 1039.93 Q140.103 1044.51 140.103 1053.26 Q140.103 1061.99 137.025 1066.6 Q133.969 1071.18 128.159 1071.18 Q122.349 1071.18 119.27 1066.6 Q116.214 1061.99 116.214 1053.26 Q116.214 1044.51 119.27 1039.93 Q122.349 1035.32 128.159 1035.32 Z" fill="#000000" fill-rule="nonzero" fill-opacity="1" /><path clip-path="url(#clip430)" d="M148.321 1064.63 L153.205 1064.63 L153.205 1070.51 L148.321 1070.51 L148.321 1064.63 Z" fill="#000000" fill-rule="nonzero" fill-opacity="1" /><path clip-path="url(#clip430)" d="M176.237 1040.02 L164.432 1058.47 L176.237 1058.47 L176.237 1040.02 M175.01 1035.95 L180.89 1035.95 L180.89 1058.47 L185.821 1058.47 L185.821 1062.36 L180.89 1062.36 L180.89 1070.51 L176.237 1070.51 L176.237 1062.36 L160.636 1062.36 L160.636 1057.85 L175.01 1035.95 Z" fill="#000000" fill-rule="nonzero" fill-opacity="1" /><path clip-path="url(#clip430)" d="M128.483 718.715 Q124.872 718.715 123.043 722.28 Q121.238 725.822 121.238 732.951 Q121.238 740.058 123.043 743.623 Q124.872 747.164 128.483 747.164 Q132.117 747.164 133.923 743.623 Q135.751 740.058 135.751 732.951 Q135.751 725.822 133.923 722.28 Q132.117 718.715 128.483 718.715 M128.483 715.012 Q134.293 715.012 137.349 719.618 Q140.427 724.201 140.427 732.951 Q140.427 741.678 137.349 746.285 Q134.293 750.868 128.483 750.868 Q122.673 750.868 119.594 746.285 Q116.539 741.678 116.539 732.951 Q116.539 724.201 119.594 719.618 Q122.673 715.012 128.483 715.012 Z" fill="#000000" fill-rule="nonzero" fill-opacity="1" /><path clip-path="url(#clip430)" d="M148.645 744.317 L153.529 744.317 L153.529 750.197 L148.645 750.197 L148.645 744.317 Z" fill="#000000" fill-rule="nonzero" fill-opacity="1" /><path clip-path="url(#clip430)" d="M174.293 731.053 Q171.145 731.053 169.293 733.206 Q167.464 735.359 167.464 739.109 Q167.464 742.835 169.293 745.011 Q171.145 747.164 174.293 747.164 Q177.441 747.164 179.27 745.011 Q181.122 742.835 181.122 739.109 Q181.122 735.359 179.27 733.206 Q177.441 731.053 174.293 731.053 M183.575 716.4 L183.575 720.66 Q181.816 719.826 180.01 719.387 Q178.228 718.947 176.469 718.947 Q171.839 718.947 169.385 722.072 Q166.955 725.197 166.608 731.516 Q167.973 729.502 170.034 728.437 Q172.094 727.349 174.571 727.349 Q179.779 727.349 182.788 730.521 Q185.821 733.669 185.821 739.109 Q185.821 744.433 182.672 747.65 Q179.524 750.868 174.293 750.868 Q168.297 750.868 165.126 746.285 Q161.955 741.678 161.955 732.951 Q161.955 724.757 165.844 719.896 Q169.733 715.012 176.284 715.012 Q178.043 715.012 179.825 715.359 Q181.631 715.706 183.575 716.4 Z" fill="#000000" fill-rule="nonzero" fill-opacity="1" /><path clip-path="url(#clip430)" d="M128.738 398.404 Q125.126 398.404 123.298 401.969 Q121.492 405.51 121.492 412.64 Q121.492 419.746 123.298 423.311 Q125.126 426.853 128.738 426.853 Q132.372 426.853 134.177 423.311 Q136.006 419.746 136.006 412.64 Q136.006 405.51 134.177 401.969 Q132.372 398.404 128.738 398.404 M128.738 394.7 Q134.548 394.7 137.603 399.307 Q140.682 403.89 140.682 412.64 Q140.682 421.367 137.603 425.973 Q134.548 430.556 128.738 430.556 Q122.927 430.556 119.849 425.973 Q116.793 421.367 116.793 412.64 Q116.793 403.89 119.849 399.307 Q122.927 394.7 128.738 394.7 Z" fill="#000000" fill-rule="nonzero" fill-opacity="1" /><path clip-path="url(#clip430)" d="M148.899 424.005 L153.784 424.005 L153.784 429.885 L148.899 429.885 L148.899 424.005 Z" fill="#000000" fill-rule="nonzero" fill-opacity="1" /><path clip-path="url(#clip430)" d="M173.969 413.473 Q170.635 413.473 168.714 415.255 Q166.816 417.038 166.816 420.163 Q166.816 423.288 168.714 425.07 Q170.635 426.853 173.969 426.853 Q177.302 426.853 179.223 425.07 Q181.145 423.265 181.145 420.163 Q181.145 417.038 179.223 415.255 Q177.325 413.473 173.969 413.473 M169.293 411.482 Q166.284 410.742 164.594 408.681 Q162.927 406.621 162.927 403.658 Q162.927 399.515 165.867 397.107 Q168.83 394.7 173.969 394.7 Q179.131 394.7 182.071 397.107 Q185.01 399.515 185.01 403.658 Q185.01 406.621 183.321 408.681 Q181.654 410.742 178.668 411.482 Q182.047 412.269 183.922 414.561 Q185.821 416.853 185.821 420.163 Q185.821 425.186 182.742 427.871 Q179.686 430.556 173.969 430.556 Q168.251 430.556 165.173 427.871 Q162.117 425.186 162.117 420.163 Q162.117 416.853 164.015 414.561 Q165.913 412.269 169.293 411.482 M167.58 404.098 Q167.58 406.783 169.247 408.288 Q170.936 409.793 173.969 409.793 Q176.978 409.793 178.668 408.288 Q180.381 406.783 180.381 404.098 Q180.381 401.413 178.668 399.908 Q176.978 398.404 173.969 398.404 Q170.936 398.404 169.247 399.908 Q167.58 401.413 167.58 404.098 Z" fill="#000000" fill-rule="nonzero" fill-opacity="1" /><path clip-path="url(#clip430)" d="M14.1184 1022.53 L14.1184 1015.62 L33.6612 1002.44 L14.1184 989.36 L14.1184 982.453 L39.0084 999.259 L61.6384 999.259 L61.6384 1005.72 L39.0084 1005.72 L14.1184 1022.53 Z" fill="#000000" fill-rule="nonzero" fill-opacity="1" /><path clip-path="url(#clip430)" d="M41.1727 987.132 L41.1727 969.976 L46.3926 969.976 L46.3926 987.132 L41.1727 987.132 Z" fill="#000000" fill-rule="nonzero" fill-opacity="1" /><path clip-path="url(#clip430)" d="M43.719 944.45 Q43.719 951.548 45.3422 954.285 Q46.9655 957.022 50.8804 957.022 Q53.9996 957.022 55.8457 954.985 Q57.6599 952.916 57.6599 949.383 Q57.6599 944.514 54.2224 941.585 Q50.7531 938.625 45.0239 938.625 L43.719 938.625 L43.719 944.45 M41.3 932.769 L61.6384 932.769 L61.6384 938.625 L56.2276 938.625 Q59.4741 940.63 61.0337 943.622 Q62.5615 946.614 62.5615 950.943 Q62.5615 956.417 59.5059 959.664 Q56.4186 962.879 51.2623 962.879 Q45.2467 962.879 42.1912 958.868 Q39.1357 954.826 39.1357 946.837 L39.1357 938.625 L38.5628 938.625 Q34.5205 938.625 32.3244 941.299 Q30.0964 943.941 30.0964 948.747 Q30.0964 951.802 30.8284 954.699 Q31.5605 957.595 33.0246 960.269 L27.6137 960.269 Q26.3724 957.054 25.7677 954.03 Q25.1311 951.007 25.1311 948.142 Q25.1311 940.408 29.1415 936.588 Q33.1519 932.769 41.3 932.769 Z" fill="#000000" fill-rule="nonzero" fill-opacity="1" /><path clip-path="url(#clip430)" d="M25.9905 891.073 L43.337 903.964 L61.6384 890.405 L61.6384 897.312 L47.6339 907.688 L61.6384 918.064 L61.6384 924.971 L42.9869 911.125 L25.9905 923.793 L25.9905 916.886 L38.6901 907.433 L25.9905 897.98 L25.9905 891.073 Z" fill="#000000" fill-rule="nonzero" fill-opacity="1" /><path clip-path="url(#clip430)" d="M25.9905 882.13 L25.9905 876.273 L61.6384 876.273 L61.6384 882.13 L25.9905 882.13 M12.1132 882.13 L12.1132 876.273 L19.5293 876.273 L19.5293 882.13 L12.1132 882.13 Z" fill="#000000" fill-rule="nonzero" fill-opacity="1" /><path clip-path="url(#clip430)" d="M27.0408 841.294 L32.579 841.294 Q31.3059 843.776 30.6693 846.45 Q30.0327 849.123 30.0327 851.988 Q30.0327 856.348 31.3695 858.545 Q32.7063 860.709 35.3799 860.709 Q37.4169 860.709 38.5946 859.149 Q39.7404 857.59 40.7908 852.879 L41.2364 850.874 Q42.5732 844.636 45.0239 842.026 Q47.4429 839.384 51.8034 839.384 Q56.7687 839.384 59.6651 843.331 Q62.5615 847.246 62.5615 854.12 Q62.5615 856.985 61.9886 860.104 Q61.4475 863.192 60.3335 866.629 L54.2861 866.629 Q55.973 863.383 56.8323 860.232 Q57.6599 857.081 57.6599 853.993 Q57.6599 849.855 56.2594 847.627 Q54.8271 845.399 52.249 845.399 Q49.8619 845.399 48.5887 847.023 Q47.3156 848.614 46.1379 854.057 L45.6605 856.094 Q44.5147 861.537 42.1594 863.955 Q39.7722 866.374 35.6345 866.374 Q30.6056 866.374 27.8684 862.81 Q25.1311 859.245 25.1311 852.688 Q25.1311 849.442 25.6085 846.577 Q26.086 843.713 27.0408 841.294 Z" fill="#000000" fill-rule="nonzero" fill-opacity="1" /><path clip-path="url(#clip430)" d="M1036.64 18.8205 L1036.64 41.5461 L1046.93 41.5461 Q1052.64 41.5461 1055.76 38.5889 Q1058.88 35.6318 1058.88 30.163 Q1058.88 24.7348 1055.76 21.7777 Q1052.64 18.8205 1046.93 18.8205 L1036.64 18.8205 M1028.46 12.096 L1046.93 12.096 Q1057.1 12.096 1062.28 16.714 Q1067.51 21.2916 1067.51 30.163 Q1067.51 39.1155 1062.28 43.6931 Q1057.1 48.2706 1046.93 48.2706 L1036.64 48.2706 L1036.64 72.576 L1028.46 72.576 L1028.46 12.096 Z" fill="#000000" fill-rule="nonzero" fill-opacity="1" /><path clip-path="url(#clip430)" d="M1078.16 9.54393 L1085.62 9.54393 L1085.62 72.576 L1078.16 72.576 L1078.16 9.54393 Z" fill="#000000" fill-rule="nonzero" fill-opacity="1" /><path clip-path="url(#clip430)" d="M1118.79 32.4315 Q1112.8 32.4315 1109.32 37.1306 Q1105.83 41.7891 1105.83 49.9314 Q1105.83 58.0738 1109.27 62.7728 Q1112.76 67.4314 1118.79 67.4314 Q1124.75 67.4314 1128.23 62.7323 Q1131.72 58.0333 1131.72 49.9314 Q1131.72 41.8701 1128.23 37.1711 Q1124.75 32.4315 1118.79 32.4315 M1118.79 26.1121 Q1128.52 26.1121 1134.07 32.4315 Q1139.62 38.7509 1139.62 49.9314 Q1139.62 61.0714 1134.07 67.4314 Q1128.52 73.7508 1118.79 73.7508 Q1109.03 73.7508 1103.48 67.4314 Q1097.97 61.0714 1097.97 49.9314 Q1097.97 38.7509 1103.48 32.4315 Q1109.03 26.1121 1118.79 26.1121 Z" fill="#000000" fill-rule="nonzero" fill-opacity="1" /><path clip-path="url(#clip430)" d="M1159.34 14.324 L1159.34 27.2059 L1174.7 27.2059 L1174.7 32.9987 L1159.34 32.9987 L1159.34 57.6282 Q1159.34 63.1779 1160.84 64.7578 Q1162.38 66.3376 1167.04 66.3376 L1174.7 66.3376 L1174.7 72.576 L1167.04 72.576 Q1158.41 72.576 1155.13 69.3758 Q1151.85 66.1351 1151.85 57.6282 L1151.85 32.9987 L1146.38 32.9987 L1146.38 27.2059 L1151.85 27.2059 L1151.85 14.324 L1159.34 14.324 Z" fill="#000000" fill-rule="nonzero" fill-opacity="1" /><path clip-path="url(#clip430)" d="M1206.54 27.2059 L1213.99 27.2059 L1223.31 62.6108 L1232.58 27.2059 L1241.37 27.2059 L1250.69 62.6108 L1259.97 27.2059 L1267.42 27.2059 L1255.55 72.576 L1246.76 72.576 L1237 35.3887 L1227.2 72.576 L1218.41 72.576 L1206.54 27.2059 Z" fill="#000000" fill-rule="nonzero" fill-opacity="1" /><path clip-path="url(#clip430)" d="M1278.72 27.2059 L1286.18 27.2059 L1286.18 72.576 L1278.72 72.576 L1278.72 27.2059 M1278.72 9.54393 L1286.18 9.54393 L1286.18 18.9825 L1278.72 18.9825 L1278.72 9.54393 Z" fill="#000000" fill-rule="nonzero" fill-opacity="1" /><path clip-path="url(#clip430)" d="M1309.15 14.324 L1309.15 27.2059 L1324.5 27.2059 L1324.5 32.9987 L1309.15 32.9987 L1309.15 57.6282 Q1309.15 63.1779 1310.65 64.7578 Q1312.18 66.3376 1316.84 66.3376 L1324.5 66.3376 L1324.5 72.576 L1316.84 72.576 Q1308.21 72.576 1304.93 69.3758 Q1301.65 66.1351 1301.65 57.6282 L1301.65 32.9987 L1296.18 32.9987 L1296.18 27.2059 L1301.65 27.2059 L1301.65 14.324 L1309.15 14.324 Z" fill="#000000" fill-rule="nonzero" fill-opacity="1" /><path clip-path="url(#clip430)" d="M1372.02 45.1919 L1372.02 72.576 L1364.56 72.576 L1364.56 45.4349 Q1364.56 38.994 1362.05 35.7938 Q1359.54 32.5936 1354.52 32.5936 Q1348.48 32.5936 1345 36.4419 Q1341.51 40.2903 1341.51 46.9338 L1341.51 72.576 L1334.02 72.576 L1334.02 9.54393 L1341.51 9.54393 L1341.51 34.2544 Q1344.19 30.163 1347.79 28.1376 Q1351.44 26.1121 1356.18 26.1121 Q1364 26.1121 1368.01 30.9732 Q1372.02 35.7938 1372.02 45.1919 Z" fill="#000000" fill-rule="nonzero" fill-opacity="1" /><path clip-path="url(#clip430)" d="M1405.19 12.096 L1456.36 12.096 L1456.36 18.9825 L1434.89 18.9825 L1434.89 72.576 L1426.66 72.576 L1426.66 18.9825 L1405.19 18.9825 L1405.19 12.096 Z" fill="#000000" fill-rule="nonzero" fill-opacity="1" /><path clip-path="url(#clip430)" d="M1445.86 27.2059 L1453.32 27.2059 L1462.63 62.6108 L1471.91 27.2059 L1480.7 27.2059 L1490.02 62.6108 L1499.3 27.2059 L1506.75 27.2059 L1494.88 72.576 L1486.09 72.576 L1476.33 35.3887 L1466.52 72.576 L1457.73 72.576 L1445.86 27.2059 Z" fill="#000000" fill-rule="nonzero" fill-opacity="1" /><path clip-path="url(#clip430)" d="M1535.63 32.4315 Q1529.64 32.4315 1526.15 37.1306 Q1522.67 41.7891 1522.67 49.9314 Q1522.67 58.0738 1526.11 62.7728 Q1529.6 67.4314 1535.63 67.4314 Q1541.59 67.4314 1545.07 62.7323 Q1548.55 58.0333 1548.55 49.9314 Q1548.55 41.8701 1545.07 37.1711 Q1541.59 32.4315 1535.63 32.4315 M1535.63 26.1121 Q1545.35 26.1121 1550.9 32.4315 Q1556.45 38.7509 1556.45 49.9314 Q1556.45 61.0714 1550.9 67.4314 Q1545.35 73.7508 1535.63 73.7508 Q1525.87 73.7508 1520.32 67.4314 Q1514.81 61.0714 1514.81 49.9314 Q1514.81 38.7509 1520.32 32.4315 Q1525.87 26.1121 1535.63 26.1121 Z" fill="#000000" fill-rule="nonzero" fill-opacity="1" /><path clip-path="url(#clip430)" d="M1631.76 14.0809 L1631.76 22.0612 Q1627.1 19.8332 1622.97 18.7395 Q1618.84 17.6457 1614.99 17.6457 Q1608.31 17.6457 1604.66 20.2383 Q1601.05 22.8309 1601.05 27.611 Q1601.05 31.6214 1603.44 33.6873 Q1605.87 35.7128 1612.6 36.9686 L1617.54 37.9813 Q1626.7 39.7232 1631.03 44.1387 Q1635.41 48.5136 1635.41 55.8863 Q1635.41 64.6767 1629.49 69.2137 Q1623.62 73.7508 1612.23 73.7508 Q1607.94 73.7508 1603.08 72.7785 Q1598.26 71.8063 1593.07 69.9024 L1593.07 61.4765 Q1598.06 64.2716 1602.84 65.6895 Q1607.62 67.1073 1612.23 67.1073 Q1619.24 67.1073 1623.05 64.3527 Q1626.86 61.598 1626.86 56.4939 Q1626.86 52.0379 1624.1 49.5264 Q1621.39 47.0148 1615.15 45.759 L1610.17 44.7868 Q1601.01 42.9639 1596.92 39.075 Q1592.83 35.1862 1592.83 28.2591 Q1592.83 20.2383 1598.46 15.6203 Q1604.13 11.0023 1614.06 11.0023 Q1618.31 11.0023 1622.73 11.7719 Q1627.14 12.5416 1631.76 14.0809 Z" fill="#000000" fill-rule="nonzero" fill-opacity="1" /><path clip-path="url(#clip430)" d="M1686.65 48.0275 L1686.65 51.6733 L1652.38 51.6733 Q1652.87 59.3701 1657 63.421 Q1661.17 67.4314 1668.58 67.4314 Q1672.88 67.4314 1676.89 66.3781 Q1680.94 65.3249 1684.91 63.2184 L1684.91 70.267 Q1680.9 71.9684 1676.68 72.8596 Q1672.47 73.7508 1668.14 73.7508 Q1657.28 73.7508 1650.92 67.4314 Q1644.6 61.1119 1644.6 50.3365 Q1644.6 39.1965 1650.6 32.6746 Q1656.63 26.1121 1666.84 26.1121 Q1676 26.1121 1681.3 32.0264 Q1686.65 37.9003 1686.65 48.0275 M1679.2 45.84 Q1679.12 39.7232 1675.75 36.0774 Q1672.43 32.4315 1666.92 32.4315 Q1660.68 32.4315 1656.92 35.9558 Q1653.19 39.4801 1652.62 45.8805 L1679.2 45.84 Z" fill="#000000" fill-rule="nonzero" fill-opacity="1" /><path clip-path="url(#clip430)" d="M1725.17 34.1734 Q1723.92 33.4443 1722.42 33.1202 Q1720.96 32.7556 1719.18 32.7556 Q1712.86 32.7556 1709.46 36.8875 Q1706.09 40.9789 1706.09 48.6757 L1706.09 72.576 L1698.6 72.576 L1698.6 27.2059 L1706.09 27.2059 L1706.09 34.2544 Q1708.44 30.1225 1712.21 28.1376 Q1715.98 26.1121 1721.37 26.1121 Q1722.14 26.1121 1723.07 26.2337 Q1724 26.3147 1725.13 26.5172 L1725.17 34.1734 Z" fill="#000000" fill-rule="nonzero" fill-opacity="1" /><path clip-path="url(#clip430)" d="M1732.99 27.2059 L1740.45 27.2059 L1740.45 72.576 L1732.99 72.576 L1732.99 27.2059 M1732.99 9.54393 L1740.45 9.54393 L1740.45 18.9825 L1732.99 18.9825 L1732.99 9.54393 Z" fill="#000000" fill-rule="nonzero" fill-opacity="1" /><path clip-path="url(#clip430)" d="M1794.85 48.0275 L1794.85 51.6733 L1760.58 51.6733 Q1761.07 59.3701 1765.2 63.421 Q1769.37 67.4314 1776.78 67.4314 Q1781.08 67.4314 1785.09 66.3781 Q1789.14 65.3249 1793.11 63.2184 L1793.11 70.267 Q1789.1 71.9684 1784.88 72.8596 Q1780.67 73.7508 1776.34 73.7508 Q1765.48 73.7508 1759.12 67.4314 Q1752.8 61.1119 1752.8 50.3365 Q1752.8 39.1965 1758.8 32.6746 Q1764.83 26.1121 1775.04 26.1121 Q1784.2 26.1121 1789.5 32.0264 Q1794.85 37.9003 1794.85 48.0275 M1787.4 45.84 Q1787.31 39.7232 1783.95 36.0774 Q1780.63 32.4315 1775.12 32.4315 Q1768.88 32.4315 1765.12 35.9558 Q1761.39 39.4801 1760.82 45.8805 L1787.4 45.84 Z" fill="#000000" fill-rule="nonzero" fill-opacity="1" /><path clip-path="url(#clip430)" d="M1836.01 28.5427 L1836.01 35.5912 Q1832.85 33.9709 1829.44 33.1607 Q1826.04 32.3505 1822.4 32.3505 Q1816.85 32.3505 1814.05 34.0519 Q1811.3 35.7533 1811.3 39.156 Q1811.3 41.7486 1813.28 43.2475 Q1815.27 44.7058 1821.26 46.0426 L1823.81 46.6097 Q1831.75 48.3111 1835.08 51.4303 Q1838.44 54.509 1838.44 60.0587 Q1838.44 66.3781 1833.41 70.0644 Q1828.43 73.7508 1819.68 73.7508 Q1816.04 73.7508 1812.07 73.0216 Q1808.14 72.3329 1803.76 70.9151 L1803.76 63.2184 Q1807.89 65.3654 1811.9 66.4591 Q1815.91 67.5124 1819.84 67.5124 Q1825.11 67.5124 1827.95 65.73 Q1830.78 63.9071 1830.78 60.6258 Q1830.78 57.5877 1828.72 55.9673 Q1826.69 54.3469 1819.76 52.8481 L1817.17 52.2405 Q1810.24 50.7821 1807.16 47.7845 Q1804.09 44.7463 1804.09 39.4801 Q1804.09 33.0797 1808.62 29.5959 Q1813.16 26.1121 1821.5 26.1121 Q1825.64 26.1121 1829.28 26.7198 Q1832.93 27.3274 1836.01 28.5427 Z" fill="#000000" fill-rule="nonzero" fill-opacity="1" /><polyline clip-path="url(#clip432)" style="stroke:#009af9; stroke-linecap:round; stroke-linejoin:round; stroke-width:4; stroke-opacity:1; fill:none" points="294.479,173.254 414.37,472.749 534.262,1608.37 654.153,995.348 774.045,378.167 893.936,1658.82 1013.83,1541.23 1133.72,413.991 1253.61,774.016 1373.5,1688.65 1493.39,1251.49 1613.29,1235.97 1733.18,1218.98 1853.07,1395.55 1972.96,1667.91 2092.85,628.509 2212.74,785.318 2332.63,1586.22 2452.53,1023.56 2572.42,566.937 "/>
<polyline clip-path="url(#clip432)" style="stroke:#e26f46; stroke-linecap:round; stroke-linejoin:round; stroke-width:4; stroke-opacity:1; fill:none" points="294.479,1100.65 414.37,1151.54 534.262,968.687 654.153,807.011 774.045,1367.94 893.936,1017.42 1013.83,1430.02 1133.72,1501.32 1253.61,998.788 1373.5,357.259 1493.39,468.779 1613.29,1478.48 1733.18,794.737 1853.07,294.932 1972.96,1627.4 2092.85,490.255 2212.74,1463.03 2332.63,878.651 2452.53,1590.05 2572.42,983.653 "/>
<path clip-path="url(#clip430)" d="M2129.04 336.856 L2560.27 336.856 L2560.27 181.336 L2129.04 181.336  Z" fill="#ffffff" fill-rule="evenodd" fill-opacity="1"/>
<polyline clip-path="url(#clip430)" style="stroke:#000000; stroke-linecap:round; stroke-linejoin:round; stroke-width:4; stroke-opacity:1; fill:none" points="2129.04,336.856 2560.27,336.856 2560.27,181.336 2129.04,181.336 2129.04,336.856 "/>
<polyline clip-path="url(#clip430)" style="stroke:#009af9; stroke-linecap:round; stroke-linejoin:round; stroke-width:4; stroke-opacity:1; fill:none" points="2155.87,233.176 2316.84,233.176 "/>
<path clip-path="url(#clip430)" d="M2365.92 217.031 L2365.92 221.591 Q2363.26 220.318 2360.89 219.693 Q2358.53 219.068 2356.33 219.068 Q2352.51 219.068 2350.43 220.549 Q2348.37 222.031 2348.37 224.762 Q2348.37 227.054 2349.74 228.234 Q2351.13 229.392 2354.97 230.109 L2357.79 230.688 Q2363.02 231.683 2365.5 234.206 Q2368 236.706 2368 240.919 Q2368 245.942 2364.62 248.535 Q2361.26 251.128 2354.76 251.128 Q2352.31 251.128 2349.53 250.572 Q2346.77 250.016 2343.81 248.929 L2343.81 244.114 Q2346.66 245.711 2349.39 246.521 Q2352.12 247.331 2354.76 247.331 Q2358.76 247.331 2360.94 245.757 Q2363.12 244.183 2363.12 241.267 Q2363.12 238.72 2361.54 237.285 Q2359.99 235.85 2356.43 235.132 L2353.58 234.577 Q2348.35 233.535 2346.01 231.313 Q2343.67 229.091 2343.67 225.132 Q2343.67 220.549 2346.89 217.91 Q2350.13 215.271 2355.8 215.271 Q2358.23 215.271 2360.76 215.711 Q2363.28 216.151 2365.92 217.031 Z" fill="#000000" fill-rule="nonzero" fill-opacity="1" /><path clip-path="url(#clip430)" d="M2397.28 236.429 L2397.28 238.512 L2377.7 238.512 Q2377.98 242.91 2380.34 245.225 Q2382.72 247.516 2386.96 247.516 Q2389.41 247.516 2391.7 246.915 Q2394.02 246.313 2396.29 245.109 L2396.29 249.137 Q2394 250.109 2391.59 250.618 Q2389.18 251.128 2386.7 251.128 Q2380.5 251.128 2376.87 247.516 Q2373.26 243.905 2373.26 237.748 Q2373.26 231.382 2376.68 227.655 Q2380.13 223.906 2385.96 223.906 Q2391.2 223.906 2394.23 227.285 Q2397.28 230.642 2397.28 236.429 M2393.02 235.179 Q2392.98 231.683 2391.06 229.6 Q2389.16 227.517 2386.01 227.517 Q2382.45 227.517 2380.29 229.53 Q2378.16 231.544 2377.84 235.202 L2393.02 235.179 Z" fill="#000000" fill-rule="nonzero" fill-opacity="1" /><path clip-path="url(#clip430)" d="M2419.3 228.512 Q2418.58 228.095 2417.72 227.91 Q2416.89 227.702 2415.87 227.702 Q2412.26 227.702 2410.32 230.063 Q2408.39 232.401 2408.39 236.799 L2408.39 250.456 L2404.11 250.456 L2404.11 224.531 L2408.39 224.531 L2408.39 228.558 Q2409.74 226.197 2411.89 225.063 Q2414.04 223.906 2417.12 223.906 Q2417.56 223.906 2418.09 223.975 Q2418.63 224.021 2419.27 224.137 L2419.3 228.512 Z" fill="#000000" fill-rule="nonzero" fill-opacity="1" /><path clip-path="url(#clip430)" d="M2423.76 224.531 L2428.02 224.531 L2428.02 250.456 L2423.76 250.456 L2423.76 224.531 M2423.76 214.438 L2428.02 214.438 L2428.02 219.831 L2423.76 219.831 L2423.76 214.438 Z" fill="#000000" fill-rule="nonzero" fill-opacity="1" /><path clip-path="url(#clip430)" d="M2459.11 236.429 L2459.11 238.512 L2439.53 238.512 Q2439.81 242.91 2442.17 245.225 Q2444.55 247.516 2448.79 247.516 Q2451.24 247.516 2453.53 246.915 Q2455.85 246.313 2458.12 245.109 L2458.12 249.137 Q2455.82 250.109 2453.42 250.618 Q2451.01 251.128 2448.53 251.128 Q2442.33 251.128 2438.69 247.516 Q2435.08 243.905 2435.08 237.748 Q2435.08 231.382 2438.51 227.655 Q2441.96 223.906 2447.79 223.906 Q2453.02 223.906 2456.06 227.285 Q2459.11 230.642 2459.11 236.429 M2454.85 235.179 Q2454.81 231.683 2452.88 229.6 Q2450.99 227.517 2447.84 227.517 Q2444.27 227.517 2442.12 229.53 Q2439.99 231.544 2439.67 235.202 L2454.85 235.179 Z" fill="#000000" fill-rule="nonzero" fill-opacity="1" /><path clip-path="url(#clip430)" d="M2482.63 225.294 L2482.63 229.322 Q2480.82 228.396 2478.88 227.933 Q2476.94 227.47 2474.85 227.47 Q2471.68 227.47 2470.08 228.443 Q2468.51 229.415 2468.51 231.359 Q2468.51 232.841 2469.64 233.697 Q2470.78 234.53 2474.2 235.294 L2475.66 235.618 Q2480.2 236.591 2482.1 238.373 Q2484.02 240.132 2484.02 243.304 Q2484.02 246.915 2481.15 249.021 Q2478.3 251.128 2473.3 251.128 Q2471.22 251.128 2468.95 250.711 Q2466.7 250.317 2464.2 249.507 L2464.2 245.109 Q2466.57 246.336 2468.86 246.961 Q2471.15 247.563 2473.39 247.563 Q2476.4 247.563 2478.02 246.544 Q2479.64 245.503 2479.64 243.628 Q2479.64 241.892 2478.46 240.966 Q2477.31 240.04 2473.35 239.183 L2471.87 238.836 Q2467.91 238.003 2466.15 236.29 Q2464.39 234.554 2464.39 231.544 Q2464.39 227.887 2466.98 225.896 Q2469.57 223.906 2474.34 223.906 Q2476.7 223.906 2478.79 224.253 Q2480.87 224.6 2482.63 225.294 Z" fill="#000000" fill-rule="nonzero" fill-opacity="1" /><path clip-path="url(#clip430)" d="M2517.61 220.503 L2511.26 237.702 L2523.97 237.702 L2517.61 220.503 M2514.97 215.896 L2520.27 215.896 L2533.44 250.456 L2528.58 250.456 L2525.43 241.591 L2509.85 241.591 L2506.7 250.456 L2501.77 250.456 L2514.97 215.896 Z" fill="#000000" fill-rule="nonzero" fill-opacity="1" /><polyline clip-path="url(#clip430)" style="stroke:#e26f46; stroke-linecap:round; stroke-linejoin:round; stroke-width:4; stroke-opacity:1; fill:none" points="2155.87,285.016 2316.84,285.016 "/>
<path clip-path="url(#clip430)" d="M2365.92 268.871 L2365.92 273.431 Q2363.26 272.158 2360.89 271.533 Q2358.53 270.908 2356.33 270.908 Q2352.51 270.908 2350.43 272.389 Q2348.37 273.871 2348.37 276.602 Q2348.37 278.894 2349.74 280.074 Q2351.13 281.232 2354.97 281.949 L2357.79 282.528 Q2363.02 283.523 2365.5 286.046 Q2368 288.546 2368 292.759 Q2368 297.782 2364.62 300.375 Q2361.26 302.968 2354.76 302.968 Q2352.31 302.968 2349.53 302.412 Q2346.77 301.856 2343.81 300.769 L2343.81 295.954 Q2346.66 297.551 2349.39 298.361 Q2352.12 299.171 2354.76 299.171 Q2358.76 299.171 2360.94 297.597 Q2363.12 296.023 2363.12 293.107 Q2363.12 290.56 2361.54 289.125 Q2359.99 287.69 2356.43 286.972 L2353.58 286.417 Q2348.35 285.375 2346.01 283.153 Q2343.67 280.931 2343.67 276.972 Q2343.67 272.389 2346.89 269.75 Q2350.13 267.111 2355.8 267.111 Q2358.23 267.111 2360.76 267.551 Q2363.28 267.991 2365.92 268.871 Z" fill="#000000" fill-rule="nonzero" fill-opacity="1" /><path clip-path="url(#clip430)" d="M2397.28 288.269 L2397.28 290.352 L2377.7 290.352 Q2377.98 294.75 2380.34 297.065 Q2382.72 299.356 2386.96 299.356 Q2389.41 299.356 2391.7 298.755 Q2394.02 298.153 2396.29 296.949 L2396.29 300.977 Q2394 301.949 2391.59 302.458 Q2389.18 302.968 2386.7 302.968 Q2380.5 302.968 2376.87 299.356 Q2373.26 295.745 2373.26 289.588 Q2373.26 283.222 2376.68 279.495 Q2380.13 275.746 2385.96 275.746 Q2391.2 275.746 2394.23 279.125 Q2397.28 282.482 2397.28 288.269 M2393.02 287.019 Q2392.98 283.523 2391.06 281.44 Q2389.16 279.357 2386.01 279.357 Q2382.45 279.357 2380.29 281.37 Q2378.16 283.384 2377.84 287.042 L2393.02 287.019 Z" fill="#000000" fill-rule="nonzero" fill-opacity="1" /><path clip-path="url(#clip430)" d="M2419.3 280.352 Q2418.58 279.935 2417.72 279.75 Q2416.89 279.542 2415.87 279.542 Q2412.26 279.542 2410.32 281.903 Q2408.39 284.241 2408.39 288.639 L2408.39 302.296 L2404.11 302.296 L2404.11 276.371 L2408.39 276.371 L2408.39 280.398 Q2409.74 278.037 2411.89 276.903 Q2414.04 275.746 2417.12 275.746 Q2417.56 275.746 2418.09 275.815 Q2418.63 275.861 2419.27 275.977 L2419.3 280.352 Z" fill="#000000" fill-rule="nonzero" fill-opacity="1" /><path clip-path="url(#clip430)" d="M2423.76 276.371 L2428.02 276.371 L2428.02 302.296 L2423.76 302.296 L2423.76 276.371 M2423.76 266.278 L2428.02 266.278 L2428.02 271.671 L2423.76 271.671 L2423.76 266.278 Z" fill="#000000" fill-rule="nonzero" fill-opacity="1" /><path clip-path="url(#clip430)" d="M2459.11 288.269 L2459.11 290.352 L2439.53 290.352 Q2439.81 294.75 2442.17 297.065 Q2444.55 299.356 2448.79 299.356 Q2451.24 299.356 2453.53 298.755 Q2455.85 298.153 2458.12 296.949 L2458.12 300.977 Q2455.82 301.949 2453.42 302.458 Q2451.01 302.968 2448.53 302.968 Q2442.33 302.968 2438.69 299.356 Q2435.08 295.745 2435.08 289.588 Q2435.08 283.222 2438.51 279.495 Q2441.96 275.746 2447.79 275.746 Q2453.02 275.746 2456.06 279.125 Q2459.11 282.482 2459.11 288.269 M2454.85 287.019 Q2454.81 283.523 2452.88 281.44 Q2450.99 279.357 2447.84 279.357 Q2444.27 279.357 2442.12 281.37 Q2439.99 283.384 2439.67 287.042 L2454.85 287.019 Z" fill="#000000" fill-rule="nonzero" fill-opacity="1" /><path clip-path="url(#clip430)" d="M2482.63 277.134 L2482.63 281.162 Q2480.82 280.236 2478.88 279.773 Q2476.94 279.31 2474.85 279.31 Q2471.68 279.31 2470.08 280.283 Q2468.51 281.255 2468.51 283.199 Q2468.51 284.681 2469.64 285.537 Q2470.78 286.37 2474.2 287.134 L2475.66 287.458 Q2480.2 288.431 2482.1 290.213 Q2484.02 291.972 2484.02 295.144 Q2484.02 298.755 2481.15 300.861 Q2478.3 302.968 2473.3 302.968 Q2471.22 302.968 2468.95 302.551 Q2466.7 302.157 2464.2 301.347 L2464.2 296.949 Q2466.57 298.176 2468.86 298.801 Q2471.15 299.403 2473.39 299.403 Q2476.4 299.403 2478.02 298.384 Q2479.64 297.343 2479.64 295.468 Q2479.64 293.732 2478.46 292.806 Q2477.31 291.88 2473.35 291.023 L2471.87 290.676 Q2467.91 289.843 2466.15 288.13 Q2464.39 286.394 2464.39 283.384 Q2464.39 279.727 2466.98 277.736 Q2469.57 275.746 2474.34 275.746 Q2476.7 275.746 2478.79 276.093 Q2480.87 276.44 2482.63 277.134 Z" fill="#000000" fill-rule="nonzero" fill-opacity="1" /><path clip-path="url(#clip430)" d="M2510.73 285.792 L2510.73 298.454 L2518.23 298.454 Q2522 298.454 2523.81 296.903 Q2525.64 295.329 2525.64 292.111 Q2525.64 288.87 2523.81 287.343 Q2522 285.792 2518.23 285.792 L2510.73 285.792 M2510.73 271.579 L2510.73 281.995 L2517.65 281.995 Q2521.08 281.995 2522.75 280.722 Q2524.44 279.426 2524.44 276.787 Q2524.44 274.171 2522.75 272.875 Q2521.08 271.579 2517.65 271.579 L2510.73 271.579 M2506.06 267.736 L2518 267.736 Q2523.35 267.736 2526.24 269.958 Q2529.13 272.181 2529.13 276.278 Q2529.13 279.449 2527.65 281.324 Q2526.17 283.199 2523.3 283.662 Q2526.75 284.403 2528.65 286.764 Q2530.57 289.102 2530.57 292.62 Q2530.57 297.25 2527.42 299.773 Q2524.27 302.296 2518.46 302.296 L2506.06 302.296 L2506.06 267.736 Z" fill="#000000" fill-rule="nonzero" fill-opacity="1" /></svg>
