<?xml version="1.0" encoding="utf-8"?>
<svg xmlns="http://www.w3.org/2000/svg" xmlns:xlink="http://www.w3.org/1999/xlink" width="672" height="480" viewBox="0 0 2688 1920">
<defs>
  <clipPath id="clip550">
    <rect x="0" y="0" width="2688" height="1920"/>
  </clipPath>
</defs>
<path clip-path="url(#clip550)" d="M0 1920 L2688 1920 L2688 -4.26326e-14 L0 -4.26326e-14  Z" fill="#ffffff" fill-rule="evenodd" fill-opacity="1"/>
<defs>
  <clipPath id="clip551">
    <rect x="537" y="0" width="1883" height="1883"/>
  </clipPath>
</defs>
<path clip-path="url(#clip550)" d="M144.733 1800.78 L2640.76 1800.78 L2640.76 127.792 L144.733 127.792  Z" fill="#ffffff" fill-rule="evenodd" fill-opacity="1"/>
<defs>
  <clipPath id="clip552">
    <rect x="144" y="127" width="2497" height="1674"/>
  </clipPath>
</defs>
<polyline clip-path="url(#clip552)" style="stroke:#000000; stroke-linecap:round; stroke-linejoin:round; stroke-width:2; stroke-opacity:0.1; fill:none" points="210.359,1800.78 210.359,127.792 "/>
<polyline clip-path="url(#clip552)" style="stroke:#000000; stroke-linecap:round; stroke-linejoin:round; stroke-width:2; stroke-opacity:0.1; fill:none" points="568.658,1800.78 568.658,127.792 "/>
<polyline clip-path="url(#clip552)" style="stroke:#000000; stroke-linecap:round; stroke-linejoin:round; stroke-width:2; stroke-opacity:0.1; fill:none" points="926.956,1800.78 926.956,127.792 "/>
<polyline clip-path="url(#clip552)" style="stroke:#000000; stroke-linecap:round; stroke-linejoin:round; stroke-width:2; stroke-opacity:0.1; fill:none" points="1285.25,1800.78 1285.25,127.792 "/>
<polyline clip-path="url(#clip552)" style="stroke:#000000; stroke-linecap:round; stroke-linejoin:round; stroke-width:2; stroke-opacity:0.1; fill:none" points="1643.55,1800.78 1643.55,127.792 "/>
<polyline clip-path="url(#clip552)" style="stroke:#000000; stroke-linecap:round; stroke-linejoin:round; stroke-width:2; stroke-opacity:0.1; fill:none" points="2001.85,1800.78 2001.85,127.792 "/>
<polyline clip-path="url(#clip552)" style="stroke:#000000; stroke-linecap:round; stroke-linejoin:round; stroke-width:2; stroke-opacity:0.1; fill:none" points="2360.15,1800.78 2360.15,127.792 "/>
<polyline clip-path="url(#clip552)" style="stroke:#000000; stroke-linecap:round; stroke-linejoin:round; stroke-width:2; stroke-opacity:0.1; fill:none" points="144.733,1800.78 2640.76,1800.78 "/>
<polyline clip-path="url(#clip552)" style="stroke:#000000; stroke-linecap:round; stroke-linejoin:round; stroke-width:2; stroke-opacity:0.1; fill:none" points="144.733,1371.81 2640.76,1371.81 "/>
<polyline clip-path="url(#clip552)" style="stroke:#000000; stroke-linecap:round; stroke-linejoin:round; stroke-width:2; stroke-opacity:0.1; fill:none" points="144.733,942.837 2640.76,942.837 "/>
<polyline clip-path="url(#clip552)" style="stroke:#000000; stroke-linecap:round; stroke-linejoin:round; stroke-width:2; stroke-opacity:0.1; fill:none" points="144.733,513.866 2640.76,513.866 "/>
<polyline clip-path="url(#clip550)" style="stroke:#000000; stroke-linecap:round; stroke-linejoin:round; stroke-width:4; stroke-opacity:1; fill:none" points="144.733,1800.78 2640.76,1800.78 "/>
<polyline clip-path="url(#clip550)" style="stroke:#000000; stroke-linecap:round; stroke-linejoin:round; stroke-width:4; stroke-opacity:1; fill:none" points="210.359,1800.78 210.359,1781.88 "/>
<polyline clip-path="url(#clip550)" style="stroke:#000000; stroke-linecap:round; stroke-linejoin:round; stroke-width:4; stroke-opacity:1; fill:none" points="568.658,1800.78 568.658,1781.88 "/>
<polyline clip-path="url(#clip550)" style="stroke:#000000; stroke-linecap:round; stroke-linejoin:round; stroke-width:4; stroke-opacity:1; fill:none" points="926.956,1800.78 926.956,1781.88 "/>
<polyline clip-path="url(#clip550)" style="stroke:#000000; stroke-linecap:round; stroke-linejoin:round; stroke-width:4; stroke-opacity:1; fill:none" points="1285.25,1800.78 1285.25,1781.88 "/>
<polyline clip-path="url(#clip550)" style="stroke:#000000; stroke-linecap:round; stroke-linejoin:round; stroke-width:4; stroke-opacity:1; fill:none" points="1643.55,1800.78 1643.55,1781.88 "/>
<polyline clip-path="url(#clip550)" style="stroke:#000000; stroke-linecap:round; stroke-linejoin:round; stroke-width:4; stroke-opacity:1; fill:none" points="2001.85,1800.78 2001.85,1781.88 "/>
<polyline clip-path="url(#clip550)" style="stroke:#000000; stroke-linecap:round; stroke-linejoin:round; stroke-width:4; stroke-opacity:1; fill:none" points="2360.15,1800.78 2360.15,1781.88 "/>
<path clip-path="url(#clip550)" d="M179.827 1848.65 L209.502 1848.65 L209.502 1852.59 L179.827 1852.59 L179.827 1848.65 Z" fill="#000000" fill-rule="nonzero" fill-opacity="1" /><path clip-path="url(#clip550)" d="M233.762 1846.85 Q237.118 1847.57 238.993 1849.84 Q240.891 1852.1 240.891 1855.44 Q240.891 1860.55 237.373 1863.35 Q233.854 1866.15 227.373 1866.15 Q225.197 1866.15 222.882 1865.71 Q220.59 1865.3 218.137 1864.44 L218.137 1859.93 Q220.081 1861.06 222.396 1861.64 Q224.711 1862.22 227.234 1862.22 Q231.632 1862.22 233.924 1860.48 Q236.238 1858.75 236.238 1855.44 Q236.238 1852.38 234.086 1850.67 Q231.956 1848.93 228.137 1848.93 L224.109 1848.93 L224.109 1845.09 L228.322 1845.09 Q231.771 1845.09 233.6 1843.72 Q235.428 1842.34 235.428 1839.74 Q235.428 1837.08 233.53 1835.67 Q231.655 1834.23 228.137 1834.23 Q226.215 1834.23 224.016 1834.65 Q221.817 1835.07 219.178 1835.95 L219.178 1831.78 Q221.84 1831.04 224.155 1830.67 Q226.493 1830.3 228.553 1830.3 Q233.877 1830.3 236.979 1832.73 Q240.081 1835.14 240.081 1839.26 Q240.081 1842.13 238.437 1844.12 Q236.794 1846.09 233.762 1846.85 Z" fill="#000000" fill-rule="nonzero" fill-opacity="1" /><path clip-path="url(#clip550)" d="M538.6 1848.65 L568.276 1848.65 L568.276 1852.59 L538.6 1852.59 L538.6 1848.65 Z" fill="#000000" fill-rule="nonzero" fill-opacity="1" /><path clip-path="url(#clip550)" d="M582.396 1861.55 L598.715 1861.55 L598.715 1865.48 L576.771 1865.48 L576.771 1861.55 Q579.433 1858.79 584.016 1854.16 Q588.623 1849.51 589.803 1848.17 Q592.049 1845.65 592.928 1843.91 Q593.831 1842.15 593.831 1840.46 Q593.831 1837.71 591.887 1835.97 Q589.965 1834.23 586.863 1834.23 Q584.664 1834.23 582.211 1835 Q579.78 1835.76 577.002 1837.31 L577.002 1832.59 Q579.826 1831.46 582.28 1830.88 Q584.734 1830.3 586.771 1830.3 Q592.141 1830.3 595.336 1832.98 Q598.53 1835.67 598.53 1840.16 Q598.53 1842.29 597.72 1844.21 Q596.933 1846.11 594.826 1848.7 Q594.248 1849.37 591.146 1852.59 Q588.044 1855.78 582.396 1861.55 Z" fill="#000000" fill-rule="nonzero" fill-opacity="1" /><path clip-path="url(#clip550)" d="M896.713 1848.65 L926.389 1848.65 L926.389 1852.59 L896.713 1852.59 L896.713 1848.65 Z" fill="#000000" fill-rule="nonzero" fill-opacity="1" /><path clip-path="url(#clip550)" d="M937.292 1861.55 L944.931 1861.55 L944.931 1835.18 L936.62 1836.85 L936.62 1832.59 L944.884 1830.92 L949.56 1830.92 L949.56 1861.55 L957.199 1861.55 L957.199 1865.48 L937.292 1865.48 L937.292 1861.55 Z" fill="#000000" fill-rule="nonzero" fill-opacity="1" /><path clip-path="url(#clip550)" d="M1285.25 1834 Q1281.64 1834 1279.82 1837.57 Q1278.01 1841.11 1278.01 1848.24 Q1278.01 1855.34 1279.82 1858.91 Q1281.64 1862.45 1285.25 1862.45 Q1288.89 1862.45 1290.69 1858.91 Q1292.52 1855.34 1292.52 1848.24 Q1292.52 1841.11 1290.69 1837.57 Q1288.89 1834 1285.25 1834 M1285.25 1830.3 Q1291.06 1830.3 1294.12 1834.9 Q1297.2 1839.49 1297.2 1848.24 Q1297.2 1856.96 1294.12 1861.57 Q1291.06 1866.15 1285.25 1866.15 Q1279.44 1866.15 1276.37 1861.57 Q1273.31 1856.96 1273.31 1848.24 Q1273.31 1839.49 1276.37 1834.9 Q1279.44 1830.3 1285.25 1830.3 Z" fill="#000000" fill-rule="nonzero" fill-opacity="1" /><path clip-path="url(#clip550)" d="M1633.94 1861.55 L1641.57 1861.55 L1641.57 1835.18 L1633.26 1836.85 L1633.26 1832.59 L1641.53 1830.92 L1646.2 1830.92 L1646.2 1861.55 L1653.84 1861.55 L1653.84 1865.48 L1633.94 1865.48 L1633.94 1861.55 Z" fill="#000000" fill-rule="nonzero" fill-opacity="1" /><path clip-path="url(#clip550)" d="M1996.5 1861.55 L2012.82 1861.55 L2012.82 1865.48 L1990.88 1865.48 L1990.88 1861.55 Q1993.54 1858.79 1998.13 1854.16 Q2002.73 1849.51 2003.91 1848.17 Q2006.16 1845.65 2007.04 1843.91 Q2007.94 1842.15 2007.94 1840.46 Q2007.94 1837.71 2006 1835.97 Q2004.07 1834.23 2000.97 1834.23 Q1998.77 1834.23 1996.32 1835 Q1993.89 1835.76 1991.11 1837.31 L1991.11 1832.59 Q1993.94 1831.46 1996.39 1830.88 Q1998.84 1830.3 2000.88 1830.3 Q2006.25 1830.3 2009.44 1832.98 Q2012.64 1835.67 2012.64 1840.16 Q2012.64 1842.29 2011.83 1844.21 Q2011.04 1846.11 2008.94 1848.7 Q2008.36 1849.37 2005.25 1852.59 Q2002.15 1855.78 1996.5 1861.55 Z" fill="#000000" fill-rule="nonzero" fill-opacity="1" /><path clip-path="url(#clip550)" d="M2364.4 1846.85 Q2367.75 1847.57 2369.63 1849.84 Q2371.53 1852.1 2371.53 1855.44 Q2371.53 1860.55 2368.01 1863.35 Q2364.49 1866.15 2358.01 1866.15 Q2355.83 1866.15 2353.52 1865.71 Q2351.23 1865.3 2348.77 1864.44 L2348.77 1859.93 Q2350.72 1861.06 2353.03 1861.64 Q2355.35 1862.22 2357.87 1862.22 Q2362.27 1862.22 2364.56 1860.48 Q2366.88 1858.75 2366.88 1855.44 Q2366.88 1852.38 2364.72 1850.67 Q2362.59 1848.93 2358.77 1848.93 L2354.75 1848.93 L2354.75 1845.09 L2358.96 1845.09 Q2362.41 1845.09 2364.24 1843.72 Q2366.07 1842.34 2366.07 1839.74 Q2366.07 1837.08 2364.17 1835.67 Q2362.29 1834.23 2358.77 1834.23 Q2356.85 1834.23 2354.65 1834.65 Q2352.45 1835.07 2349.82 1835.95 L2349.82 1831.78 Q2352.48 1831.04 2354.79 1830.67 Q2357.13 1830.3 2359.19 1830.3 Q2364.51 1830.3 2367.62 1832.73 Q2370.72 1835.14 2370.72 1839.26 Q2370.72 1842.13 2369.07 1844.12 Q2367.43 1846.09 2364.4 1846.85 Z" fill="#000000" fill-rule="nonzero" fill-opacity="1" /><polyline clip-path="url(#clip550)" style="stroke:#000000; stroke-linecap:round; stroke-linejoin:round; stroke-width:4; stroke-opacity:1; fill:none" points="144.733,1800.78 144.733,127.792 "/>
<polyline clip-path="url(#clip550)" style="stroke:#000000; stroke-linecap:round; stroke-linejoin:round; stroke-width:4; stroke-opacity:1; fill:none" points="144.733,1800.78 163.631,1800.78 "/>
<polyline clip-path="url(#clip550)" style="stroke:#000000; stroke-linecap:round; stroke-linejoin:round; stroke-width:4; stroke-opacity:1; fill:none" points="144.733,1371.81 163.631,1371.81 "/>
<polyline clip-path="url(#clip550)" style="stroke:#000000; stroke-linecap:round; stroke-linejoin:round; stroke-width:4; stroke-opacity:1; fill:none" points="144.733,942.837 163.631,942.837 "/>
<polyline clip-path="url(#clip550)" style="stroke:#000000; stroke-linecap:round; stroke-linejoin:round; stroke-width:4; stroke-opacity:1; fill:none" points="144.733,513.866 163.631,513.866 "/>
<path clip-path="url(#clip550)" d="M92.4686 1786.58 Q88.8575 1786.58 87.0288 1790.14 Q85.2232 1793.68 85.2232 1800.81 Q85.2232 1807.92 87.0288 1811.49 Q88.8575 1815.03 92.4686 1815.03 Q96.1028 1815.03 97.9083 1811.49 Q99.737 1807.92 99.737 1800.81 Q99.737 1793.68 97.9083 1790.14 Q96.1028 1786.58 92.4686 1786.58 M92.4686 1782.87 Q98.2787 1782.87 101.334 1787.48 Q104.413 1792.06 104.413 1800.81 Q104.413 1809.54 101.334 1814.15 Q98.2787 1818.73 92.4686 1818.73 Q86.6584 1818.73 83.5797 1814.15 Q80.5242 1809.54 80.5242 1800.81 Q80.5242 1792.06 83.5797 1787.48 Q86.6584 1782.87 92.4686 1782.87 Z" fill="#000000" fill-rule="nonzero" fill-opacity="1" /><path clip-path="url(#clip550)" d="M56.3345 1385.15 L72.6539 1385.15 L72.6539 1389.09 L50.7095 1389.09 L50.7095 1385.15 Q53.3715 1382.4 57.9549 1377.77 Q62.5613 1373.12 63.7419 1371.77 Q65.9872 1369.25 66.8668 1367.51 Q67.7696 1365.76 67.7696 1364.07 Q67.7696 1361.31 65.8252 1359.57 Q63.9039 1357.84 60.8021 1357.84 Q58.603 1357.84 56.1493 1358.6 Q53.7188 1359.37 50.941 1360.92 L50.941 1356.19 Q53.7651 1355.06 56.2188 1354.48 Q58.6724 1353.9 60.7095 1353.9 Q66.0798 1353.9 69.2742 1356.59 Q72.4687 1359.27 72.4687 1363.76 Q72.4687 1365.89 71.6585 1367.82 Q70.8715 1369.71 68.765 1372.31 Q68.1863 1372.98 65.0845 1376.19 Q61.9826 1379.39 56.3345 1385.15 Z" fill="#000000" fill-rule="nonzero" fill-opacity="1" /><path clip-path="url(#clip550)" d="M92.4686 1357.61 Q88.8575 1357.61 87.0288 1361.17 Q85.2232 1364.71 85.2232 1371.84 Q85.2232 1378.95 87.0288 1382.51 Q88.8575 1386.06 92.4686 1386.06 Q96.1028 1386.06 97.9083 1382.51 Q99.737 1378.95 99.737 1371.84 Q99.737 1364.71 97.9083 1361.17 Q96.1028 1357.61 92.4686 1357.61 M92.4686 1353.9 Q98.2787 1353.9 101.334 1358.51 Q104.413 1363.09 104.413 1371.84 Q104.413 1380.57 101.334 1385.18 Q98.2787 1389.76 92.4686 1389.76 Q86.6584 1389.76 83.5797 1385.18 Q80.5242 1380.57 80.5242 1371.84 Q80.5242 1363.09 83.5797 1358.51 Q86.6584 1353.9 92.4686 1353.9 Z" fill="#000000" fill-rule="nonzero" fill-opacity="1" /><path clip-path="url(#clip550)" d="M65.1539 929.631 L53.3484 948.08 L65.1539 948.08 L65.1539 929.631 M63.927 925.557 L69.8066 925.557 L69.8066 948.08 L74.7372 948.08 L74.7372 951.969 L69.8066 951.969 L69.8066 960.117 L65.1539 960.117 L65.1539 951.969 L49.5521 951.969 L49.5521 947.455 L63.927 925.557 Z" fill="#000000" fill-rule="nonzero" fill-opacity="1" /><path clip-path="url(#clip550)" d="M92.4686 928.636 Q88.8575 928.636 87.0288 932.201 Q85.2232 935.742 85.2232 942.872 Q85.2232 949.978 87.0288 953.543 Q88.8575 957.085 92.4686 957.085 Q96.1028 957.085 97.9083 953.543 Q99.737 949.978 99.737 942.872 Q99.737 935.742 97.9083 932.201 Q96.1028 928.636 92.4686 928.636 M92.4686 924.932 Q98.2787 924.932 101.334 929.539 Q104.413 934.122 104.413 942.872 Q104.413 951.599 101.334 956.205 Q98.2787 960.788 92.4686 960.788 Q86.6584 960.788 83.5797 956.205 Q80.5242 951.599 80.5242 942.872 Q80.5242 934.122 83.5797 929.539 Q86.6584 924.932 92.4686 924.932 Z" fill="#000000" fill-rule="nonzero" fill-opacity="1" /><path clip-path="url(#clip550)" d="M62.8854 512.003 Q59.7373 512.003 57.8854 514.155 Q56.0567 516.308 56.0567 520.058 Q56.0567 523.785 57.8854 525.961 Q59.7373 528.114 62.8854 528.114 Q66.0335 528.114 67.8622 525.961 Q69.7141 523.785 69.7141 520.058 Q69.7141 516.308 67.8622 514.155 Q66.0335 512.003 62.8854 512.003 M72.1677 497.35 L72.1677 501.609 Q70.4085 500.776 68.6029 500.336 Q66.8206 499.896 65.0613 499.896 Q60.4317 499.896 57.978 503.021 Q55.5475 506.146 55.2002 512.466 Q56.566 510.452 58.6262 509.387 Q60.6863 508.299 63.1632 508.299 Q68.3715 508.299 71.3807 511.47 Q74.4131 514.618 74.4131 520.058 Q74.4131 525.382 71.265 528.6 Q68.1168 531.817 62.8854 531.817 Q56.89 531.817 53.7188 527.234 Q50.5475 522.628 50.5475 513.901 Q50.5475 505.706 54.4364 500.845 Q58.3252 495.961 64.8761 495.961 Q66.6354 495.961 68.4178 496.308 Q70.2233 496.656 72.1677 497.35 Z" fill="#000000" fill-rule="nonzero" fill-opacity="1" /><path clip-path="url(#clip550)" d="M92.4686 499.665 Q88.8575 499.665 87.0288 503.23 Q85.2232 506.771 85.2232 513.901 Q85.2232 521.007 87.0288 524.572 Q88.8575 528.114 92.4686 528.114 Q96.1028 528.114 97.9083 524.572 Q99.737 521.007 99.737 513.901 Q99.737 506.771 97.9083 503.23 Q96.1028 499.665 92.4686 499.665 M92.4686 495.961 Q98.2787 495.961 101.334 500.568 Q104.413 505.151 104.413 513.901 Q104.413 522.628 101.334 527.234 Q98.2787 531.817 92.4686 531.817 Q86.6584 531.817 83.5797 527.234 Q80.5242 522.628 80.5242 513.901 Q80.5242 505.151 83.5797 500.568 Q86.6584 495.961 92.4686 495.961 Z" fill="#000000" fill-rule="nonzero" fill-opacity="1" /><path clip-path="url(#clip550)" d="M990.692 12.096 L998.875 12.096 L998.875 36.8875 L1028.61 36.8875 L1028.61 12.096 L1036.79 12.096 L1036.79 72.576 L1028.61 72.576 L1028.61 43.7741 L998.875 43.7741 L998.875 72.576 L990.692 72.576 L990.692 12.096 Z" fill="#000000" fill-rule="nonzero" fill-opacity="1" /><path clip-path="url(#clip550)" d="M1052.75 27.2059 L1060.21 27.2059 L1060.21 72.576 L1052.75 72.576 L1052.75 27.2059 M1052.75 9.54393 L1060.21 9.54393 L1060.21 18.9825 L1052.75 18.9825 L1052.75 9.54393 Z" fill="#000000" fill-rule="nonzero" fill-opacity="1" /><path clip-path="url(#clip550)" d="M1104.73 28.5427 L1104.73 35.5912 Q1101.57 33.9709 1098.16 33.1607 Q1094.76 32.3505 1091.11 32.3505 Q1085.56 32.3505 1082.77 34.0519 Q1080.01 35.7533 1080.01 39.156 Q1080.01 41.7486 1082 43.2475 Q1083.98 44.7058 1089.98 46.0426 L1092.53 46.6097 Q1100.47 48.3111 1103.79 51.4303 Q1107.16 54.509 1107.16 60.0587 Q1107.16 66.3781 1102.13 70.0644 Q1097.15 73.7508 1088.4 73.7508 Q1084.75 73.7508 1080.78 73.0216 Q1076.85 72.3329 1072.48 70.9151 L1072.48 63.2184 Q1076.61 65.3654 1080.62 66.4591 Q1084.63 67.5124 1088.56 67.5124 Q1093.83 67.5124 1096.66 65.73 Q1099.5 63.9071 1099.5 60.6258 Q1099.5 57.5877 1097.43 55.9673 Q1095.41 54.3469 1088.48 52.8481 L1085.89 52.2405 Q1078.96 50.7821 1075.88 47.7845 Q1072.8 44.7463 1072.8 39.4801 Q1072.8 33.0797 1077.34 29.5959 Q1081.88 26.1121 1090.22 26.1121 Q1094.35 26.1121 1098 26.7198 Q1101.65 27.3274 1104.73 28.5427 Z" fill="#000000" fill-rule="nonzero" fill-opacity="1" /><path clip-path="url(#clip550)" d="M1126.4 14.324 L1126.4 27.2059 L1141.75 27.2059 L1141.75 32.9987 L1126.4 32.9987 L1126.4 57.6282 Q1126.4 63.1779 1127.9 64.7578 Q1129.44 66.3376 1134.09 66.3376 L1141.75 66.3376 L1141.75 72.576 L1134.09 72.576 Q1125.47 72.576 1122.18 69.3758 Q1118.9 66.1351 1118.9 57.6282 L1118.9 32.9987 L1113.43 32.9987 L1113.43 27.2059 L1118.9 27.2059 L1118.9 14.324 L1126.4 14.324 Z" fill="#000000" fill-rule="nonzero" fill-opacity="1" /><path clip-path="url(#clip550)" d="M1169.13 32.4315 Q1163.14 32.4315 1159.66 37.1306 Q1156.17 41.7891 1156.17 49.9314 Q1156.17 58.0738 1159.61 62.7728 Q1163.1 67.4314 1169.13 67.4314 Q1175.09 67.4314 1178.57 62.7323 Q1182.06 58.0333 1182.06 49.9314 Q1182.06 41.8701 1178.57 37.1711 Q1175.09 32.4315 1169.13 32.4315 M1169.13 26.1121 Q1178.86 26.1121 1184.41 32.4315 Q1189.96 38.7509 1189.96 49.9314 Q1189.96 61.0714 1184.41 67.4314 Q1178.86 73.7508 1169.13 73.7508 Q1159.37 73.7508 1153.82 67.4314 Q1148.31 61.0714 1148.31 49.9314 Q1148.31 38.7509 1153.82 32.4315 Q1159.37 26.1121 1169.13 26.1121 Z" fill="#000000" fill-rule="nonzero" fill-opacity="1" /><path clip-path="url(#clip550)" d="M1232.17 49.3643 Q1232.17 41.2625 1228.8 36.8065 Q1225.48 32.3505 1219.45 32.3505 Q1213.45 32.3505 1210.09 36.8065 Q1206.77 41.2625 1206.77 49.3643 Q1206.77 57.4256 1210.09 61.8816 Q1213.45 66.3376 1219.45 66.3376 Q1225.48 66.3376 1228.8 61.8816 Q1232.17 57.4256 1232.17 49.3643 M1239.62 66.9452 Q1239.62 78.5308 1234.48 84.1616 Q1229.33 89.8329 1218.72 89.8329 Q1214.79 89.8329 1211.3 89.2252 Q1207.82 88.6581 1204.54 87.4428 L1204.54 80.1917 Q1207.82 81.9741 1211.02 82.8248 Q1214.22 83.6755 1217.54 83.6755 Q1224.87 83.6755 1228.52 79.8271 Q1232.17 76.0193 1232.17 68.282 L1232.17 64.5957 Q1229.86 68.6061 1226.25 70.5911 Q1222.65 72.576 1217.62 72.576 Q1209.28 72.576 1204.17 66.2161 Q1199.07 59.8562 1199.07 49.3643 Q1199.07 38.832 1204.17 32.472 Q1209.28 26.1121 1217.62 26.1121 Q1222.65 26.1121 1226.25 28.0971 Q1229.86 30.082 1232.17 34.0924 L1232.17 27.2059 L1239.62 27.2059 L1239.62 66.9452 Z" fill="#000000" fill-rule="nonzero" fill-opacity="1" /><path clip-path="url(#clip550)" d="M1281.26 34.1734 Q1280.01 33.4443 1278.51 33.1202 Q1277.05 32.7556 1275.27 32.7556 Q1268.95 32.7556 1265.55 36.8875 Q1262.18 40.9789 1262.18 48.6757 L1262.18 72.576 L1254.69 72.576 L1254.69 27.2059 L1262.18 27.2059 L1262.18 34.2544 Q1264.53 30.1225 1268.3 28.1376 Q1272.07 26.1121 1277.46 26.1121 Q1278.23 26.1121 1279.16 26.2337 Q1280.09 26.3147 1281.22 26.5172 L1281.26 34.1734 Z" fill="#000000" fill-rule="nonzero" fill-opacity="1" /><path clip-path="url(#clip550)" d="M1309.7 49.7694 Q1300.67 49.7694 1297.18 51.8354 Q1293.7 53.9013 1293.7 58.8839 Q1293.7 62.8538 1296.29 65.2034 Q1298.93 67.5124 1303.42 67.5124 Q1309.62 67.5124 1313.35 63.1374 Q1317.11 58.7219 1317.11 51.4303 L1317.11 49.7694 L1309.7 49.7694 M1324.57 46.6907 L1324.57 72.576 L1317.11 72.576 L1317.11 65.6895 Q1314.56 69.8214 1310.75 71.8063 Q1306.95 73.7508 1301.44 73.7508 Q1294.47 73.7508 1290.34 69.8619 Q1286.25 65.9325 1286.25 59.3701 Q1286.25 51.7138 1291.35 47.825 Q1296.49 43.9361 1306.66 43.9361 L1317.11 43.9361 L1317.11 43.2069 Q1317.11 38.0623 1313.71 35.2672 Q1310.35 32.4315 1304.23 32.4315 Q1300.34 32.4315 1296.66 33.3632 Q1292.97 34.295 1289.57 36.1584 L1289.57 29.2718 Q1293.66 27.692 1297.51 26.9223 Q1301.36 26.1121 1305 26.1121 Q1314.85 26.1121 1319.71 31.2163 Q1324.57 36.3204 1324.57 46.6907 Z" fill="#000000" fill-rule="nonzero" fill-opacity="1" /><path clip-path="url(#clip550)" d="M1375.24 35.9153 Q1378.04 30.8922 1381.93 28.5022 Q1385.82 26.1121 1391.08 26.1121 Q1398.17 26.1121 1402.02 31.0947 Q1405.87 36.0368 1405.87 45.1919 L1405.87 72.576 L1398.38 72.576 L1398.38 45.4349 Q1398.38 38.913 1396.07 35.7533 Q1393.76 32.5936 1389.02 32.5936 Q1383.22 32.5936 1379.86 36.4419 Q1376.5 40.2903 1376.5 46.9338 L1376.5 72.576 L1369.01 72.576 L1369.01 45.4349 Q1369.01 38.8725 1366.7 35.7533 Q1364.39 32.5936 1359.57 32.5936 Q1353.86 32.5936 1350.49 36.4824 Q1347.13 40.3308 1347.13 46.9338 L1347.13 72.576 L1339.64 72.576 L1339.64 27.2059 L1347.13 27.2059 L1347.13 34.2544 Q1349.68 30.082 1353.25 28.0971 Q1356.81 26.1121 1361.71 26.1121 Q1366.66 26.1121 1370.1 28.6237 Q1373.58 31.1352 1375.24 35.9153 Z" fill="#000000" fill-rule="nonzero" fill-opacity="1" /><path clip-path="url(#clip550)" d="M1447.43 12.096 L1485.67 12.096 L1485.67 18.9825 L1455.61 18.9825 L1455.61 36.8875 L1484.42 36.8875 L1484.42 43.7741 L1455.61 43.7741 L1455.61 65.6895 L1486.4 65.6895 L1486.4 72.576 L1447.43 72.576 L1447.43 12.096 Z" fill="#000000" fill-rule="nonzero" fill-opacity="1" /><path clip-path="url(#clip550)" d="M1537.24 27.2059 L1520.83 49.2833 L1538.09 72.576 L1529.3 72.576 L1516.09 54.752 L1502.89 72.576 L1494.1 72.576 L1511.72 48.8377 L1495.6 27.2059 L1504.39 27.2059 L1516.42 43.369 L1528.45 27.2059 L1537.24 27.2059 Z" fill="#000000" fill-rule="nonzero" fill-opacity="1" /><path clip-path="url(#clip550)" d="M1569.24 49.7694 Q1560.21 49.7694 1556.73 51.8354 Q1553.24 53.9013 1553.24 58.8839 Q1553.24 62.8538 1555.83 65.2034 Q1558.47 67.5124 1562.96 67.5124 Q1569.16 67.5124 1572.89 63.1374 Q1576.66 58.7219 1576.66 51.4303 L1576.66 49.7694 L1569.24 49.7694 M1584.11 46.6907 L1584.11 72.576 L1576.66 72.576 L1576.66 65.6895 Q1574.1 69.8214 1570.3 71.8063 Q1566.49 73.7508 1560.98 73.7508 Q1554.01 73.7508 1549.88 69.8619 Q1545.79 65.9325 1545.79 59.3701 Q1545.79 51.7138 1550.89 47.825 Q1556.04 43.9361 1566.2 43.9361 L1576.66 43.9361 L1576.66 43.2069 Q1576.66 38.0623 1573.25 35.2672 Q1569.89 32.4315 1563.77 32.4315 Q1559.88 32.4315 1556.2 33.3632 Q1552.51 34.295 1549.11 36.1584 L1549.11 29.2718 Q1553.2 27.692 1557.05 26.9223 Q1560.9 26.1121 1564.54 26.1121 Q1574.39 26.1121 1579.25 31.2163 Q1584.11 36.3204 1584.11 46.6907 Z" fill="#000000" fill-rule="nonzero" fill-opacity="1" /><path clip-path="url(#clip550)" d="M1634.79 35.9153 Q1637.58 30.8922 1641.47 28.5022 Q1645.36 26.1121 1650.62 26.1121 Q1657.71 26.1121 1661.56 31.0947 Q1665.41 36.0368 1665.41 45.1919 L1665.41 72.576 L1657.92 72.576 L1657.92 45.4349 Q1657.92 38.913 1655.61 35.7533 Q1653.3 32.5936 1648.56 32.5936 Q1642.77 32.5936 1639.4 36.4419 Q1636.04 40.2903 1636.04 46.9338 L1636.04 72.576 L1628.55 72.576 L1628.55 45.4349 Q1628.55 38.8725 1626.24 35.7533 Q1623.93 32.5936 1619.11 32.5936 Q1613.4 32.5936 1610.03 36.4824 Q1606.67 40.3308 1606.67 46.9338 L1606.67 72.576 L1599.18 72.576 L1599.18 27.2059 L1606.67 27.2059 L1606.67 34.2544 Q1609.22 30.082 1612.79 28.0971 Q1616.35 26.1121 1621.26 26.1121 Q1626.2 26.1121 1629.64 28.6237 Q1633.13 31.1352 1634.79 35.9153 Z" fill="#000000" fill-rule="nonzero" fill-opacity="1" /><path clip-path="url(#clip550)" d="M1687.49 65.7705 L1687.49 89.8329 L1679.99 89.8329 L1679.99 27.2059 L1687.49 27.2059 L1687.49 34.0924 Q1689.84 30.0415 1693.4 28.0971 Q1697.01 26.1121 1701.99 26.1121 Q1710.25 26.1121 1715.4 32.6746 Q1720.58 39.2371 1720.58 49.9314 Q1720.58 60.6258 1715.4 67.1883 Q1710.25 73.7508 1701.99 73.7508 Q1697.01 73.7508 1693.4 71.8063 Q1689.84 69.8214 1687.49 65.7705 M1712.85 49.9314 Q1712.85 41.7081 1709.44 37.0496 Q1706.08 32.3505 1700.17 32.3505 Q1694.25 32.3505 1690.85 37.0496 Q1687.49 41.7081 1687.49 49.9314 Q1687.49 58.1548 1690.85 62.8538 Q1694.25 67.5124 1700.17 67.5124 Q1706.08 67.5124 1709.44 62.8538 Q1712.85 58.1548 1712.85 49.9314 Z" fill="#000000" fill-rule="nonzero" fill-opacity="1" /><path clip-path="url(#clip550)" d="M1732.94 9.54393 L1740.39 9.54393 L1740.39 72.576 L1732.94 72.576 L1732.94 9.54393 Z" fill="#000000" fill-rule="nonzero" fill-opacity="1" /><path clip-path="url(#clip550)" d="M1794.8 48.0275 L1794.8 51.6733 L1760.53 51.6733 Q1761.01 59.3701 1765.14 63.421 Q1769.32 67.4314 1776.73 67.4314 Q1781.02 67.4314 1785.03 66.3781 Q1789.08 65.3249 1793.05 63.2184 L1793.05 70.267 Q1789.04 71.9684 1784.83 72.8596 Q1780.62 73.7508 1776.28 73.7508 Q1765.43 73.7508 1759.07 67.4314 Q1752.75 61.1119 1752.75 50.3365 Q1752.75 39.1965 1758.74 32.6746 Q1764.78 26.1121 1774.99 26.1121 Q1784.14 26.1121 1789.45 32.0264 Q1794.8 37.9003 1794.8 48.0275 M1787.34 45.84 Q1787.26 39.7232 1783.9 36.0774 Q1780.58 32.4315 1775.07 32.4315 Q1768.83 32.4315 1765.06 35.9558 Q1761.34 39.4801 1760.77 45.8805 L1787.34 45.84 Z" fill="#000000" fill-rule="nonzero" fill-opacity="1" /><path clip-path="url(#clip552)" d="M282.019 1672.09 L282.019 1800.78 L353.678 1800.78 L353.678 1672.09 L282.019 1672.09 L282.019 1672.09  Z" fill="#009af9" fill-rule="evenodd" fill-opacity="1"/>
<polyline clip-path="url(#clip552)" style="stroke:#000000; stroke-linecap:round; stroke-linejoin:round; stroke-width:4; stroke-opacity:1; fill:none" points="282.019,1672.09 282.019,1800.78 353.678,1800.78 353.678,1672.09 282.019,1672.09 "/>
<path clip-path="url(#clip552)" d="M353.678 1714.99 L353.678 1800.78 L425.338 1800.78 L425.338 1714.99 L353.678 1714.99 L353.678 1714.99  Z" fill="#009af9" fill-rule="evenodd" fill-opacity="1"/>
<polyline clip-path="url(#clip552)" style="stroke:#000000; stroke-linecap:round; stroke-linejoin:round; stroke-width:4; stroke-opacity:1; fill:none" points="353.678,1714.99 353.678,1800.78 425.338,1800.78 425.338,1714.99 353.678,1714.99 "/>
<path clip-path="url(#clip552)" d="M425.338 1607.74 L425.338 1800.78 L496.998 1800.78 L496.998 1607.74 L425.338 1607.74 L425.338 1607.74  Z" fill="#009af9" fill-rule="evenodd" fill-opacity="1"/>
<polyline clip-path="url(#clip552)" style="stroke:#000000; stroke-linecap:round; stroke-linejoin:round; stroke-width:4; stroke-opacity:1; fill:none" points="425.338,1607.74 425.338,1800.78 496.998,1800.78 496.998,1607.74 425.338,1607.74 "/>
<path clip-path="url(#clip552)" d="M496.998 1650.64 L496.998 1800.78 L568.658 1800.78 L568.658 1650.64 L496.998 1650.64 L496.998 1650.64  Z" fill="#009af9" fill-rule="evenodd" fill-opacity="1"/>
<polyline clip-path="url(#clip552)" style="stroke:#000000; stroke-linecap:round; stroke-linejoin:round; stroke-width:4; stroke-opacity:1; fill:none" points="496.998,1650.64 496.998,1800.78 568.658,1800.78 568.658,1650.64 496.998,1650.64 "/>
<path clip-path="url(#clip552)" d="M568.658 1500.5 L568.658 1800.78 L640.317 1800.78 L640.317 1500.5 L568.658 1500.5 L568.658 1500.5  Z" fill="#009af9" fill-rule="evenodd" fill-opacity="1"/>
<polyline clip-path="url(#clip552)" style="stroke:#000000; stroke-linecap:round; stroke-linejoin:round; stroke-width:4; stroke-opacity:1; fill:none" points="568.658,1500.5 568.658,1800.78 640.317,1800.78 640.317,1500.5 568.658,1500.5 "/>
<path clip-path="url(#clip552)" d="M640.317 1264.57 L640.317 1800.78 L711.977 1800.78 L711.977 1264.57 L640.317 1264.57 L640.317 1264.57  Z" fill="#009af9" fill-rule="evenodd" fill-opacity="1"/>
<polyline clip-path="url(#clip552)" style="stroke:#000000; stroke-linecap:round; stroke-linejoin:round; stroke-width:4; stroke-opacity:1; fill:none" points="640.317,1264.57 640.317,1800.78 711.977,1800.78 711.977,1264.57 640.317,1264.57 "/>
<path clip-path="url(#clip552)" d="M711.977 1371.81 L711.977 1800.78 L783.637 1800.78 L783.637 1371.81 L711.977 1371.81 L711.977 1371.81  Z" fill="#009af9" fill-rule="evenodd" fill-opacity="1"/>
<polyline clip-path="url(#clip552)" style="stroke:#000000; stroke-linecap:round; stroke-linejoin:round; stroke-width:4; stroke-opacity:1; fill:none" points="711.977,1371.81 711.977,1800.78 783.637,1800.78 783.637,1371.81 711.977,1371.81 "/>
<path clip-path="url(#clip552)" d="M783.637 985.734 L783.637 1800.78 L855.296 1800.78 L855.296 985.734 L783.637 985.734 L783.637 985.734  Z" fill="#009af9" fill-rule="evenodd" fill-opacity="1"/>
<polyline clip-path="url(#clip552)" style="stroke:#000000; stroke-linecap:round; stroke-linejoin:round; stroke-width:4; stroke-opacity:1; fill:none" points="783.637,985.734 783.637,1800.78 855.296,1800.78 855.296,985.734 783.637,985.734 "/>
<path clip-path="url(#clip552)" d="M855.296 835.594 L855.296 1800.78 L926.956 1800.78 L926.956 835.594 L855.296 835.594 L855.296 835.594  Z" fill="#009af9" fill-rule="evenodd" fill-opacity="1"/>
<polyline clip-path="url(#clip552)" style="stroke:#000000; stroke-linecap:round; stroke-linejoin:round; stroke-width:4; stroke-opacity:1; fill:none" points="855.296,835.594 855.296,1800.78 926.956,1800.78 926.956,835.594 855.296,835.594 "/>
<path clip-path="url(#clip552)" d="M926.956 621.109 L926.956 1800.78 L998.616 1800.78 L998.616 621.109 L926.956 621.109 L926.956 621.109  Z" fill="#009af9" fill-rule="evenodd" fill-opacity="1"/>
<polyline clip-path="url(#clip552)" style="stroke:#000000; stroke-linecap:round; stroke-linejoin:round; stroke-width:4; stroke-opacity:1; fill:none" points="926.956,621.109 926.956,1800.78 998.616,1800.78 998.616,621.109 926.956,621.109 "/>
<path clip-path="url(#clip552)" d="M998.616 299.381 L998.616 1800.78 L1070.28 1800.78 L1070.28 299.381 L998.616 299.381 L998.616 299.381  Z" fill="#009af9" fill-rule="evenodd" fill-opacity="1"/>
<polyline clip-path="url(#clip552)" style="stroke:#000000; stroke-linecap:round; stroke-linejoin:round; stroke-width:4; stroke-opacity:1; fill:none" points="998.616,299.381 998.616,1800.78 1070.28,1800.78 1070.28,299.381 998.616,299.381 "/>
<path clip-path="url(#clip552)" d="M1070.28 277.932 L1070.28 1800.78 L1141.94 1800.78 L1141.94 277.932 L1070.28 277.932 L1070.28 277.932  Z" fill="#009af9" fill-rule="evenodd" fill-opacity="1"/>
<polyline clip-path="url(#clip552)" style="stroke:#000000; stroke-linecap:round; stroke-linejoin:round; stroke-width:4; stroke-opacity:1; fill:none" points="1070.28,277.932 1070.28,1800.78 1141.94,1800.78 1141.94,277.932 1070.28,277.932 "/>
<path clip-path="url(#clip552)" d="M1141.94 235.035 L1141.94 1800.78 L1213.6 1800.78 L1213.6 235.035 L1141.94 235.035 L1141.94 235.035  Z" fill="#009af9" fill-rule="evenodd" fill-opacity="1"/>
<polyline clip-path="url(#clip552)" style="stroke:#000000; stroke-linecap:round; stroke-linejoin:round; stroke-width:4; stroke-opacity:1; fill:none" points="1141.94,235.035 1141.94,1800.78 1213.6,1800.78 1213.6,235.035 1141.94,235.035 "/>
<path clip-path="url(#clip552)" d="M1213.6 385.175 L1213.6 1800.78 L1285.25 1800.78 L1285.25 385.175 L1213.6 385.175 L1213.6 385.175  Z" fill="#009af9" fill-rule="evenodd" fill-opacity="1"/>
<polyline clip-path="url(#clip552)" style="stroke:#000000; stroke-linecap:round; stroke-linejoin:round; stroke-width:4; stroke-opacity:1; fill:none" points="1213.6,385.175 1213.6,1800.78 1285.25,1800.78 1285.25,385.175 1213.6,385.175 "/>
<path clip-path="url(#clip552)" d="M1285.25 127.792 L1285.25 1800.78 L1356.91 1800.78 L1356.91 127.792 L1285.25 127.792 L1285.25 127.792  Z" fill="#009af9" fill-rule="evenodd" fill-opacity="1"/>
<polyline clip-path="url(#clip552)" style="stroke:#000000; stroke-linecap:round; stroke-linejoin:round; stroke-width:4; stroke-opacity:1; fill:none" points="1285.25,127.792 1285.25,1800.78 1356.91,1800.78 1356.91,127.792 1285.25,127.792 "/>
<path clip-path="url(#clip552)" d="M1356.91 277.932 L1356.91 1800.78 L1428.57 1800.78 L1428.57 277.932 L1356.91 277.932 L1356.91 277.932  Z" fill="#009af9" fill-rule="evenodd" fill-opacity="1"/>
<polyline clip-path="url(#clip552)" style="stroke:#000000; stroke-linecap:round; stroke-linejoin:round; stroke-width:4; stroke-opacity:1; fill:none" points="1356.91,277.932 1356.91,1800.78 1428.57,1800.78 1428.57,277.932 1356.91,277.932 "/>
<path clip-path="url(#clip552)" d="M1428.57 127.792 L1428.57 1800.78 L1500.23 1800.78 L1500.23 127.792 L1428.57 127.792 L1428.57 127.792  Z" fill="#009af9" fill-rule="evenodd" fill-opacity="1"/>
<polyline clip-path="url(#clip552)" style="stroke:#000000; stroke-linecap:round; stroke-linejoin:round; stroke-width:4; stroke-opacity:1; fill:none" points="1428.57,127.792 1428.57,1800.78 1500.23,1800.78 1500.23,127.792 1428.57,127.792 "/>
<path clip-path="url(#clip552)" d="M1500.23 277.932 L1500.23 1800.78 L1571.89 1800.78 L1571.89 277.932 L1500.23 277.932 L1500.23 277.932  Z" fill="#009af9" fill-rule="evenodd" fill-opacity="1"/>
<polyline clip-path="url(#clip552)" style="stroke:#000000; stroke-linecap:round; stroke-linejoin:round; stroke-width:4; stroke-opacity:1; fill:none" points="1500.23,277.932 1500.23,1800.78 1571.89,1800.78 1571.89,277.932 1500.23,277.932 "/>
<path clip-path="url(#clip552)" d="M1571.89 578.212 L1571.89 1800.78 L1643.55 1800.78 L1643.55 578.212 L1571.89 578.212 L1571.89 578.212  Z" fill="#009af9" fill-rule="evenodd" fill-opacity="1"/>
<polyline clip-path="url(#clip552)" style="stroke:#000000; stroke-linecap:round; stroke-linejoin:round; stroke-width:4; stroke-opacity:1; fill:none" points="1571.89,578.212 1571.89,1800.78 1643.55,1800.78 1643.55,578.212 1571.89,578.212 "/>
<path clip-path="url(#clip552)" d="M1643.55 942.837 L1643.55 1800.78 L1715.21 1800.78 L1715.21 942.837 L1643.55 942.837 L1643.55 942.837  Z" fill="#009af9" fill-rule="evenodd" fill-opacity="1"/>
<polyline clip-path="url(#clip552)" style="stroke:#000000; stroke-linecap:round; stroke-linejoin:round; stroke-width:4; stroke-opacity:1; fill:none" points="1643.55,942.837 1643.55,1800.78 1715.21,1800.78 1715.21,942.837 1643.55,942.837 "/>
<path clip-path="url(#clip552)" d="M1715.21 1157.32 L1715.21 1800.78 L1786.87 1800.78 L1786.87 1157.32 L1715.21 1157.32 L1715.21 1157.32  Z" fill="#009af9" fill-rule="evenodd" fill-opacity="1"/>
<polyline clip-path="url(#clip552)" style="stroke:#000000; stroke-linecap:round; stroke-linejoin:round; stroke-width:4; stroke-opacity:1; fill:none" points="1715.21,1157.32 1715.21,1800.78 1786.87,1800.78 1786.87,1157.32 1715.21,1157.32 "/>
<path clip-path="url(#clip552)" d="M1786.87 1243.12 L1786.87 1800.78 L1858.53 1800.78 L1858.53 1243.12 L1786.87 1243.12 L1786.87 1243.12  Z" fill="#009af9" fill-rule="evenodd" fill-opacity="1"/>
<polyline clip-path="url(#clip552)" style="stroke:#000000; stroke-linecap:round; stroke-linejoin:round; stroke-width:4; stroke-opacity:1; fill:none" points="1786.87,1243.12 1786.87,1800.78 1858.53,1800.78 1858.53,1243.12 1786.87,1243.12 "/>
<path clip-path="url(#clip552)" d="M1858.53 1629.19 L1858.53 1800.78 L1930.19 1800.78 L1930.19 1629.19 L1858.53 1629.19 L1858.53 1629.19  Z" fill="#009af9" fill-rule="evenodd" fill-opacity="1"/>
<polyline clip-path="url(#clip552)" style="stroke:#000000; stroke-linecap:round; stroke-linejoin:round; stroke-width:4; stroke-opacity:1; fill:none" points="1858.53,1629.19 1858.53,1800.78 1930.19,1800.78 1930.19,1629.19 1858.53,1629.19 "/>
<path clip-path="url(#clip552)" d="M1930.19 1479.05 L1930.19 1800.78 L2001.85 1800.78 L2001.85 1479.05 L1930.19 1479.05 L1930.19 1479.05  Z" fill="#009af9" fill-rule="evenodd" fill-opacity="1"/>
<polyline clip-path="url(#clip552)" style="stroke:#000000; stroke-linecap:round; stroke-linejoin:round; stroke-width:4; stroke-opacity:1; fill:none" points="1930.19,1479.05 1930.19,1800.78 2001.85,1800.78 2001.85,1479.05 1930.19,1479.05 "/>
<path clip-path="url(#clip552)" d="M2001.85 1564.85 L2001.85 1800.78 L2073.51 1800.78 L2073.51 1564.85 L2001.85 1564.85 L2001.85 1564.85  Z" fill="#009af9" fill-rule="evenodd" fill-opacity="1"/>
<polyline clip-path="url(#clip552)" style="stroke:#000000; stroke-linecap:round; stroke-linejoin:round; stroke-width:4; stroke-opacity:1; fill:none" points="2001.85,1564.85 2001.85,1800.78 2073.51,1800.78 2073.51,1564.85 2001.85,1564.85 "/>
<path clip-path="url(#clip552)" d="M2073.51 1757.88 L2073.51 1800.78 L2145.17 1800.78 L2145.17 1757.88 L2073.51 1757.88 L2073.51 1757.88  Z" fill="#009af9" fill-rule="evenodd" fill-opacity="1"/>
<polyline clip-path="url(#clip552)" style="stroke:#000000; stroke-linecap:round; stroke-linejoin:round; stroke-width:4; stroke-opacity:1; fill:none" points="2073.51,1757.88 2073.51,1800.78 2145.17,1800.78 2145.17,1757.88 2073.51,1757.88 "/>
<path clip-path="url(#clip552)" d="M2145.17 1693.54 L2145.17 1800.78 L2216.83 1800.78 L2216.83 1693.54 L2145.17 1693.54 L2145.17 1693.54  Z" fill="#009af9" fill-rule="evenodd" fill-opacity="1"/>
<polyline clip-path="url(#clip552)" style="stroke:#000000; stroke-linecap:round; stroke-linejoin:round; stroke-width:4; stroke-opacity:1; fill:none" points="2145.17,1693.54 2145.17,1800.78 2216.83,1800.78 2216.83,1693.54 2145.17,1693.54 "/>
<path clip-path="url(#clip552)" d="M2216.83 1736.43 L2216.83 1800.78 L2288.49 1800.78 L2288.49 1736.43 L2216.83 1736.43 L2216.83 1736.43  Z" fill="#009af9" fill-rule="evenodd" fill-opacity="1"/>
<polyline clip-path="url(#clip552)" style="stroke:#000000; stroke-linecap:round; stroke-linejoin:round; stroke-width:4; stroke-opacity:1; fill:none" points="2216.83,1736.43 2216.83,1800.78 2288.49,1800.78 2288.49,1736.43 2216.83,1736.43 "/>
<path clip-path="url(#clip552)" d="M2288.49 1800.78 L2288.49 1800.78 L2360.15 1800.78 L2360.15 1800.78 L2288.49 1800.78 L2288.49 1800.78  Z" fill="#009af9" fill-rule="evenodd" fill-opacity="1"/>
<polyline clip-path="url(#clip552)" style="stroke:#000000; stroke-linecap:round; stroke-linejoin:round; stroke-width:4; stroke-opacity:1; fill:none" points="2288.49,1800.78 2288.49,1800.78 2360.15,1800.78 2288.49,1800.78 "/>
<path clip-path="url(#clip552)" d="M2360.15 1800.78 L2360.15 1800.78 L2431.81 1800.78 L2431.81 1800.78 L2360.15 1800.78 L2360.15 1800.78  Z" fill="#009af9" fill-rule="evenodd" fill-opacity="1"/>
<polyline clip-path="url(#clip552)" style="stroke:#000000; stroke-linecap:round; stroke-linejoin:round; stroke-width:4; stroke-opacity:1; fill:none" points="2360.15,1800.78 2360.15,1800.78 2431.81,1800.78 2360.15,1800.78 "/>
<path clip-path="url(#clip552)" d="M2431.81 1757.88 L2431.81 1800.78 L2503.47 1800.78 L2503.47 1757.88 L2431.81 1757.88 L2431.81 1757.88  Z" fill="#009af9" fill-rule="evenodd" fill-opacity="1"/>
<polyline clip-path="url(#clip552)" style="stroke:#000000; stroke-linecap:round; stroke-linejoin:round; stroke-width:4; stroke-opacity:1; fill:none" points="2431.81,1757.88 2431.81,1800.78 2503.47,1800.78 2503.47,1757.88 2431.81,1757.88 "/>
<circle clip-path="url(#clip552)" style="fill:#009af9; stroke:none; fill-opacity:0" cx="317.849" cy="1672.09" r="2"/>
<circle clip-path="url(#clip552)" style="fill:#009af9; stroke:none; fill-opacity:0" cx="389.508" cy="1714.99" r="2"/>
<circle clip-path="url(#clip552)" style="fill:#009af9; stroke:none; fill-opacity:0" cx="461.168" cy="1607.74" r="2"/>
<circle clip-path="url(#clip552)" style="fill:#009af9; stroke:none; fill-opacity:0" cx="532.828" cy="1650.64" r="2"/>
<circle clip-path="url(#clip552)" style="fill:#009af9; stroke:none; fill-opacity:0" cx="604.487" cy="1500.5" r="2"/>
<circle clip-path="url(#clip552)" style="fill:#009af9; stroke:none; fill-opacity:0" cx="676.147" cy="1264.57" r="2"/>
<circle clip-path="url(#clip552)" style="fill:#009af9; stroke:none; fill-opacity:0" cx="747.807" cy="1371.81" r="2"/>
<circle clip-path="url(#clip552)" style="fill:#009af9; stroke:none; fill-opacity:0" cx="819.467" cy="985.734" r="2"/>
<circle clip-path="url(#clip552)" style="fill:#009af9; stroke:none; fill-opacity:0" cx="891.126" cy="835.594" r="2"/>
<circle clip-path="url(#clip552)" style="fill:#009af9; stroke:none; fill-opacity:0" cx="962.786" cy="621.109" r="2"/>
<circle clip-path="url(#clip552)" style="fill:#009af9; stroke:none; fill-opacity:0" cx="1034.45" cy="299.381" r="2"/>
<circle clip-path="url(#clip552)" style="fill:#009af9; stroke:none; fill-opacity:0" cx="1106.11" cy="277.932" r="2"/>
<circle clip-path="url(#clip552)" style="fill:#009af9; stroke:none; fill-opacity:0" cx="1177.77" cy="235.035" r="2"/>
<circle clip-path="url(#clip552)" style="fill:#009af9; stroke:none; fill-opacity:0" cx="1249.42" cy="385.175" r="2"/>
<circle clip-path="url(#clip552)" style="fill:#009af9; stroke:none; fill-opacity:0" cx="1321.08" cy="127.792" r="2"/>
<circle clip-path="url(#clip552)" style="fill:#009af9; stroke:none; fill-opacity:0" cx="1392.74" cy="277.932" r="2"/>
<circle clip-path="url(#clip552)" style="fill:#009af9; stroke:none; fill-opacity:0" cx="1464.4" cy="127.792" r="2"/>
<circle clip-path="url(#clip552)" style="fill:#009af9; stroke:none; fill-opacity:0" cx="1536.06" cy="277.932" r="2"/>
<circle clip-path="url(#clip552)" style="fill:#009af9; stroke:none; fill-opacity:0" cx="1607.72" cy="578.212" r="2"/>
<circle clip-path="url(#clip552)" style="fill:#009af9; stroke:none; fill-opacity:0" cx="1679.38" cy="942.837" r="2"/>
<circle clip-path="url(#clip552)" style="fill:#009af9; stroke:none; fill-opacity:0" cx="1751.04" cy="1157.32" r="2"/>
<circle clip-path="url(#clip552)" style="fill:#009af9; stroke:none; fill-opacity:0" cx="1822.7" cy="1243.12" r="2"/>
<circle clip-path="url(#clip552)" style="fill:#009af9; stroke:none; fill-opacity:0" cx="1894.36" cy="1629.19" r="2"/>
<circle clip-path="url(#clip552)" style="fill:#009af9; stroke:none; fill-opacity:0" cx="1966.02" cy="1479.05" r="2"/>
<circle clip-path="url(#clip552)" style="fill:#009af9; stroke:none; fill-opacity:0" cx="2037.68" cy="1564.85" r="2"/>
<circle clip-path="url(#clip552)" style="fill:#009af9; stroke:none; fill-opacity:0" cx="2109.34" cy="1757.88" r="2"/>
<circle clip-path="url(#clip552)" style="fill:#009af9; stroke:none; fill-opacity:0" cx="2181" cy="1693.54" r="2"/>
<circle clip-path="url(#clip552)" style="fill:#009af9; stroke:none; fill-opacity:0" cx="2252.66" cy="1736.43" r="2"/>
<circle clip-path="url(#clip552)" style="fill:#009af9; stroke:none; fill-opacity:0" cx="2324.32" cy="1800.78" r="2"/>
<circle clip-path="url(#clip552)" style="fill:#009af9; stroke:none; fill-opacity:0" cx="2395.98" cy="1800.78" r="2"/>
<circle clip-path="url(#clip552)" style="fill:#009af9; stroke:none; fill-opacity:0" cx="2467.64" cy="1757.88" r="2"/>
<path clip-path="url(#clip550)" d="M2255.52 287.238 L2557.56 287.238 L2557.56 183.558 L2255.52 183.558  Z" fill="#ffffff" fill-rule="evenodd" fill-opacity="1"/>
<polyline clip-path="url(#clip550)" style="stroke:#000000; stroke-linecap:round; stroke-linejoin:round; stroke-width:4; stroke-opacity:1; fill:none" points="2255.52,287.238 2557.56,287.238 2557.56,183.558 2255.52,183.558 2255.52,287.238 "/>
<path clip-path="url(#clip550)" d="M2283.26 256.134 L2449.66 256.134 L2449.66 214.662 L2283.26 214.662 L2283.26 256.134  Z" fill="#009af9" fill-rule="evenodd" fill-opacity="1"/>
<polyline clip-path="url(#clip550)" style="stroke:#000000; stroke-linecap:round; stroke-linejoin:round; stroke-width:4; stroke-opacity:1; fill:none" points="2283.26,256.134 2449.66,256.134 2449.66,214.662 2283.26,214.662 2283.26,256.134 "/>
<path clip-path="url(#clip550)" d="M2491.23 255.086 Q2489.43 259.715 2487.72 261.127 Q2486 262.539 2483.13 262.539 L2479.73 262.539 L2479.73 258.975 L2482.23 258.975 Q2483.99 258.975 2484.96 258.141 Q2485.93 257.308 2487.11 254.206 L2487.88 252.262 L2477.39 226.753 L2481.91 226.753 L2490.01 247.03 L2498.11 226.753 L2502.62 226.753 L2491.23 255.086 Z" fill="#000000" fill-rule="nonzero" fill-opacity="1" /><path clip-path="url(#clip550)" d="M2509.91 248.743 L2517.55 248.743 L2517.55 222.378 L2509.24 224.044 L2509.24 219.785 L2517.51 218.118 L2522.18 218.118 L2522.18 248.743 L2529.82 248.743 L2529.82 252.678 L2509.91 252.678 L2509.91 248.743 Z" fill="#000000" fill-rule="nonzero" fill-opacity="1" /></svg>
