<?xml version="1.0" encoding="utf-8"?>
<svg xmlns="http://www.w3.org/2000/svg" xmlns:xlink="http://www.w3.org/1999/xlink" width="672" height="480" viewBox="0 0 2688 1920">
<defs>
  <clipPath id="clip310">
    <rect x="0" y="0" width="2688" height="1920"/>
  </clipPath>
</defs>
<path clip-path="url(#clip310)" d="M0 1920 L2688 1920 L2688 -4.26326e-14 L0 -4.26326e-14  Z" fill="#ffffff" fill-rule="evenodd" fill-opacity="1"/>
<defs>
  <clipPath id="clip311">
    <rect x="537" y="0" width="1883" height="1883"/>
  </clipPath>
</defs>
<path clip-path="url(#clip310)" d="M226.141 1734.12 L2640.76 1734.12 L2640.76 127.792 L226.141 127.792  Z" fill="#ffffff" fill-rule="evenodd" fill-opacity="1"/>
<defs>
  <clipPath id="clip312">
    <rect x="226" y="127" width="2416" height="1607"/>
  </clipPath>
</defs>
<polyline clip-path="url(#clip312)" style="stroke:#000000; stroke-linecap:round; stroke-linejoin:round; stroke-width:2; stroke-opacity:0.1; fill:none" points="547.583,1734.12 547.583,127.792 "/>
<polyline clip-path="url(#clip312)" style="stroke:#000000; stroke-linecap:round; stroke-linejoin:round; stroke-width:2; stroke-opacity:0.1; fill:none" points="1053.79,1734.12 1053.79,127.792 "/>
<polyline clip-path="url(#clip312)" style="stroke:#000000; stroke-linecap:round; stroke-linejoin:round; stroke-width:2; stroke-opacity:0.1; fill:none" points="1560,1734.12 1560,127.792 "/>
<polyline clip-path="url(#clip312)" style="stroke:#000000; stroke-linecap:round; stroke-linejoin:round; stroke-width:2; stroke-opacity:0.1; fill:none" points="2066.21,1734.12 2066.21,127.792 "/>
<polyline clip-path="url(#clip312)" style="stroke:#000000; stroke-linecap:round; stroke-linejoin:round; stroke-width:2; stroke-opacity:0.1; fill:none" points="2572.42,1734.12 2572.42,127.792 "/>
<polyline clip-path="url(#clip312)" style="stroke:#000000; stroke-linecap:round; stroke-linejoin:round; stroke-width:2; stroke-opacity:0.1; fill:none" points="226.141,1604.68 2640.76,1604.68 "/>
<polyline clip-path="url(#clip312)" style="stroke:#000000; stroke-linecap:round; stroke-linejoin:round; stroke-width:2; stroke-opacity:0.1; fill:none" points="226.141,1382.05 2640.76,1382.05 "/>
<polyline clip-path="url(#clip312)" style="stroke:#000000; stroke-linecap:round; stroke-linejoin:round; stroke-width:2; stroke-opacity:0.1; fill:none" points="226.141,1159.42 2640.76,1159.42 "/>
<polyline clip-path="url(#clip312)" style="stroke:#000000; stroke-linecap:round; stroke-linejoin:round; stroke-width:2; stroke-opacity:0.1; fill:none" points="226.141,936.799 2640.76,936.799 "/>
<polyline clip-path="url(#clip312)" style="stroke:#000000; stroke-linecap:round; stroke-linejoin:round; stroke-width:2; stroke-opacity:0.1; fill:none" points="226.141,714.173 2640.76,714.173 "/>
<polyline clip-path="url(#clip312)" style="stroke:#000000; stroke-linecap:round; stroke-linejoin:round; stroke-width:2; stroke-opacity:0.1; fill:none" points="226.141,491.547 2640.76,491.547 "/>
<polyline clip-path="url(#clip312)" style="stroke:#000000; stroke-linecap:round; stroke-linejoin:round; stroke-width:2; stroke-opacity:0.1; fill:none" points="226.141,268.921 2640.76,268.921 "/>
<polyline clip-path="url(#clip310)" style="stroke:#000000; stroke-linecap:round; stroke-linejoin:round; stroke-width:4; stroke-opacity:1; fill:none" points="226.141,1734.12 2640.76,1734.12 "/>
<polyline clip-path="url(#clip310)" style="stroke:#000000; stroke-linecap:round; stroke-linejoin:round; stroke-width:4; stroke-opacity:1; fill:none" points="547.583,1734.12 547.583,1715.22 "/>
<polyline clip-path="url(#clip310)" style="stroke:#000000; stroke-linecap:round; stroke-linejoin:round; stroke-width:4; stroke-opacity:1; fill:none" points="1053.79,1734.12 1053.79,1715.22 "/>
<polyline clip-path="url(#clip310)" style="stroke:#000000; stroke-linecap:round; stroke-linejoin:round; stroke-width:4; stroke-opacity:1; fill:none" points="1560,1734.12 1560,1715.22 "/>
<polyline clip-path="url(#clip310)" style="stroke:#000000; stroke-linecap:round; stroke-linejoin:round; stroke-width:4; stroke-opacity:1; fill:none" points="2066.21,1734.12 2066.21,1715.22 "/>
<polyline clip-path="url(#clip310)" style="stroke:#000000; stroke-linecap:round; stroke-linejoin:round; stroke-width:4; stroke-opacity:1; fill:none" points="2572.42,1734.12 2572.42,1715.22 "/>
<path clip-path="url(#clip310)" d="M542.236 1794.89 L558.555 1794.89 L558.555 1798.82 L536.611 1798.82 L536.611 1794.89 Q539.273 1792.13 543.856 1787.5 Q548.463 1782.85 549.643 1781.51 Q551.889 1778.98 552.768 1777.25 Q553.671 1775.49 553.671 1773.8 Q553.671 1771.04 551.727 1769.31 Q549.805 1767.57 546.703 1767.57 Q544.504 1767.57 542.051 1768.34 Q539.62 1769.1 536.842 1770.65 L536.842 1765.93 Q539.666 1764.79 542.12 1764.21 Q544.574 1763.64 546.611 1763.64 Q551.981 1763.64 555.176 1766.32 Q558.37 1769.01 558.37 1773.5 Q558.37 1775.63 557.56 1777.55 Q556.773 1779.45 554.666 1782.04 Q554.088 1782.71 550.986 1785.93 Q547.884 1789.12 542.236 1794.89 Z" fill="#000000" fill-rule="nonzero" fill-opacity="1" /><path clip-path="url(#clip310)" d="M1056.8 1768.34 L1045 1786.78 L1056.8 1786.78 L1056.8 1768.34 M1055.57 1764.26 L1061.45 1764.26 L1061.45 1786.78 L1066.38 1786.78 L1066.38 1790.67 L1061.45 1790.67 L1061.45 1798.82 L1056.8 1798.82 L1056.8 1790.67 L1041.2 1790.67 L1041.2 1786.16 L1055.57 1764.26 Z" fill="#000000" fill-rule="nonzero" fill-opacity="1" /><path clip-path="url(#clip310)" d="M1560.41 1779.68 Q1557.26 1779.68 1555.41 1781.83 Q1553.58 1783.98 1553.58 1787.73 Q1553.58 1791.46 1555.41 1793.64 Q1557.26 1795.79 1560.41 1795.79 Q1563.55 1795.79 1565.38 1793.64 Q1567.23 1791.46 1567.23 1787.73 Q1567.23 1783.98 1565.38 1781.83 Q1563.55 1779.68 1560.41 1779.68 M1569.69 1765.02 L1569.69 1769.28 Q1567.93 1768.45 1566.12 1768.01 Q1564.34 1767.57 1562.58 1767.57 Q1557.95 1767.57 1555.5 1770.7 Q1553.07 1773.82 1552.72 1780.14 Q1554.09 1778.13 1556.15 1777.06 Q1558.21 1775.97 1560.68 1775.97 Q1565.89 1775.97 1568.9 1779.15 Q1571.93 1782.29 1571.93 1787.73 Q1571.93 1793.06 1568.79 1796.27 Q1565.64 1799.49 1560.41 1799.49 Q1554.41 1799.49 1551.24 1794.91 Q1548.07 1790.3 1548.07 1781.58 Q1548.07 1773.38 1551.96 1768.52 Q1555.85 1763.64 1562.4 1763.64 Q1564.16 1763.64 1565.94 1763.98 Q1567.74 1764.33 1569.69 1765.02 Z" fill="#000000" fill-rule="nonzero" fill-opacity="1" /><path clip-path="url(#clip310)" d="M2066.21 1782.41 Q2062.88 1782.41 2060.95 1784.19 Q2059.06 1785.97 2059.06 1789.1 Q2059.06 1792.22 2060.95 1794.01 Q2062.88 1795.79 2066.21 1795.79 Q2069.54 1795.79 2071.46 1794.01 Q2073.38 1792.2 2073.38 1789.1 Q2073.38 1785.97 2071.46 1784.19 Q2069.57 1782.41 2066.21 1782.41 M2061.53 1780.42 Q2058.52 1779.68 2056.83 1777.62 Q2055.17 1775.56 2055.17 1772.59 Q2055.17 1768.45 2058.11 1766.04 Q2061.07 1763.64 2066.21 1763.64 Q2071.37 1763.64 2074.31 1766.04 Q2077.25 1768.45 2077.25 1772.59 Q2077.25 1775.56 2075.56 1777.62 Q2073.89 1779.68 2070.91 1780.42 Q2074.29 1781.21 2076.16 1783.5 Q2078.06 1785.79 2078.06 1789.1 Q2078.06 1794.12 2074.98 1796.81 Q2071.93 1799.49 2066.21 1799.49 Q2060.49 1799.49 2057.41 1796.81 Q2054.36 1794.12 2054.36 1789.1 Q2054.36 1785.79 2056.26 1783.5 Q2058.15 1781.21 2061.53 1780.42 M2059.82 1773.03 Q2059.82 1775.72 2061.49 1777.22 Q2063.18 1778.73 2066.21 1778.73 Q2069.22 1778.73 2070.91 1777.22 Q2072.62 1775.72 2072.62 1773.03 Q2072.62 1770.35 2070.91 1768.84 Q2069.22 1767.34 2066.21 1767.34 Q2063.18 1767.34 2061.49 1768.84 Q2059.82 1770.35 2059.82 1773.03 Z" fill="#000000" fill-rule="nonzero" fill-opacity="1" /><path clip-path="url(#clip310)" d="M2547.11 1794.89 L2554.74 1794.89 L2554.74 1768.52 L2546.43 1770.19 L2546.43 1765.93 L2554.7 1764.26 L2559.37 1764.26 L2559.37 1794.89 L2567.01 1794.89 L2567.01 1798.82 L2547.11 1798.82 L2547.11 1794.89 Z" fill="#000000" fill-rule="nonzero" fill-opacity="1" /><path clip-path="url(#clip310)" d="M2586.46 1767.34 Q2582.85 1767.34 2581.02 1770.9 Q2579.21 1774.45 2579.21 1781.58 Q2579.21 1788.68 2581.02 1792.25 Q2582.85 1795.79 2586.46 1795.79 Q2590.09 1795.79 2591.9 1792.25 Q2593.73 1788.68 2593.73 1781.58 Q2593.73 1774.45 2591.9 1770.9 Q2590.09 1767.34 2586.46 1767.34 M2586.46 1763.64 Q2592.27 1763.64 2595.32 1768.24 Q2598.4 1772.83 2598.4 1781.58 Q2598.4 1790.3 2595.32 1794.91 Q2592.27 1799.49 2586.46 1799.49 Q2580.65 1799.49 2577.57 1794.91 Q2574.51 1790.3 2574.51 1781.58 Q2574.51 1772.83 2577.57 1768.24 Q2580.65 1763.64 2586.46 1763.64 Z" fill="#000000" fill-rule="nonzero" fill-opacity="1" /><path clip-path="url(#clip310)" d="M1243.59 1835.78 L1250.5 1835.78 L1262.31 1853.45 L1274.18 1835.78 L1281.09 1835.78 L1265.81 1858.6 L1282.1 1883.3 L1275.2 1883.3 L1261.83 1863.09 L1248.37 1883.3 L1241.43 1883.3 L1258.39 1857.93 L1243.59 1835.78 Z" fill="#000000" fill-rule="nonzero" fill-opacity="1" /><path clip-path="url(#clip310)" d="M1284.08 1862.84 L1301.23 1862.84 L1301.23 1868.06 L1284.08 1868.06 L1284.08 1862.84 Z" fill="#000000" fill-rule="nonzero" fill-opacity="1" /><path clip-path="url(#clip310)" d="M1326.76 1865.38 Q1319.66 1865.38 1316.92 1867 Q1314.19 1868.63 1314.19 1872.54 Q1314.19 1875.66 1316.22 1877.51 Q1318.29 1879.32 1321.83 1879.32 Q1326.7 1879.32 1329.62 1875.88 Q1332.58 1872.42 1332.58 1866.69 L1332.58 1865.38 L1326.76 1865.38 M1338.44 1862.96 L1338.44 1883.3 L1332.58 1883.3 L1332.58 1877.89 Q1330.58 1881.14 1327.59 1882.7 Q1324.59 1884.22 1320.27 1884.22 Q1314.79 1884.22 1311.54 1881.17 Q1308.33 1878.08 1308.33 1872.92 Q1308.33 1866.91 1312.34 1863.85 Q1316.38 1860.8 1324.37 1860.8 L1332.58 1860.8 L1332.58 1860.23 Q1332.58 1856.18 1329.91 1853.99 Q1327.27 1851.76 1322.46 1851.76 Q1319.41 1851.76 1316.51 1852.49 Q1313.61 1853.22 1310.94 1854.69 L1310.94 1849.28 Q1314.15 1848.03 1317.18 1847.43 Q1320.2 1846.79 1323.07 1846.79 Q1330.8 1846.79 1334.62 1850.8 Q1338.44 1854.81 1338.44 1862.96 Z" fill="#000000" fill-rule="nonzero" fill-opacity="1" /><path clip-path="url(#clip310)" d="M1380.14 1847.65 L1367.24 1865 L1380.8 1883.3 L1373.9 1883.3 L1363.52 1869.3 L1353.14 1883.3 L1346.24 1883.3 L1360.08 1864.65 L1347.42 1847.65 L1354.32 1847.65 L1363.78 1860.35 L1373.23 1847.65 L1380.14 1847.65 Z" fill="#000000" fill-rule="nonzero" fill-opacity="1" /><path clip-path="url(#clip310)" d="M1389.08 1847.65 L1394.94 1847.65 L1394.94 1883.3 L1389.08 1883.3 L1389.08 1847.65 M1389.08 1833.78 L1394.94 1833.78 L1394.94 1841.19 L1389.08 1841.19 L1389.08 1833.78 Z" fill="#000000" fill-rule="nonzero" fill-opacity="1" /><path clip-path="url(#clip310)" d="M1429.92 1848.7 L1429.92 1854.24 Q1427.43 1852.97 1424.76 1852.33 Q1422.09 1851.7 1419.22 1851.7 Q1414.86 1851.7 1412.66 1853.03 Q1410.5 1854.37 1410.5 1857.04 Q1410.5 1859.08 1412.06 1860.26 Q1413.62 1861.4 1418.33 1862.45 L1420.33 1862.9 Q1426.57 1864.24 1429.18 1866.69 Q1431.82 1869.11 1431.82 1873.47 Q1431.82 1878.43 1427.88 1881.33 Q1423.96 1884.22 1417.09 1884.22 Q1414.22 1884.22 1411.1 1883.65 Q1408.02 1883.11 1404.58 1882 L1404.58 1875.95 Q1407.83 1877.64 1410.98 1878.49 Q1414.13 1879.32 1417.22 1879.32 Q1421.35 1879.32 1423.58 1877.92 Q1425.81 1876.49 1425.81 1873.91 Q1425.81 1871.52 1424.19 1870.25 Q1422.59 1868.98 1417.15 1867.8 L1415.11 1867.32 Q1409.67 1866.18 1407.25 1863.82 Q1404.83 1861.43 1404.83 1857.3 Q1404.83 1852.27 1408.4 1849.53 Q1411.96 1846.79 1418.52 1846.79 Q1421.77 1846.79 1424.63 1847.27 Q1427.5 1847.75 1429.92 1848.7 Z" fill="#000000" fill-rule="nonzero" fill-opacity="1" /><path clip-path="url(#clip310)" d="M1462.13 1835.78 L1468.56 1835.78 L1468.56 1877.89 L1491.69 1877.89 L1491.69 1883.3 L1462.13 1883.3 L1462.13 1835.78 Z" fill="#000000" fill-rule="nonzero" fill-opacity="1" /><path clip-path="url(#clip310)" d="M1514.39 1865.38 Q1507.29 1865.38 1504.55 1867 Q1501.82 1868.63 1501.82 1872.54 Q1501.82 1875.66 1503.85 1877.51 Q1505.92 1879.32 1509.45 1879.32 Q1514.32 1879.32 1517.25 1875.88 Q1520.21 1872.42 1520.21 1866.69 L1520.21 1865.38 L1514.39 1865.38 M1526.07 1862.96 L1526.07 1883.3 L1520.21 1883.3 L1520.21 1877.89 Q1518.21 1881.14 1515.22 1882.7 Q1512.22 1884.22 1507.9 1884.22 Q1502.42 1884.22 1499.17 1881.17 Q1495.96 1878.08 1495.96 1872.92 Q1495.96 1866.91 1499.97 1863.85 Q1504.01 1860.8 1512 1860.8 L1520.21 1860.8 L1520.21 1860.23 Q1520.21 1856.18 1517.54 1853.99 Q1514.9 1851.76 1510.09 1851.76 Q1507.04 1851.76 1504.14 1852.49 Q1501.24 1853.22 1498.57 1854.69 L1498.57 1849.28 Q1501.78 1848.03 1504.81 1847.43 Q1507.83 1846.79 1510.7 1846.79 Q1518.43 1846.79 1522.25 1850.8 Q1526.07 1854.81 1526.07 1862.96 Z" fill="#000000" fill-rule="nonzero" fill-opacity="1" /><path clip-path="url(#clip310)" d="M1563.72 1865.51 Q1563.72 1859.05 1561.05 1855.39 Q1558.41 1851.7 1553.76 1851.7 Q1549.11 1851.7 1546.44 1855.39 Q1543.8 1859.05 1543.8 1865.51 Q1543.8 1871.97 1546.44 1875.66 Q1549.11 1879.32 1553.76 1879.32 Q1558.41 1879.32 1561.05 1875.66 Q1563.72 1871.97 1563.72 1865.51 M1543.8 1853.06 Q1545.64 1849.88 1548.44 1848.35 Q1551.28 1846.79 1555.19 1846.79 Q1561.69 1846.79 1565.73 1851.95 Q1569.8 1857.11 1569.8 1865.51 Q1569.8 1873.91 1565.73 1879.07 Q1561.69 1884.22 1555.19 1884.22 Q1551.28 1884.22 1548.44 1882.7 Q1545.64 1881.14 1543.8 1877.95 L1543.8 1883.3 L1537.91 1883.3 L1537.91 1833.78 L1543.8 1833.78 L1543.8 1853.06 Z" fill="#000000" fill-rule="nonzero" fill-opacity="1" /><path clip-path="url(#clip310)" d="M1610 1864.01 L1610 1866.88 L1583.07 1866.88 Q1583.46 1872.92 1586.7 1876.11 Q1589.98 1879.26 1595.81 1879.26 Q1599.18 1879.26 1602.33 1878.43 Q1605.51 1877.6 1608.63 1875.95 L1608.63 1881.49 Q1605.48 1882.82 1602.17 1883.52 Q1598.86 1884.22 1595.46 1884.22 Q1586.93 1884.22 1581.93 1879.26 Q1576.96 1874.29 1576.96 1865.83 Q1576.96 1857.07 1581.67 1851.95 Q1586.42 1846.79 1594.44 1846.79 Q1601.63 1846.79 1605.8 1851.44 Q1610 1856.06 1610 1864.01 M1604.14 1862.29 Q1604.08 1857.49 1601.44 1854.62 Q1598.83 1851.76 1594.5 1851.76 Q1589.6 1851.76 1586.64 1854.53 Q1583.71 1857.3 1583.27 1862.33 L1604.14 1862.29 Z" fill="#000000" fill-rule="nonzero" fill-opacity="1" /><path clip-path="url(#clip310)" d="M1619.61 1833.78 L1625.47 1833.78 L1625.47 1883.3 L1619.61 1883.3 L1619.61 1833.78 Z" fill="#000000" fill-rule="nonzero" fill-opacity="1" /><polyline clip-path="url(#clip310)" style="stroke:#000000; stroke-linecap:round; stroke-linejoin:round; stroke-width:4; stroke-opacity:1; fill:none" points="226.141,1734.12 226.141,127.792 "/>
<polyline clip-path="url(#clip310)" style="stroke:#000000; stroke-linecap:round; stroke-linejoin:round; stroke-width:4; stroke-opacity:1; fill:none" points="226.141,1604.68 245.038,1604.68 "/>
<polyline clip-path="url(#clip310)" style="stroke:#000000; stroke-linecap:round; stroke-linejoin:round; stroke-width:4; stroke-opacity:1; fill:none" points="226.141,1382.05 245.038,1382.05 "/>
<polyline clip-path="url(#clip310)" style="stroke:#000000; stroke-linecap:round; stroke-linejoin:round; stroke-width:4; stroke-opacity:1; fill:none" points="226.141,1159.42 245.038,1159.42 "/>
<polyline clip-path="url(#clip310)" style="stroke:#000000; stroke-linecap:round; stroke-linejoin:round; stroke-width:4; stroke-opacity:1; fill:none" points="226.141,936.799 245.038,936.799 "/>
<polyline clip-path="url(#clip310)" style="stroke:#000000; stroke-linecap:round; stroke-linejoin:round; stroke-width:4; stroke-opacity:1; fill:none" points="226.141,714.173 245.038,714.173 "/>
<polyline clip-path="url(#clip310)" style="stroke:#000000; stroke-linecap:round; stroke-linejoin:round; stroke-width:4; stroke-opacity:1; fill:none" points="226.141,491.547 245.038,491.547 "/>
<polyline clip-path="url(#clip310)" style="stroke:#000000; stroke-linecap:round; stroke-linejoin:round; stroke-width:4; stroke-opacity:1; fill:none" points="226.141,268.921 245.038,268.921 "/>
<path clip-path="url(#clip310)" d="M129.293 1590.47 Q125.682 1590.47 123.853 1594.04 Q122.048 1597.58 122.048 1604.71 Q122.048 1611.82 123.853 1615.38 Q125.682 1618.92 129.293 1618.92 Q132.927 1618.92 134.733 1615.38 Q136.562 1611.82 136.562 1604.71 Q136.562 1597.58 134.733 1594.04 Q132.927 1590.47 129.293 1590.47 M129.293 1586.77 Q135.103 1586.77 138.159 1591.38 Q141.237 1595.96 141.237 1604.71 Q141.237 1613.44 138.159 1618.04 Q135.103 1622.63 129.293 1622.63 Q123.483 1622.63 120.404 1618.04 Q117.349 1613.44 117.349 1604.71 Q117.349 1595.96 120.404 1591.38 Q123.483 1586.77 129.293 1586.77 Z" fill="#000000" fill-rule="nonzero" fill-opacity="1" /><path clip-path="url(#clip310)" d="M149.455 1616.08 L154.339 1616.08 L154.339 1621.96 L149.455 1621.96 L149.455 1616.08 Z" fill="#000000" fill-rule="nonzero" fill-opacity="1" /><path clip-path="url(#clip310)" d="M178.691 1603.32 Q182.047 1604.04 183.922 1606.31 Q185.821 1608.58 185.821 1611.91 Q185.821 1617.03 182.302 1619.83 Q178.784 1622.63 172.302 1622.63 Q170.126 1622.63 167.811 1622.19 Q165.52 1621.77 163.066 1620.91 L163.066 1616.4 Q165.01 1617.53 167.325 1618.11 Q169.64 1618.69 172.163 1618.69 Q176.561 1618.69 178.853 1616.96 Q181.168 1615.22 181.168 1611.91 Q181.168 1608.85 179.015 1607.14 Q176.885 1605.41 173.066 1605.41 L169.038 1605.41 L169.038 1601.56 L173.251 1601.56 Q176.7 1601.56 178.529 1600.2 Q180.358 1598.81 180.358 1596.22 Q180.358 1593.55 178.459 1592.14 Q176.584 1590.71 173.066 1590.71 Q171.145 1590.71 168.946 1591.12 Q166.747 1591.54 164.108 1592.42 L164.108 1588.25 Q166.77 1587.51 169.085 1587.14 Q171.422 1586.77 173.483 1586.77 Q178.807 1586.77 181.909 1589.2 Q185.01 1591.61 185.01 1595.73 Q185.01 1598.6 183.367 1600.59 Q181.723 1602.56 178.691 1603.32 Z" fill="#000000" fill-rule="nonzero" fill-opacity="1" /><path clip-path="url(#clip310)" d="M128.159 1367.85 Q124.548 1367.85 122.719 1371.41 Q120.913 1374.96 120.913 1382.08 Q120.913 1389.19 122.719 1392.76 Q124.548 1396.3 128.159 1396.3 Q131.793 1396.3 133.599 1392.76 Q135.427 1389.19 135.427 1382.08 Q135.427 1374.96 133.599 1371.41 Q131.793 1367.85 128.159 1367.85 M128.159 1364.15 Q133.969 1364.15 137.025 1368.75 Q140.103 1373.33 140.103 1382.08 Q140.103 1390.81 137.025 1395.42 Q133.969 1400 128.159 1400 Q122.349 1400 119.27 1395.42 Q116.214 1390.81 116.214 1382.08 Q116.214 1373.33 119.27 1368.75 Q122.349 1364.15 128.159 1364.15 Z" fill="#000000" fill-rule="nonzero" fill-opacity="1" /><path clip-path="url(#clip310)" d="M148.321 1393.45 L153.205 1393.45 L153.205 1399.33 L148.321 1399.33 L148.321 1393.45 Z" fill="#000000" fill-rule="nonzero" fill-opacity="1" /><path clip-path="url(#clip310)" d="M176.237 1368.84 L164.432 1387.29 L176.237 1387.29 L176.237 1368.84 M175.01 1364.77 L180.89 1364.77 L180.89 1387.29 L185.821 1387.29 L185.821 1391.18 L180.89 1391.18 L180.89 1399.33 L176.237 1399.33 L176.237 1391.18 L160.636 1391.18 L160.636 1386.67 L175.01 1364.77 Z" fill="#000000" fill-rule="nonzero" fill-opacity="1" /><path clip-path="url(#clip310)" d="M129.64 1145.22 Q126.029 1145.22 124.201 1148.79 Q122.395 1152.33 122.395 1159.46 Q122.395 1166.57 124.201 1170.13 Q126.029 1173.67 129.64 1173.67 Q133.275 1173.67 135.08 1170.13 Q136.909 1166.57 136.909 1159.46 Q136.909 1152.33 135.08 1148.79 Q133.275 1145.22 129.64 1145.22 M129.64 1141.52 Q135.45 1141.52 138.506 1146.13 Q141.585 1150.71 141.585 1159.46 Q141.585 1168.19 138.506 1172.79 Q135.45 1177.38 129.64 1177.38 Q123.83 1177.38 120.751 1172.79 Q117.696 1168.19 117.696 1159.46 Q117.696 1150.71 120.751 1146.13 Q123.83 1141.52 129.64 1141.52 Z" fill="#000000" fill-rule="nonzero" fill-opacity="1" /><path clip-path="url(#clip310)" d="M149.802 1170.82 L154.686 1170.82 L154.686 1176.7 L149.802 1176.7 L149.802 1170.82 Z" fill="#000000" fill-rule="nonzero" fill-opacity="1" /><path clip-path="url(#clip310)" d="M164.918 1142.14 L183.274 1142.14 L183.274 1146.08 L169.2 1146.08 L169.2 1154.55 Q170.219 1154.2 171.237 1154.04 Q172.256 1153.86 173.274 1153.86 Q179.061 1153.86 182.441 1157.03 Q185.821 1160.2 185.821 1165.62 Q185.821 1171.2 182.348 1174.3 Q178.876 1177.38 172.557 1177.38 Q170.381 1177.38 168.112 1177.01 Q165.867 1176.63 163.46 1175.89 L163.46 1171.2 Q165.543 1172.33 167.765 1172.89 Q169.987 1173.44 172.464 1173.44 Q176.469 1173.44 178.807 1171.33 Q181.145 1169.23 181.145 1165.62 Q181.145 1162.01 178.807 1159.9 Q176.469 1157.79 172.464 1157.79 Q170.589 1157.79 168.714 1158.21 Q166.862 1158.63 164.918 1159.51 L164.918 1142.14 Z" fill="#000000" fill-rule="nonzero" fill-opacity="1" /><path clip-path="url(#clip310)" d="M128.483 922.597 Q124.872 922.597 123.043 926.162 Q121.238 929.704 121.238 936.833 Q121.238 943.94 123.043 947.505 Q124.872 951.046 128.483 951.046 Q132.117 951.046 133.923 947.505 Q135.751 943.94 135.751 936.833 Q135.751 929.704 133.923 926.162 Q132.117 922.597 128.483 922.597 M128.483 918.894 Q134.293 918.894 137.349 923.5 Q140.427 928.083 140.427 936.833 Q140.427 945.56 137.349 950.167 Q134.293 954.75 128.483 954.75 Q122.673 954.75 119.594 950.167 Q116.539 945.56 116.539 936.833 Q116.539 928.083 119.594 923.5 Q122.673 918.894 128.483 918.894 Z" fill="#000000" fill-rule="nonzero" fill-opacity="1" /><path clip-path="url(#clip310)" d="M148.645 948.199 L153.529 948.199 L153.529 954.079 L148.645 954.079 L148.645 948.199 Z" fill="#000000" fill-rule="nonzero" fill-opacity="1" /><path clip-path="url(#clip310)" d="M174.293 934.935 Q171.145 934.935 169.293 937.088 Q167.464 939.241 167.464 942.991 Q167.464 946.718 169.293 948.894 Q171.145 951.046 174.293 951.046 Q177.441 951.046 179.27 948.894 Q181.122 946.718 181.122 942.991 Q181.122 939.241 179.27 937.088 Q177.441 934.935 174.293 934.935 M183.575 920.283 L183.575 924.542 Q181.816 923.708 180.01 923.269 Q178.228 922.829 176.469 922.829 Q171.839 922.829 169.385 925.954 Q166.955 929.079 166.608 935.398 Q167.973 933.384 170.034 932.32 Q172.094 931.232 174.571 931.232 Q179.779 931.232 182.788 934.403 Q185.821 937.551 185.821 942.991 Q185.821 948.315 182.672 951.532 Q179.524 954.75 174.293 954.75 Q168.297 954.75 165.126 950.167 Q161.955 945.56 161.955 936.833 Q161.955 928.639 165.844 923.778 Q169.733 918.894 176.284 918.894 Q178.043 918.894 179.825 919.241 Q181.631 919.588 183.575 920.283 Z" fill="#000000" fill-rule="nonzero" fill-opacity="1" /><path clip-path="url(#clip310)" d="M129.548 699.972 Q125.937 699.972 124.108 703.536 Q122.302 707.078 122.302 714.208 Q122.302 721.314 124.108 724.879 Q125.937 728.421 129.548 728.421 Q133.182 728.421 134.987 724.879 Q136.816 721.314 136.816 714.208 Q136.816 707.078 134.987 703.536 Q133.182 699.972 129.548 699.972 M129.548 696.268 Q135.358 696.268 138.413 700.874 Q141.492 705.458 141.492 714.208 Q141.492 722.934 138.413 727.541 Q135.358 732.124 129.548 732.124 Q123.738 732.124 120.659 727.541 Q117.603 722.934 117.603 714.208 Q117.603 705.458 120.659 700.874 Q123.738 696.268 129.548 696.268 Z" fill="#000000" fill-rule="nonzero" fill-opacity="1" /><path clip-path="url(#clip310)" d="M149.71 725.573 L154.594 725.573 L154.594 731.453 L149.71 731.453 L149.71 725.573 Z" fill="#000000" fill-rule="nonzero" fill-opacity="1" /><path clip-path="url(#clip310)" d="M163.598 696.893 L185.821 696.893 L185.821 698.884 L173.274 731.453 L168.39 731.453 L180.196 700.828 L163.598 700.828 L163.598 696.893 Z" fill="#000000" fill-rule="nonzero" fill-opacity="1" /><path clip-path="url(#clip310)" d="M128.738 477.346 Q125.126 477.346 123.298 480.911 Q121.492 484.452 121.492 491.582 Q121.492 498.688 123.298 502.253 Q125.126 505.795 128.738 505.795 Q132.372 505.795 134.177 502.253 Q136.006 498.688 136.006 491.582 Q136.006 484.452 134.177 480.911 Q132.372 477.346 128.738 477.346 M128.738 473.642 Q134.548 473.642 137.603 478.249 Q140.682 482.832 140.682 491.582 Q140.682 500.309 137.603 504.915 Q134.548 509.498 128.738 509.498 Q122.927 509.498 119.849 504.915 Q116.793 500.309 116.793 491.582 Q116.793 482.832 119.849 478.249 Q122.927 473.642 128.738 473.642 Z" fill="#000000" fill-rule="nonzero" fill-opacity="1" /><path clip-path="url(#clip310)" d="M148.899 502.948 L153.784 502.948 L153.784 508.827 L148.899 508.827 L148.899 502.948 Z" fill="#000000" fill-rule="nonzero" fill-opacity="1" /><path clip-path="url(#clip310)" d="M173.969 492.415 Q170.635 492.415 168.714 494.198 Q166.816 495.98 166.816 499.105 Q166.816 502.23 168.714 504.012 Q170.635 505.795 173.969 505.795 Q177.302 505.795 179.223 504.012 Q181.145 502.207 181.145 499.105 Q181.145 495.98 179.223 494.198 Q177.325 492.415 173.969 492.415 M169.293 490.425 Q166.284 489.684 164.594 487.624 Q162.927 485.563 162.927 482.6 Q162.927 478.457 165.867 476.05 Q168.83 473.642 173.969 473.642 Q179.131 473.642 182.071 476.05 Q185.01 478.457 185.01 482.6 Q185.01 485.563 183.321 487.624 Q181.654 489.684 178.668 490.425 Q182.047 491.212 183.922 493.503 Q185.821 495.795 185.821 499.105 Q185.821 504.128 182.742 506.813 Q179.686 509.498 173.969 509.498 Q168.251 509.498 165.173 506.813 Q162.117 504.128 162.117 499.105 Q162.117 495.795 164.015 493.503 Q165.913 491.212 169.293 490.425 M167.58 483.04 Q167.58 485.725 169.247 487.23 Q170.936 488.735 173.969 488.735 Q176.978 488.735 178.668 487.23 Q180.381 485.725 180.381 483.04 Q180.381 480.355 178.668 478.85 Q176.978 477.346 173.969 477.346 Q170.936 477.346 169.247 478.85 Q167.58 480.355 167.58 483.04 Z" fill="#000000" fill-rule="nonzero" fill-opacity="1" /><path clip-path="url(#clip310)" d="M128.83 254.72 Q125.219 254.72 123.39 258.285 Q121.585 261.827 121.585 268.956 Q121.585 276.063 123.39 279.627 Q125.219 283.169 128.83 283.169 Q132.464 283.169 134.27 279.627 Q136.099 276.063 136.099 268.956 Q136.099 261.827 134.27 258.285 Q132.464 254.72 128.83 254.72 M128.83 251.016 Q134.64 251.016 137.696 255.623 Q140.774 260.206 140.774 268.956 Q140.774 277.683 137.696 282.289 Q134.64 286.873 128.83 286.873 Q123.02 286.873 119.941 282.289 Q116.886 277.683 116.886 268.956 Q116.886 260.206 119.941 255.623 Q123.02 251.016 128.83 251.016 Z" fill="#000000" fill-rule="nonzero" fill-opacity="1" /><path clip-path="url(#clip310)" d="M148.992 280.322 L153.876 280.322 L153.876 286.201 L148.992 286.201 L148.992 280.322 Z" fill="#000000" fill-rule="nonzero" fill-opacity="1" /><path clip-path="url(#clip310)" d="M164.2 285.484 L164.2 281.225 Q165.96 282.058 167.765 282.498 Q169.571 282.938 171.307 282.938 Q175.936 282.938 178.367 279.836 Q180.821 276.711 181.168 270.368 Q179.825 272.359 177.765 273.424 Q175.705 274.489 173.205 274.489 Q168.02 274.489 164.987 271.364 Q161.978 268.215 161.978 262.776 Q161.978 257.452 165.126 254.234 Q168.274 251.016 173.506 251.016 Q179.501 251.016 182.649 255.623 Q185.821 260.206 185.821 268.956 Q185.821 277.127 181.932 282.012 Q178.066 286.873 171.515 286.873 Q169.756 286.873 167.95 286.526 Q166.145 286.178 164.2 285.484 M173.506 270.831 Q176.654 270.831 178.483 268.678 Q180.334 266.526 180.334 262.776 Q180.334 259.049 178.483 256.896 Q176.654 254.72 173.506 254.72 Q170.358 254.72 168.506 256.896 Q166.677 259.049 166.677 262.776 Q166.677 266.526 168.506 268.678 Q170.358 270.831 173.506 270.831 Z" fill="#000000" fill-rule="nonzero" fill-opacity="1" /><path clip-path="url(#clip310)" d="M14.1184 1119.35 L14.1184 1112.44 L33.6612 1099.26 L14.1184 1086.18 L14.1184 1079.28 L39.0084 1096.08 L61.6384 1096.08 L61.6384 1102.54 L39.0084 1102.54 L14.1184 1119.35 Z" fill="#000000" fill-rule="nonzero" fill-opacity="1" /><path clip-path="url(#clip310)" d="M41.1727 1083.95 L41.1727 1066.8 L46.3926 1066.8 L46.3926 1083.95 L41.1727 1083.95 Z" fill="#000000" fill-rule="nonzero" fill-opacity="1" /><path clip-path="url(#clip310)" d="M43.719 1041.27 Q43.719 1048.37 45.3422 1051.11 Q46.9655 1053.84 50.8804 1053.84 Q53.9996 1053.84 55.8457 1051.81 Q57.6599 1049.74 57.6599 1046.21 Q57.6599 1041.34 54.2224 1038.41 Q50.7531 1035.45 45.0239 1035.45 L43.719 1035.45 L43.719 1041.27 M41.3 1029.59 L61.6384 1029.59 L61.6384 1035.45 L56.2276 1035.45 Q59.4741 1037.45 61.0337 1040.44 Q62.5615 1043.44 62.5615 1047.77 Q62.5615 1053.24 59.5059 1056.49 Q56.4186 1059.7 51.2623 1059.7 Q45.2467 1059.7 42.1912 1055.69 Q39.1357 1051.65 39.1357 1043.66 L39.1357 1035.45 L38.5628 1035.45 Q34.5205 1035.45 32.3244 1038.12 Q30.0964 1040.76 30.0964 1045.57 Q30.0964 1048.62 30.8284 1051.52 Q31.5605 1054.42 33.0246 1057.09 L27.6137 1057.09 Q26.3724 1053.88 25.7677 1050.85 Q25.1311 1047.83 25.1311 1044.96 Q25.1311 1037.23 29.1415 1033.41 Q33.1519 1029.59 41.3 1029.59 Z" fill="#000000" fill-rule="nonzero" fill-opacity="1" /><path clip-path="url(#clip310)" d="M25.9905 987.896 L43.337 1000.79 L61.6384 987.227 L61.6384 994.134 L47.6339 1004.51 L61.6384 1014.89 L61.6384 1021.79 L42.9869 1007.95 L25.9905 1020.62 L25.9905 1013.71 L38.6901 1004.26 L25.9905 994.803 L25.9905 987.896 Z" fill="#000000" fill-rule="nonzero" fill-opacity="1" /><path clip-path="url(#clip310)" d="M25.9905 978.952 L25.9905 973.096 L61.6384 973.096 L61.6384 978.952 L25.9905 978.952 M12.1132 978.952 L12.1132 973.096 L19.5293 973.096 L19.5293 978.952 L12.1132 978.952 Z" fill="#000000" fill-rule="nonzero" fill-opacity="1" /><path clip-path="url(#clip310)" d="M27.0408 938.116 L32.579 938.116 Q31.3059 940.599 30.6693 943.272 Q30.0327 945.946 30.0327 948.81 Q30.0327 953.171 31.3695 955.367 Q32.7063 957.531 35.3799 957.531 Q37.4169 957.531 38.5946 955.972 Q39.7404 954.412 40.7908 949.702 L41.2364 947.696 Q42.5732 941.458 45.0239 938.848 Q47.4429 936.206 51.8034 936.206 Q56.7687 936.206 59.6651 940.153 Q62.5615 944.068 62.5615 950.943 Q62.5615 953.807 61.9886 956.927 Q61.4475 960.014 60.3335 963.451 L54.2861 963.451 Q55.973 960.205 56.8323 957.054 Q57.6599 953.903 57.6599 950.816 Q57.6599 946.678 56.2594 944.45 Q54.8271 942.222 52.249 942.222 Q49.8619 942.222 48.5887 943.845 Q47.3156 945.437 46.1379 950.879 L45.6605 952.916 Q44.5147 958.359 42.1594 960.778 Q39.7722 963.197 35.6345 963.197 Q30.6056 963.197 27.8684 959.632 Q25.1311 956.067 25.1311 949.511 Q25.1311 946.264 25.6085 943.4 Q26.086 940.535 27.0408 938.116 Z" fill="#000000" fill-rule="nonzero" fill-opacity="1" /><path clip-path="url(#clip310)" d="M14.1184 905.906 L14.1184 899.476 L56.2276 899.476 L56.2276 876.337 L61.6384 876.337 L61.6384 905.906 L14.1184 905.906 Z" fill="#000000" fill-rule="nonzero" fill-opacity="1" /><path clip-path="url(#clip310)" d="M43.719 853.643 Q43.719 860.741 45.3422 863.478 Q46.9655 866.215 50.8804 866.215 Q53.9996 866.215 55.8457 864.178 Q57.6599 862.109 57.6599 858.576 Q57.6599 853.707 54.2224 850.778 Q50.7531 847.818 45.0239 847.818 L43.719 847.818 L43.719 853.643 M41.3 841.962 L61.6384 841.962 L61.6384 847.818 L56.2276 847.818 Q59.4741 849.824 61.0337 852.816 Q62.5615 855.807 62.5615 860.136 Q62.5615 865.611 59.5059 868.857 Q56.4186 872.072 51.2623 872.072 Q45.2467 872.072 42.1912 868.061 Q39.1357 864.019 39.1357 856.03 L39.1357 847.818 L38.5628 847.818 Q34.5205 847.818 32.3244 850.492 Q30.0964 853.134 30.0964 857.94 Q30.0964 860.995 30.8284 863.892 Q31.5605 866.788 33.0246 869.462 L27.6137 869.462 Q26.3724 866.247 25.7677 863.223 Q25.1311 860.2 25.1311 857.335 Q25.1311 849.601 29.1415 845.781 Q33.1519 841.962 41.3 841.962 Z" fill="#000000" fill-rule="nonzero" fill-opacity="1" /><path clip-path="url(#clip310)" d="M43.8463 804.309 Q37.3851 804.309 33.7248 806.982 Q30.0327 809.624 30.0327 814.271 Q30.0327 818.918 33.7248 821.592 Q37.3851 824.233 43.8463 824.233 Q50.3075 824.233 53.9996 821.592 Q57.6599 818.918 57.6599 814.271 Q57.6599 809.624 53.9996 806.982 Q50.3075 804.309 43.8463 804.309 M31.4013 824.233 Q28.2185 822.387 26.6907 819.587 Q25.1311 816.754 25.1311 812.839 Q25.1311 806.346 30.2873 802.304 Q35.4436 798.23 43.8463 798.23 Q52.249 798.23 57.4052 802.304 Q62.5615 806.346 62.5615 812.839 Q62.5615 816.754 61.0337 819.587 Q59.4741 822.387 56.2912 824.233 L61.6384 824.233 L61.6384 830.122 L12.1132 830.122 L12.1132 824.233 L31.4013 824.233 Z" fill="#000000" fill-rule="nonzero" fill-opacity="1" /><path clip-path="url(#clip310)" d="M42.3504 758.03 L45.2149 758.03 L45.2149 784.957 Q51.2623 784.575 54.4452 781.329 Q57.5962 778.05 57.5962 772.226 Q57.5962 768.852 56.7687 765.701 Q55.9411 762.518 54.2861 759.399 L59.8242 759.399 Q61.161 762.55 61.8612 765.86 Q62.5615 769.17 62.5615 772.576 Q62.5615 781.106 57.5962 786.103 Q52.631 791.068 44.1646 791.068 Q35.4117 791.068 30.2873 786.358 Q25.1311 781.615 25.1311 773.594 Q25.1311 766.401 29.7781 762.232 Q34.3932 758.03 42.3504 758.03 M40.6316 763.887 Q35.8255 763.95 32.9609 766.592 Q30.0964 769.202 30.0964 773.531 Q30.0964 778.432 32.8654 781.392 Q35.6345 784.321 40.6634 784.766 L40.6316 763.887 Z" fill="#000000" fill-rule="nonzero" fill-opacity="1" /><path clip-path="url(#clip310)" d="M12.1132 748.418 L12.1132 742.561 L61.6384 742.561 L61.6384 748.418 L12.1132 748.418 Z" fill="#000000" fill-rule="nonzero" fill-opacity="1" /><path clip-path="url(#clip310)" d="M1086.69 12.096 L1098.88 12.096 L1114.32 53.2532 L1129.83 12.096 L1142.03 12.096 L1142.03 72.576 L1134.05 72.576 L1134.05 19.4686 L1118.45 60.9499 L1110.23 60.9499 L1094.63 19.4686 L1094.63 72.576 L1086.69 72.576 L1086.69 12.096 Z" fill="#000000" fill-rule="nonzero" fill-opacity="1" /><path clip-path="url(#clip310)" d="M1176.82 76.7889 Q1173.66 84.8907 1170.67 87.3618 Q1167.67 89.8329 1162.65 89.8329 L1156.69 89.8329 L1156.69 83.5945 L1161.07 83.5945 Q1164.14 83.5945 1165.85 82.1361 Q1167.55 80.6778 1169.61 75.2496 L1170.95 71.8468 L1152.6 27.2059 L1160.5 27.2059 L1174.68 62.6918 L1188.85 27.2059 L1196.75 27.2059 L1176.82 76.7889 Z" fill="#000000" fill-rule="nonzero" fill-opacity="1" /><path clip-path="url(#clip310)" d="M1233.74 12.096 L1268.5 12.096 L1268.5 18.9825 L1241.92 18.9825 L1241.92 36.8065 L1265.9 36.8065 L1265.9 43.6931 L1241.92 43.6931 L1241.92 72.576 L1233.74 72.576 L1233.74 12.096 Z" fill="#000000" fill-rule="nonzero" fill-opacity="1" /><path clip-path="url(#clip310)" d="M1275.1 27.2059 L1282.55 27.2059 L1282.55 72.576 L1275.1 72.576 L1275.1 27.2059 M1275.1 9.54393 L1282.55 9.54393 L1282.55 18.9825 L1275.1 18.9825 L1275.1 9.54393 Z" fill="#000000" fill-rule="nonzero" fill-opacity="1" /><path clip-path="url(#clip310)" d="M1324.44 34.1734 Q1323.18 33.4443 1321.68 33.1202 Q1320.23 32.7556 1318.44 32.7556 Q1312.12 32.7556 1308.72 36.8875 Q1305.36 40.9789 1305.36 48.6757 L1305.36 72.576 L1297.86 72.576 L1297.86 27.2059 L1305.36 27.2059 L1305.36 34.2544 Q1307.71 30.1225 1311.48 28.1376 Q1315.24 26.1121 1320.63 26.1121 Q1321.4 26.1121 1322.33 26.2337 Q1323.26 26.3147 1324.4 26.5172 L1324.44 34.1734 Z" fill="#000000" fill-rule="nonzero" fill-opacity="1" /><path clip-path="url(#clip310)" d="M1361.18 28.5427 L1361.18 35.5912 Q1358.02 33.9709 1354.62 33.1607 Q1351.21 32.3505 1347.57 32.3505 Q1342.02 32.3505 1339.22 34.0519 Q1336.47 35.7533 1336.47 39.156 Q1336.47 41.7486 1338.45 43.2475 Q1340.44 44.7058 1346.43 46.0426 L1348.99 46.6097 Q1356.93 48.3111 1360.25 51.4303 Q1363.61 54.509 1363.61 60.0587 Q1363.61 66.3781 1358.59 70.0644 Q1353.6 73.7508 1344.85 73.7508 Q1341.21 73.7508 1337.24 73.0216 Q1333.31 72.3329 1328.93 70.9151 L1328.93 63.2184 Q1333.07 65.3654 1337.08 66.4591 Q1341.09 67.5124 1345.02 67.5124 Q1350.28 67.5124 1353.12 65.73 Q1355.95 63.9071 1355.95 60.6258 Q1355.95 57.5877 1353.89 55.9673 Q1351.86 54.3469 1344.94 52.8481 L1342.34 52.2405 Q1335.42 50.7821 1332.34 47.7845 Q1329.26 44.7463 1329.26 39.4801 Q1329.26 33.0797 1333.8 29.5959 Q1338.33 26.1121 1346.68 26.1121 Q1350.81 26.1121 1354.46 26.7198 Q1358.1 27.3274 1361.18 28.5427 Z" fill="#000000" fill-rule="nonzero" fill-opacity="1" /><path clip-path="url(#clip310)" d="M1382.85 14.324 L1382.85 27.2059 L1398.21 27.2059 L1398.21 32.9987 L1382.85 32.9987 L1382.85 57.6282 Q1382.85 63.1779 1384.35 64.7578 Q1385.89 66.3376 1390.55 66.3376 L1398.21 66.3376 L1398.21 72.576 L1390.55 72.576 Q1381.92 72.576 1378.64 69.3758 Q1375.36 66.1351 1375.36 57.6282 L1375.36 32.9987 L1369.89 32.9987 L1369.89 27.2059 L1375.36 27.2059 L1375.36 14.324 L1382.85 14.324 Z" fill="#000000" fill-rule="nonzero" fill-opacity="1" /><path clip-path="url(#clip310)" d="M1434.7 12.096 L1442.89 12.096 L1442.89 65.6895 L1472.34 65.6895 L1472.34 72.576 L1434.7 72.576 L1434.7 12.096 Z" fill="#000000" fill-rule="nonzero" fill-opacity="1" /><path clip-path="url(#clip310)" d="M1480.6 27.2059 L1488.05 27.2059 L1488.05 72.576 L1480.6 72.576 L1480.6 27.2059 M1480.6 9.54393 L1488.05 9.54393 L1488.05 18.9825 L1480.6 18.9825 L1480.6 9.54393 Z" fill="#000000" fill-rule="nonzero" fill-opacity="1" /><path clip-path="url(#clip310)" d="M1541.36 45.1919 L1541.36 72.576 L1533.91 72.576 L1533.91 45.4349 Q1533.91 38.994 1531.4 35.7938 Q1528.89 32.5936 1523.86 32.5936 Q1517.83 32.5936 1514.34 36.4419 Q1510.86 40.2903 1510.86 46.9338 L1510.86 72.576 L1503.37 72.576 L1503.37 27.2059 L1510.86 27.2059 L1510.86 34.2544 Q1513.53 30.163 1517.14 28.1376 Q1520.79 26.1121 1525.53 26.1121 Q1533.34 26.1121 1537.35 30.9732 Q1541.36 35.7938 1541.36 45.1919 Z" fill="#000000" fill-rule="nonzero" fill-opacity="1" /><path clip-path="url(#clip310)" d="M1595.04 48.0275 L1595.04 51.6733 L1560.77 51.6733 Q1561.25 59.3701 1565.39 63.421 Q1569.56 67.4314 1576.97 67.4314 Q1581.27 67.4314 1585.28 66.3781 Q1589.33 65.3249 1593.3 63.2184 L1593.3 70.267 Q1589.29 71.9684 1585.07 72.8596 Q1580.86 73.7508 1576.53 73.7508 Q1565.67 73.7508 1559.31 67.4314 Q1552.99 61.1119 1552.99 50.3365 Q1552.99 39.1965 1558.99 32.6746 Q1565.02 26.1121 1575.23 26.1121 Q1584.38 26.1121 1589.69 32.0264 Q1595.04 37.9003 1595.04 48.0275 M1587.59 45.84 Q1587.5 39.7232 1584.14 36.0774 Q1580.82 32.4315 1575.31 32.4315 Q1569.07 32.4315 1565.31 35.9558 Q1561.58 39.4801 1561.01 45.8805 L1587.59 45.84 Z" fill="#000000" fill-rule="nonzero" fill-opacity="1" /><path clip-path="url(#clip310)" d="M1642.15 18.8205 L1642.15 41.5461 L1652.44 41.5461 Q1658.15 41.5461 1661.27 38.5889 Q1664.39 35.6318 1664.39 30.163 Q1664.39 24.7348 1661.27 21.7777 Q1658.15 18.8205 1652.44 18.8205 L1642.15 18.8205 M1633.97 12.096 L1652.44 12.096 Q1662.61 12.096 1667.79 16.714 Q1673.02 21.2916 1673.02 30.163 Q1673.02 39.1155 1667.79 43.6931 Q1662.61 48.2706 1652.44 48.2706 L1642.15 48.2706 L1642.15 72.576 L1633.97 72.576 L1633.97 12.096 Z" fill="#000000" fill-rule="nonzero" fill-opacity="1" /><path clip-path="url(#clip310)" d="M1683.67 9.54393 L1691.13 9.54393 L1691.13 72.576 L1683.67 72.576 L1683.67 9.54393 Z" fill="#000000" fill-rule="nonzero" fill-opacity="1" /><path clip-path="url(#clip310)" d="M1724.3 32.4315 Q1718.31 32.4315 1714.82 37.1306 Q1711.34 41.7891 1711.34 49.9314 Q1711.34 58.0738 1714.78 62.7728 Q1718.27 67.4314 1724.3 67.4314 Q1730.26 67.4314 1733.74 62.7323 Q1737.23 58.0333 1737.23 49.9314 Q1737.23 41.8701 1733.74 37.1711 Q1730.26 32.4315 1724.3 32.4315 M1724.3 26.1121 Q1734.03 26.1121 1739.58 32.4315 Q1745.12 38.7509 1745.12 49.9314 Q1745.12 61.0714 1739.58 67.4314 Q1734.03 73.7508 1724.3 73.7508 Q1714.54 73.7508 1708.99 67.4314 Q1703.48 61.0714 1703.48 49.9314 Q1703.48 38.7509 1708.99 32.4315 Q1714.54 26.1121 1724.3 26.1121 Z" fill="#000000" fill-rule="nonzero" fill-opacity="1" /><path clip-path="url(#clip310)" d="M1764.85 14.324 L1764.85 27.2059 L1780.21 27.2059 L1780.21 32.9987 L1764.85 32.9987 L1764.85 57.6282 Q1764.85 63.1779 1766.35 64.7578 Q1767.89 66.3376 1772.55 66.3376 L1780.21 66.3376 L1780.21 72.576 L1772.55 72.576 Q1763.92 72.576 1760.64 69.3758 Q1757.36 66.1351 1757.36 57.6282 L1757.36 32.9987 L1751.89 32.9987 L1751.89 27.2059 L1757.36 27.2059 L1757.36 14.324 L1764.85 14.324 Z" fill="#000000" fill-rule="nonzero" fill-opacity="1" /><polyline clip-path="url(#clip312)" style="stroke:#009af9; stroke-linecap:round; stroke-linejoin:round; stroke-width:4; stroke-opacity:1; fill:none" points="294.479,1074.3 547.583,173.254 800.687,1189.51 1053.79,1620.46 1306.9,1418.81 1560,1502.56 1813.1,1402.84 2066.21,1688.65 2319.31,833.613 2572.42,681.653 "/>
</svg>
