<?xml version="1.0" encoding="utf-8"?>
<svg xmlns="http://www.w3.org/2000/svg" xmlns:xlink="http://www.w3.org/1999/xlink" width="672" height="480" viewBox="0 0 2688 1920">
<defs>
  <clipPath id="clip370">
    <rect x="0" y="0" width="2688" height="1920"/>
  </clipPath>
</defs>
<path clip-path="url(#clip370)" d="M0 1920 L2688 1920 L2688 -4.26326e-14 L0 -4.26326e-14  Z" fill="#ffffff" fill-rule="evenodd" fill-opacity="1"/>
<defs>
  <clipPath id="clip371">
    <rect x="537" y="0" width="1883" height="1883"/>
  </clipPath>
</defs>
<path clip-path="url(#clip370)" d="M226.141 1734.12 L2640.76 1734.12 L2640.76 127.792 L226.141 127.792  Z" fill="#ffffff" fill-rule="evenodd" fill-opacity="1"/>
<defs>
  <clipPath id="clip372">
    <rect x="226" y="127" width="2416" height="1607"/>
  </clipPath>
</defs>
<polyline clip-path="url(#clip372)" style="stroke:#000000; stroke-linecap:round; stroke-linejoin:round; stroke-width:2; stroke-opacity:0.1; fill:none" points="547.583,1734.12 547.583,127.792 "/>
<polyline clip-path="url(#clip372)" style="stroke:#000000; stroke-linecap:round; stroke-linejoin:round; stroke-width:2; stroke-opacity:0.1; fill:none" points="1053.79,1734.12 1053.79,127.792 "/>
<polyline clip-path="url(#clip372)" style="stroke:#000000; stroke-linecap:round; stroke-linejoin:round; stroke-width:2; stroke-opacity:0.1; fill:none" points="1560,1734.12 1560,127.792 "/>
<polyline clip-path="url(#clip372)" style="stroke:#000000; stroke-linecap:round; stroke-linejoin:round; stroke-width:2; stroke-opacity:0.1; fill:none" points="2066.21,1734.12 2066.21,127.792 "/>
<polyline clip-path="url(#clip372)" style="stroke:#000000; stroke-linecap:round; stroke-linejoin:round; stroke-width:2; stroke-opacity:0.1; fill:none" points="2572.42,1734.12 2572.42,127.792 "/>
<polyline clip-path="url(#clip372)" style="stroke:#000000; stroke-linecap:round; stroke-linejoin:round; stroke-width:2; stroke-opacity:0.1; fill:none" points="226.141,1660.51 2640.76,1660.51 "/>
<polyline clip-path="url(#clip372)" style="stroke:#000000; stroke-linecap:round; stroke-linejoin:round; stroke-width:2; stroke-opacity:0.1; fill:none" points="226.141,1276.88 2640.76,1276.88 "/>
<polyline clip-path="url(#clip372)" style="stroke:#000000; stroke-linecap:round; stroke-linejoin:round; stroke-width:2; stroke-opacity:0.1; fill:none" points="226.141,893.257 2640.76,893.257 "/>
<polyline clip-path="url(#clip372)" style="stroke:#000000; stroke-linecap:round; stroke-linejoin:round; stroke-width:2; stroke-opacity:0.1; fill:none" points="226.141,509.632 2640.76,509.632 "/>
<polyline clip-path="url(#clip370)" style="stroke:#000000; stroke-linecap:round; stroke-linejoin:round; stroke-width:4; stroke-opacity:1; fill:none" points="226.141,1734.12 2640.76,1734.12 "/>
<polyline clip-path="url(#clip370)" style="stroke:#000000; stroke-linecap:round; stroke-linejoin:round; stroke-width:4; stroke-opacity:1; fill:none" points="547.583,1734.12 547.583,1715.22 "/>
<polyline clip-path="url(#clip370)" style="stroke:#000000; stroke-linecap:round; stroke-linejoin:round; stroke-width:4; stroke-opacity:1; fill:none" points="1053.79,1734.12 1053.79,1715.22 "/>
<polyline clip-path="url(#clip370)" style="stroke:#000000; stroke-linecap:round; stroke-linejoin:round; stroke-width:4; stroke-opacity:1; fill:none" points="1560,1734.12 1560,1715.22 "/>
<polyline clip-path="url(#clip370)" style="stroke:#000000; stroke-linecap:round; stroke-linejoin:round; stroke-width:4; stroke-opacity:1; fill:none" points="2066.21,1734.12 2066.21,1715.22 "/>
<polyline clip-path="url(#clip370)" style="stroke:#000000; stroke-linecap:round; stroke-linejoin:round; stroke-width:4; stroke-opacity:1; fill:none" points="2572.42,1734.12 2572.42,1715.22 "/>
<path clip-path="url(#clip370)" d="M542.236 1794.89 L558.555 1794.89 L558.555 1798.82 L536.611 1798.82 L536.611 1794.89 Q539.273 1792.13 543.856 1787.5 Q548.463 1782.85 549.643 1781.51 Q551.889 1778.98 552.768 1777.25 Q553.671 1775.49 553.671 1773.8 Q553.671 1771.04 551.727 1769.31 Q549.805 1767.57 546.703 1767.57 Q544.504 1767.57 542.051 1768.34 Q539.62 1769.1 536.842 1770.65 L536.842 1765.93 Q539.666 1764.79 542.12 1764.21 Q544.574 1763.64 546.611 1763.64 Q551.981 1763.64 555.176 1766.32 Q558.37 1769.01 558.37 1773.5 Q558.37 1775.63 557.56 1777.55 Q556.773 1779.45 554.666 1782.04 Q554.088 1782.71 550.986 1785.93 Q547.884 1789.12 542.236 1794.89 Z" fill="#000000" fill-rule="nonzero" fill-opacity="1" /><path clip-path="url(#clip370)" d="M1056.8 1768.34 L1045 1786.78 L1056.8 1786.78 L1056.8 1768.34 M1055.57 1764.26 L1061.45 1764.26 L1061.45 1786.78 L1066.38 1786.78 L1066.38 1790.67 L1061.45 1790.67 L1061.45 1798.82 L1056.8 1798.82 L1056.8 1790.67 L1041.2 1790.67 L1041.2 1786.16 L1055.57 1764.26 Z" fill="#000000" fill-rule="nonzero" fill-opacity="1" /><path clip-path="url(#clip370)" d="M1560.41 1779.68 Q1557.26 1779.68 1555.41 1781.83 Q1553.58 1783.98 1553.58 1787.73 Q1553.58 1791.46 1555.41 1793.64 Q1557.26 1795.79 1560.41 1795.79 Q1563.55 1795.79 1565.38 1793.64 Q1567.23 1791.46 1567.23 1787.73 Q1567.23 1783.98 1565.38 1781.83 Q1563.55 1779.68 1560.41 1779.68 M1569.69 1765.02 L1569.69 1769.28 Q1567.93 1768.45 1566.12 1768.01 Q1564.34 1767.57 1562.58 1767.57 Q1557.95 1767.57 1555.5 1770.7 Q1553.07 1773.82 1552.72 1780.14 Q1554.09 1778.13 1556.15 1777.06 Q1558.21 1775.97 1560.68 1775.97 Q1565.89 1775.97 1568.9 1779.15 Q1571.93 1782.29 1571.93 1787.73 Q1571.93 1793.06 1568.79 1796.27 Q1565.64 1799.49 1560.41 1799.49 Q1554.41 1799.49 1551.24 1794.91 Q1548.07 1790.3 1548.07 1781.58 Q1548.07 1773.38 1551.96 1768.52 Q1555.85 1763.64 1562.4 1763.64 Q1564.16 1763.64 1565.94 1763.98 Q1567.74 1764.33 1569.69 1765.02 Z" fill="#000000" fill-rule="nonzero" fill-opacity="1" /><path clip-path="url(#clip370)" d="M2066.21 1782.41 Q2062.88 1782.41 2060.95 1784.19 Q2059.06 1785.97 2059.06 1789.1 Q2059.06 1792.22 2060.95 1794.01 Q2062.88 1795.79 2066.21 1795.79 Q2069.54 1795.79 2071.46 1794.01 Q2073.38 1792.2 2073.38 1789.1 Q2073.38 1785.97 2071.46 1784.19 Q2069.57 1782.41 2066.21 1782.41 M2061.53 1780.42 Q2058.52 1779.68 2056.83 1777.62 Q2055.17 1775.56 2055.17 1772.59 Q2055.17 1768.45 2058.11 1766.04 Q2061.07 1763.64 2066.21 1763.64 Q2071.37 1763.64 2074.31 1766.04 Q2077.25 1768.45 2077.25 1772.59 Q2077.25 1775.56 2075.56 1777.62 Q2073.89 1779.68 2070.91 1780.42 Q2074.29 1781.21 2076.16 1783.5 Q2078.06 1785.79 2078.06 1789.1 Q2078.06 1794.12 2074.98 1796.81 Q2071.93 1799.49 2066.21 1799.49 Q2060.49 1799.49 2057.41 1796.81 Q2054.36 1794.12 2054.36 1789.1 Q2054.36 1785.79 2056.26 1783.5 Q2058.15 1781.21 2061.53 1780.42 M2059.82 1773.03 Q2059.82 1775.72 2061.49 1777.22 Q2063.18 1778.73 2066.21 1778.73 Q2069.22 1778.73 2070.91 1777.22 Q2072.62 1775.72 2072.62 1773.03 Q2072.62 1770.35 2070.91 1768.84 Q2069.22 1767.34 2066.21 1767.34 Q2063.18 1767.34 2061.49 1768.84 Q2059.82 1770.35 2059.82 1773.03 Z" fill="#000000" fill-rule="nonzero" fill-opacity="1" /><path clip-path="url(#clip370)" d="M2547.11 1794.89 L2554.74 1794.89 L2554.74 1768.52 L2546.43 1770.19 L2546.43 1765.93 L2554.7 1764.26 L2559.37 1764.26 L2559.37 1794.89 L2567.01 1794.89 L2567.01 1798.82 L2547.11 1798.82 L2547.11 1794.89 Z" fill="#000000" fill-rule="nonzero" fill-opacity="1" /><path clip-path="url(#clip370)" d="M2586.46 1767.34 Q2582.85 1767.34 2581.02 1770.9 Q2579.21 1774.45 2579.21 1781.58 Q2579.21 1788.68 2581.02 1792.25 Q2582.85 1795.79 2586.46 1795.79 Q2590.09 1795.79 2591.9 1792.25 Q2593.73 1788.68 2593.73 1781.58 Q2593.73 1774.45 2591.9 1770.9 Q2590.09 1767.34 2586.46 1767.34 M2586.46 1763.64 Q2592.27 1763.64 2595.32 1768.24 Q2598.4 1772.83 2598.4 1781.58 Q2598.4 1790.3 2595.32 1794.91 Q2592.27 1799.49 2586.46 1799.49 Q2580.65 1799.49 2577.57 1794.91 Q2574.51 1790.3 2574.51 1781.58 Q2574.51 1772.83 2577.57 1768.24 Q2580.65 1763.64 2586.46 1763.64 Z" fill="#000000" fill-rule="nonzero" fill-opacity="1" /><path clip-path="url(#clip370)" d="M1340.41 1835.78 L1347.32 1835.78 L1359.13 1853.45 L1371 1835.78 L1377.91 1835.78 L1362.63 1858.6 L1378.93 1883.3 L1372.02 1883.3 L1358.65 1863.09 L1345.19 1883.3 L1338.25 1883.3 L1355.21 1857.93 L1340.41 1835.78 Z" fill="#000000" fill-rule="nonzero" fill-opacity="1" /><path clip-path="url(#clip370)" d="M1380.9 1862.84 L1398.05 1862.84 L1398.05 1868.06 L1380.9 1868.06 L1380.9 1862.84 Z" fill="#000000" fill-rule="nonzero" fill-opacity="1" /><path clip-path="url(#clip370)" d="M1423.58 1865.38 Q1416.48 1865.38 1413.75 1867 Q1411.01 1868.63 1411.01 1872.54 Q1411.01 1875.66 1413.05 1877.51 Q1415.11 1879.32 1418.65 1879.32 Q1423.52 1879.32 1426.45 1875.88 Q1429.41 1872.42 1429.41 1866.69 L1429.41 1865.38 L1423.58 1865.38 M1435.26 1862.96 L1435.26 1883.3 L1429.41 1883.3 L1429.41 1877.89 Q1427.4 1881.14 1424.41 1882.7 Q1421.42 1884.22 1417.09 1884.22 Q1411.61 1884.22 1408.37 1881.17 Q1405.15 1878.08 1405.15 1872.92 Q1405.15 1866.91 1409.16 1863.85 Q1413.21 1860.8 1421.19 1860.8 L1429.41 1860.8 L1429.41 1860.23 Q1429.41 1856.18 1426.73 1853.99 Q1424.09 1851.76 1419.28 1851.76 Q1416.23 1851.76 1413.33 1852.49 Q1410.44 1853.22 1407.76 1854.69 L1407.76 1849.28 Q1410.98 1848.03 1414 1847.43 Q1417.02 1846.79 1419.89 1846.79 Q1427.62 1846.79 1431.44 1850.8 Q1435.26 1854.81 1435.26 1862.96 Z" fill="#000000" fill-rule="nonzero" fill-opacity="1" /><path clip-path="url(#clip370)" d="M1476.96 1847.65 L1464.07 1865 L1477.63 1883.3 L1470.72 1883.3 L1460.34 1869.3 L1449.97 1883.3 L1443.06 1883.3 L1456.91 1864.65 L1444.24 1847.65 L1451.14 1847.65 L1460.6 1860.35 L1470.05 1847.65 L1476.96 1847.65 Z" fill="#000000" fill-rule="nonzero" fill-opacity="1" /><path clip-path="url(#clip370)" d="M1485.9 1847.65 L1491.76 1847.65 L1491.76 1883.3 L1485.9 1883.3 L1485.9 1847.65 M1485.9 1833.78 L1491.76 1833.78 L1491.76 1841.19 L1485.9 1841.19 L1485.9 1833.78 Z" fill="#000000" fill-rule="nonzero" fill-opacity="1" /><path clip-path="url(#clip370)" d="M1526.74 1848.7 L1526.74 1854.24 Q1524.26 1852.97 1521.58 1852.33 Q1518.91 1851.7 1516.04 1851.7 Q1511.68 1851.7 1509.49 1853.03 Q1507.32 1854.37 1507.32 1857.04 Q1507.32 1859.08 1508.88 1860.26 Q1510.44 1861.4 1515.15 1862.45 L1517.16 1862.9 Q1523.4 1864.24 1526.01 1866.69 Q1528.65 1869.11 1528.65 1873.47 Q1528.65 1878.43 1524.7 1881.33 Q1520.79 1884.22 1513.91 1884.22 Q1511.05 1884.22 1507.93 1883.65 Q1504.84 1883.11 1501.4 1882 L1501.4 1875.95 Q1504.65 1877.64 1507.8 1878.49 Q1510.95 1879.32 1514.04 1879.32 Q1518.18 1879.32 1520.4 1877.92 Q1522.63 1876.49 1522.63 1873.91 Q1522.63 1871.52 1521.01 1870.25 Q1519.42 1868.98 1513.97 1867.8 L1511.94 1867.32 Q1506.49 1866.18 1504.08 1863.82 Q1501.66 1861.43 1501.66 1857.3 Q1501.66 1852.27 1505.22 1849.53 Q1508.79 1846.79 1515.34 1846.79 Q1518.59 1846.79 1521.45 1847.27 Q1524.32 1847.75 1526.74 1848.7 Z" fill="#000000" fill-rule="nonzero" fill-opacity="1" /><polyline clip-path="url(#clip370)" style="stroke:#000000; stroke-linecap:round; stroke-linejoin:round; stroke-width:4; stroke-opacity:1; fill:none" points="226.141,1734.12 226.141,127.792 "/>
<polyline clip-path="url(#clip370)" style="stroke:#000000; stroke-linecap:round; stroke-linejoin:round; stroke-width:4; stroke-opacity:1; fill:none" points="226.141,1660.51 245.038,1660.51 "/>
<polyline clip-path="url(#clip370)" style="stroke:#000000; stroke-linecap:round; stroke-linejoin:round; stroke-width:4; stroke-opacity:1; fill:none" points="226.141,1276.88 245.038,1276.88 "/>
<polyline clip-path="url(#clip370)" style="stroke:#000000; stroke-linecap:round; stroke-linejoin:round; stroke-width:4; stroke-opacity:1; fill:none" points="226.141,893.257 245.038,893.257 "/>
<polyline clip-path="url(#clip370)" style="stroke:#000000; stroke-linecap:round; stroke-linejoin:round; stroke-width:4; stroke-opacity:1; fill:none" points="226.141,509.632 245.038,509.632 "/>
<path clip-path="url(#clip370)" d="M130.242 1646.31 Q126.631 1646.31 124.802 1649.87 Q122.997 1653.41 122.997 1660.54 Q122.997 1667.65 124.802 1671.21 Q126.631 1674.76 130.242 1674.76 Q133.876 1674.76 135.682 1671.21 Q137.511 1667.65 137.511 1660.54 Q137.511 1653.41 135.682 1649.87 Q133.876 1646.31 130.242 1646.31 M130.242 1642.6 Q136.052 1642.6 139.108 1647.21 Q142.187 1651.79 142.187 1660.54 Q142.187 1669.27 139.108 1673.88 Q136.052 1678.46 130.242 1678.46 Q124.432 1678.46 121.353 1673.88 Q118.298 1669.27 118.298 1660.54 Q118.298 1651.79 121.353 1647.21 Q124.432 1642.6 130.242 1642.6 Z" fill="#000000" fill-rule="nonzero" fill-opacity="1" /><path clip-path="url(#clip370)" d="M150.404 1671.91 L155.288 1671.91 L155.288 1677.79 L150.404 1677.79 L150.404 1671.91 Z" fill="#000000" fill-rule="nonzero" fill-opacity="1" /><path clip-path="url(#clip370)" d="M169.501 1673.85 L185.821 1673.85 L185.821 1677.79 L163.876 1677.79 L163.876 1673.85 Q166.538 1671.1 171.122 1666.47 Q175.728 1661.82 176.909 1660.47 Q179.154 1657.95 180.034 1656.21 Q180.936 1654.45 180.936 1652.76 Q180.936 1650.01 178.992 1648.27 Q177.071 1646.54 173.969 1646.54 Q171.77 1646.54 169.316 1647.3 Q166.885 1648.07 164.108 1649.62 L164.108 1644.89 Q166.932 1643.76 169.385 1643.18 Q171.839 1642.6 173.876 1642.6 Q179.247 1642.6 182.441 1645.29 Q185.635 1647.97 185.635 1652.46 Q185.635 1654.59 184.825 1656.51 Q184.038 1658.41 181.932 1661.01 Q181.353 1661.68 178.251 1664.89 Q175.149 1668.09 169.501 1673.85 Z" fill="#000000" fill-rule="nonzero" fill-opacity="1" /><path clip-path="url(#clip370)" d="M128.159 1262.68 Q124.548 1262.68 122.719 1266.25 Q120.913 1269.79 120.913 1276.92 Q120.913 1284.02 122.719 1287.59 Q124.548 1291.13 128.159 1291.13 Q131.793 1291.13 133.599 1287.59 Q135.427 1284.02 135.427 1276.92 Q135.427 1269.79 133.599 1266.25 Q131.793 1262.68 128.159 1262.68 M128.159 1258.98 Q133.969 1258.98 137.025 1263.58 Q140.103 1268.17 140.103 1276.92 Q140.103 1285.64 137.025 1290.25 Q133.969 1294.83 128.159 1294.83 Q122.349 1294.83 119.27 1290.25 Q116.214 1285.64 116.214 1276.92 Q116.214 1268.17 119.27 1263.58 Q122.349 1258.98 128.159 1258.98 Z" fill="#000000" fill-rule="nonzero" fill-opacity="1" /><path clip-path="url(#clip370)" d="M148.321 1288.28 L153.205 1288.28 L153.205 1294.16 L148.321 1294.16 L148.321 1288.28 Z" fill="#000000" fill-rule="nonzero" fill-opacity="1" /><path clip-path="url(#clip370)" d="M176.237 1263.68 L164.432 1282.13 L176.237 1282.13 L176.237 1263.68 M175.01 1259.6 L180.89 1259.6 L180.89 1282.13 L185.821 1282.13 L185.821 1286.01 L180.89 1286.01 L180.89 1294.16 L176.237 1294.16 L176.237 1286.01 L160.636 1286.01 L160.636 1281.5 L175.01 1259.6 Z" fill="#000000" fill-rule="nonzero" fill-opacity="1" /><path clip-path="url(#clip370)" d="M128.483 879.056 Q124.872 879.056 123.043 882.621 Q121.238 886.163 121.238 893.292 Q121.238 900.399 123.043 903.963 Q124.872 907.505 128.483 907.505 Q132.117 907.505 133.923 903.963 Q135.751 900.399 135.751 893.292 Q135.751 886.163 133.923 882.621 Q132.117 879.056 128.483 879.056 M128.483 875.352 Q134.293 875.352 137.349 879.959 Q140.427 884.542 140.427 893.292 Q140.427 902.019 137.349 906.625 Q134.293 911.209 128.483 911.209 Q122.673 911.209 119.594 906.625 Q116.539 902.019 116.539 893.292 Q116.539 884.542 119.594 879.959 Q122.673 875.352 128.483 875.352 Z" fill="#000000" fill-rule="nonzero" fill-opacity="1" /><path clip-path="url(#clip370)" d="M148.645 904.658 L153.529 904.658 L153.529 910.537 L148.645 910.537 L148.645 904.658 Z" fill="#000000" fill-rule="nonzero" fill-opacity="1" /><path clip-path="url(#clip370)" d="M174.293 891.394 Q171.145 891.394 169.293 893.547 Q167.464 895.7 167.464 899.45 Q167.464 903.176 169.293 905.352 Q171.145 907.505 174.293 907.505 Q177.441 907.505 179.27 905.352 Q181.122 903.176 181.122 899.45 Q181.122 895.7 179.27 893.547 Q177.441 891.394 174.293 891.394 M183.575 876.741 L183.575 881.001 Q181.816 880.167 180.01 879.727 Q178.228 879.288 176.469 879.288 Q171.839 879.288 169.385 882.413 Q166.955 885.538 166.608 891.857 Q167.973 889.843 170.034 888.778 Q172.094 887.69 174.571 887.69 Q179.779 887.69 182.788 890.862 Q185.821 894.01 185.821 899.45 Q185.821 904.774 182.672 907.991 Q179.524 911.209 174.293 911.209 Q168.297 911.209 165.126 906.625 Q161.955 902.019 161.955 893.292 Q161.955 885.098 165.844 880.237 Q169.733 875.352 176.284 875.352 Q178.043 875.352 179.825 875.7 Q181.631 876.047 183.575 876.741 Z" fill="#000000" fill-rule="nonzero" fill-opacity="1" /><path clip-path="url(#clip370)" d="M128.738 495.431 Q125.126 495.431 123.298 498.996 Q121.492 502.537 121.492 509.667 Q121.492 516.773 123.298 520.338 Q125.126 523.88 128.738 523.88 Q132.372 523.88 134.177 520.338 Q136.006 516.773 136.006 509.667 Q136.006 502.537 134.177 498.996 Q132.372 495.431 128.738 495.431 M128.738 491.727 Q134.548 491.727 137.603 496.334 Q140.682 500.917 140.682 509.667 Q140.682 518.394 137.603 523 Q134.548 527.584 128.738 527.584 Q122.927 527.584 119.849 523 Q116.793 518.394 116.793 509.667 Q116.793 500.917 119.849 496.334 Q122.927 491.727 128.738 491.727 Z" fill="#000000" fill-rule="nonzero" fill-opacity="1" /><path clip-path="url(#clip370)" d="M148.899 521.033 L153.784 521.033 L153.784 526.912 L148.899 526.912 L148.899 521.033 Z" fill="#000000" fill-rule="nonzero" fill-opacity="1" /><path clip-path="url(#clip370)" d="M173.969 510.5 Q170.635 510.5 168.714 512.283 Q166.816 514.065 166.816 517.19 Q166.816 520.315 168.714 522.098 Q170.635 523.88 173.969 523.88 Q177.302 523.88 179.223 522.098 Q181.145 520.292 181.145 517.19 Q181.145 514.065 179.223 512.283 Q177.325 510.5 173.969 510.5 M169.293 508.51 Q166.284 507.769 164.594 505.709 Q162.927 503.649 162.927 500.686 Q162.927 496.542 165.867 494.135 Q168.83 491.727 173.969 491.727 Q179.131 491.727 182.071 494.135 Q185.01 496.542 185.01 500.686 Q185.01 503.649 183.321 505.709 Q181.654 507.769 178.668 508.51 Q182.047 509.297 183.922 511.588 Q185.821 513.88 185.821 517.19 Q185.821 522.213 182.742 524.898 Q179.686 527.584 173.969 527.584 Q168.251 527.584 165.173 524.898 Q162.117 522.213 162.117 517.19 Q162.117 513.88 164.015 511.588 Q165.913 509.297 169.293 508.51 M167.58 501.125 Q167.58 503.811 169.247 505.315 Q170.936 506.82 173.969 506.82 Q176.978 506.82 178.668 505.315 Q180.381 503.811 180.381 501.125 Q180.381 498.44 178.668 496.936 Q176.978 495.431 173.969 495.431 Q170.936 495.431 169.247 496.936 Q167.58 498.44 167.58 501.125 Z" fill="#000000" fill-rule="nonzero" fill-opacity="1" /><path clip-path="url(#clip370)" d="M14.1184 1022.53 L14.1184 1015.62 L33.6612 1002.44 L14.1184 989.36 L14.1184 982.453 L39.0084 999.259 L61.6384 999.259 L61.6384 1005.72 L39.0084 1005.72 L14.1184 1022.53 Z" fill="#000000" fill-rule="nonzero" fill-opacity="1" /><path clip-path="url(#clip370)" d="M41.1727 987.132 L41.1727 969.976 L46.3926 969.976 L46.3926 987.132 L41.1727 987.132 Z" fill="#000000" fill-rule="nonzero" fill-opacity="1" /><path clip-path="url(#clip370)" d="M43.719 944.45 Q43.719 951.548 45.3422 954.285 Q46.9655 957.022 50.8804 957.022 Q53.9996 957.022 55.8457 954.985 Q57.6599 952.916 57.6599 949.383 Q57.6599 944.514 54.2224 941.585 Q50.7531 938.625 45.0239 938.625 L43.719 938.625 L43.719 944.45 M41.3 932.769 L61.6384 932.769 L61.6384 938.625 L56.2276 938.625 Q59.4741 940.63 61.0337 943.622 Q62.5615 946.614 62.5615 950.943 Q62.5615 956.417 59.5059 959.664 Q56.4186 962.879 51.2623 962.879 Q45.2467 962.879 42.1912 958.868 Q39.1357 954.826 39.1357 946.837 L39.1357 938.625 L38.5628 938.625 Q34.5205 938.625 32.3244 941.299 Q30.0964 943.941 30.0964 948.747 Q30.0964 951.802 30.8284 954.699 Q31.5605 957.595 33.0246 960.269 L27.6137 960.269 Q26.3724 957.054 25.7677 954.03 Q25.1311 951.007 25.1311 948.142 Q25.1311 940.408 29.1415 936.588 Q33.1519 932.769 41.3 932.769 Z" fill="#000000" fill-rule="nonzero" fill-opacity="1" /><path clip-path="url(#clip370)" d="M25.9905 891.073 L43.337 903.964 L61.6384 890.405 L61.6384 897.312 L47.6339 907.688 L61.6384 918.064 L61.6384 924.971 L42.9869 911.125 L25.9905 923.793 L25.9905 916.886 L38.6901 907.433 L25.9905 897.98 L25.9905 891.073 Z" fill="#000000" fill-rule="nonzero" fill-opacity="1" /><path clip-path="url(#clip370)" d="M25.9905 882.13 L25.9905 876.273 L61.6384 876.273 L61.6384 882.13 L25.9905 882.13 M12.1132 882.13 L12.1132 876.273 L19.5293 876.273 L19.5293 882.13 L12.1132 882.13 Z" fill="#000000" fill-rule="nonzero" fill-opacity="1" /><path clip-path="url(#clip370)" d="M27.0408 841.294 L32.579 841.294 Q31.3059 843.776 30.6693 846.45 Q30.0327 849.123 30.0327 851.988 Q30.0327 856.348 31.3695 858.545 Q32.7063 860.709 35.3799 860.709 Q37.4169 860.709 38.5946 859.149 Q39.7404 857.59 40.7908 852.879 L41.2364 850.874 Q42.5732 844.636 45.0239 842.026 Q47.4429 839.384 51.8034 839.384 Q56.7687 839.384 59.6651 843.331 Q62.5615 847.246 62.5615 854.12 Q62.5615 856.985 61.9886 860.104 Q61.4475 863.192 60.3335 866.629 L54.2861 866.629 Q55.973 863.383 56.8323 860.232 Q57.6599 857.081 57.6599 853.993 Q57.6599 849.855 56.2594 847.627 Q54.8271 845.399 52.249 845.399 Q49.8619 845.399 48.5887 847.023 Q47.3156 848.614 46.1379 854.057 L45.6605 856.094 Q44.5147 861.537 42.1594 863.955 Q39.7722 866.374 35.6345 866.374 Q30.6056 866.374 27.8684 862.81 Q25.1311 859.245 25.1311 852.688 Q25.1311 849.442 25.6085 846.577 Q26.086 843.713 27.0408 841.294 Z" fill="#000000" fill-rule="nonzero" fill-opacity="1" /><path clip-path="url(#clip370)" d="M1050.48 16.7545 L1050.48 25.383 Q1046.34 21.5346 1041.64 19.6307 Q1036.99 17.7268 1031.72 17.7268 Q1021.35 17.7268 1015.84 24.0867 Q1010.33 30.4061 1010.33 42.3968 Q1010.33 54.3469 1015.84 60.7069 Q1021.35 67.0263 1031.72 67.0263 Q1036.99 67.0263 1041.64 65.1223 Q1046.34 63.2184 1050.48 59.3701 L1050.48 67.9175 Q1046.18 70.8341 1041.36 72.2924 Q1036.58 73.7508 1031.23 73.7508 Q1017.5 73.7508 1009.6 65.3654 Q1001.7 56.9395 1001.7 42.3968 Q1001.7 27.8135 1009.6 19.4281 Q1017.5 11.0023 1031.23 11.0023 Q1036.66 11.0023 1041.44 12.4606 Q1046.26 13.8784 1050.48 16.7545 Z" fill="#000000" fill-rule="nonzero" fill-opacity="1" /><path clip-path="url(#clip370)" d="M1062.02 54.671 L1062.02 27.2059 L1069.47 27.2059 L1069.47 54.3874 Q1069.47 60.8284 1071.99 64.0691 Q1074.5 67.2693 1079.52 67.2693 Q1085.56 67.2693 1089.04 63.421 Q1092.56 59.5726 1092.56 52.9291 L1092.56 27.2059 L1100.02 27.2059 L1100.02 72.576 L1092.56 72.576 L1092.56 65.6084 Q1089.85 69.7404 1086.25 71.7658 Q1082.68 73.7508 1077.94 73.7508 Q1070.12 73.7508 1066.07 68.8897 Q1062.02 64.0286 1062.02 54.671 M1080.78 26.1121 L1080.78 26.1121 Z" fill="#000000" fill-rule="nonzero" fill-opacity="1" /><path clip-path="url(#clip370)" d="M1144.29 28.5427 L1144.29 35.5912 Q1141.13 33.9709 1137.73 33.1607 Q1134.33 32.3505 1130.68 32.3505 Q1125.13 32.3505 1122.34 34.0519 Q1119.58 35.7533 1119.58 39.156 Q1119.58 41.7486 1121.57 43.2475 Q1123.55 44.7058 1129.55 46.0426 L1132.1 46.6097 Q1140.04 48.3111 1143.36 51.4303 Q1146.73 54.509 1146.73 60.0587 Q1146.73 66.3781 1141.7 70.0644 Q1136.72 73.7508 1127.97 73.7508 Q1124.32 73.7508 1120.35 73.0216 Q1116.42 72.3329 1112.05 70.9151 L1112.05 63.2184 Q1116.18 65.3654 1120.19 66.4591 Q1124.2 67.5124 1128.13 67.5124 Q1133.4 67.5124 1136.23 65.73 Q1139.07 63.9071 1139.07 60.6258 Q1139.07 57.5877 1137 55.9673 Q1134.98 54.3469 1128.05 52.8481 L1125.46 52.2405 Q1118.53 50.7821 1115.45 47.7845 Q1112.37 44.7463 1112.37 39.4801 Q1112.37 33.0797 1116.91 29.5959 Q1121.45 26.1121 1129.79 26.1121 Q1133.92 26.1121 1137.57 26.7198 Q1141.22 27.3274 1144.29 28.5427 Z" fill="#000000" fill-rule="nonzero" fill-opacity="1" /><path clip-path="url(#clip370)" d="M1165.97 14.324 L1165.97 27.2059 L1181.32 27.2059 L1181.32 32.9987 L1165.97 32.9987 L1165.97 57.6282 Q1165.97 63.1779 1167.47 64.7578 Q1169.01 66.3376 1173.66 66.3376 L1181.32 66.3376 L1181.32 72.576 L1173.66 72.576 Q1165.04 72.576 1161.75 69.3758 Q1158.47 66.1351 1158.47 57.6282 L1158.47 32.9987 L1153 32.9987 L1153 27.2059 L1158.47 27.2059 L1158.47 14.324 L1165.97 14.324 Z" fill="#000000" fill-rule="nonzero" fill-opacity="1" /><path clip-path="url(#clip370)" d="M1208.7 32.4315 Q1202.71 32.4315 1199.22 37.1306 Q1195.74 41.7891 1195.74 49.9314 Q1195.74 58.0738 1199.18 62.7728 Q1202.67 67.4314 1208.7 67.4314 Q1214.66 67.4314 1218.14 62.7323 Q1221.63 58.0333 1221.63 49.9314 Q1221.63 41.8701 1218.14 37.1711 Q1214.66 32.4315 1208.7 32.4315 M1208.7 26.1121 Q1218.43 26.1121 1223.98 32.4315 Q1229.53 38.7509 1229.53 49.9314 Q1229.53 61.0714 1223.98 67.4314 Q1218.43 73.7508 1208.7 73.7508 Q1198.94 73.7508 1193.39 67.4314 Q1187.88 61.0714 1187.88 49.9314 Q1187.88 38.7509 1193.39 32.4315 Q1198.94 26.1121 1208.7 26.1121 Z" fill="#000000" fill-rule="nonzero" fill-opacity="1" /><path clip-path="url(#clip370)" d="M1277.2 35.9153 Q1280 30.8922 1283.89 28.5022 Q1287.78 26.1121 1293.04 26.1121 Q1300.13 26.1121 1303.98 31.0947 Q1307.83 36.0368 1307.83 45.1919 L1307.83 72.576 L1300.34 72.576 L1300.34 45.4349 Q1300.34 38.913 1298.03 35.7533 Q1295.72 32.5936 1290.98 32.5936 Q1285.19 32.5936 1281.82 36.4419 Q1278.46 40.2903 1278.46 46.9338 L1278.46 72.576 L1270.97 72.576 L1270.97 45.4349 Q1270.97 38.8725 1268.66 35.7533 Q1266.35 32.5936 1261.53 32.5936 Q1255.82 32.5936 1252.45 36.4824 Q1249.09 40.3308 1249.09 46.9338 L1249.09 72.576 L1241.6 72.576 L1241.6 27.2059 L1249.09 27.2059 L1249.09 34.2544 Q1251.64 30.082 1255.21 28.0971 Q1258.77 26.1121 1263.67 26.1121 Q1268.62 26.1121 1272.06 28.6237 Q1275.54 31.1352 1277.2 35.9153 Z" fill="#000000" fill-rule="nonzero" fill-opacity="1" /><path clip-path="url(#clip370)" d="M1322.7 27.2059 L1330.15 27.2059 L1330.15 72.576 L1322.7 72.576 L1322.7 27.2059 M1322.7 9.54393 L1330.15 9.54393 L1330.15 18.9825 L1322.7 18.9825 L1322.7 9.54393 Z" fill="#000000" fill-rule="nonzero" fill-opacity="1" /><path clip-path="url(#clip370)" d="M1342.51 27.2059 L1377.91 27.2059 L1377.91 34.0114 L1349.88 66.6212 L1377.91 66.6212 L1377.91 72.576 L1341.49 72.576 L1341.49 65.7705 L1369.52 33.1607 L1342.51 33.1607 L1342.51 27.2059 Z" fill="#000000" fill-rule="nonzero" fill-opacity="1" /><path clip-path="url(#clip370)" d="M1428.1 48.0275 L1428.1 51.6733 L1393.83 51.6733 Q1394.32 59.3701 1398.45 63.421 Q1402.62 67.4314 1410.03 67.4314 Q1414.33 67.4314 1418.34 66.3781 Q1422.39 65.3249 1426.36 63.2184 L1426.36 70.267 Q1422.35 71.9684 1418.14 72.8596 Q1413.92 73.7508 1409.59 73.7508 Q1398.73 73.7508 1392.37 67.4314 Q1386.05 61.1119 1386.05 50.3365 Q1386.05 39.1965 1392.05 32.6746 Q1398.08 26.1121 1408.29 26.1121 Q1417.45 26.1121 1422.75 32.0264 Q1428.1 37.9003 1428.1 48.0275 M1420.65 45.84 Q1420.57 39.7232 1417.2 36.0774 Q1413.88 32.4315 1408.37 32.4315 Q1402.13 32.4315 1398.37 35.9558 Q1394.64 39.4801 1394.07 45.8805 L1420.65 45.84 Z" fill="#000000" fill-rule="nonzero" fill-opacity="1" /><path clip-path="url(#clip370)" d="M1470.19 34.0924 L1470.19 9.54393 L1477.64 9.54393 L1477.64 72.576 L1470.19 72.576 L1470.19 65.7705 Q1467.84 69.8214 1464.24 71.8063 Q1460.67 73.7508 1455.65 73.7508 Q1447.42 73.7508 1442.24 67.1883 Q1437.09 60.6258 1437.09 49.9314 Q1437.09 39.2371 1442.24 32.6746 Q1447.42 26.1121 1455.65 26.1121 Q1460.67 26.1121 1464.24 28.0971 Q1467.84 30.0415 1470.19 34.0924 M1444.79 49.9314 Q1444.79 58.1548 1448.15 62.8538 Q1451.56 67.5124 1457.47 67.5124 Q1463.38 67.5124 1466.79 62.8538 Q1470.19 58.1548 1470.19 49.9314 Q1470.19 41.7081 1466.79 37.0496 Q1463.38 32.3505 1457.47 32.3505 Q1451.56 32.3505 1448.15 37.0496 Q1444.79 41.7081 1444.79 49.9314 Z" fill="#000000" fill-rule="nonzero" fill-opacity="1" /><path clip-path="url(#clip370)" d="M1519.69 12.096 L1527.87 12.096 L1527.87 65.6895 L1557.32 65.6895 L1557.32 72.576 L1519.69 72.576 L1519.69 12.096 Z" fill="#000000" fill-rule="nonzero" fill-opacity="1" /><path clip-path="url(#clip370)" d="M1565.59 27.2059 L1573.04 27.2059 L1573.04 72.576 L1565.59 72.576 L1565.59 27.2059 M1565.59 9.54393 L1573.04 9.54393 L1573.04 18.9825 L1565.59 18.9825 L1565.59 9.54393 Z" fill="#000000" fill-rule="nonzero" fill-opacity="1" /><path clip-path="url(#clip370)" d="M1626.35 45.1919 L1626.35 72.576 L1618.9 72.576 L1618.9 45.4349 Q1618.9 38.994 1616.39 35.7938 Q1613.88 32.5936 1608.85 32.5936 Q1602.82 32.5936 1599.33 36.4419 Q1595.85 40.2903 1595.85 46.9338 L1595.85 72.576 L1588.35 72.576 L1588.35 27.2059 L1595.85 27.2059 L1595.85 34.2544 Q1598.52 30.163 1602.13 28.1376 Q1605.77 26.1121 1610.51 26.1121 Q1618.33 26.1121 1622.34 30.9732 Q1626.35 35.7938 1626.35 45.1919 Z" fill="#000000" fill-rule="nonzero" fill-opacity="1" /><path clip-path="url(#clip370)" d="M1680.03 48.0275 L1680.03 51.6733 L1645.76 51.6733 Q1646.24 59.3701 1650.37 63.421 Q1654.55 67.4314 1661.96 67.4314 Q1666.25 67.4314 1670.26 66.3781 Q1674.31 65.3249 1678.28 63.2184 L1678.28 70.267 Q1674.27 71.9684 1670.06 72.8596 Q1665.85 73.7508 1661.51 73.7508 Q1650.66 73.7508 1644.3 67.4314 Q1637.98 61.1119 1637.98 50.3365 Q1637.98 39.1965 1643.97 32.6746 Q1650.01 26.1121 1660.22 26.1121 Q1669.37 26.1121 1674.68 32.0264 Q1680.03 37.9003 1680.03 48.0275 M1672.57 45.84 Q1672.49 39.7232 1669.13 36.0774 Q1665.81 32.4315 1660.3 32.4315 Q1654.06 32.4315 1650.29 35.9558 Q1646.57 39.4801 1646 45.8805 L1672.57 45.84 Z" fill="#000000" fill-rule="nonzero" fill-opacity="1" /><path clip-path="url(#clip370)" d="M1727.14 18.8205 L1727.14 41.5461 L1737.43 41.5461 Q1743.14 41.5461 1746.26 38.5889 Q1749.38 35.6318 1749.38 30.163 Q1749.38 24.7348 1746.26 21.7777 Q1743.14 18.8205 1737.43 18.8205 L1727.14 18.8205 M1718.96 12.096 L1737.43 12.096 Q1747.6 12.096 1752.78 16.714 Q1758.01 21.2916 1758.01 30.163 Q1758.01 39.1155 1752.78 43.6931 Q1747.6 48.2706 1737.43 48.2706 L1727.14 48.2706 L1727.14 72.576 L1718.96 72.576 L1718.96 12.096 Z" fill="#000000" fill-rule="nonzero" fill-opacity="1" /><path clip-path="url(#clip370)" d="M1768.66 9.54393 L1776.11 9.54393 L1776.11 72.576 L1768.66 72.576 L1768.66 9.54393 Z" fill="#000000" fill-rule="nonzero" fill-opacity="1" /><path clip-path="url(#clip370)" d="M1809.29 32.4315 Q1803.3 32.4315 1799.81 37.1306 Q1796.33 41.7891 1796.33 49.9314 Q1796.33 58.0738 1799.77 62.7728 Q1803.26 67.4314 1809.29 67.4314 Q1815.25 67.4314 1818.73 62.7323 Q1822.21 58.0333 1822.21 49.9314 Q1822.21 41.8701 1818.73 37.1711 Q1815.25 32.4315 1809.29 32.4315 M1809.29 26.1121 Q1819.01 26.1121 1824.56 32.4315 Q1830.11 38.7509 1830.11 49.9314 Q1830.11 61.0714 1824.56 67.4314 Q1819.01 73.7508 1809.29 73.7508 Q1799.53 73.7508 1793.98 67.4314 Q1788.47 61.0714 1788.47 49.9314 Q1788.47 38.7509 1793.98 32.4315 Q1799.53 26.1121 1809.29 26.1121 Z" fill="#000000" fill-rule="nonzero" fill-opacity="1" /><path clip-path="url(#clip370)" d="M1849.84 14.324 L1849.84 27.2059 L1865.19 27.2059 L1865.19 32.9987 L1849.84 32.9987 L1849.84 57.6282 Q1849.84 63.1779 1851.34 64.7578 Q1852.88 66.3376 1857.54 66.3376 L1865.19 66.3376 L1865.19 72.576 L1857.54 72.576 Q1848.91 72.576 1845.63 69.3758 Q1842.35 66.1351 1842.35 57.6282 L1842.35 32.9987 L1836.88 32.9987 L1836.88 27.2059 L1842.35 27.2059 L1842.35 14.324 L1849.84 14.324 Z" fill="#000000" fill-rule="nonzero" fill-opacity="1" /><polyline clip-path="url(#clip372)" style="stroke:#ff0000; stroke-linecap:round; stroke-linejoin:round; stroke-width:8; stroke-opacity:1; fill:none" stroke-dasharray="32, 20" points="294.479,870.515 547.583,714.348 800.687,232.778 1053.79,1688.65 1306.9,1671.84 1560,320.538 1813.1,1308.5 2066.21,173.254 2319.31,1374.19 2572.42,1528.21 "/>
<circle clip-path="url(#clip372)" cx="294.479" cy="870.515" r="28.8" fill="#ff0000" fill-rule="evenodd" fill-opacity="1" stroke="#000000" stroke-opacity="1" stroke-width="3.84"/>
<circle clip-path="url(#clip372)" cx="547.583" cy="714.348" r="28.8" fill="#ff0000" fill-rule="evenodd" fill-opacity="1" stroke="#000000" stroke-opacity="1" stroke-width="3.84"/>
<circle clip-path="url(#clip372)" cx="800.687" cy="232.778" r="28.8" fill="#ff0000" fill-rule="evenodd" fill-opacity="1" stroke="#000000" stroke-opacity="1" stroke-width="3.84"/>
<circle clip-path="url(#clip372)" cx="1053.79" cy="1688.65" r="28.8" fill="#ff0000" fill-rule="evenodd" fill-opacity="1" stroke="#000000" stroke-opacity="1" stroke-width="3.84"/>
<circle clip-path="url(#clip372)" cx="1306.9" cy="1671.84" r="28.8" fill="#ff0000" fill-rule="evenodd" fill-opacity="1" stroke="#000000" stroke-opacity="1" stroke-width="3.84"/>
<circle clip-path="url(#clip372)" cx="1560" cy="320.538" r="28.8" fill="#ff0000" fill-rule="evenodd" fill-opacity="1" stroke="#000000" stroke-opacity="1" stroke-width="3.84"/>
<circle clip-path="url(#clip372)" cx="1813.1" cy="1308.5" r="28.8" fill="#ff0000" fill-rule="evenodd" fill-opacity="1" stroke="#000000" stroke-opacity="1" stroke-width="3.84"/>
<circle clip-path="url(#clip372)" cx="2066.21" cy="173.254" r="28.8" fill="#ff0000" fill-rule="evenodd" fill-opacity="1" stroke="#000000" stroke-opacity="1" stroke-width="3.84"/>
<circle clip-path="url(#clip372)" cx="2319.31" cy="1374.19" r="28.8" fill="#ff0000" fill-rule="evenodd" fill-opacity="1" stroke="#000000" stroke-opacity="1" stroke-width="3.84"/>
<circle clip-path="url(#clip372)" cx="2572.42" cy="1528.21" r="28.8" fill="#ff0000" fill-rule="evenodd" fill-opacity="1" stroke="#000000" stroke-opacity="1" stroke-width="3.84"/>
<path clip-path="url(#clip370)" d="M306.628 1680.57 L600.52 1680.57 L600.52 1576.89 L306.628 1576.89  Z" fill="#ffffff" fill-rule="evenodd" fill-opacity="1"/>
<polyline clip-path="url(#clip370)" style="stroke:#000000; stroke-linecap:round; stroke-linejoin:round; stroke-width:4; stroke-opacity:1; fill:none" points="306.628,1680.57 600.52,1680.57 600.52,1576.89 306.628,1576.89 306.628,1680.57 "/>
<polyline clip-path="url(#clip370)" style="stroke:#ff0000; stroke-linecap:round; stroke-linejoin:round; stroke-width:8; stroke-opacity:1; fill:none" stroke-dasharray="32, 20" points="333.457,1628.73 494.431,1628.73 "/>
<circle clip-path="url(#clip370)" cx="413.944" cy="1628.73" r="21.6847" fill="#ff0000" fill-rule="evenodd" fill-opacity="1" stroke="#000000" stroke-opacity="1" stroke-width="2.89129"/>
<path clip-path="url(#clip370)" d="M535.103 1648.42 Q533.297 1653.05 531.584 1654.46 Q529.871 1655.87 527.001 1655.87 L523.598 1655.87 L523.598 1652.31 L526.098 1652.31 Q527.857 1652.31 528.83 1651.48 Q529.802 1650.64 530.982 1647.54 L531.746 1645.6 L521.26 1620.09 L525.774 1620.09 L533.876 1640.36 L541.978 1620.09 L546.492 1620.09 L535.103 1648.42 Z" fill="#000000" fill-rule="nonzero" fill-opacity="1" /><path clip-path="url(#clip370)" d="M553.783 1642.08 L561.422 1642.08 L561.422 1615.71 L553.112 1617.38 L553.112 1613.12 L561.376 1611.45 L566.052 1611.45 L566.052 1642.08 L573.69 1642.08 L573.69 1646.01 L553.783 1646.01 L553.783 1642.08 Z" fill="#000000" fill-rule="nonzero" fill-opacity="1" /></svg>
