<?xml version="1.0" encoding="utf-8"?>
<svg xmlns="http://www.w3.org/2000/svg" xmlns:xlink="http://www.w3.org/1999/xlink" width="672" height="480" viewBox="0 0 2688 1920">
<defs>
  <clipPath id="clip380">
    <rect x="0" y="0" width="2688" height="1920"/>
  </clipPath>
</defs>
<path clip-path="url(#clip380)" d="M0 1920 L2688 1920 L2688 -4.26326e-14 L0 -4.26326e-14  Z" fill="#ffffff" fill-rule="evenodd" fill-opacity="1"/>
<defs>
  <clipPath id="clip381">
    <rect x="537" y="0" width="1883" height="1883"/>
  </clipPath>
</defs>
<path clip-path="url(#clip380)" d="M149.988 1800.78 L2640.76 1800.78 L2640.76 127.792 L149.988 127.792  Z" fill="#ffffff" fill-rule="evenodd" fill-opacity="1"/>
<defs>
  <clipPath id="clip382">
    <rect x="149" y="127" width="2492" height="1674"/>
  </clipPath>
</defs>
<polyline clip-path="url(#clip382)" style="stroke:#000000; stroke-linecap:round; stroke-linejoin:round; stroke-width:2; stroke-opacity:0.1; fill:none" points="467.826,1800.78 467.826,127.792 "/>
<polyline clip-path="url(#clip382)" style="stroke:#000000; stroke-linecap:round; stroke-linejoin:round; stroke-width:2; stroke-opacity:0.1; fill:none" points="1086.19,1800.78 1086.19,127.792 "/>
<polyline clip-path="url(#clip382)" style="stroke:#000000; stroke-linecap:round; stroke-linejoin:round; stroke-width:2; stroke-opacity:0.1; fill:none" points="1704.55,1800.78 1704.55,127.792 "/>
<polyline clip-path="url(#clip382)" style="stroke:#000000; stroke-linecap:round; stroke-linejoin:round; stroke-width:2; stroke-opacity:0.1; fill:none" points="2322.92,1800.78 2322.92,127.792 "/>
<polyline clip-path="url(#clip382)" style="stroke:#000000; stroke-linecap:round; stroke-linejoin:round; stroke-width:2; stroke-opacity:0.1; fill:none" points="149.988,1769.2 2640.76,1769.2 "/>
<polyline clip-path="url(#clip382)" style="stroke:#000000; stroke-linecap:round; stroke-linejoin:round; stroke-width:2; stroke-opacity:0.1; fill:none" points="149.988,1373.77 2640.76,1373.77 "/>
<polyline clip-path="url(#clip382)" style="stroke:#000000; stroke-linecap:round; stroke-linejoin:round; stroke-width:2; stroke-opacity:0.1; fill:none" points="149.988,978.347 2640.76,978.347 "/>
<polyline clip-path="url(#clip382)" style="stroke:#000000; stroke-linecap:round; stroke-linejoin:round; stroke-width:2; stroke-opacity:0.1; fill:none" points="149.988,582.919 2640.76,582.919 "/>
<polyline clip-path="url(#clip382)" style="stroke:#000000; stroke-linecap:round; stroke-linejoin:round; stroke-width:2; stroke-opacity:0.1; fill:none" points="149.988,187.492 2640.76,187.492 "/>
<polyline clip-path="url(#clip380)" style="stroke:#000000; stroke-linecap:round; stroke-linejoin:round; stroke-width:4; stroke-opacity:1; fill:none" points="149.988,1800.78 2640.76,1800.78 "/>
<polyline clip-path="url(#clip380)" style="stroke:#000000; stroke-linecap:round; stroke-linejoin:round; stroke-width:4; stroke-opacity:1; fill:none" points="467.826,1800.78 467.826,1781.88 "/>
<polyline clip-path="url(#clip380)" style="stroke:#000000; stroke-linecap:round; stroke-linejoin:round; stroke-width:4; stroke-opacity:1; fill:none" points="1086.19,1800.78 1086.19,1781.88 "/>
<polyline clip-path="url(#clip380)" style="stroke:#000000; stroke-linecap:round; stroke-linejoin:round; stroke-width:4; stroke-opacity:1; fill:none" points="1704.55,1800.78 1704.55,1781.88 "/>
<polyline clip-path="url(#clip380)" style="stroke:#000000; stroke-linecap:round; stroke-linejoin:round; stroke-width:4; stroke-opacity:1; fill:none" points="2322.92,1800.78 2322.92,1781.88 "/>
<path clip-path="url(#clip380)" d="M458.208 1861.55 L465.847 1861.55 L465.847 1835.18 L457.537 1836.85 L457.537 1832.59 L465.801 1830.92 L470.477 1830.92 L470.477 1861.55 L478.116 1861.55 L478.116 1865.48 L458.208 1865.48 L458.208 1861.55 Z" fill="#000000" fill-rule="nonzero" fill-opacity="1" /><path clip-path="url(#clip380)" d="M1080.84 1861.55 L1097.16 1861.55 L1097.16 1865.48 L1075.22 1865.48 L1075.22 1861.55 Q1077.88 1858.79 1082.46 1854.16 Q1087.07 1849.51 1088.25 1848.17 Q1090.5 1845.65 1091.38 1843.91 Q1092.28 1842.15 1092.28 1840.46 Q1092.28 1837.71 1090.33 1835.97 Q1088.41 1834.23 1085.31 1834.23 Q1083.11 1834.23 1080.66 1835 Q1078.23 1835.76 1075.45 1837.31 L1075.45 1832.59 Q1078.27 1831.46 1080.73 1830.88 Q1083.18 1830.3 1085.22 1830.3 Q1090.59 1830.3 1093.78 1832.98 Q1096.98 1835.67 1096.98 1840.16 Q1096.98 1842.29 1096.17 1844.21 Q1095.38 1846.11 1093.27 1848.7 Q1092.69 1849.37 1089.59 1852.59 Q1086.49 1855.78 1080.84 1861.55 Z" fill="#000000" fill-rule="nonzero" fill-opacity="1" /><path clip-path="url(#clip380)" d="M1708.8 1846.85 Q1712.16 1847.57 1714.03 1849.84 Q1715.93 1852.1 1715.93 1855.44 Q1715.93 1860.55 1712.41 1863.35 Q1708.89 1866.15 1702.41 1866.15 Q1700.24 1866.15 1697.92 1865.71 Q1695.63 1865.3 1693.18 1864.44 L1693.18 1859.93 Q1695.12 1861.06 1697.44 1861.64 Q1699.75 1862.22 1702.27 1862.22 Q1706.67 1862.22 1708.96 1860.48 Q1711.28 1858.75 1711.28 1855.44 Q1711.28 1852.38 1709.13 1850.67 Q1707 1848.93 1703.18 1848.93 L1699.15 1848.93 L1699.15 1845.09 L1703.36 1845.09 Q1706.81 1845.09 1708.64 1843.72 Q1710.47 1842.34 1710.47 1839.74 Q1710.47 1837.08 1708.57 1835.67 Q1706.69 1834.23 1703.18 1834.23 Q1701.25 1834.23 1699.06 1834.65 Q1696.86 1835.07 1694.22 1835.95 L1694.22 1831.78 Q1696.88 1831.04 1699.19 1830.67 Q1701.53 1830.3 1703.59 1830.3 Q1708.92 1830.3 1712.02 1832.73 Q1715.12 1835.14 1715.12 1839.26 Q1715.12 1842.13 1713.48 1844.12 Q1711.83 1846.09 1708.8 1846.85 Z" fill="#000000" fill-rule="nonzero" fill-opacity="1" /><path clip-path="url(#clip380)" d="M2325.93 1835 L2314.12 1853.45 L2325.93 1853.45 L2325.93 1835 M2324.7 1830.92 L2330.58 1830.92 L2330.58 1853.45 L2335.51 1853.45 L2335.51 1857.34 L2330.58 1857.34 L2330.58 1865.48 L2325.93 1865.48 L2325.93 1857.34 L2310.32 1857.34 L2310.32 1852.82 L2324.7 1830.92 Z" fill="#000000" fill-rule="nonzero" fill-opacity="1" /><polyline clip-path="url(#clip380)" style="stroke:#000000; stroke-linecap:round; stroke-linejoin:round; stroke-width:4; stroke-opacity:1; fill:none" points="149.988,1800.78 149.988,127.792 "/>
<polyline clip-path="url(#clip380)" style="stroke:#000000; stroke-linecap:round; stroke-linejoin:round; stroke-width:4; stroke-opacity:1; fill:none" points="149.988,1769.2 168.885,1769.2 "/>
<polyline clip-path="url(#clip380)" style="stroke:#000000; stroke-linecap:round; stroke-linejoin:round; stroke-width:4; stroke-opacity:1; fill:none" points="149.988,1373.77 168.885,1373.77 "/>
<polyline clip-path="url(#clip380)" style="stroke:#000000; stroke-linecap:round; stroke-linejoin:round; stroke-width:4; stroke-opacity:1; fill:none" points="149.988,978.347 168.885,978.347 "/>
<polyline clip-path="url(#clip380)" style="stroke:#000000; stroke-linecap:round; stroke-linejoin:round; stroke-width:4; stroke-opacity:1; fill:none" points="149.988,582.919 168.885,582.919 "/>
<polyline clip-path="url(#clip380)" style="stroke:#000000; stroke-linecap:round; stroke-linejoin:round; stroke-width:4; stroke-opacity:1; fill:none" points="149.988,187.492 168.885,187.492 "/>
<path clip-path="url(#clip380)" d="M49.5521 1769.65 L79.2279 1769.65 L79.2279 1773.59 L49.5521 1773.59 L49.5521 1769.65 Z" fill="#000000" fill-rule="nonzero" fill-opacity="1" /><path clip-path="url(#clip380)" d="M93.3482 1782.55 L109.668 1782.55 L109.668 1786.48 L87.7232 1786.48 L87.7232 1782.55 Q90.3852 1779.79 94.9685 1775.16 Q99.575 1770.51 100.756 1769.17 Q103.001 1766.64 103.881 1764.91 Q104.783 1763.15 104.783 1761.46 Q104.783 1758.7 102.839 1756.97 Q100.918 1755.23 97.8158 1755.23 Q95.6167 1755.23 93.163 1756 Q90.7325 1756.76 87.9547 1758.31 L87.9547 1753.59 Q90.7788 1752.45 93.2324 1751.87 Q95.6861 1751.3 97.7232 1751.3 Q103.094 1751.3 106.288 1753.98 Q109.482 1756.67 109.482 1761.16 Q109.482 1763.29 108.672 1765.21 Q107.885 1767.11 105.779 1769.7 Q105.2 1770.37 102.098 1773.59 Q98.9963 1776.78 93.3482 1782.55 Z" fill="#000000" fill-rule="nonzero" fill-opacity="1" /><path clip-path="url(#clip380)" d="M97.7232 1359.57 Q94.1121 1359.57 92.2834 1363.14 Q90.4778 1366.68 90.4778 1373.81 Q90.4778 1380.92 92.2834 1384.48 Q94.1121 1388.02 97.7232 1388.02 Q101.357 1388.02 103.163 1384.48 Q104.992 1380.92 104.992 1373.81 Q104.992 1366.68 103.163 1363.14 Q101.357 1359.57 97.7232 1359.57 M97.7232 1355.87 Q103.533 1355.87 106.589 1360.48 Q109.668 1365.06 109.668 1373.81 Q109.668 1382.54 106.589 1387.14 Q103.533 1391.73 97.7232 1391.73 Q91.913 1391.73 88.8343 1387.14 Q85.7788 1382.54 85.7788 1373.81 Q85.7788 1365.06 88.8343 1360.48 Q91.913 1355.87 97.7232 1355.87 Z" fill="#000000" fill-rule="nonzero" fill-opacity="1" /><path clip-path="url(#clip380)" d="M93.3482 991.692 L109.668 991.692 L109.668 995.627 L87.7232 995.627 L87.7232 991.692 Q90.3852 988.937 94.9685 984.307 Q99.575 979.655 100.756 978.312 Q103.001 975.789 103.881 974.053 Q104.783 972.293 104.783 970.604 Q104.783 967.849 102.839 966.113 Q100.918 964.377 97.8158 964.377 Q95.6167 964.377 93.163 965.141 Q90.7325 965.905 87.9547 967.456 L87.9547 962.733 Q90.7788 961.599 93.2324 961.02 Q95.6861 960.442 97.7232 960.442 Q103.094 960.442 106.288 963.127 Q109.482 965.812 109.482 970.303 Q109.482 972.432 108.672 974.354 Q107.885 976.252 105.779 978.844 Q105.2 979.516 102.098 982.733 Q98.9963 985.928 93.3482 991.692 Z" fill="#000000" fill-rule="nonzero" fill-opacity="1" /><path clip-path="url(#clip380)" d="M100.084 569.714 L88.2788 588.163 L100.084 588.163 L100.084 569.714 M98.8574 565.639 L104.737 565.639 L104.737 588.163 L109.668 588.163 L109.668 592.051 L104.737 592.051 L104.737 600.199 L100.084 600.199 L100.084 592.051 L84.4825 592.051 L84.4825 587.538 L98.8574 565.639 Z" fill="#000000" fill-rule="nonzero" fill-opacity="1" /><path clip-path="url(#clip380)" d="M98.1398 185.629 Q94.9917 185.629 93.1399 187.782 Q91.3112 189.934 91.3112 193.684 Q91.3112 197.411 93.1399 199.587 Q94.9917 201.74 98.1398 201.74 Q101.288 201.74 103.117 199.587 Q104.968 197.411 104.968 193.684 Q104.968 189.934 103.117 187.782 Q101.288 185.629 98.1398 185.629 M107.422 170.976 L107.422 175.235 Q105.663 174.402 103.857 173.962 Q102.075 173.522 100.316 173.522 Q95.6861 173.522 93.2324 176.647 Q90.8019 179.772 90.4547 186.092 Q91.8204 184.078 93.8806 183.013 Q95.9408 181.925 98.4176 181.925 Q103.626 181.925 106.635 185.096 Q109.668 188.245 109.668 193.684 Q109.668 199.008 106.519 202.226 Q103.371 205.444 98.1398 205.444 Q92.1445 205.444 88.9732 200.86 Q85.8019 196.254 85.8019 187.527 Q85.8019 179.333 89.6908 174.472 Q93.5797 169.587 100.131 169.587 Q101.89 169.587 103.672 169.935 Q105.478 170.282 107.422 170.976 Z" fill="#000000" fill-rule="nonzero" fill-opacity="1" /><path clip-path="url(#clip380)" d="M1048.21 43.6931 L1048.21 65.8515 L1061.33 65.8515 Q1067.94 65.8515 1071.1 63.1374 Q1074.3 60.3828 1074.3 54.752 Q1074.3 49.0808 1071.1 46.4072 Q1067.94 43.6931 1061.33 43.6931 L1048.21 43.6931 M1048.21 18.8205 L1048.21 37.0496 L1060.32 37.0496 Q1066.32 37.0496 1069.23 34.8216 Q1072.19 32.5531 1072.19 27.935 Q1072.19 23.3575 1069.23 21.089 Q1066.32 18.8205 1060.32 18.8205 L1048.21 18.8205 M1040.03 12.096 L1060.93 12.096 Q1070.29 12.096 1075.35 15.9849 Q1080.41 19.8737 1080.41 27.0438 Q1080.41 32.5936 1077.82 35.8748 Q1075.23 39.156 1070.21 39.9662 Q1076.24 41.2625 1079.56 45.3944 Q1082.93 49.4858 1082.93 55.6432 Q1082.93 63.745 1077.42 68.1605 Q1071.91 72.576 1061.74 72.576 L1040.03 72.576 L1040.03 12.096 Z" fill="#000000" fill-rule="nonzero" fill-opacity="1" /><path clip-path="url(#clip380)" d="M1114.2 32.4315 Q1108.2 32.4315 1104.72 37.1306 Q1101.24 41.7891 1101.24 49.9314 Q1101.24 58.0738 1104.68 62.7728 Q1108.16 67.4314 1114.2 67.4314 Q1120.15 67.4314 1123.64 62.7323 Q1127.12 58.0333 1127.12 49.9314 Q1127.12 41.8701 1123.64 37.1711 Q1120.15 32.4315 1114.2 32.4315 M1114.2 26.1121 Q1123.92 26.1121 1129.47 32.4315 Q1135.02 38.7509 1135.02 49.9314 Q1135.02 61.0714 1129.47 67.4314 Q1123.92 73.7508 1114.2 73.7508 Q1104.44 73.7508 1098.89 67.4314 Q1093.38 61.0714 1093.38 49.9314 Q1093.38 38.7509 1098.89 32.4315 Q1104.44 26.1121 1114.2 26.1121 Z" fill="#000000" fill-rule="nonzero" fill-opacity="1" /><path clip-path="url(#clip380)" d="M1182.54 27.2059 L1166.13 49.2833 L1183.39 72.576 L1174.6 72.576 L1161.39 54.752 L1148.19 72.576 L1139.4 72.576 L1157.02 48.8377 L1140.89 27.2059 L1149.68 27.2059 L1161.72 43.369 L1173.75 27.2059 L1182.54 27.2059 Z" fill="#000000" fill-rule="nonzero" fill-opacity="1" /><path clip-path="url(#clip380)" d="M1228.8 18.8205 L1228.8 41.5461 L1239.09 41.5461 Q1244.8 41.5461 1247.92 38.5889 Q1251.04 35.6318 1251.04 30.163 Q1251.04 24.7348 1247.92 21.7777 Q1244.8 18.8205 1239.09 18.8205 L1228.8 18.8205 M1220.62 12.096 L1239.09 12.096 Q1249.26 12.096 1254.44 16.714 Q1259.67 21.2916 1259.67 30.163 Q1259.67 39.1155 1254.44 43.6931 Q1249.26 48.2706 1239.09 48.2706 L1228.8 48.2706 L1228.8 72.576 L1220.62 72.576 L1220.62 12.096 Z" fill="#000000" fill-rule="nonzero" fill-opacity="1" /><path clip-path="url(#clip380)" d="M1270.32 9.54393 L1277.77 9.54393 L1277.77 72.576 L1270.32 72.576 L1270.32 9.54393 Z" fill="#000000" fill-rule="nonzero" fill-opacity="1" /><path clip-path="url(#clip380)" d="M1310.95 32.4315 Q1304.96 32.4315 1301.47 37.1306 Q1297.99 41.7891 1297.99 49.9314 Q1297.99 58.0738 1301.43 62.7728 Q1304.92 67.4314 1310.95 67.4314 Q1316.91 67.4314 1320.39 62.7323 Q1323.87 58.0333 1323.87 49.9314 Q1323.87 41.8701 1320.39 37.1711 Q1316.91 32.4315 1310.95 32.4315 M1310.95 26.1121 Q1320.67 26.1121 1326.22 32.4315 Q1331.77 38.7509 1331.77 49.9314 Q1331.77 61.0714 1326.22 67.4314 Q1320.67 73.7508 1310.95 73.7508 Q1301.19 73.7508 1295.64 67.4314 Q1290.13 61.0714 1290.13 49.9314 Q1290.13 38.7509 1295.64 32.4315 Q1301.19 26.1121 1310.95 26.1121 Z" fill="#000000" fill-rule="nonzero" fill-opacity="1" /><path clip-path="url(#clip380)" d="M1351.5 14.324 L1351.5 27.2059 L1366.85 27.2059 L1366.85 32.9987 L1351.5 32.9987 L1351.5 57.6282 Q1351.5 63.1779 1353 64.7578 Q1354.54 66.3376 1359.2 66.3376 L1366.85 66.3376 L1366.85 72.576 L1359.2 72.576 Q1350.57 72.576 1347.29 69.3758 Q1344.01 66.1351 1344.01 57.6282 L1344.01 32.9987 L1338.54 32.9987 L1338.54 27.2059 L1344.01 27.2059 L1344.01 14.324 L1351.5 14.324 Z" fill="#000000" fill-rule="nonzero" fill-opacity="1" /><path clip-path="url(#clip380)" d="M1403.35 12.096 L1441.59 12.096 L1441.59 18.9825 L1411.53 18.9825 L1411.53 36.8875 L1440.34 36.8875 L1440.34 43.7741 L1411.53 43.7741 L1411.53 65.6895 L1442.32 65.6895 L1442.32 72.576 L1403.35 72.576 L1403.35 12.096 Z" fill="#000000" fill-rule="nonzero" fill-opacity="1" /><path clip-path="url(#clip380)" d="M1493.16 27.2059 L1476.75 49.2833 L1494.01 72.576 L1485.22 72.576 L1472.01 54.752 L1458.81 72.576 L1450.02 72.576 L1467.64 48.8377 L1451.52 27.2059 L1460.31 27.2059 L1472.34 43.369 L1484.37 27.2059 L1493.16 27.2059 Z" fill="#000000" fill-rule="nonzero" fill-opacity="1" /><path clip-path="url(#clip380)" d="M1525.16 49.7694 Q1516.13 49.7694 1512.65 51.8354 Q1509.16 53.9013 1509.16 58.8839 Q1509.16 62.8538 1511.75 65.2034 Q1514.39 67.5124 1518.88 67.5124 Q1525.08 67.5124 1528.81 63.1374 Q1532.58 58.7219 1532.58 51.4303 L1532.58 49.7694 L1525.16 49.7694 M1540.03 46.6907 L1540.03 72.576 L1532.58 72.576 L1532.58 65.6895 Q1530.02 69.8214 1526.22 71.8063 Q1522.41 73.7508 1516.9 73.7508 Q1509.93 73.7508 1505.8 69.8619 Q1501.71 65.9325 1501.71 59.3701 Q1501.71 51.7138 1506.81 47.825 Q1511.96 43.9361 1522.12 43.9361 L1532.58 43.9361 L1532.58 43.2069 Q1532.58 38.0623 1529.17 35.2672 Q1525.81 32.4315 1519.69 32.4315 Q1515.81 32.4315 1512.12 33.3632 Q1508.43 34.295 1505.03 36.1584 L1505.03 29.2718 Q1509.12 27.692 1512.97 26.9223 Q1516.82 26.1121 1520.46 26.1121 Q1530.31 26.1121 1535.17 31.2163 Q1540.03 36.3204 1540.03 46.6907 Z" fill="#000000" fill-rule="nonzero" fill-opacity="1" /><path clip-path="url(#clip380)" d="M1590.71 35.9153 Q1593.5 30.8922 1597.39 28.5022 Q1601.28 26.1121 1606.55 26.1121 Q1613.63 26.1121 1617.48 31.0947 Q1621.33 36.0368 1621.33 45.1919 L1621.33 72.576 L1613.84 72.576 L1613.84 45.4349 Q1613.84 38.913 1611.53 35.7533 Q1609.22 32.5936 1604.48 32.5936 Q1598.69 32.5936 1595.32 36.4419 Q1591.96 40.2903 1591.96 46.9338 L1591.96 72.576 L1584.47 72.576 L1584.47 45.4349 Q1584.47 38.8725 1582.16 35.7533 Q1579.85 32.5936 1575.03 32.5936 Q1569.32 32.5936 1565.96 36.4824 Q1562.59 40.3308 1562.59 46.9338 L1562.59 72.576 L1555.1 72.576 L1555.1 27.2059 L1562.59 27.2059 L1562.59 34.2544 Q1565.15 30.082 1568.71 28.0971 Q1572.27 26.1121 1577.18 26.1121 Q1582.12 26.1121 1585.56 28.6237 Q1589.05 31.1352 1590.71 35.9153 Z" fill="#000000" fill-rule="nonzero" fill-opacity="1" /><path clip-path="url(#clip380)" d="M1643.41 65.7705 L1643.41 89.8329 L1635.91 89.8329 L1635.91 27.2059 L1643.41 27.2059 L1643.41 34.0924 Q1645.76 30.0415 1649.32 28.0971 Q1652.93 26.1121 1657.91 26.1121 Q1666.17 26.1121 1671.32 32.6746 Q1676.5 39.2371 1676.5 49.9314 Q1676.5 60.6258 1671.32 67.1883 Q1666.17 73.7508 1657.91 73.7508 Q1652.93 73.7508 1649.32 71.8063 Q1645.76 69.8214 1643.41 65.7705 M1668.77 49.9314 Q1668.77 41.7081 1665.36 37.0496 Q1662 32.3505 1656.09 32.3505 Q1650.17 32.3505 1646.77 37.0496 Q1643.41 41.7081 1643.41 49.9314 Q1643.41 58.1548 1646.77 62.8538 Q1650.17 67.5124 1656.09 67.5124 Q1662 67.5124 1665.36 62.8538 Q1668.77 58.1548 1668.77 49.9314 Z" fill="#000000" fill-rule="nonzero" fill-opacity="1" /><path clip-path="url(#clip380)" d="M1688.86 9.54393 L1696.31 9.54393 L1696.31 72.576 L1688.86 72.576 L1688.86 9.54393 Z" fill="#000000" fill-rule="nonzero" fill-opacity="1" /><path clip-path="url(#clip380)" d="M1750.72 48.0275 L1750.72 51.6733 L1716.45 51.6733 Q1716.93 59.3701 1721.06 63.421 Q1725.24 67.4314 1732.65 67.4314 Q1736.94 67.4314 1740.95 66.3781 Q1745.01 65.3249 1748.98 63.2184 L1748.98 70.267 Q1744.96 71.9684 1740.75 72.8596 Q1736.54 73.7508 1732.2 73.7508 Q1721.35 73.7508 1714.99 67.4314 Q1708.67 61.1119 1708.67 50.3365 Q1708.67 39.1965 1714.66 32.6746 Q1720.7 26.1121 1730.91 26.1121 Q1740.06 26.1121 1745.37 32.0264 Q1750.72 37.9003 1750.72 48.0275 M1743.26 45.84 Q1743.18 39.7232 1739.82 36.0774 Q1736.5 32.4315 1730.99 32.4315 Q1724.75 32.4315 1720.98 35.9558 Q1717.26 39.4801 1716.69 45.8805 L1743.26 45.84 Z" fill="#000000" fill-rule="nonzero" fill-opacity="1" /><path clip-path="url(#clip382)" d="M467.826 1753.43 L344.154 1753.43 L591.499 1753.43 L467.826 1753.43 L467.826 1391.42 L467.826 1753.43  Z" fill="#009af9" fill-rule="evenodd" fill-opacity="1"/>
<polyline clip-path="url(#clip382)" style="stroke:#000000; stroke-linecap:round; stroke-linejoin:round; stroke-width:4; stroke-opacity:1; fill:none" points="467.826,1753.43 344.154,1753.43 591.499,1753.43 467.826,1753.43 467.826,1391.42 467.826,1753.43 "/>
<path clip-path="url(#clip382)" d="M715.172 1391.42 L715.172 1213.46 L220.481 1213.46 L220.481 1391.42 L715.172 1391.42 L715.172 1213.46 L715.172 1391.42  Z" fill="#009af9" fill-rule="evenodd" fill-opacity="1"/>
<polyline clip-path="url(#clip382)" style="stroke:#000000; stroke-linecap:round; stroke-linejoin:round; stroke-width:4; stroke-opacity:1; fill:none" points="715.172,1391.42 715.172,1213.46 220.481,1213.46 220.481,1391.42 715.172,1391.42 715.172,1213.46 715.172,1391.42 "/>
<path clip-path="url(#clip382)" d="M715.172 1136.57 L220.481 1136.57 L220.481 1213.46 L715.172 1213.46 L715.172 1136.57 L467.826 1136.57 L715.172 1136.57  Z" fill="#009af9" fill-rule="evenodd" fill-opacity="1"/>
<polyline clip-path="url(#clip382)" style="stroke:#000000; stroke-linecap:round; stroke-linejoin:round; stroke-width:4; stroke-opacity:1; fill:none" points="715.172,1136.57 220.481,1136.57 220.481,1213.46 715.172,1213.46 715.172,1136.57 467.826,1136.57 715.172,1136.57 "/>
<path clip-path="url(#clip382)" d="M467.826 817.711 L344.154 817.711 L591.499 817.711 L467.826 817.711 L467.826 1136.57 L467.826 817.711  Z" fill="#009af9" fill-rule="evenodd" fill-opacity="1"/>
<polyline clip-path="url(#clip382)" style="stroke:#000000; stroke-linecap:round; stroke-linejoin:round; stroke-width:4; stroke-opacity:1; fill:none" points="467.826,817.711 344.154,817.711 591.499,817.711 467.826,817.711 467.826,1136.57 467.826,817.711 "/>
<path clip-path="url(#clip382)" d="M1086.19 1311.5 L962.517 1311.5 L1209.86 1311.5 L1086.19 1311.5 L1086.19 1132.79 L1086.19 1311.5  Z" fill="#009af9" fill-rule="evenodd" fill-opacity="1"/>
<polyline clip-path="url(#clip382)" style="stroke:#000000; stroke-linecap:round; stroke-linejoin:round; stroke-width:4; stroke-opacity:1; fill:none" points="1086.19,1311.5 962.517,1311.5 1209.86,1311.5 1086.19,1311.5 1086.19,1132.79 1086.19,1311.5 "/>
<path clip-path="url(#clip382)" d="M1333.54 1132.79 L1333.54 1005.29 L838.845 1005.29 L838.845 1132.79 L1333.54 1132.79 L1333.54 1005.29 L1333.54 1132.79  Z" fill="#009af9" fill-rule="evenodd" fill-opacity="1"/>
<polyline clip-path="url(#clip382)" style="stroke:#000000; stroke-linecap:round; stroke-linejoin:round; stroke-width:4; stroke-opacity:1; fill:none" points="1333.54,1132.79 1333.54,1005.29 838.845,1005.29 838.845,1132.79 1333.54,1132.79 1333.54,1005.29 1333.54,1132.79 "/>
<path clip-path="url(#clip382)" d="M1333.54 911.736 L838.845 911.736 L838.845 1005.29 L1333.54 1005.29 L1333.54 911.736 L1086.19 911.736 L1333.54 911.736  Z" fill="#009af9" fill-rule="evenodd" fill-opacity="1"/>
<polyline clip-path="url(#clip382)" style="stroke:#000000; stroke-linecap:round; stroke-linejoin:round; stroke-width:4; stroke-opacity:1; fill:none" points="1333.54,911.736 838.845,911.736 838.845,1005.29 1333.54,1005.29 1333.54,911.736 1086.19,911.736 1333.54,911.736 "/>
<path clip-path="url(#clip382)" d="M1086.19 631.679 L962.517 631.679 L1209.86 631.679 L1086.19 631.679 L1086.19 911.736 L1086.19 631.679  Z" fill="#009af9" fill-rule="evenodd" fill-opacity="1"/>
<polyline clip-path="url(#clip382)" style="stroke:#000000; stroke-linecap:round; stroke-linejoin:round; stroke-width:4; stroke-opacity:1; fill:none" points="1086.19,631.679 962.517,631.679 1209.86,631.679 1086.19,631.679 1086.19,911.736 1086.19,631.679 "/>
<path clip-path="url(#clip382)" d="M1704.55 1259.94 L1580.88 1259.94 L1828.23 1259.94 L1704.55 1259.94 L1704.55 941.934 L1704.55 1259.94  Z" fill="#009af9" fill-rule="evenodd" fill-opacity="1"/>
<polyline clip-path="url(#clip382)" style="stroke:#000000; stroke-linecap:round; stroke-linejoin:round; stroke-width:4; stroke-opacity:1; fill:none" points="1704.55,1259.94 1580.88,1259.94 1828.23,1259.94 1704.55,1259.94 1704.55,941.934 1704.55,1259.94 "/>
<path clip-path="url(#clip382)" d="M1951.9 941.934 L1951.9 760.74 L1457.21 760.74 L1457.21 941.934 L1951.9 941.934 L1951.9 760.74 L1951.9 941.934  Z" fill="#009af9" fill-rule="evenodd" fill-opacity="1"/>
<polyline clip-path="url(#clip382)" style="stroke:#000000; stroke-linecap:round; stroke-linejoin:round; stroke-width:4; stroke-opacity:1; fill:none" points="1951.9,941.934 1951.9,760.74 1457.21,760.74 1457.21,941.934 1951.9,941.934 1951.9,760.74 1951.9,941.934 "/>
<path clip-path="url(#clip382)" d="M1951.9 682.099 L1457.21 682.099 L1457.21 760.74 L1951.9 760.74 L1951.9 682.099 L1704.55 682.099 L1951.9 682.099  Z" fill="#009af9" fill-rule="evenodd" fill-opacity="1"/>
<polyline clip-path="url(#clip382)" style="stroke:#000000; stroke-linecap:round; stroke-linejoin:round; stroke-width:4; stroke-opacity:1; fill:none" points="1951.9,682.099 1457.21,682.099 1457.21,760.74 1951.9,760.74 1951.9,682.099 1704.55,682.099 1951.9,682.099 "/>
<path clip-path="url(#clip382)" d="M1704.55 382.684 L1580.88 382.684 L1828.23 382.684 L1704.55 382.684 L1704.55 682.099 L1704.55 382.684  Z" fill="#009af9" fill-rule="evenodd" fill-opacity="1"/>
<polyline clip-path="url(#clip382)" style="stroke:#000000; stroke-linecap:round; stroke-linejoin:round; stroke-width:4; stroke-opacity:1; fill:none" points="1704.55,382.684 1580.88,382.684 1828.23,382.684 1704.55,382.684 1704.55,682.099 1704.55,382.684 "/>
<path clip-path="url(#clip382)" d="M2322.92 869.179 L2199.24 869.179 L2446.59 869.179 L2322.92 869.179 L2322.92 689.444 L2322.92 869.179  Z" fill="#009af9" fill-rule="evenodd" fill-opacity="1"/>
<polyline clip-path="url(#clip382)" style="stroke:#000000; stroke-linecap:round; stroke-linejoin:round; stroke-width:4; stroke-opacity:1; fill:none" points="2322.92,869.179 2199.24,869.179 2446.59,869.179 2322.92,869.179 2322.92,689.444 2322.92,869.179 "/>
<path clip-path="url(#clip382)" d="M2570.26 689.444 L2570.26 603.172 L2075.57 603.172 L2075.57 689.444 L2570.26 689.444 L2570.26 603.172 L2570.26 689.444  Z" fill="#009af9" fill-rule="evenodd" fill-opacity="1"/>
<polyline clip-path="url(#clip382)" style="stroke:#000000; stroke-linecap:round; stroke-linejoin:round; stroke-width:4; stroke-opacity:1; fill:none" points="2570.26,689.444 2570.26,603.172 2075.57,603.172 2075.57,689.444 2570.26,689.444 2570.26,603.172 2570.26,689.444 "/>
<path clip-path="url(#clip382)" d="M2570.26 472.205 L2075.57 472.205 L2075.57 603.172 L2570.26 603.172 L2570.26 472.205 L2322.92 472.205 L2570.26 472.205  Z" fill="#009af9" fill-rule="evenodd" fill-opacity="1"/>
<polyline clip-path="url(#clip382)" style="stroke:#000000; stroke-linecap:round; stroke-linejoin:round; stroke-width:4; stroke-opacity:1; fill:none" points="2570.26,472.205 2075.57,472.205 2075.57,603.172 2570.26,603.172 2570.26,472.205 2322.92,472.205 2570.26,472.205 "/>
<path clip-path="url(#clip382)" d="M2322.92 175.141 L2199.24 175.141 L2446.59 175.141 L2322.92 175.141 L2322.92 472.205 L2322.92 175.141  Z" fill="#009af9" fill-rule="evenodd" fill-opacity="1"/>
<polyline clip-path="url(#clip382)" style="stroke:#000000; stroke-linecap:round; stroke-linejoin:round; stroke-width:4; stroke-opacity:1; fill:none" points="2322.92,175.141 2199.24,175.141 2446.59,175.141 2322.92,175.141 2322.92,472.205 2322.92,175.141 "/>
<circle clip-path="url(#clip382)" cx="1086.19" cy="521.375" r="14.4" fill="#009af9" fill-rule="evenodd" fill-opacity="1" stroke="#000000" stroke-opacity="1" stroke-width="3.84"/>
<circle clip-path="url(#clip382)" cx="2322.92" cy="1177.43" r="14.4" fill="#009af9" fill-rule="evenodd" fill-opacity="1" stroke="#000000" stroke-opacity="1" stroke-width="3.84"/>
<polyline clip-path="url(#clip382)" style="stroke:#009af9; stroke-linecap:round; stroke-linejoin:round; stroke-width:0; stroke-opacity:1; fill:none" points="467.826,1753.43 344.154,1753.43 591.499,1753.43 467.826,1753.43 467.826,1391.42 "/>
<polyline clip-path="url(#clip382)" style="stroke:#009af9; stroke-linecap:round; stroke-linejoin:round; stroke-width:0; stroke-opacity:1; fill:none" points="715.172,1391.42 715.172,1213.46 220.481,1213.46 220.481,1391.42 715.172,1391.42 715.172,1213.46 "/>
<polyline clip-path="url(#clip382)" style="stroke:#009af9; stroke-linecap:round; stroke-linejoin:round; stroke-width:0; stroke-opacity:1; fill:none" points="715.172,1136.57 220.481,1136.57 220.481,1213.46 715.172,1213.46 715.172,1136.57 467.826,1136.57 "/>
<polyline clip-path="url(#clip382)" style="stroke:#009af9; stroke-linecap:round; stroke-linejoin:round; stroke-width:0; stroke-opacity:1; fill:none" points="467.826,817.711 344.154,817.711 591.499,817.711 467.826,817.711 467.826,1136.57 "/>
<polyline clip-path="url(#clip382)" style="stroke:#009af9; stroke-linecap:round; stroke-linejoin:round; stroke-width:0; stroke-opacity:1; fill:none" points="1086.19,1311.5 962.517,1311.5 1209.86,1311.5 1086.19,1311.5 1086.19,1132.79 "/>
<polyline clip-path="url(#clip382)" style="stroke:#009af9; stroke-linecap:round; stroke-linejoin:round; stroke-width:0; stroke-opacity:1; fill:none" points="1333.54,1132.79 1333.54,1005.29 838.845,1005.29 838.845,1132.79 1333.54,1132.79 1333.54,1005.29 "/>
<polyline clip-path="url(#clip382)" style="stroke:#009af9; stroke-linecap:round; stroke-linejoin:round; stroke-width:0; stroke-opacity:1; fill:none" points="1333.54,911.736 838.845,911.736 838.845,1005.29 1333.54,1005.29 1333.54,911.736 1086.19,911.736 "/>
<polyline clip-path="url(#clip382)" style="stroke:#009af9; stroke-linecap:round; stroke-linejoin:round; stroke-width:0; stroke-opacity:1; fill:none" points="1086.19,631.679 962.517,631.679 1209.86,631.679 1086.19,631.679 1086.19,911.736 "/>
<polyline clip-path="url(#clip382)" style="stroke:#009af9; stroke-linecap:round; stroke-linejoin:round; stroke-width:0; stroke-opacity:1; fill:none" points="1704.55,1259.94 1580.88,1259.94 1828.23,1259.94 1704.55,1259.94 1704.55,941.934 "/>
<polyline clip-path="url(#clip382)" style="stroke:#009af9; stroke-linecap:round; stroke-linejoin:round; stroke-width:0; stroke-opacity:1; fill:none" points="1951.9,941.934 1951.9,760.74 1457.21,760.74 1457.21,941.934 1951.9,941.934 1951.9,760.74 "/>
<polyline clip-path="url(#clip382)" style="stroke:#009af9; stroke-linecap:round; stroke-linejoin:round; stroke-width:0; stroke-opacity:1; fill:none" points="1951.9,682.099 1457.21,682.099 1457.21,760.74 1951.9,760.74 1951.9,682.099 1704.55,682.099 "/>
<polyline clip-path="url(#clip382)" style="stroke:#009af9; stroke-linecap:round; stroke-linejoin:round; stroke-width:0; stroke-opacity:1; fill:none" points="1704.55,382.684 1580.88,382.684 1828.23,382.684 1704.55,382.684 1704.55,682.099 "/>
<polyline clip-path="url(#clip382)" style="stroke:#009af9; stroke-linecap:round; stroke-linejoin:round; stroke-width:0; stroke-opacity:1; fill:none" points="2322.92,869.179 2199.24,869.179 2446.59,869.179 2322.92,869.179 2322.92,689.444 "/>
<polyline clip-path="url(#clip382)" style="stroke:#009af9; stroke-linecap:round; stroke-linejoin:round; stroke-width:0; stroke-opacity:1; fill:none" points="2570.26,689.444 2570.26,603.172 2075.57,603.172 2075.57,689.444 2570.26,689.444 2570.26,603.172 "/>
<polyline clip-path="url(#clip382)" style="stroke:#009af9; stroke-linecap:round; stroke-linejoin:round; stroke-width:0; stroke-opacity:1; fill:none" points="2570.26,472.205 2075.57,472.205 2075.57,603.172 2570.26,603.172 2570.26,472.205 2322.92,472.205 "/>
<polyline clip-path="url(#clip382)" style="stroke:#009af9; stroke-linecap:round; stroke-linejoin:round; stroke-width:0; stroke-opacity:1; fill:none" points="2322.92,175.141 2199.24,175.141 2446.59,175.141 2322.92,175.141 2322.92,472.205 "/>
<path clip-path="url(#clip380)" d="M233.013 287.238 L534.52 287.238 L534.52 183.558 L233.013 183.558  Z" fill="#ffffff" fill-rule="evenodd" fill-opacity="1"/>
<polyline clip-path="url(#clip380)" style="stroke:#000000; stroke-linecap:round; stroke-linejoin:round; stroke-width:4; stroke-opacity:1; fill:none" points="233.013,287.238 534.52,287.238 534.52,183.558 233.013,183.558 233.013,287.238 "/>
<path clip-path="url(#clip380)" d="M260.688 256.134 L426.74 256.134 L426.74 214.662 L260.688 214.662 L260.688 256.134  Z" fill="#009af9" fill-rule="evenodd" fill-opacity="1"/>
<polyline clip-path="url(#clip380)" style="stroke:#000000; stroke-linecap:round; stroke-linejoin:round; stroke-width:4; stroke-opacity:1; fill:none" points="260.688,256.134 426.74,256.134 426.74,214.662 260.688,214.662 260.688,256.134 "/>
<path clip-path="url(#clip380)" d="M468.257 255.086 Q466.452 259.715 464.739 261.127 Q463.026 262.539 460.155 262.539 L456.753 262.539 L456.753 258.975 L459.253 258.975 Q461.012 258.975 461.984 258.141 Q462.956 257.308 464.137 254.206 L464.901 252.262 L454.415 226.753 L458.929 226.753 L467.03 247.03 L475.132 226.753 L479.646 226.753 L468.257 255.086 Z" fill="#000000" fill-rule="nonzero" fill-opacity="1" /><path clip-path="url(#clip380)" d="M486.938 248.743 L494.577 248.743 L494.577 222.378 L486.266 224.044 L486.266 219.785 L494.53 218.118 L499.206 218.118 L499.206 248.743 L506.845 248.743 L506.845 252.678 L486.938 252.678 L486.938 248.743 Z" fill="#000000" fill-rule="nonzero" fill-opacity="1" /></svg>
