<?xml version="1.0" encoding="utf-8"?>
<svg xmlns="http://www.w3.org/2000/svg" xmlns:xlink="http://www.w3.org/1999/xlink" width="600" height="400" viewBox="0 0 2400 1600">
<defs>
  <clipPath id="clip010">
    <rect x="0" y="0" width="2400" height="1600"/>
  </clipPath>
</defs>
<path clip-path="url(#clip010)" d="M0 1600 L2400 1600 L2400 8.88178e-14 L0 8.88178e-14  Z" fill="#ffffff" fill-rule="evenodd" fill-opacity="1"/>
<defs>
  <clipPath id="clip011">
    <rect x="480" y="0" width="1681" height="1600"/>
  </clipPath>
</defs>
<path clip-path="url(#clip010)" d="M219.866 1423.18 L2352.76 1423.18 L2352.76 123.472 L219.866 123.472  Z" fill="#ffffff" fill-rule="evenodd" fill-opacity="1"/>
<defs>
  <clipPath id="clip012">
    <rect x="219" y="123" width="2134" height="1301"/>
  </clipPath>
</defs>
<polyline clip-path="url(#clip012)" style="stroke:#000000; stroke-linecap:round; stroke-linejoin:round; stroke-width:2; stroke-opacity:0.1; fill:none" points="503.804,1423.18 503.804,123.472 "/>
<polyline clip-path="url(#clip012)" style="stroke:#000000; stroke-linecap:round; stroke-linejoin:round; stroke-width:2; stroke-opacity:0.1; fill:none" points="950.951,1423.18 950.951,123.472 "/>
<polyline clip-path="url(#clip012)" style="stroke:#000000; stroke-linecap:round; stroke-linejoin:round; stroke-width:2; stroke-opacity:0.1; fill:none" points="1398.1,1423.18 1398.1,123.472 "/>
<polyline clip-path="url(#clip012)" style="stroke:#000000; stroke-linecap:round; stroke-linejoin:round; stroke-width:2; stroke-opacity:0.1; fill:none" points="1845.24,1423.18 1845.24,123.472 "/>
<polyline clip-path="url(#clip012)" style="stroke:#000000; stroke-linecap:round; stroke-linejoin:round; stroke-width:2; stroke-opacity:0.1; fill:none" points="2292.39,1423.18 2292.39,123.472 "/>
<polyline clip-path="url(#clip012)" style="stroke:#000000; stroke-linecap:round; stroke-linejoin:round; stroke-width:2; stroke-opacity:0.1; fill:none" points="219.866,1401.07 2352.76,1401.07 "/>
<polyline clip-path="url(#clip012)" style="stroke:#000000; stroke-linecap:round; stroke-linejoin:round; stroke-width:2; stroke-opacity:0.1; fill:none" points="219.866,1107.7 2352.76,1107.7 "/>
<polyline clip-path="url(#clip012)" style="stroke:#000000; stroke-linecap:round; stroke-linejoin:round; stroke-width:2; stroke-opacity:0.1; fill:none" points="219.866,814.327 2352.76,814.327 "/>
<polyline clip-path="url(#clip012)" style="stroke:#000000; stroke-linecap:round; stroke-linejoin:round; stroke-width:2; stroke-opacity:0.1; fill:none" points="219.866,520.953 2352.76,520.953 "/>
<polyline clip-path="url(#clip012)" style="stroke:#000000; stroke-linecap:round; stroke-linejoin:round; stroke-width:2; stroke-opacity:0.1; fill:none" points="219.866,227.579 2352.76,227.579 "/>
<polyline clip-path="url(#clip010)" style="stroke:#000000; stroke-linecap:round; stroke-linejoin:round; stroke-width:4; stroke-opacity:1; fill:none" points="219.866,1423.18 2352.76,1423.18 "/>
<polyline clip-path="url(#clip010)" style="stroke:#000000; stroke-linecap:round; stroke-linejoin:round; stroke-width:4; stroke-opacity:1; fill:none" points="503.804,1423.18 503.804,1404.28 "/>
<polyline clip-path="url(#clip010)" style="stroke:#000000; stroke-linecap:round; stroke-linejoin:round; stroke-width:4; stroke-opacity:1; fill:none" points="950.951,1423.18 950.951,1404.28 "/>
<polyline clip-path="url(#clip010)" style="stroke:#000000; stroke-linecap:round; stroke-linejoin:round; stroke-width:4; stroke-opacity:1; fill:none" points="1398.1,1423.18 1398.1,1404.28 "/>
<polyline clip-path="url(#clip010)" style="stroke:#000000; stroke-linecap:round; stroke-linejoin:round; stroke-width:4; stroke-opacity:1; fill:none" points="1845.24,1423.18 1845.24,1404.28 "/>
<polyline clip-path="url(#clip010)" style="stroke:#000000; stroke-linecap:round; stroke-linejoin:round; stroke-width:4; stroke-opacity:1; fill:none" points="2292.39,1423.18 2292.39,1404.28 "/>
<path clip-path="url(#clip010)" d="M498.457 1481.64 L514.777 1481.64 L514.777 1485.58 L492.832 1485.58 L492.832 1481.64 Q495.494 1478.89 500.078 1474.26 Q504.684 1469.61 505.865 1468.27 Q508.11 1465.74 508.99 1464.01 Q509.892 1462.25 509.892 1460.56 Q509.892 1457.8 507.948 1456.07 Q506.027 1454.33 502.925 1454.33 Q500.726 1454.33 498.272 1455.09 Q495.841 1455.86 493.064 1457.41 L493.064 1452.69 Q495.888 1451.55 498.341 1450.97 Q500.795 1450.39 502.832 1450.39 Q508.203 1450.39 511.397 1453.08 Q514.591 1455.77 514.591 1460.26 Q514.591 1462.39 513.781 1464.31 Q512.994 1466.2 510.888 1468.8 Q510.309 1469.47 507.207 1472.69 Q504.105 1475.88 498.457 1481.64 Z" fill="#000000" fill-rule="nonzero" fill-opacity="1" /><path clip-path="url(#clip010)" d="M953.96 1455.09 L942.155 1473.54 L953.96 1473.54 L953.96 1455.09 M952.733 1451.02 L958.613 1451.02 L958.613 1473.54 L963.544 1473.54 L963.544 1477.43 L958.613 1477.43 L958.613 1485.58 L953.96 1485.58 L953.96 1477.43 L938.359 1477.43 L938.359 1472.92 L952.733 1451.02 Z" fill="#000000" fill-rule="nonzero" fill-opacity="1" /><path clip-path="url(#clip010)" d="M1398.5 1466.44 Q1395.35 1466.44 1393.5 1468.59 Q1391.67 1470.74 1391.67 1474.49 Q1391.67 1478.22 1393.5 1480.39 Q1395.35 1482.55 1398.5 1482.55 Q1401.65 1482.55 1403.48 1480.39 Q1405.33 1478.22 1405.33 1474.49 Q1405.33 1470.74 1403.48 1468.59 Q1401.65 1466.44 1398.5 1466.44 M1407.79 1451.78 L1407.79 1456.04 Q1406.03 1455.21 1404.22 1454.77 Q1402.44 1454.33 1400.68 1454.33 Q1396.05 1454.33 1393.6 1457.45 Q1391.16 1460.58 1390.82 1466.9 Q1392.18 1464.89 1394.24 1463.82 Q1396.3 1462.73 1398.78 1462.73 Q1403.99 1462.73 1407 1465.9 Q1410.03 1469.05 1410.03 1474.49 Q1410.03 1479.82 1406.88 1483.03 Q1403.73 1486.25 1398.5 1486.25 Q1392.51 1486.25 1389.34 1481.67 Q1386.16 1477.06 1386.16 1468.33 Q1386.16 1460.14 1390.05 1455.28 Q1393.94 1450.39 1400.49 1450.39 Q1402.25 1450.39 1404.04 1450.74 Q1405.84 1451.09 1407.79 1451.78 Z" fill="#000000" fill-rule="nonzero" fill-opacity="1" /><path clip-path="url(#clip010)" d="M1845.24 1469.17 Q1841.91 1469.17 1839.99 1470.95 Q1838.09 1472.73 1838.09 1475.86 Q1838.09 1478.98 1839.99 1480.77 Q1841.91 1482.55 1845.24 1482.55 Q1848.58 1482.55 1850.5 1480.77 Q1852.42 1478.96 1852.42 1475.86 Q1852.42 1472.73 1850.5 1470.95 Q1848.6 1469.17 1845.24 1469.17 M1840.57 1467.18 Q1837.56 1466.44 1835.87 1464.38 Q1834.2 1462.32 1834.2 1459.35 Q1834.2 1455.21 1837.14 1452.8 Q1840.11 1450.39 1845.24 1450.39 Q1850.41 1450.39 1853.35 1452.8 Q1856.29 1455.21 1856.29 1459.35 Q1856.29 1462.32 1854.6 1464.38 Q1852.93 1466.44 1849.94 1467.18 Q1853.32 1467.96 1855.2 1470.26 Q1857.1 1472.55 1857.1 1475.86 Q1857.1 1480.88 1854.02 1483.57 Q1850.96 1486.25 1845.24 1486.25 Q1839.53 1486.25 1836.45 1483.57 Q1833.39 1480.88 1833.39 1475.86 Q1833.39 1472.55 1835.29 1470.26 Q1837.19 1467.96 1840.57 1467.18 M1838.86 1459.79 Q1838.86 1462.48 1840.52 1463.98 Q1842.21 1465.49 1845.24 1465.49 Q1848.25 1465.49 1849.94 1463.98 Q1851.66 1462.48 1851.66 1459.79 Q1851.66 1457.11 1849.94 1455.6 Q1848.25 1454.1 1845.24 1454.1 Q1842.21 1454.1 1840.52 1455.6 Q1838.86 1457.11 1838.86 1459.79 Z" fill="#000000" fill-rule="nonzero" fill-opacity="1" /><path clip-path="url(#clip010)" d="M2267.08 1481.64 L2274.72 1481.64 L2274.72 1455.28 L2266.41 1456.95 L2266.41 1452.69 L2274.67 1451.02 L2279.35 1451.02 L2279.35 1481.64 L2286.99 1481.64 L2286.99 1485.58 L2267.08 1485.58 L2267.08 1481.64 Z" fill="#000000" fill-rule="nonzero" fill-opacity="1" /><path clip-path="url(#clip010)" d="M2306.43 1454.1 Q2302.82 1454.1 2300.99 1457.66 Q2299.19 1461.2 2299.19 1468.33 Q2299.19 1475.44 2300.99 1479.01 Q2302.82 1482.55 2306.43 1482.55 Q2310.06 1482.55 2311.87 1479.01 Q2313.7 1475.44 2313.7 1468.33 Q2313.7 1461.2 2311.87 1457.66 Q2310.06 1454.1 2306.43 1454.1 M2306.43 1450.39 Q2312.24 1450.39 2315.3 1455 Q2318.37 1459.58 2318.37 1468.33 Q2318.37 1477.06 2315.3 1481.67 Q2312.24 1486.25 2306.43 1486.25 Q2300.62 1486.25 2297.54 1481.67 Q2294.49 1477.06 2294.49 1468.33 Q2294.49 1459.58 2297.54 1455 Q2300.62 1450.39 2306.43 1450.39 Z" fill="#000000" fill-rule="nonzero" fill-opacity="1" /><path clip-path="url(#clip010)" d="M1193.28 1520.52 L1200.18 1520.52 L1211.99 1538.19 L1223.86 1520.52 L1230.77 1520.52 L1215.49 1543.34 L1231.79 1568.04 L1224.88 1568.04 L1211.51 1547.83 L1198.05 1568.04 L1191.11 1568.04 L1208.08 1542.68 L1193.28 1520.52 Z" fill="#000000" fill-rule="nonzero" fill-opacity="1" /><path clip-path="url(#clip010)" d="M1233.76 1547.58 L1250.92 1547.58 L1250.92 1552.8 L1233.76 1552.8 L1233.76 1547.58 Z" fill="#000000" fill-rule="nonzero" fill-opacity="1" /><path clip-path="url(#clip010)" d="M1276.44 1550.12 Q1269.35 1550.12 1266.61 1551.75 Q1263.87 1553.37 1263.87 1557.29 Q1263.87 1560.4 1265.91 1562.25 Q1267.98 1564.07 1271.51 1564.07 Q1276.38 1564.07 1279.31 1560.63 Q1282.27 1557.16 1282.27 1551.43 L1282.27 1550.12 L1276.44 1550.12 M1288.13 1547.71 L1288.13 1568.04 L1282.27 1568.04 L1282.27 1562.63 Q1280.26 1565.88 1277.27 1567.44 Q1274.28 1568.97 1269.95 1568.97 Q1264.48 1568.97 1261.23 1565.91 Q1258.02 1562.82 1258.02 1557.67 Q1258.02 1551.65 1262.03 1548.6 Q1266.07 1545.54 1274.06 1545.54 L1282.27 1545.54 L1282.27 1544.97 Q1282.27 1540.93 1279.6 1538.73 Q1276.95 1536.5 1272.15 1536.5 Q1269.09 1536.5 1266.2 1537.23 Q1263.3 1537.97 1260.63 1539.43 L1260.63 1534.02 Q1263.84 1532.78 1266.86 1532.17 Q1269.89 1531.54 1272.75 1531.54 Q1280.49 1531.54 1284.31 1535.55 Q1288.13 1539.56 1288.13 1547.71 Z" fill="#000000" fill-rule="nonzero" fill-opacity="1" /><path clip-path="url(#clip010)" d="M1329.82 1532.4 L1316.93 1549.74 L1330.49 1568.04 L1323.58 1568.04 L1313.21 1554.04 L1302.83 1568.04 L1295.92 1568.04 L1309.77 1549.39 L1297.1 1532.4 L1304.01 1532.4 L1313.46 1545.1 L1322.91 1532.4 L1329.82 1532.4 Z" fill="#000000" fill-rule="nonzero" fill-opacity="1" /><path clip-path="url(#clip010)" d="M1338.76 1532.4 L1344.62 1532.4 L1344.62 1568.04 L1338.76 1568.04 L1338.76 1532.4 M1338.76 1518.52 L1344.62 1518.52 L1344.62 1525.93 L1338.76 1525.93 L1338.76 1518.52 Z" fill="#000000" fill-rule="nonzero" fill-opacity="1" /><path clip-path="url(#clip010)" d="M1379.6 1533.45 L1379.6 1538.98 Q1377.12 1537.71 1374.44 1537.07 Q1371.77 1536.44 1368.91 1536.44 Q1364.55 1536.44 1362.35 1537.77 Q1360.19 1539.11 1360.19 1541.79 Q1360.19 1543.82 1361.74 1545 Q1363.3 1546.15 1368.01 1547.2 L1370.02 1547.64 Q1376.26 1548.98 1378.87 1551.43 Q1381.51 1553.85 1381.51 1558.21 Q1381.51 1563.17 1377.56 1566.07 Q1373.65 1568.97 1366.77 1568.97 Q1363.91 1568.97 1360.79 1568.39 Q1357.7 1567.85 1354.27 1566.74 L1354.27 1560.69 Q1357.51 1562.38 1360.66 1563.24 Q1363.81 1564.07 1366.9 1564.07 Q1371.04 1564.07 1373.27 1562.66 Q1375.49 1561.23 1375.49 1558.65 Q1375.49 1556.27 1373.87 1554.99 Q1372.28 1553.72 1366.84 1552.54 L1364.8 1552.07 Q1359.36 1550.92 1356.94 1548.56 Q1354.52 1546.18 1354.52 1542.04 Q1354.52 1537.01 1358.08 1534.27 Q1361.65 1531.54 1368.21 1531.54 Q1371.45 1531.54 1374.32 1532.01 Q1377.18 1532.49 1379.6 1533.45 Z" fill="#000000" fill-rule="nonzero" fill-opacity="1" /><polyline clip-path="url(#clip010)" style="stroke:#000000; stroke-linecap:round; stroke-linejoin:round; stroke-width:4; stroke-opacity:1; fill:none" points="219.866,1423.18 219.866,123.472 "/>
<polyline clip-path="url(#clip010)" style="stroke:#000000; stroke-linecap:round; stroke-linejoin:round; stroke-width:4; stroke-opacity:1; fill:none" points="219.866,1401.07 238.764,1401.07 "/>
<polyline clip-path="url(#clip010)" style="stroke:#000000; stroke-linecap:round; stroke-linejoin:round; stroke-width:4; stroke-opacity:1; fill:none" points="219.866,1107.7 238.764,1107.7 "/>
<polyline clip-path="url(#clip010)" style="stroke:#000000; stroke-linecap:round; stroke-linejoin:round; stroke-width:4; stroke-opacity:1; fill:none" points="219.866,814.327 238.764,814.327 "/>
<polyline clip-path="url(#clip010)" style="stroke:#000000; stroke-linecap:round; stroke-linejoin:round; stroke-width:4; stroke-opacity:1; fill:none" points="219.866,520.953 238.764,520.953 "/>
<polyline clip-path="url(#clip010)" style="stroke:#000000; stroke-linecap:round; stroke-linejoin:round; stroke-width:4; stroke-opacity:1; fill:none" points="219.866,227.579 238.764,227.579 "/>
<path clip-path="url(#clip010)" d="M126.691 1386.87 Q123.08 1386.87 121.251 1390.44 Q119.445 1393.98 119.445 1401.11 Q119.445 1408.22 121.251 1411.78 Q123.08 1415.32 126.691 1415.32 Q130.325 1415.32 132.13 1411.78 Q133.959 1408.22 133.959 1401.11 Q133.959 1393.98 132.13 1390.44 Q130.325 1386.87 126.691 1386.87 M126.691 1383.17 Q132.501 1383.17 135.556 1387.78 Q138.635 1392.36 138.635 1401.11 Q138.635 1409.84 135.556 1414.44 Q132.501 1419.03 126.691 1419.03 Q120.88 1419.03 117.802 1414.44 Q114.746 1409.84 114.746 1401.11 Q114.746 1392.36 117.802 1387.78 Q120.88 1383.17 126.691 1383.17 Z" fill="#000000" fill-rule="nonzero" fill-opacity="1" /><path clip-path="url(#clip010)" d="M146.853 1412.47 L151.737 1412.47 L151.737 1418.35 L146.853 1418.35 L146.853 1412.47 Z" fill="#000000" fill-rule="nonzero" fill-opacity="1" /><path clip-path="url(#clip010)" d="M171.922 1386.87 Q168.311 1386.87 166.482 1390.44 Q164.677 1393.98 164.677 1401.11 Q164.677 1408.22 166.482 1411.78 Q168.311 1415.32 171.922 1415.32 Q175.556 1415.32 177.362 1411.78 Q179.19 1408.22 179.19 1401.11 Q179.19 1393.98 177.362 1390.44 Q175.556 1386.87 171.922 1386.87 M171.922 1383.17 Q177.732 1383.17 180.788 1387.78 Q183.866 1392.36 183.866 1401.11 Q183.866 1409.84 180.788 1414.44 Q177.732 1419.03 171.922 1419.03 Q166.112 1419.03 163.033 1414.44 Q159.978 1409.84 159.978 1401.11 Q159.978 1392.36 163.033 1387.78 Q166.112 1383.17 171.922 1383.17 Z" fill="#000000" fill-rule="nonzero" fill-opacity="1" /><path clip-path="url(#clip010)" d="M128.288 1093.5 Q124.677 1093.5 122.848 1097.06 Q121.043 1100.61 121.043 1107.74 Q121.043 1114.84 122.848 1118.41 Q124.677 1121.95 128.288 1121.95 Q131.922 1121.95 133.728 1118.41 Q135.556 1114.84 135.556 1107.74 Q135.556 1100.61 133.728 1097.06 Q131.922 1093.5 128.288 1093.5 M128.288 1089.8 Q134.098 1089.8 137.154 1094.4 Q140.232 1098.99 140.232 1107.74 Q140.232 1116.46 137.154 1121.07 Q134.098 1125.65 128.288 1125.65 Q122.478 1125.65 119.399 1121.07 Q116.343 1116.46 116.343 1107.74 Q116.343 1098.99 119.399 1094.4 Q122.478 1089.8 128.288 1089.8 Z" fill="#000000" fill-rule="nonzero" fill-opacity="1" /><path clip-path="url(#clip010)" d="M148.45 1119.1 L153.334 1119.1 L153.334 1124.98 L148.45 1124.98 L148.45 1119.1 Z" fill="#000000" fill-rule="nonzero" fill-opacity="1" /><path clip-path="url(#clip010)" d="M167.547 1121.05 L183.866 1121.05 L183.866 1124.98 L161.922 1124.98 L161.922 1121.05 Q164.584 1118.29 169.167 1113.66 Q173.774 1109.01 174.954 1107.67 Q177.2 1105.14 178.079 1103.41 Q178.982 1101.65 178.982 1099.96 Q178.982 1097.2 177.038 1095.47 Q175.116 1093.73 172.014 1093.73 Q169.815 1093.73 167.362 1094.49 Q164.931 1095.26 162.153 1096.81 L162.153 1092.09 Q164.977 1090.95 167.431 1090.37 Q169.885 1089.8 171.922 1089.8 Q177.292 1089.8 180.487 1092.48 Q183.681 1095.17 183.681 1099.66 Q183.681 1101.79 182.871 1103.71 Q182.084 1105.61 179.977 1108.2 Q179.399 1108.87 176.297 1112.09 Q173.195 1115.28 167.547 1121.05 Z" fill="#000000" fill-rule="nonzero" fill-opacity="1" /><path clip-path="url(#clip010)" d="M126.205 800.126 Q122.593 800.126 120.765 803.69 Q118.959 807.232 118.959 814.362 Q118.959 821.468 120.765 825.033 Q122.593 828.575 126.205 828.575 Q129.839 828.575 131.644 825.033 Q133.473 821.468 133.473 814.362 Q133.473 807.232 131.644 803.69 Q129.839 800.126 126.205 800.126 M126.205 796.422 Q132.015 796.422 135.07 801.028 Q138.149 805.612 138.149 814.362 Q138.149 823.088 135.07 827.695 Q132.015 832.278 126.205 832.278 Q120.394 832.278 117.316 827.695 Q114.26 823.088 114.26 814.362 Q114.26 805.612 117.316 801.028 Q120.394 796.422 126.205 796.422 Z" fill="#000000" fill-rule="nonzero" fill-opacity="1" /><path clip-path="url(#clip010)" d="M146.366 825.727 L151.251 825.727 L151.251 831.607 L146.366 831.607 L146.366 825.727 Z" fill="#000000" fill-rule="nonzero" fill-opacity="1" /><path clip-path="url(#clip010)" d="M174.283 801.121 L162.477 819.57 L174.283 819.57 L174.283 801.121 M173.056 797.047 L178.936 797.047 L178.936 819.57 L183.866 819.57 L183.866 823.459 L178.936 823.459 L178.936 831.607 L174.283 831.607 L174.283 823.459 L158.681 823.459 L158.681 818.945 L173.056 797.047 Z" fill="#000000" fill-rule="nonzero" fill-opacity="1" /><path clip-path="url(#clip010)" d="M126.529 506.752 Q122.918 506.752 121.089 510.317 Q119.283 513.858 119.283 520.988 Q119.283 528.094 121.089 531.659 Q122.918 535.201 126.529 535.201 Q130.163 535.201 131.968 531.659 Q133.797 528.094 133.797 520.988 Q133.797 513.858 131.968 510.317 Q130.163 506.752 126.529 506.752 M126.529 503.048 Q132.339 503.048 135.394 507.655 Q138.473 512.238 138.473 520.988 Q138.473 529.715 135.394 534.321 Q132.339 538.904 126.529 538.904 Q120.718 538.904 117.64 534.321 Q114.584 529.715 114.584 520.988 Q114.584 512.238 117.64 507.655 Q120.718 503.048 126.529 503.048 Z" fill="#000000" fill-rule="nonzero" fill-opacity="1" /><path clip-path="url(#clip010)" d="M146.691 532.353 L151.575 532.353 L151.575 538.233 L146.691 538.233 L146.691 532.353 Z" fill="#000000" fill-rule="nonzero" fill-opacity="1" /><path clip-path="url(#clip010)" d="M172.339 519.09 Q169.19 519.09 167.339 521.242 Q165.51 523.395 165.51 527.145 Q165.51 530.872 167.339 533.048 Q169.19 535.201 172.339 535.201 Q175.487 535.201 177.315 533.048 Q179.167 530.872 179.167 527.145 Q179.167 523.395 177.315 521.242 Q175.487 519.09 172.339 519.09 M181.621 504.437 L181.621 508.696 Q179.862 507.863 178.056 507.423 Q176.274 506.983 174.514 506.983 Q169.885 506.983 167.431 510.108 Q165.001 513.233 164.653 519.553 Q166.019 517.539 168.079 516.474 Q170.139 515.386 172.616 515.386 Q177.825 515.386 180.834 518.557 Q183.866 521.705 183.866 527.145 Q183.866 532.469 180.718 535.687 Q177.57 538.904 172.339 538.904 Q166.343 538.904 163.172 534.321 Q160.001 529.715 160.001 520.988 Q160.001 512.793 163.89 507.932 Q167.778 503.048 174.329 503.048 Q176.089 503.048 177.871 503.395 Q179.676 503.743 181.621 504.437 Z" fill="#000000" fill-rule="nonzero" fill-opacity="1" /><path clip-path="url(#clip010)" d="M126.783 213.378 Q123.172 213.378 121.343 216.943 Q119.538 220.484 119.538 227.614 Q119.538 234.72 121.343 238.285 Q123.172 241.827 126.783 241.827 Q130.417 241.827 132.223 238.285 Q134.052 234.72 134.052 227.614 Q134.052 220.484 132.223 216.943 Q130.417 213.378 126.783 213.378 M126.783 209.674 Q132.593 209.674 135.649 214.281 Q138.728 218.864 138.728 227.614 Q138.728 236.341 135.649 240.947 Q132.593 245.531 126.783 245.531 Q120.973 245.531 117.894 240.947 Q114.839 236.341 114.839 227.614 Q114.839 218.864 117.894 214.281 Q120.973 209.674 126.783 209.674 Z" fill="#000000" fill-rule="nonzero" fill-opacity="1" /><path clip-path="url(#clip010)" d="M146.945 238.98 L151.829 238.98 L151.829 244.859 L146.945 244.859 L146.945 238.98 Z" fill="#000000" fill-rule="nonzero" fill-opacity="1" /><path clip-path="url(#clip010)" d="M172.014 228.447 Q168.681 228.447 166.76 230.23 Q164.862 232.012 164.862 235.137 Q164.862 238.262 166.76 240.044 Q168.681 241.827 172.014 241.827 Q175.348 241.827 177.269 240.044 Q179.19 238.239 179.19 235.137 Q179.19 232.012 177.269 230.23 Q175.371 228.447 172.014 228.447 M167.339 226.457 Q164.329 225.716 162.64 223.656 Q160.973 221.595 160.973 218.633 Q160.973 214.489 163.913 212.082 Q166.876 209.674 172.014 209.674 Q177.176 209.674 180.116 212.082 Q183.056 214.489 183.056 218.633 Q183.056 221.595 181.366 223.656 Q179.7 225.716 176.714 226.457 Q180.093 227.244 181.968 229.535 Q183.866 231.827 183.866 235.137 Q183.866 240.16 180.788 242.845 Q177.732 245.531 172.014 245.531 Q166.297 245.531 163.218 242.845 Q160.163 240.16 160.163 235.137 Q160.163 231.827 162.061 229.535 Q163.959 227.244 167.339 226.457 M165.626 219.072 Q165.626 221.758 167.292 223.262 Q168.982 224.767 172.014 224.767 Q175.024 224.767 176.714 223.262 Q178.426 221.758 178.426 219.072 Q178.426 216.387 176.714 214.883 Q175.024 213.378 172.014 213.378 Q168.982 213.378 167.292 214.883 Q165.626 216.387 165.626 219.072 Z" fill="#000000" fill-rule="nonzero" fill-opacity="1" /><path clip-path="url(#clip010)" d="M16.4842 864.897 L16.4842 857.99 L36.0269 844.813 L16.4842 831.731 L16.4842 824.825 L41.3741 841.63 L64.0042 841.63 L64.0042 848.091 L41.3741 848.091 L16.4842 864.897 Z" fill="#000000" fill-rule="nonzero" fill-opacity="1" /><path clip-path="url(#clip010)" d="M43.5384 829.503 L43.5384 812.348 L48.7583 812.348 L48.7583 829.503 L43.5384 829.503 Z" fill="#000000" fill-rule="nonzero" fill-opacity="1" /><path clip-path="url(#clip010)" d="M46.0847 786.821 Q46.0847 793.919 47.7079 796.656 Q49.3312 799.394 53.2461 799.394 Q56.3653 799.394 58.2114 797.357 Q60.0256 795.288 60.0256 791.755 Q60.0256 786.885 56.5881 783.957 Q53.1188 780.997 47.3897 780.997 L46.0847 780.997 L46.0847 786.821 M43.6657 775.14 L64.0042 775.14 L64.0042 780.997 L58.5933 780.997 Q61.8398 783.002 63.3994 785.994 Q64.9272 788.986 64.9272 793.314 Q64.9272 798.789 61.8716 802.035 Q58.7843 805.25 53.6281 805.25 Q47.6125 805.25 44.5569 801.24 Q41.5014 797.197 41.5014 789.208 L41.5014 780.997 L40.9285 780.997 Q36.8862 780.997 34.6901 783.67 Q32.4621 786.312 32.4621 791.118 Q32.4621 794.174 33.1941 797.07 Q33.9262 799.966 35.3903 802.64 L29.9795 802.64 Q28.7381 799.425 28.1334 796.402 Q27.4968 793.378 27.4968 790.513 Q27.4968 782.779 31.5072 778.96 Q35.5176 775.14 43.6657 775.14 Z" fill="#000000" fill-rule="nonzero" fill-opacity="1" /><path clip-path="url(#clip010)" d="M28.3562 733.445 L45.7028 746.335 L64.0042 732.776 L64.0042 739.683 L49.9996 750.059 L64.0042 760.435 L64.0042 767.342 L45.3526 753.497 L28.3562 766.165 L28.3562 759.258 L41.0558 749.805 L28.3562 740.352 L28.3562 733.445 Z" fill="#000000" fill-rule="nonzero" fill-opacity="1" /><path clip-path="url(#clip010)" d="M28.3562 724.501 L28.3562 718.645 L64.0042 718.645 L64.0042 724.501 L28.3562 724.501 M14.479 724.501 L14.479 718.645 L21.895 718.645 L21.895 724.501 L14.479 724.501 Z" fill="#000000" fill-rule="nonzero" fill-opacity="1" /><path clip-path="url(#clip010)" d="M29.4065 683.665 L34.9447 683.665 Q33.6716 686.148 33.035 688.821 Q32.3984 691.495 32.3984 694.359 Q32.3984 698.72 33.7352 700.916 Q35.072 703.08 37.7456 703.08 Q39.7826 703.08 40.9603 701.521 Q42.1061 699.961 43.1565 695.251 L43.6021 693.245 Q44.9389 687.007 47.3897 684.397 Q49.8086 681.755 54.1691 681.755 Q59.1344 681.755 62.0308 685.702 Q64.9272 689.617 64.9272 696.492 Q64.9272 699.356 64.3543 702.476 Q63.8132 705.563 62.6992 709.001 L56.6518 709.001 Q58.3387 705.754 59.198 702.603 Q60.0256 699.452 60.0256 696.365 Q60.0256 692.227 58.6251 689.999 Q57.1929 687.771 54.6147 687.771 Q52.2276 687.771 50.9545 689.394 Q49.6813 690.986 48.5037 696.428 L48.0262 698.465 Q46.8804 703.908 44.5251 706.327 Q42.138 708.746 38.0002 708.746 Q32.9713 708.746 30.2341 705.181 Q27.4968 701.616 27.4968 695.06 Q27.4968 691.813 27.9743 688.949 Q28.4517 686.084 29.4065 683.665 Z" fill="#000000" fill-rule="nonzero" fill-opacity="1" /><path clip-path="url(#clip010)" d="M903.339 16.7545 L903.339 25.383 Q899.207 21.5346 894.508 19.6307 Q889.849 17.7268 884.583 17.7268 Q874.213 17.7268 868.703 24.0867 Q863.194 30.4061 863.194 42.3968 Q863.194 54.3469 868.703 60.7069 Q874.213 67.0263 884.583 67.0263 Q889.849 67.0263 894.508 65.1223 Q899.207 63.2184 903.339 59.3701 L903.339 67.9175 Q899.045 70.8341 894.224 72.2924 Q889.444 73.7508 884.097 73.7508 Q870.364 73.7508 862.465 65.3654 Q854.566 56.9395 854.566 42.3968 Q854.566 27.8135 862.465 19.4281 Q870.364 11.0023 884.097 11.0023 Q889.525 11.0023 894.305 12.4606 Q899.126 13.8784 903.339 16.7545 Z" fill="#000000" fill-rule="nonzero" fill-opacity="1" /><path clip-path="url(#clip010)" d="M914.884 54.671 L914.884 27.2059 L922.337 27.2059 L922.337 54.3874 Q922.337 60.8284 924.849 64.0691 Q927.36 67.2693 932.384 67.2693 Q938.419 67.2693 941.903 63.421 Q945.427 59.5726 945.427 52.9291 L945.427 27.2059 L952.881 27.2059 L952.881 72.576 L945.427 72.576 L945.427 65.6084 Q942.713 69.7404 939.108 71.7658 Q935.543 73.7508 930.804 73.7508 Q922.985 73.7508 918.935 68.8897 Q914.884 64.0286 914.884 54.671 M933.639 26.1121 L933.639 26.1121 Z" fill="#000000" fill-rule="nonzero" fill-opacity="1" /><path clip-path="url(#clip010)" d="M997.158 28.5427 L997.158 35.5912 Q993.998 33.9709 990.595 33.1607 Q987.192 32.3505 983.547 32.3505 Q977.997 32.3505 975.202 34.0519 Q972.447 35.7533 972.447 39.156 Q972.447 41.7486 974.432 43.2475 Q976.417 44.7058 982.412 46.0426 L984.964 46.6097 Q992.904 48.3111 996.226 51.4303 Q999.588 54.509 999.588 60.0587 Q999.588 66.3781 994.565 70.0644 Q989.582 73.7508 980.832 73.7508 Q977.187 73.7508 973.217 73.0216 Q969.287 72.3329 964.912 70.9151 L964.912 63.2184 Q969.044 65.3654 973.055 66.4591 Q977.065 67.5124 980.994 67.5124 Q986.261 67.5124 989.096 65.73 Q991.932 63.9071 991.932 60.6258 Q991.932 57.5877 989.866 55.9673 Q987.84 54.3469 980.913 52.8481 L978.321 52.2405 Q971.394 50.7821 968.315 47.7845 Q965.236 44.7463 965.236 39.4801 Q965.236 33.0797 969.773 29.5959 Q974.31 26.1121 982.655 26.1121 Q986.787 26.1121 990.433 26.7198 Q994.079 27.3274 997.158 28.5427 Z" fill="#000000" fill-rule="nonzero" fill-opacity="1" /><path clip-path="url(#clip010)" d="M1018.83 14.324 L1018.83 27.2059 L1034.18 27.2059 L1034.18 32.9987 L1018.83 32.9987 L1018.83 57.6282 Q1018.83 63.1779 1020.33 64.7578 Q1021.87 66.3376 1026.53 66.3376 L1034.18 66.3376 L1034.18 72.576 L1026.53 72.576 Q1017.9 72.576 1014.62 69.3758 Q1011.34 66.1351 1011.34 57.6282 L1011.34 32.9987 L1005.87 32.9987 L1005.87 27.2059 L1011.34 27.2059 L1011.34 14.324 L1018.83 14.324 Z" fill="#000000" fill-rule="nonzero" fill-opacity="1" /><path clip-path="url(#clip010)" d="M1061.57 32.4315 Q1055.57 32.4315 1052.09 37.1306 Q1048.6 41.7891 1048.6 49.9314 Q1048.6 58.0738 1052.05 62.7728 Q1055.53 67.4314 1061.57 67.4314 Q1067.52 67.4314 1071.01 62.7323 Q1074.49 58.0333 1074.49 49.9314 Q1074.49 41.8701 1071.01 37.1711 Q1067.52 32.4315 1061.57 32.4315 M1061.57 26.1121 Q1071.29 26.1121 1076.84 32.4315 Q1082.39 38.7509 1082.39 49.9314 Q1082.39 61.0714 1076.84 67.4314 Q1071.29 73.7508 1061.57 73.7508 Q1051.8 73.7508 1046.25 67.4314 Q1040.75 61.0714 1040.75 49.9314 Q1040.75 38.7509 1046.25 32.4315 Q1051.8 26.1121 1061.57 26.1121 Z" fill="#000000" fill-rule="nonzero" fill-opacity="1" /><path clip-path="url(#clip010)" d="M1130.07 35.9153 Q1132.86 30.8922 1136.75 28.5022 Q1140.64 26.1121 1145.91 26.1121 Q1153 26.1121 1156.84 31.0947 Q1160.69 36.0368 1160.69 45.1919 L1160.69 72.576 L1153.2 72.576 L1153.2 45.4349 Q1153.2 38.913 1150.89 35.7533 Q1148.58 32.5936 1143.84 32.5936 Q1138.05 32.5936 1134.69 36.4419 Q1131.32 40.2903 1131.32 46.9338 L1131.32 72.576 L1123.83 72.576 L1123.83 45.4349 Q1123.83 38.8725 1121.52 35.7533 Q1119.21 32.5936 1114.39 32.5936 Q1108.68 32.5936 1105.32 36.4824 Q1101.95 40.3308 1101.95 46.9338 L1101.95 72.576 L1094.46 72.576 L1094.46 27.2059 L1101.95 27.2059 L1101.95 34.2544 Q1104.51 30.082 1108.07 28.0971 Q1111.64 26.1121 1116.54 26.1121 Q1121.48 26.1121 1124.92 28.6237 Q1128.41 31.1352 1130.07 35.9153 Z" fill="#000000" fill-rule="nonzero" fill-opacity="1" /><path clip-path="url(#clip010)" d="M1175.56 27.2059 L1183.01 27.2059 L1183.01 72.576 L1175.56 72.576 L1175.56 27.2059 M1175.56 9.54393 L1183.01 9.54393 L1183.01 18.9825 L1175.56 18.9825 L1175.56 9.54393 Z" fill="#000000" fill-rule="nonzero" fill-opacity="1" /><path clip-path="url(#clip010)" d="M1195.37 27.2059 L1230.77 27.2059 L1230.77 34.0114 L1202.74 66.6212 L1230.77 66.6212 L1230.77 72.576 L1194.36 72.576 L1194.36 65.7705 L1222.39 33.1607 L1195.37 33.1607 L1195.37 27.2059 Z" fill="#000000" fill-rule="nonzero" fill-opacity="1" /><path clip-path="url(#clip010)" d="M1280.96 48.0275 L1280.96 51.6733 L1246.69 51.6733 Q1247.18 59.3701 1251.31 63.421 Q1255.48 67.4314 1262.9 67.4314 Q1267.19 67.4314 1271.2 66.3781 Q1275.25 65.3249 1279.22 63.2184 L1279.22 70.267 Q1275.21 71.9684 1271 72.8596 Q1266.79 73.7508 1262.45 73.7508 Q1251.59 73.7508 1245.23 67.4314 Q1238.92 61.1119 1238.92 50.3365 Q1238.92 39.1965 1244.91 32.6746 Q1250.95 26.1121 1261.15 26.1121 Q1270.31 26.1121 1275.62 32.0264 Q1280.96 37.9003 1280.96 48.0275 M1273.51 45.84 Q1273.43 39.7232 1270.07 36.0774 Q1266.75 32.4315 1261.24 32.4315 Q1255 32.4315 1251.23 35.9558 Q1247.5 39.4801 1246.94 45.8805 L1273.51 45.84 Z" fill="#000000" fill-rule="nonzero" fill-opacity="1" /><path clip-path="url(#clip010)" d="M1323.05 34.0924 L1323.05 9.54393 L1330.51 9.54393 L1330.51 72.576 L1323.05 72.576 L1323.05 65.7705 Q1320.7 69.8214 1317.1 71.8063 Q1313.53 73.7508 1308.51 73.7508 Q1300.29 73.7508 1295.1 67.1883 Q1289.96 60.6258 1289.96 49.9314 Q1289.96 39.2371 1295.1 32.6746 Q1300.29 26.1121 1308.51 26.1121 Q1313.53 26.1121 1317.1 28.0971 Q1320.7 30.0415 1323.05 34.0924 M1297.65 49.9314 Q1297.65 58.1548 1301.02 62.8538 Q1304.42 67.5124 1310.33 67.5124 Q1316.25 67.5124 1319.65 62.8538 Q1323.05 58.1548 1323.05 49.9314 Q1323.05 41.7081 1319.65 37.0496 Q1316.25 32.3505 1310.33 32.3505 Q1304.42 32.3505 1301.02 37.0496 Q1297.65 41.7081 1297.65 49.9314 Z" fill="#000000" fill-rule="nonzero" fill-opacity="1" /><path clip-path="url(#clip010)" d="M1372.55 12.096 L1380.74 12.096 L1380.74 65.6895 L1410.19 65.6895 L1410.19 72.576 L1372.55 72.576 L1372.55 12.096 Z" fill="#000000" fill-rule="nonzero" fill-opacity="1" /><path clip-path="url(#clip010)" d="M1418.45 27.2059 L1425.91 27.2059 L1425.91 72.576 L1418.45 72.576 L1418.45 27.2059 M1418.45 9.54393 L1425.91 9.54393 L1425.91 18.9825 L1418.45 18.9825 L1418.45 9.54393 Z" fill="#000000" fill-rule="nonzero" fill-opacity="1" /><path clip-path="url(#clip010)" d="M1479.22 45.1919 L1479.22 72.576 L1471.76 72.576 L1471.76 45.4349 Q1471.76 38.994 1469.25 35.7938 Q1466.74 32.5936 1461.72 32.5936 Q1455.68 32.5936 1452.2 36.4419 Q1448.71 40.2903 1448.71 46.9338 L1448.71 72.576 L1441.22 72.576 L1441.22 27.2059 L1448.71 27.2059 L1448.71 34.2544 Q1451.39 30.163 1454.99 28.1376 Q1458.64 26.1121 1463.38 26.1121 Q1471.19 26.1121 1475.2 30.9732 Q1479.22 35.7938 1479.22 45.1919 Z" fill="#000000" fill-rule="nonzero" fill-opacity="1" /><path clip-path="url(#clip010)" d="M1532.89 48.0275 L1532.89 51.6733 L1498.62 51.6733 Q1499.11 59.3701 1503.24 63.421 Q1507.41 67.4314 1514.82 67.4314 Q1519.12 67.4314 1523.13 66.3781 Q1527.18 65.3249 1531.15 63.2184 L1531.15 70.267 Q1527.14 71.9684 1522.92 72.8596 Q1518.71 73.7508 1514.38 73.7508 Q1503.52 73.7508 1497.16 67.4314 Q1490.84 61.1119 1490.84 50.3365 Q1490.84 39.1965 1496.84 32.6746 Q1502.87 26.1121 1513.08 26.1121 Q1522.24 26.1121 1527.54 32.0264 Q1532.89 37.9003 1532.89 48.0275 M1525.44 45.84 Q1525.35 39.7232 1521.99 36.0774 Q1518.67 32.4315 1513.16 32.4315 Q1506.92 32.4315 1503.16 35.9558 Q1499.43 39.4801 1498.86 45.8805 L1525.44 45.84 Z" fill="#000000" fill-rule="nonzero" fill-opacity="1" /><path clip-path="url(#clip010)" d="M1580 18.8205 L1580 41.5461 L1590.29 41.5461 Q1596 41.5461 1599.12 38.5889 Q1602.24 35.6318 1602.24 30.163 Q1602.24 24.7348 1599.12 21.7777 Q1596 18.8205 1590.29 18.8205 L1580 18.8205 M1571.82 12.096 L1590.29 12.096 Q1600.46 12.096 1605.64 16.714 Q1610.87 21.2916 1610.87 30.163 Q1610.87 39.1155 1605.64 43.6931 Q1600.46 48.2706 1590.29 48.2706 L1580 48.2706 L1580 72.576 L1571.82 72.576 L1571.82 12.096 Z" fill="#000000" fill-rule="nonzero" fill-opacity="1" /><path clip-path="url(#clip010)" d="M1621.52 9.54393 L1628.98 9.54393 L1628.98 72.576 L1621.52 72.576 L1621.52 9.54393 Z" fill="#000000" fill-rule="nonzero" fill-opacity="1" /><path clip-path="url(#clip010)" d="M1662.15 32.4315 Q1656.16 32.4315 1652.67 37.1306 Q1649.19 41.7891 1649.19 49.9314 Q1649.19 58.0738 1652.63 62.7728 Q1656.12 67.4314 1662.15 67.4314 Q1668.11 67.4314 1671.59 62.7323 Q1675.08 58.0333 1675.08 49.9314 Q1675.08 41.8701 1671.59 37.1711 Q1668.11 32.4315 1662.15 32.4315 M1662.15 26.1121 Q1671.88 26.1121 1677.43 32.4315 Q1682.98 38.7509 1682.98 49.9314 Q1682.98 61.0714 1677.43 67.4314 Q1671.88 73.7508 1662.15 73.7508 Q1652.39 73.7508 1646.84 67.4314 Q1641.33 61.0714 1641.33 49.9314 Q1641.33 38.7509 1646.84 32.4315 Q1652.39 26.1121 1662.15 26.1121 Z" fill="#000000" fill-rule="nonzero" fill-opacity="1" /><path clip-path="url(#clip010)" d="M1702.7 14.324 L1702.7 27.2059 L1718.06 27.2059 L1718.06 32.9987 L1702.7 32.9987 L1702.7 57.6282 Q1702.7 63.1779 1704.2 64.7578 Q1705.74 66.3376 1710.4 66.3376 L1718.06 66.3376 L1718.06 72.576 L1710.4 72.576 Q1701.77 72.576 1698.49 69.3758 Q1695.21 66.1351 1695.21 57.6282 L1695.21 32.9987 L1689.74 32.9987 L1689.74 27.2059 L1695.21 27.2059 L1695.21 14.324 L1702.7 14.324 Z" fill="#000000" fill-rule="nonzero" fill-opacity="1" /><polyline clip-path="url(#clip012)" style="stroke:#ff0000; stroke-linecap:round; stroke-linejoin:round; stroke-width:8; stroke-opacity:1; fill:none" stroke-dasharray="32, 20" points="280.231,1079.64 503.804,210.151 727.378,1196.17 950.951,160.256 1174.52,461.714 1398.1,374.92 1621.67,1204.69 1845.24,563.877 2068.82,1386.4 2292.39,1136.29 "/>
<circle clip-path="url(#clip012)" cx="280.231" cy="1079.64" r="28.8" fill="#ff0000" fill-rule="evenodd" fill-opacity="1" stroke="#000000" stroke-opacity="1" stroke-width="3.2"/>
<circle clip-path="url(#clip012)" cx="503.804" cy="210.151" r="28.8" fill="#ff0000" fill-rule="evenodd" fill-opacity="1" stroke="#000000" stroke-opacity="1" stroke-width="3.2"/>
<circle clip-path="url(#clip012)" cx="727.378" cy="1196.17" r="28.8" fill="#ff0000" fill-rule="evenodd" fill-opacity="1" stroke="#000000" stroke-opacity="1" stroke-width="3.2"/>
<circle clip-path="url(#clip012)" cx="950.951" cy="160.256" r="28.8" fill="#ff0000" fill-rule="evenodd" fill-opacity="1" stroke="#000000" stroke-opacity="1" stroke-width="3.2"/>
<circle clip-path="url(#clip012)" cx="1174.52" cy="461.714" r="28.8" fill="#ff0000" fill-rule="evenodd" fill-opacity="1" stroke="#000000" stroke-opacity="1" stroke-width="3.2"/>
<circle clip-path="url(#clip012)" cx="1398.1" cy="374.92" r="28.8" fill="#ff0000" fill-rule="evenodd" fill-opacity="1" stroke="#000000" stroke-opacity="1" stroke-width="3.2"/>
<circle clip-path="url(#clip012)" cx="1621.67" cy="1204.69" r="28.8" fill="#ff0000" fill-rule="evenodd" fill-opacity="1" stroke="#000000" stroke-opacity="1" stroke-width="3.2"/>
<circle clip-path="url(#clip012)" cx="1845.24" cy="563.877" r="28.8" fill="#ff0000" fill-rule="evenodd" fill-opacity="1" stroke="#000000" stroke-opacity="1" stroke-width="3.2"/>
<circle clip-path="url(#clip012)" cx="2068.82" cy="1386.4" r="28.8" fill="#ff0000" fill-rule="evenodd" fill-opacity="1" stroke="#000000" stroke-opacity="1" stroke-width="3.2"/>
<circle clip-path="url(#clip012)" cx="2292.39" cy="1136.29" r="28.8" fill="#ff0000" fill-rule="evenodd" fill-opacity="1" stroke="#000000" stroke-opacity="1" stroke-width="3.2"/>
<path clip-path="url(#clip010)" d="M2015.94 270.476 L2281.66 270.476 L2281.66 166.796 L2015.94 166.796  Z" fill="#ffffff" fill-rule="evenodd" fill-opacity="1"/>
<polyline clip-path="url(#clip010)" style="stroke:#000000; stroke-linecap:round; stroke-linejoin:round; stroke-width:4; stroke-opacity:1; fill:none" points="2015.94,270.476 2281.66,270.476 2281.66,166.796 2015.94,166.796 2015.94,270.476 "/>
<polyline clip-path="url(#clip010)" style="stroke:#ff0000; stroke-linecap:round; stroke-linejoin:round; stroke-width:8; stroke-opacity:1; fill:none" stroke-dasharray="32, 20" points="2039.64,218.636 2181.83,218.636 "/>
<circle clip-path="url(#clip010)" cx="2110.74" cy="218.636" r="19.749" fill="#ff0000" fill-rule="evenodd" fill-opacity="1" stroke="#000000" stroke-opacity="1" stroke-width="2.40941"/>
<path clip-path="url(#clip010)" d="M2219.37 238.323 Q2217.57 242.953 2215.85 244.365 Q2214.14 245.777 2211.27 245.777 L2207.87 245.777 L2207.87 242.212 L2210.37 242.212 Q2212.13 242.212 2213.1 241.379 Q2214.07 240.545 2215.25 237.443 L2216.02 235.499 L2205.53 209.99 L2210.04 209.99 L2218.15 230.268 L2226.25 209.99 L2230.76 209.99 L2219.37 238.323 Z" fill="#000000" fill-rule="nonzero" fill-opacity="1" /><path clip-path="url(#clip010)" d="M2238.05 231.981 L2245.69 231.981 L2245.69 205.615 L2237.38 207.282 L2237.38 203.022 L2245.65 201.356 L2250.32 201.356 L2250.32 231.981 L2257.96 231.981 L2257.96 235.916 L2238.05 235.916 L2238.05 231.981 Z" fill="#000000" fill-rule="nonzero" fill-opacity="1" /></svg>
