<?xml version="1.0" encoding="utf-8"?>
<svg xmlns="http://www.w3.org/2000/svg" xmlns:xlink="http://www.w3.org/1999/xlink" width="600" height="400" viewBox="0 0 2400 1600">
<defs>
  <clipPath id="clip130">
    <rect x="0" y="0" width="2400" height="1600"/>
  </clipPath>
</defs>
<path clip-path="url(#clip130)" d="M0 1600 L2400 1600 L2400 8.88178e-14 L0 8.88178e-14  Z" fill="#ffffff" fill-rule="evenodd" fill-opacity="1"/>
<defs>
  <clipPath id="clip131">
    <rect x="480" y="0" width="1681" height="1600"/>
  </clipPath>
</defs>
<path clip-path="url(#clip130)" d="M140.696 1486.45 L2352.76 1486.45 L2352.76 123.472 L140.696 123.472  Z" fill="#ffffff" fill-rule="evenodd" fill-opacity="1"/>
<defs>
  <clipPath id="clip132">
    <rect x="140" y="123" width="2213" height="1364"/>
  </clipPath>
</defs>
<polyline clip-path="url(#clip132)" style="stroke:#000000; stroke-linecap:round; stroke-linejoin:round; stroke-width:2; stroke-opacity:0.1; fill:none" points="469.597,1486.45 469.597,123.472 "/>
<polyline clip-path="url(#clip132)" style="stroke:#000000; stroke-linecap:round; stroke-linejoin:round; stroke-width:2; stroke-opacity:0.1; fill:none" points="987.683,1486.45 987.683,123.472 "/>
<polyline clip-path="url(#clip132)" style="stroke:#000000; stroke-linecap:round; stroke-linejoin:round; stroke-width:2; stroke-opacity:0.1; fill:none" points="1505.77,1486.45 1505.77,123.472 "/>
<polyline clip-path="url(#clip132)" style="stroke:#000000; stroke-linecap:round; stroke-linejoin:round; stroke-width:2; stroke-opacity:0.1; fill:none" points="2023.85,1486.45 2023.85,123.472 "/>
<polyline clip-path="url(#clip132)" style="stroke:#000000; stroke-linecap:round; stroke-linejoin:round; stroke-width:2; stroke-opacity:0.1; fill:none" points="140.696,1486.45 2352.76,1486.45 "/>
<polyline clip-path="url(#clip132)" style="stroke:#000000; stroke-linecap:round; stroke-linejoin:round; stroke-width:2; stroke-opacity:0.1; fill:none" points="140.696,1032.12 2352.76,1032.12 "/>
<polyline clip-path="url(#clip132)" style="stroke:#000000; stroke-linecap:round; stroke-linejoin:round; stroke-width:2; stroke-opacity:0.1; fill:none" points="140.696,577.797 2352.76,577.797 "/>
<polyline clip-path="url(#clip132)" style="stroke:#000000; stroke-linecap:round; stroke-linejoin:round; stroke-width:2; stroke-opacity:0.1; fill:none" points="140.696,123.472 2352.76,123.472 "/>
<polyline clip-path="url(#clip130)" style="stroke:#000000; stroke-linecap:round; stroke-linejoin:round; stroke-width:4; stroke-opacity:1; fill:none" points="140.696,1486.45 2352.76,1486.45 "/>
<polyline clip-path="url(#clip130)" style="stroke:#000000; stroke-linecap:round; stroke-linejoin:round; stroke-width:4; stroke-opacity:1; fill:none" points="469.597,1486.45 469.597,1467.55 "/>
<polyline clip-path="url(#clip130)" style="stroke:#000000; stroke-linecap:round; stroke-linejoin:round; stroke-width:4; stroke-opacity:1; fill:none" points="987.683,1486.45 987.683,1467.55 "/>
<polyline clip-path="url(#clip130)" style="stroke:#000000; stroke-linecap:round; stroke-linejoin:round; stroke-width:4; stroke-opacity:1; fill:none" points="1505.77,1486.45 1505.77,1467.55 "/>
<polyline clip-path="url(#clip130)" style="stroke:#000000; stroke-linecap:round; stroke-linejoin:round; stroke-width:4; stroke-opacity:1; fill:none" points="2023.85,1486.45 2023.85,1467.55 "/>
<path clip-path="url(#clip130)" d="M469.597 1518.89 L463.255 1536.09 L475.963 1536.09 L469.597 1518.89 M466.958 1514.29 L472.259 1514.29 L485.43 1548.85 L480.569 1548.85 L477.421 1539.98 L461.843 1539.98 L458.694 1548.85 L453.764 1548.85 L466.958 1514.29 Z" fill="#000000" fill-rule="nonzero" fill-opacity="1" /><path clip-path="url(#clip130)" d="M980.102 1532.34 L980.102 1545.01 L987.602 1545.01 Q991.375 1545.01 993.181 1543.45 Q995.009 1541.88 995.009 1538.66 Q995.009 1535.42 993.181 1533.89 Q991.375 1532.34 987.602 1532.34 L980.102 1532.34 M980.102 1518.13 L980.102 1528.55 L987.023 1528.55 Q990.449 1528.55 992.116 1527.27 Q993.806 1525.98 993.806 1523.34 Q993.806 1520.72 992.116 1519.43 Q990.449 1518.13 987.023 1518.13 L980.102 1518.13 M975.426 1514.29 L987.37 1514.29 Q992.718 1514.29 995.611 1516.51 Q998.505 1518.73 998.505 1522.83 Q998.505 1526 997.023 1527.88 Q995.542 1529.75 992.671 1530.21 Q996.12 1530.95 998.018 1533.32 Q999.94 1535.65 999.94 1539.17 Q999.94 1543.8 996.792 1546.32 Q993.643 1548.85 987.833 1548.85 L975.426 1548.85 L975.426 1514.29 Z" fill="#000000" fill-rule="nonzero" fill-opacity="1" /><path clip-path="url(#clip130)" d="M1519.7 1516.95 L1519.7 1521.88 Q1517.34 1519.68 1514.66 1518.59 Q1512 1517.51 1508.99 1517.51 Q1503.06 1517.51 1499.91 1521.14 Q1496.76 1524.75 1496.76 1531.6 Q1496.76 1538.43 1499.91 1542.07 Q1503.06 1545.68 1508.99 1545.68 Q1512 1545.68 1514.66 1544.59 Q1517.34 1543.5 1519.7 1541.3 L1519.7 1546.19 Q1517.25 1547.85 1514.5 1548.69 Q1511.76 1549.52 1508.71 1549.52 Q1500.86 1549.52 1496.35 1544.73 Q1491.83 1539.91 1491.83 1531.6 Q1491.83 1523.27 1496.35 1518.48 Q1500.86 1513.66 1508.71 1513.66 Q1511.81 1513.66 1514.54 1514.5 Q1517.3 1515.31 1519.7 1516.95 Z" fill="#000000" fill-rule="nonzero" fill-opacity="1" /><path clip-path="url(#clip130)" d="M2014 1518.13 L2014 1545.01 L2019.65 1545.01 Q2026.81 1545.01 2030.12 1541.76 Q2033.45 1538.52 2033.45 1531.53 Q2033.45 1524.59 2030.12 1521.37 Q2026.81 1518.13 2019.65 1518.13 L2014 1518.13 M2009.33 1514.29 L2018.94 1514.29 Q2028.98 1514.29 2033.68 1518.48 Q2038.38 1522.64 2038.38 1531.53 Q2038.38 1540.47 2033.66 1544.66 Q2028.94 1548.85 2018.94 1548.85 L2009.33 1548.85 L2009.33 1514.29 Z" fill="#000000" fill-rule="nonzero" fill-opacity="1" /><polyline clip-path="url(#clip130)" style="stroke:#000000; stroke-linecap:round; stroke-linejoin:round; stroke-width:4; stroke-opacity:1; fill:none" points="140.696,1486.45 140.696,123.472 "/>
<polyline clip-path="url(#clip130)" style="stroke:#000000; stroke-linecap:round; stroke-linejoin:round; stroke-width:4; stroke-opacity:1; fill:none" points="140.696,1486.45 159.593,1486.45 "/>
<polyline clip-path="url(#clip130)" style="stroke:#000000; stroke-linecap:round; stroke-linejoin:round; stroke-width:4; stroke-opacity:1; fill:none" points="140.696,1032.12 159.593,1032.12 "/>
<polyline clip-path="url(#clip130)" style="stroke:#000000; stroke-linecap:round; stroke-linejoin:round; stroke-width:4; stroke-opacity:1; fill:none" points="140.696,577.797 159.593,577.797 "/>
<polyline clip-path="url(#clip130)" style="stroke:#000000; stroke-linecap:round; stroke-linejoin:round; stroke-width:4; stroke-opacity:1; fill:none" points="140.696,123.472 159.593,123.472 "/>
<path clip-path="url(#clip130)" d="M92.7512 1472.25 Q89.1401 1472.25 87.3114 1475.81 Q85.5058 1479.35 85.5058 1486.48 Q85.5058 1493.59 87.3114 1497.15 Q89.1401 1500.7 92.7512 1500.7 Q96.3854 1500.7 98.1909 1497.15 Q100.02 1493.59 100.02 1486.48 Q100.02 1479.35 98.1909 1475.81 Q96.3854 1472.25 92.7512 1472.25 M92.7512 1468.54 Q98.5613 1468.54 101.617 1473.15 Q104.696 1477.73 104.696 1486.48 Q104.696 1495.21 101.617 1499.82 Q98.5613 1504.4 92.7512 1504.4 Q86.941 1504.4 83.8623 1499.82 Q80.8068 1495.21 80.8068 1486.48 Q80.8068 1477.73 83.8623 1473.15 Q86.941 1468.54 92.7512 1468.54 Z" fill="#000000" fill-rule="nonzero" fill-opacity="1" /><path clip-path="url(#clip130)" d="M53.3995 1045.47 L61.0384 1045.47 L61.0384 1019.1 L52.7282 1020.77 L52.7282 1016.51 L60.9921 1014.84 L65.668 1014.84 L65.668 1045.47 L73.3068 1045.47 L73.3068 1049.4 L53.3995 1049.4 L53.3995 1045.47 Z" fill="#000000" fill-rule="nonzero" fill-opacity="1" /><path clip-path="url(#clip130)" d="M92.7512 1017.92 Q89.1401 1017.92 87.3114 1021.49 Q85.5058 1025.03 85.5058 1032.16 Q85.5058 1039.26 87.3114 1042.83 Q89.1401 1046.37 92.7512 1046.37 Q96.3854 1046.37 98.1909 1042.83 Q100.02 1039.26 100.02 1032.16 Q100.02 1025.03 98.1909 1021.49 Q96.3854 1017.92 92.7512 1017.92 M92.7512 1014.22 Q98.5613 1014.22 101.617 1018.82 Q104.696 1023.41 104.696 1032.16 Q104.696 1040.88 101.617 1045.49 Q98.5613 1050.07 92.7512 1050.07 Q86.941 1050.07 83.8623 1045.49 Q80.8068 1040.88 80.8068 1032.16 Q80.8068 1023.41 83.8623 1018.82 Q86.941 1014.22 92.7512 1014.22 Z" fill="#000000" fill-rule="nonzero" fill-opacity="1" /><path clip-path="url(#clip130)" d="M56.6171 591.142 L72.9365 591.142 L72.9365 595.077 L50.9921 595.077 L50.9921 591.142 Q53.6541 588.388 58.2375 583.758 Q62.8439 579.105 64.0245 577.763 Q66.2698 575.24 67.1494 573.503 Q68.0522 571.744 68.0522 570.054 Q68.0522 567.3 66.1078 565.564 Q64.1865 563.828 61.0847 563.828 Q58.8856 563.828 56.4319 564.591 Q54.0014 565.355 51.2236 566.906 L51.2236 562.184 Q54.0477 561.05 56.5014 560.471 Q58.955 559.892 60.9921 559.892 Q66.3624 559.892 69.5568 562.578 Q72.7513 565.263 72.7513 569.753 Q72.7513 571.883 71.9411 573.804 Q71.1541 575.702 69.0476 578.295 Q68.4689 578.966 65.367 582.184 Q62.2652 585.378 56.6171 591.142 Z" fill="#000000" fill-rule="nonzero" fill-opacity="1" /><path clip-path="url(#clip130)" d="M92.7512 563.596 Q89.1401 563.596 87.3114 567.161 Q85.5058 570.703 85.5058 577.832 Q85.5058 584.939 87.3114 588.503 Q89.1401 592.045 92.7512 592.045 Q96.3854 592.045 98.1909 588.503 Q100.02 584.939 100.02 577.832 Q100.02 570.703 98.1909 567.161 Q96.3854 563.596 92.7512 563.596 M92.7512 559.892 Q98.5613 559.892 101.617 564.499 Q104.696 569.082 104.696 577.832 Q104.696 586.559 101.617 591.165 Q98.5613 595.749 92.7512 595.749 Q86.941 595.749 83.8623 591.165 Q80.8068 586.559 80.8068 577.832 Q80.8068 569.082 83.8623 564.499 Q86.941 559.892 92.7512 559.892 Z" fill="#000000" fill-rule="nonzero" fill-opacity="1" /><path clip-path="url(#clip130)" d="M66.7559 122.118 Q70.1124 122.836 71.9874 125.104 Q73.8855 127.373 73.8855 130.706 Q73.8855 135.822 70.367 138.623 Q66.8485 141.423 60.3671 141.423 Q58.1912 141.423 55.8764 140.984 Q53.5847 140.567 51.131 139.71 L51.131 135.197 Q53.0754 136.331 55.3903 136.91 Q57.7051 137.488 60.2282 137.488 Q64.6263 137.488 66.918 135.752 Q69.2328 134.016 69.2328 130.706 Q69.2328 127.65 67.08 125.937 Q64.9504 124.201 61.131 124.201 L57.1032 124.201 L57.1032 120.359 L61.3161 120.359 Q64.7652 120.359 66.5939 118.993 Q68.4226 117.604 68.4226 115.012 Q68.4226 112.35 66.5245 110.937 Q64.6495 109.502 61.131 109.502 Q59.2097 109.502 57.0106 109.919 Q54.8115 110.336 52.1727 111.215 L52.1727 107.049 Q54.8347 106.308 57.1495 105.937 Q59.4875 105.567 61.5476 105.567 Q66.8717 105.567 69.9735 107.998 Q73.0753 110.405 73.0753 114.525 Q73.0753 117.396 71.4318 119.386 Q69.7883 121.354 66.7559 122.118 Z" fill="#000000" fill-rule="nonzero" fill-opacity="1" /><path clip-path="url(#clip130)" d="M92.7512 109.271 Q89.1401 109.271 87.3114 112.836 Q85.5058 116.377 85.5058 123.507 Q85.5058 130.613 87.3114 134.178 Q89.1401 137.72 92.7512 137.72 Q96.3854 137.72 98.1909 134.178 Q100.02 130.613 100.02 123.507 Q100.02 116.377 98.1909 112.836 Q96.3854 109.271 92.7512 109.271 M92.7512 105.567 Q98.5613 105.567 101.617 110.174 Q104.696 114.757 104.696 123.507 Q104.696 132.234 101.617 136.84 Q98.5613 141.423 92.7512 141.423 Q86.941 141.423 83.8623 136.84 Q80.8068 132.234 80.8068 123.507 Q80.8068 114.757 83.8623 110.174 Q86.941 105.567 92.7512 105.567 Z" fill="#000000" fill-rule="nonzero" fill-opacity="1" /><path clip-path="url(#clip130)" d="M905.741 43.6931 L905.741 65.8515 L918.866 65.8515 Q925.469 65.8515 928.628 63.1374 Q931.829 60.3828 931.829 54.752 Q931.829 49.0808 928.628 46.4072 Q925.469 43.6931 918.866 43.6931 L905.741 43.6931 M905.741 18.8205 L905.741 37.0496 L917.853 37.0496 Q923.848 37.0496 926.765 34.8216 Q929.722 32.5531 929.722 27.935 Q929.722 23.3575 926.765 21.089 Q923.848 18.8205 917.853 18.8205 L905.741 18.8205 M897.558 12.096 L918.461 12.096 Q927.818 12.096 932.882 15.9849 Q937.946 19.8737 937.946 27.0438 Q937.946 32.5936 935.353 35.8748 Q932.76 39.156 927.737 39.9662 Q933.773 41.2625 937.095 45.3944 Q940.457 49.4858 940.457 55.6432 Q940.457 63.745 934.948 68.1605 Q929.439 72.576 919.271 72.576 L897.558 72.576 L897.558 12.096 Z" fill="#000000" fill-rule="nonzero" fill-opacity="1" /><path clip-path="url(#clip130)" d="M974.768 49.7694 Q965.735 49.7694 962.251 51.8354 Q958.767 53.9013 958.767 58.8839 Q958.767 62.8538 961.36 65.2034 Q963.993 67.5124 968.489 67.5124 Q974.687 67.5124 978.414 63.1374 Q982.181 58.7219 982.181 51.4303 L982.181 49.7694 L974.768 49.7694 M989.635 46.6907 L989.635 72.576 L982.181 72.576 L982.181 65.6895 Q979.629 69.8214 975.822 71.8063 Q972.014 73.7508 966.504 73.7508 Q959.537 73.7508 955.405 69.8619 Q951.314 65.9325 951.314 59.3701 Q951.314 51.7138 956.418 47.825 Q961.562 43.9361 971.73 43.9361 L982.181 43.9361 L982.181 43.2069 Q982.181 38.0623 978.779 35.2672 Q975.416 32.4315 969.3 32.4315 Q965.411 32.4315 961.724 33.3632 Q958.038 34.295 954.635 36.1584 L954.635 29.2718 Q958.727 27.692 962.575 26.9223 Q966.423 26.1121 970.069 26.1121 Q979.913 26.1121 984.774 31.2163 Q989.635 36.3204 989.635 46.6907 Z" fill="#000000" fill-rule="nonzero" fill-opacity="1" /><path clip-path="url(#clip130)" d="M1031.28 34.1734 Q1030.02 33.4443 1028.52 33.1202 Q1027.07 32.7556 1025.28 32.7556 Q1018.96 32.7556 1015.56 36.8875 Q1012.2 40.9789 1012.2 48.6757 L1012.2 72.576 L1004.7 72.576 L1004.7 27.2059 L1012.2 27.2059 L1012.2 34.2544 Q1014.55 30.1225 1018.32 28.1376 Q1022.08 26.1121 1027.47 26.1121 Q1028.24 26.1121 1029.17 26.2337 Q1030.1 26.3147 1031.24 26.5172 L1031.28 34.1734 Z" fill="#000000" fill-rule="nonzero" fill-opacity="1" /><path clip-path="url(#clip130)" d="M1073.97 18.8205 L1073.97 41.5461 L1084.26 41.5461 Q1089.98 41.5461 1093.1 38.5889 Q1096.21 35.6318 1096.21 30.163 Q1096.21 24.7348 1093.1 21.7777 Q1089.98 18.8205 1084.26 18.8205 L1073.97 18.8205 M1065.79 12.096 L1084.26 12.096 Q1094.43 12.096 1099.62 16.714 Q1104.84 21.2916 1104.84 30.163 Q1104.84 39.1155 1099.62 43.6931 Q1094.43 48.2706 1084.26 48.2706 L1073.97 48.2706 L1073.97 72.576 L1065.79 72.576 L1065.79 12.096 Z" fill="#000000" fill-rule="nonzero" fill-opacity="1" /><path clip-path="url(#clip130)" d="M1115.5 9.54393 L1122.95 9.54393 L1122.95 72.576 L1115.5 72.576 L1115.5 9.54393 Z" fill="#000000" fill-rule="nonzero" fill-opacity="1" /><path clip-path="url(#clip130)" d="M1156.13 32.4315 Q1150.13 32.4315 1146.65 37.1306 Q1143.16 41.7891 1143.16 49.9314 Q1143.16 58.0738 1146.61 62.7728 Q1150.09 67.4314 1156.13 67.4314 Q1162.08 67.4314 1165.57 62.7323 Q1169.05 58.0333 1169.05 49.9314 Q1169.05 41.8701 1165.57 37.1711 Q1162.08 32.4315 1156.13 32.4315 M1156.13 26.1121 Q1165.85 26.1121 1171.4 32.4315 Q1176.95 38.7509 1176.95 49.9314 Q1176.95 61.0714 1171.4 67.4314 Q1165.85 73.7508 1156.13 73.7508 Q1146.36 73.7508 1140.81 67.4314 Q1135.31 61.0714 1135.31 49.9314 Q1135.31 38.7509 1140.81 32.4315 Q1146.36 26.1121 1156.13 26.1121 Z" fill="#000000" fill-rule="nonzero" fill-opacity="1" /><path clip-path="url(#clip130)" d="M1196.68 14.324 L1196.68 27.2059 L1212.03 27.2059 L1212.03 32.9987 L1196.68 32.9987 L1196.68 57.6282 Q1196.68 63.1779 1198.18 64.7578 Q1199.71 66.3376 1204.37 66.3376 L1212.03 66.3376 L1212.03 72.576 L1204.37 72.576 Q1195.75 72.576 1192.46 69.3758 Q1189.18 66.1351 1189.18 57.6282 L1189.18 32.9987 L1183.71 32.9987 L1183.71 27.2059 L1189.18 27.2059 L1189.18 14.324 L1196.68 14.324 Z" fill="#000000" fill-rule="nonzero" fill-opacity="1" /><path clip-path="url(#clip130)" d="M1248.53 12.096 L1286.77 12.096 L1286.77 18.9825 L1256.71 18.9825 L1256.71 36.8875 L1285.51 36.8875 L1285.51 43.7741 L1256.71 43.7741 L1256.71 65.6895 L1287.5 65.6895 L1287.5 72.576 L1248.53 72.576 L1248.53 12.096 Z" fill="#000000" fill-rule="nonzero" fill-opacity="1" /><path clip-path="url(#clip130)" d="M1338.34 27.2059 L1321.93 49.2833 L1339.19 72.576 L1330.4 72.576 L1317.19 54.752 L1303.99 72.576 L1295.19 72.576 L1312.82 48.8377 L1296.69 27.2059 L1305.48 27.2059 L1317.52 43.369 L1329.55 27.2059 L1338.34 27.2059 Z" fill="#000000" fill-rule="nonzero" fill-opacity="1" /><path clip-path="url(#clip130)" d="M1370.34 49.7694 Q1361.31 49.7694 1357.82 51.8354 Q1354.34 53.9013 1354.34 58.8839 Q1354.34 62.8538 1356.93 65.2034 Q1359.56 67.5124 1364.06 67.5124 Q1370.26 67.5124 1373.98 63.1374 Q1377.75 58.7219 1377.75 51.4303 L1377.75 49.7694 L1370.34 49.7694 M1385.21 46.6907 L1385.21 72.576 L1377.75 72.576 L1377.75 65.6895 Q1375.2 69.8214 1371.39 71.8063 Q1367.58 73.7508 1362.08 73.7508 Q1355.11 73.7508 1350.98 69.8619 Q1346.88 65.9325 1346.88 59.3701 Q1346.88 51.7138 1351.99 47.825 Q1357.13 43.9361 1367.3 43.9361 L1377.75 43.9361 L1377.75 43.2069 Q1377.75 38.0623 1374.35 35.2672 Q1370.99 32.4315 1364.87 32.4315 Q1360.98 32.4315 1357.3 33.3632 Q1353.61 34.295 1350.21 36.1584 L1350.21 29.2718 Q1354.3 27.692 1358.15 26.9223 Q1361.99 26.1121 1365.64 26.1121 Q1375.48 26.1121 1380.34 31.2163 Q1385.21 36.3204 1385.21 46.6907 Z" fill="#000000" fill-rule="nonzero" fill-opacity="1" /><path clip-path="url(#clip130)" d="M1435.88 35.9153 Q1438.68 30.8922 1442.57 28.5022 Q1446.46 26.1121 1451.72 26.1121 Q1458.81 26.1121 1462.66 31.0947 Q1466.51 36.0368 1466.51 45.1919 L1466.51 72.576 L1459.01 72.576 L1459.01 45.4349 Q1459.01 38.913 1456.7 35.7533 Q1454.4 32.5936 1449.66 32.5936 Q1443.86 32.5936 1440.5 36.4419 Q1437.14 40.2903 1437.14 46.9338 L1437.14 72.576 L1429.64 72.576 L1429.64 45.4349 Q1429.64 38.8725 1427.34 35.7533 Q1425.03 32.5936 1420.21 32.5936 Q1414.49 32.5936 1411.13 36.4824 Q1407.77 40.3308 1407.77 46.9338 L1407.77 72.576 L1400.28 72.576 L1400.28 27.2059 L1407.77 27.2059 L1407.77 34.2544 Q1410.32 30.082 1413.89 28.0971 Q1417.45 26.1121 1422.35 26.1121 Q1427.29 26.1121 1430.74 28.6237 Q1434.22 31.1352 1435.88 35.9153 Z" fill="#000000" fill-rule="nonzero" fill-opacity="1" /><path clip-path="url(#clip130)" d="M1488.58 65.7705 L1488.58 89.8329 L1481.09 89.8329 L1481.09 27.2059 L1488.58 27.2059 L1488.58 34.0924 Q1490.93 30.0415 1494.5 28.0971 Q1498.1 26.1121 1503.09 26.1121 Q1511.35 26.1121 1516.5 32.6746 Q1521.68 39.2371 1521.68 49.9314 Q1521.68 60.6258 1516.5 67.1883 Q1511.35 73.7508 1503.09 73.7508 Q1498.1 73.7508 1494.5 71.8063 Q1490.93 69.8214 1488.58 65.7705 M1513.94 49.9314 Q1513.94 41.7081 1510.54 37.0496 Q1507.18 32.3505 1501.26 32.3505 Q1495.35 32.3505 1491.95 37.0496 Q1488.58 41.7081 1488.58 49.9314 Q1488.58 58.1548 1491.95 62.8538 Q1495.35 67.5124 1501.26 67.5124 Q1507.18 67.5124 1510.54 62.8538 Q1513.94 58.1548 1513.94 49.9314 Z" fill="#000000" fill-rule="nonzero" fill-opacity="1" /><path clip-path="url(#clip130)" d="M1534.04 9.54393 L1541.49 9.54393 L1541.49 72.576 L1534.04 72.576 L1534.04 9.54393 Z" fill="#000000" fill-rule="nonzero" fill-opacity="1" /><path clip-path="url(#clip130)" d="M1595.89 48.0275 L1595.89 51.6733 L1561.62 51.6733 Q1562.11 59.3701 1566.24 63.421 Q1570.41 67.4314 1577.83 67.4314 Q1582.12 67.4314 1586.13 66.3781 Q1590.18 65.3249 1594.15 63.2184 L1594.15 70.267 Q1590.14 71.9684 1585.93 72.8596 Q1581.72 73.7508 1577.38 73.7508 Q1566.52 73.7508 1560.16 67.4314 Q1553.85 61.1119 1553.85 50.3365 Q1553.85 39.1965 1559.84 32.6746 Q1565.88 26.1121 1576.08 26.1121 Q1585.24 26.1121 1590.55 32.0264 Q1595.89 37.9003 1595.89 48.0275 M1588.44 45.84 Q1588.36 39.7232 1585 36.0774 Q1581.67 32.4315 1576.17 32.4315 Q1569.93 32.4315 1566.16 35.9558 Q1562.43 39.4801 1561.87 45.8805 L1588.44 45.84 Z" fill="#000000" fill-rule="nonzero" fill-opacity="1" /><path clip-path="url(#clip132)" d="M262.363 804.96 L262.363 1486.45 L676.831 1486.45 L676.831 804.96 L262.363 804.96 L262.363 804.96  Z" fill="#009af9" fill-rule="evenodd" fill-opacity="1"/>
<polyline clip-path="url(#clip132)" style="stroke:#000000; stroke-linecap:round; stroke-linejoin:round; stroke-width:4; stroke-opacity:1; fill:none" points="262.363,804.96 262.363,1486.45 676.831,1486.45 676.831,804.96 262.363,804.96 "/>
<path clip-path="url(#clip132)" d="M780.449 441.5 L780.449 1486.45 L1194.92 1486.45 L1194.92 441.5 L780.449 441.5 L780.449 441.5  Z" fill="#009af9" fill-rule="evenodd" fill-opacity="1"/>
<polyline clip-path="url(#clip132)" style="stroke:#000000; stroke-linecap:round; stroke-linejoin:round; stroke-width:4; stroke-opacity:1; fill:none" points="780.449,441.5 780.449,1486.45 1194.92,1486.45 1194.92,441.5 780.449,441.5 "/>
<path clip-path="url(#clip132)" d="M1298.53 668.662 L1298.53 1486.45 L1713 1486.45 L1713 668.662 L1298.53 668.662 L1298.53 668.662  Z" fill="#009af9" fill-rule="evenodd" fill-opacity="1"/>
<polyline clip-path="url(#clip132)" style="stroke:#000000; stroke-linecap:round; stroke-linejoin:round; stroke-width:4; stroke-opacity:1; fill:none" points="1298.53,668.662 1298.53,1486.45 1713,1486.45 1713,668.662 1298.53,668.662 "/>
<path clip-path="url(#clip132)" d="M1816.62 123.472 L1816.62 1486.45 L2231.09 1486.45 L2231.09 123.472 L1816.62 123.472 L1816.62 123.472  Z" fill="#009af9" fill-rule="evenodd" fill-opacity="1"/>
<polyline clip-path="url(#clip132)" style="stroke:#000000; stroke-linecap:round; stroke-linejoin:round; stroke-width:4; stroke-opacity:1; fill:none" points="1816.62,123.472 1816.62,1486.45 2231.09,1486.45 2231.09,123.472 1816.62,123.472 "/>
<circle clip-path="url(#clip132)" style="fill:#009af9; stroke:none; fill-opacity:0" cx="469.597" cy="804.96" r="2"/>
<circle clip-path="url(#clip132)" style="fill:#009af9; stroke:none; fill-opacity:0" cx="987.683" cy="441.5" r="2"/>
<circle clip-path="url(#clip132)" style="fill:#009af9; stroke:none; fill-opacity:0" cx="1505.77" cy="668.662" r="2"/>
<circle clip-path="url(#clip132)" style="fill:#009af9; stroke:none; fill-opacity:0" cx="2023.85" cy="123.472" r="2"/>
<path clip-path="url(#clip130)" d="M214.431 272.585 L488.067 272.585 L488.067 168.905 L214.431 168.905  Z" fill="#ffffff" fill-rule="evenodd" fill-opacity="1"/>
<polyline clip-path="url(#clip130)" style="stroke:#000000; stroke-linecap:round; stroke-linejoin:round; stroke-width:4; stroke-opacity:1; fill:none" points="214.431,272.585 488.067,272.585 488.067,168.905 214.431,168.905 214.431,272.585 "/>
<path clip-path="url(#clip130)" d="M239.009 241.481 L386.48 241.481 L386.48 200.009 L239.009 200.009 L239.009 241.481  Z" fill="#009af9" fill-rule="evenodd" fill-opacity="1"/>
<polyline clip-path="url(#clip130)" style="stroke:#000000; stroke-linecap:round; stroke-linejoin:round; stroke-width:4; stroke-opacity:1; fill:none" points="239.009,241.481 386.48,241.481 386.48,200.009 239.009,200.009 239.009,241.481 "/>
<path clip-path="url(#clip130)" d="M424.901 240.432 Q423.095 245.062 421.382 246.474 Q419.67 247.886 416.799 247.886 L413.396 247.886 L413.396 244.321 L415.896 244.321 Q417.656 244.321 418.628 243.488 Q419.6 242.654 420.781 239.552 L421.545 237.608 L411.058 212.099 L415.572 212.099 L423.674 232.377 L431.776 212.099 L436.29 212.099 L424.901 240.432 Z" fill="#000000" fill-rule="nonzero" fill-opacity="1" /><path clip-path="url(#clip130)" d="M443.581 234.089 L451.22 234.089 L451.22 207.724 L442.91 209.391 L442.91 205.131 L451.174 203.465 L455.85 203.465 L455.85 234.089 L463.489 234.089 L463.489 238.025 L443.581 238.025 L443.581 234.089 Z" fill="#000000" fill-rule="nonzero" fill-opacity="1" /></svg>
