<?xml version="1.0" encoding="utf-8"?>
<svg xmlns="http://www.w3.org/2000/svg" xmlns:xlink="http://www.w3.org/1999/xlink" width="600" height="400" viewBox="0 0 2400 1600">
<defs>
  <clipPath id="clip950">
    <rect x="0" y="0" width="2400" height="1600"/>
  </clipPath>
</defs>
<path clip-path="url(#clip950)" d="M0 1600 L2400 1600 L2400 8.88178e-14 L0 8.88178e-14  Z" fill="#ffffff" fill-rule="evenodd" fill-opacity="1"/>
<defs>
  <clipPath id="clip951">
    <rect x="480" y="0" width="1681" height="1600"/>
  </clipPath>
</defs>
<path clip-path="url(#clip950)" d="M219.866 1423.18 L2352.76 1423.18 L2352.76 123.472 L219.866 123.472  Z" fill="#ffffff" fill-rule="evenodd" fill-opacity="1"/>
<defs>
  <clipPath id="clip952">
    <rect x="219" y="123" width="2134" height="1301"/>
  </clipPath>
</defs>
<polyline clip-path="url(#clip952)" style="stroke:#000000; stroke-linecap:round; stroke-linejoin:round; stroke-width:2; stroke-opacity:0.1; fill:none" points="503.804,1423.18 503.804,123.472 "/>
<polyline clip-path="url(#clip952)" style="stroke:#000000; stroke-linecap:round; stroke-linejoin:round; stroke-width:2; stroke-opacity:0.1; fill:none" points="950.951,1423.18 950.951,123.472 "/>
<polyline clip-path="url(#clip952)" style="stroke:#000000; stroke-linecap:round; stroke-linejoin:round; stroke-width:2; stroke-opacity:0.1; fill:none" points="1398.1,1423.18 1398.1,123.472 "/>
<polyline clip-path="url(#clip952)" style="stroke:#000000; stroke-linecap:round; stroke-linejoin:round; stroke-width:2; stroke-opacity:0.1; fill:none" points="1845.24,1423.18 1845.24,123.472 "/>
<polyline clip-path="url(#clip952)" style="stroke:#000000; stroke-linecap:round; stroke-linejoin:round; stroke-width:2; stroke-opacity:0.1; fill:none" points="2292.39,1423.18 2292.39,123.472 "/>
<polyline clip-path="url(#clip952)" style="stroke:#000000; stroke-linecap:round; stroke-linejoin:round; stroke-width:2; stroke-opacity:0.1; fill:none" points="219.866,1184.86 2352.76,1184.86 "/>
<polyline clip-path="url(#clip952)" style="stroke:#000000; stroke-linecap:round; stroke-linejoin:round; stroke-width:2; stroke-opacity:0.1; fill:none" points="219.866,920.61 2352.76,920.61 "/>
<polyline clip-path="url(#clip952)" style="stroke:#000000; stroke-linecap:round; stroke-linejoin:round; stroke-width:2; stroke-opacity:0.1; fill:none" points="219.866,656.365 2352.76,656.365 "/>
<polyline clip-path="url(#clip952)" style="stroke:#000000; stroke-linecap:round; stroke-linejoin:round; stroke-width:2; stroke-opacity:0.1; fill:none" points="219.866,392.12 2352.76,392.12 "/>
<polyline clip-path="url(#clip952)" style="stroke:#000000; stroke-linecap:round; stroke-linejoin:round; stroke-width:2; stroke-opacity:0.1; fill:none" points="219.866,127.875 2352.76,127.875 "/>
<polyline clip-path="url(#clip950)" style="stroke:#000000; stroke-linecap:round; stroke-linejoin:round; stroke-width:4; stroke-opacity:1; fill:none" points="219.866,1423.18 2352.76,1423.18 "/>
<polyline clip-path="url(#clip950)" style="stroke:#000000; stroke-linecap:round; stroke-linejoin:round; stroke-width:4; stroke-opacity:1; fill:none" points="503.804,1423.18 503.804,1404.28 "/>
<polyline clip-path="url(#clip950)" style="stroke:#000000; stroke-linecap:round; stroke-linejoin:round; stroke-width:4; stroke-opacity:1; fill:none" points="950.951,1423.18 950.951,1404.28 "/>
<polyline clip-path="url(#clip950)" style="stroke:#000000; stroke-linecap:round; stroke-linejoin:round; stroke-width:4; stroke-opacity:1; fill:none" points="1398.1,1423.18 1398.1,1404.28 "/>
<polyline clip-path="url(#clip950)" style="stroke:#000000; stroke-linecap:round; stroke-linejoin:round; stroke-width:4; stroke-opacity:1; fill:none" points="1845.24,1423.18 1845.24,1404.28 "/>
<polyline clip-path="url(#clip950)" style="stroke:#000000; stroke-linecap:round; stroke-linejoin:round; stroke-width:4; stroke-opacity:1; fill:none" points="2292.39,1423.18 2292.39,1404.28 "/>
<path clip-path="url(#clip950)" d="M498.457 1481.64 L514.777 1481.64 L514.777 1485.58 L492.832 1485.58 L492.832 1481.64 Q495.494 1478.89 500.078 1474.26 Q504.684 1469.61 505.865 1468.27 Q508.11 1465.74 508.99 1464.01 Q509.892 1462.25 509.892 1460.56 Q509.892 1457.8 507.948 1456.07 Q506.027 1454.33 502.925 1454.33 Q500.726 1454.33 498.272 1455.09 Q495.841 1455.86 493.064 1457.41 L493.064 1452.69 Q495.888 1451.55 498.341 1450.97 Q500.795 1450.39 502.832 1450.39 Q508.203 1450.39 511.397 1453.08 Q514.591 1455.77 514.591 1460.26 Q514.591 1462.39 513.781 1464.31 Q512.994 1466.2 510.888 1468.8 Q510.309 1469.47 507.207 1472.69 Q504.105 1475.88 498.457 1481.64 Z" fill="#000000" fill-rule="nonzero" fill-opacity="1" /><path clip-path="url(#clip950)" d="M953.96 1455.09 L942.155 1473.54 L953.96 1473.54 L953.96 1455.09 M952.733 1451.02 L958.613 1451.02 L958.613 1473.54 L963.544 1473.54 L963.544 1477.43 L958.613 1477.43 L958.613 1485.58 L953.96 1485.58 L953.96 1477.43 L938.359 1477.43 L938.359 1472.92 L952.733 1451.02 Z" fill="#000000" fill-rule="nonzero" fill-opacity="1" /><path clip-path="url(#clip950)" d="M1398.5 1466.44 Q1395.35 1466.44 1393.5 1468.59 Q1391.67 1470.74 1391.67 1474.49 Q1391.67 1478.22 1393.5 1480.39 Q1395.35 1482.55 1398.5 1482.55 Q1401.65 1482.55 1403.48 1480.39 Q1405.33 1478.22 1405.33 1474.49 Q1405.33 1470.74 1403.48 1468.59 Q1401.65 1466.44 1398.5 1466.44 M1407.79 1451.78 L1407.79 1456.04 Q1406.03 1455.21 1404.22 1454.77 Q1402.44 1454.33 1400.68 1454.33 Q1396.05 1454.33 1393.6 1457.45 Q1391.16 1460.58 1390.82 1466.9 Q1392.18 1464.89 1394.24 1463.82 Q1396.3 1462.73 1398.78 1462.73 Q1403.99 1462.73 1407 1465.9 Q1410.03 1469.05 1410.03 1474.49 Q1410.03 1479.82 1406.88 1483.03 Q1403.73 1486.25 1398.5 1486.25 Q1392.51 1486.25 1389.34 1481.67 Q1386.16 1477.06 1386.16 1468.33 Q1386.16 1460.14 1390.05 1455.28 Q1393.94 1450.39 1400.49 1450.39 Q1402.25 1450.39 1404.04 1450.74 Q1405.84 1451.09 1407.79 1451.78 Z" fill="#000000" fill-rule="nonzero" fill-opacity="1" /><path clip-path="url(#clip950)" d="M1845.24 1469.17 Q1841.91 1469.17 1839.99 1470.95 Q1838.09 1472.73 1838.09 1475.86 Q1838.09 1478.98 1839.99 1480.77 Q1841.91 1482.55 1845.24 1482.55 Q1848.58 1482.55 1850.5 1480.77 Q1852.42 1478.96 1852.42 1475.86 Q1852.42 1472.73 1850.5 1470.95 Q1848.6 1469.17 1845.24 1469.17 M1840.57 1467.18 Q1837.56 1466.44 1835.87 1464.38 Q1834.2 1462.32 1834.2 1459.35 Q1834.2 1455.21 1837.14 1452.8 Q1840.11 1450.39 1845.24 1450.39 Q1850.41 1450.39 1853.35 1452.8 Q1856.29 1455.21 1856.29 1459.35 Q1856.29 1462.32 1854.6 1464.38 Q1852.93 1466.44 1849.94 1467.18 Q1853.32 1467.96 1855.2 1470.26 Q1857.1 1472.55 1857.1 1475.86 Q1857.1 1480.88 1854.02 1483.57 Q1850.96 1486.25 1845.24 1486.25 Q1839.53 1486.25 1836.45 1483.57 Q1833.39 1480.88 1833.39 1475.86 Q1833.39 1472.55 1835.29 1470.26 Q1837.19 1467.96 1840.57 1467.18 M1838.86 1459.79 Q1838.86 1462.48 1840.52 1463.98 Q1842.21 1465.49 1845.24 1465.49 Q1848.25 1465.49 1849.94 1463.98 Q1851.66 1462.48 1851.66 1459.79 Q1851.66 1457.11 1849.94 1455.6 Q1848.25 1454.1 1845.24 1454.1 Q1842.21 1454.1 1840.52 1455.6 Q1838.86 1457.11 1838.86 1459.79 Z" fill="#000000" fill-rule="nonzero" fill-opacity="1" /><path clip-path="url(#clip950)" d="M2267.08 1481.64 L2274.72 1481.64 L2274.72 1455.28 L2266.41 1456.95 L2266.41 1452.69 L2274.67 1451.02 L2279.35 1451.02 L2279.35 1481.64 L2286.99 1481.64 L2286.99 1485.58 L2267.08 1485.58 L2267.08 1481.64 Z" fill="#000000" fill-rule="nonzero" fill-opacity="1" /><path clip-path="url(#clip950)" d="M2306.43 1454.1 Q2302.82 1454.1 2300.99 1457.66 Q2299.19 1461.2 2299.19 1468.33 Q2299.19 1475.44 2300.99 1479.01 Q2302.82 1482.55 2306.43 1482.55 Q2310.06 1482.55 2311.87 1479.01 Q2313.7 1475.44 2313.7 1468.33 Q2313.7 1461.2 2311.87 1457.66 Q2310.06 1454.1 2306.43 1454.1 M2306.43 1450.39 Q2312.24 1450.39 2315.3 1455 Q2318.37 1459.58 2318.37 1468.33 Q2318.37 1477.06 2315.3 1481.67 Q2312.24 1486.25 2306.43 1486.25 Q2300.62 1486.25 2297.54 1481.67 Q2294.49 1477.06 2294.49 1468.33 Q2294.49 1459.58 2297.54 1455 Q2300.62 1450.39 2306.43 1450.39 Z" fill="#000000" fill-rule="nonzero" fill-opacity="1" /><path clip-path="url(#clip950)" d="M1096.45 1520.52 L1103.36 1520.52 L1115.17 1538.19 L1127.04 1520.52 L1133.95 1520.52 L1118.67 1543.34 L1134.97 1568.04 L1128.06 1568.04 L1114.69 1547.83 L1101.23 1568.04 L1094.29 1568.04 L1111.25 1542.68 L1096.45 1520.52 Z" fill="#000000" fill-rule="nonzero" fill-opacity="1" /><path clip-path="url(#clip950)" d="M1136.94 1547.58 L1154.1 1547.58 L1154.1 1552.8 L1136.94 1552.8 L1136.94 1547.58 Z" fill="#000000" fill-rule="nonzero" fill-opacity="1" /><path clip-path="url(#clip950)" d="M1179.62 1550.12 Q1172.52 1550.12 1169.79 1551.75 Q1167.05 1553.37 1167.05 1557.29 Q1167.05 1560.4 1169.09 1562.25 Q1171.16 1564.07 1174.69 1564.07 Q1179.56 1564.07 1182.49 1560.63 Q1185.45 1557.16 1185.45 1551.43 L1185.45 1550.12 L1179.62 1550.12 M1191.3 1547.71 L1191.3 1568.04 L1185.45 1568.04 L1185.45 1562.63 Q1183.44 1565.88 1180.45 1567.44 Q1177.46 1568.97 1173.13 1568.97 Q1167.65 1568.97 1164.41 1565.91 Q1161.19 1562.82 1161.19 1557.67 Q1161.19 1551.65 1165.2 1548.6 Q1169.25 1545.54 1177.23 1545.54 L1185.45 1545.54 L1185.45 1544.97 Q1185.45 1540.93 1182.77 1538.73 Q1180.13 1536.5 1175.32 1536.5 Q1172.27 1536.5 1169.37 1537.23 Q1166.48 1537.97 1163.8 1539.43 L1163.8 1534.02 Q1167.02 1532.78 1170.04 1532.17 Q1173.07 1531.54 1175.93 1531.54 Q1183.66 1531.54 1187.48 1535.55 Q1191.3 1539.56 1191.3 1547.71 Z" fill="#000000" fill-rule="nonzero" fill-opacity="1" /><path clip-path="url(#clip950)" d="M1233 1532.4 L1220.11 1549.74 L1233.67 1568.04 L1226.76 1568.04 L1216.38 1554.04 L1206.01 1568.04 L1199.1 1568.04 L1212.95 1549.39 L1200.28 1532.4 L1207.19 1532.4 L1216.64 1545.1 L1226.09 1532.4 L1233 1532.4 Z" fill="#000000" fill-rule="nonzero" fill-opacity="1" /><path clip-path="url(#clip950)" d="M1241.94 1532.4 L1247.8 1532.4 L1247.8 1568.04 L1241.94 1568.04 L1241.94 1532.4 M1241.94 1518.52 L1247.8 1518.52 L1247.8 1525.93 L1241.94 1525.93 L1241.94 1518.52 Z" fill="#000000" fill-rule="nonzero" fill-opacity="1" /><path clip-path="url(#clip950)" d="M1282.78 1533.45 L1282.78 1538.98 Q1280.3 1537.71 1277.62 1537.07 Q1274.95 1536.44 1272.08 1536.44 Q1267.72 1536.44 1265.53 1537.77 Q1263.36 1539.11 1263.36 1541.79 Q1263.36 1543.82 1264.92 1545 Q1266.48 1546.15 1271.19 1547.2 L1273.2 1547.64 Q1279.44 1548.98 1282.05 1551.43 Q1284.69 1553.85 1284.69 1558.21 Q1284.69 1563.17 1280.74 1566.07 Q1276.83 1568.97 1269.95 1568.97 Q1267.09 1568.97 1263.97 1568.39 Q1260.88 1567.85 1257.44 1566.74 L1257.44 1560.69 Q1260.69 1562.38 1263.84 1563.24 Q1266.99 1564.07 1270.08 1564.07 Q1274.22 1564.07 1276.44 1562.66 Q1278.67 1561.23 1278.67 1558.65 Q1278.67 1556.27 1277.05 1554.99 Q1275.46 1553.72 1270.01 1552.54 L1267.98 1552.07 Q1262.54 1550.92 1260.12 1548.56 Q1257.7 1546.18 1257.7 1542.04 Q1257.7 1537.01 1261.26 1534.27 Q1264.83 1531.54 1271.38 1531.54 Q1274.63 1531.54 1277.49 1532.01 Q1280.36 1532.49 1282.78 1533.45 Z" fill="#000000" fill-rule="nonzero" fill-opacity="1" /><path clip-path="url(#clip950)" d="M1314.99 1520.52 L1321.42 1520.52 L1321.42 1562.63 L1344.56 1562.63 L1344.56 1568.04 L1314.99 1568.04 L1314.99 1520.52 Z" fill="#000000" fill-rule="nonzero" fill-opacity="1" /><path clip-path="url(#clip950)" d="M1367.25 1550.12 Q1360.15 1550.12 1357.42 1551.75 Q1354.68 1553.37 1354.68 1557.29 Q1354.68 1560.4 1356.72 1562.25 Q1358.78 1564.07 1362.32 1564.07 Q1367.19 1564.07 1370.12 1560.63 Q1373.08 1557.16 1373.08 1551.43 L1373.08 1550.12 L1367.25 1550.12 M1378.93 1547.71 L1378.93 1568.04 L1373.08 1568.04 L1373.08 1562.63 Q1371.07 1565.88 1368.08 1567.44 Q1365.09 1568.97 1360.76 1568.97 Q1355.28 1568.97 1352.04 1565.91 Q1348.82 1562.82 1348.82 1557.67 Q1348.82 1551.65 1352.83 1548.6 Q1356.87 1545.54 1364.86 1545.54 L1373.08 1545.54 L1373.08 1544.97 Q1373.08 1540.93 1370.4 1538.73 Q1367.76 1536.5 1362.95 1536.5 Q1359.9 1536.5 1357 1537.23 Q1354.11 1537.97 1351.43 1539.43 L1351.43 1534.02 Q1354.65 1532.78 1357.67 1532.17 Q1360.69 1531.54 1363.56 1531.54 Q1371.29 1531.54 1375.11 1535.55 Q1378.93 1539.56 1378.93 1547.71 Z" fill="#000000" fill-rule="nonzero" fill-opacity="1" /><path clip-path="url(#clip950)" d="M1416.59 1550.25 Q1416.59 1543.79 1413.91 1540.13 Q1411.27 1536.44 1406.62 1536.44 Q1401.98 1536.44 1399.3 1540.13 Q1396.66 1543.79 1396.66 1550.25 Q1396.66 1556.71 1399.3 1560.4 Q1401.98 1564.07 1406.62 1564.07 Q1411.27 1564.07 1413.91 1560.4 Q1416.59 1556.71 1416.59 1550.25 M1396.66 1537.81 Q1398.51 1534.62 1401.31 1533.1 Q1404.14 1531.54 1408.06 1531.54 Q1414.55 1531.54 1418.59 1536.69 Q1422.66 1541.85 1422.66 1550.25 Q1422.66 1558.65 1418.59 1563.81 Q1414.55 1568.97 1408.06 1568.97 Q1404.14 1568.97 1401.31 1567.44 Q1398.51 1565.88 1396.66 1562.7 L1396.66 1568.04 L1390.77 1568.04 L1390.77 1518.52 L1396.66 1518.52 L1396.66 1537.81 Z" fill="#000000" fill-rule="nonzero" fill-opacity="1" /><path clip-path="url(#clip950)" d="M1462.86 1548.76 L1462.86 1551.62 L1435.94 1551.62 Q1436.32 1557.67 1439.57 1560.85 Q1442.84 1564 1448.67 1564 Q1452.04 1564 1455.19 1563.17 Q1458.38 1562.35 1461.5 1560.69 L1461.5 1566.23 Q1458.34 1567.57 1455.03 1568.27 Q1451.72 1568.97 1448.32 1568.97 Q1439.79 1568.97 1434.79 1564 Q1429.83 1559.04 1429.83 1550.57 Q1429.83 1541.82 1434.54 1536.69 Q1439.28 1531.54 1447.3 1531.54 Q1454.49 1531.54 1458.66 1536.18 Q1462.86 1540.8 1462.86 1548.76 M1457.01 1547.04 Q1456.94 1542.23 1454.3 1539.37 Q1451.69 1536.5 1447.36 1536.5 Q1442.46 1536.5 1439.5 1539.27 Q1436.57 1542.04 1436.13 1547.07 L1457.01 1547.04 Z" fill="#000000" fill-rule="nonzero" fill-opacity="1" /><path clip-path="url(#clip950)" d="M1472.48 1518.52 L1478.33 1518.52 L1478.33 1568.04 L1472.48 1568.04 L1472.48 1518.52 Z" fill="#000000" fill-rule="nonzero" fill-opacity="1" /><polyline clip-path="url(#clip950)" style="stroke:#000000; stroke-linecap:round; stroke-linejoin:round; stroke-width:4; stroke-opacity:1; fill:none" points="219.866,1423.18 219.866,123.472 "/>
<polyline clip-path="url(#clip950)" style="stroke:#000000; stroke-linecap:round; stroke-linejoin:round; stroke-width:4; stroke-opacity:1; fill:none" points="219.866,1184.86 238.764,1184.86 "/>
<polyline clip-path="url(#clip950)" style="stroke:#000000; stroke-linecap:round; stroke-linejoin:round; stroke-width:4; stroke-opacity:1; fill:none" points="219.866,920.61 238.764,920.61 "/>
<polyline clip-path="url(#clip950)" style="stroke:#000000; stroke-linecap:round; stroke-linejoin:round; stroke-width:4; stroke-opacity:1; fill:none" points="219.866,656.365 238.764,656.365 "/>
<polyline clip-path="url(#clip950)" style="stroke:#000000; stroke-linecap:round; stroke-linejoin:round; stroke-width:4; stroke-opacity:1; fill:none" points="219.866,392.12 238.764,392.12 "/>
<polyline clip-path="url(#clip950)" style="stroke:#000000; stroke-linecap:round; stroke-linejoin:round; stroke-width:4; stroke-opacity:1; fill:none" points="219.866,127.875 238.764,127.875 "/>
<path clip-path="url(#clip950)" d="M128.288 1170.65 Q124.677 1170.65 122.848 1174.22 Q121.043 1177.76 121.043 1184.89 Q121.043 1192 122.848 1195.56 Q124.677 1199.1 128.288 1199.1 Q131.922 1199.1 133.728 1195.56 Q135.556 1192 135.556 1184.89 Q135.556 1177.76 133.728 1174.22 Q131.922 1170.65 128.288 1170.65 M128.288 1166.95 Q134.098 1166.95 137.154 1171.56 Q140.232 1176.14 140.232 1184.89 Q140.232 1193.62 137.154 1198.22 Q134.098 1202.81 128.288 1202.81 Q122.478 1202.81 119.399 1198.22 Q116.343 1193.62 116.343 1184.89 Q116.343 1176.14 119.399 1171.56 Q122.478 1166.95 128.288 1166.95 Z" fill="#000000" fill-rule="nonzero" fill-opacity="1" /><path clip-path="url(#clip950)" d="M148.45 1196.26 L153.334 1196.26 L153.334 1202.14 L148.45 1202.14 L148.45 1196.26 Z" fill="#000000" fill-rule="nonzero" fill-opacity="1" /><path clip-path="url(#clip950)" d="M167.547 1198.2 L183.866 1198.2 L183.866 1202.14 L161.922 1202.14 L161.922 1198.2 Q164.584 1195.45 169.167 1190.82 Q173.774 1186.16 174.954 1184.82 Q177.2 1182.3 178.079 1180.56 Q178.982 1178.8 178.982 1177.11 Q178.982 1174.36 177.038 1172.62 Q175.116 1170.89 172.014 1170.89 Q169.815 1170.89 167.362 1171.65 Q164.931 1172.41 162.153 1173.96 L162.153 1169.24 Q164.977 1168.11 167.431 1167.53 Q169.885 1166.95 171.922 1166.95 Q177.292 1166.95 180.487 1169.64 Q183.681 1172.32 183.681 1176.81 Q183.681 1178.94 182.871 1180.86 Q182.084 1182.76 179.977 1185.35 Q179.399 1186.02 176.297 1189.24 Q173.195 1192.44 167.547 1198.2 Z" fill="#000000" fill-rule="nonzero" fill-opacity="1" /><path clip-path="url(#clip950)" d="M126.205 906.409 Q122.593 906.409 120.765 909.974 Q118.959 913.515 118.959 920.645 Q118.959 927.751 120.765 931.316 Q122.593 934.858 126.205 934.858 Q129.839 934.858 131.644 931.316 Q133.473 927.751 133.473 920.645 Q133.473 913.515 131.644 909.974 Q129.839 906.409 126.205 906.409 M126.205 902.705 Q132.015 902.705 135.07 907.312 Q138.149 911.895 138.149 920.645 Q138.149 929.372 135.07 933.978 Q132.015 938.561 126.205 938.561 Q120.394 938.561 117.316 933.978 Q114.26 929.372 114.26 920.645 Q114.26 911.895 117.316 907.312 Q120.394 902.705 126.205 902.705 Z" fill="#000000" fill-rule="nonzero" fill-opacity="1" /><path clip-path="url(#clip950)" d="M146.366 932.011 L151.251 932.011 L151.251 937.89 L146.366 937.89 L146.366 932.011 Z" fill="#000000" fill-rule="nonzero" fill-opacity="1" /><path clip-path="url(#clip950)" d="M174.283 907.404 L162.477 925.853 L174.283 925.853 L174.283 907.404 M173.056 903.33 L178.936 903.33 L178.936 925.853 L183.866 925.853 L183.866 929.742 L178.936 929.742 L178.936 937.89 L174.283 937.89 L174.283 929.742 L158.681 929.742 L158.681 925.228 L173.056 903.33 Z" fill="#000000" fill-rule="nonzero" fill-opacity="1" /><path clip-path="url(#clip950)" d="M126.529 642.164 Q122.918 642.164 121.089 645.729 Q119.283 649.27 119.283 656.4 Q119.283 663.506 121.089 667.071 Q122.918 670.613 126.529 670.613 Q130.163 670.613 131.968 667.071 Q133.797 663.506 133.797 656.4 Q133.797 649.27 131.968 645.729 Q130.163 642.164 126.529 642.164 M126.529 638.46 Q132.339 638.46 135.394 643.067 Q138.473 647.65 138.473 656.4 Q138.473 665.127 135.394 669.733 Q132.339 674.316 126.529 674.316 Q120.718 674.316 117.64 669.733 Q114.584 665.127 114.584 656.4 Q114.584 647.65 117.64 643.067 Q120.718 638.46 126.529 638.46 Z" fill="#000000" fill-rule="nonzero" fill-opacity="1" /><path clip-path="url(#clip950)" d="M146.691 667.766 L151.575 667.766 L151.575 673.645 L146.691 673.645 L146.691 667.766 Z" fill="#000000" fill-rule="nonzero" fill-opacity="1" /><path clip-path="url(#clip950)" d="M172.339 654.502 Q169.19 654.502 167.339 656.655 Q165.51 658.807 165.51 662.557 Q165.51 666.284 167.339 668.46 Q169.19 670.613 172.339 670.613 Q175.487 670.613 177.315 668.46 Q179.167 666.284 179.167 662.557 Q179.167 658.807 177.315 656.655 Q175.487 654.502 172.339 654.502 M181.621 639.849 L181.621 644.108 Q179.862 643.275 178.056 642.835 Q176.274 642.395 174.514 642.395 Q169.885 642.395 167.431 645.52 Q165.001 648.645 164.653 654.965 Q166.019 652.951 168.079 651.886 Q170.139 650.798 172.616 650.798 Q177.825 650.798 180.834 653.969 Q183.866 657.117 183.866 662.557 Q183.866 667.881 180.718 671.099 Q177.57 674.316 172.339 674.316 Q166.343 674.316 163.172 669.733 Q160.001 665.127 160.001 656.4 Q160.001 648.205 163.89 643.344 Q167.778 638.46 174.329 638.46 Q176.089 638.46 177.871 638.807 Q179.676 639.155 181.621 639.849 Z" fill="#000000" fill-rule="nonzero" fill-opacity="1" /><path clip-path="url(#clip950)" d="M126.783 377.919 Q123.172 377.919 121.343 381.484 Q119.538 385.025 119.538 392.155 Q119.538 399.261 121.343 402.826 Q123.172 406.368 126.783 406.368 Q130.417 406.368 132.223 402.826 Q134.052 399.261 134.052 392.155 Q134.052 385.025 132.223 381.484 Q130.417 377.919 126.783 377.919 M126.783 374.215 Q132.593 374.215 135.649 378.822 Q138.728 383.405 138.728 392.155 Q138.728 400.882 135.649 405.488 Q132.593 410.071 126.783 410.071 Q120.973 410.071 117.894 405.488 Q114.839 400.882 114.839 392.155 Q114.839 383.405 117.894 378.822 Q120.973 374.215 126.783 374.215 Z" fill="#000000" fill-rule="nonzero" fill-opacity="1" /><path clip-path="url(#clip950)" d="M146.945 403.521 L151.829 403.521 L151.829 409.4 L146.945 409.4 L146.945 403.521 Z" fill="#000000" fill-rule="nonzero" fill-opacity="1" /><path clip-path="url(#clip950)" d="M172.014 392.988 Q168.681 392.988 166.76 394.771 Q164.862 396.553 164.862 399.678 Q164.862 402.803 166.76 404.585 Q168.681 406.368 172.014 406.368 Q175.348 406.368 177.269 404.585 Q179.19 402.78 179.19 399.678 Q179.19 396.553 177.269 394.771 Q175.371 392.988 172.014 392.988 M167.339 390.997 Q164.329 390.257 162.64 388.197 Q160.973 386.136 160.973 383.173 Q160.973 379.03 163.913 376.623 Q166.876 374.215 172.014 374.215 Q177.176 374.215 180.116 376.623 Q183.056 379.03 183.056 383.173 Q183.056 386.136 181.366 388.197 Q179.7 390.257 176.714 390.997 Q180.093 391.784 181.968 394.076 Q183.866 396.368 183.866 399.678 Q183.866 404.701 180.788 407.386 Q177.732 410.071 172.014 410.071 Q166.297 410.071 163.218 407.386 Q160.163 404.701 160.163 399.678 Q160.163 396.368 162.061 394.076 Q163.959 391.784 167.339 390.997 M165.626 383.613 Q165.626 386.298 167.292 387.803 Q168.982 389.308 172.014 389.308 Q175.024 389.308 176.714 387.803 Q178.426 386.298 178.426 383.613 Q178.426 380.928 176.714 379.423 Q175.024 377.919 172.014 377.919 Q168.982 377.919 167.292 379.423 Q165.626 380.928 165.626 383.613 Z" fill="#000000" fill-rule="nonzero" fill-opacity="1" /><path clip-path="url(#clip950)" d="M117.501 141.22 L125.14 141.22 L125.14 114.854 L116.83 116.521 L116.83 112.262 L125.093 110.595 L129.769 110.595 L129.769 141.22 L137.408 141.22 L137.408 145.155 L117.501 145.155 L117.501 141.22 Z" fill="#000000" fill-rule="nonzero" fill-opacity="1" /><path clip-path="url(#clip950)" d="M146.853 139.275 L151.737 139.275 L151.737 145.155 L146.853 145.155 L146.853 139.275 Z" fill="#000000" fill-rule="nonzero" fill-opacity="1" /><path clip-path="url(#clip950)" d="M171.922 113.674 Q168.311 113.674 166.482 117.239 Q164.677 120.78 164.677 127.91 Q164.677 135.016 166.482 138.581 Q168.311 142.123 171.922 142.123 Q175.556 142.123 177.362 138.581 Q179.19 135.016 179.19 127.91 Q179.19 120.78 177.362 117.239 Q175.556 113.674 171.922 113.674 M171.922 109.97 Q177.732 109.97 180.788 114.577 Q183.866 119.16 183.866 127.91 Q183.866 136.637 180.788 141.243 Q177.732 145.826 171.922 145.826 Q166.112 145.826 163.033 141.243 Q159.978 136.637 159.978 127.91 Q159.978 119.16 163.033 114.577 Q166.112 109.97 171.922 109.97 Z" fill="#000000" fill-rule="nonzero" fill-opacity="1" /><path clip-path="url(#clip950)" d="M16.4842 961.719 L16.4842 954.812 L36.0269 941.635 L16.4842 928.554 L16.4842 921.647 L41.3741 938.452 L64.0042 938.452 L64.0042 944.914 L41.3741 944.914 L16.4842 961.719 Z" fill="#000000" fill-rule="nonzero" fill-opacity="1" /><path clip-path="url(#clip950)" d="M43.5384 926.326 L43.5384 909.17 L48.7583 909.17 L48.7583 926.326 L43.5384 926.326 Z" fill="#000000" fill-rule="nonzero" fill-opacity="1" /><path clip-path="url(#clip950)" d="M46.0847 883.644 Q46.0847 890.741 47.7079 893.479 Q49.3312 896.216 53.2461 896.216 Q56.3653 896.216 58.2114 894.179 Q60.0256 892.11 60.0256 888.577 Q60.0256 883.707 56.5881 880.779 Q53.1188 877.819 47.3897 877.819 L46.0847 877.819 L46.0847 883.644 M43.6657 871.963 L64.0042 871.963 L64.0042 877.819 L58.5933 877.819 Q61.8398 879.824 63.3994 882.816 Q64.9272 885.808 64.9272 890.137 Q64.9272 895.611 61.8716 898.858 Q58.7843 902.072 53.6281 902.072 Q47.6125 902.072 44.5569 898.062 Q41.5014 894.02 41.5014 886.031 L41.5014 877.819 L40.9285 877.819 Q36.8862 877.819 34.6901 880.493 Q32.4621 883.134 32.4621 887.941 Q32.4621 890.996 33.1941 893.892 Q33.9262 896.789 35.3903 899.462 L29.9795 899.462 Q28.7381 896.248 28.1334 893.224 Q27.4968 890.2 27.4968 887.336 Q27.4968 879.601 31.5072 875.782 Q35.5176 871.963 43.6657 871.963 Z" fill="#000000" fill-rule="nonzero" fill-opacity="1" /><path clip-path="url(#clip950)" d="M28.3562 830.267 L45.7028 843.158 L64.0042 829.599 L64.0042 836.506 L49.9996 846.882 L64.0042 857.258 L64.0042 864.165 L45.3526 850.319 L28.3562 862.987 L28.3562 856.08 L41.0558 846.627 L28.3562 837.174 L28.3562 830.267 Z" fill="#000000" fill-rule="nonzero" fill-opacity="1" /><path clip-path="url(#clip950)" d="M28.3562 821.323 L28.3562 815.467 L64.0042 815.467 L64.0042 821.323 L28.3562 821.323 M14.479 821.323 L14.479 815.467 L21.895 815.467 L21.895 821.323 L14.479 821.323 Z" fill="#000000" fill-rule="nonzero" fill-opacity="1" /><path clip-path="url(#clip950)" d="M29.4065 780.487 L34.9447 780.487 Q33.6716 782.97 33.035 785.644 Q32.3984 788.317 32.3984 791.182 Q32.3984 795.542 33.7352 797.738 Q35.072 799.903 37.7456 799.903 Q39.7826 799.903 40.9603 798.343 Q42.1061 796.784 43.1565 792.073 L43.6021 790.068 Q44.9389 783.829 47.3897 781.219 Q49.8086 778.578 54.1691 778.578 Q59.1344 778.578 62.0308 782.524 Q64.9272 786.439 64.9272 793.314 Q64.9272 796.179 64.3543 799.298 Q63.8132 802.385 62.6992 805.823 L56.6518 805.823 Q58.3387 802.576 59.198 799.425 Q60.0256 796.274 60.0256 793.187 Q60.0256 789.049 58.6251 786.821 Q57.1929 784.593 54.6147 784.593 Q52.2276 784.593 50.9545 786.217 Q49.6813 787.808 48.5037 793.251 L48.0262 795.288 Q46.8804 800.73 44.5251 803.149 Q42.138 805.568 38.0002 805.568 Q32.9713 805.568 30.2341 802.003 Q27.4968 798.439 27.4968 791.882 Q27.4968 788.636 27.9743 785.771 Q28.4517 782.906 29.4065 780.487 Z" fill="#000000" fill-rule="nonzero" fill-opacity="1" /><path clip-path="url(#clip950)" d="M16.4842 748.277 L16.4842 741.848 L58.5933 741.848 L58.5933 718.708 L64.0042 718.708 L64.0042 748.277 L16.4842 748.277 Z" fill="#000000" fill-rule="nonzero" fill-opacity="1" /><path clip-path="url(#clip950)" d="M46.0847 696.014 Q46.0847 703.112 47.7079 705.849 Q49.3312 708.587 53.2461 708.587 Q56.3653 708.587 58.2114 706.55 Q60.0256 704.481 60.0256 700.948 Q60.0256 696.078 56.5881 693.15 Q53.1188 690.19 47.3897 690.19 L46.0847 690.19 L46.0847 696.014 M43.6657 684.333 L64.0042 684.333 L64.0042 690.19 L58.5933 690.19 Q61.8398 692.195 63.3994 695.187 Q64.9272 698.179 64.9272 702.507 Q64.9272 707.982 61.8716 711.229 Q58.7843 714.443 53.6281 714.443 Q47.6125 714.443 44.5569 710.433 Q41.5014 706.391 41.5014 698.402 L41.5014 690.19 L40.9285 690.19 Q36.8862 690.19 34.6901 692.863 Q32.4621 695.505 32.4621 700.311 Q32.4621 703.367 33.1941 706.263 Q33.9262 709.16 35.3903 711.833 L29.9795 711.833 Q28.7381 708.619 28.1334 705.595 Q27.4968 702.571 27.4968 699.707 Q27.4968 691.972 31.5072 688.153 Q35.5176 684.333 43.6657 684.333 Z" fill="#000000" fill-rule="nonzero" fill-opacity="1" /><path clip-path="url(#clip950)" d="M46.212 646.68 Q39.7508 646.68 36.0905 649.354 Q32.3984 651.996 32.3984 656.643 Q32.3984 661.29 36.0905 663.963 Q39.7508 666.605 46.212 666.605 Q52.6732 666.605 56.3653 663.963 Q60.0256 661.29 60.0256 656.643 Q60.0256 651.996 56.3653 649.354 Q52.6732 646.68 46.212 646.68 M33.7671 666.605 Q30.5842 664.759 29.0564 661.958 Q27.4968 659.125 27.4968 655.21 Q27.4968 648.717 32.6531 644.675 Q37.8093 640.601 46.212 640.601 Q54.6147 640.601 59.771 644.675 Q64.9272 648.717 64.9272 655.21 Q64.9272 659.125 63.3994 661.958 Q61.8398 664.759 58.657 666.605 L64.0042 666.605 L64.0042 672.493 L14.479 672.493 L14.479 666.605 L33.7671 666.605 Z" fill="#000000" fill-rule="nonzero" fill-opacity="1" /><path clip-path="url(#clip950)" d="M44.7161 600.402 L47.5806 600.402 L47.5806 627.329 Q53.6281 626.947 56.8109 623.7 Q59.9619 620.422 59.9619 614.597 Q59.9619 611.223 59.1344 608.072 Q58.3069 604.889 56.6518 601.77 L62.1899 601.77 Q63.5267 604.921 64.227 608.231 Q64.9272 611.542 64.9272 614.947 Q64.9272 623.477 59.9619 628.474 Q54.9967 633.44 46.5303 633.44 Q37.7774 633.44 32.6531 628.729 Q27.4968 623.987 27.4968 615.966 Q27.4968 608.772 32.1438 604.603 Q36.7589 600.402 44.7161 600.402 M42.9973 606.258 Q38.1912 606.322 35.3266 608.963 Q32.4621 611.573 32.4621 615.902 Q32.4621 620.804 35.2312 623.764 Q38.0002 626.692 43.0292 627.138 L42.9973 606.258 Z" fill="#000000" fill-rule="nonzero" fill-opacity="1" /><path clip-path="url(#clip950)" d="M14.479 590.789 L14.479 584.933 L64.0042 584.933 L64.0042 590.789 L14.479 590.789 Z" fill="#000000" fill-rule="nonzero" fill-opacity="1" /><path clip-path="url(#clip950)" d="M939.554 12.096 L951.747 12.096 L967.181 53.2532 L982.696 12.096 L994.889 12.096 L994.889 72.576 L986.909 72.576 L986.909 19.4686 L971.313 60.9499 L963.089 60.9499 L947.493 19.4686 L947.493 72.576 L939.554 72.576 L939.554 12.096 Z" fill="#000000" fill-rule="nonzero" fill-opacity="1" /><path clip-path="url(#clip950)" d="M1029.69 76.7889 Q1026.53 84.8907 1023.53 87.3618 Q1020.53 89.8329 1015.51 89.8329 L1009.55 89.8329 L1009.55 83.5945 L1013.93 83.5945 Q1017.01 83.5945 1018.71 82.1361 Q1020.41 80.6778 1022.48 75.2496 L1023.81 71.8468 L1005.46 27.2059 L1013.36 27.2059 L1027.54 62.6918 L1041.72 27.2059 L1049.62 27.2059 L1029.69 76.7889 Z" fill="#000000" fill-rule="nonzero" fill-opacity="1" /><path clip-path="url(#clip950)" d="M1086.6 12.096 L1121.36 12.096 L1121.36 18.9825 L1094.78 18.9825 L1094.78 36.8065 L1118.77 36.8065 L1118.77 43.6931 L1094.78 43.6931 L1094.78 72.576 L1086.6 72.576 L1086.6 12.096 Z" fill="#000000" fill-rule="nonzero" fill-opacity="1" /><path clip-path="url(#clip950)" d="M1127.96 27.2059 L1135.41 27.2059 L1135.41 72.576 L1127.96 72.576 L1127.96 27.2059 M1127.96 9.54393 L1135.41 9.54393 L1135.41 18.9825 L1127.96 18.9825 L1127.96 9.54393 Z" fill="#000000" fill-rule="nonzero" fill-opacity="1" /><path clip-path="url(#clip950)" d="M1177.3 34.1734 Q1176.05 33.4443 1174.55 33.1202 Q1173.09 32.7556 1171.31 32.7556 Q1164.99 32.7556 1161.58 36.8875 Q1158.22 40.9789 1158.22 48.6757 L1158.22 72.576 L1150.73 72.576 L1150.73 27.2059 L1158.22 27.2059 L1158.22 34.2544 Q1160.57 30.1225 1164.34 28.1376 Q1168.11 26.1121 1173.49 26.1121 Q1174.26 26.1121 1175.19 26.2337 Q1176.13 26.3147 1177.26 26.5172 L1177.3 34.1734 Z" fill="#000000" fill-rule="nonzero" fill-opacity="1" /><path clip-path="url(#clip950)" d="M1214.04 28.5427 L1214.04 35.5912 Q1210.88 33.9709 1207.48 33.1607 Q1204.08 32.3505 1200.43 32.3505 Q1194.88 32.3505 1192.09 34.0519 Q1189.33 35.7533 1189.33 39.156 Q1189.33 41.7486 1191.32 43.2475 Q1193.3 44.7058 1199.3 46.0426 L1201.85 46.6097 Q1209.79 48.3111 1213.11 51.4303 Q1216.47 54.509 1216.47 60.0587 Q1216.47 66.3781 1211.45 70.0644 Q1206.47 73.7508 1197.72 73.7508 Q1194.07 73.7508 1190.1 73.0216 Q1186.17 72.3329 1181.8 70.9151 L1181.8 63.2184 Q1185.93 65.3654 1189.94 66.4591 Q1193.95 67.5124 1197.88 67.5124 Q1203.15 67.5124 1205.98 65.73 Q1208.82 63.9071 1208.82 60.6258 Q1208.82 57.5877 1206.75 55.9673 Q1204.73 54.3469 1197.8 52.8481 L1195.21 52.2405 Q1188.28 50.7821 1185.2 47.7845 Q1182.12 44.7463 1182.12 39.4801 Q1182.12 33.0797 1186.66 29.5959 Q1191.2 26.1121 1199.54 26.1121 Q1203.67 26.1121 1207.32 26.7198 Q1210.96 27.3274 1214.04 28.5427 Z" fill="#000000" fill-rule="nonzero" fill-opacity="1" /><path clip-path="url(#clip950)" d="M1235.72 14.324 L1235.72 27.2059 L1251.07 27.2059 L1251.07 32.9987 L1235.72 32.9987 L1235.72 57.6282 Q1235.72 63.1779 1237.21 64.7578 Q1238.75 66.3376 1243.41 66.3376 L1251.07 66.3376 L1251.07 72.576 L1243.41 72.576 Q1234.78 72.576 1231.5 69.3758 Q1228.22 66.1351 1228.22 57.6282 L1228.22 32.9987 L1222.75 32.9987 L1222.75 27.2059 L1228.22 27.2059 L1228.22 14.324 L1235.72 14.324 Z" fill="#000000" fill-rule="nonzero" fill-opacity="1" /><path clip-path="url(#clip950)" d="M1287.57 12.096 L1295.75 12.096 L1295.75 65.6895 L1325.2 65.6895 L1325.2 72.576 L1287.57 72.576 L1287.57 12.096 Z" fill="#000000" fill-rule="nonzero" fill-opacity="1" /><path clip-path="url(#clip950)" d="M1333.46 27.2059 L1340.92 27.2059 L1340.92 72.576 L1333.46 72.576 L1333.46 27.2059 M1333.46 9.54393 L1340.92 9.54393 L1340.92 18.9825 L1333.46 18.9825 L1333.46 9.54393 Z" fill="#000000" fill-rule="nonzero" fill-opacity="1" /><path clip-path="url(#clip950)" d="M1394.23 45.1919 L1394.23 72.576 L1386.77 72.576 L1386.77 45.4349 Q1386.77 38.994 1384.26 35.7938 Q1381.75 32.5936 1376.73 32.5936 Q1370.69 32.5936 1367.21 36.4419 Q1363.72 40.2903 1363.72 46.9338 L1363.72 72.576 L1356.23 72.576 L1356.23 27.2059 L1363.72 27.2059 L1363.72 34.2544 Q1366.4 30.163 1370 28.1376 Q1373.65 26.1121 1378.39 26.1121 Q1386.21 26.1121 1390.22 30.9732 Q1394.23 35.7938 1394.23 45.1919 Z" fill="#000000" fill-rule="nonzero" fill-opacity="1" /><path clip-path="url(#clip950)" d="M1447.9 48.0275 L1447.9 51.6733 L1413.63 51.6733 Q1414.12 59.3701 1418.25 63.421 Q1422.42 67.4314 1429.83 67.4314 Q1434.13 67.4314 1438.14 66.3781 Q1442.19 65.3249 1446.16 63.2184 L1446.16 70.267 Q1442.15 71.9684 1437.94 72.8596 Q1433.72 73.7508 1429.39 73.7508 Q1418.53 73.7508 1412.17 67.4314 Q1405.85 61.1119 1405.85 50.3365 Q1405.85 39.1965 1411.85 32.6746 Q1417.88 26.1121 1428.09 26.1121 Q1437.25 26.1121 1442.55 32.0264 Q1447.9 37.9003 1447.9 48.0275 M1440.45 45.84 Q1440.37 39.7232 1437 36.0774 Q1433.68 32.4315 1428.17 32.4315 Q1421.94 32.4315 1418.17 35.9558 Q1414.44 39.4801 1413.87 45.8805 L1440.45 45.84 Z" fill="#000000" fill-rule="nonzero" fill-opacity="1" /><path clip-path="url(#clip950)" d="M1495.01 18.8205 L1495.01 41.5461 L1505.3 41.5461 Q1511.01 41.5461 1514.13 38.5889 Q1517.25 35.6318 1517.25 30.163 Q1517.25 24.7348 1514.13 21.7777 Q1511.01 18.8205 1505.3 18.8205 L1495.01 18.8205 M1486.83 12.096 L1505.3 12.096 Q1515.47 12.096 1520.66 16.714 Q1525.88 21.2916 1525.88 30.163 Q1525.88 39.1155 1520.66 43.6931 Q1515.47 48.2706 1505.3 48.2706 L1495.01 48.2706 L1495.01 72.576 L1486.83 72.576 L1486.83 12.096 Z" fill="#000000" fill-rule="nonzero" fill-opacity="1" /><path clip-path="url(#clip950)" d="M1536.54 9.54393 L1543.99 9.54393 L1543.99 72.576 L1536.54 72.576 L1536.54 9.54393 Z" fill="#000000" fill-rule="nonzero" fill-opacity="1" /><path clip-path="url(#clip950)" d="M1577.17 32.4315 Q1571.17 32.4315 1567.69 37.1306 Q1564.2 41.7891 1564.2 49.9314 Q1564.2 58.0738 1567.65 62.7728 Q1571.13 67.4314 1577.17 67.4314 Q1583.12 67.4314 1586.6 62.7323 Q1590.09 58.0333 1590.09 49.9314 Q1590.09 41.8701 1586.6 37.1711 Q1583.12 32.4315 1577.17 32.4315 M1577.17 26.1121 Q1586.89 26.1121 1592.44 32.4315 Q1597.99 38.7509 1597.99 49.9314 Q1597.99 61.0714 1592.44 67.4314 Q1586.89 73.7508 1577.17 73.7508 Q1567.4 73.7508 1561.85 67.4314 Q1556.34 61.0714 1556.34 49.9314 Q1556.34 38.7509 1561.85 32.4315 Q1567.4 26.1121 1577.17 26.1121 Z" fill="#000000" fill-rule="nonzero" fill-opacity="1" /><path clip-path="url(#clip950)" d="M1617.72 14.324 L1617.72 27.2059 L1633.07 27.2059 L1633.07 32.9987 L1617.72 32.9987 L1617.72 57.6282 Q1617.72 63.1779 1619.21 64.7578 Q1620.75 66.3376 1625.41 66.3376 L1633.07 66.3376 L1633.07 72.576 L1625.41 72.576 Q1616.78 72.576 1613.5 69.3758 Q1610.22 66.1351 1610.22 57.6282 L1610.22 32.9987 L1604.75 32.9987 L1604.75 27.2059 L1610.22 27.2059 L1610.22 14.324 L1617.72 14.324 Z" fill="#000000" fill-rule="nonzero" fill-opacity="1" /><polyline clip-path="url(#clip952)" style="stroke:#009af9; stroke-linecap:round; stroke-linejoin:round; stroke-width:4; stroke-opacity:1; fill:none" points="280.231,308.373 503.804,876.54 727.378,905.287 950.951,1367.44 1174.52,997.789 1398.1,160.256 1621.67,974.508 1845.24,1386.4 2068.82,1012.67 2292.39,1311.34 "/>
</svg>
