<?xml version="1.0" encoding="utf-8"?>
<svg xmlns="http://www.w3.org/2000/svg" xmlns:xlink="http://www.w3.org/1999/xlink" width="600" height="400" viewBox="0 0 2400 1600">
<defs>
  <clipPath id="clip190">
    <rect x="0" y="0" width="2400" height="1600"/>
  </clipPath>
</defs>
<path clip-path="url(#clip190)" d="M0 1600 L2400 1600 L2400 8.88178e-14 L0 8.88178e-14  Z" fill="#ffffff" fill-rule="evenodd" fill-opacity="1"/>
<defs>
  <clipPath id="clip191">
    <rect x="480" y="0" width="1681" height="1600"/>
  </clipPath>
</defs>
<path clip-path="url(#clip190)" d="M141.853 1486.45 L2352.76 1486.45 L2352.76 123.472 L141.853 123.472  Z" fill="#ffffff" fill-rule="evenodd" fill-opacity="1"/>
<defs>
  <clipPath id="clip192">
    <rect x="141" y="123" width="2212" height="1364"/>
  </clipPath>
</defs>
<polyline clip-path="url(#clip192)" style="stroke:#000000; stroke-linecap:round; stroke-linejoin:round; stroke-width:2; stroke-opacity:0.1; fill:none" points="323.084,1486.45 323.084,123.472 "/>
<polyline clip-path="url(#clip192)" style="stroke:#000000; stroke-linecap:round; stroke-linejoin:round; stroke-width:2; stroke-opacity:0.1; fill:none" points="621.219,1486.45 621.219,123.472 "/>
<polyline clip-path="url(#clip192)" style="stroke:#000000; stroke-linecap:round; stroke-linejoin:round; stroke-width:2; stroke-opacity:0.1; fill:none" points="919.355,1486.45 919.355,123.472 "/>
<polyline clip-path="url(#clip192)" style="stroke:#000000; stroke-linecap:round; stroke-linejoin:round; stroke-width:2; stroke-opacity:0.1; fill:none" points="1217.49,1486.45 1217.49,123.472 "/>
<polyline clip-path="url(#clip192)" style="stroke:#000000; stroke-linecap:round; stroke-linejoin:round; stroke-width:2; stroke-opacity:0.1; fill:none" points="1515.63,1486.45 1515.63,123.472 "/>
<polyline clip-path="url(#clip192)" style="stroke:#000000; stroke-linecap:round; stroke-linejoin:round; stroke-width:2; stroke-opacity:0.1; fill:none" points="1813.76,1486.45 1813.76,123.472 "/>
<polyline clip-path="url(#clip192)" style="stroke:#000000; stroke-linecap:round; stroke-linejoin:round; stroke-width:2; stroke-opacity:0.1; fill:none" points="2111.9,1486.45 2111.9,123.472 "/>
<polyline clip-path="url(#clip192)" style="stroke:#000000; stroke-linecap:round; stroke-linejoin:round; stroke-width:2; stroke-opacity:0.1; fill:none" points="141.853,1486.45 2352.76,1486.45 "/>
<polyline clip-path="url(#clip192)" style="stroke:#000000; stroke-linecap:round; stroke-linejoin:round; stroke-width:2; stroke-opacity:0.1; fill:none" points="141.853,1158.02 2352.76,1158.02 "/>
<polyline clip-path="url(#clip192)" style="stroke:#000000; stroke-linecap:round; stroke-linejoin:round; stroke-width:2; stroke-opacity:0.1; fill:none" points="141.853,829.592 2352.76,829.592 "/>
<polyline clip-path="url(#clip192)" style="stroke:#000000; stroke-linecap:round; stroke-linejoin:round; stroke-width:2; stroke-opacity:0.1; fill:none" points="141.853,501.164 2352.76,501.164 "/>
<polyline clip-path="url(#clip192)" style="stroke:#000000; stroke-linecap:round; stroke-linejoin:round; stroke-width:2; stroke-opacity:0.1; fill:none" points="141.853,172.736 2352.76,172.736 "/>
<polyline clip-path="url(#clip190)" style="stroke:#000000; stroke-linecap:round; stroke-linejoin:round; stroke-width:4; stroke-opacity:1; fill:none" points="141.853,1486.45 2352.76,1486.45 "/>
<polyline clip-path="url(#clip190)" style="stroke:#000000; stroke-linecap:round; stroke-linejoin:round; stroke-width:4; stroke-opacity:1; fill:none" points="323.084,1486.45 323.084,1467.55 "/>
<polyline clip-path="url(#clip190)" style="stroke:#000000; stroke-linecap:round; stroke-linejoin:round; stroke-width:4; stroke-opacity:1; fill:none" points="621.219,1486.45 621.219,1467.55 "/>
<polyline clip-path="url(#clip190)" style="stroke:#000000; stroke-linecap:round; stroke-linejoin:round; stroke-width:4; stroke-opacity:1; fill:none" points="919.355,1486.45 919.355,1467.55 "/>
<polyline clip-path="url(#clip190)" style="stroke:#000000; stroke-linecap:round; stroke-linejoin:round; stroke-width:4; stroke-opacity:1; fill:none" points="1217.49,1486.45 1217.49,1467.55 "/>
<polyline clip-path="url(#clip190)" style="stroke:#000000; stroke-linecap:round; stroke-linejoin:round; stroke-width:4; stroke-opacity:1; fill:none" points="1515.63,1486.45 1515.63,1467.55 "/>
<polyline clip-path="url(#clip190)" style="stroke:#000000; stroke-linecap:round; stroke-linejoin:round; stroke-width:4; stroke-opacity:1; fill:none" points="1813.76,1486.45 1813.76,1467.55 "/>
<polyline clip-path="url(#clip190)" style="stroke:#000000; stroke-linecap:round; stroke-linejoin:round; stroke-width:4; stroke-opacity:1; fill:none" points="2111.9,1486.45 2111.9,1467.55 "/>
<path clip-path="url(#clip190)" d="M292.551 1532.02 L322.227 1532.02 L322.227 1535.95 L292.551 1535.95 L292.551 1532.02 Z" fill="#000000" fill-rule="nonzero" fill-opacity="1" /><path clip-path="url(#clip190)" d="M346.486 1530.21 Q349.843 1530.93 351.718 1533.2 Q353.616 1535.47 353.616 1538.8 Q353.616 1543.92 350.097 1546.72 Q346.579 1549.52 340.097 1549.52 Q337.922 1549.52 335.607 1549.08 Q333.315 1548.66 330.861 1547.81 L330.861 1543.29 Q332.806 1544.43 335.121 1545.01 Q337.435 1545.58 339.959 1545.58 Q344.357 1545.58 346.648 1543.85 Q348.963 1542.11 348.963 1538.8 Q348.963 1535.75 346.81 1534.03 Q344.681 1532.3 340.861 1532.3 L336.834 1532.3 L336.834 1528.45 L341.047 1528.45 Q344.496 1528.45 346.324 1527.09 Q348.153 1525.7 348.153 1523.11 Q348.153 1520.45 346.255 1519.03 Q344.38 1517.6 340.861 1517.6 Q338.94 1517.6 336.741 1518.01 Q334.542 1518.43 331.903 1519.31 L331.903 1515.14 Q334.565 1514.4 336.88 1514.03 Q339.218 1513.66 341.278 1513.66 Q346.602 1513.66 349.704 1516.09 Q352.806 1518.5 352.806 1522.62 Q352.806 1525.49 351.162 1527.48 Q349.519 1529.45 346.486 1530.21 Z" fill="#000000" fill-rule="nonzero" fill-opacity="1" /><path clip-path="url(#clip190)" d="M591.162 1532.02 L620.837 1532.02 L620.837 1535.95 L591.162 1535.95 L591.162 1532.02 Z" fill="#000000" fill-rule="nonzero" fill-opacity="1" /><path clip-path="url(#clip190)" d="M634.958 1544.91 L651.277 1544.91 L651.277 1548.85 L629.333 1548.85 L629.333 1544.91 Q631.995 1542.16 636.578 1537.53 Q641.185 1532.88 642.365 1531.53 Q644.61 1529.01 645.49 1527.27 Q646.393 1525.51 646.393 1523.82 Q646.393 1521.07 644.448 1519.33 Q642.527 1517.6 639.425 1517.6 Q637.226 1517.6 634.773 1518.36 Q632.342 1519.13 629.564 1520.68 L629.564 1515.95 Q632.388 1514.82 634.842 1514.24 Q637.296 1513.66 639.333 1513.66 Q644.703 1513.66 647.898 1516.35 Q651.092 1519.03 651.092 1523.52 Q651.092 1525.65 650.282 1527.57 Q649.495 1529.47 647.388 1532.07 Q646.81 1532.74 643.708 1535.95 Q640.606 1539.15 634.958 1544.91 Z" fill="#000000" fill-rule="nonzero" fill-opacity="1" /><path clip-path="url(#clip190)" d="M889.112 1532.02 L918.788 1532.02 L918.788 1535.95 L889.112 1535.95 L889.112 1532.02 Z" fill="#000000" fill-rule="nonzero" fill-opacity="1" /><path clip-path="url(#clip190)" d="M929.691 1544.91 L937.33 1544.91 L937.33 1518.55 L929.019 1520.21 L929.019 1515.95 L937.283 1514.29 L941.959 1514.29 L941.959 1544.91 L949.598 1544.91 L949.598 1548.85 L929.691 1548.85 L929.691 1544.91 Z" fill="#000000" fill-rule="nonzero" fill-opacity="1" /><path clip-path="url(#clip190)" d="M1217.49 1517.37 Q1213.88 1517.37 1212.05 1520.93 Q1210.25 1524.47 1210.25 1531.6 Q1210.25 1538.71 1212.05 1542.27 Q1213.88 1545.82 1217.49 1545.82 Q1221.13 1545.82 1222.93 1542.27 Q1224.76 1538.71 1224.76 1531.6 Q1224.76 1524.47 1222.93 1520.93 Q1221.13 1517.37 1217.49 1517.37 M1217.49 1513.66 Q1223.3 1513.66 1226.36 1518.27 Q1229.44 1522.85 1229.44 1531.6 Q1229.44 1540.33 1226.36 1544.94 Q1223.3 1549.52 1217.49 1549.52 Q1211.68 1549.52 1208.6 1544.94 Q1205.55 1540.33 1205.55 1531.6 Q1205.55 1522.85 1208.6 1518.27 Q1211.68 1513.66 1217.49 1513.66 Z" fill="#000000" fill-rule="nonzero" fill-opacity="1" /><path clip-path="url(#clip190)" d="M1506.01 1544.91 L1513.65 1544.91 L1513.65 1518.55 L1505.34 1520.21 L1505.34 1515.95 L1513.6 1514.29 L1518.28 1514.29 L1518.28 1544.91 L1525.92 1544.91 L1525.92 1548.85 L1506.01 1548.85 L1506.01 1544.91 Z" fill="#000000" fill-rule="nonzero" fill-opacity="1" /><path clip-path="url(#clip190)" d="M1808.42 1544.91 L1824.73 1544.91 L1824.73 1548.85 L1802.79 1548.85 L1802.79 1544.91 Q1805.45 1542.16 1810.04 1537.53 Q1814.64 1532.88 1815.82 1531.53 Q1818.07 1529.01 1818.95 1527.27 Q1819.85 1525.51 1819.85 1523.82 Q1819.85 1521.07 1817.91 1519.33 Q1815.98 1517.6 1812.88 1517.6 Q1810.68 1517.6 1808.23 1518.36 Q1805.8 1519.13 1803.02 1520.68 L1803.02 1515.95 Q1805.85 1514.82 1808.3 1514.24 Q1810.75 1513.66 1812.79 1513.66 Q1818.16 1513.66 1821.35 1516.35 Q1824.55 1519.03 1824.55 1523.52 Q1824.55 1525.65 1823.74 1527.57 Q1822.95 1529.47 1820.85 1532.07 Q1820.27 1532.74 1817.17 1535.95 Q1814.06 1539.15 1808.42 1544.91 Z" fill="#000000" fill-rule="nonzero" fill-opacity="1" /><path clip-path="url(#clip190)" d="M2116.15 1530.21 Q2119.5 1530.93 2121.38 1533.2 Q2123.28 1535.47 2123.28 1538.8 Q2123.28 1543.92 2119.76 1546.72 Q2116.24 1549.52 2109.76 1549.52 Q2107.58 1549.52 2105.27 1549.08 Q2102.97 1548.66 2100.52 1547.81 L2100.52 1543.29 Q2102.47 1544.43 2104.78 1545.01 Q2107.09 1545.58 2109.62 1545.58 Q2114.02 1545.58 2116.31 1543.85 Q2118.62 1542.11 2118.62 1538.8 Q2118.62 1535.75 2116.47 1534.03 Q2114.34 1532.3 2110.52 1532.3 L2106.49 1532.3 L2106.49 1528.45 L2110.71 1528.45 Q2114.15 1528.45 2115.98 1527.09 Q2117.81 1525.7 2117.81 1523.11 Q2117.81 1520.45 2115.91 1519.03 Q2114.04 1517.6 2110.52 1517.6 Q2108.6 1517.6 2106.4 1518.01 Q2104.2 1518.43 2101.56 1519.31 L2101.56 1515.14 Q2104.22 1514.4 2106.54 1514.03 Q2108.88 1513.66 2110.94 1513.66 Q2116.26 1513.66 2119.36 1516.09 Q2122.47 1518.5 2122.47 1522.62 Q2122.47 1525.49 2120.82 1527.48 Q2119.18 1529.45 2116.15 1530.21 Z" fill="#000000" fill-rule="nonzero" fill-opacity="1" /><polyline clip-path="url(#clip190)" style="stroke:#000000; stroke-linecap:round; stroke-linejoin:round; stroke-width:4; stroke-opacity:1; fill:none" points="141.853,1486.45 141.853,123.472 "/>
<polyline clip-path="url(#clip190)" style="stroke:#000000; stroke-linecap:round; stroke-linejoin:round; stroke-width:4; stroke-opacity:1; fill:none" points="141.853,1486.45 160.751,1486.45 "/>
<polyline clip-path="url(#clip190)" style="stroke:#000000; stroke-linecap:round; stroke-linejoin:round; stroke-width:4; stroke-opacity:1; fill:none" points="141.853,1158.02 160.751,1158.02 "/>
<polyline clip-path="url(#clip190)" style="stroke:#000000; stroke-linecap:round; stroke-linejoin:round; stroke-width:4; stroke-opacity:1; fill:none" points="141.853,829.592 160.751,829.592 "/>
<polyline clip-path="url(#clip190)" style="stroke:#000000; stroke-linecap:round; stroke-linejoin:round; stroke-width:4; stroke-opacity:1; fill:none" points="141.853,501.164 160.751,501.164 "/>
<polyline clip-path="url(#clip190)" style="stroke:#000000; stroke-linecap:round; stroke-linejoin:round; stroke-width:4; stroke-opacity:1; fill:none" points="141.853,172.736 160.751,172.736 "/>
<path clip-path="url(#clip190)" d="M93.9086 1472.25 Q90.2975 1472.25 88.4688 1475.81 Q86.6632 1479.35 86.6632 1486.48 Q86.6632 1493.59 88.4688 1497.15 Q90.2975 1500.7 93.9086 1500.7 Q97.5428 1500.7 99.3483 1497.15 Q101.177 1493.59 101.177 1486.48 Q101.177 1479.35 99.3483 1475.81 Q97.5428 1472.25 93.9086 1472.25 M93.9086 1468.54 Q99.7187 1468.54 102.774 1473.15 Q105.853 1477.73 105.853 1486.48 Q105.853 1495.21 102.774 1499.82 Q99.7187 1504.4 93.9086 1504.4 Q88.0984 1504.4 85.0197 1499.82 Q81.9642 1495.21 81.9642 1486.48 Q81.9642 1477.73 85.0197 1473.15 Q88.0984 1468.54 93.9086 1468.54 Z" fill="#000000" fill-rule="nonzero" fill-opacity="1" /><path clip-path="url(#clip190)" d="M57.7745 1171.36 L74.0939 1171.36 L74.0939 1175.3 L52.1495 1175.3 L52.1495 1171.36 Q54.8115 1168.61 59.3949 1163.98 Q64.0013 1159.33 65.1819 1157.99 Q67.4272 1155.46 68.3068 1153.73 Q69.2096 1151.97 69.2096 1150.28 Q69.2096 1147.52 67.2652 1145.79 Q65.3439 1144.05 62.2421 1144.05 Q60.043 1144.05 57.5893 1144.81 Q55.1588 1145.58 52.381 1147.13 L52.381 1142.41 Q55.2051 1141.27 57.6588 1140.69 Q60.1124 1140.11 62.1495 1140.11 Q67.5198 1140.11 70.7142 1142.8 Q73.9087 1145.49 73.9087 1149.98 Q73.9087 1152.11 73.0985 1154.03 Q72.3115 1155.93 70.205 1158.52 Q69.6263 1159.19 66.5245 1162.41 Q63.4226 1165.6 57.7745 1171.36 Z" fill="#000000" fill-rule="nonzero" fill-opacity="1" /><path clip-path="url(#clip190)" d="M93.9086 1143.82 Q90.2975 1143.82 88.4688 1147.38 Q86.6632 1150.93 86.6632 1158.05 Q86.6632 1165.16 88.4688 1168.73 Q90.2975 1172.27 93.9086 1172.27 Q97.5428 1172.27 99.3483 1168.73 Q101.177 1165.16 101.177 1158.05 Q101.177 1150.93 99.3483 1147.38 Q97.5428 1143.82 93.9086 1143.82 M93.9086 1140.11 Q99.7187 1140.11 102.774 1144.72 Q105.853 1149.3 105.853 1158.05 Q105.853 1166.78 102.774 1171.39 Q99.7187 1175.97 93.9086 1175.97 Q88.0984 1175.97 85.0197 1171.39 Q81.9642 1166.78 81.9642 1158.05 Q81.9642 1149.3 85.0197 1144.72 Q88.0984 1140.11 93.9086 1140.11 Z" fill="#000000" fill-rule="nonzero" fill-opacity="1" /><path clip-path="url(#clip190)" d="M66.5939 816.386 L54.7884 834.835 L66.5939 834.835 L66.5939 816.386 M65.367 812.312 L71.2466 812.312 L71.2466 834.835 L76.1772 834.835 L76.1772 838.724 L71.2466 838.724 L71.2466 846.872 L66.5939 846.872 L66.5939 838.724 L50.9921 838.724 L50.9921 834.21 L65.367 812.312 Z" fill="#000000" fill-rule="nonzero" fill-opacity="1" /><path clip-path="url(#clip190)" d="M93.9086 815.391 Q90.2975 815.391 88.4688 818.956 Q86.6632 822.497 86.6632 829.627 Q86.6632 836.733 88.4688 840.298 Q90.2975 843.84 93.9086 843.84 Q97.5428 843.84 99.3483 840.298 Q101.177 836.733 101.177 829.627 Q101.177 822.497 99.3483 818.956 Q97.5428 815.391 93.9086 815.391 M93.9086 811.687 Q99.7187 811.687 102.774 816.294 Q105.853 820.877 105.853 829.627 Q105.853 838.354 102.774 842.96 Q99.7187 847.543 93.9086 847.543 Q88.0984 847.543 85.0197 842.96 Q81.9642 838.354 81.9642 829.627 Q81.9642 820.877 85.0197 816.294 Q88.0984 811.687 93.9086 811.687 Z" fill="#000000" fill-rule="nonzero" fill-opacity="1" /><path clip-path="url(#clip190)" d="M64.3254 499.301 Q61.1773 499.301 59.3254 501.454 Q57.4967 503.606 57.4967 507.356 Q57.4967 511.083 59.3254 513.259 Q61.1773 515.412 64.3254 515.412 Q67.4735 515.412 69.3022 513.259 Q71.1541 511.083 71.1541 507.356 Q71.1541 503.606 69.3022 501.454 Q67.4735 499.301 64.3254 499.301 M73.6077 484.648 L73.6077 488.907 Q71.8485 488.074 70.0429 487.634 Q68.2606 487.194 66.5013 487.194 Q61.8717 487.194 59.418 490.319 Q56.9875 493.444 56.6402 499.764 Q58.006 497.75 60.0662 496.685 Q62.1263 495.597 64.6032 495.597 Q69.8115 495.597 72.8207 498.768 Q75.8531 501.917 75.8531 507.356 Q75.8531 512.68 72.705 515.898 Q69.5568 519.115 64.3254 519.115 Q58.33 519.115 55.1588 514.532 Q51.9875 509.926 51.9875 501.199 Q51.9875 493.005 55.8764 488.143 Q59.7652 483.259 66.3161 483.259 Q68.0754 483.259 69.8578 483.606 Q71.6633 483.954 73.6077 484.648 Z" fill="#000000" fill-rule="nonzero" fill-opacity="1" /><path clip-path="url(#clip190)" d="M93.9086 486.963 Q90.2975 486.963 88.4688 490.528 Q86.6632 494.069 86.6632 501.199 Q86.6632 508.305 88.4688 511.87 Q90.2975 515.412 93.9086 515.412 Q97.5428 515.412 99.3483 511.87 Q101.177 508.305 101.177 501.199 Q101.177 494.069 99.3483 490.528 Q97.5428 486.963 93.9086 486.963 M93.9086 483.259 Q99.7187 483.259 102.774 487.866 Q105.853 492.449 105.853 501.199 Q105.853 509.926 102.774 514.532 Q99.7187 519.115 93.9086 519.115 Q88.0984 519.115 85.0197 514.532 Q81.9642 509.926 81.9642 501.199 Q81.9642 492.449 85.0197 487.866 Q88.0984 483.259 93.9086 483.259 Z" fill="#000000" fill-rule="nonzero" fill-opacity="1" /><path clip-path="url(#clip190)" d="M63.7467 173.604 Q60.4134 173.604 58.4921 175.387 Q56.5939 177.169 56.5939 180.294 Q56.5939 183.419 58.4921 185.202 Q60.4134 186.984 63.7467 186.984 Q67.08 186.984 69.0013 185.202 Q70.9226 183.396 70.9226 180.294 Q70.9226 177.169 69.0013 175.387 Q67.1032 173.604 63.7467 173.604 M59.0708 171.614 Q56.0615 170.873 54.3717 168.813 Q52.7051 166.753 52.7051 163.79 Q52.7051 159.646 55.6449 157.239 Q58.6078 154.831 63.7467 154.831 Q68.9087 154.831 71.8485 157.239 Q74.7883 159.646 74.7883 163.79 Q74.7883 166.753 73.0985 168.813 Q71.4318 170.873 68.4457 171.614 Q71.8253 172.401 73.7003 174.692 Q75.5985 176.984 75.5985 180.294 Q75.5985 185.317 72.5198 188.002 Q69.4642 190.688 63.7467 190.688 Q58.0291 190.688 54.9504 188.002 Q51.8949 185.317 51.8949 180.294 Q51.8949 176.984 53.793 174.692 Q55.6912 172.401 59.0708 171.614 M57.3578 164.229 Q57.3578 166.915 59.0245 168.419 Q60.7143 169.924 63.7467 169.924 Q66.7559 169.924 68.4457 168.419 Q70.1587 166.915 70.1587 164.229 Q70.1587 161.544 68.4457 160.04 Q66.7559 158.535 63.7467 158.535 Q60.7143 158.535 59.0245 160.04 Q57.3578 161.544 57.3578 164.229 Z" fill="#000000" fill-rule="nonzero" fill-opacity="1" /><path clip-path="url(#clip190)" d="M93.9086 158.535 Q90.2975 158.535 88.4688 162.1 Q86.6632 165.641 86.6632 172.771 Q86.6632 179.877 88.4688 183.442 Q90.2975 186.984 93.9086 186.984 Q97.5428 186.984 99.3483 183.442 Q101.177 179.877 101.177 172.771 Q101.177 165.641 99.3483 162.1 Q97.5428 158.535 93.9086 158.535 M93.9086 154.831 Q99.7187 154.831 102.774 159.438 Q105.853 164.021 105.853 172.771 Q105.853 181.498 102.774 186.104 Q99.7187 190.688 93.9086 190.688 Q88.0984 190.688 85.0197 186.104 Q81.9642 181.498 81.9642 172.771 Q81.9642 164.021 85.0197 159.438 Q88.0984 154.831 93.9086 154.831 Z" fill="#000000" fill-rule="nonzero" fill-opacity="1" /><path clip-path="url(#clip190)" d="M845.252 12.096 L853.435 12.096 L853.435 36.8875 L883.169 36.8875 L883.169 12.096 L891.351 12.096 L891.351 72.576 L883.169 72.576 L883.169 43.7741 L853.435 43.7741 L853.435 72.576 L845.252 72.576 L845.252 12.096 Z" fill="#000000" fill-rule="nonzero" fill-opacity="1" /><path clip-path="url(#clip190)" d="M907.312 27.2059 L914.766 27.2059 L914.766 72.576 L907.312 72.576 L907.312 27.2059 M907.312 9.54393 L914.766 9.54393 L914.766 18.9825 L907.312 18.9825 L907.312 9.54393 Z" fill="#000000" fill-rule="nonzero" fill-opacity="1" /><path clip-path="url(#clip190)" d="M959.285 28.5427 L959.285 35.5912 Q956.125 33.9709 952.723 33.1607 Q949.32 32.3505 945.674 32.3505 Q940.124 32.3505 937.329 34.0519 Q934.575 35.7533 934.575 39.156 Q934.575 41.7486 936.56 43.2475 Q938.545 44.7058 944.54 46.0426 L947.092 46.6097 Q955.032 48.3111 958.353 51.4303 Q961.716 54.509 961.716 60.0587 Q961.716 66.3781 956.693 70.0644 Q951.71 73.7508 942.96 73.7508 Q939.314 73.7508 935.344 73.0216 Q931.415 72.3329 927.04 70.9151 L927.04 63.2184 Q931.172 65.3654 935.182 66.4591 Q939.193 67.5124 943.122 67.5124 Q948.388 67.5124 951.224 65.73 Q954.059 63.9071 954.059 60.6258 Q954.059 57.5877 951.994 55.9673 Q949.968 54.3469 943.041 52.8481 L940.448 52.2405 Q933.521 50.7821 930.443 47.7845 Q927.364 44.7463 927.364 39.4801 Q927.364 33.0797 931.901 29.5959 Q936.438 26.1121 944.783 26.1121 Q948.915 26.1121 952.561 26.7198 Q956.206 27.3274 959.285 28.5427 Z" fill="#000000" fill-rule="nonzero" fill-opacity="1" /><path clip-path="url(#clip190)" d="M980.957 14.324 L980.957 27.2059 L996.31 27.2059 L996.31 32.9987 L980.957 32.9987 L980.957 57.6282 Q980.957 63.1779 982.456 64.7578 Q983.996 66.3376 988.654 66.3376 L996.31 66.3376 L996.31 72.576 L988.654 72.576 Q980.026 72.576 976.745 69.3758 Q973.463 66.1351 973.463 57.6282 L973.463 32.9987 L967.995 32.9987 L967.995 27.2059 L973.463 27.2059 L973.463 14.324 L980.957 14.324 Z" fill="#000000" fill-rule="nonzero" fill-opacity="1" /><path clip-path="url(#clip190)" d="M1023.69 32.4315 Q1017.7 32.4315 1014.22 37.1306 Q1010.73 41.7891 1010.73 49.9314 Q1010.73 58.0738 1014.17 62.7728 Q1017.66 67.4314 1023.69 67.4314 Q1029.65 67.4314 1033.13 62.7323 Q1036.62 58.0333 1036.62 49.9314 Q1036.62 41.8701 1033.13 37.1711 Q1029.65 32.4315 1023.69 32.4315 M1023.69 26.1121 Q1033.42 26.1121 1038.97 32.4315 Q1044.52 38.7509 1044.52 49.9314 Q1044.52 61.0714 1038.97 67.4314 Q1033.42 73.7508 1023.69 73.7508 Q1013.93 73.7508 1008.38 67.4314 Q1002.87 61.0714 1002.87 49.9314 Q1002.87 38.7509 1008.38 32.4315 Q1013.93 26.1121 1023.69 26.1121 Z" fill="#000000" fill-rule="nonzero" fill-opacity="1" /><path clip-path="url(#clip190)" d="M1086.73 49.3643 Q1086.73 41.2625 1083.36 36.8065 Q1080.04 32.3505 1074.01 32.3505 Q1068.01 32.3505 1064.65 36.8065 Q1061.33 41.2625 1061.33 49.3643 Q1061.33 57.4256 1064.65 61.8816 Q1068.01 66.3376 1074.01 66.3376 Q1080.04 66.3376 1083.36 61.8816 Q1086.73 57.4256 1086.73 49.3643 M1094.18 66.9452 Q1094.18 78.5308 1089.04 84.1616 Q1083.89 89.8329 1073.28 89.8329 Q1069.35 89.8329 1065.86 89.2252 Q1062.38 88.6581 1059.1 87.4428 L1059.1 80.1917 Q1062.38 81.9741 1065.58 82.8248 Q1068.78 83.6755 1072.1 83.6755 Q1079.43 83.6755 1083.08 79.8271 Q1086.73 76.0193 1086.73 68.282 L1086.73 64.5957 Q1084.42 68.6061 1080.81 70.5911 Q1077.21 72.576 1072.18 72.576 Q1063.84 72.576 1058.73 66.2161 Q1053.63 59.8562 1053.63 49.3643 Q1053.63 38.832 1058.73 32.472 Q1063.84 26.1121 1072.18 26.1121 Q1077.21 26.1121 1080.81 28.0971 Q1084.42 30.082 1086.73 34.0924 L1086.73 27.2059 L1094.18 27.2059 L1094.18 66.9452 Z" fill="#000000" fill-rule="nonzero" fill-opacity="1" /><path clip-path="url(#clip190)" d="M1135.82 34.1734 Q1134.57 33.4443 1133.07 33.1202 Q1131.61 32.7556 1129.83 32.7556 Q1123.51 32.7556 1120.11 36.8875 Q1116.74 40.9789 1116.74 48.6757 L1116.74 72.576 L1109.25 72.576 L1109.25 27.2059 L1116.74 27.2059 L1116.74 34.2544 Q1119.09 30.1225 1122.86 28.1376 Q1126.63 26.1121 1132.02 26.1121 Q1132.79 26.1121 1133.72 26.2337 Q1134.65 26.3147 1135.78 26.5172 L1135.82 34.1734 Z" fill="#000000" fill-rule="nonzero" fill-opacity="1" /><path clip-path="url(#clip190)" d="M1164.26 49.7694 Q1155.23 49.7694 1151.74 51.8354 Q1148.26 53.9013 1148.26 58.8839 Q1148.26 62.8538 1150.85 65.2034 Q1153.49 67.5124 1157.98 67.5124 Q1164.18 67.5124 1167.91 63.1374 Q1171.67 58.7219 1171.67 51.4303 L1171.67 49.7694 L1164.26 49.7694 M1179.13 46.6907 L1179.13 72.576 L1171.67 72.576 L1171.67 65.6895 Q1169.12 69.8214 1165.31 71.8063 Q1161.51 73.7508 1156 73.7508 Q1149.03 73.7508 1144.9 69.8619 Q1140.81 65.9325 1140.81 59.3701 Q1140.81 51.7138 1145.91 47.825 Q1151.05 43.9361 1161.22 43.9361 L1171.67 43.9361 L1171.67 43.2069 Q1171.67 38.0623 1168.27 35.2672 Q1164.91 32.4315 1158.79 32.4315 Q1154.9 32.4315 1151.22 33.3632 Q1147.53 34.295 1144.13 36.1584 L1144.13 29.2718 Q1148.22 27.692 1152.07 26.9223 Q1155.92 26.1121 1159.56 26.1121 Q1169.41 26.1121 1174.27 31.2163 Q1179.13 36.3204 1179.13 46.6907 Z" fill="#000000" fill-rule="nonzero" fill-opacity="1" /><path clip-path="url(#clip190)" d="M1229.8 35.9153 Q1232.6 30.8922 1236.49 28.5022 Q1240.38 26.1121 1245.64 26.1121 Q1252.73 26.1121 1256.58 31.0947 Q1260.43 36.0368 1260.43 45.1919 L1260.43 72.576 L1252.94 72.576 L1252.94 45.4349 Q1252.94 38.913 1250.63 35.7533 Q1248.32 32.5936 1243.58 32.5936 Q1237.78 32.5936 1234.42 36.4419 Q1231.06 40.2903 1231.06 46.9338 L1231.06 72.576 L1223.57 72.576 L1223.57 45.4349 Q1223.57 38.8725 1221.26 35.7533 Q1218.95 32.5936 1214.13 32.5936 Q1208.42 32.5936 1205.05 36.4824 Q1201.69 40.3308 1201.69 46.9338 L1201.69 72.576 L1194.2 72.576 L1194.2 27.2059 L1201.69 27.2059 L1201.69 34.2544 Q1204.24 30.082 1207.81 28.0971 Q1211.37 26.1121 1216.27 26.1121 Q1221.22 26.1121 1224.66 28.6237 Q1228.14 31.1352 1229.8 35.9153 Z" fill="#000000" fill-rule="nonzero" fill-opacity="1" /><path clip-path="url(#clip190)" d="M1301.99 12.096 L1340.23 12.096 L1340.23 18.9825 L1310.17 18.9825 L1310.17 36.8875 L1338.98 36.8875 L1338.98 43.7741 L1310.17 43.7741 L1310.17 65.6895 L1340.96 65.6895 L1340.96 72.576 L1301.99 72.576 L1301.99 12.096 Z" fill="#000000" fill-rule="nonzero" fill-opacity="1" /><path clip-path="url(#clip190)" d="M1391.8 27.2059 L1375.39 49.2833 L1392.65 72.576 L1383.86 72.576 L1370.65 54.752 L1357.45 72.576 L1348.66 72.576 L1366.28 48.8377 L1350.16 27.2059 L1358.95 27.2059 L1370.98 43.369 L1383.01 27.2059 L1391.8 27.2059 Z" fill="#000000" fill-rule="nonzero" fill-opacity="1" /><path clip-path="url(#clip190)" d="M1423.8 49.7694 Q1414.77 49.7694 1411.29 51.8354 Q1407.8 53.9013 1407.8 58.8839 Q1407.8 62.8538 1410.39 65.2034 Q1413.03 67.5124 1417.52 67.5124 Q1423.72 67.5124 1427.45 63.1374 Q1431.22 58.7219 1431.22 51.4303 L1431.22 49.7694 L1423.8 49.7694 M1438.67 46.6907 L1438.67 72.576 L1431.22 72.576 L1431.22 65.6895 Q1428.66 69.8214 1424.86 71.8063 Q1421.05 73.7508 1415.54 73.7508 Q1408.57 73.7508 1404.44 69.8619 Q1400.35 65.9325 1400.35 59.3701 Q1400.35 51.7138 1405.45 47.825 Q1410.6 43.9361 1420.76 43.9361 L1431.22 43.9361 L1431.22 43.2069 Q1431.22 38.0623 1427.81 35.2672 Q1424.45 32.4315 1418.33 32.4315 Q1414.44 32.4315 1410.76 33.3632 Q1407.07 34.295 1403.67 36.1584 L1403.67 29.2718 Q1407.76 27.692 1411.61 26.9223 Q1415.46 26.1121 1419.1 26.1121 Q1428.95 26.1121 1433.81 31.2163 Q1438.67 36.3204 1438.67 46.6907 Z" fill="#000000" fill-rule="nonzero" fill-opacity="1" /><path clip-path="url(#clip190)" d="M1489.35 35.9153 Q1492.14 30.8922 1496.03 28.5022 Q1499.92 26.1121 1505.18 26.1121 Q1512.27 26.1121 1516.12 31.0947 Q1519.97 36.0368 1519.97 45.1919 L1519.97 72.576 L1512.48 72.576 L1512.48 45.4349 Q1512.48 38.913 1510.17 35.7533 Q1507.86 32.5936 1503.12 32.5936 Q1497.33 32.5936 1493.96 36.4419 Q1490.6 40.2903 1490.6 46.9338 L1490.6 72.576 L1483.11 72.576 L1483.11 45.4349 Q1483.11 38.8725 1480.8 35.7533 Q1478.49 32.5936 1473.67 32.5936 Q1467.96 32.5936 1464.59 36.4824 Q1461.23 40.3308 1461.23 46.9338 L1461.23 72.576 L1453.74 72.576 L1453.74 27.2059 L1461.23 27.2059 L1461.23 34.2544 Q1463.78 30.082 1467.35 28.0971 Q1470.91 26.1121 1475.82 26.1121 Q1480.76 26.1121 1484.2 28.6237 Q1487.69 31.1352 1489.35 35.9153 Z" fill="#000000" fill-rule="nonzero" fill-opacity="1" /><path clip-path="url(#clip190)" d="M1542.05 65.7705 L1542.05 89.8329 L1534.55 89.8329 L1534.55 27.2059 L1542.05 27.2059 L1542.05 34.0924 Q1544.4 30.0415 1547.96 28.0971 Q1551.57 26.1121 1556.55 26.1121 Q1564.81 26.1121 1569.96 32.6746 Q1575.14 39.2371 1575.14 49.9314 Q1575.14 60.6258 1569.96 67.1883 Q1564.81 73.7508 1556.55 73.7508 Q1551.57 73.7508 1547.96 71.8063 Q1544.4 69.8214 1542.05 65.7705 M1567.41 49.9314 Q1567.41 41.7081 1564 37.0496 Q1560.64 32.3505 1554.73 32.3505 Q1548.81 32.3505 1545.41 37.0496 Q1542.05 41.7081 1542.05 49.9314 Q1542.05 58.1548 1545.41 62.8538 Q1548.81 67.5124 1554.73 67.5124 Q1560.64 67.5124 1564 62.8538 Q1567.41 58.1548 1567.41 49.9314 Z" fill="#000000" fill-rule="nonzero" fill-opacity="1" /><path clip-path="url(#clip190)" d="M1587.5 9.54393 L1594.95 9.54393 L1594.95 72.576 L1587.5 72.576 L1587.5 9.54393 Z" fill="#000000" fill-rule="nonzero" fill-opacity="1" /><path clip-path="url(#clip190)" d="M1649.36 48.0275 L1649.36 51.6733 L1615.09 51.6733 Q1615.57 59.3701 1619.7 63.421 Q1623.88 67.4314 1631.29 67.4314 Q1635.58 67.4314 1639.59 66.3781 Q1643.64 65.3249 1647.61 63.2184 L1647.61 70.267 Q1643.6 71.9684 1639.39 72.8596 Q1635.18 73.7508 1630.84 73.7508 Q1619.99 73.7508 1613.63 67.4314 Q1607.31 61.1119 1607.31 50.3365 Q1607.31 39.1965 1613.3 32.6746 Q1619.34 26.1121 1629.55 26.1121 Q1638.7 26.1121 1644.01 32.0264 Q1649.36 37.9003 1649.36 48.0275 M1641.9 45.84 Q1641.82 39.7232 1638.46 36.0774 Q1635.14 32.4315 1629.63 32.4315 Q1623.39 32.4315 1619.62 35.9558 Q1615.9 39.4801 1615.33 45.8805 L1641.9 45.84 Z" fill="#000000" fill-rule="nonzero" fill-opacity="1" /><path clip-path="url(#clip192)" d="M263.457 1470.03 L263.457 1486.45 L323.084 1486.45 L323.084 1470.03 L263.457 1470.03 L263.457 1470.03  Z" fill="#009af9" fill-rule="evenodd" fill-opacity="1"/>
<polyline clip-path="url(#clip192)" style="stroke:#000000; stroke-linecap:round; stroke-linejoin:round; stroke-width:4; stroke-opacity:1; fill:none" points="263.457,1470.03 263.457,1486.45 323.084,1486.45 323.084,1470.03 263.457,1470.03 "/>
<path clip-path="url(#clip192)" d="M323.084 1470.03 L323.084 1486.45 L382.711 1486.45 L382.711 1470.03 L323.084 1470.03 L323.084 1470.03  Z" fill="#009af9" fill-rule="evenodd" fill-opacity="1"/>
<polyline clip-path="url(#clip192)" style="stroke:#000000; stroke-linecap:round; stroke-linejoin:round; stroke-width:4; stroke-opacity:1; fill:none" points="323.084,1470.03 323.084,1486.45 382.711,1486.45 382.711,1470.03 323.084,1470.03 "/>
<path clip-path="url(#clip192)" d="M382.711 1470.03 L382.711 1486.45 L442.338 1486.45 L442.338 1470.03 L382.711 1470.03 L382.711 1470.03  Z" fill="#009af9" fill-rule="evenodd" fill-opacity="1"/>
<polyline clip-path="url(#clip192)" style="stroke:#000000; stroke-linecap:round; stroke-linejoin:round; stroke-width:4; stroke-opacity:1; fill:none" points="382.711,1470.03 382.711,1486.45 442.338,1486.45 442.338,1470.03 382.711,1470.03 "/>
<path clip-path="url(#clip192)" d="M442.338 1437.18 L442.338 1486.45 L501.965 1486.45 L501.965 1437.18 L442.338 1437.18 L442.338 1437.18  Z" fill="#009af9" fill-rule="evenodd" fill-opacity="1"/>
<polyline clip-path="url(#clip192)" style="stroke:#000000; stroke-linecap:round; stroke-linejoin:round; stroke-width:4; stroke-opacity:1; fill:none" points="442.338,1437.18 442.338,1486.45 501.965,1486.45 501.965,1437.18 442.338,1437.18 "/>
<path clip-path="url(#clip192)" d="M501.965 1338.66 L501.965 1486.45 L561.592 1486.45 L561.592 1338.66 L501.965 1338.66 L501.965 1338.66  Z" fill="#009af9" fill-rule="evenodd" fill-opacity="1"/>
<polyline clip-path="url(#clip192)" style="stroke:#000000; stroke-linecap:round; stroke-linejoin:round; stroke-width:4; stroke-opacity:1; fill:none" points="501.965,1338.66 501.965,1486.45 561.592,1486.45 561.592,1338.66 501.965,1338.66 "/>
<path clip-path="url(#clip192)" d="M561.592 1322.23 L561.592 1486.45 L621.219 1486.45 L621.219 1322.23 L561.592 1322.23 L561.592 1322.23  Z" fill="#009af9" fill-rule="evenodd" fill-opacity="1"/>
<polyline clip-path="url(#clip192)" style="stroke:#000000; stroke-linecap:round; stroke-linejoin:round; stroke-width:4; stroke-opacity:1; fill:none" points="561.592,1322.23 561.592,1486.45 621.219,1486.45 621.219,1322.23 561.592,1322.23 "/>
<path clip-path="url(#clip192)" d="M621.219 1207.28 L621.219 1486.45 L680.847 1486.45 L680.847 1207.28 L621.219 1207.28 L621.219 1207.28  Z" fill="#009af9" fill-rule="evenodd" fill-opacity="1"/>
<polyline clip-path="url(#clip192)" style="stroke:#000000; stroke-linecap:round; stroke-linejoin:round; stroke-width:4; stroke-opacity:1; fill:none" points="621.219,1207.28 621.219,1486.45 680.847,1486.45 680.847,1207.28 621.219,1207.28 "/>
<path clip-path="url(#clip192)" d="M680.847 1092.33 L680.847 1486.45 L740.474 1486.45 L740.474 1092.33 L680.847 1092.33 L680.847 1092.33  Z" fill="#009af9" fill-rule="evenodd" fill-opacity="1"/>
<polyline clip-path="url(#clip192)" style="stroke:#000000; stroke-linecap:round; stroke-linejoin:round; stroke-width:4; stroke-opacity:1; fill:none" points="680.847,1092.33 680.847,1486.45 740.474,1486.45 740.474,1092.33 680.847,1092.33 "/>
<path clip-path="url(#clip192)" d="M740.474 1108.76 L740.474 1486.45 L800.101 1486.45 L800.101 1108.76 L740.474 1108.76 L740.474 1108.76  Z" fill="#009af9" fill-rule="evenodd" fill-opacity="1"/>
<polyline clip-path="url(#clip192)" style="stroke:#000000; stroke-linecap:round; stroke-linejoin:round; stroke-width:4; stroke-opacity:1; fill:none" points="740.474,1108.76 740.474,1486.45 800.101,1486.45 800.101,1108.76 740.474,1108.76 "/>
<path clip-path="url(#clip192)" d="M800.101 977.385 L800.101 1486.45 L859.728 1486.45 L859.728 977.385 L800.101 977.385 L800.101 977.385  Z" fill="#009af9" fill-rule="evenodd" fill-opacity="1"/>
<polyline clip-path="url(#clip192)" style="stroke:#000000; stroke-linecap:round; stroke-linejoin:round; stroke-width:4; stroke-opacity:1; fill:none" points="800.101,977.385 800.101,1486.45 859.728,1486.45 859.728,977.385 800.101,977.385 "/>
<path clip-path="url(#clip192)" d="M859.728 714.642 L859.728 1486.45 L919.355 1486.45 L919.355 714.642 L859.728 714.642 L859.728 714.642  Z" fill="#009af9" fill-rule="evenodd" fill-opacity="1"/>
<polyline clip-path="url(#clip192)" style="stroke:#000000; stroke-linecap:round; stroke-linejoin:round; stroke-width:4; stroke-opacity:1; fill:none" points="859.728,714.642 859.728,1486.45 919.355,1486.45 919.355,714.642 859.728,714.642 "/>
<path clip-path="url(#clip192)" d="M919.355 665.378 L919.355 1486.45 L978.982 1486.45 L978.982 665.378 L919.355 665.378 L919.355 665.378  Z" fill="#009af9" fill-rule="evenodd" fill-opacity="1"/>
<polyline clip-path="url(#clip192)" style="stroke:#000000; stroke-linecap:round; stroke-linejoin:round; stroke-width:4; stroke-opacity:1; fill:none" points="919.355,665.378 919.355,1486.45 978.982,1486.45 978.982,665.378 919.355,665.378 "/>
<path clip-path="url(#clip192)" d="M978.982 435.479 L978.982 1486.45 L1038.61 1486.45 L1038.61 435.479 L978.982 435.479 L978.982 435.479  Z" fill="#009af9" fill-rule="evenodd" fill-opacity="1"/>
<polyline clip-path="url(#clip192)" style="stroke:#000000; stroke-linecap:round; stroke-linejoin:round; stroke-width:4; stroke-opacity:1; fill:none" points="978.982,435.479 978.982,1486.45 1038.61,1486.45 1038.61,435.479 978.982,435.479 "/>
<path clip-path="url(#clip192)" d="M1038.61 616.114 L1038.61 1486.45 L1098.24 1486.45 L1098.24 616.114 L1038.61 616.114 L1038.61 616.114  Z" fill="#009af9" fill-rule="evenodd" fill-opacity="1"/>
<polyline clip-path="url(#clip192)" style="stroke:#000000; stroke-linecap:round; stroke-linejoin:round; stroke-width:4; stroke-opacity:1; fill:none" points="1038.61,616.114 1038.61,1486.45 1098.24,1486.45 1098.24,616.114 1038.61,616.114 "/>
<path clip-path="url(#clip192)" d="M1098.24 254.843 L1098.24 1486.45 L1157.86 1486.45 L1157.86 254.843 L1098.24 254.843 L1098.24 254.843  Z" fill="#009af9" fill-rule="evenodd" fill-opacity="1"/>
<polyline clip-path="url(#clip192)" style="stroke:#000000; stroke-linecap:round; stroke-linejoin:round; stroke-width:4; stroke-opacity:1; fill:none" points="1098.24,254.843 1098.24,1486.45 1157.86,1486.45 1157.86,254.843 1098.24,254.843 "/>
<path clip-path="url(#clip192)" d="M1157.86 123.472 L1157.86 1486.45 L1217.49 1486.45 L1217.49 123.472 L1157.86 123.472 L1157.86 123.472  Z" fill="#009af9" fill-rule="evenodd" fill-opacity="1"/>
<polyline clip-path="url(#clip192)" style="stroke:#000000; stroke-linecap:round; stroke-linejoin:round; stroke-width:4; stroke-opacity:1; fill:none" points="1157.86,123.472 1157.86,1486.45 1217.49,1486.45 1217.49,123.472 1157.86,123.472 "/>
<path clip-path="url(#clip192)" d="M1217.49 156.315 L1217.49 1486.45 L1277.12 1486.45 L1277.12 156.315 L1217.49 156.315 L1217.49 156.315  Z" fill="#009af9" fill-rule="evenodd" fill-opacity="1"/>
<polyline clip-path="url(#clip192)" style="stroke:#000000; stroke-linecap:round; stroke-linejoin:round; stroke-width:4; stroke-opacity:1; fill:none" points="1217.49,156.315 1217.49,1486.45 1277.12,1486.45 1277.12,156.315 1217.49,156.315 "/>
<path clip-path="url(#clip192)" d="M1277.12 238.422 L1277.12 1486.45 L1336.75 1486.45 L1336.75 238.422 L1277.12 238.422 L1277.12 238.422  Z" fill="#009af9" fill-rule="evenodd" fill-opacity="1"/>
<polyline clip-path="url(#clip192)" style="stroke:#000000; stroke-linecap:round; stroke-linejoin:round; stroke-width:4; stroke-opacity:1; fill:none" points="1277.12,238.422 1277.12,1486.45 1336.75,1486.45 1336.75,238.422 1277.12,238.422 "/>
<path clip-path="url(#clip192)" d="M1336.75 320.529 L1336.75 1486.45 L1396.37 1486.45 L1396.37 320.529 L1336.75 320.529 L1336.75 320.529  Z" fill="#009af9" fill-rule="evenodd" fill-opacity="1"/>
<polyline clip-path="url(#clip192)" style="stroke:#000000; stroke-linecap:round; stroke-linejoin:round; stroke-width:4; stroke-opacity:1; fill:none" points="1336.75,320.529 1336.75,1486.45 1396.37,1486.45 1396.37,320.529 1336.75,320.529 "/>
<path clip-path="url(#clip192)" d="M1396.37 369.793 L1396.37 1486.45 L1456 1486.45 L1456 369.793 L1396.37 369.793 L1396.37 369.793  Z" fill="#009af9" fill-rule="evenodd" fill-opacity="1"/>
<polyline clip-path="url(#clip192)" style="stroke:#000000; stroke-linecap:round; stroke-linejoin:round; stroke-width:4; stroke-opacity:1; fill:none" points="1396.37,369.793 1396.37,1486.45 1456,1486.45 1456,369.793 1396.37,369.793 "/>
<path clip-path="url(#clip192)" d="M1456 599.693 L1456 1486.45 L1515.63 1486.45 L1515.63 599.693 L1456 599.693 L1456 599.693  Z" fill="#009af9" fill-rule="evenodd" fill-opacity="1"/>
<polyline clip-path="url(#clip192)" style="stroke:#000000; stroke-linecap:round; stroke-linejoin:round; stroke-width:4; stroke-opacity:1; fill:none" points="1456,599.693 1456,1486.45 1515.63,1486.45 1515.63,599.693 1456,599.693 "/>
<path clip-path="url(#clip192)" d="M1515.63 731.064 L1515.63 1486.45 L1575.25 1486.45 L1575.25 731.064 L1515.63 731.064 L1515.63 731.064  Z" fill="#009af9" fill-rule="evenodd" fill-opacity="1"/>
<polyline clip-path="url(#clip192)" style="stroke:#000000; stroke-linecap:round; stroke-linejoin:round; stroke-width:4; stroke-opacity:1; fill:none" points="1515.63,731.064 1515.63,1486.45 1575.25,1486.45 1575.25,731.064 1515.63,731.064 "/>
<path clip-path="url(#clip192)" d="M1575.25 944.542 L1575.25 1486.45 L1634.88 1486.45 L1634.88 944.542 L1575.25 944.542 L1575.25 944.542  Z" fill="#009af9" fill-rule="evenodd" fill-opacity="1"/>
<polyline clip-path="url(#clip192)" style="stroke:#000000; stroke-linecap:round; stroke-linejoin:round; stroke-width:4; stroke-opacity:1; fill:none" points="1575.25,944.542 1575.25,1486.45 1634.88,1486.45 1634.88,944.542 1575.25,944.542 "/>
<path clip-path="url(#clip192)" d="M1634.88 1075.91 L1634.88 1486.45 L1694.51 1486.45 L1694.51 1075.91 L1634.88 1075.91 L1634.88 1075.91  Z" fill="#009af9" fill-rule="evenodd" fill-opacity="1"/>
<polyline clip-path="url(#clip192)" style="stroke:#000000; stroke-linecap:round; stroke-linejoin:round; stroke-width:4; stroke-opacity:1; fill:none" points="1634.88,1075.91 1634.88,1486.45 1694.51,1486.45 1694.51,1075.91 1634.88,1075.91 "/>
<path clip-path="url(#clip192)" d="M1694.51 1289.39 L1694.51 1486.45 L1754.14 1486.45 L1754.14 1289.39 L1694.51 1289.39 L1694.51 1289.39  Z" fill="#009af9" fill-rule="evenodd" fill-opacity="1"/>
<polyline clip-path="url(#clip192)" style="stroke:#000000; stroke-linecap:round; stroke-linejoin:round; stroke-width:4; stroke-opacity:1; fill:none" points="1694.51,1289.39 1694.51,1486.45 1754.14,1486.45 1754.14,1289.39 1694.51,1289.39 "/>
<path clip-path="url(#clip192)" d="M1754.14 1190.86 L1754.14 1486.45 L1813.76 1486.45 L1813.76 1190.86 L1754.14 1190.86 L1754.14 1190.86  Z" fill="#009af9" fill-rule="evenodd" fill-opacity="1"/>
<polyline clip-path="url(#clip192)" style="stroke:#000000; stroke-linecap:round; stroke-linejoin:round; stroke-width:4; stroke-opacity:1; fill:none" points="1754.14,1190.86 1754.14,1486.45 1813.76,1486.45 1813.76,1190.86 1754.14,1190.86 "/>
<path clip-path="url(#clip192)" d="M1813.76 1338.66 L1813.76 1486.45 L1873.39 1486.45 L1873.39 1338.66 L1813.76 1338.66 L1813.76 1338.66  Z" fill="#009af9" fill-rule="evenodd" fill-opacity="1"/>
<polyline clip-path="url(#clip192)" style="stroke:#000000; stroke-linecap:round; stroke-linejoin:round; stroke-width:4; stroke-opacity:1; fill:none" points="1813.76,1338.66 1813.76,1486.45 1873.39,1486.45 1873.39,1338.66 1813.76,1338.66 "/>
<path clip-path="url(#clip192)" d="M1873.39 1355.08 L1873.39 1486.45 L1933.02 1486.45 L1933.02 1355.08 L1873.39 1355.08 L1873.39 1355.08  Z" fill="#009af9" fill-rule="evenodd" fill-opacity="1"/>
<polyline clip-path="url(#clip192)" style="stroke:#000000; stroke-linecap:round; stroke-linejoin:round; stroke-width:4; stroke-opacity:1; fill:none" points="1873.39,1355.08 1873.39,1486.45 1933.02,1486.45 1933.02,1355.08 1873.39,1355.08 "/>
<path clip-path="url(#clip192)" d="M1933.02 1420.76 L1933.02 1486.45 L1992.64 1486.45 L1992.64 1420.76 L1933.02 1420.76 L1933.02 1420.76  Z" fill="#009af9" fill-rule="evenodd" fill-opacity="1"/>
<polyline clip-path="url(#clip192)" style="stroke:#000000; stroke-linecap:round; stroke-linejoin:round; stroke-width:4; stroke-opacity:1; fill:none" points="1933.02,1420.76 1933.02,1486.45 1992.64,1486.45 1992.64,1420.76 1933.02,1420.76 "/>
<path clip-path="url(#clip192)" d="M1992.64 1486.45 L1992.64 1486.45 L2052.27 1486.45 L2052.27 1486.45 L1992.64 1486.45 L1992.64 1486.45  Z" fill="#009af9" fill-rule="evenodd" fill-opacity="1"/>
<polyline clip-path="url(#clip192)" style="stroke:#000000; stroke-linecap:round; stroke-linejoin:round; stroke-width:4; stroke-opacity:1; fill:none" points="1992.64,1486.45 1992.64,1486.45 2052.27,1486.45 1992.64,1486.45 "/>
<path clip-path="url(#clip192)" d="M2052.27 1470.03 L2052.27 1486.45 L2111.9 1486.45 L2111.9 1470.03 L2052.27 1470.03 L2052.27 1470.03  Z" fill="#009af9" fill-rule="evenodd" fill-opacity="1"/>
<polyline clip-path="url(#clip192)" style="stroke:#000000; stroke-linecap:round; stroke-linejoin:round; stroke-width:4; stroke-opacity:1; fill:none" points="2052.27,1470.03 2052.27,1486.45 2111.9,1486.45 2111.9,1470.03 2052.27,1470.03 "/>
<path clip-path="url(#clip192)" d="M2111.9 1470.03 L2111.9 1486.45 L2171.53 1486.45 L2171.53 1470.03 L2111.9 1470.03 L2111.9 1470.03  Z" fill="#009af9" fill-rule="evenodd" fill-opacity="1"/>
<polyline clip-path="url(#clip192)" style="stroke:#000000; stroke-linecap:round; stroke-linejoin:round; stroke-width:4; stroke-opacity:1; fill:none" points="2111.9,1470.03 2111.9,1486.45 2171.53,1486.45 2171.53,1470.03 2111.9,1470.03 "/>
<path clip-path="url(#clip192)" d="M2171.53 1470.03 L2171.53 1486.45 L2231.15 1486.45 L2231.15 1470.03 L2171.53 1470.03 L2171.53 1470.03  Z" fill="#009af9" fill-rule="evenodd" fill-opacity="1"/>
<polyline clip-path="url(#clip192)" style="stroke:#000000; stroke-linecap:round; stroke-linejoin:round; stroke-width:4; stroke-opacity:1; fill:none" points="2171.53,1470.03 2171.53,1486.45 2231.15,1486.45 2231.15,1470.03 2171.53,1470.03 "/>
<circle clip-path="url(#clip192)" style="fill:#009af9; stroke:none; fill-opacity:0" cx="293.27" cy="1470.03" r="2"/>
<circle clip-path="url(#clip192)" style="fill:#009af9; stroke:none; fill-opacity:0" cx="352.897" cy="1470.03" r="2"/>
<circle clip-path="url(#clip192)" style="fill:#009af9; stroke:none; fill-opacity:0" cx="412.524" cy="1470.03" r="2"/>
<circle clip-path="url(#clip192)" style="fill:#009af9; stroke:none; fill-opacity:0" cx="472.152" cy="1437.18" r="2"/>
<circle clip-path="url(#clip192)" style="fill:#009af9; stroke:none; fill-opacity:0" cx="531.779" cy="1338.66" r="2"/>
<circle clip-path="url(#clip192)" style="fill:#009af9; stroke:none; fill-opacity:0" cx="591.406" cy="1322.23" r="2"/>
<circle clip-path="url(#clip192)" style="fill:#009af9; stroke:none; fill-opacity:0" cx="651.033" cy="1207.28" r="2"/>
<circle clip-path="url(#clip192)" style="fill:#009af9; stroke:none; fill-opacity:0" cx="710.66" cy="1092.33" r="2"/>
<circle clip-path="url(#clip192)" style="fill:#009af9; stroke:none; fill-opacity:0" cx="770.287" cy="1108.76" r="2"/>
<circle clip-path="url(#clip192)" style="fill:#009af9; stroke:none; fill-opacity:0" cx="829.914" cy="977.385" r="2"/>
<circle clip-path="url(#clip192)" style="fill:#009af9; stroke:none; fill-opacity:0" cx="889.542" cy="714.642" r="2"/>
<circle clip-path="url(#clip192)" style="fill:#009af9; stroke:none; fill-opacity:0" cx="949.169" cy="665.378" r="2"/>
<circle clip-path="url(#clip192)" style="fill:#009af9; stroke:none; fill-opacity:0" cx="1008.8" cy="435.479" r="2"/>
<circle clip-path="url(#clip192)" style="fill:#009af9; stroke:none; fill-opacity:0" cx="1068.42" cy="616.114" r="2"/>
<circle clip-path="url(#clip192)" style="fill:#009af9; stroke:none; fill-opacity:0" cx="1128.05" cy="254.843" r="2"/>
<circle clip-path="url(#clip192)" style="fill:#009af9; stroke:none; fill-opacity:0" cx="1187.68" cy="123.472" r="2"/>
<circle clip-path="url(#clip192)" style="fill:#009af9; stroke:none; fill-opacity:0" cx="1247.3" cy="156.315" r="2"/>
<circle clip-path="url(#clip192)" style="fill:#009af9; stroke:none; fill-opacity:0" cx="1306.93" cy="238.422" r="2"/>
<circle clip-path="url(#clip192)" style="fill:#009af9; stroke:none; fill-opacity:0" cx="1366.56" cy="320.529" r="2"/>
<circle clip-path="url(#clip192)" style="fill:#009af9; stroke:none; fill-opacity:0" cx="1426.19" cy="369.793" r="2"/>
<circle clip-path="url(#clip192)" style="fill:#009af9; stroke:none; fill-opacity:0" cx="1485.81" cy="599.693" r="2"/>
<circle clip-path="url(#clip192)" style="fill:#009af9; stroke:none; fill-opacity:0" cx="1545.44" cy="731.064" r="2"/>
<circle clip-path="url(#clip192)" style="fill:#009af9; stroke:none; fill-opacity:0" cx="1605.07" cy="944.542" r="2"/>
<circle clip-path="url(#clip192)" style="fill:#009af9; stroke:none; fill-opacity:0" cx="1664.69" cy="1075.91" r="2"/>
<circle clip-path="url(#clip192)" style="fill:#009af9; stroke:none; fill-opacity:0" cx="1724.32" cy="1289.39" r="2"/>
<circle clip-path="url(#clip192)" style="fill:#009af9; stroke:none; fill-opacity:0" cx="1783.95" cy="1190.86" r="2"/>
<circle clip-path="url(#clip192)" style="fill:#009af9; stroke:none; fill-opacity:0" cx="1843.58" cy="1338.66" r="2"/>
<circle clip-path="url(#clip192)" style="fill:#009af9; stroke:none; fill-opacity:0" cx="1903.2" cy="1355.08" r="2"/>
<circle clip-path="url(#clip192)" style="fill:#009af9; stroke:none; fill-opacity:0" cx="1962.83" cy="1420.76" r="2"/>
<circle clip-path="url(#clip192)" style="fill:#009af9; stroke:none; fill-opacity:0" cx="2022.46" cy="1486.45" r="2"/>
<circle clip-path="url(#clip192)" style="fill:#009af9; stroke:none; fill-opacity:0" cx="2082.08" cy="1470.03" r="2"/>
<circle clip-path="url(#clip192)" style="fill:#009af9; stroke:none; fill-opacity:0" cx="2141.71" cy="1470.03" r="2"/>
<circle clip-path="url(#clip192)" style="fill:#009af9; stroke:none; fill-opacity:0" cx="2201.34" cy="1470.03" r="2"/>
<path clip-path="url(#clip190)" d="M2005.54 272.585 L2279.06 272.585 L2279.06 168.905 L2005.54 168.905  Z" fill="#ffffff" fill-rule="evenodd" fill-opacity="1"/>
<polyline clip-path="url(#clip190)" style="stroke:#000000; stroke-linecap:round; stroke-linejoin:round; stroke-width:4; stroke-opacity:1; fill:none" points="2005.54,272.585 2279.06,272.585 2279.06,168.905 2005.54,168.905 2005.54,272.585 "/>
<path clip-path="url(#clip190)" d="M2030.1 241.481 L2177.5 241.481 L2177.5 200.009 L2030.1 200.009 L2030.1 241.481  Z" fill="#009af9" fill-rule="evenodd" fill-opacity="1"/>
<polyline clip-path="url(#clip190)" style="stroke:#000000; stroke-linecap:round; stroke-linejoin:round; stroke-width:4; stroke-opacity:1; fill:none" points="2030.1,241.481 2177.5,241.481 2177.5,200.009 2030.1,200.009 2030.1,241.481 "/>
<path clip-path="url(#clip190)" d="M2215.91 240.432 Q2214.1 245.062 2212.39 246.474 Q2210.67 247.886 2207.8 247.886 L2204.4 247.886 L2204.4 244.321 L2206.9 244.321 Q2208.66 244.321 2209.63 243.488 Q2210.6 242.654 2211.79 239.552 L2212.55 237.608 L2202.06 212.099 L2206.58 212.099 L2214.68 232.377 L2222.78 212.099 L2227.29 212.099 L2215.91 240.432 Z" fill="#000000" fill-rule="nonzero" fill-opacity="1" /><path clip-path="url(#clip190)" d="M2234.59 234.089 L2242.23 234.089 L2242.23 207.724 L2233.91 209.391 L2233.91 205.131 L2242.18 203.465 L2246.85 203.465 L2246.85 234.089 L2254.49 234.089 L2254.49 238.025 L2234.59 238.025 L2234.59 234.089 Z" fill="#000000" fill-rule="nonzero" fill-opacity="1" /></svg>
