<?xml version="1.0" encoding="utf-8"?>
<svg xmlns="http://www.w3.org/2000/svg" xmlns:xlink="http://www.w3.org/1999/xlink" width="600" height="400" viewBox="0 0 2400 1600">
<defs>
  <clipPath id="clip070">
    <rect x="0" y="0" width="2400" height="1600"/>
  </clipPath>
</defs>
<path clip-path="url(#clip070)" d="M0 1600 L2400 1600 L2400 8.88178e-14 L0 8.88178e-14  Z" fill="#ffffff" fill-rule="evenodd" fill-opacity="1"/>
<defs>
  <clipPath id="clip071">
    <rect x="480" y="0" width="1681" height="1600"/>
  </clipPath>
</defs>
<path clip-path="url(#clip070)" d="M219.866 1423.18 L2352.76 1423.18 L2352.76 123.472 L219.866 123.472  Z" fill="#ffffff" fill-rule="evenodd" fill-opacity="1"/>
<defs>
  <clipPath id="clip072">
    <rect x="219" y="123" width="2134" height="1301"/>
  </clipPath>
</defs>
<polyline clip-path="url(#clip072)" style="stroke:#000000; stroke-linecap:round; stroke-linejoin:round; stroke-width:2; stroke-opacity:0.1; fill:none" points="703.844,1423.18 703.844,123.472 "/>
<polyline clip-path="url(#clip072)" style="stroke:#000000; stroke-linecap:round; stroke-linejoin:round; stroke-width:2; stroke-opacity:0.1; fill:none" points="1233.36,1423.18 1233.36,123.472 "/>
<polyline clip-path="url(#clip072)" style="stroke:#000000; stroke-linecap:round; stroke-linejoin:round; stroke-width:2; stroke-opacity:0.1; fill:none" points="1762.88,1423.18 1762.88,123.472 "/>
<polyline clip-path="url(#clip072)" style="stroke:#000000; stroke-linecap:round; stroke-linejoin:round; stroke-width:2; stroke-opacity:0.1; fill:none" points="2292.39,1423.18 2292.39,123.472 "/>
<polyline clip-path="url(#clip072)" style="stroke:#000000; stroke-linecap:round; stroke-linejoin:round; stroke-width:2; stroke-opacity:0.1; fill:none" points="219.866,1390.93 2352.76,1390.93 "/>
<polyline clip-path="url(#clip072)" style="stroke:#000000; stroke-linecap:round; stroke-linejoin:round; stroke-width:2; stroke-opacity:0.1; fill:none" points="219.866,1119.96 2352.76,1119.96 "/>
<polyline clip-path="url(#clip072)" style="stroke:#000000; stroke-linecap:round; stroke-linejoin:round; stroke-width:2; stroke-opacity:0.1; fill:none" points="219.866,848.984 2352.76,848.984 "/>
<polyline clip-path="url(#clip072)" style="stroke:#000000; stroke-linecap:round; stroke-linejoin:round; stroke-width:2; stroke-opacity:0.1; fill:none" points="219.866,578.009 2352.76,578.009 "/>
<polyline clip-path="url(#clip072)" style="stroke:#000000; stroke-linecap:round; stroke-linejoin:round; stroke-width:2; stroke-opacity:0.1; fill:none" points="219.866,307.033 2352.76,307.033 "/>
<polyline clip-path="url(#clip070)" style="stroke:#000000; stroke-linecap:round; stroke-linejoin:round; stroke-width:4; stroke-opacity:1; fill:none" points="219.866,1423.18 2352.76,1423.18 "/>
<polyline clip-path="url(#clip070)" style="stroke:#000000; stroke-linecap:round; stroke-linejoin:round; stroke-width:4; stroke-opacity:1; fill:none" points="703.844,1423.18 703.844,1404.28 "/>
<polyline clip-path="url(#clip070)" style="stroke:#000000; stroke-linecap:round; stroke-linejoin:round; stroke-width:4; stroke-opacity:1; fill:none" points="1233.36,1423.18 1233.36,1404.28 "/>
<polyline clip-path="url(#clip070)" style="stroke:#000000; stroke-linecap:round; stroke-linejoin:round; stroke-width:4; stroke-opacity:1; fill:none" points="1762.88,1423.18 1762.88,1404.28 "/>
<polyline clip-path="url(#clip070)" style="stroke:#000000; stroke-linecap:round; stroke-linejoin:round; stroke-width:4; stroke-opacity:1; fill:none" points="2292.39,1423.18 2292.39,1404.28 "/>
<path clip-path="url(#clip070)" d="M694.122 1451.02 L712.478 1451.02 L712.478 1454.96 L698.404 1454.96 L698.404 1463.43 Q699.422 1463.08 700.441 1462.92 Q701.459 1462.73 702.478 1462.73 Q708.265 1462.73 711.645 1465.9 Q715.024 1469.08 715.024 1474.49 Q715.024 1480.07 711.552 1483.17 Q708.08 1486.25 701.76 1486.25 Q699.584 1486.25 697.316 1485.88 Q695.071 1485.51 692.663 1484.77 L692.663 1480.07 Q694.747 1481.2 696.969 1481.76 Q699.191 1482.32 701.668 1482.32 Q705.672 1482.32 708.01 1480.21 Q710.348 1478.1 710.348 1474.49 Q710.348 1470.88 708.01 1468.77 Q705.672 1466.67 701.668 1466.67 Q699.793 1466.67 697.918 1467.08 Q696.066 1467.5 694.122 1468.38 L694.122 1451.02 Z" fill="#000000" fill-rule="nonzero" fill-opacity="1" /><path clip-path="url(#clip070)" d="M1208.05 1481.64 L1215.69 1481.64 L1215.69 1455.28 L1207.38 1456.95 L1207.38 1452.69 L1215.64 1451.02 L1220.32 1451.02 L1220.32 1481.64 L1227.95 1481.64 L1227.95 1485.58 L1208.05 1485.58 L1208.05 1481.64 Z" fill="#000000" fill-rule="nonzero" fill-opacity="1" /><path clip-path="url(#clip070)" d="M1247.4 1454.1 Q1243.79 1454.1 1241.96 1457.66 Q1240.15 1461.2 1240.15 1468.33 Q1240.15 1475.44 1241.96 1479.01 Q1243.79 1482.55 1247.4 1482.55 Q1251.03 1482.55 1252.84 1479.01 Q1254.67 1475.44 1254.67 1468.33 Q1254.67 1461.2 1252.84 1457.66 Q1251.03 1454.1 1247.4 1454.1 M1247.4 1450.39 Q1253.21 1450.39 1256.26 1455 Q1259.34 1459.58 1259.34 1468.33 Q1259.34 1477.06 1256.26 1481.67 Q1253.21 1486.25 1247.4 1486.25 Q1241.59 1486.25 1238.51 1481.67 Q1235.45 1477.06 1235.45 1468.33 Q1235.45 1459.58 1238.51 1455 Q1241.59 1450.39 1247.4 1450.39 Z" fill="#000000" fill-rule="nonzero" fill-opacity="1" /><path clip-path="url(#clip070)" d="M1738.06 1481.64 L1745.7 1481.64 L1745.7 1455.28 L1737.39 1456.95 L1737.39 1452.69 L1745.65 1451.02 L1750.33 1451.02 L1750.33 1481.64 L1757.97 1481.64 L1757.97 1485.58 L1738.06 1485.58 L1738.06 1481.64 Z" fill="#000000" fill-rule="nonzero" fill-opacity="1" /><path clip-path="url(#clip070)" d="M1767.46 1451.02 L1785.81 1451.02 L1785.81 1454.96 L1771.74 1454.96 L1771.74 1463.43 Q1772.76 1463.08 1773.78 1462.92 Q1774.8 1462.73 1775.82 1462.73 Q1781.6 1462.73 1784.98 1465.9 Q1788.36 1469.08 1788.36 1474.49 Q1788.36 1480.07 1784.89 1483.17 Q1781.42 1486.25 1775.1 1486.25 Q1772.92 1486.25 1770.65 1485.88 Q1768.41 1485.51 1766 1484.77 L1766 1480.07 Q1768.08 1481.2 1770.31 1481.76 Q1772.53 1482.32 1775 1482.32 Q1779.01 1482.32 1781.35 1480.21 Q1783.69 1478.1 1783.69 1474.49 Q1783.69 1470.88 1781.35 1468.77 Q1779.01 1466.67 1775 1466.67 Q1773.13 1466.67 1771.25 1467.08 Q1769.4 1467.5 1767.46 1468.38 L1767.46 1451.02 Z" fill="#000000" fill-rule="nonzero" fill-opacity="1" /><path clip-path="url(#clip070)" d="M2271.16 1481.64 L2287.48 1481.64 L2287.48 1485.58 L2265.54 1485.58 L2265.54 1481.64 Q2268.2 1478.89 2272.78 1474.26 Q2277.39 1469.61 2278.57 1468.27 Q2280.82 1465.74 2281.7 1464.01 Q2282.6 1462.25 2282.6 1460.56 Q2282.6 1457.8 2280.66 1456.07 Q2278.73 1454.33 2275.63 1454.33 Q2273.43 1454.33 2270.98 1455.09 Q2268.55 1455.86 2265.77 1457.41 L2265.77 1452.69 Q2268.59 1451.55 2271.05 1450.97 Q2273.5 1450.39 2275.54 1450.39 Q2280.91 1450.39 2284.1 1453.08 Q2287.3 1455.77 2287.3 1460.26 Q2287.3 1462.39 2286.49 1464.31 Q2285.7 1466.2 2283.59 1468.8 Q2283.02 1469.47 2279.91 1472.69 Q2276.81 1475.88 2271.16 1481.64 Z" fill="#000000" fill-rule="nonzero" fill-opacity="1" /><path clip-path="url(#clip070)" d="M2307.3 1454.1 Q2303.69 1454.1 2301.86 1457.66 Q2300.05 1461.2 2300.05 1468.33 Q2300.05 1475.44 2301.86 1479.01 Q2303.69 1482.55 2307.3 1482.55 Q2310.93 1482.55 2312.74 1479.01 Q2314.57 1475.44 2314.57 1468.33 Q2314.57 1461.2 2312.74 1457.66 Q2310.93 1454.1 2307.3 1454.1 M2307.3 1450.39 Q2313.11 1450.39 2316.16 1455 Q2319.24 1459.58 2319.24 1468.33 Q2319.24 1477.06 2316.16 1481.67 Q2313.11 1486.25 2307.3 1486.25 Q2301.49 1486.25 2298.41 1481.67 Q2295.35 1477.06 2295.35 1468.33 Q2295.35 1459.58 2298.41 1455 Q2301.49 1450.39 2307.3 1450.39 Z" fill="#000000" fill-rule="nonzero" fill-opacity="1" /><path clip-path="url(#clip070)" d="M1193.28 1520.52 L1200.18 1520.52 L1211.99 1538.19 L1223.86 1520.52 L1230.77 1520.52 L1215.49 1543.34 L1231.79 1568.04 L1224.88 1568.04 L1211.51 1547.83 L1198.05 1568.04 L1191.11 1568.04 L1208.08 1542.68 L1193.28 1520.52 Z" fill="#000000" fill-rule="nonzero" fill-opacity="1" /><path clip-path="url(#clip070)" d="M1233.76 1547.58 L1250.92 1547.58 L1250.92 1552.8 L1233.76 1552.8 L1233.76 1547.58 Z" fill="#000000" fill-rule="nonzero" fill-opacity="1" /><path clip-path="url(#clip070)" d="M1276.44 1550.12 Q1269.35 1550.12 1266.61 1551.75 Q1263.87 1553.37 1263.87 1557.29 Q1263.87 1560.4 1265.91 1562.25 Q1267.98 1564.07 1271.51 1564.07 Q1276.38 1564.07 1279.31 1560.63 Q1282.27 1557.16 1282.27 1551.43 L1282.27 1550.12 L1276.44 1550.12 M1288.13 1547.71 L1288.13 1568.04 L1282.27 1568.04 L1282.27 1562.63 Q1280.26 1565.88 1277.27 1567.44 Q1274.28 1568.97 1269.95 1568.97 Q1264.48 1568.97 1261.23 1565.91 Q1258.02 1562.82 1258.02 1557.67 Q1258.02 1551.65 1262.03 1548.6 Q1266.07 1545.54 1274.06 1545.54 L1282.27 1545.54 L1282.27 1544.97 Q1282.27 1540.93 1279.6 1538.73 Q1276.95 1536.5 1272.15 1536.5 Q1269.09 1536.5 1266.2 1537.23 Q1263.3 1537.97 1260.63 1539.43 L1260.63 1534.02 Q1263.84 1532.78 1266.86 1532.17 Q1269.89 1531.54 1272.75 1531.54 Q1280.49 1531.54 1284.31 1535.55 Q1288.13 1539.56 1288.13 1547.71 Z" fill="#000000" fill-rule="nonzero" fill-opacity="1" /><path clip-path="url(#clip070)" d="M1329.82 1532.4 L1316.93 1549.74 L1330.49 1568.04 L1323.58 1568.04 L1313.21 1554.04 L1302.83 1568.04 L1295.92 1568.04 L1309.77 1549.39 L1297.1 1532.4 L1304.01 1532.4 L1313.46 1545.1 L1322.91 1532.4 L1329.82 1532.4 Z" fill="#000000" fill-rule="nonzero" fill-opacity="1" /><path clip-path="url(#clip070)" d="M1338.76 1532.4 L1344.62 1532.4 L1344.62 1568.04 L1338.76 1568.04 L1338.76 1532.4 M1338.76 1518.52 L1344.62 1518.52 L1344.62 1525.93 L1338.76 1525.93 L1338.76 1518.52 Z" fill="#000000" fill-rule="nonzero" fill-opacity="1" /><path clip-path="url(#clip070)" d="M1379.6 1533.45 L1379.6 1538.98 Q1377.12 1537.71 1374.44 1537.07 Q1371.77 1536.44 1368.91 1536.44 Q1364.55 1536.44 1362.35 1537.77 Q1360.19 1539.11 1360.19 1541.79 Q1360.19 1543.82 1361.74 1545 Q1363.3 1546.15 1368.01 1547.2 L1370.02 1547.64 Q1376.26 1548.98 1378.87 1551.43 Q1381.51 1553.85 1381.51 1558.21 Q1381.51 1563.17 1377.56 1566.07 Q1373.65 1568.97 1366.77 1568.97 Q1363.91 1568.97 1360.79 1568.39 Q1357.7 1567.85 1354.27 1566.74 L1354.27 1560.69 Q1357.51 1562.38 1360.66 1563.24 Q1363.81 1564.07 1366.9 1564.07 Q1371.04 1564.07 1373.27 1562.66 Q1375.49 1561.23 1375.49 1558.65 Q1375.49 1556.27 1373.87 1554.99 Q1372.28 1553.72 1366.84 1552.54 L1364.8 1552.07 Q1359.36 1550.92 1356.94 1548.56 Q1354.52 1546.18 1354.52 1542.04 Q1354.52 1537.01 1358.08 1534.27 Q1361.65 1531.54 1368.21 1531.54 Q1371.45 1531.54 1374.32 1532.01 Q1377.18 1532.49 1379.6 1533.45 Z" fill="#000000" fill-rule="nonzero" fill-opacity="1" /><polyline clip-path="url(#clip070)" style="stroke:#000000; stroke-linecap:round; stroke-linejoin:round; stroke-width:4; stroke-opacity:1; fill:none" points="219.866,1423.18 219.866,123.472 "/>
<polyline clip-path="url(#clip070)" style="stroke:#000000; stroke-linecap:round; stroke-linejoin:round; stroke-width:4; stroke-opacity:1; fill:none" points="219.866,1390.93 238.764,1390.93 "/>
<polyline clip-path="url(#clip070)" style="stroke:#000000; stroke-linecap:round; stroke-linejoin:round; stroke-width:4; stroke-opacity:1; fill:none" points="219.866,1119.96 238.764,1119.96 "/>
<polyline clip-path="url(#clip070)" style="stroke:#000000; stroke-linecap:round; stroke-linejoin:round; stroke-width:4; stroke-opacity:1; fill:none" points="219.866,848.984 238.764,848.984 "/>
<polyline clip-path="url(#clip070)" style="stroke:#000000; stroke-linecap:round; stroke-linejoin:round; stroke-width:4; stroke-opacity:1; fill:none" points="219.866,578.009 238.764,578.009 "/>
<polyline clip-path="url(#clip070)" style="stroke:#000000; stroke-linecap:round; stroke-linejoin:round; stroke-width:4; stroke-opacity:1; fill:none" points="219.866,307.033 238.764,307.033 "/>
<path clip-path="url(#clip070)" d="M126.691 1376.73 Q123.08 1376.73 121.251 1380.3 Q119.445 1383.84 119.445 1390.97 Q119.445 1398.08 121.251 1401.64 Q123.08 1405.18 126.691 1405.18 Q130.325 1405.18 132.13 1401.64 Q133.959 1398.08 133.959 1390.97 Q133.959 1383.84 132.13 1380.3 Q130.325 1376.73 126.691 1376.73 M126.691 1373.03 Q132.501 1373.03 135.556 1377.64 Q138.635 1382.22 138.635 1390.97 Q138.635 1399.7 135.556 1404.3 Q132.501 1408.89 126.691 1408.89 Q120.88 1408.89 117.802 1404.3 Q114.746 1399.7 114.746 1390.97 Q114.746 1382.22 117.802 1377.64 Q120.88 1373.03 126.691 1373.03 Z" fill="#000000" fill-rule="nonzero" fill-opacity="1" /><path clip-path="url(#clip070)" d="M146.853 1402.34 L151.737 1402.34 L151.737 1408.21 L146.853 1408.21 L146.853 1402.34 Z" fill="#000000" fill-rule="nonzero" fill-opacity="1" /><path clip-path="url(#clip070)" d="M171.922 1376.73 Q168.311 1376.73 166.482 1380.3 Q164.677 1383.84 164.677 1390.97 Q164.677 1398.08 166.482 1401.64 Q168.311 1405.18 171.922 1405.18 Q175.556 1405.18 177.362 1401.64 Q179.19 1398.08 179.19 1390.97 Q179.19 1383.84 177.362 1380.3 Q175.556 1376.73 171.922 1376.73 M171.922 1373.03 Q177.732 1373.03 180.788 1377.64 Q183.866 1382.22 183.866 1390.97 Q183.866 1399.7 180.788 1404.3 Q177.732 1408.89 171.922 1408.89 Q166.112 1408.89 163.033 1404.3 Q159.978 1399.7 159.978 1390.97 Q159.978 1382.22 163.033 1377.64 Q166.112 1373.03 171.922 1373.03 Z" fill="#000000" fill-rule="nonzero" fill-opacity="1" /><path clip-path="url(#clip070)" d="M128.288 1105.76 Q124.677 1105.76 122.848 1109.32 Q121.043 1112.86 121.043 1119.99 Q121.043 1127.1 122.848 1130.67 Q124.677 1134.21 128.288 1134.21 Q131.922 1134.21 133.728 1130.67 Q135.556 1127.1 135.556 1119.99 Q135.556 1112.86 133.728 1109.32 Q131.922 1105.76 128.288 1105.76 M128.288 1102.05 Q134.098 1102.05 137.154 1106.66 Q140.232 1111.24 140.232 1119.99 Q140.232 1128.72 137.154 1133.33 Q134.098 1137.91 128.288 1137.91 Q122.478 1137.91 119.399 1133.33 Q116.343 1128.72 116.343 1119.99 Q116.343 1111.24 119.399 1106.66 Q122.478 1102.05 128.288 1102.05 Z" fill="#000000" fill-rule="nonzero" fill-opacity="1" /><path clip-path="url(#clip070)" d="M148.45 1131.36 L153.334 1131.36 L153.334 1137.24 L148.45 1137.24 L148.45 1131.36 Z" fill="#000000" fill-rule="nonzero" fill-opacity="1" /><path clip-path="url(#clip070)" d="M167.547 1133.3 L183.866 1133.3 L183.866 1137.24 L161.922 1137.24 L161.922 1133.3 Q164.584 1130.55 169.167 1125.92 Q173.774 1121.27 174.954 1119.92 Q177.2 1117.4 178.079 1115.67 Q178.982 1113.91 178.982 1112.22 Q178.982 1109.46 177.038 1107.73 Q175.116 1105.99 172.014 1105.99 Q169.815 1105.99 167.362 1106.75 Q164.931 1107.52 162.153 1109.07 L162.153 1104.35 Q164.977 1103.21 167.431 1102.63 Q169.885 1102.05 171.922 1102.05 Q177.292 1102.05 180.487 1104.74 Q183.681 1107.42 183.681 1111.92 Q183.681 1114.04 182.871 1115.97 Q182.084 1117.86 179.977 1120.46 Q179.399 1121.13 176.297 1124.35 Q173.195 1127.54 167.547 1133.3 Z" fill="#000000" fill-rule="nonzero" fill-opacity="1" /><path clip-path="url(#clip070)" d="M126.205 834.783 Q122.593 834.783 120.765 838.347 Q118.959 841.889 118.959 849.019 Q118.959 856.125 120.765 859.69 Q122.593 863.232 126.205 863.232 Q129.839 863.232 131.644 859.69 Q133.473 856.125 133.473 849.019 Q133.473 841.889 131.644 838.347 Q129.839 834.783 126.205 834.783 M126.205 831.079 Q132.015 831.079 135.07 835.685 Q138.149 840.269 138.149 849.019 Q138.149 857.745 135.07 862.352 Q132.015 866.935 126.205 866.935 Q120.394 866.935 117.316 862.352 Q114.26 857.745 114.26 849.019 Q114.26 840.269 117.316 835.685 Q120.394 831.079 126.205 831.079 Z" fill="#000000" fill-rule="nonzero" fill-opacity="1" /><path clip-path="url(#clip070)" d="M146.366 860.384 L151.251 860.384 L151.251 866.264 L146.366 866.264 L146.366 860.384 Z" fill="#000000" fill-rule="nonzero" fill-opacity="1" /><path clip-path="url(#clip070)" d="M174.283 835.778 L162.477 854.227 L174.283 854.227 L174.283 835.778 M173.056 831.704 L178.936 831.704 L178.936 854.227 L183.866 854.227 L183.866 858.116 L178.936 858.116 L178.936 866.264 L174.283 866.264 L174.283 858.116 L158.681 858.116 L158.681 853.602 L173.056 831.704 Z" fill="#000000" fill-rule="nonzero" fill-opacity="1" /><path clip-path="url(#clip070)" d="M126.529 563.807 Q122.918 563.807 121.089 567.372 Q119.283 570.914 119.283 578.043 Q119.283 585.15 121.089 588.715 Q122.918 592.256 126.529 592.256 Q130.163 592.256 131.968 588.715 Q133.797 585.15 133.797 578.043 Q133.797 570.914 131.968 567.372 Q130.163 563.807 126.529 563.807 M126.529 560.104 Q132.339 560.104 135.394 564.71 Q138.473 569.293 138.473 578.043 Q138.473 586.77 135.394 591.377 Q132.339 595.96 126.529 595.96 Q120.718 595.96 117.64 591.377 Q114.584 586.77 114.584 578.043 Q114.584 569.293 117.64 564.71 Q120.718 560.104 126.529 560.104 Z" fill="#000000" fill-rule="nonzero" fill-opacity="1" /><path clip-path="url(#clip070)" d="M146.691 589.409 L151.575 589.409 L151.575 595.289 L146.691 595.289 L146.691 589.409 Z" fill="#000000" fill-rule="nonzero" fill-opacity="1" /><path clip-path="url(#clip070)" d="M172.339 576.145 Q169.19 576.145 167.339 578.298 Q165.51 580.451 165.51 584.201 Q165.51 587.928 167.339 590.103 Q169.19 592.256 172.339 592.256 Q175.487 592.256 177.315 590.103 Q179.167 587.928 179.167 584.201 Q179.167 580.451 177.315 578.298 Q175.487 576.145 172.339 576.145 M181.621 561.493 L181.621 565.752 Q179.862 564.918 178.056 564.479 Q176.274 564.039 174.514 564.039 Q169.885 564.039 167.431 567.164 Q165.001 570.289 164.653 576.608 Q166.019 574.594 168.079 573.529 Q170.139 572.442 172.616 572.442 Q177.825 572.442 180.834 575.613 Q183.866 578.761 183.866 584.201 Q183.866 589.525 180.718 592.742 Q177.57 595.96 172.339 595.96 Q166.343 595.96 163.172 591.377 Q160.001 586.77 160.001 578.043 Q160.001 569.849 163.89 564.988 Q167.778 560.104 174.329 560.104 Q176.089 560.104 177.871 560.451 Q179.676 560.798 181.621 561.493 Z" fill="#000000" fill-rule="nonzero" fill-opacity="1" /><path clip-path="url(#clip070)" d="M126.783 292.832 Q123.172 292.832 121.343 296.397 Q119.538 299.938 119.538 307.068 Q119.538 314.174 121.343 317.739 Q123.172 321.281 126.783 321.281 Q130.417 321.281 132.223 317.739 Q134.052 314.174 134.052 307.068 Q134.052 299.938 132.223 296.397 Q130.417 292.832 126.783 292.832 M126.783 289.128 Q132.593 289.128 135.649 293.735 Q138.728 298.318 138.728 307.068 Q138.728 315.795 135.649 320.401 Q132.593 324.985 126.783 324.985 Q120.973 324.985 117.894 320.401 Q114.839 315.795 114.839 307.068 Q114.839 298.318 117.894 293.735 Q120.973 289.128 126.783 289.128 Z" fill="#000000" fill-rule="nonzero" fill-opacity="1" /><path clip-path="url(#clip070)" d="M146.945 318.434 L151.829 318.434 L151.829 324.313 L146.945 324.313 L146.945 318.434 Z" fill="#000000" fill-rule="nonzero" fill-opacity="1" /><path clip-path="url(#clip070)" d="M172.014 307.901 Q168.681 307.901 166.76 309.684 Q164.862 311.466 164.862 314.591 Q164.862 317.716 166.76 319.499 Q168.681 321.281 172.014 321.281 Q175.348 321.281 177.269 319.499 Q179.19 317.693 179.19 314.591 Q179.19 311.466 177.269 309.684 Q175.371 307.901 172.014 307.901 M167.339 305.911 Q164.329 305.17 162.64 303.11 Q160.973 301.05 160.973 298.087 Q160.973 293.943 163.913 291.536 Q166.876 289.128 172.014 289.128 Q177.176 289.128 180.116 291.536 Q183.056 293.943 183.056 298.087 Q183.056 301.05 181.366 303.11 Q179.7 305.17 176.714 305.911 Q180.093 306.698 181.968 308.989 Q183.866 311.281 183.866 314.591 Q183.866 319.614 180.788 322.299 Q177.732 324.985 172.014 324.985 Q166.297 324.985 163.218 322.299 Q160.163 319.614 160.163 314.591 Q160.163 311.281 162.061 308.989 Q163.959 306.698 167.339 305.911 M165.626 298.526 Q165.626 301.212 167.292 302.716 Q168.982 304.221 172.014 304.221 Q175.024 304.221 176.714 302.716 Q178.426 301.212 178.426 298.526 Q178.426 295.841 176.714 294.337 Q175.024 292.832 172.014 292.832 Q168.982 292.832 167.292 294.337 Q165.626 295.841 165.626 298.526 Z" fill="#000000" fill-rule="nonzero" fill-opacity="1" /><path clip-path="url(#clip070)" d="M16.4842 864.897 L16.4842 857.99 L36.0269 844.813 L16.4842 831.731 L16.4842 824.825 L41.3741 841.63 L64.0042 841.63 L64.0042 848.091 L41.3741 848.091 L16.4842 864.897 Z" fill="#000000" fill-rule="nonzero" fill-opacity="1" /><path clip-path="url(#clip070)" d="M43.5384 829.503 L43.5384 812.348 L48.7583 812.348 L48.7583 829.503 L43.5384 829.503 Z" fill="#000000" fill-rule="nonzero" fill-opacity="1" /><path clip-path="url(#clip070)" d="M46.0847 786.821 Q46.0847 793.919 47.7079 796.656 Q49.3312 799.394 53.2461 799.394 Q56.3653 799.394 58.2114 797.357 Q60.0256 795.288 60.0256 791.755 Q60.0256 786.885 56.5881 783.957 Q53.1188 780.997 47.3897 780.997 L46.0847 780.997 L46.0847 786.821 M43.6657 775.14 L64.0042 775.14 L64.0042 780.997 L58.5933 780.997 Q61.8398 783.002 63.3994 785.994 Q64.9272 788.986 64.9272 793.314 Q64.9272 798.789 61.8716 802.035 Q58.7843 805.25 53.6281 805.25 Q47.6125 805.25 44.5569 801.24 Q41.5014 797.197 41.5014 789.208 L41.5014 780.997 L40.9285 780.997 Q36.8862 780.997 34.6901 783.67 Q32.4621 786.312 32.4621 791.118 Q32.4621 794.174 33.1941 797.07 Q33.9262 799.966 35.3903 802.64 L29.9795 802.64 Q28.7381 799.425 28.1334 796.402 Q27.4968 793.378 27.4968 790.513 Q27.4968 782.779 31.5072 778.96 Q35.5176 775.14 43.6657 775.14 Z" fill="#000000" fill-rule="nonzero" fill-opacity="1" /><path clip-path="url(#clip070)" d="M28.3562 733.445 L45.7028 746.335 L64.0042 732.776 L64.0042 739.683 L49.9996 750.059 L64.0042 760.435 L64.0042 767.342 L45.3526 753.497 L28.3562 766.165 L28.3562 759.258 L41.0558 749.805 L28.3562 740.352 L28.3562 733.445 Z" fill="#000000" fill-rule="nonzero" fill-opacity="1" /><path clip-path="url(#clip070)" d="M28.3562 724.501 L28.3562 718.645 L64.0042 718.645 L64.0042 724.501 L28.3562 724.501 M14.479 724.501 L14.479 718.645 L21.895 718.645 L21.895 724.501 L14.479 724.501 Z" fill="#000000" fill-rule="nonzero" fill-opacity="1" /><path clip-path="url(#clip070)" d="M29.4065 683.665 L34.9447 683.665 Q33.6716 686.148 33.035 688.821 Q32.3984 691.495 32.3984 694.359 Q32.3984 698.72 33.7352 700.916 Q35.072 703.08 37.7456 703.08 Q39.7826 703.08 40.9603 701.521 Q42.1061 699.961 43.1565 695.251 L43.6021 693.245 Q44.9389 687.007 47.3897 684.397 Q49.8086 681.755 54.1691 681.755 Q59.1344 681.755 62.0308 685.702 Q64.9272 689.617 64.9272 696.492 Q64.9272 699.356 64.3543 702.476 Q63.8132 705.563 62.6992 709.001 L56.6518 709.001 Q58.3387 705.754 59.198 702.603 Q60.0256 699.452 60.0256 696.365 Q60.0256 692.227 58.6251 689.999 Q57.1929 687.771 54.6147 687.771 Q52.2276 687.771 50.9545 689.394 Q49.6813 690.986 48.5037 696.428 L48.0262 698.465 Q46.8804 703.908 44.5251 706.327 Q42.138 708.746 38.0002 708.746 Q32.9713 708.746 30.2341 705.181 Q27.4968 701.616 27.4968 695.06 Q27.4968 691.813 27.9743 688.949 Q28.4517 686.084 29.4065 683.665 Z" fill="#000000" fill-rule="nonzero" fill-opacity="1" /><path clip-path="url(#clip070)" d="M889.505 18.8205 L889.505 41.5461 L899.794 41.5461 Q905.506 41.5461 908.625 38.5889 Q911.744 35.6318 911.744 30.163 Q911.744 24.7348 908.625 21.7777 Q905.506 18.8205 899.794 18.8205 L889.505 18.8205 M881.322 12.096 L899.794 12.096 Q909.962 12.096 915.147 16.714 Q920.373 21.2916 920.373 30.163 Q920.373 39.1155 915.147 43.6931 Q909.962 48.2706 899.794 48.2706 L889.505 48.2706 L889.505 72.576 L881.322 72.576 L881.322 12.096 Z" fill="#000000" fill-rule="nonzero" fill-opacity="1" /><path clip-path="url(#clip070)" d="M931.027 9.54393 L938.48 9.54393 L938.48 72.576 L931.027 72.576 L931.027 9.54393 Z" fill="#000000" fill-rule="nonzero" fill-opacity="1" /><path clip-path="url(#clip070)" d="M971.657 32.4315 Q965.662 32.4315 962.178 37.1306 Q958.694 41.7891 958.694 49.9314 Q958.694 58.0738 962.137 62.7728 Q965.621 67.4314 971.657 67.4314 Q977.612 67.4314 981.096 62.7323 Q984.579 58.0333 984.579 49.9314 Q984.579 41.8701 981.096 37.1711 Q977.612 32.4315 971.657 32.4315 M971.657 26.1121 Q981.379 26.1121 986.929 32.4315 Q992.479 38.7509 992.479 49.9314 Q992.479 61.0714 986.929 67.4314 Q981.379 73.7508 971.657 73.7508 Q961.894 73.7508 956.345 67.4314 Q950.835 61.0714 950.835 49.9314 Q950.835 38.7509 956.345 32.4315 Q961.894 26.1121 971.657 26.1121 Z" fill="#000000" fill-rule="nonzero" fill-opacity="1" /><path clip-path="url(#clip070)" d="M1012.21 14.324 L1012.21 27.2059 L1027.56 27.2059 L1027.56 32.9987 L1012.21 32.9987 L1012.21 57.6282 Q1012.21 63.1779 1013.71 64.7578 Q1015.24 66.3376 1019.9 66.3376 L1027.56 66.3376 L1027.56 72.576 L1019.9 72.576 Q1011.27 72.576 1007.99 69.3758 Q1004.71 66.1351 1004.71 57.6282 L1004.71 32.9987 L999.244 32.9987 L999.244 27.2059 L1004.71 27.2059 L1004.71 14.324 L1012.21 14.324 Z" fill="#000000" fill-rule="nonzero" fill-opacity="1" /><path clip-path="url(#clip070)" d="M1059.4 27.2059 L1066.85 27.2059 L1076.17 62.6108 L1085.45 27.2059 L1094.24 27.2059 L1103.55 62.6108 L1112.83 27.2059 L1120.28 27.2059 L1108.42 72.576 L1099.63 72.576 L1089.86 35.3887 L1080.06 72.576 L1071.27 72.576 L1059.4 27.2059 Z" fill="#000000" fill-rule="nonzero" fill-opacity="1" /><path clip-path="url(#clip070)" d="M1131.59 27.2059 L1139.04 27.2059 L1139.04 72.576 L1131.59 72.576 L1131.59 27.2059 M1131.59 9.54393 L1139.04 9.54393 L1139.04 18.9825 L1131.59 18.9825 L1131.59 9.54393 Z" fill="#000000" fill-rule="nonzero" fill-opacity="1" /><path clip-path="url(#clip070)" d="M1162.01 14.324 L1162.01 27.2059 L1177.36 27.2059 L1177.36 32.9987 L1162.01 32.9987 L1162.01 57.6282 Q1162.01 63.1779 1163.51 64.7578 Q1165.05 66.3376 1169.71 66.3376 L1177.36 66.3376 L1177.36 72.576 L1169.71 72.576 Q1161.08 72.576 1157.8 69.3758 Q1154.51 66.1351 1154.51 57.6282 L1154.51 32.9987 L1149.05 32.9987 L1149.05 27.2059 L1154.51 27.2059 L1154.51 14.324 L1162.01 14.324 Z" fill="#000000" fill-rule="nonzero" fill-opacity="1" /><path clip-path="url(#clip070)" d="M1224.88 45.1919 L1224.88 72.576 L1217.43 72.576 L1217.43 45.4349 Q1217.43 38.994 1214.91 35.7938 Q1212.4 32.5936 1207.38 32.5936 Q1201.34 32.5936 1197.86 36.4419 Q1194.38 40.2903 1194.38 46.9338 L1194.38 72.576 L1186.88 72.576 L1186.88 9.54393 L1194.38 9.54393 L1194.38 34.2544 Q1197.05 30.163 1200.65 28.1376 Q1204.3 26.1121 1209.04 26.1121 Q1216.86 26.1121 1220.87 30.9732 Q1224.88 35.7938 1224.88 45.1919 Z" fill="#000000" fill-rule="nonzero" fill-opacity="1" /><path clip-path="url(#clip070)" d="M1258.06 12.096 L1309.22 12.096 L1309.22 18.9825 L1287.75 18.9825 L1287.75 72.576 L1279.53 72.576 L1279.53 18.9825 L1258.06 18.9825 L1258.06 12.096 Z" fill="#000000" fill-rule="nonzero" fill-opacity="1" /><path clip-path="url(#clip070)" d="M1298.73 27.2059 L1306.18 27.2059 L1315.5 62.6108 L1324.77 27.2059 L1333.56 27.2059 L1342.88 62.6108 L1352.16 27.2059 L1359.61 27.2059 L1347.74 72.576 L1338.95 72.576 L1329.19 35.3887 L1319.39 72.576 L1310.6 72.576 L1298.73 27.2059 Z" fill="#000000" fill-rule="nonzero" fill-opacity="1" /><path clip-path="url(#clip070)" d="M1388.5 32.4315 Q1382.5 32.4315 1379.02 37.1306 Q1375.53 41.7891 1375.53 49.9314 Q1375.53 58.0738 1378.98 62.7728 Q1382.46 67.4314 1388.5 67.4314 Q1394.45 67.4314 1397.93 62.7323 Q1401.42 58.0333 1401.42 49.9314 Q1401.42 41.8701 1397.93 37.1711 Q1394.45 32.4315 1388.5 32.4315 M1388.5 26.1121 Q1398.22 26.1121 1403.77 32.4315 Q1409.32 38.7509 1409.32 49.9314 Q1409.32 61.0714 1403.77 67.4314 Q1398.22 73.7508 1388.5 73.7508 Q1378.73 73.7508 1373.18 67.4314 Q1367.67 61.0714 1367.67 49.9314 Q1367.67 38.7509 1373.18 32.4315 Q1378.73 26.1121 1388.5 26.1121 Z" fill="#000000" fill-rule="nonzero" fill-opacity="1" /><path clip-path="url(#clip070)" d="M1484.62 14.0809 L1484.62 22.0612 Q1479.96 19.8332 1475.83 18.7395 Q1471.7 17.6457 1467.85 17.6457 Q1461.17 17.6457 1457.52 20.2383 Q1453.92 22.8309 1453.92 27.611 Q1453.92 31.6214 1456.31 33.6873 Q1458.74 35.7128 1465.46 36.9686 L1470.4 37.9813 Q1479.56 39.7232 1483.89 44.1387 Q1488.27 48.5136 1488.27 55.8863 Q1488.27 64.6767 1482.35 69.2137 Q1476.48 73.7508 1465.1 73.7508 Q1460.8 73.7508 1455.94 72.7785 Q1451.12 71.8063 1445.94 69.9024 L1445.94 61.4765 Q1450.92 64.2716 1455.7 65.6895 Q1460.48 67.1073 1465.1 67.1073 Q1472.11 67.1073 1475.91 64.3527 Q1479.72 61.598 1479.72 56.4939 Q1479.72 52.0379 1476.97 49.5264 Q1474.25 47.0148 1468.01 45.759 L1463.03 44.7868 Q1453.88 42.9639 1449.79 39.075 Q1445.69 35.1862 1445.69 28.2591 Q1445.69 20.2383 1451.32 15.6203 Q1457 11.0023 1466.92 11.0023 Q1471.17 11.0023 1475.59 11.7719 Q1480.01 12.5416 1484.62 14.0809 Z" fill="#000000" fill-rule="nonzero" fill-opacity="1" /><path clip-path="url(#clip070)" d="M1539.51 48.0275 L1539.51 51.6733 L1505.24 51.6733 Q1505.73 59.3701 1509.86 63.421 Q1514.03 67.4314 1521.45 67.4314 Q1525.74 67.4314 1529.75 66.3781 Q1533.8 65.3249 1537.77 63.2184 L1537.77 70.267 Q1533.76 71.9684 1529.55 72.8596 Q1525.33 73.7508 1521 73.7508 Q1510.14 73.7508 1503.78 67.4314 Q1497.46 61.1119 1497.46 50.3365 Q1497.46 39.1965 1503.46 32.6746 Q1509.5 26.1121 1519.7 26.1121 Q1528.86 26.1121 1534.17 32.0264 Q1539.51 37.9003 1539.51 48.0275 M1532.06 45.84 Q1531.98 39.7232 1528.62 36.0774 Q1525.29 32.4315 1519.78 32.4315 Q1513.55 32.4315 1509.78 35.9558 Q1506.05 39.4801 1505.49 45.8805 L1532.06 45.84 Z" fill="#000000" fill-rule="nonzero" fill-opacity="1" /><path clip-path="url(#clip070)" d="M1578.04 34.1734 Q1576.78 33.4443 1575.28 33.1202 Q1573.82 32.7556 1572.04 32.7556 Q1565.72 32.7556 1562.32 36.8875 Q1558.96 40.9789 1558.96 48.6757 L1558.96 72.576 L1551.46 72.576 L1551.46 27.2059 L1558.96 27.2059 L1558.96 34.2544 Q1561.31 30.1225 1565.07 28.1376 Q1568.84 26.1121 1574.23 26.1121 Q1575 26.1121 1575.93 26.2337 Q1576.86 26.3147 1578 26.5172 L1578.04 34.1734 Z" fill="#000000" fill-rule="nonzero" fill-opacity="1" /><path clip-path="url(#clip070)" d="M1585.86 27.2059 L1593.31 27.2059 L1593.31 72.576 L1585.86 72.576 L1585.86 27.2059 M1585.86 9.54393 L1593.31 9.54393 L1593.31 18.9825 L1585.86 18.9825 L1585.86 9.54393 Z" fill="#000000" fill-rule="nonzero" fill-opacity="1" /><path clip-path="url(#clip070)" d="M1647.71 48.0275 L1647.71 51.6733 L1613.44 51.6733 Q1613.93 59.3701 1618.06 63.421 Q1622.23 67.4314 1629.65 67.4314 Q1633.94 67.4314 1637.95 66.3781 Q1642 65.3249 1645.97 63.2184 L1645.97 70.267 Q1641.96 71.9684 1637.75 72.8596 Q1633.53 73.7508 1629.2 73.7508 Q1618.34 73.7508 1611.98 67.4314 Q1605.66 61.1119 1605.66 50.3365 Q1605.66 39.1965 1611.66 32.6746 Q1617.7 26.1121 1627.9 26.1121 Q1637.06 26.1121 1642.37 32.0264 Q1647.71 37.9003 1647.71 48.0275 M1640.26 45.84 Q1640.18 39.7232 1636.82 36.0774 Q1633.49 32.4315 1627.98 32.4315 Q1621.75 32.4315 1617.98 35.9558 Q1614.25 39.4801 1613.68 45.8805 L1640.26 45.84 Z" fill="#000000" fill-rule="nonzero" fill-opacity="1" /><path clip-path="url(#clip070)" d="M1688.87 28.5427 L1688.87 35.5912 Q1685.71 33.9709 1682.31 33.1607 Q1678.9 32.3505 1675.26 32.3505 Q1669.71 32.3505 1666.91 34.0519 Q1664.16 35.7533 1664.16 39.156 Q1664.16 41.7486 1666.14 43.2475 Q1668.13 44.7058 1674.12 46.0426 L1676.68 46.6097 Q1684.62 48.3111 1687.94 51.4303 Q1691.3 54.509 1691.3 60.0587 Q1691.3 66.3781 1686.28 70.0644 Q1681.29 73.7508 1672.54 73.7508 Q1668.9 73.7508 1664.93 73.0216 Q1661 72.3329 1656.62 70.9151 L1656.62 63.2184 Q1660.76 65.3654 1664.77 66.4591 Q1668.78 67.5124 1672.71 67.5124 Q1677.97 67.5124 1680.81 65.73 Q1683.64 63.9071 1683.64 60.6258 Q1683.64 57.5877 1681.58 55.9673 Q1679.55 54.3469 1672.63 52.8481 L1670.03 52.2405 Q1663.11 50.7821 1660.03 47.7845 Q1656.95 44.7463 1656.95 39.4801 Q1656.95 33.0797 1661.49 29.5959 Q1666.02 26.1121 1674.37 26.1121 Q1678.5 26.1121 1682.15 26.7198 Q1685.79 27.3274 1688.87 28.5427 Z" fill="#000000" fill-rule="nonzero" fill-opacity="1" /><polyline clip-path="url(#clip072)" style="stroke:#009af9; stroke-linecap:round; stroke-linejoin:round; stroke-width:4; stroke-opacity:1; fill:none" points="280.231,1228.34 386.134,947.736 492.037,371.561 597.941,682.37 703.844,664.715 809.747,274.984 915.65,272.562 1021.55,761.387 1127.46,221.205 1233.36,948.082 1339.26,842.954 1445.17,936.616 1551.07,160.256 1656.97,949.737 1762.88,821.884 1868.78,1160.74 1974.68,473.73 2080.58,289.878 2186.49,1064.42 2292.39,324.507 "/>
<polyline clip-path="url(#clip072)" style="stroke:#e26f46; stroke-linecap:round; stroke-linejoin:round; stroke-width:4; stroke-opacity:1; fill:none" points="280.231,841.93 386.134,1044.22 492.037,647.381 597.941,1074.05 703.844,1326.87 809.747,230.975 915.65,528.508 1021.55,1176.51 1127.46,702.239 1233.36,984.625 1339.26,705.063 1445.17,575.992 1551.07,1248.59 1656.97,307.092 1762.88,1349.28 1868.78,1347.83 1974.68,980.115 2080.58,454.817 2186.49,1386.4 2292.39,1029.07 "/>
<path clip-path="url(#clip070)" d="M290.963 322.316 L694.019 322.316 L694.019 166.796 L290.963 166.796  Z" fill="#ffffff" fill-rule="evenodd" fill-opacity="1"/>
<polyline clip-path="url(#clip070)" style="stroke:#000000; stroke-linecap:round; stroke-linejoin:round; stroke-width:4; stroke-opacity:1; fill:none" points="290.963,322.316 694.019,322.316 694.019,166.796 290.963,166.796 290.963,322.316 "/>
<polyline clip-path="url(#clip070)" style="stroke:#009af9; stroke-linecap:round; stroke-linejoin:round; stroke-width:4; stroke-opacity:1; fill:none" points="314.661,218.636 456.854,218.636 "/>
<path clip-path="url(#clip070)" d="M502.798 202.49 L502.798 207.05 Q500.136 205.777 497.775 205.152 Q495.414 204.527 493.215 204.527 Q489.395 204.527 487.312 206.008 Q485.252 207.49 485.252 210.221 Q485.252 212.513 486.618 213.694 Q488.006 214.851 491.849 215.569 L494.673 216.147 Q499.905 217.143 502.381 219.666 Q504.881 222.166 504.881 226.379 Q504.881 231.402 501.502 233.994 Q498.145 236.587 491.641 236.587 Q489.187 236.587 486.409 236.031 Q483.655 235.476 480.692 234.388 L480.692 229.573 Q483.539 231.17 486.27 231.981 Q489.002 232.791 491.641 232.791 Q495.645 232.791 497.821 231.217 Q499.997 229.643 499.997 226.726 Q499.997 224.18 498.423 222.744 Q496.872 221.309 493.307 220.592 L490.46 220.036 Q485.229 218.995 482.891 216.772 Q480.553 214.55 480.553 210.592 Q480.553 206.008 483.77 203.37 Q487.011 200.731 492.682 200.731 Q495.113 200.731 497.636 201.171 Q500.159 201.61 502.798 202.49 Z" fill="#000000" fill-rule="nonzero" fill-opacity="1" /><path clip-path="url(#clip070)" d="M534.164 221.888 L534.164 223.971 L514.58 223.971 Q514.858 228.369 517.219 230.684 Q519.603 232.976 523.84 232.976 Q526.293 232.976 528.585 232.374 Q530.9 231.772 533.168 230.569 L533.168 234.596 Q530.877 235.568 528.469 236.078 Q526.062 236.587 523.585 236.587 Q517.381 236.587 513.747 232.976 Q510.136 229.365 510.136 223.207 Q510.136 216.842 513.562 213.115 Q517.011 209.365 522.844 209.365 Q528.076 209.365 531.108 212.745 Q534.164 216.101 534.164 221.888 M529.904 220.638 Q529.858 217.143 527.937 215.059 Q526.039 212.976 522.891 212.976 Q519.326 212.976 517.173 214.99 Q515.043 217.004 514.719 220.661 L529.904 220.638 Z" fill="#000000" fill-rule="nonzero" fill-opacity="1" /><path clip-path="url(#clip070)" d="M556.177 213.971 Q555.46 213.555 554.603 213.37 Q553.77 213.161 552.751 213.161 Q549.14 213.161 547.196 215.522 Q545.275 217.86 545.275 222.258 L545.275 235.916 L540.992 235.916 L540.992 209.99 L545.275 209.99 L545.275 214.018 Q546.617 211.657 548.77 210.522 Q550.923 209.365 554.001 209.365 Q554.441 209.365 554.974 209.434 Q555.506 209.481 556.154 209.596 L556.177 213.971 Z" fill="#000000" fill-rule="nonzero" fill-opacity="1" /><path clip-path="url(#clip070)" d="M560.645 209.99 L564.904 209.99 L564.904 235.916 L560.645 235.916 L560.645 209.99 M560.645 199.897 L564.904 199.897 L564.904 205.291 L560.645 205.291 L560.645 199.897 Z" fill="#000000" fill-rule="nonzero" fill-opacity="1" /><path clip-path="url(#clip070)" d="M595.992 221.888 L595.992 223.971 L576.409 223.971 Q576.687 228.369 579.048 230.684 Q581.432 232.976 585.668 232.976 Q588.122 232.976 590.413 232.374 Q592.728 231.772 594.997 230.569 L594.997 234.596 Q592.705 235.568 590.298 236.078 Q587.89 236.587 585.413 236.587 Q579.21 236.587 575.575 232.976 Q571.964 229.365 571.964 223.207 Q571.964 216.842 575.39 213.115 Q578.839 209.365 584.673 209.365 Q589.904 209.365 592.936 212.745 Q595.992 216.101 595.992 221.888 M591.733 220.638 Q591.686 217.143 589.765 215.059 Q587.867 212.976 584.719 212.976 Q581.154 212.976 579.001 214.99 Q576.872 217.004 576.548 220.661 L591.733 220.638 Z" fill="#000000" fill-rule="nonzero" fill-opacity="1" /><path clip-path="url(#clip070)" d="M619.51 210.754 L619.51 214.782 Q617.705 213.856 615.76 213.393 Q613.816 212.93 611.733 212.93 Q608.561 212.93 606.964 213.902 Q605.39 214.874 605.39 216.819 Q605.39 218.3 606.524 219.157 Q607.659 219.99 611.084 220.754 L612.543 221.078 Q617.08 222.05 618.978 223.832 Q620.899 225.592 620.899 228.763 Q620.899 232.374 618.029 234.481 Q615.182 236.587 610.182 236.587 Q608.098 236.587 605.83 236.17 Q603.585 235.777 601.085 234.967 L601.085 230.569 Q603.446 231.795 605.737 232.42 Q608.029 233.022 610.274 233.022 Q613.284 233.022 614.904 232.004 Q616.524 230.962 616.524 229.087 Q616.524 227.351 615.344 226.425 Q614.186 225.499 610.228 224.643 L608.747 224.295 Q604.788 223.462 603.029 221.749 Q601.27 220.013 601.27 217.004 Q601.27 213.346 603.862 211.356 Q606.455 209.365 611.223 209.365 Q613.584 209.365 615.668 209.712 Q617.751 210.059 619.51 210.754 Z" fill="#000000" fill-rule="nonzero" fill-opacity="1" /><path clip-path="url(#clip070)" d="M654.487 205.962 L648.144 223.161 L660.853 223.161 L654.487 205.962 M651.848 201.356 L657.149 201.356 L670.32 235.916 L665.459 235.916 L662.311 227.05 L646.732 227.05 L643.584 235.916 L638.654 235.916 L651.848 201.356 Z" fill="#000000" fill-rule="nonzero" fill-opacity="1" /><polyline clip-path="url(#clip070)" style="stroke:#e26f46; stroke-linecap:round; stroke-linejoin:round; stroke-width:4; stroke-opacity:1; fill:none" points="314.661,270.476 456.854,270.476 "/>
<path clip-path="url(#clip070)" d="M502.798 254.33 L502.798 258.89 Q500.136 257.617 497.775 256.992 Q495.414 256.367 493.215 256.367 Q489.395 256.367 487.312 257.848 Q485.252 259.33 485.252 262.061 Q485.252 264.353 486.618 265.534 Q488.006 266.691 491.849 267.409 L494.673 267.987 Q499.905 268.983 502.381 271.506 Q504.881 274.006 504.881 278.219 Q504.881 283.242 501.502 285.834 Q498.145 288.427 491.641 288.427 Q489.187 288.427 486.409 287.871 Q483.655 287.316 480.692 286.228 L480.692 281.413 Q483.539 283.01 486.27 283.821 Q489.002 284.631 491.641 284.631 Q495.645 284.631 497.821 283.057 Q499.997 281.483 499.997 278.566 Q499.997 276.02 498.423 274.584 Q496.872 273.149 493.307 272.432 L490.46 271.876 Q485.229 270.835 482.891 268.612 Q480.553 266.39 480.553 262.432 Q480.553 257.848 483.77 255.21 Q487.011 252.571 492.682 252.571 Q495.113 252.571 497.636 253.011 Q500.159 253.45 502.798 254.33 Z" fill="#000000" fill-rule="nonzero" fill-opacity="1" /><path clip-path="url(#clip070)" d="M534.164 273.728 L534.164 275.811 L514.58 275.811 Q514.858 280.209 517.219 282.524 Q519.603 284.816 523.84 284.816 Q526.293 284.816 528.585 284.214 Q530.9 283.612 533.168 282.409 L533.168 286.436 Q530.877 287.408 528.469 287.918 Q526.062 288.427 523.585 288.427 Q517.381 288.427 513.747 284.816 Q510.136 281.205 510.136 275.047 Q510.136 268.682 513.562 264.955 Q517.011 261.205 522.844 261.205 Q528.076 261.205 531.108 264.585 Q534.164 267.941 534.164 273.728 M529.904 272.478 Q529.858 268.983 527.937 266.899 Q526.039 264.816 522.891 264.816 Q519.326 264.816 517.173 266.83 Q515.043 268.844 514.719 272.501 L529.904 272.478 Z" fill="#000000" fill-rule="nonzero" fill-opacity="1" /><path clip-path="url(#clip070)" d="M556.177 265.811 Q555.46 265.395 554.603 265.21 Q553.77 265.001 552.751 265.001 Q549.14 265.001 547.196 267.362 Q545.275 269.7 545.275 274.098 L545.275 287.756 L540.992 287.756 L540.992 261.83 L545.275 261.83 L545.275 265.858 Q546.617 263.497 548.77 262.362 Q550.923 261.205 554.001 261.205 Q554.441 261.205 554.974 261.274 Q555.506 261.321 556.154 261.436 L556.177 265.811 Z" fill="#000000" fill-rule="nonzero" fill-opacity="1" /><path clip-path="url(#clip070)" d="M560.645 261.83 L564.904 261.83 L564.904 287.756 L560.645 287.756 L560.645 261.83 M560.645 251.737 L564.904 251.737 L564.904 257.131 L560.645 257.131 L560.645 251.737 Z" fill="#000000" fill-rule="nonzero" fill-opacity="1" /><path clip-path="url(#clip070)" d="M595.992 273.728 L595.992 275.811 L576.409 275.811 Q576.687 280.209 579.048 282.524 Q581.432 284.816 585.668 284.816 Q588.122 284.816 590.413 284.214 Q592.728 283.612 594.997 282.409 L594.997 286.436 Q592.705 287.408 590.298 287.918 Q587.89 288.427 585.413 288.427 Q579.21 288.427 575.575 284.816 Q571.964 281.205 571.964 275.047 Q571.964 268.682 575.39 264.955 Q578.839 261.205 584.673 261.205 Q589.904 261.205 592.936 264.585 Q595.992 267.941 595.992 273.728 M591.733 272.478 Q591.686 268.983 589.765 266.899 Q587.867 264.816 584.719 264.816 Q581.154 264.816 579.001 266.83 Q576.872 268.844 576.548 272.501 L591.733 272.478 Z" fill="#000000" fill-rule="nonzero" fill-opacity="1" /><path clip-path="url(#clip070)" d="M619.51 262.594 L619.51 266.622 Q617.705 265.696 615.76 265.233 Q613.816 264.77 611.733 264.77 Q608.561 264.77 606.964 265.742 Q605.39 266.714 605.39 268.659 Q605.39 270.14 606.524 270.997 Q607.659 271.83 611.084 272.594 L612.543 272.918 Q617.08 273.89 618.978 275.672 Q620.899 277.432 620.899 280.603 Q620.899 284.214 618.029 286.321 Q615.182 288.427 610.182 288.427 Q608.098 288.427 605.83 288.01 Q603.585 287.617 601.085 286.807 L601.085 282.409 Q603.446 283.635 605.737 284.26 Q608.029 284.862 610.274 284.862 Q613.284 284.862 614.904 283.844 Q616.524 282.802 616.524 280.927 Q616.524 279.191 615.344 278.265 Q614.186 277.339 610.228 276.483 L608.747 276.135 Q604.788 275.302 603.029 273.589 Q601.27 271.853 601.27 268.844 Q601.27 265.186 603.862 263.196 Q606.455 261.205 611.223 261.205 Q613.584 261.205 615.668 261.552 Q617.751 261.899 619.51 262.594 Z" fill="#000000" fill-rule="nonzero" fill-opacity="1" /><path clip-path="url(#clip070)" d="M647.612 271.251 L647.612 283.913 L655.112 283.913 Q658.885 283.913 660.691 282.362 Q662.519 280.788 662.519 277.571 Q662.519 274.33 660.691 272.802 Q658.885 271.251 655.112 271.251 L647.612 271.251 M647.612 257.038 L647.612 267.455 L654.533 267.455 Q657.959 267.455 659.626 266.182 Q661.316 264.885 661.316 262.247 Q661.316 259.631 659.626 258.335 Q657.959 257.038 654.533 257.038 L647.612 257.038 M642.936 253.196 L654.881 253.196 Q660.228 253.196 663.121 255.418 Q666.015 257.64 666.015 261.737 Q666.015 264.909 664.533 266.784 Q663.052 268.659 660.181 269.122 Q663.631 269.862 665.529 272.223 Q667.45 274.561 667.45 278.08 Q667.45 282.709 664.302 285.233 Q661.154 287.756 655.344 287.756 L642.936 287.756 L642.936 253.196 Z" fill="#000000" fill-rule="nonzero" fill-opacity="1" /></svg>
