<?xml version="1.0" encoding="utf-8"?>
<svg xmlns="http://www.w3.org/2000/svg" xmlns:xlink="http://www.w3.org/1999/xlink" width="600" height="400" viewBox="0 0 2400 1600">
<defs>
  <clipPath id="clip250">
    <rect x="0" y="0" width="2400" height="1600"/>
  </clipPath>
</defs>
<path clip-path="url(#clip250)" d="M0 1600 L2400 1600 L2400 8.88178e-14 L0 8.88178e-14  Z" fill="#ffffff" fill-rule="evenodd" fill-opacity="1"/>
<defs>
  <clipPath id="clip251">
    <rect x="480" y="0" width="1681" height="1600"/>
  </clipPath>
</defs>
<path clip-path="url(#clip250)" d="M112.177 1486.45 L2352.76 1486.45 L2352.76 123.472 L112.177 123.472  Z" fill="#ffffff" fill-rule="evenodd" fill-opacity="1"/>
<defs>
  <clipPath id="clip252">
    <rect x="112" y="123" width="2242" height="1364"/>
  </clipPath>
</defs>
<polyline clip-path="url(#clip252)" style="stroke:#000000; stroke-linecap:round; stroke-linejoin:round; stroke-width:2; stroke-opacity:0.1; fill:none" points="398.09,1486.45 398.09,123.472 "/>
<polyline clip-path="url(#clip252)" style="stroke:#000000; stroke-linecap:round; stroke-linejoin:round; stroke-width:2; stroke-opacity:0.1; fill:none" points="954.341,1486.45 954.341,123.472 "/>
<polyline clip-path="url(#clip252)" style="stroke:#000000; stroke-linecap:round; stroke-linejoin:round; stroke-width:2; stroke-opacity:0.1; fill:none" points="1510.59,1486.45 1510.59,123.472 "/>
<polyline clip-path="url(#clip252)" style="stroke:#000000; stroke-linecap:round; stroke-linejoin:round; stroke-width:2; stroke-opacity:0.1; fill:none" points="2066.84,1486.45 2066.84,123.472 "/>
<polyline clip-path="url(#clip252)" style="stroke:#000000; stroke-linecap:round; stroke-linejoin:round; stroke-width:2; stroke-opacity:0.1; fill:none" points="112.177,1219.92 2352.76,1219.92 "/>
<polyline clip-path="url(#clip252)" style="stroke:#000000; stroke-linecap:round; stroke-linejoin:round; stroke-width:2; stroke-opacity:0.1; fill:none" points="112.177,893.449 2352.76,893.449 "/>
<polyline clip-path="url(#clip252)" style="stroke:#000000; stroke-linecap:round; stroke-linejoin:round; stroke-width:2; stroke-opacity:0.1; fill:none" points="112.177,566.98 2352.76,566.98 "/>
<polyline clip-path="url(#clip252)" style="stroke:#000000; stroke-linecap:round; stroke-linejoin:round; stroke-width:2; stroke-opacity:0.1; fill:none" points="112.177,240.511 2352.76,240.511 "/>
<polyline clip-path="url(#clip250)" style="stroke:#000000; stroke-linecap:round; stroke-linejoin:round; stroke-width:4; stroke-opacity:1; fill:none" points="112.177,1486.45 2352.76,1486.45 "/>
<polyline clip-path="url(#clip250)" style="stroke:#000000; stroke-linecap:round; stroke-linejoin:round; stroke-width:4; stroke-opacity:1; fill:none" points="398.09,1486.45 398.09,1467.55 "/>
<polyline clip-path="url(#clip250)" style="stroke:#000000; stroke-linecap:round; stroke-linejoin:round; stroke-width:4; stroke-opacity:1; fill:none" points="954.341,1486.45 954.341,1467.55 "/>
<polyline clip-path="url(#clip250)" style="stroke:#000000; stroke-linecap:round; stroke-linejoin:round; stroke-width:4; stroke-opacity:1; fill:none" points="1510.59,1486.45 1510.59,1467.55 "/>
<polyline clip-path="url(#clip250)" style="stroke:#000000; stroke-linecap:round; stroke-linejoin:round; stroke-width:4; stroke-opacity:1; fill:none" points="2066.84,1486.45 2066.84,1467.55 "/>
<path clip-path="url(#clip250)" d="M388.472 1544.91 L396.111 1544.91 L396.111 1518.55 L387.801 1520.21 L387.801 1515.95 L396.065 1514.29 L400.741 1514.29 L400.741 1544.91 L408.379 1544.91 L408.379 1548.85 L388.472 1548.85 L388.472 1544.91 Z" fill="#000000" fill-rule="nonzero" fill-opacity="1" /><path clip-path="url(#clip250)" d="M948.994 1544.91 L965.313 1544.91 L965.313 1548.85 L943.369 1548.85 L943.369 1544.91 Q946.031 1542.16 950.614 1537.53 Q955.221 1532.88 956.401 1531.53 Q958.647 1529.01 959.526 1527.27 Q960.429 1525.51 960.429 1523.82 Q960.429 1521.07 958.485 1519.33 Q956.563 1517.6 953.461 1517.6 Q951.262 1517.6 948.809 1518.36 Q946.378 1519.13 943.6 1520.68 L943.6 1515.95 Q946.424 1514.82 948.878 1514.24 Q951.332 1513.66 953.369 1513.66 Q958.739 1513.66 961.934 1516.35 Q965.128 1519.03 965.128 1523.52 Q965.128 1525.65 964.318 1527.57 Q963.531 1529.47 961.424 1532.07 Q960.846 1532.74 957.744 1535.95 Q954.642 1539.15 948.994 1544.91 Z" fill="#000000" fill-rule="nonzero" fill-opacity="1" /><path clip-path="url(#clip250)" d="M1514.84 1530.21 Q1518.2 1530.93 1520.07 1533.2 Q1521.97 1535.47 1521.97 1538.8 Q1521.97 1543.92 1518.45 1546.72 Q1514.93 1549.52 1508.45 1549.52 Q1506.27 1549.52 1503.96 1549.08 Q1501.67 1548.66 1499.21 1547.81 L1499.21 1543.29 Q1501.16 1544.43 1503.47 1545.01 Q1505.79 1545.58 1508.31 1545.58 Q1512.71 1545.58 1515 1543.85 Q1517.32 1542.11 1517.32 1538.8 Q1517.32 1535.75 1515.16 1534.03 Q1513.03 1532.3 1509.21 1532.3 L1505.19 1532.3 L1505.19 1528.45 L1509.4 1528.45 Q1512.85 1528.45 1514.68 1527.09 Q1516.51 1525.7 1516.51 1523.11 Q1516.51 1520.45 1514.61 1519.03 Q1512.73 1517.6 1509.21 1517.6 Q1507.29 1517.6 1505.09 1518.01 Q1502.9 1518.43 1500.26 1519.31 L1500.26 1515.14 Q1502.92 1514.4 1505.23 1514.03 Q1507.57 1513.66 1509.63 1513.66 Q1514.96 1513.66 1518.06 1516.09 Q1521.16 1518.5 1521.16 1522.62 Q1521.16 1525.49 1519.52 1527.48 Q1517.87 1529.45 1514.84 1530.21 Z" fill="#000000" fill-rule="nonzero" fill-opacity="1" /><path clip-path="url(#clip250)" d="M2069.85 1518.36 L2058.05 1536.81 L2069.85 1536.81 L2069.85 1518.36 M2068.63 1514.29 L2074.5 1514.29 L2074.5 1536.81 L2079.44 1536.81 L2079.44 1540.7 L2074.5 1540.7 L2074.5 1548.85 L2069.85 1548.85 L2069.85 1540.7 L2054.25 1540.7 L2054.25 1536.19 L2068.63 1514.29 Z" fill="#000000" fill-rule="nonzero" fill-opacity="1" /><polyline clip-path="url(#clip250)" style="stroke:#000000; stroke-linecap:round; stroke-linejoin:round; stroke-width:4; stroke-opacity:1; fill:none" points="112.177,1486.45 112.177,123.472 "/>
<polyline clip-path="url(#clip250)" style="stroke:#000000; stroke-linecap:round; stroke-linejoin:round; stroke-width:4; stroke-opacity:1; fill:none" points="112.177,1219.92 131.075,1219.92 "/>
<polyline clip-path="url(#clip250)" style="stroke:#000000; stroke-linecap:round; stroke-linejoin:round; stroke-width:4; stroke-opacity:1; fill:none" points="112.177,893.449 131.075,893.449 "/>
<polyline clip-path="url(#clip250)" style="stroke:#000000; stroke-linecap:round; stroke-linejoin:round; stroke-width:4; stroke-opacity:1; fill:none" points="112.177,566.98 131.075,566.98 "/>
<polyline clip-path="url(#clip250)" style="stroke:#000000; stroke-linecap:round; stroke-linejoin:round; stroke-width:4; stroke-opacity:1; fill:none" points="112.177,240.511 131.075,240.511 "/>
<path clip-path="url(#clip250)" d="M64.2328 1205.72 Q60.6217 1205.72 58.793 1209.28 Q56.9875 1212.82 56.9875 1219.95 Q56.9875 1227.06 58.793 1230.62 Q60.6217 1234.17 64.2328 1234.17 Q67.867 1234.17 69.6726 1230.62 Q71.5013 1227.06 71.5013 1219.95 Q71.5013 1212.82 69.6726 1209.28 Q67.867 1205.72 64.2328 1205.72 M64.2328 1202.01 Q70.0429 1202.01 73.0985 1206.62 Q76.1772 1211.2 76.1772 1219.95 Q76.1772 1228.68 73.0985 1233.29 Q70.0429 1237.87 64.2328 1237.87 Q58.4226 1237.87 55.344 1233.29 Q52.2884 1228.68 52.2884 1219.95 Q52.2884 1211.2 55.344 1206.62 Q58.4226 1202.01 64.2328 1202.01 Z" fill="#000000" fill-rule="nonzero" fill-opacity="1" /><path clip-path="url(#clip250)" d="M59.8578 906.794 L76.1772 906.794 L76.1772 910.729 L54.2328 910.729 L54.2328 906.794 Q56.8949 904.039 61.4782 899.41 Q66.0846 894.757 67.2652 893.414 Q69.5105 890.891 70.3902 889.155 Q71.2929 887.396 71.2929 885.706 Q71.2929 882.951 69.3485 881.215 Q67.4272 879.479 64.3254 879.479 Q62.1263 879.479 59.6726 880.243 Q57.2421 881.007 54.4643 882.558 L54.4643 877.836 Q57.2884 876.701 59.7421 876.123 Q62.1958 875.544 64.2328 875.544 Q69.6031 875.544 72.7976 878.229 Q75.992 880.914 75.992 885.405 Q75.992 887.535 75.1818 889.456 Q74.3948 891.354 72.2883 893.947 Q71.7096 894.618 68.6078 897.836 Q65.5059 901.03 59.8578 906.794 Z" fill="#000000" fill-rule="nonzero" fill-opacity="1" /><path clip-path="url(#clip250)" d="M66.5939 553.774 L54.7884 572.223 L66.5939 572.223 L66.5939 553.774 M65.367 549.7 L71.2466 549.7 L71.2466 572.223 L76.1772 572.223 L76.1772 576.112 L71.2466 576.112 L71.2466 584.26 L66.5939 584.26 L66.5939 576.112 L50.9921 576.112 L50.9921 571.598 L65.367 549.7 Z" fill="#000000" fill-rule="nonzero" fill-opacity="1" /><path clip-path="url(#clip250)" d="M64.6495 238.648 Q61.5013 238.648 59.6495 240.801 Q57.8208 242.953 57.8208 246.703 Q57.8208 250.43 59.6495 252.606 Q61.5013 254.759 64.6495 254.759 Q67.7976 254.759 69.6263 252.606 Q71.4781 250.43 71.4781 246.703 Q71.4781 242.953 69.6263 240.801 Q67.7976 238.648 64.6495 238.648 M73.9318 223.995 L73.9318 228.254 Q72.1726 227.421 70.367 226.981 Q68.5846 226.541 66.8254 226.541 Q62.1958 226.541 59.7421 229.666 Q57.3115 232.791 56.9643 239.111 Q58.33 237.097 60.3902 236.032 Q62.4504 234.944 64.9272 234.944 Q70.1355 234.944 73.1448 238.115 Q76.1772 241.264 76.1772 246.703 Q76.1772 252.027 73.029 255.245 Q69.8809 258.463 64.6495 258.463 Q58.6541 258.463 55.4828 253.879 Q52.3116 249.273 52.3116 240.546 Q52.3116 232.352 56.2004 227.49 Q60.0893 222.606 66.6402 222.606 Q68.3994 222.606 70.1818 222.953 Q71.9874 223.301 73.9318 223.995 Z" fill="#000000" fill-rule="nonzero" fill-opacity="1" /><path clip-path="url(#clip250)" d="M885.304 43.6931 L885.304 65.8515 L898.429 65.8515 Q905.032 65.8515 908.192 63.1374 Q911.392 60.3828 911.392 54.752 Q911.392 49.0808 908.192 46.4072 Q905.032 43.6931 898.429 43.6931 L885.304 43.6931 M885.304 18.8205 L885.304 37.0496 L897.416 37.0496 Q903.412 37.0496 906.328 34.8216 Q909.285 32.5531 909.285 27.935 Q909.285 23.3575 906.328 21.089 Q903.412 18.8205 897.416 18.8205 L885.304 18.8205 M877.121 12.096 L898.024 12.096 Q907.381 12.096 912.445 15.9849 Q917.509 19.8737 917.509 27.0438 Q917.509 32.5936 914.916 35.8748 Q912.324 39.156 907.3 39.9662 Q913.336 41.2625 916.658 45.3944 Q920.02 49.4858 920.02 55.6432 Q920.02 63.745 914.511 68.1605 Q909.002 72.576 898.834 72.576 L877.121 72.576 L877.121 12.096 Z" fill="#000000" fill-rule="nonzero" fill-opacity="1" /><path clip-path="url(#clip250)" d="M951.293 32.4315 Q945.298 32.4315 941.814 37.1306 Q938.33 41.7891 938.33 49.9314 Q938.33 58.0738 941.774 62.7728 Q945.257 67.4314 951.293 67.4314 Q957.248 67.4314 960.732 62.7323 Q964.216 58.0333 964.216 49.9314 Q964.216 41.8701 960.732 37.1711 Q957.248 32.4315 951.293 32.4315 M951.293 26.1121 Q961.015 26.1121 966.565 32.4315 Q972.115 38.7509 972.115 49.9314 Q972.115 61.0714 966.565 67.4314 Q961.015 73.7508 951.293 73.7508 Q941.531 73.7508 935.981 67.4314 Q930.472 61.0714 930.472 49.9314 Q930.472 38.7509 935.981 32.4315 Q941.531 26.1121 951.293 26.1121 Z" fill="#000000" fill-rule="nonzero" fill-opacity="1" /><path clip-path="url(#clip250)" d="M1019.63 27.2059 L1003.23 49.2833 L1020.48 72.576 L1011.69 72.576 L998.486 54.752 L985.28 72.576 L976.49 72.576 L994.111 48.8377 L977.989 27.2059 L986.779 27.2059 L998.81 43.369 L1010.84 27.2059 L1019.63 27.2059 Z" fill="#000000" fill-rule="nonzero" fill-opacity="1" /><path clip-path="url(#clip250)" d="M1065.89 18.8205 L1065.89 41.5461 L1076.18 41.5461 Q1081.89 41.5461 1085.01 38.5889 Q1088.13 35.6318 1088.13 30.163 Q1088.13 24.7348 1085.01 21.7777 Q1081.89 18.8205 1076.18 18.8205 L1065.89 18.8205 M1057.71 12.096 L1076.18 12.096 Q1086.35 12.096 1091.54 16.714 Q1096.76 21.2916 1096.76 30.163 Q1096.76 39.1155 1091.54 43.6931 Q1086.35 48.2706 1076.18 48.2706 L1065.89 48.2706 L1065.89 72.576 L1057.71 72.576 L1057.71 12.096 Z" fill="#000000" fill-rule="nonzero" fill-opacity="1" /><path clip-path="url(#clip250)" d="M1107.42 9.54393 L1114.87 9.54393 L1114.87 72.576 L1107.42 72.576 L1107.42 9.54393 Z" fill="#000000" fill-rule="nonzero" fill-opacity="1" /><path clip-path="url(#clip250)" d="M1148.05 32.4315 Q1142.05 32.4315 1138.57 37.1306 Q1135.08 41.7891 1135.08 49.9314 Q1135.08 58.0738 1138.53 62.7728 Q1142.01 67.4314 1148.05 67.4314 Q1154 67.4314 1157.48 62.7323 Q1160.97 58.0333 1160.97 49.9314 Q1160.97 41.8701 1157.48 37.1711 Q1154 32.4315 1148.05 32.4315 M1148.05 26.1121 Q1157.77 26.1121 1163.32 32.4315 Q1168.87 38.7509 1168.87 49.9314 Q1168.87 61.0714 1163.32 67.4314 Q1157.77 73.7508 1148.05 73.7508 Q1138.28 73.7508 1132.73 67.4314 Q1127.22 61.0714 1127.22 49.9314 Q1127.22 38.7509 1132.73 32.4315 Q1138.28 26.1121 1148.05 26.1121 Z" fill="#000000" fill-rule="nonzero" fill-opacity="1" /><path clip-path="url(#clip250)" d="M1188.6 14.324 L1188.6 27.2059 L1203.95 27.2059 L1203.95 32.9987 L1188.6 32.9987 L1188.6 57.6282 Q1188.6 63.1779 1190.09 64.7578 Q1191.63 66.3376 1196.29 66.3376 L1203.95 66.3376 L1203.95 72.576 L1196.29 72.576 Q1187.66 72.576 1184.38 69.3758 Q1181.1 66.1351 1181.1 57.6282 L1181.1 32.9987 L1175.63 32.9987 L1175.63 27.2059 L1181.1 27.2059 L1181.1 14.324 L1188.6 14.324 Z" fill="#000000" fill-rule="nonzero" fill-opacity="1" /><path clip-path="url(#clip250)" d="M1240.45 12.096 L1278.69 12.096 L1278.69 18.9825 L1248.63 18.9825 L1248.63 36.8875 L1277.43 36.8875 L1277.43 43.7741 L1248.63 43.7741 L1248.63 65.6895 L1279.42 65.6895 L1279.42 72.576 L1240.45 72.576 L1240.45 12.096 Z" fill="#000000" fill-rule="nonzero" fill-opacity="1" /><path clip-path="url(#clip250)" d="M1330.26 27.2059 L1313.85 49.2833 L1331.11 72.576 L1322.32 72.576 L1309.11 54.752 L1295.9 72.576 L1287.11 72.576 L1304.73 48.8377 L1288.61 27.2059 L1297.4 27.2059 L1309.43 43.369 L1321.46 27.2059 L1330.26 27.2059 Z" fill="#000000" fill-rule="nonzero" fill-opacity="1" /><path clip-path="url(#clip250)" d="M1362.26 49.7694 Q1353.22 49.7694 1349.74 51.8354 Q1346.26 53.9013 1346.26 58.8839 Q1346.26 62.8538 1348.85 65.2034 Q1351.48 67.5124 1355.98 67.5124 Q1362.18 67.5124 1365.9 63.1374 Q1369.67 58.7219 1369.67 51.4303 L1369.67 49.7694 L1362.26 49.7694 M1377.12 46.6907 L1377.12 72.576 L1369.67 72.576 L1369.67 65.6895 Q1367.12 69.8214 1363.31 71.8063 Q1359.5 73.7508 1353.99 73.7508 Q1347.03 73.7508 1342.89 69.8619 Q1338.8 65.9325 1338.8 59.3701 Q1338.8 51.7138 1343.91 47.825 Q1349.05 43.9361 1359.22 43.9361 L1369.67 43.9361 L1369.67 43.2069 Q1369.67 38.0623 1366.27 35.2672 Q1362.91 32.4315 1356.79 32.4315 Q1352.9 32.4315 1349.21 33.3632 Q1345.53 34.295 1342.12 36.1584 L1342.12 29.2718 Q1346.22 27.692 1350.06 26.9223 Q1353.91 26.1121 1357.56 26.1121 Q1367.4 26.1121 1372.26 31.2163 Q1377.12 36.3204 1377.12 46.6907 Z" fill="#000000" fill-rule="nonzero" fill-opacity="1" /><path clip-path="url(#clip250)" d="M1427.8 35.9153 Q1430.6 30.8922 1434.49 28.5022 Q1438.37 26.1121 1443.64 26.1121 Q1450.73 26.1121 1454.58 31.0947 Q1458.43 36.0368 1458.43 45.1919 L1458.43 72.576 L1450.93 72.576 L1450.93 45.4349 Q1450.93 38.913 1448.62 35.7533 Q1446.31 32.5936 1441.57 32.5936 Q1435.78 32.5936 1432.42 36.4419 Q1429.06 40.2903 1429.06 46.9338 L1429.06 72.576 L1421.56 72.576 L1421.56 45.4349 Q1421.56 38.8725 1419.25 35.7533 Q1416.94 32.5936 1412.12 32.5936 Q1406.41 32.5936 1403.05 36.4824 Q1399.69 40.3308 1399.69 46.9338 L1399.69 72.576 L1392.19 72.576 L1392.19 27.2059 L1399.69 27.2059 L1399.69 34.2544 Q1402.24 30.082 1405.8 28.0971 Q1409.37 26.1121 1414.27 26.1121 Q1419.21 26.1121 1422.66 28.6237 Q1426.14 31.1352 1427.8 35.9153 Z" fill="#000000" fill-rule="nonzero" fill-opacity="1" /><path clip-path="url(#clip250)" d="M1480.5 65.7705 L1480.5 89.8329 L1473.01 89.8329 L1473.01 27.2059 L1480.5 27.2059 L1480.5 34.0924 Q1482.85 30.0415 1486.42 28.0971 Q1490.02 26.1121 1495.01 26.1121 Q1503.27 26.1121 1508.41 32.6746 Q1513.6 39.2371 1513.6 49.9314 Q1513.6 60.6258 1508.41 67.1883 Q1503.27 73.7508 1495.01 73.7508 Q1490.02 73.7508 1486.42 71.8063 Q1482.85 69.8214 1480.5 65.7705 M1505.86 49.9314 Q1505.86 41.7081 1502.46 37.0496 Q1499.1 32.3505 1493.18 32.3505 Q1487.27 32.3505 1483.87 37.0496 Q1480.5 41.7081 1480.5 49.9314 Q1480.5 58.1548 1483.87 62.8538 Q1487.27 67.5124 1493.18 67.5124 Q1499.1 67.5124 1502.46 62.8538 Q1505.86 58.1548 1505.86 49.9314 Z" fill="#000000" fill-rule="nonzero" fill-opacity="1" /><path clip-path="url(#clip250)" d="M1525.95 9.54393 L1533.41 9.54393 L1533.41 72.576 L1525.95 72.576 L1525.95 9.54393 Z" fill="#000000" fill-rule="nonzero" fill-opacity="1" /><path clip-path="url(#clip250)" d="M1587.81 48.0275 L1587.81 51.6733 L1553.54 51.6733 Q1554.03 59.3701 1558.16 63.421 Q1562.33 67.4314 1569.74 67.4314 Q1574.04 67.4314 1578.05 66.3781 Q1582.1 65.3249 1586.07 63.2184 L1586.07 70.267 Q1582.06 71.9684 1577.85 72.8596 Q1573.63 73.7508 1569.3 73.7508 Q1558.44 73.7508 1552.08 67.4314 Q1545.76 61.1119 1545.76 50.3365 Q1545.76 39.1965 1551.76 32.6746 Q1557.79 26.1121 1568 26.1121 Q1577.16 26.1121 1582.46 32.0264 Q1587.81 37.9003 1587.81 48.0275 M1580.36 45.84 Q1580.28 39.7232 1576.91 36.0774 Q1573.59 32.4315 1568.08 32.4315 Q1561.85 32.4315 1558.08 35.9558 Q1554.35 39.4801 1553.78 45.8805 L1580.36 45.84 Z" fill="#000000" fill-rule="nonzero" fill-opacity="1" /><path clip-path="url(#clip252)" d="M398.09 1447.87 L286.84 1447.87 L509.34 1447.87 L398.09 1447.87 L398.09 1182.26 L398.09 1447.87  Z" fill="#009af9" fill-rule="evenodd" fill-opacity="1"/>
<polyline clip-path="url(#clip252)" style="stroke:#000000; stroke-linecap:round; stroke-linejoin:round; stroke-width:4; stroke-opacity:1; fill:none" points="398.09,1447.87 286.84,1447.87 509.34,1447.87 398.09,1447.87 398.09,1182.26 398.09,1447.87 "/>
<path clip-path="url(#clip252)" d="M620.591 1182.26 L620.591 1066.26 L175.59 1066.26 L175.59 1182.26 L620.591 1182.26 L620.591 1066.26 L620.591 1182.26  Z" fill="#009af9" fill-rule="evenodd" fill-opacity="1"/>
<polyline clip-path="url(#clip252)" style="stroke:#000000; stroke-linecap:round; stroke-linejoin:round; stroke-width:4; stroke-opacity:1; fill:none" points="620.591,1182.26 620.591,1066.26 175.59,1066.26 175.59,1182.26 620.591,1182.26 620.591,1066.26 620.591,1182.26 "/>
<path clip-path="url(#clip252)" d="M620.591 972.418 L175.59 972.418 L175.59 1066.26 L620.591 1066.26 L620.591 972.418 L398.09 972.418 L620.591 972.418  Z" fill="#009af9" fill-rule="evenodd" fill-opacity="1"/>
<polyline clip-path="url(#clip252)" style="stroke:#000000; stroke-linecap:round; stroke-linejoin:round; stroke-width:4; stroke-opacity:1; fill:none" points="620.591,972.418 175.59,972.418 175.59,1066.26 620.591,1066.26 620.591,972.418 398.09,972.418 620.591,972.418 "/>
<path clip-path="url(#clip252)" d="M398.09 801.74 L286.84 801.74 L509.34 801.74 L398.09 801.74 L398.09 972.418 L398.09 801.74  Z" fill="#009af9" fill-rule="evenodd" fill-opacity="1"/>
<polyline clip-path="url(#clip252)" style="stroke:#000000; stroke-linecap:round; stroke-linejoin:round; stroke-width:4; stroke-opacity:1; fill:none" points="398.09,801.74 286.84,801.74 509.34,801.74 398.09,801.74 398.09,972.418 398.09,801.74 "/>
<path clip-path="url(#clip252)" d="M954.341 1198.52 L843.091 1198.52 L1065.59 1198.52 L954.341 1198.52 L954.341 1014.08 L954.341 1198.52  Z" fill="#009af9" fill-rule="evenodd" fill-opacity="1"/>
<polyline clip-path="url(#clip252)" style="stroke:#000000; stroke-linecap:round; stroke-linejoin:round; stroke-width:4; stroke-opacity:1; fill:none" points="954.341,1198.52 843.091,1198.52 1065.59,1198.52 954.341,1198.52 954.341,1014.08 954.341,1198.52 "/>
<path clip-path="url(#clip252)" d="M1176.84 1014.08 L1176.84 922.298 L731.841 922.298 L731.841 1014.08 L1176.84 1014.08 L1176.84 922.298 L1176.84 1014.08  Z" fill="#009af9" fill-rule="evenodd" fill-opacity="1"/>
<polyline clip-path="url(#clip252)" style="stroke:#000000; stroke-linecap:round; stroke-linejoin:round; stroke-width:4; stroke-opacity:1; fill:none" points="1176.84,1014.08 1176.84,922.298 731.841,922.298 731.841,1014.08 1176.84,1014.08 1176.84,922.298 1176.84,1014.08 "/>
<path clip-path="url(#clip252)" d="M1176.84 803.047 L731.841 803.047 L731.841 922.298 L1176.84 922.298 L1176.84 803.047 L954.341 803.047 L1176.84 803.047  Z" fill="#009af9" fill-rule="evenodd" fill-opacity="1"/>
<polyline clip-path="url(#clip252)" style="stroke:#000000; stroke-linecap:round; stroke-linejoin:round; stroke-width:4; stroke-opacity:1; fill:none" points="1176.84,803.047 731.841,803.047 731.841,922.298 1176.84,922.298 1176.84,803.047 954.341,803.047 1176.84,803.047 "/>
<path clip-path="url(#clip252)" d="M954.341 538.564 L843.091 538.564 L1065.59 538.564 L954.341 538.564 L954.341 803.047 L954.341 538.564  Z" fill="#009af9" fill-rule="evenodd" fill-opacity="1"/>
<polyline clip-path="url(#clip252)" style="stroke:#000000; stroke-linecap:round; stroke-linejoin:round; stroke-width:4; stroke-opacity:1; fill:none" points="954.341,538.564 843.091,538.564 1065.59,538.564 954.341,538.564 954.341,803.047 954.341,538.564 "/>
<path clip-path="url(#clip252)" d="M1510.59 1062.59 L1399.34 1062.59 L1621.84 1062.59 L1510.59 1062.59 L1510.59 849.112 L1510.59 1062.59  Z" fill="#009af9" fill-rule="evenodd" fill-opacity="1"/>
<polyline clip-path="url(#clip252)" style="stroke:#000000; stroke-linecap:round; stroke-linejoin:round; stroke-width:4; stroke-opacity:1; fill:none" points="1510.59,1062.59 1399.34,1062.59 1621.84,1062.59 1510.59,1062.59 1510.59,849.112 1510.59,1062.59 "/>
<path clip-path="url(#clip252)" d="M1733.09 849.112 L1733.09 767.061 L1288.09 767.061 L1288.09 849.112 L1733.09 849.112 L1733.09 767.061 L1733.09 849.112  Z" fill="#009af9" fill-rule="evenodd" fill-opacity="1"/>
<polyline clip-path="url(#clip252)" style="stroke:#000000; stroke-linecap:round; stroke-linejoin:round; stroke-width:4; stroke-opacity:1; fill:none" points="1733.09,849.112 1733.09,767.061 1288.09,767.061 1288.09,849.112 1733.09,849.112 1733.09,767.061 1733.09,849.112 "/>
<path clip-path="url(#clip252)" d="M1733.09 656.253 L1288.09 656.253 L1288.09 767.061 L1733.09 767.061 L1733.09 656.253 L1510.59 656.253 L1733.09 656.253  Z" fill="#009af9" fill-rule="evenodd" fill-opacity="1"/>
<polyline clip-path="url(#clip252)" style="stroke:#000000; stroke-linecap:round; stroke-linejoin:round; stroke-width:4; stroke-opacity:1; fill:none" points="1733.09,656.253 1288.09,656.253 1288.09,767.061 1733.09,767.061 1733.09,656.253 1510.59,656.253 1733.09,656.253 "/>
<path clip-path="url(#clip252)" d="M1510.59 429.73 L1399.34 429.73 L1621.84 429.73 L1510.59 429.73 L1510.59 656.253 L1510.59 429.73  Z" fill="#009af9" fill-rule="evenodd" fill-opacity="1"/>
<polyline clip-path="url(#clip252)" style="stroke:#000000; stroke-linecap:round; stroke-linejoin:round; stroke-width:4; stroke-opacity:1; fill:none" points="1510.59,429.73 1399.34,429.73 1621.84,429.73 1510.59,429.73 1510.59,656.253 1510.59,429.73 "/>
<path clip-path="url(#clip252)" d="M2066.84 868.525 L1955.59 868.525 L2178.09 868.525 L2066.84 868.525 L2066.84 657.855 L2066.84 868.525  Z" fill="#009af9" fill-rule="evenodd" fill-opacity="1"/>
<polyline clip-path="url(#clip252)" style="stroke:#000000; stroke-linecap:round; stroke-linejoin:round; stroke-width:4; stroke-opacity:1; fill:none" points="2066.84,868.525 1955.59,868.525 2178.09,868.525 2066.84,868.525 2066.84,657.855 2066.84,868.525 "/>
<path clip-path="url(#clip252)" d="M2289.34 657.855 L2289.34 559.463 L1844.34 559.463 L1844.34 657.855 L2289.34 657.855 L2289.34 559.463 L2289.34 657.855  Z" fill="#009af9" fill-rule="evenodd" fill-opacity="1"/>
<polyline clip-path="url(#clip252)" style="stroke:#000000; stroke-linecap:round; stroke-linejoin:round; stroke-width:4; stroke-opacity:1; fill:none" points="2289.34,657.855 2289.34,559.463 1844.34,559.463 1844.34,657.855 2289.34,657.855 2289.34,559.463 2289.34,657.855 "/>
<path clip-path="url(#clip252)" d="M2289.34 445.302 L1844.34 445.302 L1844.34 559.463 L2289.34 559.463 L2289.34 445.302 L2066.84 445.302 L2289.34 445.302  Z" fill="#009af9" fill-rule="evenodd" fill-opacity="1"/>
<polyline clip-path="url(#clip252)" style="stroke:#000000; stroke-linecap:round; stroke-linejoin:round; stroke-width:4; stroke-opacity:1; fill:none" points="2289.34,445.302 1844.34,445.302 1844.34,559.463 2289.34,559.463 2289.34,445.302 2066.84,445.302 2289.34,445.302 "/>
<path clip-path="url(#clip252)" d="M2066.84 162.047 L1955.59 162.047 L2178.09 162.047 L2066.84 162.047 L2066.84 445.302 L2066.84 162.047  Z" fill="#009af9" fill-rule="evenodd" fill-opacity="1"/>
<polyline clip-path="url(#clip252)" style="stroke:#000000; stroke-linecap:round; stroke-linejoin:round; stroke-width:4; stroke-opacity:1; fill:none" points="2066.84,162.047 1955.59,162.047 2178.09,162.047 2066.84,162.047 2066.84,445.302 2066.84,162.047 "/>
<circle clip-path="url(#clip252)" cx="954.341" cy="1360.85" r="14.4" fill="#009af9" fill-rule="evenodd" fill-opacity="1" stroke="#000000" stroke-opacity="1" stroke-width="3.2"/>
<circle clip-path="url(#clip252)" cx="1510.59" cy="227.36" r="14.4" fill="#009af9" fill-rule="evenodd" fill-opacity="1" stroke="#000000" stroke-opacity="1" stroke-width="3.2"/>
<circle clip-path="url(#clip252)" cx="1510.59" cy="358.726" r="14.4" fill="#009af9" fill-rule="evenodd" fill-opacity="1" stroke="#000000" stroke-opacity="1" stroke-width="3.2"/>
<polyline clip-path="url(#clip252)" style="stroke:#009af9; stroke-linecap:round; stroke-linejoin:round; stroke-width:0; stroke-opacity:1; fill:none" points="398.09,1447.87 286.84,1447.87 509.34,1447.87 398.09,1447.87 398.09,1182.26 "/>
<polyline clip-path="url(#clip252)" style="stroke:#009af9; stroke-linecap:round; stroke-linejoin:round; stroke-width:0; stroke-opacity:1; fill:none" points="620.591,1182.26 620.591,1066.26 175.59,1066.26 175.59,1182.26 620.591,1182.26 620.591,1066.26 "/>
<polyline clip-path="url(#clip252)" style="stroke:#009af9; stroke-linecap:round; stroke-linejoin:round; stroke-width:0; stroke-opacity:1; fill:none" points="620.591,972.418 175.59,972.418 175.59,1066.26 620.591,1066.26 620.591,972.418 398.09,972.418 "/>
<polyline clip-path="url(#clip252)" style="stroke:#009af9; stroke-linecap:round; stroke-linejoin:round; stroke-width:0; stroke-opacity:1; fill:none" points="398.09,801.74 286.84,801.74 509.34,801.74 398.09,801.74 398.09,972.418 "/>
<polyline clip-path="url(#clip252)" style="stroke:#009af9; stroke-linecap:round; stroke-linejoin:round; stroke-width:0; stroke-opacity:1; fill:none" points="954.341,1198.52 843.091,1198.52 1065.59,1198.52 954.341,1198.52 954.341,1014.08 "/>
<polyline clip-path="url(#clip252)" style="stroke:#009af9; stroke-linecap:round; stroke-linejoin:round; stroke-width:0; stroke-opacity:1; fill:none" points="1176.84,1014.08 1176.84,922.298 731.841,922.298 731.841,1014.08 1176.84,1014.08 1176.84,922.298 "/>
<polyline clip-path="url(#clip252)" style="stroke:#009af9; stroke-linecap:round; stroke-linejoin:round; stroke-width:0; stroke-opacity:1; fill:none" points="1176.84,803.047 731.841,803.047 731.841,922.298 1176.84,922.298 1176.84,803.047 954.341,803.047 "/>
<polyline clip-path="url(#clip252)" style="stroke:#009af9; stroke-linecap:round; stroke-linejoin:round; stroke-width:0; stroke-opacity:1; fill:none" points="954.341,538.564 843.091,538.564 1065.59,538.564 954.341,538.564 954.341,803.047 "/>
<polyline clip-path="url(#clip252)" style="stroke:#009af9; stroke-linecap:round; stroke-linejoin:round; stroke-width:0; stroke-opacity:1; fill:none" points="1510.59,1062.59 1399.34,1062.59 1621.84,1062.59 1510.59,1062.59 1510.59,849.112 "/>
<polyline clip-path="url(#clip252)" style="stroke:#009af9; stroke-linecap:round; stroke-linejoin:round; stroke-width:0; stroke-opacity:1; fill:none" points="1733.09,849.112 1733.09,767.061 1288.09,767.061 1288.09,849.112 1733.09,849.112 1733.09,767.061 "/>
<polyline clip-path="url(#clip252)" style="stroke:#009af9; stroke-linecap:round; stroke-linejoin:round; stroke-width:0; stroke-opacity:1; fill:none" points="1733.09,656.253 1288.09,656.253 1288.09,767.061 1733.09,767.061 1733.09,656.253 1510.59,656.253 "/>
<polyline clip-path="url(#clip252)" style="stroke:#009af9; stroke-linecap:round; stroke-linejoin:round; stroke-width:0; stroke-opacity:1; fill:none" points="1510.59,429.73 1399.34,429.73 1621.84,429.73 1510.59,429.73 1510.59,656.253 "/>
<polyline clip-path="url(#clip252)" style="stroke:#009af9; stroke-linecap:round; stroke-linejoin:round; stroke-width:0; stroke-opacity:1; fill:none" points="2066.84,868.525 1955.59,868.525 2178.09,868.525 2066.84,868.525 2066.84,657.855 "/>
<polyline clip-path="url(#clip252)" style="stroke:#009af9; stroke-linecap:round; stroke-linejoin:round; stroke-width:0; stroke-opacity:1; fill:none" points="2289.34,657.855 2289.34,559.463 1844.34,559.463 1844.34,657.855 2289.34,657.855 2289.34,559.463 "/>
<polyline clip-path="url(#clip252)" style="stroke:#009af9; stroke-linecap:round; stroke-linejoin:round; stroke-width:0; stroke-opacity:1; fill:none" points="2289.34,445.302 1844.34,445.302 1844.34,559.463 2289.34,559.463 2289.34,445.302 2066.84,445.302 "/>
<polyline clip-path="url(#clip252)" style="stroke:#009af9; stroke-linecap:round; stroke-linejoin:round; stroke-width:0; stroke-opacity:1; fill:none" points="2066.84,162.047 1955.59,162.047 2178.09,162.047 2066.84,162.047 2066.84,445.302 "/>
<path clip-path="url(#clip250)" d="M186.863 272.585 L463.351 272.585 L463.351 168.905 L186.863 168.905  Z" fill="#ffffff" fill-rule="evenodd" fill-opacity="1"/>
<polyline clip-path="url(#clip250)" style="stroke:#000000; stroke-linecap:round; stroke-linejoin:round; stroke-width:4; stroke-opacity:1; fill:none" points="186.863,272.585 463.351,272.585 463.351,168.905 186.863,168.905 186.863,272.585 "/>
<path clip-path="url(#clip250)" d="M211.758 241.481 L361.13 241.481 L361.13 200.009 L211.758 200.009 L211.758 241.481  Z" fill="#009af9" fill-rule="evenodd" fill-opacity="1"/>
<polyline clip-path="url(#clip250)" style="stroke:#000000; stroke-linecap:round; stroke-linejoin:round; stroke-width:4; stroke-opacity:1; fill:none" points="211.758,241.481 361.13,241.481 361.13,200.009 211.758,200.009 211.758,241.481 "/>
<path clip-path="url(#clip250)" d="M399.868 240.432 Q398.063 245.062 396.35 246.474 Q394.637 247.886 391.766 247.886 L388.364 247.886 L388.364 244.321 L390.864 244.321 Q392.623 244.321 393.595 243.488 Q394.567 242.654 395.748 239.552 L396.512 237.608 L386.026 212.099 L390.54 212.099 L398.641 232.377 L406.743 212.099 L411.257 212.099 L399.868 240.432 Z" fill="#000000" fill-rule="nonzero" fill-opacity="1" /><path clip-path="url(#clip250)" d="M418.549 234.089 L426.188 234.089 L426.188 207.724 L417.877 209.391 L417.877 205.131 L426.141 203.465 L430.817 203.465 L430.817 234.089 L438.456 234.089 L438.456 238.025 L418.549 238.025 L418.549 234.089 Z" fill="#000000" fill-rule="nonzero" fill-opacity="1" /></svg>
