<?xml version="1.0" encoding="utf-8"?>
<svg xmlns="http://www.w3.org/2000/svg" xmlns:xlink="http://www.w3.org/1999/xlink" width="528" height="336" viewBox="0 0 2112 1344">
<defs>
  <clipPath id="clip740">
    <rect x="0" y="0" width="2112" height="1344"/>
  </clipPath>
</defs>
<path clip-path="url(#clip740)" d="M0 1344 L2112 1344 L2112 2.13163e-14 L0 2.13163e-14  Z" fill="#ffffff" fill-rule="evenodd" fill-opacity="1"/>
<defs>
  <clipPath id="clip741">
    <rect x="422" y="0" width="1479" height="1344"/>
  </clipPath>
</defs>
<path clip-path="url(#clip740)" d="M138.973 1234.58 L2064.76 1234.58 L2064.76 120.723 L138.973 120.723  Z" fill="#ffffff" fill-rule="evenodd" fill-opacity="1"/>
<defs>
  <clipPath id="clip742">
    <rect x="138" y="120" width="1927" height="1115"/>
  </clipPath>
</defs>
<polyline clip-path="url(#clip742)" style="stroke:#000000; stroke-linecap:round; stroke-linejoin:round; stroke-width:2; stroke-opacity:0.1; fill:none" points="298.455,1234.58 298.455,120.723 "/>
<polyline clip-path="url(#clip742)" style="stroke:#000000; stroke-linecap:round; stroke-linejoin:round; stroke-width:2; stroke-opacity:0.1; fill:none" points="566.258,1234.58 566.258,120.723 "/>
<polyline clip-path="url(#clip742)" style="stroke:#000000; stroke-linecap:round; stroke-linejoin:round; stroke-width:2; stroke-opacity:0.1; fill:none" points="834.061,1234.58 834.061,120.723 "/>
<polyline clip-path="url(#clip742)" style="stroke:#000000; stroke-linecap:round; stroke-linejoin:round; stroke-width:2; stroke-opacity:0.1; fill:none" points="1101.86,1234.58 1101.86,120.723 "/>
<polyline clip-path="url(#clip742)" style="stroke:#000000; stroke-linecap:round; stroke-linejoin:round; stroke-width:2; stroke-opacity:0.1; fill:none" points="1369.67,1234.58 1369.67,120.723 "/>
<polyline clip-path="url(#clip742)" style="stroke:#000000; stroke-linecap:round; stroke-linejoin:round; stroke-width:2; stroke-opacity:0.1; fill:none" points="1637.47,1234.58 1637.47,120.723 "/>
<polyline clip-path="url(#clip742)" style="stroke:#000000; stroke-linecap:round; stroke-linejoin:round; stroke-width:2; stroke-opacity:0.1; fill:none" points="1905.27,1234.58 1905.27,120.723 "/>
<polyline clip-path="url(#clip742)" style="stroke:#000000; stroke-linecap:round; stroke-linejoin:round; stroke-width:2; stroke-opacity:0.1; fill:none" points="138.973,1234.58 2064.76,1234.58 "/>
<polyline clip-path="url(#clip742)" style="stroke:#000000; stroke-linecap:round; stroke-linejoin:round; stroke-width:2; stroke-opacity:0.1; fill:none" points="138.973,981.43 2064.76,981.43 "/>
<polyline clip-path="url(#clip742)" style="stroke:#000000; stroke-linecap:round; stroke-linejoin:round; stroke-width:2; stroke-opacity:0.1; fill:none" points="138.973,728.281 2064.76,728.281 "/>
<polyline clip-path="url(#clip742)" style="stroke:#000000; stroke-linecap:round; stroke-linejoin:round; stroke-width:2; stroke-opacity:0.1; fill:none" points="138.973,475.132 2064.76,475.132 "/>
<polyline clip-path="url(#clip742)" style="stroke:#000000; stroke-linecap:round; stroke-linejoin:round; stroke-width:2; stroke-opacity:0.1; fill:none" points="138.973,221.983 2064.76,221.983 "/>
<polyline clip-path="url(#clip740)" style="stroke:#000000; stroke-linecap:round; stroke-linejoin:round; stroke-width:4; stroke-opacity:1; fill:none" points="138.973,1234.58 2064.76,1234.58 "/>
<polyline clip-path="url(#clip740)" style="stroke:#000000; stroke-linecap:round; stroke-linejoin:round; stroke-width:4; stroke-opacity:1; fill:none" points="298.455,1234.58 298.455,1215.68 "/>
<polyline clip-path="url(#clip740)" style="stroke:#000000; stroke-linecap:round; stroke-linejoin:round; stroke-width:4; stroke-opacity:1; fill:none" points="566.258,1234.58 566.258,1215.68 "/>
<polyline clip-path="url(#clip740)" style="stroke:#000000; stroke-linecap:round; stroke-linejoin:round; stroke-width:4; stroke-opacity:1; fill:none" points="834.061,1234.58 834.061,1215.68 "/>
<polyline clip-path="url(#clip740)" style="stroke:#000000; stroke-linecap:round; stroke-linejoin:round; stroke-width:4; stroke-opacity:1; fill:none" points="1101.86,1234.58 1101.86,1215.68 "/>
<polyline clip-path="url(#clip740)" style="stroke:#000000; stroke-linecap:round; stroke-linejoin:round; stroke-width:4; stroke-opacity:1; fill:none" points="1369.67,1234.58 1369.67,1215.68 "/>
<polyline clip-path="url(#clip740)" style="stroke:#000000; stroke-linecap:round; stroke-linejoin:round; stroke-width:4; stroke-opacity:1; fill:none" points="1637.47,1234.58 1637.47,1215.68 "/>
<polyline clip-path="url(#clip740)" style="stroke:#000000; stroke-linecap:round; stroke-linejoin:round; stroke-width:4; stroke-opacity:1; fill:none" points="1905.27,1234.58 1905.27,1215.68 "/>
<path clip-path="url(#clip740)" d="M267.923 1277.85 L297.599 1277.85 L297.599 1281.78 L267.923 1281.78 L267.923 1277.85 Z" fill="#000000" fill-rule="nonzero" fill-opacity="1" /><path clip-path="url(#clip740)" d="M321.858 1276.04 Q325.214 1276.76 327.089 1279.03 Q328.987 1281.3 328.987 1284.63 Q328.987 1289.74 325.469 1292.55 Q321.95 1295.35 315.469 1295.35 Q313.293 1295.35 310.978 1294.91 Q308.686 1294.49 306.233 1293.63 L306.233 1289.12 Q308.177 1290.25 310.492 1290.83 Q312.807 1291.41 315.33 1291.41 Q319.728 1291.41 322.02 1289.67 Q324.335 1287.94 324.335 1284.63 Q324.335 1281.57 322.182 1279.86 Q320.052 1278.12 316.233 1278.12 L312.205 1278.12 L312.205 1274.28 L316.418 1274.28 Q319.867 1274.28 321.696 1272.92 Q323.524 1271.53 323.524 1268.93 Q323.524 1266.27 321.626 1264.86 Q319.751 1263.42 316.233 1263.42 Q314.311 1263.42 312.112 1263.84 Q309.913 1264.26 307.274 1265.14 L307.274 1260.97 Q309.936 1260.23 312.251 1259.86 Q314.589 1259.49 316.649 1259.49 Q321.973 1259.49 325.075 1261.92 Q328.177 1264.33 328.177 1268.45 Q328.177 1271.32 326.534 1273.31 Q324.89 1275.28 321.858 1276.04 Z" fill="#000000" fill-rule="nonzero" fill-opacity="1" /><path clip-path="url(#clip740)" d="M536.2 1277.85 L565.876 1277.85 L565.876 1281.78 L536.2 1281.78 L536.2 1277.85 Z" fill="#000000" fill-rule="nonzero" fill-opacity="1" /><path clip-path="url(#clip740)" d="M579.997 1290.74 L596.316 1290.74 L596.316 1294.67 L574.372 1294.67 L574.372 1290.74 Q577.034 1287.99 581.617 1283.36 Q586.223 1278.7 587.404 1277.36 Q589.649 1274.84 590.529 1273.1 Q591.432 1271.34 591.432 1269.65 Q591.432 1266.9 589.487 1265.16 Q587.566 1263.42 584.464 1263.42 Q582.265 1263.42 579.811 1264.19 Q577.381 1264.95 574.603 1266.5 L574.603 1261.78 Q577.427 1260.65 579.881 1260.07 Q582.334 1259.49 584.372 1259.49 Q589.742 1259.49 592.936 1262.17 Q596.131 1264.86 596.131 1269.35 Q596.131 1271.48 595.321 1273.4 Q594.533 1275.3 592.427 1277.89 Q591.848 1278.56 588.746 1281.78 Q585.645 1284.98 579.997 1290.74 Z" fill="#000000" fill-rule="nonzero" fill-opacity="1" /><path clip-path="url(#clip740)" d="M803.818 1277.85 L833.494 1277.85 L833.494 1281.78 L803.818 1281.78 L803.818 1277.85 Z" fill="#000000" fill-rule="nonzero" fill-opacity="1" /><path clip-path="url(#clip740)" d="M844.397 1290.74 L852.036 1290.74 L852.036 1264.37 L843.726 1266.04 L843.726 1261.78 L851.989 1260.11 L856.665 1260.11 L856.665 1290.74 L864.304 1290.74 L864.304 1294.67 L844.397 1294.67 L844.397 1290.74 Z" fill="#000000" fill-rule="nonzero" fill-opacity="1" /><path clip-path="url(#clip740)" d="M1101.86 1263.19 Q1098.25 1263.19 1096.42 1266.76 Q1094.62 1270.3 1094.62 1277.43 Q1094.62 1284.54 1096.42 1288.1 Q1098.25 1291.64 1101.86 1291.64 Q1105.5 1291.64 1107.3 1288.1 Q1109.13 1284.54 1109.13 1277.43 Q1109.13 1270.3 1107.3 1266.76 Q1105.5 1263.19 1101.86 1263.19 M1101.86 1259.49 Q1107.67 1259.49 1110.73 1264.1 Q1113.81 1268.68 1113.81 1277.43 Q1113.81 1286.16 1110.73 1290.76 Q1107.67 1295.35 1101.86 1295.35 Q1096.05 1295.35 1092.98 1290.76 Q1089.92 1286.16 1089.92 1277.43 Q1089.92 1268.68 1092.98 1264.1 Q1096.05 1259.49 1101.86 1259.49 Z" fill="#000000" fill-rule="nonzero" fill-opacity="1" /><path clip-path="url(#clip740)" d="M1360.05 1290.74 L1367.69 1290.74 L1367.69 1264.37 L1359.38 1266.04 L1359.38 1261.78 L1367.64 1260.11 L1372.32 1260.11 L1372.32 1290.74 L1379.96 1290.74 L1379.96 1294.67 L1360.05 1294.67 L1360.05 1290.74 Z" fill="#000000" fill-rule="nonzero" fill-opacity="1" /><path clip-path="url(#clip740)" d="M1632.12 1290.74 L1648.44 1290.74 L1648.44 1294.67 L1626.5 1294.67 L1626.5 1290.74 Q1629.16 1287.99 1633.74 1283.36 Q1638.35 1278.7 1639.53 1277.36 Q1641.78 1274.84 1642.66 1273.1 Q1643.56 1271.34 1643.56 1269.65 Q1643.56 1266.9 1641.61 1265.16 Q1639.69 1263.42 1636.59 1263.42 Q1634.39 1263.42 1631.94 1264.19 Q1629.51 1264.95 1626.73 1266.5 L1626.73 1261.78 Q1629.55 1260.65 1632.01 1260.07 Q1634.46 1259.49 1636.5 1259.49 Q1641.87 1259.49 1645.06 1262.17 Q1648.26 1264.86 1648.26 1269.35 Q1648.26 1271.48 1647.45 1273.4 Q1646.66 1275.3 1644.55 1277.89 Q1643.98 1278.56 1640.87 1281.78 Q1637.77 1284.98 1632.12 1290.74 Z" fill="#000000" fill-rule="nonzero" fill-opacity="1" /><path clip-path="url(#clip740)" d="M1909.52 1276.04 Q1912.88 1276.76 1914.75 1279.03 Q1916.65 1281.3 1916.65 1284.63 Q1916.65 1289.74 1913.13 1292.55 Q1909.61 1295.35 1903.13 1295.35 Q1900.96 1295.35 1898.64 1294.91 Q1896.35 1294.49 1893.9 1293.63 L1893.9 1289.12 Q1895.84 1290.25 1898.16 1290.83 Q1900.47 1291.41 1902.99 1291.41 Q1907.39 1291.41 1909.68 1289.67 Q1912 1287.94 1912 1284.63 Q1912 1281.57 1909.85 1279.86 Q1907.72 1278.12 1903.9 1278.12 L1899.87 1278.12 L1899.87 1274.28 L1904.08 1274.28 Q1907.53 1274.28 1909.36 1272.92 Q1911.19 1271.53 1911.19 1268.93 Q1911.19 1266.27 1909.29 1264.86 Q1907.41 1263.42 1903.9 1263.42 Q1901.98 1263.42 1899.78 1263.84 Q1897.58 1264.26 1894.94 1265.14 L1894.94 1260.97 Q1897.6 1260.23 1899.92 1259.86 Q1902.25 1259.49 1904.31 1259.49 Q1909.64 1259.49 1912.74 1261.92 Q1915.84 1264.33 1915.84 1268.45 Q1915.84 1271.32 1914.2 1273.31 Q1912.55 1275.28 1909.52 1276.04 Z" fill="#000000" fill-rule="nonzero" fill-opacity="1" /><polyline clip-path="url(#clip740)" style="stroke:#000000; stroke-linecap:round; stroke-linejoin:round; stroke-width:4; stroke-opacity:1; fill:none" points="138.973,1234.58 138.973,120.723 "/>
<polyline clip-path="url(#clip740)" style="stroke:#000000; stroke-linecap:round; stroke-linejoin:round; stroke-width:4; stroke-opacity:1; fill:none" points="138.973,1234.58 157.871,1234.58 "/>
<polyline clip-path="url(#clip740)" style="stroke:#000000; stroke-linecap:round; stroke-linejoin:round; stroke-width:4; stroke-opacity:1; fill:none" points="138.973,981.43 157.871,981.43 "/>
<polyline clip-path="url(#clip740)" style="stroke:#000000; stroke-linecap:round; stroke-linejoin:round; stroke-width:4; stroke-opacity:1; fill:none" points="138.973,728.281 157.871,728.281 "/>
<polyline clip-path="url(#clip740)" style="stroke:#000000; stroke-linecap:round; stroke-linejoin:round; stroke-width:4; stroke-opacity:1; fill:none" points="138.973,475.132 157.871,475.132 "/>
<polyline clip-path="url(#clip740)" style="stroke:#000000; stroke-linecap:round; stroke-linejoin:round; stroke-width:4; stroke-opacity:1; fill:none" points="138.973,221.983 157.871,221.983 "/>
<path clip-path="url(#clip740)" d="M95.3486 1220.38 Q91.7375 1220.38 89.9088 1223.94 Q88.1032 1227.48 88.1032 1234.61 Q88.1032 1241.72 89.9088 1245.28 Q91.7375 1248.83 95.3486 1248.83 Q98.9828 1248.83 100.788 1245.28 Q102.617 1241.72 102.617 1234.61 Q102.617 1227.48 100.788 1223.94 Q98.9828 1220.38 95.3486 1220.38 M95.3486 1216.67 Q101.159 1216.67 104.214 1221.28 Q107.293 1225.86 107.293 1234.61 Q107.293 1243.34 104.214 1247.95 Q101.159 1252.53 95.3486 1252.53 Q89.5384 1252.53 86.4597 1247.95 Q83.4042 1243.34 83.4042 1234.61 Q83.4042 1225.86 86.4597 1221.28 Q89.5384 1216.67 95.3486 1216.67 Z" fill="#000000" fill-rule="nonzero" fill-opacity="1" /><path clip-path="url(#clip740)" d="M59.2145 994.775 L75.5339 994.775 L75.5339 998.71 L53.5895 998.71 L53.5895 994.775 Q56.2515 992.02 60.8349 987.39 Q65.4413 982.738 66.6219 981.395 Q68.8672 978.872 69.7468 977.136 Q70.6496 975.377 70.6496 973.687 Q70.6496 970.932 68.7052 969.196 Q66.7839 967.46 63.6821 967.46 Q61.483 967.46 59.0293 968.224 Q56.5988 968.988 53.821 970.539 L53.821 965.816 Q56.6451 964.682 59.0988 964.103 Q61.5524 963.525 63.5895 963.525 Q68.9598 963.525 72.1542 966.21 Q75.3487 968.895 75.3487 973.386 Q75.3487 975.515 74.5385 977.437 Q73.7515 979.335 71.645 981.927 Q71.0663 982.599 67.9645 985.816 Q64.8626 989.011 59.2145 994.775 Z" fill="#000000" fill-rule="nonzero" fill-opacity="1" /><path clip-path="url(#clip740)" d="M95.3486 967.228 Q91.7375 967.228 89.9088 970.793 Q88.1032 974.335 88.1032 981.464 Q88.1032 988.571 89.9088 992.136 Q91.7375 995.677 95.3486 995.677 Q98.9828 995.677 100.788 992.136 Q102.617 988.571 102.617 981.464 Q102.617 974.335 100.788 970.793 Q98.9828 967.228 95.3486 967.228 M95.3486 963.525 Q101.159 963.525 104.214 968.131 Q107.293 972.715 107.293 981.464 Q107.293 990.191 104.214 994.798 Q101.159 999.381 95.3486 999.381 Q89.5384 999.381 86.4597 994.798 Q83.4042 990.191 83.4042 981.464 Q83.4042 972.715 86.4597 968.131 Q89.5384 963.525 95.3486 963.525 Z" fill="#000000" fill-rule="nonzero" fill-opacity="1" /><path clip-path="url(#clip740)" d="M68.0339 715.075 L56.2284 733.524 L68.0339 733.524 L68.0339 715.075 M66.807 711.001 L72.6866 711.001 L72.6866 733.524 L77.6172 733.524 L77.6172 737.413 L72.6866 737.413 L72.6866 745.561 L68.0339 745.561 L68.0339 737.413 L52.4321 737.413 L52.4321 732.899 L66.807 711.001 Z" fill="#000000" fill-rule="nonzero" fill-opacity="1" /><path clip-path="url(#clip740)" d="M95.3486 714.079 Q91.7375 714.079 89.9088 717.644 Q88.1032 721.186 88.1032 728.315 Q88.1032 735.422 89.9088 738.987 Q91.7375 742.528 95.3486 742.528 Q98.9828 742.528 100.788 738.987 Q102.617 735.422 102.617 728.315 Q102.617 721.186 100.788 717.644 Q98.9828 714.079 95.3486 714.079 M95.3486 710.376 Q101.159 710.376 104.214 714.982 Q107.293 719.565 107.293 728.315 Q107.293 737.042 104.214 741.649 Q101.159 746.232 95.3486 746.232 Q89.5384 746.232 86.4597 741.649 Q83.4042 737.042 83.4042 728.315 Q83.4042 719.565 86.4597 714.982 Q89.5384 710.376 95.3486 710.376 Z" fill="#000000" fill-rule="nonzero" fill-opacity="1" /><path clip-path="url(#clip740)" d="M65.7654 473.268 Q62.6173 473.268 60.7654 475.421 Q58.9367 477.574 58.9367 481.324 Q58.9367 485.051 60.7654 487.227 Q62.6173 489.379 65.7654 489.379 Q68.9135 489.379 70.7422 487.227 Q72.5941 485.051 72.5941 481.324 Q72.5941 477.574 70.7422 475.421 Q68.9135 473.268 65.7654 473.268 M75.0477 458.616 L75.0477 462.875 Q73.2885 462.041 71.4829 461.602 Q69.7006 461.162 67.9413 461.162 Q63.3117 461.162 60.858 464.287 Q58.4275 467.412 58.0802 473.731 Q59.446 471.717 61.5062 470.653 Q63.5663 469.565 66.0432 469.565 Q71.2515 469.565 74.2607 472.736 Q77.2931 475.884 77.2931 481.324 Q77.2931 486.648 74.145 489.865 Q70.9968 493.083 65.7654 493.083 Q59.77 493.083 56.5988 488.5 Q53.4275 483.893 53.4275 475.166 Q53.4275 466.972 57.3164 462.111 Q61.2052 457.227 67.7561 457.227 Q69.5154 457.227 71.2978 457.574 Q73.1033 457.921 75.0477 458.616 Z" fill="#000000" fill-rule="nonzero" fill-opacity="1" /><path clip-path="url(#clip740)" d="M95.3486 460.93 Q91.7375 460.93 89.9088 464.495 Q88.1032 468.037 88.1032 475.166 Q88.1032 482.273 89.9088 485.838 Q91.7375 489.379 95.3486 489.379 Q98.9828 489.379 100.788 485.838 Q102.617 482.273 102.617 475.166 Q102.617 468.037 100.788 464.495 Q98.9828 460.93 95.3486 460.93 M95.3486 457.227 Q101.159 457.227 104.214 461.833 Q107.293 466.416 107.293 475.166 Q107.293 483.893 104.214 488.5 Q101.159 493.083 95.3486 493.083 Q89.5384 493.083 86.4597 488.5 Q83.4042 483.893 83.4042 475.166 Q83.4042 466.416 86.4597 461.833 Q89.5384 457.227 95.3486 457.227 Z" fill="#000000" fill-rule="nonzero" fill-opacity="1" /><path clip-path="url(#clip740)" d="M65.1867 222.851 Q61.8534 222.851 59.9321 224.633 Q58.0339 226.415 58.0339 229.54 Q58.0339 232.665 59.9321 234.448 Q61.8534 236.23 65.1867 236.23 Q68.52 236.23 70.4413 234.448 Q72.3626 232.642 72.3626 229.54 Q72.3626 226.415 70.4413 224.633 Q68.5432 222.851 65.1867 222.851 M60.5108 220.86 Q57.5015 220.119 55.8117 218.059 Q54.1451 215.999 54.1451 213.036 Q54.1451 208.892 57.0849 206.485 Q60.0478 204.078 65.1867 204.078 Q70.3487 204.078 73.2885 206.485 Q76.2283 208.892 76.2283 213.036 Q76.2283 215.999 74.5385 218.059 Q72.8718 220.119 69.8857 220.86 Q73.2653 221.647 75.1403 223.939 Q77.0385 226.23 77.0385 229.54 Q77.0385 234.564 73.9598 237.249 Q70.9042 239.934 65.1867 239.934 Q59.4691 239.934 56.3904 237.249 Q53.3349 234.564 53.3349 229.54 Q53.3349 226.23 55.233 223.939 Q57.1312 221.647 60.5108 220.86 M58.7978 213.476 Q58.7978 216.161 60.4645 217.666 Q62.1543 219.17 65.1867 219.17 Q68.1959 219.17 69.8857 217.666 Q71.5987 216.161 71.5987 213.476 Q71.5987 210.791 69.8857 209.286 Q68.1959 207.781 65.1867 207.781 Q62.1543 207.781 60.4645 209.286 Q58.7978 210.791 58.7978 213.476 Z" fill="#000000" fill-rule="nonzero" fill-opacity="1" /><path clip-path="url(#clip740)" d="M95.3486 207.781 Q91.7375 207.781 89.9088 211.346 Q88.1032 214.888 88.1032 222.017 Q88.1032 229.124 89.9088 232.689 Q91.7375 236.23 95.3486 236.23 Q98.9828 236.23 100.788 232.689 Q102.617 229.124 102.617 222.017 Q102.617 214.888 100.788 211.346 Q98.9828 207.781 95.3486 207.781 M95.3486 204.078 Q101.159 204.078 104.214 208.684 Q107.293 213.267 107.293 222.017 Q107.293 230.744 104.214 235.351 Q101.159 239.934 95.3486 239.934 Q89.5384 239.934 86.4597 235.351 Q83.4042 230.744 83.4042 222.017 Q83.4042 213.267 86.4597 208.684 Q89.5384 204.078 95.3486 204.078 Z" fill="#000000" fill-rule="nonzero" fill-opacity="1" /><path clip-path="url(#clip740)" d="M699.812 12.096 L707.995 12.096 L707.995 36.8875 L737.729 36.8875 L737.729 12.096 L745.911 12.096 L745.911 72.576 L737.729 72.576 L737.729 43.7741 L707.995 43.7741 L707.995 72.576 L699.812 72.576 L699.812 12.096 Z" fill="#000000" fill-rule="nonzero" fill-opacity="1" /><path clip-path="url(#clip740)" d="M761.872 27.2059 L769.326 27.2059 L769.326 72.576 L761.872 72.576 L761.872 27.2059 M761.872 9.54393 L769.326 9.54393 L769.326 18.9825 L761.872 18.9825 L761.872 9.54393 Z" fill="#000000" fill-rule="nonzero" fill-opacity="1" /><path clip-path="url(#clip740)" d="M813.845 28.5427 L813.845 35.5912 Q810.685 33.9709 807.283 33.1607 Q803.88 32.3505 800.234 32.3505 Q794.684 32.3505 791.889 34.0519 Q789.135 35.7533 789.135 39.156 Q789.135 41.7486 791.12 43.2475 Q793.105 44.7058 799.1 46.0426 L801.652 46.6097 Q809.592 48.3111 812.913 51.4303 Q816.276 54.509 816.276 60.0587 Q816.276 66.3781 811.253 70.0644 Q806.27 73.7508 797.52 73.7508 Q793.874 73.7508 789.904 73.0216 Q785.975 72.3329 781.6 70.9151 L781.6 63.2184 Q785.732 65.3654 789.742 66.4591 Q793.753 67.5124 797.682 67.5124 Q802.948 67.5124 805.784 65.73 Q808.619 63.9071 808.619 60.6258 Q808.619 57.5877 806.554 55.9673 Q804.528 54.3469 797.601 52.8481 L795.008 52.2405 Q788.081 50.7821 785.003 47.7845 Q781.924 44.7463 781.924 39.4801 Q781.924 33.0797 786.461 29.5959 Q790.998 26.1121 799.343 26.1121 Q803.475 26.1121 807.121 26.7198 Q810.766 27.3274 813.845 28.5427 Z" fill="#000000" fill-rule="nonzero" fill-opacity="1" /><path clip-path="url(#clip740)" d="M835.517 14.324 L835.517 27.2059 L850.87 27.2059 L850.87 32.9987 L835.517 32.9987 L835.517 57.6282 Q835.517 63.1779 837.016 64.7578 Q838.556 66.3376 843.214 66.3376 L850.87 66.3376 L850.87 72.576 L843.214 72.576 Q834.586 72.576 831.305 69.3758 Q828.023 66.1351 828.023 57.6282 L828.023 32.9987 L822.555 32.9987 L822.555 27.2059 L828.023 27.2059 L828.023 14.324 L835.517 14.324 Z" fill="#000000" fill-rule="nonzero" fill-opacity="1" /><path clip-path="url(#clip740)" d="M878.255 32.4315 Q872.259 32.4315 868.775 37.1306 Q865.292 41.7891 865.292 49.9314 Q865.292 58.0738 868.735 62.7728 Q872.219 67.4314 878.255 67.4314 Q884.209 67.4314 887.693 62.7323 Q891.177 58.0333 891.177 49.9314 Q891.177 41.8701 887.693 37.1711 Q884.209 32.4315 878.255 32.4315 M878.255 26.1121 Q887.977 26.1121 893.526 32.4315 Q899.076 38.7509 899.076 49.9314 Q899.076 61.0714 893.526 67.4314 Q887.977 73.7508 878.255 73.7508 Q868.492 73.7508 862.942 67.4314 Q857.433 61.0714 857.433 49.9314 Q857.433 38.7509 862.942 32.4315 Q868.492 26.1121 878.255 26.1121 Z" fill="#000000" fill-rule="nonzero" fill-opacity="1" /><path clip-path="url(#clip740)" d="M941.287 49.3643 Q941.287 41.2625 937.924 36.8065 Q934.603 32.3505 928.567 32.3505 Q922.571 32.3505 919.209 36.8065 Q915.887 41.2625 915.887 49.3643 Q915.887 57.4256 919.209 61.8816 Q922.571 66.3376 928.567 66.3376 Q934.603 66.3376 937.924 61.8816 Q941.287 57.4256 941.287 49.3643 M948.74 66.9452 Q948.74 78.5308 943.596 84.1616 Q938.451 89.8329 927.838 89.8329 Q923.908 89.8329 920.424 89.2252 Q916.941 88.6581 913.659 87.4428 L913.659 80.1917 Q916.941 81.9741 920.141 82.8248 Q923.341 83.6755 926.663 83.6755 Q933.995 83.6755 937.641 79.8271 Q941.287 76.0193 941.287 68.282 L941.287 64.5957 Q938.978 68.6061 935.372 70.5911 Q931.767 72.576 926.744 72.576 Q918.399 72.576 913.295 66.2161 Q908.191 59.8562 908.191 49.3643 Q908.191 38.832 913.295 32.472 Q918.399 26.1121 926.744 26.1121 Q931.767 26.1121 935.372 28.0971 Q938.978 30.082 941.287 34.0924 L941.287 27.2059 L948.74 27.2059 L948.74 66.9452 Z" fill="#000000" fill-rule="nonzero" fill-opacity="1" /><path clip-path="url(#clip740)" d="M990.384 34.1734 Q989.128 33.4443 987.629 33.1202 Q986.171 32.7556 984.388 32.7556 Q978.069 32.7556 974.666 36.8875 Q971.304 40.9789 971.304 48.6757 L971.304 72.576 L963.81 72.576 L963.81 27.2059 L971.304 27.2059 L971.304 34.2544 Q973.653 30.1225 977.421 28.1376 Q981.188 26.1121 986.576 26.1121 Q987.345 26.1121 988.277 26.2337 Q989.209 26.3147 990.343 26.5172 L990.384 34.1734 Z" fill="#000000" fill-rule="nonzero" fill-opacity="1" /><path clip-path="url(#clip740)" d="M1018.82 49.7694 Q1009.79 49.7694 1006.3 51.8354 Q1002.82 53.9013 1002.82 58.8839 Q1002.82 62.8538 1005.41 65.2034 Q1008.05 67.5124 1012.54 67.5124 Q1018.74 67.5124 1022.47 63.1374 Q1026.23 58.7219 1026.23 51.4303 L1026.23 49.7694 L1018.82 49.7694 M1033.69 46.6907 L1033.69 72.576 L1026.23 72.576 L1026.23 65.6895 Q1023.68 69.8214 1019.87 71.8063 Q1016.07 73.7508 1010.56 73.7508 Q1003.59 73.7508 999.458 69.8619 Q995.366 65.9325 995.366 59.3701 Q995.366 51.7138 1000.47 47.825 Q1005.61 43.9361 1015.78 43.9361 L1026.23 43.9361 L1026.23 43.2069 Q1026.23 38.0623 1022.83 35.2672 Q1019.47 32.4315 1013.35 32.4315 Q1009.46 32.4315 1005.78 33.3632 Q1002.09 34.295 998.688 36.1584 L998.688 29.2718 Q1002.78 27.692 1006.63 26.9223 Q1010.48 26.1121 1014.12 26.1121 Q1023.97 26.1121 1028.83 31.2163 Q1033.69 36.3204 1033.69 46.6907 Z" fill="#000000" fill-rule="nonzero" fill-opacity="1" /><path clip-path="url(#clip740)" d="M1084.36 35.9153 Q1087.16 30.8922 1091.05 28.5022 Q1094.94 26.1121 1100.2 26.1121 Q1107.29 26.1121 1111.14 31.0947 Q1114.99 36.0368 1114.99 45.1919 L1114.99 72.576 L1107.5 72.576 L1107.5 45.4349 Q1107.5 38.913 1105.19 35.7533 Q1102.88 32.5936 1098.14 32.5936 Q1092.34 32.5936 1088.98 36.4419 Q1085.62 40.2903 1085.62 46.9338 L1085.62 72.576 L1078.13 72.576 L1078.13 45.4349 Q1078.13 38.8725 1075.82 35.7533 Q1073.51 32.5936 1068.69 32.5936 Q1062.98 32.5936 1059.61 36.4824 Q1056.25 40.3308 1056.25 46.9338 L1056.25 72.576 L1048.76 72.576 L1048.76 27.2059 L1056.25 27.2059 L1056.25 34.2544 Q1058.8 30.082 1062.37 28.0971 Q1065.93 26.1121 1070.83 26.1121 Q1075.78 26.1121 1079.22 28.6237 Q1082.7 31.1352 1084.36 35.9153 Z" fill="#000000" fill-rule="nonzero" fill-opacity="1" /><path clip-path="url(#clip740)" d="M1156.55 12.096 L1194.79 12.096 L1194.79 18.9825 L1164.73 18.9825 L1164.73 36.8875 L1193.54 36.8875 L1193.54 43.7741 L1164.73 43.7741 L1164.73 65.6895 L1195.52 65.6895 L1195.52 72.576 L1156.55 72.576 L1156.55 12.096 Z" fill="#000000" fill-rule="nonzero" fill-opacity="1" /><path clip-path="url(#clip740)" d="M1246.36 27.2059 L1229.95 49.2833 L1247.21 72.576 L1238.42 72.576 L1225.21 54.752 L1212.01 72.576 L1203.22 72.576 L1220.84 48.8377 L1204.72 27.2059 L1213.51 27.2059 L1225.54 43.369 L1237.57 27.2059 L1246.36 27.2059 Z" fill="#000000" fill-rule="nonzero" fill-opacity="1" /><path clip-path="url(#clip740)" d="M1278.36 49.7694 Q1269.33 49.7694 1265.85 51.8354 Q1262.36 53.9013 1262.36 58.8839 Q1262.36 62.8538 1264.95 65.2034 Q1267.59 67.5124 1272.08 67.5124 Q1278.28 67.5124 1282.01 63.1374 Q1285.78 58.7219 1285.78 51.4303 L1285.78 49.7694 L1278.36 49.7694 M1293.23 46.6907 L1293.23 72.576 L1285.78 72.576 L1285.78 65.6895 Q1283.22 69.8214 1279.42 71.8063 Q1275.61 73.7508 1270.1 73.7508 Q1263.13 73.7508 1259 69.8619 Q1254.91 65.9325 1254.91 59.3701 Q1254.91 51.7138 1260.01 47.825 Q1265.16 43.9361 1275.32 43.9361 L1285.78 43.9361 L1285.78 43.2069 Q1285.78 38.0623 1282.37 35.2672 Q1279.01 32.4315 1272.89 32.4315 Q1269 32.4315 1265.32 33.3632 Q1261.63 34.295 1258.23 36.1584 L1258.23 29.2718 Q1262.32 27.692 1266.17 26.9223 Q1270.02 26.1121 1273.66 26.1121 Q1283.51 26.1121 1288.37 31.2163 Q1293.23 36.3204 1293.23 46.6907 Z" fill="#000000" fill-rule="nonzero" fill-opacity="1" /><path clip-path="url(#clip740)" d="M1343.91 35.9153 Q1346.7 30.8922 1350.59 28.5022 Q1354.48 26.1121 1359.74 26.1121 Q1366.83 26.1121 1370.68 31.0947 Q1374.53 36.0368 1374.53 45.1919 L1374.53 72.576 L1367.04 72.576 L1367.04 45.4349 Q1367.04 38.913 1364.73 35.7533 Q1362.42 32.5936 1357.68 32.5936 Q1351.89 32.5936 1348.52 36.4419 Q1345.16 40.2903 1345.16 46.9338 L1345.16 72.576 L1337.67 72.576 L1337.67 45.4349 Q1337.67 38.8725 1335.36 35.7533 Q1333.05 32.5936 1328.23 32.5936 Q1322.52 32.5936 1319.15 36.4824 Q1315.79 40.3308 1315.79 46.9338 L1315.79 72.576 L1308.3 72.576 L1308.3 27.2059 L1315.79 27.2059 L1315.79 34.2544 Q1318.34 30.082 1321.91 28.0971 Q1325.47 26.1121 1330.38 26.1121 Q1335.32 26.1121 1338.76 28.6237 Q1342.25 31.1352 1343.91 35.9153 Z" fill="#000000" fill-rule="nonzero" fill-opacity="1" /><path clip-path="url(#clip740)" d="M1396.61 65.7705 L1396.61 89.8329 L1389.11 89.8329 L1389.11 27.2059 L1396.61 27.2059 L1396.61 34.0924 Q1398.96 30.0415 1402.52 28.0971 Q1406.13 26.1121 1411.11 26.1121 Q1419.37 26.1121 1424.52 32.6746 Q1429.7 39.2371 1429.7 49.9314 Q1429.7 60.6258 1424.52 67.1883 Q1419.37 73.7508 1411.11 73.7508 Q1406.13 73.7508 1402.52 71.8063 Q1398.96 69.8214 1396.61 65.7705 M1421.97 49.9314 Q1421.97 41.7081 1418.56 37.0496 Q1415.2 32.3505 1409.29 32.3505 Q1403.37 32.3505 1399.97 37.0496 Q1396.61 41.7081 1396.61 49.9314 Q1396.61 58.1548 1399.97 62.8538 Q1403.37 67.5124 1409.29 67.5124 Q1415.2 67.5124 1418.56 62.8538 Q1421.97 58.1548 1421.97 49.9314 Z" fill="#000000" fill-rule="nonzero" fill-opacity="1" /><path clip-path="url(#clip740)" d="M1442.06 9.54393 L1449.51 9.54393 L1449.51 72.576 L1442.06 72.576 L1442.06 9.54393 Z" fill="#000000" fill-rule="nonzero" fill-opacity="1" /><path clip-path="url(#clip740)" d="M1503.92 48.0275 L1503.92 51.6733 L1469.65 51.6733 Q1470.13 59.3701 1474.26 63.421 Q1478.44 67.4314 1485.85 67.4314 Q1490.14 67.4314 1494.15 66.3781 Q1498.2 65.3249 1502.17 63.2184 L1502.17 70.267 Q1498.16 71.9684 1493.95 72.8596 Q1489.74 73.7508 1485.4 73.7508 Q1474.55 73.7508 1468.19 67.4314 Q1461.87 61.1119 1461.87 50.3365 Q1461.87 39.1965 1467.86 32.6746 Q1473.9 26.1121 1484.11 26.1121 Q1493.26 26.1121 1498.57 32.0264 Q1503.92 37.9003 1503.92 48.0275 M1496.46 45.84 Q1496.38 39.7232 1493.02 36.0774 Q1489.7 32.4315 1484.19 32.4315 Q1477.95 32.4315 1474.18 35.9558 Q1470.46 39.4801 1469.89 45.8805 L1496.46 45.84 Z" fill="#000000" fill-rule="nonzero" fill-opacity="1" /><path clip-path="url(#clip742)" d="M244.894 1221.92 L244.894 1234.58 L298.455 1234.58 L298.455 1221.92 L244.894 1221.92 L244.894 1221.92  Z" fill="#009af9" fill-rule="evenodd" fill-opacity="1"/>
<polyline clip-path="url(#clip742)" style="stroke:#000000; stroke-linecap:round; stroke-linejoin:round; stroke-width:4; stroke-opacity:1; fill:none" points="244.894,1221.92 244.894,1234.58 298.455,1234.58 298.455,1221.92 244.894,1221.92 "/>
<path clip-path="url(#clip742)" d="M298.455 1234.58 L298.455 1234.58 L352.016 1234.58 L352.016 1234.58 L298.455 1234.58 L298.455 1234.58  Z" fill="#009af9" fill-rule="evenodd" fill-opacity="1"/>
<polyline clip-path="url(#clip742)" style="stroke:#000000; stroke-linecap:round; stroke-linejoin:round; stroke-width:4; stroke-opacity:1; fill:none" points="298.455,1234.58 298.455,1234.58 352.016,1234.58 298.455,1234.58 "/>
<path clip-path="url(#clip742)" d="M352.016 1196.61 L352.016 1234.58 L405.576 1234.58 L405.576 1196.61 L352.016 1196.61 L352.016 1196.61  Z" fill="#009af9" fill-rule="evenodd" fill-opacity="1"/>
<polyline clip-path="url(#clip742)" style="stroke:#000000; stroke-linecap:round; stroke-linejoin:round; stroke-width:4; stroke-opacity:1; fill:none" points="352.016,1196.61 352.016,1234.58 405.576,1234.58 405.576,1196.61 352.016,1196.61 "/>
<path clip-path="url(#clip742)" d="M405.576 1221.92 L405.576 1234.58 L459.137 1234.58 L459.137 1221.92 L405.576 1221.92 L405.576 1221.92  Z" fill="#009af9" fill-rule="evenodd" fill-opacity="1"/>
<polyline clip-path="url(#clip742)" style="stroke:#000000; stroke-linecap:round; stroke-linejoin:round; stroke-width:4; stroke-opacity:1; fill:none" points="405.576,1221.92 405.576,1234.58 459.137,1234.58 459.137,1221.92 405.576,1221.92 "/>
<path clip-path="url(#clip742)" d="M459.137 1183.95 L459.137 1234.58 L512.698 1234.58 L512.698 1183.95 L459.137 1183.95 L459.137 1183.95  Z" fill="#009af9" fill-rule="evenodd" fill-opacity="1"/>
<polyline clip-path="url(#clip742)" style="stroke:#000000; stroke-linecap:round; stroke-linejoin:round; stroke-width:4; stroke-opacity:1; fill:none" points="459.137,1183.95 459.137,1234.58 512.698,1234.58 512.698,1183.95 459.137,1183.95 "/>
<path clip-path="url(#clip742)" d="M512.698 1095.35 L512.698 1234.58 L566.258 1234.58 L566.258 1095.35 L512.698 1095.35 L512.698 1095.35  Z" fill="#009af9" fill-rule="evenodd" fill-opacity="1"/>
<polyline clip-path="url(#clip742)" style="stroke:#000000; stroke-linecap:round; stroke-linejoin:round; stroke-width:4; stroke-opacity:1; fill:none" points="512.698,1095.35 512.698,1234.58 566.258,1234.58 566.258,1095.35 512.698,1095.35 "/>
<path clip-path="url(#clip742)" d="M566.258 1108 L566.258 1234.58 L619.819 1234.58 L619.819 1108 L566.258 1108 L566.258 1108  Z" fill="#009af9" fill-rule="evenodd" fill-opacity="1"/>
<polyline clip-path="url(#clip742)" style="stroke:#000000; stroke-linecap:round; stroke-linejoin:round; stroke-width:4; stroke-opacity:1; fill:none" points="566.258,1108 566.258,1234.58 619.819,1234.58 619.819,1108 566.258,1108 "/>
<path clip-path="url(#clip742)" d="M619.819 994.087 L619.819 1234.58 L673.379 1234.58 L673.379 994.087 L619.819 994.087 L619.819 994.087  Z" fill="#009af9" fill-rule="evenodd" fill-opacity="1"/>
<polyline clip-path="url(#clip742)" style="stroke:#000000; stroke-linecap:round; stroke-linejoin:round; stroke-width:4; stroke-opacity:1; fill:none" points="619.819,994.087 619.819,1234.58 673.379,1234.58 673.379,994.087 619.819,994.087 "/>
<path clip-path="url(#clip742)" d="M673.379 854.855 L673.379 1234.58 L726.94 1234.58 L726.94 854.855 L673.379 854.855 L673.379 854.855  Z" fill="#009af9" fill-rule="evenodd" fill-opacity="1"/>
<polyline clip-path="url(#clip742)" style="stroke:#000000; stroke-linecap:round; stroke-linejoin:round; stroke-width:4; stroke-opacity:1; fill:none" points="673.379,854.855 673.379,1234.58 726.94,1234.58 726.94,854.855 673.379,854.855 "/>
<path clip-path="url(#clip742)" d="M726.94 728.281 L726.94 1234.58 L780.501 1234.58 L780.501 728.281 L726.94 728.281 L726.94 728.281  Z" fill="#009af9" fill-rule="evenodd" fill-opacity="1"/>
<polyline clip-path="url(#clip742)" style="stroke:#000000; stroke-linecap:round; stroke-linejoin:round; stroke-width:4; stroke-opacity:1; fill:none" points="726.94,728.281 726.94,1234.58 780.501,1234.58 780.501,728.281 726.94,728.281 "/>
<path clip-path="url(#clip742)" d="M780.501 766.253 L780.501 1234.58 L834.061 1234.58 L834.061 766.253 L780.501 766.253 L780.501 766.253  Z" fill="#009af9" fill-rule="evenodd" fill-opacity="1"/>
<polyline clip-path="url(#clip742)" style="stroke:#000000; stroke-linecap:round; stroke-linejoin:round; stroke-width:4; stroke-opacity:1; fill:none" points="780.501,766.253 780.501,1234.58 834.061,1234.58 834.061,766.253 780.501,766.253 "/>
<path clip-path="url(#clip742)" d="M834.061 664.993 L834.061 1234.58 L887.622 1234.58 L887.622 664.993 L834.061 664.993 L834.061 664.993  Z" fill="#009af9" fill-rule="evenodd" fill-opacity="1"/>
<polyline clip-path="url(#clip742)" style="stroke:#000000; stroke-linecap:round; stroke-linejoin:round; stroke-width:4; stroke-opacity:1; fill:none" points="834.061,664.993 834.061,1234.58 887.622,1234.58 887.622,664.993 834.061,664.993 "/>
<path clip-path="url(#clip742)" d="M887.622 361.215 L887.622 1234.58 L941.183 1234.58 L941.183 361.215 L887.622 361.215 L887.622 361.215  Z" fill="#009af9" fill-rule="evenodd" fill-opacity="1"/>
<polyline clip-path="url(#clip742)" style="stroke:#000000; stroke-linecap:round; stroke-linejoin:round; stroke-width:4; stroke-opacity:1; fill:none" points="887.622,361.215 887.622,1234.58 941.183,1234.58 941.183,361.215 887.622,361.215 "/>
<path clip-path="url(#clip742)" d="M941.183 120.723 L941.183 1234.58 L994.743 1234.58 L994.743 120.723 L941.183 120.723 L941.183 120.723  Z" fill="#009af9" fill-rule="evenodd" fill-opacity="1"/>
<polyline clip-path="url(#clip742)" style="stroke:#000000; stroke-linecap:round; stroke-linejoin:round; stroke-width:4; stroke-opacity:1; fill:none" points="941.183,120.723 941.183,1234.58 994.743,1234.58 994.743,120.723 941.183,120.723 "/>
<path clip-path="url(#clip742)" d="M994.743 247.298 L994.743 1234.58 L1048.3 1234.58 L1048.3 247.298 L994.743 247.298 L994.743 247.298  Z" fill="#009af9" fill-rule="evenodd" fill-opacity="1"/>
<polyline clip-path="url(#clip742)" style="stroke:#000000; stroke-linecap:round; stroke-linejoin:round; stroke-width:4; stroke-opacity:1; fill:none" points="994.743,247.298 994.743,1234.58 1048.3,1234.58 1048.3,247.298 994.743,247.298 "/>
<path clip-path="url(#clip742)" d="M1048.3 259.955 L1048.3 1234.58 L1101.86 1234.58 L1101.86 259.955 L1048.3 259.955 L1048.3 259.955  Z" fill="#009af9" fill-rule="evenodd" fill-opacity="1"/>
<polyline clip-path="url(#clip742)" style="stroke:#000000; stroke-linecap:round; stroke-linejoin:round; stroke-width:4; stroke-opacity:1; fill:none" points="1048.3,259.955 1048.3,1234.58 1101.86,1234.58 1101.86,259.955 1048.3,259.955 "/>
<path clip-path="url(#clip742)" d="M1101.86 259.955 L1101.86 1234.58 L1155.43 1234.58 L1155.43 259.955 L1101.86 259.955 L1101.86 259.955  Z" fill="#009af9" fill-rule="evenodd" fill-opacity="1"/>
<polyline clip-path="url(#clip742)" style="stroke:#000000; stroke-linecap:round; stroke-linejoin:round; stroke-width:4; stroke-opacity:1; fill:none" points="1101.86,259.955 1101.86,1234.58 1155.43,1234.58 1155.43,259.955 1101.86,259.955 "/>
<path clip-path="url(#clip742)" d="M1155.43 310.585 L1155.43 1234.58 L1208.99 1234.58 L1208.99 310.585 L1155.43 310.585 L1155.43 310.585  Z" fill="#009af9" fill-rule="evenodd" fill-opacity="1"/>
<polyline clip-path="url(#clip742)" style="stroke:#000000; stroke-linecap:round; stroke-linejoin:round; stroke-width:4; stroke-opacity:1; fill:none" points="1155.43,310.585 1155.43,1234.58 1208.99,1234.58 1208.99,310.585 1155.43,310.585 "/>
<path clip-path="url(#clip742)" d="M1208.99 361.215 L1208.99 1234.58 L1262.55 1234.58 L1262.55 361.215 L1208.99 361.215 L1208.99 361.215  Z" fill="#009af9" fill-rule="evenodd" fill-opacity="1"/>
<polyline clip-path="url(#clip742)" style="stroke:#000000; stroke-linecap:round; stroke-linejoin:round; stroke-width:4; stroke-opacity:1; fill:none" points="1208.99,361.215 1208.99,1234.58 1262.55,1234.58 1262.55,361.215 1208.99,361.215 "/>
<path clip-path="url(#clip742)" d="M1262.55 462.474 L1262.55 1234.58 L1316.11 1234.58 L1316.11 462.474 L1262.55 462.474 L1262.55 462.474  Z" fill="#009af9" fill-rule="evenodd" fill-opacity="1"/>
<polyline clip-path="url(#clip742)" style="stroke:#000000; stroke-linecap:round; stroke-linejoin:round; stroke-width:4; stroke-opacity:1; fill:none" points="1262.55,462.474 1262.55,1234.58 1316.11,1234.58 1316.11,462.474 1262.55,462.474 "/>
<path clip-path="url(#clip742)" d="M1316.11 563.734 L1316.11 1234.58 L1369.67 1234.58 L1369.67 563.734 L1316.11 563.734 L1316.11 563.734  Z" fill="#009af9" fill-rule="evenodd" fill-opacity="1"/>
<polyline clip-path="url(#clip742)" style="stroke:#000000; stroke-linecap:round; stroke-linejoin:round; stroke-width:4; stroke-opacity:1; fill:none" points="1316.11,563.734 1316.11,1234.58 1369.67,1234.58 1369.67,563.734 1316.11,563.734 "/>
<path clip-path="url(#clip742)" d="M1369.67 753.596 L1369.67 1234.58 L1423.23 1234.58 L1423.23 753.596 L1369.67 753.596 L1369.67 753.596  Z" fill="#009af9" fill-rule="evenodd" fill-opacity="1"/>
<polyline clip-path="url(#clip742)" style="stroke:#000000; stroke-linecap:round; stroke-linejoin:round; stroke-width:4; stroke-opacity:1; fill:none" points="1369.67,753.596 1369.67,1234.58 1423.23,1234.58 1423.23,753.596 1369.67,753.596 "/>
<path clip-path="url(#clip742)" d="M1423.23 766.253 L1423.23 1234.58 L1476.79 1234.58 L1476.79 766.253 L1423.23 766.253 L1423.23 766.253  Z" fill="#009af9" fill-rule="evenodd" fill-opacity="1"/>
<polyline clip-path="url(#clip742)" style="stroke:#000000; stroke-linecap:round; stroke-linejoin:round; stroke-width:4; stroke-opacity:1; fill:none" points="1423.23,766.253 1423.23,1234.58 1476.79,1234.58 1476.79,766.253 1423.23,766.253 "/>
<path clip-path="url(#clip742)" d="M1476.79 892.828 L1476.79 1234.58 L1530.35 1234.58 L1530.35 892.828 L1476.79 892.828 L1476.79 892.828  Z" fill="#009af9" fill-rule="evenodd" fill-opacity="1"/>
<polyline clip-path="url(#clip742)" style="stroke:#000000; stroke-linecap:round; stroke-linejoin:round; stroke-width:4; stroke-opacity:1; fill:none" points="1476.79,892.828 1476.79,1234.58 1530.35,1234.58 1530.35,892.828 1476.79,892.828 "/>
<path clip-path="url(#clip742)" d="M1530.35 943.457 L1530.35 1234.58 L1583.91 1234.58 L1583.91 943.457 L1530.35 943.457 L1530.35 943.457  Z" fill="#009af9" fill-rule="evenodd" fill-opacity="1"/>
<polyline clip-path="url(#clip742)" style="stroke:#000000; stroke-linecap:round; stroke-linejoin:round; stroke-width:4; stroke-opacity:1; fill:none" points="1530.35,943.457 1530.35,1234.58 1583.91,1234.58 1583.91,943.457 1530.35,943.457 "/>
<path clip-path="url(#clip742)" d="M1583.91 1044.72 L1583.91 1234.58 L1637.47 1234.58 L1637.47 1044.72 L1583.91 1044.72 L1583.91 1044.72  Z" fill="#009af9" fill-rule="evenodd" fill-opacity="1"/>
<polyline clip-path="url(#clip742)" style="stroke:#000000; stroke-linecap:round; stroke-linejoin:round; stroke-width:4; stroke-opacity:1; fill:none" points="1583.91,1044.72 1583.91,1234.58 1637.47,1234.58 1637.47,1044.72 1583.91,1044.72 "/>
<path clip-path="url(#clip742)" d="M1637.47 1171.29 L1637.47 1234.58 L1691.03 1234.58 L1691.03 1171.29 L1637.47 1171.29 L1637.47 1171.29  Z" fill="#009af9" fill-rule="evenodd" fill-opacity="1"/>
<polyline clip-path="url(#clip742)" style="stroke:#000000; stroke-linecap:round; stroke-linejoin:round; stroke-width:4; stroke-opacity:1; fill:none" points="1637.47,1171.29 1637.47,1234.58 1691.03,1234.58 1691.03,1171.29 1637.47,1171.29 "/>
<path clip-path="url(#clip742)" d="M1691.03 1183.95 L1691.03 1234.58 L1744.59 1234.58 L1744.59 1183.95 L1691.03 1183.95 L1691.03 1183.95  Z" fill="#009af9" fill-rule="evenodd" fill-opacity="1"/>
<polyline clip-path="url(#clip742)" style="stroke:#000000; stroke-linecap:round; stroke-linejoin:round; stroke-width:4; stroke-opacity:1; fill:none" points="1691.03,1183.95 1691.03,1234.58 1744.59,1234.58 1744.59,1183.95 1691.03,1183.95 "/>
<path clip-path="url(#clip742)" d="M1744.59 1209.26 L1744.59 1234.58 L1798.15 1234.58 L1798.15 1209.26 L1744.59 1209.26 L1744.59 1209.26  Z" fill="#009af9" fill-rule="evenodd" fill-opacity="1"/>
<polyline clip-path="url(#clip742)" style="stroke:#000000; stroke-linecap:round; stroke-linejoin:round; stroke-width:4; stroke-opacity:1; fill:none" points="1744.59,1209.26 1744.59,1234.58 1798.15,1234.58 1798.15,1209.26 1744.59,1209.26 "/>
<path clip-path="url(#clip742)" d="M1798.15 1234.58 L1798.15 1234.58 L1851.71 1234.58 L1851.71 1234.58 L1798.15 1234.58 L1798.15 1234.58  Z" fill="#009af9" fill-rule="evenodd" fill-opacity="1"/>
<polyline clip-path="url(#clip742)" style="stroke:#000000; stroke-linecap:round; stroke-linejoin:round; stroke-width:4; stroke-opacity:1; fill:none" points="1798.15,1234.58 1798.15,1234.58 1851.71,1234.58 1798.15,1234.58 "/>
<path clip-path="url(#clip742)" d="M1851.71 1221.92 L1851.71 1234.58 L1905.27 1234.58 L1905.27 1221.92 L1851.71 1221.92 L1851.71 1221.92  Z" fill="#009af9" fill-rule="evenodd" fill-opacity="1"/>
<polyline clip-path="url(#clip742)" style="stroke:#000000; stroke-linecap:round; stroke-linejoin:round; stroke-width:4; stroke-opacity:1; fill:none" points="1851.71,1221.92 1851.71,1234.58 1905.27,1234.58 1905.27,1221.92 1851.71,1221.92 "/>
<path clip-path="url(#clip742)" d="M1905.27 1209.26 L1905.27 1234.58 L1958.83 1234.58 L1958.83 1209.26 L1905.27 1209.26 L1905.27 1209.26  Z" fill="#009af9" fill-rule="evenodd" fill-opacity="1"/>
<polyline clip-path="url(#clip742)" style="stroke:#000000; stroke-linecap:round; stroke-linejoin:round; stroke-width:4; stroke-opacity:1; fill:none" points="1905.27,1209.26 1905.27,1234.58 1958.83,1234.58 1958.83,1209.26 1905.27,1209.26 "/>
<circle clip-path="url(#clip742)" style="fill:#009af9; stroke:none; fill-opacity:0" cx="271.675" cy="1221.92" r="2"/>
<circle clip-path="url(#clip742)" style="fill:#009af9; stroke:none; fill-opacity:0" cx="325.235" cy="1234.58" r="2"/>
<circle clip-path="url(#clip742)" style="fill:#009af9; stroke:none; fill-opacity:0" cx="378.796" cy="1196.61" r="2"/>
<circle clip-path="url(#clip742)" style="fill:#009af9; stroke:none; fill-opacity:0" cx="432.357" cy="1221.92" r="2"/>
<circle clip-path="url(#clip742)" style="fill:#009af9; stroke:none; fill-opacity:0" cx="485.917" cy="1183.95" r="2"/>
<circle clip-path="url(#clip742)" style="fill:#009af9; stroke:none; fill-opacity:0" cx="539.478" cy="1095.35" r="2"/>
<circle clip-path="url(#clip742)" style="fill:#009af9; stroke:none; fill-opacity:0" cx="593.038" cy="1108" r="2"/>
<circle clip-path="url(#clip742)" style="fill:#009af9; stroke:none; fill-opacity:0" cx="646.599" cy="994.087" r="2"/>
<circle clip-path="url(#clip742)" style="fill:#009af9; stroke:none; fill-opacity:0" cx="700.16" cy="854.855" r="2"/>
<circle clip-path="url(#clip742)" style="fill:#009af9; stroke:none; fill-opacity:0" cx="753.72" cy="728.281" r="2"/>
<circle clip-path="url(#clip742)" style="fill:#009af9; stroke:none; fill-opacity:0" cx="807.281" cy="766.253" r="2"/>
<circle clip-path="url(#clip742)" style="fill:#009af9; stroke:none; fill-opacity:0" cx="860.842" cy="664.993" r="2"/>
<circle clip-path="url(#clip742)" style="fill:#009af9; stroke:none; fill-opacity:0" cx="914.402" cy="361.215" r="2"/>
<circle clip-path="url(#clip742)" style="fill:#009af9; stroke:none; fill-opacity:0" cx="967.963" cy="120.723" r="2"/>
<circle clip-path="url(#clip742)" style="fill:#009af9; stroke:none; fill-opacity:0" cx="1021.52" cy="247.298" r="2"/>
<circle clip-path="url(#clip742)" style="fill:#009af9; stroke:none; fill-opacity:0" cx="1075.08" cy="259.955" r="2"/>
<circle clip-path="url(#clip742)" style="fill:#009af9; stroke:none; fill-opacity:0" cx="1128.64" cy="259.955" r="2"/>
<circle clip-path="url(#clip742)" style="fill:#009af9; stroke:none; fill-opacity:0" cx="1182.21" cy="310.585" r="2"/>
<circle clip-path="url(#clip742)" style="fill:#009af9; stroke:none; fill-opacity:0" cx="1235.77" cy="361.215" r="2"/>
<circle clip-path="url(#clip742)" style="fill:#009af9; stroke:none; fill-opacity:0" cx="1289.33" cy="462.474" r="2"/>
<circle clip-path="url(#clip742)" style="fill:#009af9; stroke:none; fill-opacity:0" cx="1342.89" cy="563.734" r="2"/>
<circle clip-path="url(#clip742)" style="fill:#009af9; stroke:none; fill-opacity:0" cx="1396.45" cy="753.596" r="2"/>
<circle clip-path="url(#clip742)" style="fill:#009af9; stroke:none; fill-opacity:0" cx="1450.01" cy="766.253" r="2"/>
<circle clip-path="url(#clip742)" style="fill:#009af9; stroke:none; fill-opacity:0" cx="1503.57" cy="892.828" r="2"/>
<circle clip-path="url(#clip742)" style="fill:#009af9; stroke:none; fill-opacity:0" cx="1557.13" cy="943.457" r="2"/>
<circle clip-path="url(#clip742)" style="fill:#009af9; stroke:none; fill-opacity:0" cx="1610.69" cy="1044.72" r="2"/>
<circle clip-path="url(#clip742)" style="fill:#009af9; stroke:none; fill-opacity:0" cx="1664.25" cy="1171.29" r="2"/>
<circle clip-path="url(#clip742)" style="fill:#009af9; stroke:none; fill-opacity:0" cx="1717.81" cy="1183.95" r="2"/>
<circle clip-path="url(#clip742)" style="fill:#009af9; stroke:none; fill-opacity:0" cx="1771.37" cy="1209.26" r="2"/>
<circle clip-path="url(#clip742)" style="fill:#009af9; stroke:none; fill-opacity:0" cx="1824.93" cy="1234.58" r="2"/>
<circle clip-path="url(#clip742)" style="fill:#009af9; stroke:none; fill-opacity:0" cx="1878.49" cy="1221.92" r="2"/>
<circle clip-path="url(#clip742)" style="fill:#009af9; stroke:none; fill-opacity:0" cx="1932.05" cy="1209.26" r="2"/>
<path clip-path="url(#clip740)" d="M1755.55 261.532 L2000.56 261.532 L2000.56 157.852 L1755.55 157.852  Z" fill="#ffffff" fill-rule="evenodd" fill-opacity="1"/>
<polyline clip-path="url(#clip740)" style="stroke:#000000; stroke-linecap:round; stroke-linejoin:round; stroke-width:4; stroke-opacity:1; fill:none" points="1755.55,261.532 2000.56,261.532 2000.56,157.852 1755.55,157.852 1755.55,261.532 "/>
<path clip-path="url(#clip740)" d="M1776.95 230.428 L1905.34 230.428 L1905.34 188.956 L1776.95 188.956 L1776.95 230.428  Z" fill="#009af9" fill-rule="evenodd" fill-opacity="1"/>
<polyline clip-path="url(#clip740)" style="stroke:#000000; stroke-linecap:round; stroke-linejoin:round; stroke-width:4; stroke-opacity:1; fill:none" points="1776.95,230.428 1905.34,230.428 1905.34,188.956 1776.95,188.956 1776.95,230.428 "/>
<path clip-path="url(#clip740)" d="M1940.58 229.379 Q1938.77 234.009 1937.06 235.421 Q1935.35 236.833 1932.48 236.833 L1929.07 236.833 L1929.07 233.268 L1931.57 233.268 Q1933.33 233.268 1934.3 232.434 Q1935.28 231.601 1936.46 228.499 L1937.22 226.555 L1926.74 201.046 L1931.25 201.046 L1939.35 221.323 L1947.45 201.046 L1951.97 201.046 L1940.58 229.379 Z" fill="#000000" fill-rule="nonzero" fill-opacity="1" /><path clip-path="url(#clip740)" d="M1959.26 223.036 L1966.9 223.036 L1966.9 196.671 L1958.59 198.337 L1958.59 194.078 L1966.85 192.412 L1971.53 192.412 L1971.53 223.036 L1979.17 223.036 L1979.17 226.972 L1959.26 226.972 L1959.26 223.036 Z" fill="#000000" fill-rule="nonzero" fill-opacity="1" /></svg>
