<?xml version="1.0" encoding="utf-8"?>
<svg xmlns="http://www.w3.org/2000/svg" xmlns:xlink="http://www.w3.org/1999/xlink" width="1650" height="1050" viewBox="0 0 6600 4200">
<defs>
  <clipPath id="clip640">
    <rect x="0" y="0" width="6600" height="4200"/>
  </clipPath>
</defs>
<path clip-path="url(#clip640)" d="M0 4200 L6600 4200 L6600 6.66134e-14 L0 6.66134e-14  Z" fill="#ffffff" fill-rule="evenodd" fill-opacity="1"/>
<defs>
  <clipPath id="clip641">
    <rect x="1320" y="0" width="4621" height="4200"/>
  </clipPath>
</defs>
<path clip-path="url(#clip640)" d="M259.706 4000.91 L6552.76 4000.91 L6552.76 120.723 L259.706 120.723  Z" fill="#ffffff" fill-rule="evenodd" fill-opacity="1"/>
<defs>
  <clipPath id="clip642">
    <rect x="259" y="120" width="6294" height="3881"/>
  </clipPath>
</defs>
<polyline clip-path="url(#clip642)" style="stroke:#000000; stroke-linecap:round; stroke-linejoin:round; stroke-width:2; stroke-opacity:0.1; fill:none" points="1097.46,4000.91 1097.46,120.723 "/>
<polyline clip-path="url(#clip642)" style="stroke:#000000; stroke-linecap:round; stroke-linejoin:round; stroke-width:2; stroke-opacity:0.1; fill:none" points="2416.76,4000.91 2416.76,120.723 "/>
<polyline clip-path="url(#clip642)" style="stroke:#000000; stroke-linecap:round; stroke-linejoin:round; stroke-width:2; stroke-opacity:0.1; fill:none" points="3736.06,4000.91 3736.06,120.723 "/>
<polyline clip-path="url(#clip642)" style="stroke:#000000; stroke-linecap:round; stroke-linejoin:round; stroke-width:2; stroke-opacity:0.1; fill:none" points="5055.35,4000.91 5055.35,120.723 "/>
<polyline clip-path="url(#clip642)" style="stroke:#000000; stroke-linecap:round; stroke-linejoin:round; stroke-width:2; stroke-opacity:0.1; fill:none" points="6374.65,4000.91 6374.65,120.723 "/>
<polyline clip-path="url(#clip642)" style="stroke:#000000; stroke-linecap:round; stroke-linejoin:round; stroke-width:2; stroke-opacity:0.1; fill:none" points="259.706,3381.85 6552.76,3381.85 "/>
<polyline clip-path="url(#clip642)" style="stroke:#000000; stroke-linecap:round; stroke-linejoin:round; stroke-width:2; stroke-opacity:0.1; fill:none" points="259.706,2520.36 6552.76,2520.36 "/>
<polyline clip-path="url(#clip642)" style="stroke:#000000; stroke-linecap:round; stroke-linejoin:round; stroke-width:2; stroke-opacity:0.1; fill:none" points="259.706,1658.86 6552.76,1658.86 "/>
<polyline clip-path="url(#clip642)" style="stroke:#000000; stroke-linecap:round; stroke-linejoin:round; stroke-width:2; stroke-opacity:0.1; fill:none" points="259.706,797.359 6552.76,797.359 "/>
<polyline clip-path="url(#clip640)" style="stroke:#000000; stroke-linecap:round; stroke-linejoin:round; stroke-width:4; stroke-opacity:1; fill:none" points="259.706,4000.91 6552.76,4000.91 "/>
<polyline clip-path="url(#clip640)" style="stroke:#000000; stroke-linecap:round; stroke-linejoin:round; stroke-width:4; stroke-opacity:1; fill:none" points="1097.46,4000.91 1097.46,3982.01 "/>
<polyline clip-path="url(#clip640)" style="stroke:#000000; stroke-linecap:round; stroke-linejoin:round; stroke-width:4; stroke-opacity:1; fill:none" points="2416.76,4000.91 2416.76,3982.01 "/>
<polyline clip-path="url(#clip640)" style="stroke:#000000; stroke-linecap:round; stroke-linejoin:round; stroke-width:4; stroke-opacity:1; fill:none" points="3736.06,4000.91 3736.06,3982.01 "/>
<polyline clip-path="url(#clip640)" style="stroke:#000000; stroke-linecap:round; stroke-linejoin:round; stroke-width:4; stroke-opacity:1; fill:none" points="5055.35,4000.91 5055.35,3982.01 "/>
<polyline clip-path="url(#clip640)" style="stroke:#000000; stroke-linecap:round; stroke-linejoin:round; stroke-width:4; stroke-opacity:1; fill:none" points="6374.65,4000.91 6374.65,3982.01 "/>
<path clip-path="url(#clip640)" d="M1092.11 4092.98 L1108.43 4092.98 L1108.43 4096.91 L1086.49 4096.91 L1086.49 4092.98 Q1089.15 4090.22 1093.73 4085.59 Q1098.34 4080.94 1099.52 4079.6 Q1101.77 4077.07 1102.65 4075.34 Q1103.55 4073.58 1103.55 4071.89 Q1103.55 4069.13 1101.6 4067.4 Q1099.68 4065.66 1096.58 4065.66 Q1094.38 4065.66 1091.93 4066.42 Q1089.5 4067.19 1086.72 4068.74 L1086.72 4064.02 Q1089.54 4062.88 1092 4062.3 Q1094.45 4061.73 1096.49 4061.73 Q1101.86 4061.73 1105.05 4064.41 Q1108.25 4067.1 1108.25 4071.59 Q1108.25 4073.72 1107.44 4075.64 Q1106.65 4077.54 1104.54 4080.13 Q1103.96 4080.8 1100.86 4084.02 Q1097.76 4087.21 1092.11 4092.98 Z" fill="#000000" fill-rule="nonzero" fill-opacity="1" /><path clip-path="url(#clip640)" d="M2419.77 4066.42 L2407.96 4084.87 L2419.77 4084.87 L2419.77 4066.42 M2418.54 4062.35 L2424.42 4062.35 L2424.42 4084.87 L2429.35 4084.87 L2429.35 4088.76 L2424.42 4088.76 L2424.42 4096.91 L2419.77 4096.91 L2419.77 4088.76 L2404.17 4088.76 L2404.17 4084.25 L2418.54 4062.35 Z" fill="#000000" fill-rule="nonzero" fill-opacity="1" /><path clip-path="url(#clip640)" d="M3736.46 4077.77 Q3733.31 4077.77 3731.46 4079.92 Q3729.63 4082.07 3729.63 4085.82 Q3729.63 4089.55 3731.46 4091.73 Q3733.31 4093.88 3736.46 4093.88 Q3739.61 4093.88 3741.44 4091.73 Q3743.29 4089.55 3743.29 4085.82 Q3743.29 4082.07 3741.44 4079.92 Q3739.61 4077.77 3736.46 4077.77 M3745.74 4063.11 L3745.74 4067.37 Q3743.98 4066.54 3742.18 4066.1 Q3740.4 4065.66 3738.64 4065.66 Q3734.01 4065.66 3731.55 4068.79 Q3729.12 4071.91 3728.78 4078.23 Q3730.14 4076.22 3732.2 4075.15 Q3734.26 4074.06 3736.74 4074.06 Q3741.95 4074.06 3744.96 4077.23 Q3747.99 4080.38 3747.99 4085.82 Q3747.99 4091.15 3744.84 4094.36 Q3741.69 4097.58 3736.46 4097.58 Q3730.47 4097.58 3727.29 4093 Q3724.12 4088.39 3724.12 4079.67 Q3724.12 4071.47 3728.01 4066.61 Q3731.9 4061.73 3738.45 4061.73 Q3740.21 4061.73 3741.99 4062.07 Q3743.8 4062.42 3745.74 4063.11 Z" fill="#000000" fill-rule="nonzero" fill-opacity="1" /><path clip-path="url(#clip640)" d="M5055.35 4080.5 Q5052.02 4080.5 5050.1 4082.28 Q5048.2 4084.06 5048.2 4087.19 Q5048.2 4090.31 5050.1 4092.1 Q5052.02 4093.88 5055.35 4093.88 Q5058.69 4093.88 5060.61 4092.1 Q5062.53 4090.29 5062.53 4087.19 Q5062.53 4084.06 5060.61 4082.28 Q5058.71 4080.5 5055.35 4080.5 M5050.68 4078.51 Q5047.67 4077.77 5045.98 4075.71 Q5044.31 4073.65 5044.31 4070.68 Q5044.31 4066.54 5047.25 4064.13 Q5050.21 4061.73 5055.35 4061.73 Q5060.52 4061.73 5063.45 4064.13 Q5066.39 4066.54 5066.39 4070.68 Q5066.39 4073.65 5064.7 4075.71 Q5063.04 4077.77 5060.05 4078.51 Q5063.43 4079.3 5065.31 4081.59 Q5067.2 4083.88 5067.2 4087.19 Q5067.2 4092.21 5064.13 4094.9 Q5061.07 4097.58 5055.35 4097.58 Q5049.64 4097.58 5046.56 4094.9 Q5043.5 4092.21 5043.5 4087.19 Q5043.5 4083.88 5045.4 4081.59 Q5047.3 4079.3 5050.68 4078.51 M5048.96 4071.12 Q5048.96 4073.81 5050.63 4075.31 Q5052.32 4076.82 5055.35 4076.82 Q5058.36 4076.82 5060.05 4075.31 Q5061.77 4073.81 5061.77 4071.12 Q5061.77 4068.44 5060.05 4066.93 Q5058.36 4065.43 5055.35 4065.43 Q5052.32 4065.43 5050.63 4066.93 Q5048.96 4068.44 5048.96 4071.12 Z" fill="#000000" fill-rule="nonzero" fill-opacity="1" /><path clip-path="url(#clip640)" d="M6349.34 4092.98 L6356.98 4092.98 L6356.98 4066.61 L6348.67 4068.28 L6348.67 4064.02 L6356.93 4062.35 L6361.61 4062.35 L6361.61 4092.98 L6369.25 4092.98 L6369.25 4096.91 L6349.34 4096.91 L6349.34 4092.98 Z" fill="#000000" fill-rule="nonzero" fill-opacity="1" /><path clip-path="url(#clip640)" d="M6388.69 4065.43 Q6385.08 4065.43 6383.25 4068.99 Q6381.44 4072.54 6381.44 4079.67 Q6381.44 4086.77 6383.25 4090.34 Q6385.08 4093.88 6388.69 4093.88 Q6392.32 4093.88 6394.13 4090.34 Q6395.96 4086.77 6395.96 4079.67 Q6395.96 4072.54 6394.13 4068.99 Q6392.32 4065.43 6388.69 4065.43 M6388.69 4061.73 Q6394.5 4061.73 6397.56 4066.33 Q6400.63 4070.92 6400.63 4079.67 Q6400.63 4088.39 6397.56 4093 Q6394.5 4097.58 6388.69 4097.58 Q6382.88 4097.58 6379.8 4093 Q6376.75 4088.39 6376.75 4079.67 Q6376.75 4070.92 6379.8 4066.33 Q6382.88 4061.73 6388.69 4061.73 Z" fill="#000000" fill-rule="nonzero" fill-opacity="1" /><path clip-path="url(#clip640)" d="M3347.71 4173.13 L3334.82 4190.47 L3348.38 4208.77 L3341.48 4208.77 L3331.1 4194.77 L3320.72 4208.77 L3313.82 4208.77 L3327.66 4190.12 L3314.99 4173.13 L3321.9 4173.13 L3331.35 4185.83 L3340.81 4173.13 L3347.71 4173.13 Z" fill="#000000" fill-rule="nonzero" fill-opacity="1" /><path clip-path="url(#clip640)" d="M3393.58 4190.86 Q3386.48 4190.86 3383.74 4192.48 Q3381.01 4194.1 3381.01 4198.02 Q3381.01 4201.14 3383.04 4202.98 Q3385.11 4204.8 3388.65 4204.8 Q3393.52 4204.8 3396.44 4201.36 Q3399.4 4197.89 3399.4 4192.16 L3399.4 4190.86 L3393.58 4190.86 M3405.26 4188.44 L3405.26 4208.77 L3399.4 4208.77 L3399.4 4203.36 Q3397.4 4206.61 3394.41 4208.17 Q3391.41 4209.7 3387.09 4209.7 Q3381.61 4209.7 3378.37 4206.64 Q3375.15 4203.55 3375.15 4198.4 Q3375.15 4192.38 3379.16 4189.33 Q3383.2 4186.27 3391.19 4186.27 L3399.4 4186.27 L3399.4 4185.7 Q3399.4 4181.66 3396.73 4179.46 Q3394.09 4177.23 3389.28 4177.23 Q3386.23 4177.23 3383.33 4177.96 Q3380.43 4178.7 3377.76 4180.16 L3377.76 4174.75 Q3380.98 4173.51 3384 4172.9 Q3387.02 4172.27 3389.89 4172.27 Q3397.62 4172.27 3401.44 4176.28 Q3405.26 4180.29 3405.26 4188.44 Z" fill="#000000" fill-rule="nonzero" fill-opacity="1" /><path clip-path="url(#clip640)" d="M3446.96 4173.13 L3434.07 4190.47 L3447.62 4208.77 L3440.72 4208.77 L3430.34 4194.77 L3419.97 4208.77 L3413.06 4208.77 L3426.9 4190.12 L3414.24 4173.13 L3421.14 4173.13 L3430.6 4185.83 L3440.05 4173.13 L3446.96 4173.13 Z" fill="#000000" fill-rule="nonzero" fill-opacity="1" /><path clip-path="url(#clip640)" d="M3455.9 4173.13 L3461.76 4173.13 L3461.76 4208.77 L3455.9 4208.77 L3455.9 4173.13 M3455.9 4159.25 L3461.76 4159.25 L3461.76 4166.67 L3455.9 4166.67 L3455.9 4159.25 Z" fill="#000000" fill-rule="nonzero" fill-opacity="1" /><path clip-path="url(#clip640)" d="M3496.74 4174.18 L3496.74 4179.72 Q3494.25 4178.44 3491.58 4177.81 Q3488.91 4177.17 3486.04 4177.17 Q3481.68 4177.17 3479.48 4178.51 Q3477.32 4179.84 3477.32 4182.52 Q3477.32 4184.55 3478.88 4185.73 Q3480.44 4186.88 3485.15 4187.93 L3487.16 4188.37 Q3493.39 4189.71 3496 4192.16 Q3498.65 4194.58 3498.65 4198.94 Q3498.65 4203.9 3494.7 4206.8 Q3490.78 4209.7 3483.91 4209.7 Q3481.04 4209.7 3477.92 4209.12 Q3474.84 4208.58 3471.4 4207.47 L3471.4 4201.42 Q3474.65 4203.11 3477.8 4203.97 Q3480.95 4204.8 3484.04 4204.8 Q3488.17 4204.8 3490.4 4203.4 Q3492.63 4201.96 3492.63 4199.39 Q3492.63 4197 3491.01 4195.73 Q3489.41 4194.45 3483.97 4193.27 L3481.94 4192.8 Q3476.49 4191.65 3474.07 4189.3 Q3471.65 4186.91 3471.65 4182.77 Q3471.65 4177.74 3475.22 4175 Q3478.78 4172.27 3485.34 4172.27 Q3488.59 4172.27 3491.45 4172.74 Q3494.32 4173.22 3496.74 4174.18 Z" fill="#000000" fill-rule="nonzero" fill-opacity="1" /><polyline clip-path="url(#clip640)" style="stroke:#000000; stroke-linecap:round; stroke-linejoin:round; stroke-width:4; stroke-opacity:1; fill:none" points="259.706,4000.91 259.706,120.723 "/>
<polyline clip-path="url(#clip640)" style="stroke:#000000; stroke-linecap:round; stroke-linejoin:round; stroke-width:4; stroke-opacity:1; fill:none" points="259.706,3381.85 278.604,3381.85 "/>
<polyline clip-path="url(#clip640)" style="stroke:#000000; stroke-linecap:round; stroke-linejoin:round; stroke-width:4; stroke-opacity:1; fill:none" points="259.706,2520.36 278.604,2520.36 "/>
<polyline clip-path="url(#clip640)" style="stroke:#000000; stroke-linecap:round; stroke-linejoin:round; stroke-width:4; stroke-opacity:1; fill:none" points="259.706,1658.86 278.604,1658.86 "/>
<polyline clip-path="url(#clip640)" style="stroke:#000000; stroke-linecap:round; stroke-linejoin:round; stroke-width:4; stroke-opacity:1; fill:none" points="259.706,797.359 278.604,797.359 "/>
<path clip-path="url(#clip640)" d="M105.128 3367.65 Q101.517 3367.65 99.6881 3371.22 Q97.8825 3374.76 97.8825 3381.89 Q97.8825 3389 99.6881 3392.56 Q101.517 3396.1 105.128 3396.1 Q108.762 3396.1 110.568 3392.56 Q112.396 3389 112.396 3381.89 Q112.396 3374.76 110.568 3371.22 Q108.762 3367.65 105.128 3367.65 M105.128 3363.95 Q110.938 3363.95 113.994 3368.56 Q117.072 3373.14 117.072 3381.89 Q117.072 3390.62 113.994 3395.22 Q110.938 3399.81 105.128 3399.81 Q99.3177 3399.81 96.239 3395.22 Q93.1835 3390.62 93.1835 3381.89 Q93.1835 3373.14 96.239 3368.56 Q99.3177 3363.95 105.128 3363.95 Z" fill="#000000" fill-rule="nonzero" fill-opacity="1" /><path clip-path="url(#clip640)" d="M125.29 3393.25 L130.174 3393.25 L130.174 3399.13 L125.29 3399.13 L125.29 3393.25 Z" fill="#000000" fill-rule="nonzero" fill-opacity="1" /><path clip-path="url(#clip640)" d="M144.387 3395.2 L160.706 3395.2 L160.706 3399.13 L138.762 3399.13 L138.762 3395.2 Q141.424 3392.44 146.007 3387.81 Q150.614 3383.16 151.794 3381.82 Q154.04 3379.3 154.919 3377.56 Q155.822 3375.8 155.822 3374.11 Q155.822 3371.36 153.878 3369.62 Q151.956 3367.88 148.854 3367.88 Q146.655 3367.88 144.202 3368.65 Q141.771 3369.41 138.993 3370.96 L138.993 3366.24 Q141.817 3365.11 144.271 3364.53 Q146.725 3363.95 148.762 3363.95 Q154.132 3363.95 157.327 3366.63 Q160.521 3369.32 160.521 3373.81 Q160.521 3375.94 159.711 3377.86 Q158.924 3379.76 156.817 3382.35 Q156.239 3383.02 153.137 3386.24 Q150.035 3389.44 144.387 3395.2 Z" fill="#000000" fill-rule="nonzero" fill-opacity="1" /><path clip-path="url(#clip640)" d="M103.045 2506.15 Q99.4334 2506.15 97.6048 2509.72 Q95.7992 2513.26 95.7992 2520.39 Q95.7992 2527.5 97.6048 2531.06 Q99.4334 2534.6 103.045 2534.6 Q106.679 2534.6 108.484 2531.06 Q110.313 2527.5 110.313 2520.39 Q110.313 2513.26 108.484 2509.72 Q106.679 2506.15 103.045 2506.15 M103.045 2502.45 Q108.855 2502.45 111.91 2507.06 Q114.989 2511.64 114.989 2520.39 Q114.989 2529.12 111.91 2533.72 Q108.855 2538.31 103.045 2538.31 Q97.2344 2538.31 94.1557 2533.72 Q91.1002 2529.12 91.1002 2520.39 Q91.1002 2511.64 94.1557 2507.06 Q97.2344 2502.45 103.045 2502.45 Z" fill="#000000" fill-rule="nonzero" fill-opacity="1" /><path clip-path="url(#clip640)" d="M123.206 2531.76 L128.091 2531.76 L128.091 2537.64 L123.206 2537.64 L123.206 2531.76 Z" fill="#000000" fill-rule="nonzero" fill-opacity="1" /><path clip-path="url(#clip640)" d="M151.123 2507.15 L139.317 2525.6 L151.123 2525.6 L151.123 2507.15 M149.896 2503.08 L155.776 2503.08 L155.776 2525.6 L160.706 2525.6 L160.706 2529.49 L155.776 2529.49 L155.776 2537.64 L151.123 2537.64 L151.123 2529.49 L135.521 2529.49 L135.521 2524.97 L149.896 2503.08 Z" fill="#000000" fill-rule="nonzero" fill-opacity="1" /><path clip-path="url(#clip640)" d="M103.369 1644.66 Q99.7575 1644.66 97.9288 1648.22 Q96.1233 1651.76 96.1233 1658.89 Q96.1233 1666 97.9288 1669.56 Q99.7575 1673.1 103.369 1673.1 Q107.003 1673.1 108.808 1669.56 Q110.637 1666 110.637 1658.89 Q110.637 1651.76 108.808 1648.22 Q107.003 1644.66 103.369 1644.66 M103.369 1640.95 Q109.179 1640.95 112.234 1645.56 Q115.313 1650.14 115.313 1658.89 Q115.313 1667.62 112.234 1672.23 Q109.179 1676.81 103.369 1676.81 Q97.5585 1676.81 94.4798 1672.23 Q91.4242 1667.62 91.4242 1658.89 Q91.4242 1650.14 94.4798 1645.56 Q97.5585 1640.95 103.369 1640.95 Z" fill="#000000" fill-rule="nonzero" fill-opacity="1" /><path clip-path="url(#clip640)" d="M123.531 1670.26 L128.415 1670.26 L128.415 1676.14 L123.531 1676.14 L123.531 1670.26 Z" fill="#000000" fill-rule="nonzero" fill-opacity="1" /><path clip-path="url(#clip640)" d="M149.179 1656.99 Q146.03 1656.99 144.179 1659.15 Q142.35 1661.3 142.35 1665.05 Q142.35 1668.78 144.179 1670.95 Q146.03 1673.1 149.179 1673.1 Q152.327 1673.1 154.155 1670.95 Q156.007 1668.78 156.007 1665.05 Q156.007 1661.3 154.155 1659.15 Q152.327 1656.99 149.179 1656.99 M158.461 1642.34 L158.461 1646.6 Q156.702 1645.77 154.896 1645.33 Q153.114 1644.89 151.354 1644.89 Q146.725 1644.89 144.271 1648.01 Q141.841 1651.14 141.493 1657.46 Q142.859 1655.44 144.919 1654.38 Q146.979 1653.29 149.456 1653.29 Q154.665 1653.29 157.674 1656.46 Q160.706 1659.61 160.706 1665.05 Q160.706 1670.37 157.558 1673.59 Q154.41 1676.81 149.179 1676.81 Q143.183 1676.81 140.012 1672.23 Q136.841 1667.62 136.841 1658.89 Q136.841 1650.7 140.73 1645.84 Q144.618 1640.95 151.169 1640.95 Q152.929 1640.95 154.711 1641.3 Q156.516 1641.65 158.461 1642.34 Z" fill="#000000" fill-rule="nonzero" fill-opacity="1" /><path clip-path="url(#clip640)" d="M103.623 783.157 Q100.012 783.157 98.1835 786.722 Q96.3779 790.264 96.3779 797.393 Q96.3779 804.5 98.1835 808.065 Q100.012 811.606 103.623 811.606 Q107.257 811.606 109.063 808.065 Q110.892 804.5 110.892 797.393 Q110.892 790.264 109.063 786.722 Q107.257 783.157 103.623 783.157 M103.623 779.454 Q109.433 779.454 112.489 784.06 Q115.568 788.643 115.568 797.393 Q115.568 806.12 112.489 810.727 Q109.433 815.31 103.623 815.31 Q97.8131 815.31 94.7344 810.727 Q91.6789 806.12 91.6789 797.393 Q91.6789 788.643 94.7344 784.06 Q97.8131 779.454 103.623 779.454 Z" fill="#000000" fill-rule="nonzero" fill-opacity="1" /><path clip-path="url(#clip640)" d="M123.785 808.759 L128.669 808.759 L128.669 814.639 L123.785 814.639 L123.785 808.759 Z" fill="#000000" fill-rule="nonzero" fill-opacity="1" /><path clip-path="url(#clip640)" d="M148.854 798.227 Q145.521 798.227 143.6 800.009 Q141.702 801.791 141.702 804.916 Q141.702 808.041 143.6 809.824 Q145.521 811.606 148.854 811.606 Q152.188 811.606 154.109 809.824 Q156.03 808.018 156.03 804.916 Q156.03 801.791 154.109 800.009 Q152.211 798.227 148.854 798.227 M144.179 796.236 Q141.169 795.495 139.48 793.435 Q137.813 791.375 137.813 788.412 Q137.813 784.268 140.753 781.861 Q143.716 779.454 148.854 779.454 Q154.016 779.454 156.956 781.861 Q159.896 784.268 159.896 788.412 Q159.896 791.375 158.206 793.435 Q156.54 795.495 153.554 796.236 Q156.933 797.023 158.808 799.315 Q160.706 801.606 160.706 804.916 Q160.706 809.94 157.628 812.625 Q154.572 815.31 148.854 815.31 Q143.137 815.31 140.058 812.625 Q137.003 809.94 137.003 804.916 Q137.003 801.606 138.901 799.315 Q140.799 797.023 144.179 796.236 M142.466 788.852 Q142.466 791.537 144.132 793.042 Q145.822 794.546 148.854 794.546 Q151.864 794.546 153.554 793.042 Q155.266 791.537 155.266 788.852 Q155.266 786.167 153.554 784.662 Q151.864 783.157 148.854 783.157 Q145.822 783.157 144.132 784.662 Q142.466 786.167 142.466 788.852 Z" fill="#000000" fill-rule="nonzero" fill-opacity="1" /><path clip-path="url(#clip640)" d="M-18.8457 2134.17 Q-12.48 2136.65 -10.5384 2139 Q-8.59689 2141.36 -8.59689 2145.31 L-8.59689 2149.98 L-13.4985 2149.98 L-13.4985 2146.55 Q-13.4985 2144.13 -14.6443 2142.79 Q-15.7901 2141.45 -20.0552 2139.83 L-22.7288 2138.78 L-57.8038 2153.2 L-57.8038 2146.99 L-29.922 2135.85 L-57.8038 2124.71 L-57.8038 2118.51 L-18.8457 2134.17 Z" fill="#000000" fill-rule="nonzero" fill-opacity="1" /><path clip-path="url(#clip640)" d="M-40.0753 2073.5 Q-40.0753 2080.6 -38.4521 2083.34 Q-36.8288 2086.07 -32.9139 2086.07 Q-29.7947 2086.07 -27.9486 2084.04 Q-26.1344 2081.97 -26.1344 2078.43 Q-26.1344 2073.56 -29.5719 2070.64 Q-33.0412 2067.68 -38.7703 2067.68 L-40.0753 2067.68 L-40.0753 2073.5 M-42.4943 2061.82 L-22.1558 2061.82 L-22.1558 2067.68 L-27.5667 2067.68 Q-24.3202 2069.68 -22.7606 2072.67 Q-21.2328 2075.66 -21.2328 2079.99 Q-21.2328 2085.47 -24.2884 2088.71 Q-27.3757 2091.93 -32.5319 2091.93 Q-38.5475 2091.93 -41.6031 2087.92 Q-44.6586 2083.88 -44.6586 2075.89 L-44.6586 2067.68 L-45.2315 2067.68 Q-49.2738 2067.68 -51.4699 2070.35 Q-53.6979 2072.99 -53.6979 2077.8 Q-53.6979 2080.85 -52.9659 2083.75 Q-52.2338 2086.65 -50.7697 2089.32 L-56.1805 2089.32 Q-57.4219 2086.1 -58.0266 2083.08 Q-58.6632 2080.06 -58.6632 2077.19 Q-58.6632 2069.46 -54.6528 2065.64 Q-50.6424 2061.82 -42.4943 2061.82 Z" fill="#000000" fill-rule="nonzero" fill-opacity="1" /><path clip-path="url(#clip640)" d="M-57.8038 2020.12 L-40.4572 2033.01 L-22.1558 2019.46 L-22.1558 2026.36 L-36.1604 2036.74 L-22.1558 2047.11 L-22.1558 2054.02 L-40.8074 2040.18 L-57.8038 2052.84 L-57.8038 2045.94 L-45.1042 2036.48 L-57.8038 2027.03 L-57.8038 2020.12 Z" fill="#000000" fill-rule="nonzero" fill-opacity="1" /><path clip-path="url(#clip640)" d="M-57.8038 2011.18 L-57.8038 2005.32 L-22.1558 2005.32 L-22.1558 2011.18 L-57.8038 2011.18 M-71.681 2011.18 L-71.681 2005.32 L-64.265 2005.32 L-64.265 2011.18 L-71.681 2011.18 Z" fill="#000000" fill-rule="nonzero" fill-opacity="1" /><path clip-path="url(#clip640)" d="M-56.7535 1970.34 L-51.2153 1970.34 Q-52.4884 1972.83 -53.125 1975.5 Q-53.7616 1978.17 -53.7616 1981.04 Q-53.7616 1985.4 -52.4248 1987.6 Q-51.088 1989.76 -48.4144 1989.76 Q-46.3774 1989.76 -45.1997 1988.2 Q-44.0539 1986.64 -43.0035 1981.93 L-42.5579 1979.92 Q-41.2211 1973.69 -38.7703 1971.08 Q-36.3514 1968.43 -31.9909 1968.43 Q-27.0256 1968.43 -24.1292 1972.38 Q-21.2328 1976.3 -21.2328 1983.17 Q-21.2328 1986.04 -21.8057 1989.15 Q-22.3468 1992.24 -23.4608 1995.68 L-29.5082 1995.68 Q-27.8213 1992.43 -26.962 1989.28 Q-26.1344 1986.13 -26.1344 1983.04 Q-26.1344 1978.91 -27.5349 1976.68 Q-28.9671 1974.45 -31.5453 1974.45 Q-33.9324 1974.45 -35.2055 1976.07 Q-36.4787 1977.66 -37.6563 1983.11 L-38.1338 1985.14 Q-39.2796 1990.59 -41.6349 1993.01 Q-44.022 1995.43 -48.1598 1995.43 Q-53.1887 1995.43 -55.9259 1991.86 Q-58.6632 1988.3 -58.6632 1981.74 Q-58.6632 1978.49 -58.1857 1975.63 Q-57.7083 1972.76 -56.7535 1970.34 Z" fill="#000000" fill-rule="nonzero" fill-opacity="1" /><path clip-path="url(#clip640)" d="M3116.25 14.0809 L3116.25 22.0612 Q3111.59 19.8332 3107.46 18.7395 Q3103.32 17.6457 3099.48 17.6457 Q3092.79 17.6457 3089.15 20.2383 Q3085.54 22.8309 3085.54 27.611 Q3085.54 31.6214 3087.93 33.6873 Q3090.36 35.7128 3097.09 36.9686 L3102.03 37.9813 Q3111.18 39.7232 3115.52 44.1387 Q3119.89 48.5136 3119.89 55.8863 Q3119.89 64.6767 3113.98 69.2137 Q3108.1 73.7508 3096.72 73.7508 Q3092.43 73.7508 3087.57 72.7785 Q3082.75 71.8063 3077.56 69.9024 L3077.56 61.4765 Q3082.54 64.2716 3087.32 65.6895 Q3092.1 67.1073 3096.72 67.1073 Q3103.73 67.1073 3107.54 64.3527 Q3111.35 61.598 3111.35 56.4939 Q3111.35 52.0379 3108.59 49.5264 Q3105.88 47.0148 3099.64 45.759 L3094.66 44.7868 Q3085.5 42.9639 3081.41 39.075 Q3077.32 35.1862 3077.32 28.2591 Q3077.32 20.2383 3082.95 15.6203 Q3088.62 11.0023 3098.54 11.0023 Q3102.8 11.0023 3107.21 11.7719 Q3111.63 12.5416 3116.25 14.0809 Z" fill="#000000" fill-rule="nonzero" fill-opacity="1" /><path clip-path="url(#clip640)" d="M3132.33 27.2059 L3139.78 27.2059 L3139.78 72.576 L3132.33 72.576 L3132.33 27.2059 M3132.33 9.54393 L3139.78 9.54393 L3139.78 18.9825 L3132.33 18.9825 L3132.33 9.54393 Z" fill="#000000" fill-rule="nonzero" fill-opacity="1" /><path clip-path="url(#clip640)" d="M3190.7 35.9153 Q3193.5 30.8922 3197.39 28.5022 Q3201.28 26.1121 3206.54 26.1121 Q3213.63 26.1121 3217.48 31.0947 Q3221.33 36.0368 3221.33 45.1919 L3221.33 72.576 L3213.83 72.576 L3213.83 45.4349 Q3213.83 38.913 3211.52 35.7533 Q3209.22 32.5936 3204.48 32.5936 Q3198.68 32.5936 3195.32 36.4419 Q3191.96 40.2903 3191.96 46.9338 L3191.96 72.576 L3184.46 72.576 L3184.46 45.4349 Q3184.46 38.8725 3182.16 35.7533 Q3179.85 32.5936 3175.03 32.5936 Q3169.31 32.5936 3165.95 36.4824 Q3162.59 40.3308 3162.59 46.9338 L3162.59 72.576 L3155.1 72.576 L3155.1 27.2059 L3162.59 27.2059 L3162.59 34.2544 Q3165.14 30.082 3168.71 28.0971 Q3172.27 26.1121 3177.17 26.1121 Q3182.11 26.1121 3185.56 28.6237 Q3189.04 31.1352 3190.7 35.9153 Z" fill="#000000" fill-rule="nonzero" fill-opacity="1" /><path clip-path="url(#clip640)" d="M3243.4 65.7705 L3243.4 89.8329 L3235.91 89.8329 L3235.91 27.2059 L3243.4 27.2059 L3243.4 34.0924 Q3245.75 30.0415 3249.32 28.0971 Q3252.92 26.1121 3257.91 26.1121 Q3266.17 26.1121 3271.32 32.6746 Q3276.5 39.2371 3276.5 49.9314 Q3276.5 60.6258 3271.32 67.1883 Q3266.17 73.7508 3257.91 73.7508 Q3252.92 73.7508 3249.32 71.8063 Q3245.75 69.8214 3243.4 65.7705 M3268.76 49.9314 Q3268.76 41.7081 3265.36 37.0496 Q3262 32.3505 3256.08 32.3505 Q3250.17 32.3505 3246.77 37.0496 Q3243.4 41.7081 3243.4 49.9314 Q3243.4 58.1548 3246.77 62.8538 Q3250.17 67.5124 3256.08 67.5124 Q3262 67.5124 3265.36 62.8538 Q3268.76 58.1548 3268.76 49.9314 Z" fill="#000000" fill-rule="nonzero" fill-opacity="1" /><path clip-path="url(#clip640)" d="M3288.86 9.54393 L3296.31 9.54393 L3296.31 72.576 L3288.86 72.576 L3288.86 9.54393 Z" fill="#000000" fill-rule="nonzero" fill-opacity="1" /><path clip-path="url(#clip640)" d="M3350.71 48.0275 L3350.71 51.6733 L3316.44 51.6733 Q3316.93 59.3701 3321.06 63.421 Q3325.23 67.4314 3332.65 67.4314 Q3336.94 67.4314 3340.95 66.3781 Q3345 65.3249 3348.97 63.2184 L3348.97 70.267 Q3344.96 71.9684 3340.75 72.8596 Q3336.54 73.7508 3332.2 73.7508 Q3321.34 73.7508 3314.98 67.4314 Q3308.67 61.1119 3308.67 50.3365 Q3308.67 39.1965 3314.66 32.6746 Q3320.7 26.1121 3330.9 26.1121 Q3340.06 26.1121 3345.37 32.0264 Q3350.71 37.9003 3350.71 48.0275 M3343.26 45.84 Q3343.18 39.7232 3339.82 36.0774 Q3336.49 32.4315 3330.99 32.4315 Q3324.75 32.4315 3320.98 35.9558 Q3317.25 39.4801 3316.69 45.8805 L3343.26 45.84 Z" fill="#000000" fill-rule="nonzero" fill-opacity="1" /><path clip-path="url(#clip640)" d="M3389.64 12.096 L3397.83 12.096 L3397.83 65.6895 L3427.28 65.6895 L3427.28 72.576 L3389.64 72.576 L3389.64 12.096 Z" fill="#000000" fill-rule="nonzero" fill-opacity="1" /><path clip-path="url(#clip640)" d="M3435.54 27.2059 L3442.99 27.2059 L3442.99 72.576 L3435.54 72.576 L3435.54 27.2059 M3435.54 9.54393 L3442.99 9.54393 L3442.99 18.9825 L3435.54 18.9825 L3435.54 9.54393 Z" fill="#000000" fill-rule="nonzero" fill-opacity="1" /><path clip-path="url(#clip640)" d="M3496.3 45.1919 L3496.3 72.576 L3488.85 72.576 L3488.85 45.4349 Q3488.85 38.994 3486.34 35.7938 Q3483.83 32.5936 3478.8 32.5936 Q3472.77 32.5936 3469.28 36.4419 Q3465.8 40.2903 3465.8 46.9338 L3465.8 72.576 L3458.31 72.576 L3458.31 27.2059 L3465.8 27.2059 L3465.8 34.2544 Q3468.47 30.163 3472.08 28.1376 Q3475.72 26.1121 3480.46 26.1121 Q3488.28 26.1121 3492.29 30.9732 Q3496.3 35.7938 3496.3 45.1919 Z" fill="#000000" fill-rule="nonzero" fill-opacity="1" /><path clip-path="url(#clip640)" d="M3549.98 48.0275 L3549.98 51.6733 L3515.71 51.6733 Q3516.19 59.3701 3520.32 63.421 Q3524.5 67.4314 3531.91 67.4314 Q3536.2 67.4314 3540.21 66.3781 Q3544.27 65.3249 3548.24 63.2184 L3548.24 70.267 Q3544.23 71.9684 3540.01 72.8596 Q3535.8 73.7508 3531.46 73.7508 Q3520.61 73.7508 3514.25 67.4314 Q3507.93 61.1119 3507.93 50.3365 Q3507.93 39.1965 3513.92 32.6746 Q3519.96 26.1121 3530.17 26.1121 Q3539.32 26.1121 3544.63 32.0264 Q3549.98 37.9003 3549.98 48.0275 M3542.52 45.84 Q3542.44 39.7232 3539.08 36.0774 Q3535.76 32.4315 3530.25 32.4315 Q3524.01 32.4315 3520.24 35.9558 Q3516.52 39.4801 3515.95 45.8805 L3542.52 45.84 Z" fill="#000000" fill-rule="nonzero" fill-opacity="1" /><path clip-path="url(#clip640)" d="M3597.09 18.8205 L3597.09 41.5461 L3607.38 41.5461 Q3613.09 41.5461 3616.21 38.5889 Q3619.33 35.6318 3619.33 30.163 Q3619.33 24.7348 3616.21 21.7777 Q3613.09 18.8205 3607.38 18.8205 L3597.09 18.8205 M3588.91 12.096 L3607.38 12.096 Q3617.55 12.096 3622.73 16.714 Q3627.96 21.2916 3627.96 30.163 Q3627.96 39.1155 3622.73 43.6931 Q3617.55 48.2706 3607.38 48.2706 L3597.09 48.2706 L3597.09 72.576 L3588.91 72.576 L3588.91 12.096 Z" fill="#000000" fill-rule="nonzero" fill-opacity="1" /><path clip-path="url(#clip640)" d="M3638.61 9.54393 L3646.06 9.54393 L3646.06 72.576 L3638.61 72.576 L3638.61 9.54393 Z" fill="#000000" fill-rule="nonzero" fill-opacity="1" /><path clip-path="url(#clip640)" d="M3679.24 32.4315 Q3673.25 32.4315 3669.76 37.1306 Q3666.28 41.7891 3666.28 49.9314 Q3666.28 58.0738 3669.72 62.7728 Q3673.21 67.4314 3679.24 67.4314 Q3685.2 67.4314 3688.68 62.7323 Q3692.16 58.0333 3692.16 49.9314 Q3692.16 41.8701 3688.68 37.1711 Q3685.2 32.4315 3679.24 32.4315 M3679.24 26.1121 Q3688.96 26.1121 3694.51 32.4315 Q3700.06 38.7509 3700.06 49.9314 Q3700.06 61.0714 3694.51 67.4314 Q3688.96 73.7508 3679.24 73.7508 Q3669.48 73.7508 3663.93 67.4314 Q3658.42 61.0714 3658.42 49.9314 Q3658.42 38.7509 3663.93 32.4315 Q3669.48 26.1121 3679.24 26.1121 Z" fill="#000000" fill-rule="nonzero" fill-opacity="1" /><path clip-path="url(#clip640)" d="M3719.79 14.324 L3719.79 27.2059 L3735.14 27.2059 L3735.14 32.9987 L3719.79 32.9987 L3719.79 57.6282 Q3719.79 63.1779 3721.29 64.7578 Q3722.83 66.3376 3727.49 66.3376 L3735.14 66.3376 L3735.14 72.576 L3727.49 72.576 Q3718.86 72.576 3715.58 69.3758 Q3712.3 66.1351 3712.3 57.6282 L3712.3 32.9987 L3706.83 32.9987 L3706.83 27.2059 L3712.3 27.2059 L3712.3 14.324 L3719.79 14.324 Z" fill="#000000" fill-rule="nonzero" fill-opacity="1" /><polyline clip-path="url(#clip642)" style="stroke:#009af9; stroke-linecap:round; stroke-linejoin:round; stroke-width:4; stroke-opacity:1; fill:none" points="437.811,1152.79 1097.46,3891.09 1757.11,1105.73 2416.76,1681.41 3076.41,230.54 3736.06,2855.66 4395.7,1460.43 5055.35,1974.96 5715,919.085 6374.65,620.515 "/>
</svg>
