<?xml version="1.0" encoding="utf-8"?>
<svg xmlns="http://www.w3.org/2000/svg" xmlns:xlink="http://www.w3.org/1999/xlink" width="528" height="336" viewBox="0 0 2112 1344">
<defs>
  <clipPath id="clip500">
    <rect x="0" y="0" width="2112" height="1344"/>
  </clipPath>
</defs>
<path clip-path="url(#clip500)" d="M0 1344 L2112 1344 L2112 2.13163e-14 L0 2.13163e-14  Z" fill="#ffffff" fill-rule="evenodd" fill-opacity="1"/>
<defs>
  <clipPath id="clip501">
    <rect x="422" y="0" width="1479" height="1344"/>
  </clipPath>
</defs>
<path clip-path="url(#clip500)" d="M244.502 1173.47 L2064.76 1173.47 L2064.76 120.723 L244.502 120.723  Z" fill="#ffffff" fill-rule="evenodd" fill-opacity="1"/>
<defs>
  <clipPath id="clip502">
    <rect x="244" y="120" width="1821" height="1054"/>
  </clipPath>
</defs>
<polyline clip-path="url(#clip502)" style="stroke:#000000; stroke-linecap:round; stroke-linejoin:round; stroke-width:2; stroke-opacity:0.1; fill:none" points="486.821,1173.47 486.821,120.723 "/>
<polyline clip-path="url(#clip502)" style="stroke:#000000; stroke-linecap:round; stroke-linejoin:round; stroke-width:2; stroke-opacity:0.1; fill:none" points="868.426,1173.47 868.426,120.723 "/>
<polyline clip-path="url(#clip502)" style="stroke:#000000; stroke-linecap:round; stroke-linejoin:round; stroke-width:2; stroke-opacity:0.1; fill:none" points="1250.03,1173.47 1250.03,120.723 "/>
<polyline clip-path="url(#clip502)" style="stroke:#000000; stroke-linecap:round; stroke-linejoin:round; stroke-width:2; stroke-opacity:0.1; fill:none" points="1631.63,1173.47 1631.63,120.723 "/>
<polyline clip-path="url(#clip502)" style="stroke:#000000; stroke-linecap:round; stroke-linejoin:round; stroke-width:2; stroke-opacity:0.1; fill:none" points="2013.24,1173.47 2013.24,120.723 "/>
<polyline clip-path="url(#clip502)" style="stroke:#000000; stroke-linecap:round; stroke-linejoin:round; stroke-width:2; stroke-opacity:0.1; fill:none" points="244.502,1150.47 2064.76,1150.47 "/>
<polyline clip-path="url(#clip502)" style="stroke:#000000; stroke-linecap:round; stroke-linejoin:round; stroke-width:2; stroke-opacity:0.1; fill:none" points="244.502,895.684 2064.76,895.684 "/>
<polyline clip-path="url(#clip502)" style="stroke:#000000; stroke-linecap:round; stroke-linejoin:round; stroke-width:2; stroke-opacity:0.1; fill:none" points="244.502,640.895 2064.76,640.895 "/>
<polyline clip-path="url(#clip502)" style="stroke:#000000; stroke-linecap:round; stroke-linejoin:round; stroke-width:2; stroke-opacity:0.1; fill:none" points="244.502,386.105 2064.76,386.105 "/>
<polyline clip-path="url(#clip502)" style="stroke:#000000; stroke-linecap:round; stroke-linejoin:round; stroke-width:2; stroke-opacity:0.1; fill:none" points="244.502,131.316 2064.76,131.316 "/>
<polyline clip-path="url(#clip500)" style="stroke:#000000; stroke-linecap:round; stroke-linejoin:round; stroke-width:4; stroke-opacity:1; fill:none" points="244.502,1173.47 2064.76,1173.47 "/>
<polyline clip-path="url(#clip500)" style="stroke:#000000; stroke-linecap:round; stroke-linejoin:round; stroke-width:4; stroke-opacity:1; fill:none" points="486.821,1173.47 486.821,1154.57 "/>
<polyline clip-path="url(#clip500)" style="stroke:#000000; stroke-linecap:round; stroke-linejoin:round; stroke-width:4; stroke-opacity:1; fill:none" points="868.426,1173.47 868.426,1154.57 "/>
<polyline clip-path="url(#clip500)" style="stroke:#000000; stroke-linecap:round; stroke-linejoin:round; stroke-width:4; stroke-opacity:1; fill:none" points="1250.03,1173.47 1250.03,1154.57 "/>
<polyline clip-path="url(#clip500)" style="stroke:#000000; stroke-linecap:round; stroke-linejoin:round; stroke-width:4; stroke-opacity:1; fill:none" points="1631.63,1173.47 1631.63,1154.57 "/>
<polyline clip-path="url(#clip500)" style="stroke:#000000; stroke-linecap:round; stroke-linejoin:round; stroke-width:4; stroke-opacity:1; fill:none" points="2013.24,1173.47 2013.24,1154.57 "/>
<path clip-path="url(#clip500)" d="M481.474 1229.63 L497.793 1229.63 L497.793 1233.57 L475.849 1233.57 L475.849 1229.63 Q478.511 1226.88 483.094 1222.25 Q487.701 1217.59 488.881 1216.25 Q491.126 1213.73 492.006 1211.99 Q492.909 1210.23 492.909 1208.54 Q492.909 1205.79 490.964 1204.05 Q489.043 1202.32 485.941 1202.32 Q483.742 1202.32 481.289 1203.08 Q478.858 1203.84 476.08 1205.4 L476.08 1200.67 Q478.904 1199.54 481.358 1198.96 Q483.812 1198.38 485.849 1198.38 Q491.219 1198.38 494.413 1201.07 Q497.608 1203.75 497.608 1208.24 Q497.608 1210.37 496.798 1212.29 Q496.011 1214.19 493.904 1216.78 Q493.326 1217.46 490.224 1220.67 Q487.122 1223.87 481.474 1229.63 Z" fill="#000000" fill-rule="nonzero" fill-opacity="1" /><path clip-path="url(#clip500)" d="M871.435 1203.08 L859.629 1221.53 L871.435 1221.53 L871.435 1203.08 M870.208 1199.01 L876.088 1199.01 L876.088 1221.53 L881.018 1221.53 L881.018 1225.42 L876.088 1225.42 L876.088 1233.57 L871.435 1233.57 L871.435 1225.42 L855.833 1225.42 L855.833 1220.9 L870.208 1199.01 Z" fill="#000000" fill-rule="nonzero" fill-opacity="1" /><path clip-path="url(#clip500)" d="M1250.44 1214.42 Q1247.29 1214.42 1245.44 1216.58 Q1243.61 1218.73 1243.61 1222.48 Q1243.61 1226.21 1245.44 1228.38 Q1247.29 1230.53 1250.44 1230.53 Q1253.58 1230.53 1255.41 1228.38 Q1257.26 1226.21 1257.26 1222.48 Q1257.26 1218.73 1255.41 1216.58 Q1253.58 1214.42 1250.44 1214.42 M1259.72 1199.77 L1259.72 1204.03 Q1257.96 1203.2 1256.15 1202.76 Q1254.37 1202.32 1252.61 1202.32 Q1247.98 1202.32 1245.53 1205.44 Q1243.1 1208.57 1242.75 1214.89 Q1244.12 1212.87 1246.18 1211.81 Q1248.24 1210.72 1250.71 1210.72 Q1255.92 1210.72 1258.93 1213.89 Q1261.96 1217.04 1261.96 1222.48 Q1261.96 1227.8 1258.81 1231.02 Q1255.67 1234.24 1250.44 1234.24 Q1244.44 1234.24 1241.27 1229.65 Q1238.1 1225.05 1238.1 1216.32 Q1238.1 1208.13 1241.99 1203.27 Q1245.88 1198.38 1252.43 1198.38 Q1254.19 1198.38 1255.97 1198.73 Q1257.77 1199.08 1259.72 1199.77 Z" fill="#000000" fill-rule="nonzero" fill-opacity="1" /><path clip-path="url(#clip500)" d="M1631.63 1217.15 Q1628.3 1217.15 1626.38 1218.94 Q1624.48 1220.72 1624.48 1223.84 Q1624.48 1226.97 1626.38 1228.75 Q1628.3 1230.53 1631.63 1230.53 Q1634.97 1230.53 1636.89 1228.75 Q1638.81 1226.95 1638.81 1223.84 Q1638.81 1220.72 1636.89 1218.94 Q1634.99 1217.15 1631.63 1217.15 M1626.96 1215.16 Q1623.95 1214.42 1622.26 1212.36 Q1620.59 1210.3 1620.59 1207.34 Q1620.59 1203.2 1623.53 1200.79 Q1626.5 1198.38 1631.63 1198.38 Q1636.8 1198.38 1639.74 1200.79 Q1642.68 1203.2 1642.68 1207.34 Q1642.68 1210.3 1640.99 1212.36 Q1639.32 1214.42 1636.33 1215.16 Q1639.71 1215.95 1641.59 1218.24 Q1643.49 1220.53 1643.49 1223.84 Q1643.49 1228.87 1640.41 1231.55 Q1637.35 1234.24 1631.63 1234.24 Q1625.92 1234.24 1622.84 1231.55 Q1619.78 1228.87 1619.78 1223.84 Q1619.78 1220.53 1621.68 1218.24 Q1623.58 1215.95 1626.96 1215.16 M1625.25 1207.78 Q1625.25 1210.47 1626.91 1211.97 Q1628.6 1213.47 1631.63 1213.47 Q1634.64 1213.47 1636.33 1211.97 Q1638.05 1210.47 1638.05 1207.78 Q1638.05 1205.09 1636.33 1203.59 Q1634.64 1202.09 1631.63 1202.09 Q1628.6 1202.09 1626.91 1203.59 Q1625.25 1205.09 1625.25 1207.78 Z" fill="#000000" fill-rule="nonzero" fill-opacity="1" /><path clip-path="url(#clip500)" d="M1987.93 1229.63 L1995.57 1229.63 L1995.57 1203.27 L1987.26 1204.93 L1987.26 1200.67 L1995.52 1199.01 L2000.2 1199.01 L2000.2 1229.63 L2007.83 1229.63 L2007.83 1233.57 L1987.93 1233.57 L1987.93 1229.63 Z" fill="#000000" fill-rule="nonzero" fill-opacity="1" /><path clip-path="url(#clip500)" d="M2027.28 1202.09 Q2023.67 1202.09 2021.84 1205.65 Q2020.03 1209.19 2020.03 1216.32 Q2020.03 1223.43 2021.84 1226.99 Q2023.67 1230.53 2027.28 1230.53 Q2030.91 1230.53 2032.72 1226.99 Q2034.55 1223.43 2034.55 1216.32 Q2034.55 1209.19 2032.72 1205.65 Q2030.91 1202.09 2027.28 1202.09 M2027.28 1198.38 Q2033.09 1198.38 2036.14 1202.99 Q2039.22 1207.57 2039.22 1216.32 Q2039.22 1225.05 2036.14 1229.65 Q2033.09 1234.24 2027.28 1234.24 Q2021.47 1234.24 2018.39 1229.65 Q2015.33 1225.05 2015.33 1216.32 Q2015.33 1207.57 2018.39 1202.99 Q2021.47 1198.38 2027.28 1198.38 Z" fill="#000000" fill-rule="nonzero" fill-opacity="1" /><path clip-path="url(#clip500)" d="M964.772 1266.49 L971.679 1266.49 L983.487 1284.16 L995.359 1266.49 L1002.27 1266.49 L986.988 1289.32 L1003.28 1314.01 L996.378 1314.01 L983.01 1293.8 L969.546 1314.01 L962.607 1314.01 L979.572 1288.65 L964.772 1266.49 Z" fill="#000000" fill-rule="nonzero" fill-opacity="1" /><path clip-path="url(#clip500)" d="M1005.26 1293.55 L1022.41 1293.55 L1022.41 1298.77 L1005.26 1298.77 L1005.26 1293.55 Z" fill="#000000" fill-rule="nonzero" fill-opacity="1" /><path clip-path="url(#clip500)" d="M1047.94 1296.1 Q1040.84 1296.1 1038.1 1297.72 Q1035.37 1299.34 1035.37 1303.26 Q1035.37 1306.38 1037.4 1308.22 Q1039.47 1310.04 1043.01 1310.04 Q1047.88 1310.04 1050.8 1306.6 Q1053.76 1303.13 1053.76 1297.4 L1053.76 1296.1 L1047.94 1296.1 M1059.62 1293.68 L1059.62 1314.01 L1053.76 1314.01 L1053.76 1308.6 Q1051.76 1311.85 1048.77 1313.41 Q1045.78 1314.94 1041.45 1314.94 Q1035.97 1314.94 1032.73 1311.88 Q1029.51 1308.79 1029.51 1303.64 Q1029.51 1297.62 1033.52 1294.57 Q1037.56 1291.51 1045.55 1291.51 L1053.76 1291.51 L1053.76 1290.94 Q1053.76 1286.9 1051.09 1284.7 Q1048.45 1282.47 1043.64 1282.47 Q1040.59 1282.47 1037.69 1283.2 Q1034.79 1283.94 1032.12 1285.4 L1032.12 1279.99 Q1035.34 1278.75 1038.36 1278.14 Q1041.38 1277.51 1044.25 1277.51 Q1051.98 1277.51 1055.8 1281.52 Q1059.62 1285.53 1059.62 1293.68 Z" fill="#000000" fill-rule="nonzero" fill-opacity="1" /><path clip-path="url(#clip500)" d="M1101.32 1278.37 L1088.43 1295.71 L1101.98 1314.01 L1095.08 1314.01 L1084.7 1300.01 L1074.33 1314.01 L1067.42 1314.01 L1081.26 1295.36 L1068.6 1278.37 L1075.5 1278.37 L1084.96 1291.07 L1094.41 1278.37 L1101.32 1278.37 Z" fill="#000000" fill-rule="nonzero" fill-opacity="1" /><path clip-path="url(#clip500)" d="M1110.26 1278.37 L1116.12 1278.37 L1116.12 1314.01 L1110.26 1314.01 L1110.26 1278.37 M1110.26 1264.49 L1116.12 1264.49 L1116.12 1271.91 L1110.26 1271.91 L1110.26 1264.49 Z" fill="#000000" fill-rule="nonzero" fill-opacity="1" /><path clip-path="url(#clip500)" d="M1151.1 1279.42 L1151.1 1284.96 Q1148.61 1283.68 1145.94 1283.05 Q1143.27 1282.41 1140.4 1282.41 Q1136.04 1282.41 1133.84 1283.75 Q1131.68 1285.08 1131.68 1287.76 Q1131.68 1289.79 1133.24 1290.97 Q1134.8 1292.12 1139.51 1293.17 L1141.52 1293.61 Q1147.75 1294.95 1150.36 1297.4 Q1153.01 1299.82 1153.01 1304.18 Q1153.01 1309.14 1149.06 1312.04 Q1145.14 1314.94 1138.27 1314.94 Q1135.4 1314.94 1132.29 1314.36 Q1129.2 1313.82 1125.76 1312.71 L1125.76 1306.66 Q1129.01 1308.35 1132.16 1309.21 Q1135.31 1310.04 1138.4 1310.04 Q1142.53 1310.04 1144.76 1308.64 Q1146.99 1307.2 1146.99 1304.63 Q1146.99 1302.24 1145.37 1300.97 Q1143.78 1299.69 1138.33 1298.51 L1136.3 1298.04 Q1130.85 1296.89 1128.43 1294.54 Q1126.02 1292.15 1126.02 1288.01 Q1126.02 1282.98 1129.58 1280.24 Q1133.14 1277.51 1139.7 1277.51 Q1142.95 1277.51 1145.81 1277.98 Q1148.68 1278.46 1151.1 1279.42 Z" fill="#000000" fill-rule="nonzero" fill-opacity="1" /><path clip-path="url(#clip500)" d="M1183.31 1266.49 L1189.74 1266.49 L1189.74 1308.6 L1212.88 1308.6 L1212.88 1314.01 L1183.31 1314.01 L1183.31 1266.49 Z" fill="#000000" fill-rule="nonzero" fill-opacity="1" /><path clip-path="url(#clip500)" d="M1235.57 1296.1 Q1228.47 1296.1 1225.73 1297.72 Q1223 1299.34 1223 1303.26 Q1223 1306.38 1225.03 1308.22 Q1227.1 1310.04 1230.64 1310.04 Q1235.51 1310.04 1238.43 1306.6 Q1241.39 1303.13 1241.39 1297.4 L1241.39 1296.1 L1235.57 1296.1 M1247.25 1293.68 L1247.25 1314.01 L1241.39 1314.01 L1241.39 1308.6 Q1239.39 1311.85 1236.4 1313.41 Q1233.4 1314.94 1229.08 1314.94 Q1223.6 1314.94 1220.35 1311.88 Q1217.14 1308.79 1217.14 1303.64 Q1217.14 1297.62 1221.15 1294.57 Q1225.19 1291.51 1233.18 1291.51 L1241.39 1291.51 L1241.39 1290.94 Q1241.39 1286.9 1238.72 1284.7 Q1236.08 1282.47 1231.27 1282.47 Q1228.22 1282.47 1225.32 1283.2 Q1222.42 1283.94 1219.75 1285.4 L1219.75 1279.99 Q1222.96 1278.75 1225.99 1278.14 Q1229.01 1277.51 1231.88 1277.51 Q1239.61 1277.51 1243.43 1281.52 Q1247.25 1285.53 1247.25 1293.68 Z" fill="#000000" fill-rule="nonzero" fill-opacity="1" /><path clip-path="url(#clip500)" d="M1284.9 1296.22 Q1284.9 1289.76 1282.23 1286.1 Q1279.59 1282.41 1274.94 1282.41 Q1270.29 1282.41 1267.62 1286.1 Q1264.98 1289.76 1264.98 1296.22 Q1264.98 1302.68 1267.62 1306.38 Q1270.29 1310.04 1274.94 1310.04 Q1279.59 1310.04 1282.23 1306.38 Q1284.9 1302.68 1284.9 1296.22 M1264.98 1283.78 Q1266.82 1280.59 1269.63 1279.07 Q1272.46 1277.51 1276.37 1277.51 Q1282.87 1277.51 1286.91 1282.66 Q1290.98 1287.82 1290.98 1296.22 Q1290.98 1304.63 1286.91 1309.78 Q1282.87 1314.94 1276.37 1314.94 Q1272.46 1314.94 1269.63 1313.41 Q1266.82 1311.85 1264.98 1308.67 L1264.98 1314.01 L1259.09 1314.01 L1259.09 1264.49 L1264.98 1264.49 L1264.98 1283.78 Z" fill="#000000" fill-rule="nonzero" fill-opacity="1" /><path clip-path="url(#clip500)" d="M1331.18 1294.73 L1331.18 1297.59 L1304.25 1297.59 Q1304.64 1303.64 1307.88 1306.82 Q1311.16 1309.97 1316.99 1309.97 Q1320.36 1309.97 1323.51 1309.14 Q1326.69 1308.32 1329.81 1306.66 L1329.81 1312.2 Q1326.66 1313.54 1323.35 1314.24 Q1320.04 1314.94 1316.64 1314.94 Q1308.11 1314.94 1303.11 1309.97 Q1298.14 1305.01 1298.14 1296.54 Q1298.14 1287.79 1302.85 1282.66 Q1307.6 1277.51 1315.62 1277.51 Q1322.81 1277.51 1326.98 1282.15 Q1331.18 1286.77 1331.18 1294.73 M1325.33 1293.01 Q1325.26 1288.2 1322.62 1285.34 Q1320.01 1282.47 1315.68 1282.47 Q1310.78 1282.47 1307.82 1285.24 Q1304.89 1288.01 1304.45 1293.04 L1325.33 1293.01 Z" fill="#000000" fill-rule="nonzero" fill-opacity="1" /><path clip-path="url(#clip500)" d="M1340.79 1264.49 L1346.65 1264.49 L1346.65 1314.01 L1340.79 1314.01 L1340.79 1264.49 Z" fill="#000000" fill-rule="nonzero" fill-opacity="1" /><polyline clip-path="url(#clip500)" style="stroke:#000000; stroke-linecap:round; stroke-linejoin:round; stroke-width:4; stroke-opacity:1; fill:none" points="244.502,1173.47 244.502,120.723 "/>
<polyline clip-path="url(#clip500)" style="stroke:#000000; stroke-linecap:round; stroke-linejoin:round; stroke-width:4; stroke-opacity:1; fill:none" points="244.502,1150.47 263.4,1150.47 "/>
<polyline clip-path="url(#clip500)" style="stroke:#000000; stroke-linecap:round; stroke-linejoin:round; stroke-width:4; stroke-opacity:1; fill:none" points="244.502,895.684 263.4,895.684 "/>
<polyline clip-path="url(#clip500)" style="stroke:#000000; stroke-linecap:round; stroke-linejoin:round; stroke-width:4; stroke-opacity:1; fill:none" points="244.502,640.895 263.4,640.895 "/>
<polyline clip-path="url(#clip500)" style="stroke:#000000; stroke-linecap:round; stroke-linejoin:round; stroke-width:4; stroke-opacity:1; fill:none" points="244.502,386.105 263.4,386.105 "/>
<polyline clip-path="url(#clip500)" style="stroke:#000000; stroke-linecap:round; stroke-linejoin:round; stroke-width:4; stroke-opacity:1; fill:none" points="244.502,131.316 263.4,131.316 "/>
<path clip-path="url(#clip500)" d="M125.485 1136.27 Q121.873 1136.27 120.045 1139.84 Q118.239 1143.38 118.239 1150.51 Q118.239 1157.61 120.045 1161.18 Q121.873 1164.72 125.485 1164.72 Q129.119 1164.72 130.924 1161.18 Q132.753 1157.61 132.753 1150.51 Q132.753 1143.38 130.924 1139.84 Q129.119 1136.27 125.485 1136.27 M125.485 1132.57 Q131.295 1132.57 134.35 1137.17 Q137.429 1141.76 137.429 1150.51 Q137.429 1159.23 134.35 1163.84 Q131.295 1168.42 125.485 1168.42 Q119.674 1168.42 116.596 1163.84 Q113.54 1159.23 113.54 1150.51 Q113.54 1141.76 116.596 1137.17 Q119.674 1132.57 125.485 1132.57 Z" fill="#000000" fill-rule="nonzero" fill-opacity="1" /><path clip-path="url(#clip500)" d="M145.646 1161.87 L150.531 1161.87 L150.531 1167.75 L145.646 1167.75 L145.646 1161.87 Z" fill="#000000" fill-rule="nonzero" fill-opacity="1" /><path clip-path="url(#clip500)" d="M170.716 1136.27 Q167.105 1136.27 165.276 1139.84 Q163.47 1143.38 163.47 1150.51 Q163.47 1157.61 165.276 1161.18 Q167.105 1164.72 170.716 1164.72 Q174.35 1164.72 176.156 1161.18 Q177.984 1157.61 177.984 1150.51 Q177.984 1143.38 176.156 1139.84 Q174.35 1136.27 170.716 1136.27 M170.716 1132.57 Q176.526 1132.57 179.581 1137.17 Q182.66 1141.76 182.66 1150.51 Q182.66 1159.23 179.581 1163.84 Q176.526 1168.42 170.716 1168.42 Q164.906 1168.42 161.827 1163.84 Q158.771 1159.23 158.771 1150.51 Q158.771 1141.76 161.827 1137.17 Q164.906 1132.57 170.716 1132.57 Z" fill="#000000" fill-rule="nonzero" fill-opacity="1" /><path clip-path="url(#clip500)" d="M200.878 1136.27 Q197.267 1136.27 195.438 1139.84 Q193.632 1143.38 193.632 1150.51 Q193.632 1157.61 195.438 1161.18 Q197.267 1164.72 200.878 1164.72 Q204.512 1164.72 206.317 1161.18 Q208.146 1157.61 208.146 1150.51 Q208.146 1143.38 206.317 1139.84 Q204.512 1136.27 200.878 1136.27 M200.878 1132.57 Q206.688 1132.57 209.743 1137.17 Q212.822 1141.76 212.822 1150.51 Q212.822 1159.23 209.743 1163.84 Q206.688 1168.42 200.878 1168.42 Q195.067 1168.42 191.989 1163.84 Q188.933 1159.23 188.933 1150.51 Q188.933 1141.76 191.989 1137.17 Q195.067 1132.57 200.878 1132.57 Z" fill="#000000" fill-rule="nonzero" fill-opacity="1" /><path clip-path="url(#clip500)" d="M126.48 881.482 Q122.869 881.482 121.04 885.047 Q119.235 888.589 119.235 895.719 Q119.235 902.825 121.04 906.39 Q122.869 909.931 126.48 909.931 Q130.114 909.931 131.92 906.39 Q133.748 902.825 133.748 895.719 Q133.748 888.589 131.92 885.047 Q130.114 881.482 126.48 881.482 M126.48 877.779 Q132.29 877.779 135.346 882.385 Q138.424 886.969 138.424 895.719 Q138.424 904.445 135.346 909.052 Q132.29 913.635 126.48 913.635 Q120.67 913.635 117.591 909.052 Q114.536 904.445 114.536 895.719 Q114.536 886.969 117.591 882.385 Q120.67 877.779 126.48 877.779 Z" fill="#000000" fill-rule="nonzero" fill-opacity="1" /><path clip-path="url(#clip500)" d="M146.642 907.084 L151.526 907.084 L151.526 912.964 L146.642 912.964 L146.642 907.084 Z" fill="#000000" fill-rule="nonzero" fill-opacity="1" /><path clip-path="url(#clip500)" d="M165.739 909.029 L182.058 909.029 L182.058 912.964 L160.114 912.964 L160.114 909.029 Q162.776 906.274 167.359 901.644 Q171.966 896.992 173.146 895.649 Q175.392 893.126 176.271 891.39 Q177.174 889.631 177.174 887.941 Q177.174 885.186 175.23 883.45 Q173.308 881.714 170.207 881.714 Q168.007 881.714 165.554 882.478 Q163.123 883.242 160.345 884.793 L160.345 880.07 Q163.17 878.936 165.623 878.357 Q168.077 877.779 170.114 877.779 Q175.484 877.779 178.679 880.464 Q181.873 883.149 181.873 887.64 Q181.873 889.769 181.063 891.691 Q180.276 893.589 178.169 896.181 Q177.591 896.853 174.489 900.07 Q171.387 903.265 165.739 909.029 Z" fill="#000000" fill-rule="nonzero" fill-opacity="1" /><path clip-path="url(#clip500)" d="M191.919 878.404 L210.276 878.404 L210.276 882.339 L196.202 882.339 L196.202 890.811 Q197.22 890.464 198.239 890.302 Q199.257 890.117 200.276 890.117 Q206.063 890.117 209.442 893.288 Q212.822 896.459 212.822 901.876 Q212.822 907.455 209.35 910.556 Q205.878 913.635 199.558 913.635 Q197.382 913.635 195.114 913.265 Q192.868 912.894 190.461 912.154 L190.461 907.455 Q192.544 908.589 194.767 909.144 Q196.989 909.7 199.466 909.7 Q203.47 909.7 205.808 907.593 Q208.146 905.487 208.146 901.876 Q208.146 898.265 205.808 896.158 Q203.47 894.052 199.466 894.052 Q197.591 894.052 195.716 894.469 Q193.864 894.885 191.919 895.765 L191.919 878.404 Z" fill="#000000" fill-rule="nonzero" fill-opacity="1" /><path clip-path="url(#clip500)" d="M125.485 626.693 Q121.873 626.693 120.045 630.258 Q118.239 633.8 118.239 640.929 Q118.239 648.036 120.045 651.601 Q121.873 655.142 125.485 655.142 Q129.119 655.142 130.924 651.601 Q132.753 648.036 132.753 640.929 Q132.753 633.8 130.924 630.258 Q129.119 626.693 125.485 626.693 M125.485 622.99 Q131.295 622.99 134.35 627.596 Q137.429 632.179 137.429 640.929 Q137.429 649.656 134.35 654.263 Q131.295 658.846 125.485 658.846 Q119.674 658.846 116.596 654.263 Q113.54 649.656 113.54 640.929 Q113.54 632.179 116.596 627.596 Q119.674 622.99 125.485 622.99 Z" fill="#000000" fill-rule="nonzero" fill-opacity="1" /><path clip-path="url(#clip500)" d="M145.646 652.295 L150.531 652.295 L150.531 658.175 L145.646 658.175 L145.646 652.295 Z" fill="#000000" fill-rule="nonzero" fill-opacity="1" /><path clip-path="url(#clip500)" d="M160.762 623.615 L179.119 623.615 L179.119 627.55 L165.045 627.55 L165.045 636.022 Q166.063 635.675 167.082 635.513 Q168.1 635.328 169.119 635.328 Q174.906 635.328 178.285 638.499 Q181.665 641.67 181.665 647.087 Q181.665 652.665 178.193 655.767 Q174.72 658.846 168.401 658.846 Q166.225 658.846 163.957 658.476 Q161.711 658.105 159.304 657.364 L159.304 652.665 Q161.387 653.8 163.609 654.355 Q165.832 654.911 168.308 654.911 Q172.313 654.911 174.651 652.804 Q176.989 650.698 176.989 647.087 Q176.989 643.476 174.651 641.369 Q172.313 639.263 168.308 639.263 Q166.433 639.263 164.558 639.679 Q162.707 640.096 160.762 640.976 L160.762 623.615 Z" fill="#000000" fill-rule="nonzero" fill-opacity="1" /><path clip-path="url(#clip500)" d="M200.878 626.693 Q197.267 626.693 195.438 630.258 Q193.632 633.8 193.632 640.929 Q193.632 648.036 195.438 651.601 Q197.267 655.142 200.878 655.142 Q204.512 655.142 206.317 651.601 Q208.146 648.036 208.146 640.929 Q208.146 633.8 206.317 630.258 Q204.512 626.693 200.878 626.693 M200.878 622.99 Q206.688 622.99 209.743 627.596 Q212.822 632.179 212.822 640.929 Q212.822 649.656 209.743 654.263 Q206.688 658.846 200.878 658.846 Q195.067 658.846 191.989 654.263 Q188.933 649.656 188.933 640.929 Q188.933 632.179 191.989 627.596 Q195.067 622.99 200.878 622.99 Z" fill="#000000" fill-rule="nonzero" fill-opacity="1" /><path clip-path="url(#clip500)" d="M126.48 371.904 Q122.869 371.904 121.04 375.469 Q119.235 379.011 119.235 386.14 Q119.235 393.247 121.04 396.811 Q122.869 400.353 126.48 400.353 Q130.114 400.353 131.92 396.811 Q133.748 393.247 133.748 386.14 Q133.748 379.011 131.92 375.469 Q130.114 371.904 126.48 371.904 M126.48 368.2 Q132.29 368.2 135.346 372.807 Q138.424 377.39 138.424 386.14 Q138.424 394.867 135.346 399.473 Q132.29 404.057 126.48 404.057 Q120.67 404.057 117.591 399.473 Q114.536 394.867 114.536 386.14 Q114.536 377.39 117.591 372.807 Q120.67 368.2 126.48 368.2 Z" fill="#000000" fill-rule="nonzero" fill-opacity="1" /><path clip-path="url(#clip500)" d="M146.642 397.506 L151.526 397.506 L151.526 403.385 L146.642 403.385 L146.642 397.506 Z" fill="#000000" fill-rule="nonzero" fill-opacity="1" /><path clip-path="url(#clip500)" d="M160.531 368.825 L182.753 368.825 L182.753 370.816 L170.207 403.385 L165.322 403.385 L177.128 372.761 L160.531 372.761 L160.531 368.825 Z" fill="#000000" fill-rule="nonzero" fill-opacity="1" /><path clip-path="url(#clip500)" d="M191.919 368.825 L210.276 368.825 L210.276 372.761 L196.202 372.761 L196.202 381.233 Q197.22 380.886 198.239 380.724 Q199.257 380.538 200.276 380.538 Q206.063 380.538 209.442 383.71 Q212.822 386.881 212.822 392.298 Q212.822 397.876 209.35 400.978 Q205.878 404.057 199.558 404.057 Q197.382 404.057 195.114 403.686 Q192.868 403.316 190.461 402.575 L190.461 397.876 Q192.544 399.011 194.767 399.566 Q196.989 400.122 199.466 400.122 Q203.47 400.122 205.808 398.015 Q208.146 395.909 208.146 392.298 Q208.146 388.686 205.808 386.58 Q203.47 384.474 199.466 384.474 Q197.591 384.474 195.716 384.89 Q193.864 385.307 191.919 386.186 L191.919 368.825 Z" fill="#000000" fill-rule="nonzero" fill-opacity="1" /><path clip-path="url(#clip500)" d="M116.295 144.661 L123.934 144.661 L123.934 118.296 L115.623 119.962 L115.623 115.703 L123.887 114.036 L128.563 114.036 L128.563 144.661 L136.202 144.661 L136.202 148.596 L116.295 148.596 L116.295 144.661 Z" fill="#000000" fill-rule="nonzero" fill-opacity="1" /><path clip-path="url(#clip500)" d="M145.646 142.717 L150.531 142.717 L150.531 148.596 L145.646 148.596 L145.646 142.717 Z" fill="#000000" fill-rule="nonzero" fill-opacity="1" /><path clip-path="url(#clip500)" d="M170.716 117.115 Q167.105 117.115 165.276 120.68 Q163.47 124.221 163.47 131.351 Q163.47 138.457 165.276 142.022 Q167.105 145.564 170.716 145.564 Q174.35 145.564 176.156 142.022 Q177.984 138.457 177.984 131.351 Q177.984 124.221 176.156 120.68 Q174.35 117.115 170.716 117.115 M170.716 113.411 Q176.526 113.411 179.581 118.018 Q182.66 122.601 182.66 131.351 Q182.66 140.078 179.581 144.684 Q176.526 149.268 170.716 149.268 Q164.906 149.268 161.827 144.684 Q158.771 140.078 158.771 131.351 Q158.771 122.601 161.827 118.018 Q164.906 113.411 170.716 113.411 Z" fill="#000000" fill-rule="nonzero" fill-opacity="1" /><path clip-path="url(#clip500)" d="M200.878 117.115 Q197.267 117.115 195.438 120.68 Q193.632 124.221 193.632 131.351 Q193.632 138.457 195.438 142.022 Q197.267 145.564 200.878 145.564 Q204.512 145.564 206.317 142.022 Q208.146 138.457 208.146 131.351 Q208.146 124.221 206.317 120.68 Q204.512 117.115 200.878 117.115 M200.878 113.411 Q206.688 113.411 209.743 118.018 Q212.822 122.601 212.822 131.351 Q212.822 140.078 209.743 144.684 Q206.688 149.268 200.878 149.268 Q195.067 149.268 191.989 144.684 Q188.933 140.078 188.933 131.351 Q188.933 122.601 191.989 118.018 Q195.067 113.411 200.878 113.411 Z" fill="#000000" fill-rule="nonzero" fill-opacity="1" /><path clip-path="url(#clip500)" d="M20.0842 835.49 L20.0842 828.583 L39.6269 815.406 L20.0842 802.325 L20.0842 795.418 L44.9741 812.223 L67.6042 812.223 L67.6042 818.685 L44.9741 818.685 L20.0842 835.49 Z" fill="#000000" fill-rule="nonzero" fill-opacity="1" /><path clip-path="url(#clip500)" d="M47.1384 800.097 L47.1384 782.941 L52.3583 782.941 L52.3583 800.097 L47.1384 800.097 Z" fill="#000000" fill-rule="nonzero" fill-opacity="1" /><path clip-path="url(#clip500)" d="M49.6847 757.415 Q49.6847 764.512 51.3079 767.25 Q52.9312 769.987 56.8461 769.987 Q59.9653 769.987 61.8114 767.95 Q63.6256 765.881 63.6256 762.348 Q63.6256 757.478 60.1881 754.55 Q56.7188 751.59 50.9897 751.59 L49.6847 751.59 L49.6847 757.415 M47.2657 745.734 L67.6042 745.734 L67.6042 751.59 L62.1933 751.59 Q65.4398 753.595 66.9994 756.587 Q68.5272 759.579 68.5272 763.908 Q68.5272 769.382 65.4716 772.629 Q62.3843 775.843 57.2281 775.843 Q51.2125 775.843 48.1569 771.833 Q45.1014 767.791 45.1014 759.802 L45.1014 751.59 L44.5285 751.59 Q40.4862 751.59 38.2901 754.264 Q36.0621 756.905 36.0621 761.711 Q36.0621 764.767 36.7941 767.663 Q37.5262 770.56 38.9903 773.233 L33.5795 773.233 Q32.3381 770.019 31.7334 766.995 Q31.0968 763.971 31.0968 761.107 Q31.0968 753.372 35.1072 749.553 Q39.1176 745.734 47.2657 745.734 Z" fill="#000000" fill-rule="nonzero" fill-opacity="1" /><path clip-path="url(#clip500)" d="M31.9562 704.038 L49.3028 716.929 L67.6042 703.37 L67.6042 710.277 L53.5996 720.653 L67.6042 731.029 L67.6042 737.936 L48.9526 724.09 L31.9562 736.758 L31.9562 729.851 L44.6558 720.398 L31.9562 710.945 L31.9562 704.038 Z" fill="#000000" fill-rule="nonzero" fill-opacity="1" /><path clip-path="url(#clip500)" d="M31.9562 695.094 L31.9562 689.238 L67.6042 689.238 L67.6042 695.094 L31.9562 695.094 M18.079 695.094 L18.079 689.238 L25.495 689.238 L25.495 695.094 L18.079 695.094 Z" fill="#000000" fill-rule="nonzero" fill-opacity="1" /><path clip-path="url(#clip500)" d="M33.0065 654.258 L38.5447 654.258 Q37.2716 656.741 36.635 659.415 Q35.9984 662.088 35.9984 664.953 Q35.9984 669.313 37.3352 671.509 Q38.672 673.674 41.3456 673.674 Q43.3826 673.674 44.5603 672.114 Q45.7061 670.555 46.7565 665.844 L47.2021 663.839 Q48.5389 657.6 50.9897 654.99 Q53.4086 652.349 57.7691 652.349 Q62.7344 652.349 65.6308 656.295 Q68.5272 660.21 68.5272 667.085 Q68.5272 669.95 67.9543 673.069 Q67.4132 676.156 66.2992 679.594 L60.2518 679.594 Q61.9387 676.347 62.798 673.196 Q63.6256 670.045 63.6256 666.958 Q63.6256 662.82 62.2251 660.592 Q60.7929 658.364 58.2147 658.364 Q55.8276 658.364 54.5545 659.987 Q53.2813 661.579 52.1037 667.022 L51.6262 669.059 Q50.4804 674.501 48.1251 676.92 Q45.738 679.339 41.6002 679.339 Q36.5713 679.339 33.8341 675.774 Q31.0968 672.21 31.0968 665.653 Q31.0968 662.406 31.5743 659.542 Q32.0517 656.677 33.0065 654.258 Z" fill="#000000" fill-rule="nonzero" fill-opacity="1" /><path clip-path="url(#clip500)" d="M20.0842 622.048 L20.0842 615.618 L62.1933 615.618 L62.1933 592.479 L67.6042 592.479 L67.6042 622.048 L20.0842 622.048 Z" fill="#000000" fill-rule="nonzero" fill-opacity="1" /><path clip-path="url(#clip500)" d="M49.6847 569.785 Q49.6847 576.883 51.3079 579.62 Q52.9312 582.358 56.8461 582.358 Q59.9653 582.358 61.8114 580.321 Q63.6256 578.252 63.6256 574.719 Q63.6256 569.849 60.1881 566.921 Q56.7188 563.961 50.9897 563.961 L49.6847 563.961 L49.6847 569.785 M47.2657 558.104 L67.6042 558.104 L67.6042 563.961 L62.1933 563.961 Q65.4398 565.966 66.9994 568.958 Q68.5272 571.95 68.5272 576.278 Q68.5272 581.753 65.4716 584.999 Q62.3843 588.214 57.2281 588.214 Q51.2125 588.214 48.1569 584.204 Q45.1014 580.161 45.1014 572.173 L45.1014 563.961 L44.5285 563.961 Q40.4862 563.961 38.2901 566.634 Q36.0621 569.276 36.0621 574.082 Q36.0621 577.138 36.7941 580.034 Q37.5262 582.931 38.9903 585.604 L33.5795 585.604 Q32.3381 582.389 31.7334 579.366 Q31.0968 576.342 31.0968 573.477 Q31.0968 565.743 35.1072 561.924 Q39.1176 558.104 47.2657 558.104 Z" fill="#000000" fill-rule="nonzero" fill-opacity="1" /><path clip-path="url(#clip500)" d="M49.812 520.451 Q43.3508 520.451 39.6905 523.125 Q35.9984 525.767 35.9984 530.413 Q35.9984 535.06 39.6905 537.734 Q43.3508 540.376 49.812 540.376 Q56.2732 540.376 59.9653 537.734 Q63.6256 535.06 63.6256 530.413 Q63.6256 525.767 59.9653 523.125 Q56.2732 520.451 49.812 520.451 M37.3671 540.376 Q34.1842 538.53 32.6564 535.729 Q31.0968 532.896 31.0968 528.981 Q31.0968 522.488 36.2531 518.446 Q41.4093 514.372 49.812 514.372 Q58.2147 514.372 63.371 518.446 Q68.5272 522.488 68.5272 528.981 Q68.5272 532.896 66.9994 535.729 Q65.4398 538.53 62.257 540.376 L67.6042 540.376 L67.6042 546.264 L18.079 546.264 L18.079 540.376 L37.3671 540.376 Z" fill="#000000" fill-rule="nonzero" fill-opacity="1" /><path clip-path="url(#clip500)" d="M48.3161 474.172 L51.1806 474.172 L51.1806 501.099 Q57.2281 500.717 60.4109 497.471 Q63.5619 494.193 63.5619 488.368 Q63.5619 484.994 62.7344 481.843 Q61.9069 478.66 60.2518 475.541 L65.7899 475.541 Q67.1267 478.692 67.827 482.002 Q68.5272 485.312 68.5272 488.718 Q68.5272 497.248 63.5619 502.245 Q58.5967 507.21 50.1303 507.21 Q41.3774 507.21 36.2531 502.5 Q31.0968 497.757 31.0968 489.737 Q31.0968 482.543 35.7438 478.374 Q40.3589 474.172 48.3161 474.172 M46.5973 480.029 Q41.7912 480.093 38.9266 482.734 Q36.0621 485.344 36.0621 489.673 Q36.0621 494.575 38.8312 497.535 Q41.6002 500.463 46.6292 500.908 L46.5973 480.029 Z" fill="#000000" fill-rule="nonzero" fill-opacity="1" /><path clip-path="url(#clip500)" d="M18.079 464.56 L18.079 458.704 L67.6042 458.704 L67.6042 464.56 L18.079 464.56 Z" fill="#000000" fill-rule="nonzero" fill-opacity="1" /><path clip-path="url(#clip500)" d="M807.872 12.096 L820.065 12.096 L835.499 53.2532 L851.014 12.096 L863.207 12.096 L863.207 72.576 L855.227 72.576 L855.227 19.4686 L839.631 60.9499 L831.407 60.9499 L815.811 19.4686 L815.811 72.576 L807.872 72.576 L807.872 12.096 Z" fill="#000000" fill-rule="nonzero" fill-opacity="1" /><path clip-path="url(#clip500)" d="M898.004 76.7889 Q894.844 84.8907 891.847 87.3618 Q888.849 89.8329 883.826 89.8329 L877.871 89.8329 L877.871 83.5945 L882.246 83.5945 Q885.325 83.5945 887.026 82.1361 Q888.728 80.6778 890.794 75.2496 L892.13 71.8468 L873.78 27.2059 L881.679 27.2059 L895.857 62.6918 L910.035 27.2059 L917.935 27.2059 L898.004 76.7889 Z" fill="#000000" fill-rule="nonzero" fill-opacity="1" /><path clip-path="url(#clip500)" d="M954.919 12.096 L989.676 12.096 L989.676 18.9825 L963.102 18.9825 L963.102 36.8065 L987.084 36.8065 L987.084 43.6931 L963.102 43.6931 L963.102 72.576 L954.919 72.576 L954.919 12.096 Z" fill="#000000" fill-rule="nonzero" fill-opacity="1" /><path clip-path="url(#clip500)" d="M996.279 27.2059 L1003.73 27.2059 L1003.73 72.576 L996.279 72.576 L996.279 27.2059 M996.279 9.54393 L1003.73 9.54393 L1003.73 18.9825 L996.279 18.9825 L996.279 9.54393 Z" fill="#000000" fill-rule="nonzero" fill-opacity="1" /><path clip-path="url(#clip500)" d="M1045.62 34.1734 Q1044.36 33.4443 1042.86 33.1202 Q1041.41 32.7556 1039.62 32.7556 Q1033.3 32.7556 1029.9 36.8875 Q1026.54 40.9789 1026.54 48.6757 L1026.54 72.576 L1019.05 72.576 L1019.05 27.2059 L1026.54 27.2059 L1026.54 34.2544 Q1028.89 30.1225 1032.66 28.1376 Q1036.42 26.1121 1041.81 26.1121 Q1042.58 26.1121 1043.51 26.2337 Q1044.44 26.3147 1045.58 26.5172 L1045.62 34.1734 Z" fill="#000000" fill-rule="nonzero" fill-opacity="1" /><path clip-path="url(#clip500)" d="M1082.36 28.5427 L1082.36 35.5912 Q1079.2 33.9709 1075.8 33.1607 Q1072.4 32.3505 1068.75 32.3505 Q1063.2 32.3505 1060.4 34.0519 Q1057.65 35.7533 1057.65 39.156 Q1057.65 41.7486 1059.64 43.2475 Q1061.62 44.7058 1067.62 46.0426 L1070.17 46.6097 Q1078.11 48.3111 1081.43 51.4303 Q1084.79 54.509 1084.79 60.0587 Q1084.79 66.3781 1079.77 70.0644 Q1074.79 73.7508 1066.04 73.7508 Q1062.39 73.7508 1058.42 73.0216 Q1054.49 72.3329 1050.12 70.9151 L1050.12 63.2184 Q1054.25 65.3654 1058.26 66.4591 Q1062.27 67.5124 1066.2 67.5124 Q1071.46 67.5124 1074.3 65.73 Q1077.14 63.9071 1077.14 60.6258 Q1077.14 57.5877 1075.07 55.9673 Q1073.04 54.3469 1066.12 52.8481 L1063.52 52.2405 Q1056.6 50.7821 1053.52 47.7845 Q1050.44 44.7463 1050.44 39.4801 Q1050.44 33.0797 1054.98 29.5959 Q1059.51 26.1121 1067.86 26.1121 Q1071.99 26.1121 1075.64 26.7198 Q1079.28 27.3274 1082.36 28.5427 Z" fill="#000000" fill-rule="nonzero" fill-opacity="1" /><path clip-path="url(#clip500)" d="M1104.03 14.324 L1104.03 27.2059 L1119.39 27.2059 L1119.39 32.9987 L1104.03 32.9987 L1104.03 57.6282 Q1104.03 63.1779 1105.53 64.7578 Q1107.07 66.3376 1111.73 66.3376 L1119.39 66.3376 L1119.39 72.576 L1111.73 72.576 Q1103.1 72.576 1099.82 69.3758 Q1096.54 66.1351 1096.54 57.6282 L1096.54 32.9987 L1091.07 32.9987 L1091.07 27.2059 L1096.54 27.2059 L1096.54 14.324 L1104.03 14.324 Z" fill="#000000" fill-rule="nonzero" fill-opacity="1" /><path clip-path="url(#clip500)" d="M1155.88 12.096 L1164.07 12.096 L1164.07 65.6895 L1193.52 65.6895 L1193.52 72.576 L1155.88 72.576 L1155.88 12.096 Z" fill="#000000" fill-rule="nonzero" fill-opacity="1" /><path clip-path="url(#clip500)" d="M1201.78 27.2059 L1209.24 27.2059 L1209.24 72.576 L1201.78 72.576 L1201.78 27.2059 M1201.78 9.54393 L1209.24 9.54393 L1209.24 18.9825 L1201.78 18.9825 L1201.78 9.54393 Z" fill="#000000" fill-rule="nonzero" fill-opacity="1" /><path clip-path="url(#clip500)" d="M1262.55 45.1919 L1262.55 72.576 L1255.09 72.576 L1255.09 45.4349 Q1255.09 38.994 1252.58 35.7938 Q1250.07 32.5936 1245.05 32.5936 Q1239.01 32.5936 1235.53 36.4419 Q1232.04 40.2903 1232.04 46.9338 L1232.04 72.576 L1224.55 72.576 L1224.55 27.2059 L1232.04 27.2059 L1232.04 34.2544 Q1234.72 30.163 1238.32 28.1376 Q1241.97 26.1121 1246.71 26.1121 Q1254.52 26.1121 1258.53 30.9732 Q1262.55 35.7938 1262.55 45.1919 Z" fill="#000000" fill-rule="nonzero" fill-opacity="1" /><path clip-path="url(#clip500)" d="M1316.22 48.0275 L1316.22 51.6733 L1281.95 51.6733 Q1282.43 59.3701 1286.57 63.421 Q1290.74 67.4314 1298.15 67.4314 Q1302.45 67.4314 1306.46 66.3781 Q1310.51 65.3249 1314.48 63.2184 L1314.48 70.267 Q1310.47 71.9684 1306.25 72.8596 Q1302.04 73.7508 1297.71 73.7508 Q1286.85 73.7508 1280.49 67.4314 Q1274.17 61.1119 1274.17 50.3365 Q1274.17 39.1965 1280.17 32.6746 Q1286.2 26.1121 1296.41 26.1121 Q1305.57 26.1121 1310.87 32.0264 Q1316.22 37.9003 1316.22 48.0275 M1308.77 45.84 Q1308.68 39.7232 1305.32 36.0774 Q1302 32.4315 1296.49 32.4315 Q1290.25 32.4315 1286.49 35.9558 Q1282.76 39.4801 1282.19 45.8805 L1308.77 45.84 Z" fill="#000000" fill-rule="nonzero" fill-opacity="1" /><path clip-path="url(#clip500)" d="M1363.33 18.8205 L1363.33 41.5461 L1373.62 41.5461 Q1379.33 41.5461 1382.45 38.5889 Q1385.57 35.6318 1385.57 30.163 Q1385.57 24.7348 1382.45 21.7777 Q1379.33 18.8205 1373.62 18.8205 L1363.33 18.8205 M1355.15 12.096 L1373.62 12.096 Q1383.79 12.096 1388.97 16.714 Q1394.2 21.2916 1394.2 30.163 Q1394.2 39.1155 1388.97 43.6931 Q1383.79 48.2706 1373.62 48.2706 L1363.33 48.2706 L1363.33 72.576 L1355.15 72.576 L1355.15 12.096 Z" fill="#000000" fill-rule="nonzero" fill-opacity="1" /><path clip-path="url(#clip500)" d="M1404.85 9.54393 L1412.31 9.54393 L1412.31 72.576 L1404.85 72.576 L1404.85 9.54393 Z" fill="#000000" fill-rule="nonzero" fill-opacity="1" /><path clip-path="url(#clip500)" d="M1445.48 32.4315 Q1439.49 32.4315 1436 37.1306 Q1432.52 41.7891 1432.52 49.9314 Q1432.52 58.0738 1435.96 62.7728 Q1439.45 67.4314 1445.48 67.4314 Q1451.44 67.4314 1454.92 62.7323 Q1458.41 58.0333 1458.41 49.9314 Q1458.41 41.8701 1454.92 37.1711 Q1451.44 32.4315 1445.48 32.4315 M1445.48 26.1121 Q1455.21 26.1121 1460.76 32.4315 Q1466.31 38.7509 1466.31 49.9314 Q1466.31 61.0714 1460.76 67.4314 Q1455.21 73.7508 1445.48 73.7508 Q1435.72 73.7508 1430.17 67.4314 Q1424.66 61.0714 1424.66 49.9314 Q1424.66 38.7509 1430.17 32.4315 Q1435.72 26.1121 1445.48 26.1121 Z" fill="#000000" fill-rule="nonzero" fill-opacity="1" /><path clip-path="url(#clip500)" d="M1486.03 14.324 L1486.03 27.2059 L1501.39 27.2059 L1501.39 32.9987 L1486.03 32.9987 L1486.03 57.6282 Q1486.03 63.1779 1487.53 64.7578 Q1489.07 66.3376 1493.73 66.3376 L1501.39 66.3376 L1501.39 72.576 L1493.73 72.576 Q1485.1 72.576 1481.82 69.3758 Q1478.54 66.1351 1478.54 57.6282 L1478.54 32.9987 L1473.07 32.9987 L1473.07 27.2059 L1478.54 27.2059 L1478.54 14.324 L1486.03 14.324 Z" fill="#000000" fill-rule="nonzero" fill-opacity="1" /><polyline clip-path="url(#clip502)" style="stroke:#009af9; stroke-linecap:round; stroke-linejoin:round; stroke-width:4; stroke-opacity:1; fill:none" points="296.019,150.518 486.821,771.635 677.623,293.611 868.426,762.602 1059.23,525.736 1250.03,194.927 1440.83,788.046 1631.63,1143.68 1822.44,383.036 2013.24,438.768 "/>
</svg>
