<?xml version="1.0" encoding="utf-8"?>
<svg xmlns="http://www.w3.org/2000/svg" xmlns:xlink="http://www.w3.org/1999/xlink" width="1650" height="1050" viewBox="0 0 6600 4200">
<defs>
  <clipPath id="clip700">
    <rect x="0" y="0" width="6600" height="4200"/>
  </clipPath>
</defs>
<path clip-path="url(#clip700)" d="M0 4200 L6600 4200 L6600 6.66134e-14 L0 6.66134e-14  Z" fill="#ffffff" fill-rule="evenodd" fill-opacity="1"/>
<defs>
  <clipPath id="clip701">
    <rect x="1320" y="0" width="4621" height="4200"/>
  </clipPath>
</defs>
<path clip-path="url(#clip700)" d="M259.706 4000.91 L6552.76 4000.91 L6552.76 120.723 L259.706 120.723  Z" fill="#ffffff" fill-rule="evenodd" fill-opacity="1"/>
<defs>
  <clipPath id="clip702">
    <rect x="259" y="120" width="6294" height="3881"/>
  </clipPath>
</defs>
<polyline clip-path="url(#clip702)" style="stroke:#000000; stroke-linecap:round; stroke-linejoin:round; stroke-width:2; stroke-opacity:0.1; fill:none" points="1687.67,4000.91 1687.67,120.723 "/>
<polyline clip-path="url(#clip702)" style="stroke:#000000; stroke-linecap:round; stroke-linejoin:round; stroke-width:2; stroke-opacity:0.1; fill:none" points="3250,4000.91 3250,120.723 "/>
<polyline clip-path="url(#clip702)" style="stroke:#000000; stroke-linecap:round; stroke-linejoin:round; stroke-width:2; stroke-opacity:0.1; fill:none" points="4812.32,4000.91 4812.32,120.723 "/>
<polyline clip-path="url(#clip702)" style="stroke:#000000; stroke-linecap:round; stroke-linejoin:round; stroke-width:2; stroke-opacity:0.1; fill:none" points="6374.65,4000.91 6374.65,120.723 "/>
<polyline clip-path="url(#clip702)" style="stroke:#000000; stroke-linecap:round; stroke-linejoin:round; stroke-width:2; stroke-opacity:0.1; fill:none" points="259.706,3355.72 6552.76,3355.72 "/>
<polyline clip-path="url(#clip702)" style="stroke:#000000; stroke-linecap:round; stroke-linejoin:round; stroke-width:2; stroke-opacity:0.1; fill:none" points="259.706,2558.21 6552.76,2558.21 "/>
<polyline clip-path="url(#clip702)" style="stroke:#000000; stroke-linecap:round; stroke-linejoin:round; stroke-width:2; stroke-opacity:0.1; fill:none" points="259.706,1760.69 6552.76,1760.69 "/>
<polyline clip-path="url(#clip702)" style="stroke:#000000; stroke-linecap:round; stroke-linejoin:round; stroke-width:2; stroke-opacity:0.1; fill:none" points="259.706,963.175 6552.76,963.175 "/>
<polyline clip-path="url(#clip702)" style="stroke:#000000; stroke-linecap:round; stroke-linejoin:round; stroke-width:2; stroke-opacity:0.1; fill:none" points="259.706,165.659 6552.76,165.659 "/>
<polyline clip-path="url(#clip700)" style="stroke:#000000; stroke-linecap:round; stroke-linejoin:round; stroke-width:4; stroke-opacity:1; fill:none" points="259.706,4000.91 6552.76,4000.91 "/>
<polyline clip-path="url(#clip700)" style="stroke:#000000; stroke-linecap:round; stroke-linejoin:round; stroke-width:4; stroke-opacity:1; fill:none" points="1687.67,4000.91 1687.67,3982.01 "/>
<polyline clip-path="url(#clip700)" style="stroke:#000000; stroke-linecap:round; stroke-linejoin:round; stroke-width:4; stroke-opacity:1; fill:none" points="3250,4000.91 3250,3982.01 "/>
<polyline clip-path="url(#clip700)" style="stroke:#000000; stroke-linecap:round; stroke-linejoin:round; stroke-width:4; stroke-opacity:1; fill:none" points="4812.32,4000.91 4812.32,3982.01 "/>
<polyline clip-path="url(#clip700)" style="stroke:#000000; stroke-linecap:round; stroke-linejoin:round; stroke-width:4; stroke-opacity:1; fill:none" points="6374.65,4000.91 6374.65,3982.01 "/>
<path clip-path="url(#clip700)" d="M1677.95 4062.35 L1696.31 4062.35 L1696.31 4066.29 L1682.23 4066.29 L1682.23 4074.76 Q1683.25 4074.41 1684.27 4074.25 Q1685.29 4074.06 1686.31 4074.06 Q1692.09 4074.06 1695.47 4077.23 Q1698.85 4080.41 1698.85 4085.82 Q1698.85 4091.4 1695.38 4094.5 Q1691.91 4097.58 1685.59 4097.58 Q1683.41 4097.58 1681.14 4097.21 Q1678.9 4096.84 1676.49 4096.1 L1676.49 4091.4 Q1678.58 4092.54 1680.8 4093.09 Q1683.02 4093.65 1685.5 4093.65 Q1689.5 4093.65 1691.84 4091.54 Q1694.18 4089.43 1694.18 4085.82 Q1694.18 4082.21 1691.84 4080.11 Q1689.5 4078 1685.5 4078 Q1683.62 4078 1681.75 4078.42 Q1679.89 4078.83 1677.95 4079.71 L1677.95 4062.35 Z" fill="#000000" fill-rule="nonzero" fill-opacity="1" /><path clip-path="url(#clip700)" d="M3224.69 4092.98 L3232.32 4092.98 L3232.32 4066.61 L3224.01 4068.28 L3224.01 4064.02 L3232.28 4062.35 L3236.95 4062.35 L3236.95 4092.98 L3244.59 4092.98 L3244.59 4096.91 L3224.69 4096.91 L3224.69 4092.98 Z" fill="#000000" fill-rule="nonzero" fill-opacity="1" /><path clip-path="url(#clip700)" d="M3264.04 4065.43 Q3260.43 4065.43 3258.6 4068.99 Q3256.79 4072.54 3256.79 4079.67 Q3256.79 4086.77 3258.6 4090.34 Q3260.43 4093.88 3264.04 4093.88 Q3267.67 4093.88 3269.48 4090.34 Q3271.31 4086.77 3271.31 4079.67 Q3271.31 4072.54 3269.48 4068.99 Q3267.67 4065.43 3264.04 4065.43 M3264.04 4061.73 Q3269.85 4061.73 3272.9 4066.33 Q3275.98 4070.92 3275.98 4079.67 Q3275.98 4088.39 3272.9 4093 Q3269.85 4097.58 3264.04 4097.58 Q3258.23 4097.58 3255.15 4093 Q3252.09 4088.39 3252.09 4079.67 Q3252.09 4070.92 3255.15 4066.33 Q3258.23 4061.73 3264.04 4061.73 Z" fill="#000000" fill-rule="nonzero" fill-opacity="1" /><path clip-path="url(#clip700)" d="M4787.51 4092.98 L4795.15 4092.98 L4795.15 4066.61 L4786.84 4068.28 L4786.84 4064.02 L4795.1 4062.35 L4799.78 4062.35 L4799.78 4092.98 L4807.42 4092.98 L4807.42 4096.91 L4787.51 4096.91 L4787.51 4092.98 Z" fill="#000000" fill-rule="nonzero" fill-opacity="1" /><path clip-path="url(#clip700)" d="M4816.91 4062.35 L4835.26 4062.35 L4835.26 4066.29 L4821.19 4066.29 L4821.19 4074.76 Q4822.21 4074.41 4823.23 4074.25 Q4824.25 4074.06 4825.26 4074.06 Q4831.05 4074.06 4834.43 4077.23 Q4837.81 4080.41 4837.81 4085.82 Q4837.81 4091.4 4834.34 4094.5 Q4830.87 4097.58 4824.55 4097.58 Q4822.37 4097.58 4820.1 4097.21 Q4817.86 4096.84 4815.45 4096.1 L4815.45 4091.4 Q4817.53 4092.54 4819.76 4093.09 Q4821.98 4093.65 4824.45 4093.65 Q4828.46 4093.65 4830.8 4091.54 Q4833.13 4089.43 4833.13 4085.82 Q4833.13 4082.21 4830.8 4080.11 Q4828.46 4078 4824.45 4078 Q4822.58 4078 4820.7 4078.42 Q4818.85 4078.83 4816.91 4079.71 L4816.91 4062.35 Z" fill="#000000" fill-rule="nonzero" fill-opacity="1" /><path clip-path="url(#clip700)" d="M6353.42 4092.98 L6369.74 4092.98 L6369.74 4096.91 L6347.8 4096.91 L6347.8 4092.98 Q6350.46 4090.22 6355.04 4085.59 Q6359.65 4080.94 6360.83 4079.6 Q6363.08 4077.07 6363.96 4075.34 Q6364.86 4073.58 6364.86 4071.89 Q6364.86 4069.13 6362.91 4067.4 Q6360.99 4065.66 6357.89 4065.66 Q6355.69 4065.66 6353.24 4066.42 Q6350.81 4067.19 6348.03 4068.74 L6348.03 4064.02 Q6350.85 4062.88 6353.31 4062.3 Q6355.76 4061.73 6357.8 4061.73 Q6363.17 4061.73 6366.36 4064.41 Q6369.56 4067.1 6369.56 4071.59 Q6369.56 4073.72 6368.75 4075.64 Q6367.96 4077.54 6365.85 4080.13 Q6365.28 4080.8 6362.17 4084.02 Q6359.07 4087.21 6353.42 4092.98 Z" fill="#000000" fill-rule="nonzero" fill-opacity="1" /><path clip-path="url(#clip700)" d="M6389.56 4065.43 Q6385.95 4065.43 6384.12 4068.99 Q6382.31 4072.54 6382.31 4079.67 Q6382.31 4086.77 6384.12 4090.34 Q6385.95 4093.88 6389.56 4093.88 Q6393.19 4093.88 6395 4090.34 Q6396.83 4086.77 6396.83 4079.67 Q6396.83 4072.54 6395 4068.99 Q6393.19 4065.43 6389.56 4065.43 M6389.56 4061.73 Q6395.37 4061.73 6398.42 4066.33 Q6401.5 4070.92 6401.5 4079.67 Q6401.5 4088.39 6398.42 4093 Q6395.37 4097.58 6389.56 4097.58 Q6383.75 4097.58 6380.67 4093 Q6377.61 4088.39 6377.61 4079.67 Q6377.61 4070.92 6380.67 4066.33 Q6383.75 4061.73 6389.56 4061.73 Z" fill="#000000" fill-rule="nonzero" fill-opacity="1" /><path clip-path="url(#clip700)" d="M3347.71 4173.13 L3334.82 4190.47 L3348.38 4208.77 L3341.48 4208.77 L3331.1 4194.77 L3320.72 4208.77 L3313.82 4208.77 L3327.66 4190.12 L3314.99 4173.13 L3321.9 4173.13 L3331.35 4185.83 L3340.81 4173.13 L3347.71 4173.13 Z" fill="#000000" fill-rule="nonzero" fill-opacity="1" /><path clip-path="url(#clip700)" d="M3393.58 4190.86 Q3386.48 4190.86 3383.74 4192.48 Q3381.01 4194.1 3381.01 4198.02 Q3381.01 4201.14 3383.04 4202.98 Q3385.11 4204.8 3388.65 4204.8 Q3393.52 4204.8 3396.44 4201.36 Q3399.4 4197.89 3399.4 4192.16 L3399.4 4190.86 L3393.58 4190.86 M3405.26 4188.44 L3405.26 4208.77 L3399.4 4208.77 L3399.4 4203.36 Q3397.4 4206.61 3394.41 4208.17 Q3391.41 4209.7 3387.09 4209.7 Q3381.61 4209.7 3378.37 4206.64 Q3375.15 4203.55 3375.15 4198.4 Q3375.15 4192.38 3379.16 4189.33 Q3383.2 4186.27 3391.19 4186.27 L3399.4 4186.27 L3399.4 4185.7 Q3399.4 4181.66 3396.73 4179.46 Q3394.09 4177.23 3389.28 4177.23 Q3386.23 4177.23 3383.33 4177.96 Q3380.43 4178.7 3377.76 4180.16 L3377.76 4174.75 Q3380.98 4173.51 3384 4172.9 Q3387.02 4172.27 3389.89 4172.27 Q3397.62 4172.27 3401.44 4176.28 Q3405.26 4180.29 3405.26 4188.44 Z" fill="#000000" fill-rule="nonzero" fill-opacity="1" /><path clip-path="url(#clip700)" d="M3446.96 4173.13 L3434.07 4190.47 L3447.62 4208.77 L3440.72 4208.77 L3430.34 4194.77 L3419.97 4208.77 L3413.06 4208.77 L3426.9 4190.12 L3414.24 4173.13 L3421.14 4173.13 L3430.6 4185.83 L3440.05 4173.13 L3446.96 4173.13 Z" fill="#000000" fill-rule="nonzero" fill-opacity="1" /><path clip-path="url(#clip700)" d="M3455.9 4173.13 L3461.76 4173.13 L3461.76 4208.77 L3455.9 4208.77 L3455.9 4173.13 M3455.9 4159.25 L3461.76 4159.25 L3461.76 4166.67 L3455.9 4166.67 L3455.9 4159.25 Z" fill="#000000" fill-rule="nonzero" fill-opacity="1" /><path clip-path="url(#clip700)" d="M3496.74 4174.18 L3496.74 4179.72 Q3494.25 4178.44 3491.58 4177.81 Q3488.91 4177.17 3486.04 4177.17 Q3481.68 4177.17 3479.48 4178.51 Q3477.32 4179.84 3477.32 4182.52 Q3477.32 4184.55 3478.88 4185.73 Q3480.44 4186.88 3485.15 4187.93 L3487.16 4188.37 Q3493.39 4189.71 3496 4192.16 Q3498.65 4194.58 3498.65 4198.94 Q3498.65 4203.9 3494.7 4206.8 Q3490.78 4209.7 3483.91 4209.7 Q3481.04 4209.7 3477.92 4209.12 Q3474.84 4208.58 3471.4 4207.47 L3471.4 4201.42 Q3474.65 4203.11 3477.8 4203.97 Q3480.95 4204.8 3484.04 4204.8 Q3488.17 4204.8 3490.4 4203.4 Q3492.63 4201.96 3492.63 4199.39 Q3492.63 4197 3491.01 4195.73 Q3489.41 4194.45 3483.97 4193.27 L3481.94 4192.8 Q3476.49 4191.65 3474.07 4189.3 Q3471.65 4186.91 3471.65 4182.77 Q3471.65 4177.74 3475.22 4175 Q3478.78 4172.27 3485.34 4172.27 Q3488.59 4172.27 3491.45 4172.74 Q3494.32 4173.22 3496.74 4174.18 Z" fill="#000000" fill-rule="nonzero" fill-opacity="1" /><polyline clip-path="url(#clip700)" style="stroke:#000000; stroke-linecap:round; stroke-linejoin:round; stroke-width:4; stroke-opacity:1; fill:none" points="259.706,4000.91 259.706,120.723 "/>
<polyline clip-path="url(#clip700)" style="stroke:#000000; stroke-linecap:round; stroke-linejoin:round; stroke-width:4; stroke-opacity:1; fill:none" points="259.706,3355.72 278.604,3355.72 "/>
<polyline clip-path="url(#clip700)" style="stroke:#000000; stroke-linecap:round; stroke-linejoin:round; stroke-width:4; stroke-opacity:1; fill:none" points="259.706,2558.21 278.604,2558.21 "/>
<polyline clip-path="url(#clip700)" style="stroke:#000000; stroke-linecap:round; stroke-linejoin:round; stroke-width:4; stroke-opacity:1; fill:none" points="259.706,1760.69 278.604,1760.69 "/>
<polyline clip-path="url(#clip700)" style="stroke:#000000; stroke-linecap:round; stroke-linejoin:round; stroke-width:4; stroke-opacity:1; fill:none" points="259.706,963.175 278.604,963.175 "/>
<polyline clip-path="url(#clip700)" style="stroke:#000000; stroke-linecap:round; stroke-linejoin:round; stroke-width:4; stroke-opacity:1; fill:none" points="259.706,165.659 278.604,165.659 "/>
<path clip-path="url(#clip700)" d="M105.128 3341.52 Q101.517 3341.52 99.6881 3345.09 Q97.8825 3348.63 97.8825 3355.76 Q97.8825 3362.86 99.6881 3366.43 Q101.517 3369.97 105.128 3369.97 Q108.762 3369.97 110.568 3366.43 Q112.396 3362.86 112.396 3355.76 Q112.396 3348.63 110.568 3345.09 Q108.762 3341.52 105.128 3341.52 M105.128 3337.82 Q110.938 3337.82 113.994 3342.42 Q117.072 3347.01 117.072 3355.76 Q117.072 3364.48 113.994 3369.09 Q110.938 3373.67 105.128 3373.67 Q99.3177 3373.67 96.239 3369.09 Q93.1835 3364.48 93.1835 3355.76 Q93.1835 3347.01 96.239 3342.42 Q99.3177 3337.82 105.128 3337.82 Z" fill="#000000" fill-rule="nonzero" fill-opacity="1" /><path clip-path="url(#clip700)" d="M125.29 3367.12 L130.174 3367.12 L130.174 3373 L125.29 3373 L125.29 3367.12 Z" fill="#000000" fill-rule="nonzero" fill-opacity="1" /><path clip-path="url(#clip700)" d="M144.387 3369.07 L160.706 3369.07 L160.706 3373 L138.762 3373 L138.762 3369.07 Q141.424 3366.31 146.007 3361.68 Q150.614 3357.03 151.794 3355.69 Q154.04 3353.16 154.919 3351.43 Q155.822 3349.67 155.822 3347.98 Q155.822 3345.22 153.878 3343.49 Q151.956 3341.75 148.854 3341.75 Q146.655 3341.75 144.202 3342.52 Q141.771 3343.28 138.993 3344.83 L138.993 3340.11 Q141.817 3338.97 144.271 3338.4 Q146.725 3337.82 148.762 3337.82 Q154.132 3337.82 157.327 3340.5 Q160.521 3343.19 160.521 3347.68 Q160.521 3349.81 159.711 3351.73 Q158.924 3353.63 156.817 3356.22 Q156.239 3356.89 153.137 3360.11 Q150.035 3363.3 144.387 3369.07 Z" fill="#000000" fill-rule="nonzero" fill-opacity="1" /><path clip-path="url(#clip700)" d="M103.045 2544 Q99.4334 2544 97.6048 2547.57 Q95.7992 2551.11 95.7992 2558.24 Q95.7992 2565.35 97.6048 2568.91 Q99.4334 2572.45 103.045 2572.45 Q106.679 2572.45 108.484 2568.91 Q110.313 2565.35 110.313 2558.24 Q110.313 2551.11 108.484 2547.57 Q106.679 2544 103.045 2544 M103.045 2540.3 Q108.855 2540.3 111.91 2544.91 Q114.989 2549.49 114.989 2558.24 Q114.989 2566.97 111.91 2571.57 Q108.855 2576.16 103.045 2576.16 Q97.2344 2576.16 94.1557 2571.57 Q91.1002 2566.97 91.1002 2558.24 Q91.1002 2549.49 94.1557 2544.91 Q97.2344 2540.3 103.045 2540.3 Z" fill="#000000" fill-rule="nonzero" fill-opacity="1" /><path clip-path="url(#clip700)" d="M123.206 2569.61 L128.091 2569.61 L128.091 2575.49 L123.206 2575.49 L123.206 2569.61 Z" fill="#000000" fill-rule="nonzero" fill-opacity="1" /><path clip-path="url(#clip700)" d="M151.123 2545 L139.317 2563.45 L151.123 2563.45 L151.123 2545 M149.896 2540.93 L155.776 2540.93 L155.776 2563.45 L160.706 2563.45 L160.706 2567.34 L155.776 2567.34 L155.776 2575.49 L151.123 2575.49 L151.123 2567.34 L135.521 2567.34 L135.521 2562.82 L149.896 2540.93 Z" fill="#000000" fill-rule="nonzero" fill-opacity="1" /><path clip-path="url(#clip700)" d="M103.369 1746.49 Q99.7575 1746.49 97.9288 1750.05 Q96.1233 1753.6 96.1233 1760.73 Q96.1233 1767.83 97.9288 1771.4 Q99.7575 1774.94 103.369 1774.94 Q107.003 1774.94 108.808 1771.4 Q110.637 1767.83 110.637 1760.73 Q110.637 1753.6 108.808 1750.05 Q107.003 1746.49 103.369 1746.49 M103.369 1742.79 Q109.179 1742.79 112.234 1747.39 Q115.313 1751.98 115.313 1760.73 Q115.313 1769.45 112.234 1774.06 Q109.179 1778.64 103.369 1778.64 Q97.5585 1778.64 94.4798 1774.06 Q91.4242 1769.45 91.4242 1760.73 Q91.4242 1751.98 94.4798 1747.39 Q97.5585 1742.79 103.369 1742.79 Z" fill="#000000" fill-rule="nonzero" fill-opacity="1" /><path clip-path="url(#clip700)" d="M123.531 1772.09 L128.415 1772.09 L128.415 1777.97 L123.531 1777.97 L123.531 1772.09 Z" fill="#000000" fill-rule="nonzero" fill-opacity="1" /><path clip-path="url(#clip700)" d="M149.179 1758.83 Q146.03 1758.83 144.179 1760.98 Q142.35 1763.13 142.35 1766.88 Q142.35 1770.61 144.179 1772.79 Q146.03 1774.94 149.179 1774.94 Q152.327 1774.94 154.155 1772.79 Q156.007 1770.61 156.007 1766.88 Q156.007 1763.13 154.155 1760.98 Q152.327 1758.83 149.179 1758.83 M158.461 1744.17 L158.461 1748.43 Q156.702 1747.6 154.896 1747.16 Q153.114 1746.72 151.354 1746.72 Q146.725 1746.72 144.271 1749.85 Q141.841 1752.97 141.493 1759.29 Q142.859 1757.28 144.919 1756.21 Q146.979 1755.12 149.456 1755.12 Q154.665 1755.12 157.674 1758.29 Q160.706 1761.44 160.706 1766.88 Q160.706 1772.21 157.558 1775.42 Q154.41 1778.64 149.179 1778.64 Q143.183 1778.64 140.012 1774.06 Q136.841 1769.45 136.841 1760.73 Q136.841 1752.53 140.73 1747.67 Q144.618 1742.79 151.169 1742.79 Q152.929 1742.79 154.711 1743.13 Q156.516 1743.48 158.461 1744.17 Z" fill="#000000" fill-rule="nonzero" fill-opacity="1" /><path clip-path="url(#clip700)" d="M103.623 948.973 Q100.012 948.973 98.1835 952.538 Q96.3779 956.08 96.3779 963.209 Q96.3779 970.316 98.1835 973.881 Q100.012 977.422 103.623 977.422 Q107.257 977.422 109.063 973.881 Q110.892 970.316 110.892 963.209 Q110.892 956.08 109.063 952.538 Q107.257 948.973 103.623 948.973 M103.623 945.27 Q109.433 945.27 112.489 949.876 Q115.568 954.459 115.568 963.209 Q115.568 971.936 112.489 976.543 Q109.433 981.126 103.623 981.126 Q97.8131 981.126 94.7344 976.543 Q91.6789 971.936 91.6789 963.209 Q91.6789 954.459 94.7344 949.876 Q97.8131 945.27 103.623 945.27 Z" fill="#000000" fill-rule="nonzero" fill-opacity="1" /><path clip-path="url(#clip700)" d="M123.785 974.575 L128.669 974.575 L128.669 980.455 L123.785 980.455 L123.785 974.575 Z" fill="#000000" fill-rule="nonzero" fill-opacity="1" /><path clip-path="url(#clip700)" d="M148.854 964.043 Q145.521 964.043 143.6 965.825 Q141.702 967.608 141.702 970.732 Q141.702 973.857 143.6 975.64 Q145.521 977.422 148.854 977.422 Q152.188 977.422 154.109 975.64 Q156.03 973.834 156.03 970.732 Q156.03 967.608 154.109 965.825 Q152.211 964.043 148.854 964.043 M144.179 962.052 Q141.169 961.311 139.48 959.251 Q137.813 957.191 137.813 954.228 Q137.813 950.084 140.753 947.677 Q143.716 945.27 148.854 945.27 Q154.016 945.27 156.956 947.677 Q159.896 950.084 159.896 954.228 Q159.896 957.191 158.206 959.251 Q156.54 961.311 153.554 962.052 Q156.933 962.839 158.808 965.131 Q160.706 967.422 160.706 970.732 Q160.706 975.756 157.628 978.441 Q154.572 981.126 148.854 981.126 Q143.137 981.126 140.058 978.441 Q137.003 975.756 137.003 970.732 Q137.003 967.422 138.901 965.131 Q140.799 962.839 144.179 962.052 M142.466 954.668 Q142.466 957.353 144.132 958.858 Q145.822 960.362 148.854 960.362 Q151.864 960.362 153.554 958.858 Q155.266 957.353 155.266 954.668 Q155.266 951.983 153.554 950.478 Q151.864 948.973 148.854 948.973 Q145.822 948.973 144.132 950.478 Q142.466 951.983 142.466 954.668 Z" fill="#000000" fill-rule="nonzero" fill-opacity="1" /><path clip-path="url(#clip700)" d="M94.3409 179.004 L101.98 179.004 L101.98 152.638 L93.6696 154.305 L93.6696 150.045 L101.933 148.379 L106.609 148.379 L106.609 179.004 L114.248 179.004 L114.248 182.939 L94.3409 182.939 L94.3409 179.004 Z" fill="#000000" fill-rule="nonzero" fill-opacity="1" /><path clip-path="url(#clip700)" d="M123.693 177.059 L128.577 177.059 L128.577 182.939 L123.693 182.939 L123.693 177.059 Z" fill="#000000" fill-rule="nonzero" fill-opacity="1" /><path clip-path="url(#clip700)" d="M148.762 151.458 Q145.151 151.458 143.322 155.022 Q141.517 158.564 141.517 165.694 Q141.517 172.8 143.322 176.365 Q145.151 179.906 148.762 179.906 Q152.396 179.906 154.202 176.365 Q156.03 172.8 156.03 165.694 Q156.03 158.564 154.202 155.022 Q152.396 151.458 148.762 151.458 M148.762 147.754 Q154.572 147.754 157.628 152.36 Q160.706 156.944 160.706 165.694 Q160.706 174.42 157.628 179.027 Q154.572 183.61 148.762 183.61 Q142.952 183.61 139.873 179.027 Q136.818 174.42 136.818 165.694 Q136.818 156.944 139.873 152.36 Q142.952 147.754 148.762 147.754 Z" fill="#000000" fill-rule="nonzero" fill-opacity="1" /><path clip-path="url(#clip700)" d="M-18.8457 2134.17 Q-12.48 2136.65 -10.5384 2139 Q-8.59689 2141.36 -8.59689 2145.31 L-8.59689 2149.98 L-13.4985 2149.98 L-13.4985 2146.55 Q-13.4985 2144.13 -14.6443 2142.79 Q-15.7901 2141.45 -20.0552 2139.83 L-22.7288 2138.78 L-57.8038 2153.2 L-57.8038 2146.99 L-29.922 2135.85 L-57.8038 2124.71 L-57.8038 2118.51 L-18.8457 2134.17 Z" fill="#000000" fill-rule="nonzero" fill-opacity="1" /><path clip-path="url(#clip700)" d="M-40.0753 2073.5 Q-40.0753 2080.6 -38.4521 2083.34 Q-36.8288 2086.07 -32.9139 2086.07 Q-29.7947 2086.07 -27.9486 2084.04 Q-26.1344 2081.97 -26.1344 2078.43 Q-26.1344 2073.56 -29.5719 2070.64 Q-33.0412 2067.68 -38.7703 2067.68 L-40.0753 2067.68 L-40.0753 2073.5 M-42.4943 2061.82 L-22.1558 2061.82 L-22.1558 2067.68 L-27.5667 2067.68 Q-24.3202 2069.68 -22.7606 2072.67 Q-21.2328 2075.66 -21.2328 2079.99 Q-21.2328 2085.47 -24.2884 2088.71 Q-27.3757 2091.93 -32.5319 2091.93 Q-38.5475 2091.93 -41.6031 2087.92 Q-44.6586 2083.88 -44.6586 2075.89 L-44.6586 2067.68 L-45.2315 2067.68 Q-49.2738 2067.68 -51.4699 2070.35 Q-53.6979 2072.99 -53.6979 2077.8 Q-53.6979 2080.85 -52.9659 2083.75 Q-52.2338 2086.65 -50.7697 2089.32 L-56.1805 2089.32 Q-57.4219 2086.1 -58.0266 2083.08 Q-58.6632 2080.06 -58.6632 2077.19 Q-58.6632 2069.46 -54.6528 2065.64 Q-50.6424 2061.82 -42.4943 2061.82 Z" fill="#000000" fill-rule="nonzero" fill-opacity="1" /><path clip-path="url(#clip700)" d="M-57.8038 2020.12 L-40.4572 2033.01 L-22.1558 2019.46 L-22.1558 2026.36 L-36.1604 2036.74 L-22.1558 2047.11 L-22.1558 2054.02 L-40.8074 2040.18 L-57.8038 2052.84 L-57.8038 2045.94 L-45.1042 2036.48 L-57.8038 2027.03 L-57.8038 2020.12 Z" fill="#000000" fill-rule="nonzero" fill-opacity="1" /><path clip-path="url(#clip700)" d="M-57.8038 2011.18 L-57.8038 2005.32 L-22.1558 2005.32 L-22.1558 2011.18 L-57.8038 2011.18 M-71.681 2011.18 L-71.681 2005.32 L-64.265 2005.32 L-64.265 2011.18 L-71.681 2011.18 Z" fill="#000000" fill-rule="nonzero" fill-opacity="1" /><path clip-path="url(#clip700)" d="M-56.7535 1970.34 L-51.2153 1970.34 Q-52.4884 1972.83 -53.125 1975.5 Q-53.7616 1978.17 -53.7616 1981.04 Q-53.7616 1985.4 -52.4248 1987.6 Q-51.088 1989.76 -48.4144 1989.76 Q-46.3774 1989.76 -45.1997 1988.2 Q-44.0539 1986.64 -43.0035 1981.93 L-42.5579 1979.92 Q-41.2211 1973.69 -38.7703 1971.08 Q-36.3514 1968.43 -31.9909 1968.43 Q-27.0256 1968.43 -24.1292 1972.38 Q-21.2328 1976.3 -21.2328 1983.17 Q-21.2328 1986.04 -21.8057 1989.15 Q-22.3468 1992.24 -23.4608 1995.68 L-29.5082 1995.68 Q-27.8213 1992.43 -26.962 1989.28 Q-26.1344 1986.13 -26.1344 1983.04 Q-26.1344 1978.91 -27.5349 1976.68 Q-28.9671 1974.45 -31.5453 1974.45 Q-33.9324 1974.45 -35.2055 1976.07 Q-36.4787 1977.66 -37.6563 1983.11 L-38.1338 1985.14 Q-39.2796 1990.59 -41.6349 1993.01 Q-44.022 1995.43 -48.1598 1995.43 Q-53.1887 1995.43 -55.9259 1991.86 Q-58.6632 1988.3 -58.6632 1981.74 Q-58.6632 1978.49 -58.1857 1975.63 Q-57.7083 1972.76 -56.7535 1970.34 Z" fill="#000000" fill-rule="nonzero" fill-opacity="1" /><path clip-path="url(#clip700)" d="M3159.53 12.096 L3171.72 12.096 L3187.16 53.2532 L3202.67 12.096 L3214.87 12.096 L3214.87 72.576 L3206.89 72.576 L3206.89 19.4686 L3191.29 60.9499 L3183.07 60.9499 L3167.47 19.4686 L3167.47 72.576 L3159.53 72.576 L3159.53 12.096 Z" fill="#000000" fill-rule="nonzero" fill-opacity="1" /><path clip-path="url(#clip700)" d="M3251.41 49.7694 Q3242.37 49.7694 3238.89 51.8354 Q3235.4 53.9013 3235.4 58.8839 Q3235.4 62.8538 3238 65.2034 Q3240.63 67.5124 3245.13 67.5124 Q3251.32 67.5124 3255.05 63.1374 Q3258.82 58.7219 3258.82 51.4303 L3258.82 49.7694 L3251.41 49.7694 M3266.27 46.6907 L3266.27 72.576 L3258.82 72.576 L3258.82 65.6895 Q3256.27 69.8214 3252.46 71.8063 Q3248.65 73.7508 3243.14 73.7508 Q3236.17 73.7508 3232.04 69.8619 Q3227.95 65.9325 3227.95 59.3701 Q3227.95 51.7138 3233.05 47.825 Q3238.2 43.9361 3248.37 43.9361 L3258.82 43.9361 L3258.82 43.2069 Q3258.82 38.0623 3255.42 35.2672 Q3252.05 32.4315 3245.94 32.4315 Q3242.05 32.4315 3238.36 33.3632 Q3234.68 34.295 3231.27 36.1584 L3231.27 29.2718 Q3235.36 27.692 3239.21 26.9223 Q3243.06 26.1121 3246.71 26.1121 Q3256.55 26.1121 3261.41 31.2163 Q3266.27 36.3204 3266.27 46.6907 Z" fill="#000000" fill-rule="nonzero" fill-opacity="1" /><path clip-path="url(#clip700)" d="M3319.34 45.1919 L3319.34 72.576 L3311.89 72.576 L3311.89 45.4349 Q3311.89 38.994 3309.37 35.7938 Q3306.86 32.5936 3301.84 32.5936 Q3295.8 32.5936 3292.32 36.4419 Q3288.84 40.2903 3288.84 46.9338 L3288.84 72.576 L3281.34 72.576 L3281.34 27.2059 L3288.84 27.2059 L3288.84 34.2544 Q3291.51 30.163 3295.11 28.1376 Q3298.76 26.1121 3303.5 26.1121 Q3311.32 26.1121 3315.33 30.9732 Q3319.34 35.7938 3319.34 45.1919 Z" fill="#000000" fill-rule="nonzero" fill-opacity="1" /><path clip-path="url(#clip700)" d="M3353.08 76.7889 Q3349.92 84.8907 3346.93 87.3618 Q3343.93 89.8329 3338.91 89.8329 L3332.95 89.8329 L3332.95 83.5945 L3337.33 83.5945 Q3340.4 83.5945 3342.11 82.1361 Q3343.81 80.6778 3345.87 75.2496 L3347.21 71.8468 L3328.86 27.2059 L3336.76 27.2059 L3350.94 62.6918 L3365.11 27.2059 L3373.01 27.2059 L3353.08 76.7889 Z" fill="#000000" fill-rule="nonzero" fill-opacity="1" /><path clip-path="url(#clip700)" d="M3446.25 14.0809 L3446.25 22.0612 Q3441.6 19.8332 3437.46 18.7395 Q3433.33 17.6457 3429.48 17.6457 Q3422.8 17.6457 3419.15 20.2383 Q3415.55 22.8309 3415.55 27.611 Q3415.55 31.6214 3417.94 33.6873 Q3420.37 35.7128 3427.09 36.9686 L3432.04 37.9813 Q3441.19 39.7232 3445.52 44.1387 Q3449.9 48.5136 3449.9 55.8863 Q3449.9 64.6767 3443.99 69.2137 Q3438.11 73.7508 3426.73 73.7508 Q3422.43 73.7508 3417.57 72.7785 Q3412.75 71.8063 3407.57 69.9024 L3407.57 61.4765 Q3412.55 64.2716 3417.33 65.6895 Q3422.11 67.1073 3426.73 67.1073 Q3433.74 67.1073 3437.54 64.3527 Q3441.35 61.598 3441.35 56.4939 Q3441.35 52.0379 3438.6 49.5264 Q3435.88 47.0148 3429.65 45.759 L3424.66 44.7868 Q3415.51 42.9639 3411.42 39.075 Q3407.32 35.1862 3407.32 28.2591 Q3407.32 20.2383 3412.96 15.6203 Q3418.63 11.0023 3428.55 11.0023 Q3432.81 11.0023 3437.22 11.7719 Q3441.64 12.5416 3446.25 14.0809 Z" fill="#000000" fill-rule="nonzero" fill-opacity="1" /><path clip-path="url(#clip700)" d="M3501.14 48.0275 L3501.14 51.6733 L3466.87 51.6733 Q3467.36 59.3701 3471.49 63.421 Q3475.66 67.4314 3483.08 67.4314 Q3487.37 67.4314 3491.38 66.3781 Q3495.43 65.3249 3499.4 63.2184 L3499.4 70.267 Q3495.39 71.9684 3491.18 72.8596 Q3486.97 73.7508 3482.63 73.7508 Q3471.77 73.7508 3465.41 67.4314 Q3459.1 61.1119 3459.1 50.3365 Q3459.1 39.1965 3465.09 32.6746 Q3471.13 26.1121 3481.33 26.1121 Q3490.49 26.1121 3495.8 32.0264 Q3501.14 37.9003 3501.14 48.0275 M3493.69 45.84 Q3493.61 39.7232 3490.25 36.0774 Q3486.93 32.4315 3481.42 32.4315 Q3475.18 32.4315 3471.41 35.9558 Q3467.68 39.4801 3467.12 45.8805 L3493.69 45.84 Z" fill="#000000" fill-rule="nonzero" fill-opacity="1" /><path clip-path="url(#clip700)" d="M3539.67 34.1734 Q3538.41 33.4443 3536.91 33.1202 Q3535.45 32.7556 3533.67 32.7556 Q3527.35 32.7556 3523.95 36.8875 Q3520.59 40.9789 3520.59 48.6757 L3520.59 72.576 L3513.09 72.576 L3513.09 27.2059 L3520.59 27.2059 L3520.59 34.2544 Q3522.94 30.1225 3526.7 28.1376 Q3530.47 26.1121 3535.86 26.1121 Q3536.63 26.1121 3537.56 26.2337 Q3538.49 26.3147 3539.63 26.5172 L3539.67 34.1734 Z" fill="#000000" fill-rule="nonzero" fill-opacity="1" /><path clip-path="url(#clip700)" d="M3547.49 27.2059 L3554.94 27.2059 L3554.94 72.576 L3547.49 72.576 L3547.49 27.2059 M3547.49 9.54393 L3554.94 9.54393 L3554.94 18.9825 L3547.49 18.9825 L3547.49 9.54393 Z" fill="#000000" fill-rule="nonzero" fill-opacity="1" /><path clip-path="url(#clip700)" d="M3609.34 48.0275 L3609.34 51.6733 L3575.07 51.6733 Q3575.56 59.3701 3579.69 63.421 Q3583.86 67.4314 3591.28 67.4314 Q3595.57 67.4314 3599.58 66.3781 Q3603.63 65.3249 3607.6 63.2184 L3607.6 70.267 Q3603.59 71.9684 3599.38 72.8596 Q3595.17 73.7508 3590.83 73.7508 Q3579.97 73.7508 3573.61 67.4314 Q3567.3 61.1119 3567.3 50.3365 Q3567.3 39.1965 3573.29 32.6746 Q3579.33 26.1121 3589.53 26.1121 Q3598.69 26.1121 3604 32.0264 Q3609.34 37.9003 3609.34 48.0275 M3601.89 45.84 Q3601.81 39.7232 3598.45 36.0774 Q3595.12 32.4315 3589.62 32.4315 Q3583.38 32.4315 3579.61 35.9558 Q3575.88 39.4801 3575.32 45.8805 L3601.89 45.84 Z" fill="#000000" fill-rule="nonzero" fill-opacity="1" /><path clip-path="url(#clip700)" d="M3650.5 28.5427 L3650.5 35.5912 Q3647.34 33.9709 3643.94 33.1607 Q3640.54 32.3505 3636.89 32.3505 Q3631.34 32.3505 3628.54 34.0519 Q3625.79 35.7533 3625.79 39.156 Q3625.79 41.7486 3627.78 43.2475 Q3629.76 44.7058 3635.76 46.0426 L3638.31 46.6097 Q3646.25 48.3111 3649.57 51.4303 Q3652.93 54.509 3652.93 60.0587 Q3652.93 66.3781 3647.91 70.0644 Q3642.93 73.7508 3634.18 73.7508 Q3630.53 73.7508 3626.56 73.0216 Q3622.63 72.3329 3618.26 70.9151 L3618.26 63.2184 Q3622.39 65.3654 3626.4 66.4591 Q3630.41 67.5124 3634.34 67.5124 Q3639.6 67.5124 3642.44 65.73 Q3645.27 63.9071 3645.27 60.6258 Q3645.27 57.5877 3643.21 55.9673 Q3641.18 54.3469 3634.26 52.8481 L3631.66 52.2405 Q3624.74 50.7821 3621.66 47.7845 Q3618.58 44.7463 3618.58 39.4801 Q3618.58 33.0797 3623.12 29.5959 Q3627.65 26.1121 3636 26.1121 Q3640.13 26.1121 3643.78 26.7198 Q3647.42 27.3274 3650.5 28.5427 Z" fill="#000000" fill-rule="nonzero" fill-opacity="1" /><polyline clip-path="url(#clip702)" style="stroke:#009af9; stroke-linecap:round; stroke-linejoin:round; stroke-width:4; stroke-opacity:1; fill:none" points="437.811,2774.14 750.277,3671.47 1062.74,3390.66 1375.21,2985.96 1687.67,243.228 2000.14,625.321 2312.6,437.35 2625.07,2172.35 2937.53,1875.13 3250,1424.68 3562.46,3481.58 3874.93,1462.01 4187.39,3008.97 4499.86,2291.88 4812.32,3123.62 5124.79,3159.96 5437.26,2710.89 5749.72,1662.54 6062.19,1799.04 6374.65,3429.95 "/>
<polyline clip-path="url(#clip702)" style="stroke:#e26f46; stroke-linecap:round; stroke-linejoin:round; stroke-width:4; stroke-opacity:1; fill:none" points="437.811,424.2 750.277,516.233 1062.74,2858.69 1375.21,2768.68 1687.67,3193.53 2000.14,329.44 2312.6,2704.52 2625.07,2249.48 2937.53,521.112 3250,950.98 3562.46,856.791 3874.93,1983.09 4187.39,1863.2 4499.86,3891.09 4812.32,2746.48 5124.79,3172.91 5437.26,230.54 5749.72,690.881 6062.19,1223.54 6374.65,1435.32 "/>
<path clip-path="url(#clip700)" d="M5690.49 405.583 L6342.99 405.583 L6342.99 250.063 L5690.49 250.063  Z" fill="#ffffff" fill-rule="evenodd" fill-opacity="1"/>
<polyline clip-path="url(#clip700)" style="stroke:#000000; stroke-linecap:round; stroke-linejoin:round; stroke-width:4; stroke-opacity:1; fill:none" points="5690.49,405.583 6342.99,405.583 6342.99,250.063 5690.49,250.063 5690.49,405.583 "/>
<polyline clip-path="url(#clip700)" style="stroke:#009af9; stroke-linecap:round; stroke-linejoin:round; stroke-width:4; stroke-opacity:1; fill:none" points="5760.41,301.903 6179.95,301.903 "/>
<path clip-path="url(#clip700)" d="M6263.27 306.15 Q6258.11 306.15 6256.12 307.331 Q6254.13 308.511 6254.13 311.359 Q6254.13 313.627 6255.61 314.97 Q6257.12 316.289 6259.69 316.289 Q6263.23 316.289 6265.36 313.789 Q6267.51 311.266 6267.51 307.099 L6267.51 306.15 L6263.27 306.15 M6271.77 304.391 L6271.77 319.183 L6267.51 319.183 L6267.51 315.247 Q6266.05 317.609 6263.88 318.743 Q6261.7 319.854 6258.55 319.854 Q6254.57 319.854 6252.21 317.632 Q6249.87 315.386 6249.87 311.636 Q6249.87 307.261 6252.79 305.039 Q6255.73 302.817 6261.54 302.817 L6267.51 302.817 L6267.51 302.4 Q6267.51 299.461 6265.56 297.863 Q6263.64 296.243 6260.15 296.243 Q6257.93 296.243 6255.82 296.775 Q6253.71 297.308 6251.77 298.373 L6251.77 294.437 Q6254.11 293.535 6256.31 293.095 Q6258.5 292.632 6260.59 292.632 Q6266.21 292.632 6268.99 295.548 Q6271.77 298.465 6271.77 304.391 Z" fill="#000000" fill-rule="nonzero" fill-opacity="1" /><polyline clip-path="url(#clip700)" style="stroke:#e26f46; stroke-linecap:round; stroke-linejoin:round; stroke-width:4; stroke-opacity:1; fill:none" points="5760.41,353.743 6179.95,353.743 "/>
<path clip-path="url(#clip700)" d="M6268.64 358.083 Q6268.64 353.384 6266.7 350.722 Q6264.78 348.037 6261.4 348.037 Q6258.02 348.037 6256.07 350.722 Q6254.15 353.384 6254.15 358.083 Q6254.15 362.782 6256.07 365.467 Q6258.02 368.129 6261.4 368.129 Q6264.78 368.129 6266.7 365.467 Q6268.64 362.782 6268.64 358.083 M6254.15 349.032 Q6255.5 346.717 6257.53 345.606 Q6259.59 344.472 6262.44 344.472 Q6267.16 344.472 6270.1 348.222 Q6273.06 351.972 6273.06 358.083 Q6273.06 364.194 6270.1 367.944 Q6267.16 371.694 6262.44 371.694 Q6259.59 371.694 6257.53 370.583 Q6255.5 369.449 6254.15 367.134 L6254.15 371.023 L6249.87 371.023 L6249.87 335.004 L6254.15 335.004 L6254.15 349.032 Z" fill="#000000" fill-rule="nonzero" fill-opacity="1" /></svg>
