<?xml version="1.0" encoding="utf-8"?>
<svg xmlns="http://www.w3.org/2000/svg" xmlns:xlink="http://www.w3.org/1999/xlink" width="1650" height="1050" viewBox="0 0 6600 4200">
<defs>
  <clipPath id="clip760">
    <rect x="0" y="0" width="6600" height="4200"/>
  </clipPath>
</defs>
<path clip-path="url(#clip760)" d="M0 4200 L6600 4200 L6600 6.66134e-14 L0 6.66134e-14  Z" fill="#ffffff" fill-rule="evenodd" fill-opacity="1"/>
<defs>
  <clipPath id="clip761">
    <rect x="1320" y="0" width="4621" height="4200"/>
  </clipPath>
</defs>
<path clip-path="url(#clip760)" d="M182.696 4062.02 L6552.76 4062.02 L6552.76 120.723 L182.696 120.723  Z" fill="#ffffff" fill-rule="evenodd" fill-opacity="1"/>
<defs>
  <clipPath id="clip762">
    <rect x="182" y="120" width="6371" height="3942"/>
  </clipPath>
</defs>
<polyline clip-path="url(#clip762)" style="stroke:#000000; stroke-linecap:round; stroke-linejoin:round; stroke-width:2; stroke-opacity:0.1; fill:none" points="1129.83,4062.02 1129.83,120.723 "/>
<polyline clip-path="url(#clip762)" style="stroke:#000000; stroke-linecap:round; stroke-linejoin:round; stroke-width:2; stroke-opacity:0.1; fill:none" points="2621.76,4062.02 2621.76,120.723 "/>
<polyline clip-path="url(#clip762)" style="stroke:#000000; stroke-linecap:round; stroke-linejoin:round; stroke-width:2; stroke-opacity:0.1; fill:none" points="4113.69,4062.02 4113.69,120.723 "/>
<polyline clip-path="url(#clip762)" style="stroke:#000000; stroke-linecap:round; stroke-linejoin:round; stroke-width:2; stroke-opacity:0.1; fill:none" points="5605.62,4062.02 5605.62,120.723 "/>
<polyline clip-path="url(#clip762)" style="stroke:#000000; stroke-linecap:round; stroke-linejoin:round; stroke-width:2; stroke-opacity:0.1; fill:none" points="182.696,4062.02 6552.76,4062.02 "/>
<polyline clip-path="url(#clip762)" style="stroke:#000000; stroke-linecap:round; stroke-linejoin:round; stroke-width:2; stroke-opacity:0.1; fill:none" points="182.696,2748.25 6552.76,2748.25 "/>
<polyline clip-path="url(#clip762)" style="stroke:#000000; stroke-linecap:round; stroke-linejoin:round; stroke-width:2; stroke-opacity:0.1; fill:none" points="182.696,1434.49 6552.76,1434.49 "/>
<polyline clip-path="url(#clip762)" style="stroke:#000000; stroke-linecap:round; stroke-linejoin:round; stroke-width:2; stroke-opacity:0.1; fill:none" points="182.696,120.723 6552.76,120.723 "/>
<polyline clip-path="url(#clip760)" style="stroke:#000000; stroke-linecap:round; stroke-linejoin:round; stroke-width:4; stroke-opacity:1; fill:none" points="182.696,4062.02 6552.76,4062.02 "/>
<polyline clip-path="url(#clip760)" style="stroke:#000000; stroke-linecap:round; stroke-linejoin:round; stroke-width:4; stroke-opacity:1; fill:none" points="1129.83,4062.02 1129.83,4043.12 "/>
<polyline clip-path="url(#clip760)" style="stroke:#000000; stroke-linecap:round; stroke-linejoin:round; stroke-width:4; stroke-opacity:1; fill:none" points="2621.76,4062.02 2621.76,4043.12 "/>
<polyline clip-path="url(#clip760)" style="stroke:#000000; stroke-linecap:round; stroke-linejoin:round; stroke-width:4; stroke-opacity:1; fill:none" points="4113.69,4062.02 4113.69,4043.12 "/>
<polyline clip-path="url(#clip760)" style="stroke:#000000; stroke-linecap:round; stroke-linejoin:round; stroke-width:4; stroke-opacity:1; fill:none" points="5605.62,4062.02 5605.62,4043.12 "/>
<path clip-path="url(#clip760)" d="M1129.83 4128.07 L1123.49 4145.26 L1136.2 4145.26 L1129.83 4128.07 M1127.19 4123.46 L1132.49 4123.46 L1145.67 4158.02 L1140.8 4158.02 L1137.66 4149.15 L1122.08 4149.15 L1118.93 4158.02 L1114 4158.02 L1127.19 4123.46 Z" fill="#000000" fill-rule="nonzero" fill-opacity="1" /><path clip-path="url(#clip760)" d="M2614.18 4141.51 L2614.18 4154.18 L2621.68 4154.18 Q2625.45 4154.18 2627.26 4152.63 Q2629.09 4151.05 2629.09 4147.83 Q2629.09 4144.59 2627.26 4143.07 Q2625.45 4141.51 2621.68 4141.51 L2614.18 4141.51 M2614.18 4127.3 L2614.18 4137.72 L2621.1 4137.72 Q2624.53 4137.72 2626.19 4136.44 Q2627.88 4135.15 2627.88 4132.51 Q2627.88 4129.89 2626.19 4128.6 Q2624.53 4127.3 2621.1 4127.3 L2614.18 4127.3 M2609.5 4123.46 L2621.45 4123.46 Q2626.8 4123.46 2629.69 4125.68 Q2632.58 4127.9 2632.58 4132 Q2632.58 4135.17 2631.1 4137.05 Q2629.62 4138.92 2626.75 4139.38 Q2630.2 4140.13 2632.1 4142.49 Q2634.02 4144.82 2634.02 4148.34 Q2634.02 4152.97 2630.87 4155.5 Q2627.72 4158.02 2621.91 4158.02 L2609.5 4158.02 L2609.5 4123.46 Z" fill="#000000" fill-rule="nonzero" fill-opacity="1" /><path clip-path="url(#clip760)" d="M4127.63 4126.12 L4127.63 4131.05 Q4125.26 4128.85 4122.58 4127.76 Q4119.92 4126.68 4116.91 4126.68 Q4110.98 4126.68 4107.83 4130.31 Q4104.69 4133.92 4104.69 4140.77 Q4104.69 4147.6 4107.83 4151.24 Q4110.98 4154.85 4116.91 4154.85 Q4119.92 4154.85 4122.58 4153.76 Q4125.26 4152.67 4127.63 4150.47 L4127.63 4155.36 Q4125.17 4157.02 4122.42 4157.86 Q4119.69 4158.69 4116.63 4158.69 Q4108.78 4158.69 4104.27 4153.9 Q4099.76 4149.08 4099.76 4140.77 Q4099.76 4132.44 4104.27 4127.65 Q4108.78 4122.83 4116.63 4122.83 Q4119.73 4122.83 4122.46 4123.67 Q4125.22 4124.48 4127.63 4126.12 Z" fill="#000000" fill-rule="nonzero" fill-opacity="1" /><path clip-path="url(#clip760)" d="M5595.77 4127.3 L5595.77 4154.18 L5601.42 4154.18 Q5608.57 4154.18 5611.88 4150.94 Q5615.21 4147.69 5615.21 4140.7 Q5615.21 4133.76 5611.88 4130.54 Q5608.57 4127.3 5601.42 4127.3 L5595.77 4127.3 M5591.09 4123.46 L5600.7 4123.46 Q5610.75 4123.46 5615.45 4127.65 Q5620.14 4131.82 5620.14 4140.7 Q5620.14 4149.64 5615.42 4153.83 Q5610.7 4158.02 5600.7 4158.02 L5591.09 4158.02 L5591.09 4123.46 Z" fill="#000000" fill-rule="nonzero" fill-opacity="1" /><polyline clip-path="url(#clip760)" style="stroke:#000000; stroke-linecap:round; stroke-linejoin:round; stroke-width:4; stroke-opacity:1; fill:none" points="182.696,4062.02 182.696,120.723 "/>
<polyline clip-path="url(#clip760)" style="stroke:#000000; stroke-linecap:round; stroke-linejoin:round; stroke-width:4; stroke-opacity:1; fill:none" points="182.696,4062.02 201.593,4062.02 "/>
<polyline clip-path="url(#clip760)" style="stroke:#000000; stroke-linecap:round; stroke-linejoin:round; stroke-width:4; stroke-opacity:1; fill:none" points="182.696,2748.25 201.593,2748.25 "/>
<polyline clip-path="url(#clip760)" style="stroke:#000000; stroke-linecap:round; stroke-linejoin:round; stroke-width:4; stroke-opacity:1; fill:none" points="182.696,1434.49 201.593,1434.49 "/>
<polyline clip-path="url(#clip760)" style="stroke:#000000; stroke-linecap:round; stroke-linejoin:round; stroke-width:4; stroke-opacity:1; fill:none" points="182.696,120.723 201.593,120.723 "/>
<path clip-path="url(#clip760)" d="M71.7512 4047.82 Q68.1401 4047.82 66.3114 4051.38 Q64.5058 4054.92 64.5058 4062.05 Q64.5058 4069.16 66.3114 4072.72 Q68.1401 4076.27 71.7512 4076.27 Q75.3854 4076.27 77.1909 4072.72 Q79.0196 4069.16 79.0196 4062.05 Q79.0196 4054.92 77.1909 4051.38 Q75.3854 4047.82 71.7512 4047.82 M71.7512 4044.11 Q77.5613 4044.11 80.6169 4048.72 Q83.6955 4053.3 83.6955 4062.05 Q83.6955 4070.78 80.6169 4075.39 Q77.5613 4079.97 71.7512 4079.97 Q65.941 4079.97 62.8623 4075.39 Q59.8068 4070.78 59.8068 4062.05 Q59.8068 4053.3 62.8623 4048.72 Q65.941 4044.11 71.7512 4044.11 Z" fill="#000000" fill-rule="nonzero" fill-opacity="1" /><path clip-path="url(#clip760)" d="M32.3995 2761.6 L40.0384 2761.6 L40.0384 2735.23 L31.7282 2736.9 L31.7282 2732.64 L39.9921 2730.97 L44.668 2730.97 L44.668 2761.6 L52.3068 2761.6 L52.3068 2765.53 L32.3995 2765.53 L32.3995 2761.6 Z" fill="#000000" fill-rule="nonzero" fill-opacity="1" /><path clip-path="url(#clip760)" d="M71.7512 2734.05 Q68.1401 2734.05 66.3114 2737.62 Q64.5058 2741.16 64.5058 2748.29 Q64.5058 2755.39 66.3114 2758.96 Q68.1401 2762.5 71.7512 2762.5 Q75.3854 2762.5 77.1909 2758.96 Q79.0196 2755.39 79.0196 2748.29 Q79.0196 2741.16 77.1909 2737.62 Q75.3854 2734.05 71.7512 2734.05 M71.7512 2730.35 Q77.5613 2730.35 80.6169 2734.95 Q83.6955 2739.54 83.6955 2748.29 Q83.6955 2757.02 80.6169 2761.62 Q77.5613 2766.2 71.7512 2766.2 Q65.941 2766.2 62.8623 2761.62 Q59.8068 2757.02 59.8068 2748.29 Q59.8068 2739.54 62.8623 2734.95 Q65.941 2730.35 71.7512 2730.35 Z" fill="#000000" fill-rule="nonzero" fill-opacity="1" /><path clip-path="url(#clip760)" d="M35.6171 1447.83 L51.9365 1447.83 L51.9365 1451.77 L29.9921 1451.77 L29.9921 1447.83 Q32.6541 1445.08 37.2375 1440.45 Q41.8439 1435.8 43.0245 1434.45 Q45.2698 1431.93 46.1494 1430.19 Q47.0522 1428.44 47.0522 1426.75 Q47.0522 1423.99 45.1078 1422.25 Q43.1865 1420.52 40.0847 1420.52 Q37.8856 1420.52 35.4319 1421.28 Q33.0014 1422.05 30.2236 1423.6 L30.2236 1418.87 Q33.0477 1417.74 35.5014 1417.16 Q37.955 1416.58 39.9921 1416.58 Q45.3624 1416.58 48.5568 1419.27 Q51.7513 1421.95 51.7513 1426.44 Q51.7513 1428.57 50.9411 1430.5 Q50.1541 1432.39 48.0476 1434.99 Q47.4689 1435.66 44.367 1438.87 Q41.2652 1442.07 35.6171 1447.83 Z" fill="#000000" fill-rule="nonzero" fill-opacity="1" /><path clip-path="url(#clip760)" d="M71.7512 1420.29 Q68.1401 1420.29 66.3114 1423.85 Q64.5058 1427.39 64.5058 1434.52 Q64.5058 1441.63 66.3114 1445.19 Q68.1401 1448.74 71.7512 1448.74 Q75.3854 1448.74 77.1909 1445.19 Q79.0196 1441.63 79.0196 1434.52 Q79.0196 1427.39 77.1909 1423.85 Q75.3854 1420.29 71.7512 1420.29 M71.7512 1416.58 Q77.5613 1416.58 80.6169 1421.19 Q83.6955 1425.77 83.6955 1434.52 Q83.6955 1443.25 80.6169 1447.86 Q77.5613 1452.44 71.7512 1452.44 Q65.941 1452.44 62.8623 1447.86 Q59.8068 1443.25 59.8068 1434.52 Q59.8068 1425.77 62.8623 1421.19 Q65.941 1416.58 71.7512 1416.58 Z" fill="#000000" fill-rule="nonzero" fill-opacity="1" /><path clip-path="url(#clip760)" d="M45.7559 119.369 Q49.1124 120.086 50.9874 122.355 Q52.8855 124.623 52.8855 127.957 Q52.8855 133.073 49.367 135.873 Q45.8485 138.674 39.3671 138.674 Q37.1912 138.674 34.8764 138.235 Q32.5847 137.818 30.131 136.961 L30.131 132.448 Q32.0754 133.582 34.3903 134.16 Q36.7051 134.739 39.2282 134.739 Q43.6263 134.739 45.918 133.003 Q48.2328 131.267 48.2328 127.957 Q48.2328 124.901 46.08 123.188 Q43.9504 121.452 40.131 121.452 L36.1032 121.452 L36.1032 117.61 L40.3161 117.61 Q43.7652 117.61 45.5939 116.244 Q47.4226 114.855 47.4226 112.262 Q47.4226 109.6 45.5245 108.188 Q43.6495 106.753 40.131 106.753 Q38.2097 106.753 36.0106 107.17 Q33.8115 107.587 31.1727 108.466 L31.1727 104.3 Q33.8347 103.559 36.1495 103.188 Q38.4875 102.818 40.5476 102.818 Q45.8717 102.818 48.9735 105.249 Q52.0753 107.656 52.0753 111.776 Q52.0753 114.647 50.4318 116.637 Q48.7883 118.605 45.7559 119.369 Z" fill="#000000" fill-rule="nonzero" fill-opacity="1" /><path clip-path="url(#clip760)" d="M71.7512 106.522 Q68.1401 106.522 66.3114 110.087 Q64.5058 113.628 64.5058 120.758 Q64.5058 127.864 66.3114 131.429 Q68.1401 134.971 71.7512 134.971 Q75.3854 134.971 77.1909 131.429 Q79.0196 127.864 79.0196 120.758 Q79.0196 113.628 77.1909 110.087 Q75.3854 106.522 71.7512 106.522 M71.7512 102.818 Q77.5613 102.818 80.6169 107.424 Q83.6955 112.008 83.6955 120.758 Q83.6955 129.485 80.6169 134.091 Q77.5613 138.674 71.7512 138.674 Q65.941 138.674 62.8623 134.091 Q59.8068 129.485 59.8068 120.758 Q59.8068 112.008 62.8623 107.424 Q65.941 102.818 71.7512 102.818 Z" fill="#000000" fill-rule="nonzero" fill-opacity="1" /><path clip-path="url(#clip760)" d="M3026.74 43.6931 L3026.74 65.8515 L3039.87 65.8515 Q3046.47 65.8515 3049.63 63.1374 Q3052.83 60.3828 3052.83 54.752 Q3052.83 49.0808 3049.63 46.4072 Q3046.47 43.6931 3039.87 43.6931 L3026.74 43.6931 M3026.74 18.8205 L3026.74 37.0496 L3038.85 37.0496 Q3044.85 37.0496 3047.77 34.8216 Q3050.72 32.5531 3050.72 27.935 Q3050.72 23.3575 3047.77 21.089 Q3044.85 18.8205 3038.85 18.8205 L3026.74 18.8205 M3018.56 12.096 L3039.46 12.096 Q3048.82 12.096 3053.88 15.9849 Q3058.95 19.8737 3058.95 27.0438 Q3058.95 32.5936 3056.35 35.8748 Q3053.76 39.156 3048.74 39.9662 Q3054.77 41.2625 3058.09 45.3944 Q3061.46 49.4858 3061.46 55.6432 Q3061.46 63.745 3055.95 68.1605 Q3050.44 72.576 3040.27 72.576 L3018.56 72.576 L3018.56 12.096 Z" fill="#000000" fill-rule="nonzero" fill-opacity="1" /><path clip-path="url(#clip760)" d="M3095.77 49.7694 Q3086.73 49.7694 3083.25 51.8354 Q3079.77 53.9013 3079.77 58.8839 Q3079.77 62.8538 3082.36 65.2034 Q3084.99 67.5124 3089.49 67.5124 Q3095.69 67.5124 3099.41 63.1374 Q3103.18 58.7219 3103.18 51.4303 L3103.18 49.7694 L3095.77 49.7694 M3110.64 46.6907 L3110.64 72.576 L3103.18 72.576 L3103.18 65.6895 Q3100.63 69.8214 3096.82 71.8063 Q3093.01 73.7508 3087.5 73.7508 Q3080.54 73.7508 3076.4 69.8619 Q3072.31 65.9325 3072.31 59.3701 Q3072.31 51.7138 3077.42 47.825 Q3082.56 43.9361 3092.73 43.9361 L3103.18 43.9361 L3103.18 43.2069 Q3103.18 38.0623 3099.78 35.2672 Q3096.42 32.4315 3090.3 32.4315 Q3086.41 32.4315 3082.72 33.3632 Q3079.04 34.295 3075.64 36.1584 L3075.64 29.2718 Q3079.73 27.692 3083.58 26.9223 Q3087.42 26.1121 3091.07 26.1121 Q3100.91 26.1121 3105.77 31.2163 Q3110.64 36.3204 3110.64 46.6907 Z" fill="#000000" fill-rule="nonzero" fill-opacity="1" /><path clip-path="url(#clip760)" d="M3152.28 34.1734 Q3151.02 33.4443 3149.52 33.1202 Q3148.07 32.7556 3146.28 32.7556 Q3139.96 32.7556 3136.56 36.8875 Q3133.2 40.9789 3133.2 48.6757 L3133.2 72.576 L3125.7 72.576 L3125.7 27.2059 L3133.2 27.2059 L3133.2 34.2544 Q3135.55 30.1225 3139.32 28.1376 Q3143.08 26.1121 3148.47 26.1121 Q3149.24 26.1121 3150.17 26.2337 Q3151.1 26.3147 3152.24 26.5172 L3152.28 34.1734 Z" fill="#000000" fill-rule="nonzero" fill-opacity="1" /><path clip-path="url(#clip760)" d="M3194.97 18.8205 L3194.97 41.5461 L3205.26 41.5461 Q3210.98 41.5461 3214.1 38.5889 Q3217.21 35.6318 3217.21 30.163 Q3217.21 24.7348 3214.1 21.7777 Q3210.98 18.8205 3205.26 18.8205 L3194.97 18.8205 M3186.79 12.096 L3205.26 12.096 Q3215.43 12.096 3220.62 16.714 Q3225.84 21.2916 3225.84 30.163 Q3225.84 39.1155 3220.62 43.6931 Q3215.43 48.2706 3205.26 48.2706 L3194.97 48.2706 L3194.97 72.576 L3186.79 72.576 L3186.79 12.096 Z" fill="#000000" fill-rule="nonzero" fill-opacity="1" /><path clip-path="url(#clip760)" d="M3236.5 9.54393 L3243.95 9.54393 L3243.95 72.576 L3236.5 72.576 L3236.5 9.54393 Z" fill="#000000" fill-rule="nonzero" fill-opacity="1" /><path clip-path="url(#clip760)" d="M3277.13 32.4315 Q3271.13 32.4315 3267.65 37.1306 Q3264.16 41.7891 3264.16 49.9314 Q3264.16 58.0738 3267.61 62.7728 Q3271.09 67.4314 3277.13 67.4314 Q3283.08 67.4314 3286.57 62.7323 Q3290.05 58.0333 3290.05 49.9314 Q3290.05 41.8701 3286.57 37.1711 Q3283.08 32.4315 3277.13 32.4315 M3277.13 26.1121 Q3286.85 26.1121 3292.4 32.4315 Q3297.95 38.7509 3297.95 49.9314 Q3297.95 61.0714 3292.4 67.4314 Q3286.85 73.7508 3277.13 73.7508 Q3267.36 73.7508 3261.81 67.4314 Q3256.31 61.0714 3256.31 49.9314 Q3256.31 38.7509 3261.81 32.4315 Q3267.36 26.1121 3277.13 26.1121 Z" fill="#000000" fill-rule="nonzero" fill-opacity="1" /><path clip-path="url(#clip760)" d="M3317.68 14.324 L3317.68 27.2059 L3333.03 27.2059 L3333.03 32.9987 L3317.68 32.9987 L3317.68 57.6282 Q3317.68 63.1779 3319.18 64.7578 Q3320.71 66.3376 3325.37 66.3376 L3333.03 66.3376 L3333.03 72.576 L3325.37 72.576 Q3316.75 72.576 3313.46 69.3758 Q3310.18 66.1351 3310.18 57.6282 L3310.18 32.9987 L3304.71 32.9987 L3304.71 27.2059 L3310.18 27.2059 L3310.18 14.324 L3317.68 14.324 Z" fill="#000000" fill-rule="nonzero" fill-opacity="1" /><path clip-path="url(#clip760)" d="M3369.53 12.096 L3407.77 12.096 L3407.77 18.9825 L3377.71 18.9825 L3377.71 36.8875 L3406.51 36.8875 L3406.51 43.7741 L3377.71 43.7741 L3377.71 65.6895 L3408.5 65.6895 L3408.5 72.576 L3369.53 72.576 L3369.53 12.096 Z" fill="#000000" fill-rule="nonzero" fill-opacity="1" /><path clip-path="url(#clip760)" d="M3459.34 27.2059 L3442.93 49.2833 L3460.19 72.576 L3451.4 72.576 L3438.19 54.752 L3424.99 72.576 L3416.19 72.576 L3433.82 48.8377 L3417.69 27.2059 L3426.48 27.2059 L3438.52 43.369 L3450.55 27.2059 L3459.34 27.2059 Z" fill="#000000" fill-rule="nonzero" fill-opacity="1" /><path clip-path="url(#clip760)" d="M3491.34 49.7694 Q3482.31 49.7694 3478.82 51.8354 Q3475.34 53.9013 3475.34 58.8839 Q3475.34 62.8538 3477.93 65.2034 Q3480.56 67.5124 3485.06 67.5124 Q3491.26 67.5124 3494.98 63.1374 Q3498.75 58.7219 3498.75 51.4303 L3498.75 49.7694 L3491.34 49.7694 M3506.21 46.6907 L3506.21 72.576 L3498.75 72.576 L3498.75 65.6895 Q3496.2 69.8214 3492.39 71.8063 Q3488.58 73.7508 3483.08 73.7508 Q3476.11 73.7508 3471.98 69.8619 Q3467.88 65.9325 3467.88 59.3701 Q3467.88 51.7138 3472.99 47.825 Q3478.13 43.9361 3488.3 43.9361 L3498.75 43.9361 L3498.75 43.2069 Q3498.75 38.0623 3495.35 35.2672 Q3491.99 32.4315 3485.87 32.4315 Q3481.98 32.4315 3478.3 33.3632 Q3474.61 34.295 3471.21 36.1584 L3471.21 29.2718 Q3475.3 27.692 3479.15 26.9223 Q3482.99 26.1121 3486.64 26.1121 Q3496.48 26.1121 3501.34 31.2163 Q3506.21 36.3204 3506.21 46.6907 Z" fill="#000000" fill-rule="nonzero" fill-opacity="1" /><path clip-path="url(#clip760)" d="M3556.88 35.9153 Q3559.68 30.8922 3563.57 28.5022 Q3567.46 26.1121 3572.72 26.1121 Q3579.81 26.1121 3583.66 31.0947 Q3587.51 36.0368 3587.51 45.1919 L3587.51 72.576 L3580.01 72.576 L3580.01 45.4349 Q3580.01 38.913 3577.7 35.7533 Q3575.4 32.5936 3570.66 32.5936 Q3564.86 32.5936 3561.5 36.4419 Q3558.14 40.2903 3558.14 46.9338 L3558.14 72.576 L3550.64 72.576 L3550.64 45.4349 Q3550.64 38.8725 3548.34 35.7533 Q3546.03 32.5936 3541.21 32.5936 Q3535.49 32.5936 3532.13 36.4824 Q3528.77 40.3308 3528.77 46.9338 L3528.77 72.576 L3521.28 72.576 L3521.28 27.2059 L3528.77 27.2059 L3528.77 34.2544 Q3531.32 30.082 3534.89 28.0971 Q3538.45 26.1121 3543.35 26.1121 Q3548.29 26.1121 3551.74 28.6237 Q3555.22 31.1352 3556.88 35.9153 Z" fill="#000000" fill-rule="nonzero" fill-opacity="1" /><path clip-path="url(#clip760)" d="M3609.58 65.7705 L3609.58 89.8329 L3602.09 89.8329 L3602.09 27.2059 L3609.58 27.2059 L3609.58 34.0924 Q3611.93 30.0415 3615.5 28.0971 Q3619.1 26.1121 3624.09 26.1121 Q3632.35 26.1121 3637.5 32.6746 Q3642.68 39.2371 3642.68 49.9314 Q3642.68 60.6258 3637.5 67.1883 Q3632.35 73.7508 3624.09 73.7508 Q3619.1 73.7508 3615.5 71.8063 Q3611.93 69.8214 3609.58 65.7705 M3634.94 49.9314 Q3634.94 41.7081 3631.54 37.0496 Q3628.18 32.3505 3622.26 32.3505 Q3616.35 32.3505 3612.95 37.0496 Q3609.58 41.7081 3609.58 49.9314 Q3609.58 58.1548 3612.95 62.8538 Q3616.35 67.5124 3622.26 67.5124 Q3628.18 67.5124 3631.54 62.8538 Q3634.94 58.1548 3634.94 49.9314 Z" fill="#000000" fill-rule="nonzero" fill-opacity="1" /><path clip-path="url(#clip760)" d="M3655.04 9.54393 L3662.49 9.54393 L3662.49 72.576 L3655.04 72.576 L3655.04 9.54393 Z" fill="#000000" fill-rule="nonzero" fill-opacity="1" /><path clip-path="url(#clip760)" d="M3716.89 48.0275 L3716.89 51.6733 L3682.62 51.6733 Q3683.11 59.3701 3687.24 63.421 Q3691.41 67.4314 3698.83 67.4314 Q3703.12 67.4314 3707.13 66.3781 Q3711.18 65.3249 3715.15 63.2184 L3715.15 70.267 Q3711.14 71.9684 3706.93 72.8596 Q3702.72 73.7508 3698.38 73.7508 Q3687.52 73.7508 3681.16 67.4314 Q3674.85 61.1119 3674.85 50.3365 Q3674.85 39.1965 3680.84 32.6746 Q3686.88 26.1121 3697.08 26.1121 Q3706.24 26.1121 3711.55 32.0264 Q3716.89 37.9003 3716.89 48.0275 M3709.44 45.84 Q3709.36 39.7232 3706 36.0774 Q3702.67 32.4315 3697.17 32.4315 Q3690.93 32.4315 3687.16 35.9558 Q3683.43 39.4801 3682.87 45.8805 L3709.44 45.84 Z" fill="#000000" fill-rule="nonzero" fill-opacity="1" /><path clip-path="url(#clip762)" d="M533.06 2091.37 L533.06 4062.02 L1726.6 4062.02 L1726.6 2091.37 L533.06 2091.37 L533.06 2091.37  Z" fill="#009af9" fill-rule="evenodd" fill-opacity="1"/>
<polyline clip-path="url(#clip762)" style="stroke:#000000; stroke-linecap:round; stroke-linejoin:round; stroke-width:4; stroke-opacity:1; fill:none" points="533.06,2091.37 533.06,4062.02 1726.6,4062.02 1726.6,2091.37 533.06,2091.37 "/>
<path clip-path="url(#clip762)" d="M2024.99 1040.36 L2024.99 4062.02 L3218.53 4062.02 L3218.53 1040.36 L2024.99 1040.36 L2024.99 1040.36  Z" fill="#009af9" fill-rule="evenodd" fill-opacity="1"/>
<polyline clip-path="url(#clip762)" style="stroke:#000000; stroke-linecap:round; stroke-linejoin:round; stroke-width:4; stroke-opacity:1; fill:none" points="2024.99,1040.36 2024.99,4062.02 3218.53,4062.02 3218.53,1040.36 2024.99,1040.36 "/>
<path clip-path="url(#clip762)" d="M3516.92 1697.24 L3516.92 4062.02 L4710.46 4062.02 L4710.46 1697.24 L3516.92 1697.24 L3516.92 1697.24  Z" fill="#009af9" fill-rule="evenodd" fill-opacity="1"/>
<polyline clip-path="url(#clip762)" style="stroke:#000000; stroke-linecap:round; stroke-linejoin:round; stroke-width:4; stroke-opacity:1; fill:none" points="3516.92,1697.24 3516.92,4062.02 4710.46,4062.02 4710.46,1697.24 3516.92,1697.24 "/>
<path clip-path="url(#clip762)" d="M5008.85 120.723 L5008.85 4062.02 L6202.39 4062.02 L6202.39 120.723 L5008.85 120.723 L5008.85 120.723  Z" fill="#009af9" fill-rule="evenodd" fill-opacity="1"/>
<polyline clip-path="url(#clip762)" style="stroke:#000000; stroke-linecap:round; stroke-linejoin:round; stroke-width:4; stroke-opacity:1; fill:none" points="5008.85,120.723 5008.85,4062.02 6202.39,4062.02 6202.39,120.723 5008.85,120.723 "/>
<circle clip-path="url(#clip762)" style="fill:#009af9; stroke:none; fill-opacity:0" cx="1129.83" cy="2091.37" r="2"/>
<circle clip-path="url(#clip762)" style="fill:#009af9; stroke:none; fill-opacity:0" cx="2621.76" cy="1040.36" r="2"/>
<circle clip-path="url(#clip762)" style="fill:#009af9; stroke:none; fill-opacity:0" cx="4113.69" cy="1697.24" r="2"/>
<path clip-path="url(#clip760)" d="M395.031 355.78 L1084.47 355.78 L1084.47 252.1 L395.031 252.1  Z" fill="#ffffff" fill-rule="evenodd" fill-opacity="1"/>
<polyline clip-path="url(#clip760)" style="stroke:#000000; stroke-linecap:round; stroke-linejoin:round; stroke-width:4; stroke-opacity:1; fill:none" points="395.031,355.78 1084.47,355.78 1084.47,252.1 395.031,252.1 395.031,355.78 "/>
<path clip-path="url(#clip760)" d="M465.809 324.676 L890.48 324.676 L890.48 283.204 L465.809 283.204 L465.809 324.676  Z" fill="#009af9" fill-rule="evenodd" fill-opacity="1"/>
<polyline clip-path="url(#clip760)" style="stroke:#000000; stroke-linecap:round; stroke-linejoin:round; stroke-width:4; stroke-opacity:1; fill:none" points="465.809,324.676 890.48,324.676 890.48,283.204 465.809,283.204 465.809,324.676 "/>
<path clip-path="url(#clip760)" d="M975.101 323.627 Q973.295 328.257 971.582 329.669 Q969.87 331.081 966.999 331.081 L963.596 331.081 L963.596 327.516 L966.096 327.516 Q967.856 327.516 968.828 326.682 Q969.8 325.849 970.981 322.747 L971.745 320.803 L961.258 295.294 L965.772 295.294 L973.874 315.571 L981.976 295.294 L986.49 295.294 L975.101 323.627 Z" fill="#000000" fill-rule="nonzero" fill-opacity="1" /><path clip-path="url(#clip760)" d="M993.781 317.284 L1001.42 317.284 L1001.42 290.919 L993.11 292.585 L993.11 288.326 L1001.37 286.66 L1006.05 286.66 L1006.05 317.284 L1013.69 317.284 L1013.69 321.22 L993.781 321.22 L993.781 317.284 Z" fill="#000000" fill-rule="nonzero" fill-opacity="1" /></svg>
