<?xml version="1.0" encoding="utf-8"?>
<svg xmlns="http://www.w3.org/2000/svg" xmlns:xlink="http://www.w3.org/1999/xlink" width="528" height="336" viewBox="0 0 2112 1344">
<defs>
  <clipPath id="clip680">
    <rect x="0" y="0" width="2112" height="1344"/>
  </clipPath>
</defs>
<path clip-path="url(#clip680)" d="M0 1344 L2112 1344 L2112 2.13163e-14 L0 2.13163e-14  Z" fill="#ffffff" fill-rule="evenodd" fill-opacity="1"/>
<defs>
  <clipPath id="clip681">
    <rect x="422" y="0" width="1479" height="1344"/>
  </clipPath>
</defs>
<path clip-path="url(#clip680)" d="M137.816 1234.58 L2064.76 1234.58 L2064.76 120.723 L137.816 120.723  Z" fill="#ffffff" fill-rule="evenodd" fill-opacity="1"/>
<defs>
  <clipPath id="clip682">
    <rect x="137" y="120" width="1928" height="1115"/>
  </clipPath>
</defs>
<polyline clip-path="url(#clip682)" style="stroke:#000000; stroke-linecap:round; stroke-linejoin:round; stroke-width:2; stroke-opacity:0.1; fill:none" points="424.324,1234.58 424.324,120.723 "/>
<polyline clip-path="url(#clip682)" style="stroke:#000000; stroke-linecap:round; stroke-linejoin:round; stroke-width:2; stroke-opacity:0.1; fill:none" points="875.632,1234.58 875.632,120.723 "/>
<polyline clip-path="url(#clip682)" style="stroke:#000000; stroke-linecap:round; stroke-linejoin:round; stroke-width:2; stroke-opacity:0.1; fill:none" points="1326.94,1234.58 1326.94,120.723 "/>
<polyline clip-path="url(#clip682)" style="stroke:#000000; stroke-linecap:round; stroke-linejoin:round; stroke-width:2; stroke-opacity:0.1; fill:none" points="1778.25,1234.58 1778.25,120.723 "/>
<polyline clip-path="url(#clip682)" style="stroke:#000000; stroke-linecap:round; stroke-linejoin:round; stroke-width:2; stroke-opacity:0.1; fill:none" points="137.816,1234.58 2064.76,1234.58 "/>
<polyline clip-path="url(#clip682)" style="stroke:#000000; stroke-linecap:round; stroke-linejoin:round; stroke-width:2; stroke-opacity:0.1; fill:none" points="137.816,863.294 2064.76,863.294 "/>
<polyline clip-path="url(#clip682)" style="stroke:#000000; stroke-linecap:round; stroke-linejoin:round; stroke-width:2; stroke-opacity:0.1; fill:none" points="137.816,492.008 2064.76,492.008 "/>
<polyline clip-path="url(#clip682)" style="stroke:#000000; stroke-linecap:round; stroke-linejoin:round; stroke-width:2; stroke-opacity:0.1; fill:none" points="137.816,120.723 2064.76,120.723 "/>
<polyline clip-path="url(#clip680)" style="stroke:#000000; stroke-linecap:round; stroke-linejoin:round; stroke-width:4; stroke-opacity:1; fill:none" points="137.816,1234.58 2064.76,1234.58 "/>
<polyline clip-path="url(#clip680)" style="stroke:#000000; stroke-linecap:round; stroke-linejoin:round; stroke-width:4; stroke-opacity:1; fill:none" points="424.324,1234.58 424.324,1215.68 "/>
<polyline clip-path="url(#clip680)" style="stroke:#000000; stroke-linecap:round; stroke-linejoin:round; stroke-width:4; stroke-opacity:1; fill:none" points="875.632,1234.58 875.632,1215.68 "/>
<polyline clip-path="url(#clip680)" style="stroke:#000000; stroke-linecap:round; stroke-linejoin:round; stroke-width:4; stroke-opacity:1; fill:none" points="1326.94,1234.58 1326.94,1215.68 "/>
<polyline clip-path="url(#clip680)" style="stroke:#000000; stroke-linecap:round; stroke-linejoin:round; stroke-width:4; stroke-opacity:1; fill:none" points="1778.25,1234.58 1778.25,1215.68 "/>
<path clip-path="url(#clip680)" d="M424.324 1264.72 L417.981 1281.92 L430.69 1281.92 L424.324 1264.72 M421.685 1260.11 L426.986 1260.11 L440.157 1294.67 L435.296 1294.67 L432.148 1285.81 L416.569 1285.81 L413.421 1294.67 L408.491 1294.67 L421.685 1260.11 Z" fill="#000000" fill-rule="nonzero" fill-opacity="1" /><path clip-path="url(#clip680)" d="M868.051 1278.17 L868.051 1290.83 L875.551 1290.83 Q879.324 1290.83 881.129 1289.28 Q882.958 1287.71 882.958 1284.49 Q882.958 1281.25 881.129 1279.72 Q879.324 1278.17 875.551 1278.17 L868.051 1278.17 M868.051 1263.96 L868.051 1274.37 L874.972 1274.37 Q878.398 1274.37 880.065 1273.1 Q881.754 1271.8 881.754 1269.17 Q881.754 1266.55 880.065 1265.25 Q878.398 1263.96 874.972 1263.96 L868.051 1263.96 M863.375 1260.11 L875.319 1260.11 Q880.666 1260.11 883.56 1262.34 Q886.453 1264.56 886.453 1268.66 Q886.453 1271.83 884.972 1273.7 Q883.491 1275.58 880.62 1276.04 Q884.069 1276.78 885.967 1279.14 Q887.889 1281.48 887.889 1285 Q887.889 1289.63 884.741 1292.15 Q881.592 1294.67 875.782 1294.67 L863.375 1294.67 L863.375 1260.11 Z" fill="#000000" fill-rule="nonzero" fill-opacity="1" /><path clip-path="url(#clip680)" d="M1340.87 1262.78 L1340.87 1267.71 Q1338.51 1265.51 1335.83 1264.42 Q1333.17 1263.33 1330.16 1263.33 Q1324.23 1263.33 1321.08 1266.97 Q1317.94 1270.58 1317.94 1277.43 Q1317.94 1284.26 1321.08 1287.89 Q1324.23 1291.5 1330.16 1291.5 Q1333.17 1291.5 1335.83 1290.42 Q1338.51 1289.33 1340.87 1287.13 L1340.87 1292.01 Q1338.42 1293.68 1335.67 1294.51 Q1332.94 1295.35 1329.88 1295.35 Q1322.03 1295.35 1317.52 1290.55 Q1313 1285.74 1313 1277.43 Q1313 1269.1 1317.52 1264.3 Q1322.03 1259.49 1329.88 1259.49 Q1332.98 1259.49 1335.71 1260.32 Q1338.47 1261.13 1340.87 1262.78 Z" fill="#000000" fill-rule="nonzero" fill-opacity="1" /><path clip-path="url(#clip680)" d="M1768.4 1263.96 L1768.4 1290.83 L1774.05 1290.83 Q1781.2 1290.83 1784.51 1287.59 Q1787.84 1284.35 1787.84 1277.36 Q1787.84 1270.42 1784.51 1267.2 Q1781.2 1263.96 1774.05 1263.96 L1768.4 1263.96 M1763.72 1260.11 L1773.33 1260.11 Q1783.37 1260.11 1788.07 1264.3 Q1792.77 1268.47 1792.77 1277.36 Q1792.77 1286.3 1788.05 1290.48 Q1783.33 1294.67 1773.33 1294.67 L1763.72 1294.67 L1763.72 1260.11 Z" fill="#000000" fill-rule="nonzero" fill-opacity="1" /><polyline clip-path="url(#clip680)" style="stroke:#000000; stroke-linecap:round; stroke-linejoin:round; stroke-width:4; stroke-opacity:1; fill:none" points="137.816,1234.58 137.816,120.723 "/>
<polyline clip-path="url(#clip680)" style="stroke:#000000; stroke-linecap:round; stroke-linejoin:round; stroke-width:4; stroke-opacity:1; fill:none" points="137.816,1234.58 156.713,1234.58 "/>
<polyline clip-path="url(#clip680)" style="stroke:#000000; stroke-linecap:round; stroke-linejoin:round; stroke-width:4; stroke-opacity:1; fill:none" points="137.816,863.294 156.713,863.294 "/>
<polyline clip-path="url(#clip680)" style="stroke:#000000; stroke-linecap:round; stroke-linejoin:round; stroke-width:4; stroke-opacity:1; fill:none" points="137.816,492.008 156.713,492.008 "/>
<polyline clip-path="url(#clip680)" style="stroke:#000000; stroke-linecap:round; stroke-linejoin:round; stroke-width:4; stroke-opacity:1; fill:none" points="137.816,120.723 156.713,120.723 "/>
<path clip-path="url(#clip680)" d="M94.1912 1220.38 Q90.5801 1220.38 88.7514 1223.94 Q86.9458 1227.48 86.9458 1234.61 Q86.9458 1241.72 88.7514 1245.28 Q90.5801 1248.83 94.1912 1248.83 Q97.8254 1248.83 99.6309 1245.28 Q101.46 1241.72 101.46 1234.61 Q101.46 1227.48 99.6309 1223.94 Q97.8254 1220.38 94.1912 1220.38 M94.1912 1216.67 Q100.001 1216.67 103.057 1221.28 Q106.136 1225.86 106.136 1234.61 Q106.136 1243.34 103.057 1247.95 Q100.001 1252.53 94.1912 1252.53 Q88.381 1252.53 85.3023 1247.95 Q82.2468 1243.34 82.2468 1234.61 Q82.2468 1225.86 85.3023 1221.28 Q88.381 1216.67 94.1912 1216.67 Z" fill="#000000" fill-rule="nonzero" fill-opacity="1" /><path clip-path="url(#clip680)" d="M54.8395 876.638 L62.4784 876.638 L62.4784 850.273 L54.1682 851.939 L54.1682 847.68 L62.4321 846.014 L67.108 846.014 L67.108 876.638 L74.7468 876.638 L74.7468 880.574 L54.8395 880.574 L54.8395 876.638 Z" fill="#000000" fill-rule="nonzero" fill-opacity="1" /><path clip-path="url(#clip680)" d="M94.1912 849.092 Q90.5801 849.092 88.7514 852.657 Q86.9458 856.199 86.9458 863.328 Q86.9458 870.435 88.7514 873.999 Q90.5801 877.541 94.1912 877.541 Q97.8254 877.541 99.6309 873.999 Q101.46 870.435 101.46 863.328 Q101.46 856.199 99.6309 852.657 Q97.8254 849.092 94.1912 849.092 M94.1912 845.389 Q100.001 845.389 103.057 849.995 Q106.136 854.578 106.136 863.328 Q106.136 872.055 103.057 876.662 Q100.001 881.245 94.1912 881.245 Q88.381 881.245 85.3023 876.662 Q82.2468 872.055 82.2468 863.328 Q82.2468 854.578 85.3023 849.995 Q88.381 845.389 94.1912 845.389 Z" fill="#000000" fill-rule="nonzero" fill-opacity="1" /><path clip-path="url(#clip680)" d="M58.0571 505.353 L74.3765 505.353 L74.3765 509.288 L52.4321 509.288 L52.4321 505.353 Q55.0941 502.599 59.6775 497.969 Q64.2839 493.316 65.4645 491.974 Q67.7098 489.45 68.5894 487.714 Q69.4922 485.955 69.4922 484.265 Q69.4922 481.511 67.5478 479.775 Q65.6265 478.038 62.5247 478.038 Q60.3256 478.038 57.8719 478.802 Q55.4414 479.566 52.6636 481.117 L52.6636 476.395 Q55.4877 475.261 57.9414 474.682 Q60.395 474.103 62.4321 474.103 Q67.8024 474.103 70.9968 476.788 Q74.1913 479.474 74.1913 483.964 Q74.1913 486.094 73.3811 488.015 Q72.5941 489.913 70.4876 492.506 Q69.9089 493.177 66.807 496.395 Q63.7052 499.589 58.0571 505.353 Z" fill="#000000" fill-rule="nonzero" fill-opacity="1" /><path clip-path="url(#clip680)" d="M94.1912 477.807 Q90.5801 477.807 88.7514 481.372 Q86.9458 484.913 86.9458 492.043 Q86.9458 499.149 88.7514 502.714 Q90.5801 506.256 94.1912 506.256 Q97.8254 506.256 99.6309 502.714 Q101.46 499.149 101.46 492.043 Q101.46 484.913 99.6309 481.372 Q97.8254 477.807 94.1912 477.807 M94.1912 474.103 Q100.001 474.103 103.057 478.71 Q106.136 483.293 106.136 492.043 Q106.136 500.77 103.057 505.376 Q100.001 509.96 94.1912 509.96 Q88.381 509.96 85.3023 505.376 Q82.2468 500.77 82.2468 492.043 Q82.2468 483.293 85.3023 478.71 Q88.381 474.103 94.1912 474.103 Z" fill="#000000" fill-rule="nonzero" fill-opacity="1" /><path clip-path="url(#clip680)" d="M68.1959 119.369 Q71.5524 120.086 73.4274 122.355 Q75.3255 124.623 75.3255 127.957 Q75.3255 133.073 71.807 135.873 Q68.2885 138.674 61.8071 138.674 Q59.6312 138.674 57.3164 138.235 Q55.0247 137.818 52.571 136.961 L52.571 132.448 Q54.5154 133.582 56.8303 134.16 Q59.1451 134.739 61.6682 134.739 Q66.0663 134.739 68.358 133.003 Q70.6728 131.267 70.6728 127.957 Q70.6728 124.901 68.52 123.188 Q66.3904 121.452 62.571 121.452 L58.5432 121.452 L58.5432 117.61 L62.7561 117.61 Q66.2052 117.61 68.0339 116.244 Q69.8626 114.855 69.8626 112.262 Q69.8626 109.6 67.9645 108.188 Q66.0895 106.753 62.571 106.753 Q60.6497 106.753 58.4506 107.17 Q56.2515 107.587 53.6127 108.466 L53.6127 104.3 Q56.2747 103.559 58.5895 103.188 Q60.9275 102.818 62.9876 102.818 Q68.3117 102.818 71.4135 105.249 Q74.5153 107.656 74.5153 111.776 Q74.5153 114.647 72.8718 116.637 Q71.2283 118.605 68.1959 119.369 Z" fill="#000000" fill-rule="nonzero" fill-opacity="1" /><path clip-path="url(#clip680)" d="M94.1912 106.522 Q90.5801 106.522 88.7514 110.087 Q86.9458 113.628 86.9458 120.758 Q86.9458 127.864 88.7514 131.429 Q90.5801 134.971 94.1912 134.971 Q97.8254 134.971 99.6309 131.429 Q101.46 127.864 101.46 120.758 Q101.46 113.628 99.6309 110.087 Q97.8254 106.522 94.1912 106.522 M94.1912 102.818 Q100.001 102.818 103.057 107.424 Q106.136 112.008 106.136 120.758 Q106.136 129.485 103.057 134.091 Q100.001 138.674 94.1912 138.674 Q88.381 138.674 85.3023 134.091 Q82.2468 129.485 82.2468 120.758 Q82.2468 112.008 85.3023 107.424 Q88.381 102.818 94.1912 102.818 Z" fill="#000000" fill-rule="nonzero" fill-opacity="1" /><path clip-path="url(#clip680)" d="M760.301 43.6931 L760.301 65.8515 L773.426 65.8515 Q780.029 65.8515 783.188 63.1374 Q786.389 60.3828 786.389 54.752 Q786.389 49.0808 783.188 46.4072 Q780.029 43.6931 773.426 43.6931 L760.301 43.6931 M760.301 18.8205 L760.301 37.0496 L772.413 37.0496 Q778.408 37.0496 781.325 34.8216 Q784.282 32.5531 784.282 27.935 Q784.282 23.3575 781.325 21.089 Q778.408 18.8205 772.413 18.8205 L760.301 18.8205 M752.118 12.096 L773.021 12.096 Q782.378 12.096 787.442 15.9849 Q792.506 19.8737 792.506 27.0438 Q792.506 32.5936 789.913 35.8748 Q787.32 39.156 782.297 39.9662 Q788.333 41.2625 791.655 45.3944 Q795.017 49.4858 795.017 55.6432 Q795.017 63.745 789.508 68.1605 Q783.999 72.576 773.831 72.576 L752.118 72.576 L752.118 12.096 Z" fill="#000000" fill-rule="nonzero" fill-opacity="1" /><path clip-path="url(#clip680)" d="M829.328 49.7694 Q820.295 49.7694 816.811 51.8354 Q813.327 53.9013 813.327 58.8839 Q813.327 62.8538 815.92 65.2034 Q818.553 67.5124 823.049 67.5124 Q829.247 67.5124 832.974 63.1374 Q836.741 58.7219 836.741 51.4303 L836.741 49.7694 L829.328 49.7694 M844.195 46.6907 L844.195 72.576 L836.741 72.576 L836.741 65.6895 Q834.189 69.8214 830.382 71.8063 Q826.574 73.7508 821.064 73.7508 Q814.097 73.7508 809.965 69.8619 Q805.874 65.9325 805.874 59.3701 Q805.874 51.7138 810.978 47.825 Q816.122 43.9361 826.29 43.9361 L836.741 43.9361 L836.741 43.2069 Q836.741 38.0623 833.339 35.2672 Q829.976 32.4315 823.86 32.4315 Q819.971 32.4315 816.284 33.3632 Q812.598 34.295 809.195 36.1584 L809.195 29.2718 Q813.287 27.692 817.135 26.9223 Q820.983 26.1121 824.629 26.1121 Q834.473 26.1121 839.334 31.2163 Q844.195 36.3204 844.195 46.6907 Z" fill="#000000" fill-rule="nonzero" fill-opacity="1" /><path clip-path="url(#clip680)" d="M885.838 34.1734 Q884.583 33.4443 883.084 33.1202 Q881.625 32.7556 879.843 32.7556 Q873.524 32.7556 870.121 36.8875 Q866.759 40.9789 866.759 48.6757 L866.759 72.576 L859.264 72.576 L859.264 27.2059 L866.759 27.2059 L866.759 34.2544 Q869.108 30.1225 872.875 28.1376 Q876.643 26.1121 882.031 26.1121 Q882.8 26.1121 883.732 26.2337 Q884.664 26.3147 885.798 26.5172 L885.838 34.1734 Z" fill="#000000" fill-rule="nonzero" fill-opacity="1" /><path clip-path="url(#clip680)" d="M928.535 18.8205 L928.535 41.5461 L938.824 41.5461 Q944.536 41.5461 947.655 38.5889 Q950.774 35.6318 950.774 30.163 Q950.774 24.7348 947.655 21.7777 Q944.536 18.8205 938.824 18.8205 L928.535 18.8205 M920.352 12.096 L938.824 12.096 Q948.992 12.096 954.177 16.714 Q959.403 21.2916 959.403 30.163 Q959.403 39.1155 954.177 43.6931 Q948.992 48.2706 938.824 48.2706 L928.535 48.2706 L928.535 72.576 L920.352 72.576 L920.352 12.096 Z" fill="#000000" fill-rule="nonzero" fill-opacity="1" /><path clip-path="url(#clip680)" d="M970.057 9.54393 L977.51 9.54393 L977.51 72.576 L970.057 72.576 L970.057 9.54393 Z" fill="#000000" fill-rule="nonzero" fill-opacity="1" /><path clip-path="url(#clip680)" d="M1010.69 32.4315 Q1004.69 32.4315 1001.21 37.1306 Q997.724 41.7891 997.724 49.9314 Q997.724 58.0738 1001.17 62.7728 Q1004.65 67.4314 1010.69 67.4314 Q1016.64 67.4314 1020.13 62.7323 Q1023.61 58.0333 1023.61 49.9314 Q1023.61 41.8701 1020.13 37.1711 Q1016.64 32.4315 1010.69 32.4315 M1010.69 26.1121 Q1020.41 26.1121 1025.96 32.4315 Q1031.51 38.7509 1031.51 49.9314 Q1031.51 61.0714 1025.96 67.4314 Q1020.41 73.7508 1010.69 73.7508 Q1000.92 73.7508 995.375 67.4314 Q989.866 61.0714 989.866 49.9314 Q989.866 38.7509 995.375 32.4315 Q1000.92 26.1121 1010.69 26.1121 Z" fill="#000000" fill-rule="nonzero" fill-opacity="1" /><path clip-path="url(#clip680)" d="M1051.24 14.324 L1051.24 27.2059 L1066.59 27.2059 L1066.59 32.9987 L1051.24 32.9987 L1051.24 57.6282 Q1051.24 63.1779 1052.74 64.7578 Q1054.27 66.3376 1058.93 66.3376 L1066.59 66.3376 L1066.59 72.576 L1058.93 72.576 Q1050.31 72.576 1047.02 69.3758 Q1043.74 66.1351 1043.74 57.6282 L1043.74 32.9987 L1038.27 32.9987 L1038.27 27.2059 L1043.74 27.2059 L1043.74 14.324 L1051.24 14.324 Z" fill="#000000" fill-rule="nonzero" fill-opacity="1" /><path clip-path="url(#clip680)" d="M1103.09 12.096 L1141.33 12.096 L1141.33 18.9825 L1111.27 18.9825 L1111.27 36.8875 L1140.07 36.8875 L1140.07 43.7741 L1111.27 43.7741 L1111.27 65.6895 L1142.06 65.6895 L1142.06 72.576 L1103.09 72.576 L1103.09 12.096 Z" fill="#000000" fill-rule="nonzero" fill-opacity="1" /><path clip-path="url(#clip680)" d="M1192.9 27.2059 L1176.49 49.2833 L1193.75 72.576 L1184.96 72.576 L1171.75 54.752 L1158.55 72.576 L1149.75 72.576 L1167.38 48.8377 L1151.25 27.2059 L1160.04 27.2059 L1172.08 43.369 L1184.11 27.2059 L1192.9 27.2059 Z" fill="#000000" fill-rule="nonzero" fill-opacity="1" /><path clip-path="url(#clip680)" d="M1224.9 49.7694 Q1215.87 49.7694 1212.38 51.8354 Q1208.9 53.9013 1208.9 58.8839 Q1208.9 62.8538 1211.49 65.2034 Q1214.12 67.5124 1218.62 67.5124 Q1224.82 67.5124 1228.54 63.1374 Q1232.31 58.7219 1232.31 51.4303 L1232.31 49.7694 L1224.9 49.7694 M1239.77 46.6907 L1239.77 72.576 L1232.31 72.576 L1232.31 65.6895 Q1229.76 69.8214 1225.95 71.8063 Q1222.14 73.7508 1216.64 73.7508 Q1209.67 73.7508 1205.54 69.8619 Q1201.44 65.9325 1201.44 59.3701 Q1201.44 51.7138 1206.55 47.825 Q1211.69 43.9361 1221.86 43.9361 L1232.31 43.9361 L1232.31 43.2069 Q1232.31 38.0623 1228.91 35.2672 Q1225.55 32.4315 1219.43 32.4315 Q1215.54 32.4315 1211.86 33.3632 Q1208.17 34.295 1204.77 36.1584 L1204.77 29.2718 Q1208.86 27.692 1212.71 26.9223 Q1216.55 26.1121 1220.2 26.1121 Q1230.04 26.1121 1234.9 31.2163 Q1239.77 36.3204 1239.77 46.6907 Z" fill="#000000" fill-rule="nonzero" fill-opacity="1" /><path clip-path="url(#clip680)" d="M1290.44 35.9153 Q1293.24 30.8922 1297.13 28.5022 Q1301.02 26.1121 1306.28 26.1121 Q1313.37 26.1121 1317.22 31.0947 Q1321.07 36.0368 1321.07 45.1919 L1321.07 72.576 L1313.57 72.576 L1313.57 45.4349 Q1313.57 38.913 1311.26 35.7533 Q1308.96 32.5936 1304.22 32.5936 Q1298.42 32.5936 1295.06 36.4419 Q1291.7 40.2903 1291.7 46.9338 L1291.7 72.576 L1284.2 72.576 L1284.2 45.4349 Q1284.2 38.8725 1281.9 35.7533 Q1279.59 32.5936 1274.77 32.5936 Q1269.05 32.5936 1265.69 36.4824 Q1262.33 40.3308 1262.33 46.9338 L1262.33 72.576 L1254.84 72.576 L1254.84 27.2059 L1262.33 27.2059 L1262.33 34.2544 Q1264.88 30.082 1268.45 28.0971 Q1272.01 26.1121 1276.91 26.1121 Q1281.85 26.1121 1285.3 28.6237 Q1288.78 31.1352 1290.44 35.9153 Z" fill="#000000" fill-rule="nonzero" fill-opacity="1" /><path clip-path="url(#clip680)" d="M1343.14 65.7705 L1343.14 89.8329 L1335.65 89.8329 L1335.65 27.2059 L1343.14 27.2059 L1343.14 34.0924 Q1345.49 30.0415 1349.06 28.0971 Q1352.66 26.1121 1357.65 26.1121 Q1365.91 26.1121 1371.06 32.6746 Q1376.24 39.2371 1376.24 49.9314 Q1376.24 60.6258 1371.06 67.1883 Q1365.91 73.7508 1357.65 73.7508 Q1352.66 73.7508 1349.06 71.8063 Q1345.49 69.8214 1343.14 65.7705 M1368.5 49.9314 Q1368.5 41.7081 1365.1 37.0496 Q1361.74 32.3505 1355.82 32.3505 Q1349.91 32.3505 1346.51 37.0496 Q1343.14 41.7081 1343.14 49.9314 Q1343.14 58.1548 1346.51 62.8538 Q1349.91 67.5124 1355.82 67.5124 Q1361.74 67.5124 1365.1 62.8538 Q1368.5 58.1548 1368.5 49.9314 Z" fill="#000000" fill-rule="nonzero" fill-opacity="1" /><path clip-path="url(#clip680)" d="M1388.6 9.54393 L1396.05 9.54393 L1396.05 72.576 L1388.6 72.576 L1388.6 9.54393 Z" fill="#000000" fill-rule="nonzero" fill-opacity="1" /><path clip-path="url(#clip680)" d="M1450.45 48.0275 L1450.45 51.6733 L1416.18 51.6733 Q1416.67 59.3701 1420.8 63.421 Q1424.97 67.4314 1432.39 67.4314 Q1436.68 67.4314 1440.69 66.3781 Q1444.74 65.3249 1448.71 63.2184 L1448.71 70.267 Q1444.7 71.9684 1440.49 72.8596 Q1436.28 73.7508 1431.94 73.7508 Q1421.08 73.7508 1414.72 67.4314 Q1408.41 61.1119 1408.41 50.3365 Q1408.41 39.1965 1414.4 32.6746 Q1420.44 26.1121 1430.64 26.1121 Q1439.8 26.1121 1445.11 32.0264 Q1450.45 37.9003 1450.45 48.0275 M1443 45.84 Q1442.92 39.7232 1439.56 36.0774 Q1436.23 32.4315 1430.73 32.4315 Q1424.49 32.4315 1420.72 35.9558 Q1416.99 39.4801 1416.43 45.8805 L1443 45.84 Z" fill="#000000" fill-rule="nonzero" fill-opacity="1" /><path clip-path="url(#clip682)" d="M243.801 677.651 L243.801 1234.58 L604.847 1234.58 L604.847 677.651 L243.801 677.651 L243.801 677.651  Z" fill="#009af9" fill-rule="evenodd" fill-opacity="1"/>
<polyline clip-path="url(#clip682)" style="stroke:#000000; stroke-linecap:round; stroke-linejoin:round; stroke-width:4; stroke-opacity:1; fill:none" points="243.801,677.651 243.801,1234.58 604.847,1234.58 604.847,677.651 243.801,677.651 "/>
<path clip-path="url(#clip682)" d="M695.109 380.623 L695.109 1234.58 L1056.15 1234.58 L1056.15 380.623 L695.109 380.623 L695.109 380.623  Z" fill="#009af9" fill-rule="evenodd" fill-opacity="1"/>
<polyline clip-path="url(#clip682)" style="stroke:#000000; stroke-linecap:round; stroke-linejoin:round; stroke-width:4; stroke-opacity:1; fill:none" points="695.109,380.623 695.109,1234.58 1056.15,1234.58 1056.15,380.623 695.109,380.623 "/>
<path clip-path="url(#clip682)" d="M1146.42 566.265 L1146.42 1234.58 L1507.46 1234.58 L1507.46 566.265 L1146.42 566.265 L1146.42 566.265  Z" fill="#009af9" fill-rule="evenodd" fill-opacity="1"/>
<polyline clip-path="url(#clip682)" style="stroke:#000000; stroke-linecap:round; stroke-linejoin:round; stroke-width:4; stroke-opacity:1; fill:none" points="1146.42,566.265 1146.42,1234.58 1507.46,1234.58 1507.46,566.265 1146.42,566.265 "/>
<path clip-path="url(#clip682)" d="M1597.72 120.723 L1597.72 1234.58 L1958.77 1234.58 L1958.77 120.723 L1597.72 120.723 L1597.72 120.723  Z" fill="#009af9" fill-rule="evenodd" fill-opacity="1"/>
<polyline clip-path="url(#clip682)" style="stroke:#000000; stroke-linecap:round; stroke-linejoin:round; stroke-width:4; stroke-opacity:1; fill:none" points="1597.72,120.723 1597.72,1234.58 1958.77,1234.58 1958.77,120.723 1597.72,120.723 "/>
<circle clip-path="url(#clip682)" style="fill:#009af9; stroke:none; fill-opacity:0" cx="424.324" cy="677.651" r="2"/>
<circle clip-path="url(#clip682)" style="fill:#009af9; stroke:none; fill-opacity:0" cx="875.632" cy="380.623" r="2"/>
<circle clip-path="url(#clip682)" style="fill:#009af9; stroke:none; fill-opacity:0" cx="1326.94" cy="566.265" r="2"/>
<circle clip-path="url(#clip682)" style="fill:#009af9; stroke:none; fill-opacity:0" cx="1778.25" cy="120.723" r="2"/>
<path clip-path="url(#clip680)" d="M202.047 261.532 L447.171 261.532 L447.171 157.852 L202.047 157.852  Z" fill="#ffffff" fill-rule="evenodd" fill-opacity="1"/>
<polyline clip-path="url(#clip680)" style="stroke:#000000; stroke-linecap:round; stroke-linejoin:round; stroke-width:4; stroke-opacity:1; fill:none" points="202.047,261.532 447.171,261.532 447.171,157.852 202.047,157.852 202.047,261.532 "/>
<path clip-path="url(#clip680)" d="M223.457 230.428 L351.92 230.428 L351.92 188.956 L223.457 188.956 L223.457 230.428  Z" fill="#009af9" fill-rule="evenodd" fill-opacity="1"/>
<polyline clip-path="url(#clip680)" style="stroke:#000000; stroke-linecap:round; stroke-linejoin:round; stroke-width:4; stroke-opacity:1; fill:none" points="223.457,230.428 351.92,230.428 351.92,188.956 223.457,188.956 223.457,230.428 "/>
<path clip-path="url(#clip680)" d="M387.173 229.379 Q385.367 234.009 383.654 235.421 Q381.942 236.833 379.071 236.833 L375.668 236.833 L375.668 233.268 L378.168 233.268 Q379.928 233.268 380.9 232.434 Q381.872 231.601 383.053 228.499 L383.817 226.555 L373.33 201.046 L377.844 201.046 L385.946 221.323 L394.048 201.046 L398.562 201.046 L387.173 229.379 Z" fill="#000000" fill-rule="nonzero" fill-opacity="1" /><path clip-path="url(#clip680)" d="M405.853 223.036 L413.492 223.036 L413.492 196.671 L405.182 198.337 L405.182 194.078 L413.446 192.412 L418.122 192.412 L418.122 223.036 L425.761 223.036 L425.761 226.972 L405.853 226.972 L405.853 223.036 Z" fill="#000000" fill-rule="nonzero" fill-opacity="1" /></svg>
