<?xml version="1.0" encoding="utf-8"?>
<svg xmlns="http://www.w3.org/2000/svg" xmlns:xlink="http://www.w3.org/1999/xlink" width="528" height="336" viewBox="0 0 2112 1344">
<defs>
  <clipPath id="clip800">
    <rect x="0" y="0" width="2112" height="1344"/>
  </clipPath>
</defs>
<path clip-path="url(#clip800)" d="M0 1344 L2112 1344 L2112 2.13163e-14 L0 2.13163e-14  Z" fill="#ffffff" fill-rule="evenodd" fill-opacity="1"/>
<defs>
  <clipPath id="clip801">
    <rect x="422" y="0" width="1479" height="1344"/>
  </clipPath>
</defs>
<path clip-path="url(#clip800)" d="M109.297 1234.58 L2064.76 1234.58 L2064.76 120.723 L109.297 120.723  Z" fill="#ffffff" fill-rule="evenodd" fill-opacity="1"/>
<defs>
  <clipPath id="clip802">
    <rect x="109" y="120" width="1956" height="1115"/>
  </clipPath>
</defs>
<polyline clip-path="url(#clip802)" style="stroke:#000000; stroke-linecap:round; stroke-linejoin:round; stroke-width:2; stroke-opacity:0.1; fill:none" points="358.827,1234.58 358.827,120.723 "/>
<polyline clip-path="url(#clip802)" style="stroke:#000000; stroke-linecap:round; stroke-linejoin:round; stroke-width:2; stroke-opacity:0.1; fill:none" points="844.293,1234.58 844.293,120.723 "/>
<polyline clip-path="url(#clip802)" style="stroke:#000000; stroke-linecap:round; stroke-linejoin:round; stroke-width:2; stroke-opacity:0.1; fill:none" points="1329.76,1234.58 1329.76,120.723 "/>
<polyline clip-path="url(#clip802)" style="stroke:#000000; stroke-linecap:round; stroke-linejoin:round; stroke-width:2; stroke-opacity:0.1; fill:none" points="1815.23,1234.58 1815.23,120.723 "/>
<polyline clip-path="url(#clip802)" style="stroke:#000000; stroke-linecap:round; stroke-linejoin:round; stroke-width:2; stroke-opacity:0.1; fill:none" points="109.297,1070.67 2064.76,1070.67 "/>
<polyline clip-path="url(#clip802)" style="stroke:#000000; stroke-linecap:round; stroke-linejoin:round; stroke-width:2; stroke-opacity:0.1; fill:none" points="109.297,762.657 2064.76,762.657 "/>
<polyline clip-path="url(#clip802)" style="stroke:#000000; stroke-linecap:round; stroke-linejoin:round; stroke-width:2; stroke-opacity:0.1; fill:none" points="109.297,454.643 2064.76,454.643 "/>
<polyline clip-path="url(#clip802)" style="stroke:#000000; stroke-linecap:round; stroke-linejoin:round; stroke-width:2; stroke-opacity:0.1; fill:none" points="109.297,146.629 2064.76,146.629 "/>
<polyline clip-path="url(#clip800)" style="stroke:#000000; stroke-linecap:round; stroke-linejoin:round; stroke-width:4; stroke-opacity:1; fill:none" points="109.297,1234.58 2064.76,1234.58 "/>
<polyline clip-path="url(#clip800)" style="stroke:#000000; stroke-linecap:round; stroke-linejoin:round; stroke-width:4; stroke-opacity:1; fill:none" points="358.827,1234.58 358.827,1215.68 "/>
<polyline clip-path="url(#clip800)" style="stroke:#000000; stroke-linecap:round; stroke-linejoin:round; stroke-width:4; stroke-opacity:1; fill:none" points="844.293,1234.58 844.293,1215.68 "/>
<polyline clip-path="url(#clip800)" style="stroke:#000000; stroke-linecap:round; stroke-linejoin:round; stroke-width:4; stroke-opacity:1; fill:none" points="1329.76,1234.58 1329.76,1215.68 "/>
<polyline clip-path="url(#clip800)" style="stroke:#000000; stroke-linecap:round; stroke-linejoin:round; stroke-width:4; stroke-opacity:1; fill:none" points="1815.23,1234.58 1815.23,1215.68 "/>
<path clip-path="url(#clip800)" d="M349.209 1290.74 L356.848 1290.74 L356.848 1264.37 L348.538 1266.04 L348.538 1261.78 L356.801 1260.11 L361.477 1260.11 L361.477 1290.74 L369.116 1290.74 L369.116 1294.67 L349.209 1294.67 L349.209 1290.74 Z" fill="#000000" fill-rule="nonzero" fill-opacity="1" /><path clip-path="url(#clip800)" d="M838.946 1290.74 L855.265 1290.74 L855.265 1294.67 L833.321 1294.67 L833.321 1290.74 Q835.983 1287.99 840.567 1283.36 Q845.173 1278.7 846.354 1277.36 Q848.599 1274.84 849.478 1273.1 Q850.381 1271.34 850.381 1269.65 Q850.381 1266.9 848.437 1265.16 Q846.516 1263.42 843.414 1263.42 Q841.215 1263.42 838.761 1264.19 Q836.33 1264.95 833.553 1266.5 L833.553 1261.78 Q836.377 1260.65 838.83 1260.07 Q841.284 1259.49 843.321 1259.49 Q848.691 1259.49 851.886 1262.17 Q855.08 1264.86 855.08 1269.35 Q855.08 1271.48 854.27 1273.4 Q853.483 1275.3 851.377 1277.89 Q850.798 1278.56 847.696 1281.78 Q844.594 1284.98 838.946 1290.74 Z" fill="#000000" fill-rule="nonzero" fill-opacity="1" /><path clip-path="url(#clip800)" d="M1334.01 1276.04 Q1337.36 1276.76 1339.24 1279.03 Q1341.14 1281.3 1341.14 1284.63 Q1341.14 1289.74 1337.62 1292.55 Q1334.1 1295.35 1327.62 1295.35 Q1325.44 1295.35 1323.13 1294.91 Q1320.84 1294.49 1318.38 1293.63 L1318.38 1289.12 Q1320.33 1290.25 1322.64 1290.83 Q1324.96 1291.41 1327.48 1291.41 Q1331.88 1291.41 1334.17 1289.67 Q1336.48 1287.94 1336.48 1284.63 Q1336.48 1281.57 1334.33 1279.86 Q1332.2 1278.12 1328.38 1278.12 L1324.35 1278.12 L1324.35 1274.28 L1328.57 1274.28 Q1332.02 1274.28 1333.85 1272.92 Q1335.67 1271.53 1335.67 1268.93 Q1335.67 1266.27 1333.78 1264.86 Q1331.9 1263.42 1328.38 1263.42 Q1326.46 1263.42 1324.26 1263.84 Q1322.06 1264.26 1319.42 1265.14 L1319.42 1260.97 Q1322.09 1260.23 1324.4 1259.86 Q1326.74 1259.49 1328.8 1259.49 Q1334.12 1259.49 1337.22 1261.92 Q1340.33 1264.33 1340.33 1268.45 Q1340.33 1271.32 1338.68 1273.31 Q1337.04 1275.28 1334.01 1276.04 Z" fill="#000000" fill-rule="nonzero" fill-opacity="1" /><path clip-path="url(#clip800)" d="M1818.24 1264.19 L1806.43 1282.64 L1818.24 1282.64 L1818.24 1264.19 M1817.01 1260.11 L1822.89 1260.11 L1822.89 1282.64 L1827.82 1282.64 L1827.82 1286.53 L1822.89 1286.53 L1822.89 1294.67 L1818.24 1294.67 L1818.24 1286.53 L1802.63 1286.53 L1802.63 1282.01 L1817.01 1260.11 Z" fill="#000000" fill-rule="nonzero" fill-opacity="1" /><polyline clip-path="url(#clip800)" style="stroke:#000000; stroke-linecap:round; stroke-linejoin:round; stroke-width:4; stroke-opacity:1; fill:none" points="109.297,1234.58 109.297,120.723 "/>
<polyline clip-path="url(#clip800)" style="stroke:#000000; stroke-linecap:round; stroke-linejoin:round; stroke-width:4; stroke-opacity:1; fill:none" points="109.297,1070.67 128.195,1070.67 "/>
<polyline clip-path="url(#clip800)" style="stroke:#000000; stroke-linecap:round; stroke-linejoin:round; stroke-width:4; stroke-opacity:1; fill:none" points="109.297,762.657 128.195,762.657 "/>
<polyline clip-path="url(#clip800)" style="stroke:#000000; stroke-linecap:round; stroke-linejoin:round; stroke-width:4; stroke-opacity:1; fill:none" points="109.297,454.643 128.195,454.643 "/>
<polyline clip-path="url(#clip800)" style="stroke:#000000; stroke-linecap:round; stroke-linejoin:round; stroke-width:4; stroke-opacity:1; fill:none" points="109.297,146.629 128.195,146.629 "/>
<path clip-path="url(#clip800)" d="M65.6728 1056.47 Q62.0617 1056.47 60.233 1060.03 Q58.4275 1063.58 58.4275 1070.71 Q58.4275 1077.81 60.233 1081.38 Q62.0617 1084.92 65.6728 1084.92 Q69.307 1084.92 71.1126 1081.38 Q72.9413 1077.81 72.9413 1070.71 Q72.9413 1063.58 71.1126 1060.03 Q69.307 1056.47 65.6728 1056.47 M65.6728 1052.77 Q71.4829 1052.77 74.5385 1057.37 Q77.6172 1061.96 77.6172 1070.71 Q77.6172 1079.43 74.5385 1084.04 Q71.4829 1088.62 65.6728 1088.62 Q59.8626 1088.62 56.784 1084.04 Q53.7284 1079.43 53.7284 1070.71 Q53.7284 1061.96 56.784 1057.37 Q59.8626 1052.77 65.6728 1052.77 Z" fill="#000000" fill-rule="nonzero" fill-opacity="1" /><path clip-path="url(#clip800)" d="M61.2978 776.002 L77.6172 776.002 L77.6172 779.937 L55.6728 779.937 L55.6728 776.002 Q58.3349 773.247 62.9182 768.617 Q67.5246 763.965 68.7052 762.622 Q70.9505 760.099 71.8302 758.363 Q72.7329 756.603 72.7329 754.914 Q72.7329 752.159 70.7885 750.423 Q68.8672 748.687 65.7654 748.687 Q63.5663 748.687 61.1126 749.451 Q58.6821 750.215 55.9043 751.766 L55.9043 747.043 Q58.7284 745.909 61.1821 745.33 Q63.6358 744.752 65.6728 744.752 Q71.0431 744.752 74.2376 747.437 Q77.432 750.122 77.432 754.613 Q77.432 756.742 76.6218 758.664 Q75.8348 760.562 73.7283 763.154 Q73.1496 763.826 70.0478 767.043 Q66.9459 770.238 61.2978 776.002 Z" fill="#000000" fill-rule="nonzero" fill-opacity="1" /><path clip-path="url(#clip800)" d="M68.0339 441.437 L56.2284 459.886 L68.0339 459.886 L68.0339 441.437 M66.807 437.363 L72.6866 437.363 L72.6866 459.886 L77.6172 459.886 L77.6172 463.775 L72.6866 463.775 L72.6866 471.923 L68.0339 471.923 L68.0339 463.775 L52.4321 463.775 L52.4321 459.261 L66.807 437.363 Z" fill="#000000" fill-rule="nonzero" fill-opacity="1" /><path clip-path="url(#clip800)" d="M66.0895 144.765 Q62.9413 144.765 61.0895 146.918 Q59.2608 149.071 59.2608 152.821 Q59.2608 156.548 61.0895 158.724 Q62.9413 160.877 66.0895 160.877 Q69.2376 160.877 71.0663 158.724 Q72.9181 156.548 72.9181 152.821 Q72.9181 149.071 71.0663 146.918 Q69.2376 144.765 66.0895 144.765 M75.3718 130.113 L75.3718 134.372 Q73.6126 133.539 71.807 133.099 Q70.0246 132.659 68.2654 132.659 Q63.6358 132.659 61.1821 135.784 Q58.7515 138.909 58.4043 145.228 Q59.77 143.215 61.8302 142.15 Q63.8904 141.062 66.3672 141.062 Q71.5755 141.062 74.5848 144.233 Q77.6172 147.381 77.6172 152.821 Q77.6172 158.145 74.469 161.363 Q71.3209 164.58 66.0895 164.58 Q60.0941 164.58 56.9228 159.997 Q53.7516 155.39 53.7516 146.664 Q53.7516 138.469 57.6404 133.608 Q61.5293 128.724 68.0802 128.724 Q69.8394 128.724 71.6218 129.071 Q73.4274 129.418 75.3718 130.113 Z" fill="#000000" fill-rule="nonzero" fill-opacity="1" /><path clip-path="url(#clip800)" d="M739.864 43.6931 L739.864 65.8515 L752.989 65.8515 Q759.592 65.8515 762.752 63.1374 Q765.952 60.3828 765.952 54.752 Q765.952 49.0808 762.752 46.4072 Q759.592 43.6931 752.989 43.6931 L739.864 43.6931 M739.864 18.8205 L739.864 37.0496 L751.976 37.0496 Q757.972 37.0496 760.888 34.8216 Q763.845 32.5531 763.845 27.935 Q763.845 23.3575 760.888 21.089 Q757.972 18.8205 751.976 18.8205 L739.864 18.8205 M731.681 12.096 L752.584 12.096 Q761.941 12.096 767.005 15.9849 Q772.069 19.8737 772.069 27.0438 Q772.069 32.5936 769.476 35.8748 Q766.884 39.156 761.86 39.9662 Q767.896 41.2625 771.218 45.3944 Q774.58 49.4858 774.58 55.6432 Q774.58 63.745 769.071 68.1605 Q763.562 72.576 753.394 72.576 L731.681 72.576 L731.681 12.096 Z" fill="#000000" fill-rule="nonzero" fill-opacity="1" /><path clip-path="url(#clip800)" d="M805.853 32.4315 Q799.858 32.4315 796.374 37.1306 Q792.89 41.7891 792.89 49.9314 Q792.89 58.0738 796.334 62.7728 Q799.817 67.4314 805.853 67.4314 Q811.808 67.4314 815.292 62.7323 Q818.776 58.0333 818.776 49.9314 Q818.776 41.8701 815.292 37.1711 Q811.808 32.4315 805.853 32.4315 M805.853 26.1121 Q815.575 26.1121 821.125 32.4315 Q826.675 38.7509 826.675 49.9314 Q826.675 61.0714 821.125 67.4314 Q815.575 73.7508 805.853 73.7508 Q796.091 73.7508 790.541 67.4314 Q785.032 61.0714 785.032 49.9314 Q785.032 38.7509 790.541 32.4315 Q796.091 26.1121 805.853 26.1121 Z" fill="#000000" fill-rule="nonzero" fill-opacity="1" /><path clip-path="url(#clip800)" d="M874.192 27.2059 L857.786 49.2833 L875.043 72.576 L866.252 72.576 L853.046 54.752 L839.84 72.576 L831.05 72.576 L848.671 48.8377 L832.549 27.2059 L841.339 27.2059 L853.37 43.369 L865.402 27.2059 L874.192 27.2059 Z" fill="#000000" fill-rule="nonzero" fill-opacity="1" /><path clip-path="url(#clip800)" d="M920.453 18.8205 L920.453 41.5461 L930.743 41.5461 Q936.454 41.5461 939.574 38.5889 Q942.693 35.6318 942.693 30.163 Q942.693 24.7348 939.574 21.7777 Q936.454 18.8205 930.743 18.8205 L920.453 18.8205 M912.271 12.096 L930.743 12.096 Q940.91 12.096 946.096 16.714 Q951.321 21.2916 951.321 30.163 Q951.321 39.1155 946.096 43.6931 Q940.91 48.2706 930.743 48.2706 L920.453 48.2706 L920.453 72.576 L912.271 72.576 L912.271 12.096 Z" fill="#000000" fill-rule="nonzero" fill-opacity="1" /><path clip-path="url(#clip800)" d="M961.975 9.54393 L969.429 9.54393 L969.429 72.576 L961.975 72.576 L961.975 9.54393 Z" fill="#000000" fill-rule="nonzero" fill-opacity="1" /><path clip-path="url(#clip800)" d="M1002.61 32.4315 Q996.61 32.4315 993.127 37.1306 Q989.643 41.7891 989.643 49.9314 Q989.643 58.0738 993.086 62.7728 Q996.57 67.4314 1002.61 67.4314 Q1008.56 67.4314 1012.04 62.7323 Q1015.53 58.0333 1015.53 49.9314 Q1015.53 41.8701 1012.04 37.1711 Q1008.56 32.4315 1002.61 32.4315 M1002.61 26.1121 Q1012.33 26.1121 1017.88 32.4315 Q1023.43 38.7509 1023.43 49.9314 Q1023.43 61.0714 1017.88 67.4314 Q1012.33 73.7508 1002.61 73.7508 Q992.843 73.7508 987.293 67.4314 Q981.784 61.0714 981.784 49.9314 Q981.784 38.7509 987.293 32.4315 Q992.843 26.1121 1002.61 26.1121 Z" fill="#000000" fill-rule="nonzero" fill-opacity="1" /><path clip-path="url(#clip800)" d="M1043.16 14.324 L1043.16 27.2059 L1058.51 27.2059 L1058.51 32.9987 L1043.16 32.9987 L1043.16 57.6282 Q1043.16 63.1779 1044.65 64.7578 Q1046.19 66.3376 1050.85 66.3376 L1058.51 66.3376 L1058.51 72.576 L1050.85 72.576 Q1042.22 72.576 1038.94 69.3758 Q1035.66 66.1351 1035.66 57.6282 L1035.66 32.9987 L1030.19 32.9987 L1030.19 27.2059 L1035.66 27.2059 L1035.66 14.324 L1043.16 14.324 Z" fill="#000000" fill-rule="nonzero" fill-opacity="1" /><path clip-path="url(#clip800)" d="M1095.01 12.096 L1133.25 12.096 L1133.25 18.9825 L1103.19 18.9825 L1103.19 36.8875 L1131.99 36.8875 L1131.99 43.7741 L1103.19 43.7741 L1103.19 65.6895 L1133.98 65.6895 L1133.98 72.576 L1095.01 72.576 L1095.01 12.096 Z" fill="#000000" fill-rule="nonzero" fill-opacity="1" /><path clip-path="url(#clip800)" d="M1184.82 27.2059 L1168.41 49.2833 L1185.67 72.576 L1176.88 72.576 L1163.67 54.752 L1150.46 72.576 L1141.67 72.576 L1159.29 48.8377 L1143.17 27.2059 L1151.96 27.2059 L1163.99 43.369 L1176.02 27.2059 L1184.82 27.2059 Z" fill="#000000" fill-rule="nonzero" fill-opacity="1" /><path clip-path="url(#clip800)" d="M1216.82 49.7694 Q1207.78 49.7694 1204.3 51.8354 Q1200.82 53.9013 1200.82 58.8839 Q1200.82 62.8538 1203.41 65.2034 Q1206.04 67.5124 1210.54 67.5124 Q1216.74 67.5124 1220.46 63.1374 Q1224.23 58.7219 1224.23 51.4303 L1224.23 49.7694 L1216.82 49.7694 M1231.68 46.6907 L1231.68 72.576 L1224.23 72.576 L1224.23 65.6895 Q1221.68 69.8214 1217.87 71.8063 Q1214.06 73.7508 1208.55 73.7508 Q1201.59 73.7508 1197.45 69.8619 Q1193.36 65.9325 1193.36 59.3701 Q1193.36 51.7138 1198.47 47.825 Q1203.61 43.9361 1213.78 43.9361 L1224.23 43.9361 L1224.23 43.2069 Q1224.23 38.0623 1220.83 35.2672 Q1217.47 32.4315 1211.35 32.4315 Q1207.46 32.4315 1203.77 33.3632 Q1200.09 34.295 1196.68 36.1584 L1196.68 29.2718 Q1200.78 27.692 1204.62 26.9223 Q1208.47 26.1121 1212.12 26.1121 Q1221.96 26.1121 1226.82 31.2163 Q1231.68 36.3204 1231.68 46.6907 Z" fill="#000000" fill-rule="nonzero" fill-opacity="1" /><path clip-path="url(#clip800)" d="M1282.36 35.9153 Q1285.16 30.8922 1289.05 28.5022 Q1292.93 26.1121 1298.2 26.1121 Q1305.29 26.1121 1309.14 31.0947 Q1312.99 36.0368 1312.99 45.1919 L1312.99 72.576 L1305.49 72.576 L1305.49 45.4349 Q1305.49 38.913 1303.18 35.7533 Q1300.87 32.5936 1296.13 32.5936 Q1290.34 32.5936 1286.98 36.4419 Q1283.62 40.2903 1283.62 46.9338 L1283.62 72.576 L1276.12 72.576 L1276.12 45.4349 Q1276.12 38.8725 1273.81 35.7533 Q1271.5 32.5936 1266.68 32.5936 Q1260.97 32.5936 1257.61 36.4824 Q1254.25 40.3308 1254.25 46.9338 L1254.25 72.576 L1246.75 72.576 L1246.75 27.2059 L1254.25 27.2059 L1254.25 34.2544 Q1256.8 30.082 1260.36 28.0971 Q1263.93 26.1121 1268.83 26.1121 Q1273.77 26.1121 1277.22 28.6237 Q1280.7 31.1352 1282.36 35.9153 Z" fill="#000000" fill-rule="nonzero" fill-opacity="1" /><path clip-path="url(#clip800)" d="M1335.06 65.7705 L1335.06 89.8329 L1327.57 89.8329 L1327.57 27.2059 L1335.06 27.2059 L1335.06 34.0924 Q1337.41 30.0415 1340.98 28.0971 Q1344.58 26.1121 1349.57 26.1121 Q1357.83 26.1121 1362.97 32.6746 Q1368.16 39.2371 1368.16 49.9314 Q1368.16 60.6258 1362.97 67.1883 Q1357.83 73.7508 1349.57 73.7508 Q1344.58 73.7508 1340.98 71.8063 Q1337.41 69.8214 1335.06 65.7705 M1360.42 49.9314 Q1360.42 41.7081 1357.02 37.0496 Q1353.66 32.3505 1347.74 32.3505 Q1341.83 32.3505 1338.43 37.0496 Q1335.06 41.7081 1335.06 49.9314 Q1335.06 58.1548 1338.43 62.8538 Q1341.83 67.5124 1347.74 67.5124 Q1353.66 67.5124 1357.02 62.8538 Q1360.42 58.1548 1360.42 49.9314 Z" fill="#000000" fill-rule="nonzero" fill-opacity="1" /><path clip-path="url(#clip800)" d="M1380.51 9.54393 L1387.97 9.54393 L1387.97 72.576 L1380.51 72.576 L1380.51 9.54393 Z" fill="#000000" fill-rule="nonzero" fill-opacity="1" /><path clip-path="url(#clip800)" d="M1442.37 48.0275 L1442.37 51.6733 L1408.1 51.6733 Q1408.59 59.3701 1412.72 63.421 Q1416.89 67.4314 1424.3 67.4314 Q1428.6 67.4314 1432.61 66.3781 Q1436.66 65.3249 1440.63 63.2184 L1440.63 70.267 Q1436.62 71.9684 1432.41 72.8596 Q1428.19 73.7508 1423.86 73.7508 Q1413 73.7508 1406.64 67.4314 Q1400.32 61.1119 1400.32 50.3365 Q1400.32 39.1965 1406.32 32.6746 Q1412.35 26.1121 1422.56 26.1121 Q1431.72 26.1121 1437.02 32.0264 Q1442.37 37.9003 1442.37 48.0275 M1434.92 45.84 Q1434.84 39.7232 1431.47 36.0774 Q1428.15 32.4315 1422.64 32.4315 Q1416.41 32.4315 1412.64 35.9558 Q1408.91 39.4801 1408.34 45.8805 L1434.92 45.84 Z" fill="#000000" fill-rule="nonzero" fill-opacity="1" /><path clip-path="url(#clip802)" d="M358.827 1203.05 L261.734 1203.05 L455.92 1203.05 L358.827 1203.05 L358.827 1031.16 L358.827 1203.05  Z" fill="#009af9" fill-rule="evenodd" fill-opacity="1"/>
<polyline clip-path="url(#clip802)" style="stroke:#000000; stroke-linecap:round; stroke-linejoin:round; stroke-width:4; stroke-opacity:1; fill:none" points="358.827,1203.05 261.734,1203.05 455.92,1203.05 358.827,1203.05 358.827,1031.16 358.827,1203.05 "/>
<path clip-path="url(#clip802)" d="M553.013 1031.16 L553.013 888.562 L164.64 888.562 L164.64 1031.16 L553.013 1031.16 L553.013 888.562 L553.013 1031.16  Z" fill="#009af9" fill-rule="evenodd" fill-opacity="1"/>
<polyline clip-path="url(#clip802)" style="stroke:#000000; stroke-linecap:round; stroke-linejoin:round; stroke-width:4; stroke-opacity:1; fill:none" points="553.013,1031.16 553.013,888.562 164.64,888.562 164.64,1031.16 553.013,1031.16 553.013,888.562 553.013,1031.16 "/>
<path clip-path="url(#clip802)" d="M553.013 806.076 L164.64 806.076 L164.64 888.562 L553.013 888.562 L553.013 806.076 L358.827 806.076 L553.013 806.076  Z" fill="#009af9" fill-rule="evenodd" fill-opacity="1"/>
<polyline clip-path="url(#clip802)" style="stroke:#000000; stroke-linecap:round; stroke-linejoin:round; stroke-width:4; stroke-opacity:1; fill:none" points="553.013,806.076 164.64,806.076 164.64,888.562 553.013,888.562 553.013,806.076 358.827,806.076 553.013,806.076 "/>
<path clip-path="url(#clip802)" d="M358.827 556.706 L261.734 556.706 L455.92 556.706 L358.827 556.706 L358.827 806.076 L358.827 556.706  Z" fill="#009af9" fill-rule="evenodd" fill-opacity="1"/>
<polyline clip-path="url(#clip802)" style="stroke:#000000; stroke-linecap:round; stroke-linejoin:round; stroke-width:4; stroke-opacity:1; fill:none" points="358.827,556.706 261.734,556.706 455.92,556.706 358.827,556.706 358.827,806.076 358.827,556.706 "/>
<path clip-path="url(#clip802)" d="M844.293 1070.5 L747.2 1070.5 L941.387 1070.5 L844.293 1070.5 L844.293 811.516 L844.293 1070.5  Z" fill="#009af9" fill-rule="evenodd" fill-opacity="1"/>
<polyline clip-path="url(#clip802)" style="stroke:#000000; stroke-linecap:round; stroke-linejoin:round; stroke-width:4; stroke-opacity:1; fill:none" points="844.293,1070.5 747.2,1070.5 941.387,1070.5 844.293,1070.5 844.293,811.516 844.293,1070.5 "/>
<path clip-path="url(#clip802)" d="M1038.48 811.516 L1038.48 754.766 L650.107 754.766 L650.107 811.516 L1038.48 811.516 L1038.48 754.766 L1038.48 811.516  Z" fill="#009af9" fill-rule="evenodd" fill-opacity="1"/>
<polyline clip-path="url(#clip802)" style="stroke:#000000; stroke-linecap:round; stroke-linejoin:round; stroke-width:4; stroke-opacity:1; fill:none" points="1038.48,811.516 1038.48,754.766 650.107,754.766 650.107,811.516 1038.48,811.516 1038.48,754.766 1038.48,811.516 "/>
<path clip-path="url(#clip802)" d="M1038.48 633.065 L650.107 633.065 L650.107 754.766 L1038.48 754.766 L1038.48 633.065 L844.293 633.065 L1038.48 633.065  Z" fill="#009af9" fill-rule="evenodd" fill-opacity="1"/>
<polyline clip-path="url(#clip802)" style="stroke:#000000; stroke-linecap:round; stroke-linejoin:round; stroke-width:4; stroke-opacity:1; fill:none" points="1038.48,633.065 650.107,633.065 650.107,754.766 1038.48,754.766 1038.48,633.065 844.293,633.065 1038.48,633.065 "/>
<path clip-path="url(#clip802)" d="M844.293 460.701 L747.2 460.701 L941.387 460.701 L844.293 460.701 L844.293 633.065 L844.293 460.701  Z" fill="#009af9" fill-rule="evenodd" fill-opacity="1"/>
<polyline clip-path="url(#clip802)" style="stroke:#000000; stroke-linecap:round; stroke-linejoin:round; stroke-width:4; stroke-opacity:1; fill:none" points="844.293,460.701 747.2,460.701 941.387,460.701 844.293,460.701 844.293,633.065 844.293,460.701 "/>
<path clip-path="url(#clip802)" d="M1329.76 859.762 L1232.67 859.762 L1426.85 859.762 L1329.76 859.762 L1329.76 688.504 L1329.76 859.762  Z" fill="#009af9" fill-rule="evenodd" fill-opacity="1"/>
<polyline clip-path="url(#clip802)" style="stroke:#000000; stroke-linecap:round; stroke-linejoin:round; stroke-width:4; stroke-opacity:1; fill:none" points="1329.76,859.762 1232.67,859.762 1426.85,859.762 1329.76,859.762 1329.76,688.504 1329.76,859.762 "/>
<path clip-path="url(#clip802)" d="M1523.95 688.504 L1523.95 559.866 L1135.57 559.866 L1135.57 688.504 L1523.95 688.504 L1523.95 559.866 L1523.95 688.504  Z" fill="#009af9" fill-rule="evenodd" fill-opacity="1"/>
<polyline clip-path="url(#clip802)" style="stroke:#000000; stroke-linecap:round; stroke-linejoin:round; stroke-width:4; stroke-opacity:1; fill:none" points="1523.95,688.504 1523.95,559.866 1135.57,559.866 1135.57,688.504 1523.95,688.504 1523.95,559.866 1523.95,688.504 "/>
<path clip-path="url(#clip802)" d="M1523.95 466.417 L1135.57 466.417 L1135.57 559.866 L1523.95 559.866 L1523.95 466.417 L1329.76 466.417 L1523.95 466.417  Z" fill="#009af9" fill-rule="evenodd" fill-opacity="1"/>
<polyline clip-path="url(#clip802)" style="stroke:#000000; stroke-linecap:round; stroke-linejoin:round; stroke-width:4; stroke-opacity:1; fill:none" points="1523.95,466.417 1135.57,466.417 1135.57,559.866 1523.95,559.866 1523.95,466.417 1329.76,466.417 1523.95,466.417 "/>
<path clip-path="url(#clip802)" d="M1329.76 303.076 L1232.67 303.076 L1426.85 303.076 L1329.76 303.076 L1329.76 466.417 L1329.76 303.076  Z" fill="#009af9" fill-rule="evenodd" fill-opacity="1"/>
<polyline clip-path="url(#clip802)" style="stroke:#000000; stroke-linecap:round; stroke-linejoin:round; stroke-width:4; stroke-opacity:1; fill:none" points="1329.76,303.076 1232.67,303.076 1426.85,303.076 1329.76,303.076 1329.76,466.417 1329.76,303.076 "/>
<path clip-path="url(#clip802)" d="M1815.23 756.606 L1718.13 756.606 L1912.32 756.606 L1815.23 756.606 L1815.23 544.803 L1815.23 756.606  Z" fill="#009af9" fill-rule="evenodd" fill-opacity="1"/>
<polyline clip-path="url(#clip802)" style="stroke:#000000; stroke-linecap:round; stroke-linejoin:round; stroke-width:4; stroke-opacity:1; fill:none" points="1815.23,756.606 1718.13,756.606 1912.32,756.606 1815.23,756.606 1815.23,544.803 1815.23,756.606 "/>
<path clip-path="url(#clip802)" d="M2009.41 544.803 L2009.41 429.568 L1621.04 429.568 L1621.04 544.803 L2009.41 544.803 L2009.41 429.568 L2009.41 544.803  Z" fill="#009af9" fill-rule="evenodd" fill-opacity="1"/>
<polyline clip-path="url(#clip802)" style="stroke:#000000; stroke-linecap:round; stroke-linejoin:round; stroke-width:4; stroke-opacity:1; fill:none" points="2009.41,544.803 2009.41,429.568 1621.04,429.568 1621.04,544.803 2009.41,544.803 2009.41,429.568 2009.41,544.803 "/>
<path clip-path="url(#clip802)" d="M2009.41 327.431 L1621.04 327.431 L1621.04 429.568 L2009.41 429.568 L2009.41 327.431 L1815.23 327.431 L2009.41 327.431  Z" fill="#009af9" fill-rule="evenodd" fill-opacity="1"/>
<polyline clip-path="url(#clip802)" style="stroke:#000000; stroke-linecap:round; stroke-linejoin:round; stroke-width:4; stroke-opacity:1; fill:none" points="2009.41,327.431 1621.04,327.431 1621.04,429.568 2009.41,429.568 2009.41,327.431 1815.23,327.431 2009.41,327.431 "/>
<path clip-path="url(#clip802)" d="M1815.23 152.247 L1718.13 152.247 L1912.32 152.247 L1815.23 152.247 L1815.23 327.431 L1815.23 152.247  Z" fill="#009af9" fill-rule="evenodd" fill-opacity="1"/>
<polyline clip-path="url(#clip802)" style="stroke:#000000; stroke-linecap:round; stroke-linejoin:round; stroke-width:4; stroke-opacity:1; fill:none" points="1815.23,152.247 1718.13,152.247 1912.32,152.247 1815.23,152.247 1815.23,327.431 1815.23,152.247 "/>
<circle clip-path="url(#clip802)" cx="844.293" cy="317.199" r="14.4" fill="#009af9" fill-rule="evenodd" fill-opacity="1" stroke="#000000" stroke-opacity="1" stroke-width="2.688"/>
<polyline clip-path="url(#clip802)" style="stroke:#009af9; stroke-linecap:round; stroke-linejoin:round; stroke-width:0; stroke-opacity:1; fill:none" points="358.827,1203.05 261.734,1203.05 455.92,1203.05 358.827,1203.05 358.827,1031.16 "/>
<polyline clip-path="url(#clip802)" style="stroke:#009af9; stroke-linecap:round; stroke-linejoin:round; stroke-width:0; stroke-opacity:1; fill:none" points="553.013,1031.16 553.013,888.562 164.64,888.562 164.64,1031.16 553.013,1031.16 553.013,888.562 "/>
<polyline clip-path="url(#clip802)" style="stroke:#009af9; stroke-linecap:round; stroke-linejoin:round; stroke-width:0; stroke-opacity:1; fill:none" points="553.013,806.076 164.64,806.076 164.64,888.562 553.013,888.562 553.013,806.076 358.827,806.076 "/>
<polyline clip-path="url(#clip802)" style="stroke:#009af9; stroke-linecap:round; stroke-linejoin:round; stroke-width:0; stroke-opacity:1; fill:none" points="358.827,556.706 261.734,556.706 455.92,556.706 358.827,556.706 358.827,806.076 "/>
<polyline clip-path="url(#clip802)" style="stroke:#009af9; stroke-linecap:round; stroke-linejoin:round; stroke-width:0; stroke-opacity:1; fill:none" points="844.293,1070.5 747.2,1070.5 941.387,1070.5 844.293,1070.5 844.293,811.516 "/>
<polyline clip-path="url(#clip802)" style="stroke:#009af9; stroke-linecap:round; stroke-linejoin:round; stroke-width:0; stroke-opacity:1; fill:none" points="1038.48,811.516 1038.48,754.766 650.107,754.766 650.107,811.516 1038.48,811.516 1038.48,754.766 "/>
<polyline clip-path="url(#clip802)" style="stroke:#009af9; stroke-linecap:round; stroke-linejoin:round; stroke-width:0; stroke-opacity:1; fill:none" points="1038.48,633.065 650.107,633.065 650.107,754.766 1038.48,754.766 1038.48,633.065 844.293,633.065 "/>
<polyline clip-path="url(#clip802)" style="stroke:#009af9; stroke-linecap:round; stroke-linejoin:round; stroke-width:0; stroke-opacity:1; fill:none" points="844.293,460.701 747.2,460.701 941.387,460.701 844.293,460.701 844.293,633.065 "/>
<polyline clip-path="url(#clip802)" style="stroke:#009af9; stroke-linecap:round; stroke-linejoin:round; stroke-width:0; stroke-opacity:1; fill:none" points="1329.76,859.762 1232.67,859.762 1426.85,859.762 1329.76,859.762 1329.76,688.504 "/>
<polyline clip-path="url(#clip802)" style="stroke:#009af9; stroke-linecap:round; stroke-linejoin:round; stroke-width:0; stroke-opacity:1; fill:none" points="1523.95,688.504 1523.95,559.866 1135.57,559.866 1135.57,688.504 1523.95,688.504 1523.95,559.866 "/>
<polyline clip-path="url(#clip802)" style="stroke:#009af9; stroke-linecap:round; stroke-linejoin:round; stroke-width:0; stroke-opacity:1; fill:none" points="1523.95,466.417 1135.57,466.417 1135.57,559.866 1523.95,559.866 1523.95,466.417 1329.76,466.417 "/>
<polyline clip-path="url(#clip802)" style="stroke:#009af9; stroke-linecap:round; stroke-linejoin:round; stroke-width:0; stroke-opacity:1; fill:none" points="1329.76,303.076 1232.67,303.076 1426.85,303.076 1329.76,303.076 1329.76,466.417 "/>
<polyline clip-path="url(#clip802)" style="stroke:#009af9; stroke-linecap:round; stroke-linejoin:round; stroke-width:0; stroke-opacity:1; fill:none" points="1815.23,756.606 1718.13,756.606 1912.32,756.606 1815.23,756.606 1815.23,544.803 "/>
<polyline clip-path="url(#clip802)" style="stroke:#009af9; stroke-linecap:round; stroke-linejoin:round; stroke-width:0; stroke-opacity:1; fill:none" points="2009.41,544.803 2009.41,429.568 1621.04,429.568 1621.04,544.803 2009.41,544.803 2009.41,429.568 "/>
<polyline clip-path="url(#clip802)" style="stroke:#009af9; stroke-linecap:round; stroke-linejoin:round; stroke-width:0; stroke-opacity:1; fill:none" points="2009.41,327.431 1621.04,327.431 1621.04,429.568 2009.41,429.568 2009.41,327.431 1815.23,327.431 "/>
<polyline clip-path="url(#clip802)" style="stroke:#009af9; stroke-linecap:round; stroke-linejoin:round; stroke-width:0; stroke-opacity:1; fill:none" points="1815.23,152.247 1718.13,152.247 1912.32,152.247 1815.23,152.247 1815.23,327.431 "/>
<path clip-path="url(#clip800)" d="M174.479 261.532 L422.455 261.532 L422.455 157.852 L174.479 157.852  Z" fill="#ffffff" fill-rule="evenodd" fill-opacity="1"/>
<polyline clip-path="url(#clip800)" style="stroke:#000000; stroke-linecap:round; stroke-linejoin:round; stroke-width:4; stroke-opacity:1; fill:none" points="174.479,261.532 422.455,261.532 422.455,157.852 174.479,157.852 174.479,261.532 "/>
<path clip-path="url(#clip800)" d="M196.206 230.428 L326.57 230.428 L326.57 188.956 L196.206 188.956 L196.206 230.428  Z" fill="#009af9" fill-rule="evenodd" fill-opacity="1"/>
<polyline clip-path="url(#clip800)" style="stroke:#000000; stroke-linecap:round; stroke-linejoin:round; stroke-width:4; stroke-opacity:1; fill:none" points="196.206,230.428 326.57,230.428 326.57,188.956 196.206,188.956 196.206,230.428 "/>
<path clip-path="url(#clip800)" d="M362.14 229.379 Q360.335 234.009 358.622 235.421 Q356.909 236.833 354.038 236.833 L350.636 236.833 L350.636 233.268 L353.136 233.268 Q354.895 233.268 355.867 232.434 Q356.839 231.601 358.02 228.499 L358.784 226.555 L348.298 201.046 L352.812 201.046 L360.913 221.323 L369.015 201.046 L373.529 201.046 L362.14 229.379 Z" fill="#000000" fill-rule="nonzero" fill-opacity="1" /><path clip-path="url(#clip800)" d="M380.821 223.036 L388.46 223.036 L388.46 196.671 L380.149 198.337 L380.149 194.078 L388.413 192.412 L393.089 192.412 L393.089 223.036 L400.728 223.036 L400.728 226.972 L380.821 226.972 L380.821 223.036 Z" fill="#000000" fill-rule="nonzero" fill-opacity="1" /></svg>
