<?xml version="1.0" encoding="utf-8"?>
<svg xmlns="http://www.w3.org/2000/svg" xmlns:xlink="http://www.w3.org/1999/xlink" width="1650" height="1050" viewBox="0 0 6600 4200">
<defs>
  <clipPath id="clip880">
    <rect x="0" y="0" width="6600" height="4200"/>
  </clipPath>
</defs>
<path clip-path="url(#clip880)" d="M0 4200 L6600 4200 L6600 6.66134e-14 L0 6.66134e-14  Z" fill="#ffffff" fill-rule="evenodd" fill-opacity="1"/>
<defs>
  <clipPath id="clip881">
    <rect x="1320" y="0" width="4621" height="4200"/>
  </clipPath>
</defs>
<path clip-path="url(#clip880)" d="M154.177 4062.02 L6552.76 4062.02 L6552.76 120.723 L154.177 120.723  Z" fill="#ffffff" fill-rule="evenodd" fill-opacity="1"/>
<defs>
  <clipPath id="clip882">
    <rect x="154" y="120" width="6400" height="3942"/>
  </clipPath>
</defs>
<polyline clip-path="url(#clip882)" style="stroke:#000000; stroke-linecap:round; stroke-linejoin:round; stroke-width:2; stroke-opacity:0.1; fill:none" points="970.679,4062.02 970.679,120.723 "/>
<polyline clip-path="url(#clip882)" style="stroke:#000000; stroke-linecap:round; stroke-linejoin:round; stroke-width:2; stroke-opacity:0.1; fill:none" points="2559.2,4062.02 2559.2,120.723 "/>
<polyline clip-path="url(#clip882)" style="stroke:#000000; stroke-linecap:round; stroke-linejoin:round; stroke-width:2; stroke-opacity:0.1; fill:none" points="4147.73,4062.02 4147.73,120.723 "/>
<polyline clip-path="url(#clip882)" style="stroke:#000000; stroke-linecap:round; stroke-linejoin:round; stroke-width:2; stroke-opacity:0.1; fill:none" points="5736.25,4062.02 5736.25,120.723 "/>
<polyline clip-path="url(#clip882)" style="stroke:#000000; stroke-linecap:round; stroke-linejoin:round; stroke-width:2; stroke-opacity:0.1; fill:none" points="154.177,3131.29 6552.76,3131.29 "/>
<polyline clip-path="url(#clip882)" style="stroke:#000000; stroke-linecap:round; stroke-linejoin:round; stroke-width:2; stroke-opacity:0.1; fill:none" points="154.177,2175.33 6552.76,2175.33 "/>
<polyline clip-path="url(#clip882)" style="stroke:#000000; stroke-linecap:round; stroke-linejoin:round; stroke-width:2; stroke-opacity:0.1; fill:none" points="154.177,1219.36 6552.76,1219.36 "/>
<polyline clip-path="url(#clip882)" style="stroke:#000000; stroke-linecap:round; stroke-linejoin:round; stroke-width:2; stroke-opacity:0.1; fill:none" points="154.177,263.393 6552.76,263.393 "/>
<polyline clip-path="url(#clip880)" style="stroke:#000000; stroke-linecap:round; stroke-linejoin:round; stroke-width:4; stroke-opacity:1; fill:none" points="154.177,4062.02 6552.76,4062.02 "/>
<polyline clip-path="url(#clip880)" style="stroke:#000000; stroke-linecap:round; stroke-linejoin:round; stroke-width:4; stroke-opacity:1; fill:none" points="970.679,4062.02 970.679,4043.12 "/>
<polyline clip-path="url(#clip880)" style="stroke:#000000; stroke-linecap:round; stroke-linejoin:round; stroke-width:4; stroke-opacity:1; fill:none" points="2559.2,4062.02 2559.2,4043.12 "/>
<polyline clip-path="url(#clip880)" style="stroke:#000000; stroke-linecap:round; stroke-linejoin:round; stroke-width:4; stroke-opacity:1; fill:none" points="4147.73,4062.02 4147.73,4043.12 "/>
<polyline clip-path="url(#clip880)" style="stroke:#000000; stroke-linecap:round; stroke-linejoin:round; stroke-width:4; stroke-opacity:1; fill:none" points="5736.25,4062.02 5736.25,4043.12 "/>
<path clip-path="url(#clip880)" d="M961.061 4154.08 L968.7 4154.08 L968.7 4127.72 L960.39 4129.38 L960.39 4125.13 L968.654 4123.46 L973.329 4123.46 L973.329 4154.08 L980.968 4154.08 L980.968 4158.02 L961.061 4158.02 L961.061 4154.08 Z" fill="#000000" fill-rule="nonzero" fill-opacity="1" /><path clip-path="url(#clip880)" d="M2553.86 4154.08 L2570.18 4154.08 L2570.18 4158.02 L2548.23 4158.02 L2548.23 4154.08 Q2550.89 4151.33 2555.48 4146.7 Q2560.08 4142.05 2561.26 4140.7 Q2563.51 4138.18 2564.39 4136.44 Q2565.29 4134.69 2565.29 4133 Q2565.29 4130.24 2563.35 4128.51 Q2561.43 4126.77 2558.32 4126.77 Q2556.13 4126.77 2553.67 4127.53 Q2551.24 4128.3 2548.46 4129.85 L2548.46 4125.13 Q2551.29 4123.99 2553.74 4123.41 Q2556.19 4122.83 2558.23 4122.83 Q2563.6 4122.83 2566.8 4125.52 Q2569.99 4128.2 2569.99 4132.69 Q2569.99 4134.82 2569.18 4136.75 Q2568.39 4138.64 2566.29 4141.24 Q2565.71 4141.91 2562.61 4145.13 Q2559.5 4148.32 2553.86 4154.08 Z" fill="#000000" fill-rule="nonzero" fill-opacity="1" /><path clip-path="url(#clip880)" d="M4151.98 4139.38 Q4155.33 4140.1 4157.21 4142.37 Q4159.11 4144.64 4159.11 4147.97 Q4159.11 4153.09 4155.59 4155.89 Q4152.07 4158.69 4145.59 4158.69 Q4143.41 4158.69 4141.1 4158.25 Q4138.81 4157.83 4136.35 4156.98 L4136.35 4152.46 Q4138.3 4153.6 4140.61 4154.18 Q4142.93 4154.75 4145.45 4154.75 Q4149.85 4154.75 4152.14 4153.02 Q4154.45 4151.28 4154.45 4147.97 Q4154.45 4144.92 4152.3 4143.2 Q4150.17 4141.47 4146.35 4141.47 L4142.32 4141.47 L4142.32 4137.63 L4146.54 4137.63 Q4149.99 4137.63 4151.81 4136.26 Q4153.64 4134.87 4153.64 4132.28 Q4153.64 4129.62 4151.75 4128.2 Q4149.87 4126.77 4146.35 4126.77 Q4144.43 4126.77 4142.23 4127.19 Q4140.03 4127.6 4137.39 4128.48 L4137.39 4124.32 Q4140.06 4123.57 4142.37 4123.2 Q4144.71 4122.83 4146.77 4122.83 Q4152.09 4122.83 4155.19 4125.26 Q4158.3 4127.67 4158.3 4131.79 Q4158.3 4134.66 4156.65 4136.65 Q4155.01 4138.62 4151.98 4139.38 Z" fill="#000000" fill-rule="nonzero" fill-opacity="1" /><path clip-path="url(#clip880)" d="M5739.26 4127.53 L5727.46 4145.98 L5739.26 4145.98 L5739.26 4127.53 M5738.04 4123.46 L5743.92 4123.46 L5743.92 4145.98 L5748.85 4145.98 L5748.85 4149.87 L5743.92 4149.87 L5743.92 4158.02 L5739.26 4158.02 L5739.26 4149.87 L5723.66 4149.87 L5723.66 4145.36 L5738.04 4123.46 Z" fill="#000000" fill-rule="nonzero" fill-opacity="1" /><polyline clip-path="url(#clip880)" style="stroke:#000000; stroke-linecap:round; stroke-linejoin:round; stroke-width:4; stroke-opacity:1; fill:none" points="154.177,4062.02 154.177,120.723 "/>
<polyline clip-path="url(#clip880)" style="stroke:#000000; stroke-linecap:round; stroke-linejoin:round; stroke-width:4; stroke-opacity:1; fill:none" points="154.177,3131.29 173.075,3131.29 "/>
<polyline clip-path="url(#clip880)" style="stroke:#000000; stroke-linecap:round; stroke-linejoin:round; stroke-width:4; stroke-opacity:1; fill:none" points="154.177,2175.33 173.075,2175.33 "/>
<polyline clip-path="url(#clip880)" style="stroke:#000000; stroke-linecap:round; stroke-linejoin:round; stroke-width:4; stroke-opacity:1; fill:none" points="154.177,1219.36 173.075,1219.36 "/>
<polyline clip-path="url(#clip880)" style="stroke:#000000; stroke-linecap:round; stroke-linejoin:round; stroke-width:4; stroke-opacity:1; fill:none" points="154.177,263.393 173.075,263.393 "/>
<path clip-path="url(#clip880)" d="M43.2328 3117.09 Q39.6217 3117.09 37.793 3120.66 Q35.9875 3124.2 35.9875 3131.33 Q35.9875 3138.43 37.793 3142 Q39.6217 3145.54 43.2328 3145.54 Q46.867 3145.54 48.6726 3142 Q50.5013 3138.43 50.5013 3131.33 Q50.5013 3124.2 48.6726 3120.66 Q46.867 3117.09 43.2328 3117.09 M43.2328 3113.39 Q49.0429 3113.39 52.0985 3117.99 Q55.1772 3122.58 55.1772 3131.33 Q55.1772 3140.05 52.0985 3144.66 Q49.0429 3149.24 43.2328 3149.24 Q37.4226 3149.24 34.344 3144.66 Q31.2884 3140.05 31.2884 3131.33 Q31.2884 3122.58 34.344 3117.99 Q37.4226 3113.39 43.2328 3113.39 Z" fill="#000000" fill-rule="nonzero" fill-opacity="1" /><path clip-path="url(#clip880)" d="M38.8578 2188.67 L55.1772 2188.67 L55.1772 2192.61 L33.2328 2192.61 L33.2328 2188.67 Q35.8949 2185.92 40.4782 2181.29 Q45.0846 2176.63 46.2652 2175.29 Q48.5105 2172.77 49.3902 2171.03 Q50.2929 2169.27 50.2929 2167.58 Q50.2929 2164.83 48.3485 2163.09 Q46.4272 2161.36 43.3254 2161.36 Q41.1263 2161.36 38.6726 2162.12 Q36.2421 2162.88 33.4643 2164.43 L33.4643 2159.71 Q36.2884 2158.58 38.7421 2158 Q41.1958 2157.42 43.2328 2157.42 Q48.6031 2157.42 51.7976 2160.11 Q54.992 2162.79 54.992 2167.28 Q54.992 2169.41 54.1818 2171.33 Q53.3948 2173.23 51.2883 2175.82 Q50.7096 2176.49 47.6078 2179.71 Q44.5059 2182.91 38.8578 2188.67 Z" fill="#000000" fill-rule="nonzero" fill-opacity="1" /><path clip-path="url(#clip880)" d="M45.5939 1206.15 L33.7884 1224.6 L45.5939 1224.6 L45.5939 1206.15 M44.367 1202.08 L50.2466 1202.08 L50.2466 1224.6 L55.1772 1224.6 L55.1772 1228.49 L50.2466 1228.49 L50.2466 1236.64 L45.5939 1236.64 L45.5939 1228.49 L29.9921 1228.49 L29.9921 1223.98 L44.367 1202.08 Z" fill="#000000" fill-rule="nonzero" fill-opacity="1" /><path clip-path="url(#clip880)" d="M43.6495 261.529 Q40.5013 261.529 38.6495 263.682 Q36.8208 265.835 36.8208 269.585 Q36.8208 273.312 38.6495 275.487 Q40.5013 277.64 43.6495 277.64 Q46.7976 277.64 48.6263 275.487 Q50.4781 273.312 50.4781 269.585 Q50.4781 265.835 48.6263 263.682 Q46.7976 261.529 43.6495 261.529 M52.9318 246.876 L52.9318 251.136 Q51.1726 250.302 49.367 249.863 Q47.5846 249.423 45.8254 249.423 Q41.1958 249.423 38.7421 252.548 Q36.3115 255.673 35.9643 261.992 Q37.33 259.978 39.3902 258.913 Q41.4504 257.825 43.9272 257.825 Q49.1355 257.825 52.1448 260.997 Q55.1772 264.145 55.1772 269.585 Q55.1772 274.909 52.029 278.126 Q48.8809 281.344 43.6495 281.344 Q37.6541 281.344 34.4828 276.761 Q31.3116 272.154 31.3116 263.427 Q31.3116 255.233 35.2004 250.372 Q39.0893 245.488 45.6402 245.488 Q47.3994 245.488 49.1818 245.835 Q50.9874 246.182 52.9318 246.876 Z" fill="#000000" fill-rule="nonzero" fill-opacity="1" /><path clip-path="url(#clip880)" d="M3006.3 43.6931 L3006.3 65.8515 L3019.43 65.8515 Q3026.03 65.8515 3029.19 63.1374 Q3032.39 60.3828 3032.39 54.752 Q3032.39 49.0808 3029.19 46.4072 Q3026.03 43.6931 3019.43 43.6931 L3006.3 43.6931 M3006.3 18.8205 L3006.3 37.0496 L3018.42 37.0496 Q3024.41 37.0496 3027.33 34.8216 Q3030.29 32.5531 3030.29 27.935 Q3030.29 23.3575 3027.33 21.089 Q3024.41 18.8205 3018.42 18.8205 L3006.3 18.8205 M2998.12 12.096 L3019.02 12.096 Q3028.38 12.096 3033.45 15.9849 Q3038.51 19.8737 3038.51 27.0438 Q3038.51 32.5936 3035.92 35.8748 Q3033.32 39.156 3028.3 39.9662 Q3034.34 41.2625 3037.66 45.3944 Q3041.02 49.4858 3041.02 55.6432 Q3041.02 63.745 3035.51 68.1605 Q3030 72.576 3019.83 72.576 L2998.12 72.576 L2998.12 12.096 Z" fill="#000000" fill-rule="nonzero" fill-opacity="1" /><path clip-path="url(#clip880)" d="M3072.29 32.4315 Q3066.3 32.4315 3062.81 37.1306 Q3059.33 41.7891 3059.33 49.9314 Q3059.33 58.0738 3062.77 62.7728 Q3066.26 67.4314 3072.29 67.4314 Q3078.25 67.4314 3081.73 62.7323 Q3085.22 58.0333 3085.22 49.9314 Q3085.22 41.8701 3081.73 37.1711 Q3078.25 32.4315 3072.29 32.4315 M3072.29 26.1121 Q3082.02 26.1121 3087.57 32.4315 Q3093.11 38.7509 3093.11 49.9314 Q3093.11 61.0714 3087.57 67.4314 Q3082.02 73.7508 3072.29 73.7508 Q3062.53 73.7508 3056.98 67.4314 Q3051.47 61.0714 3051.47 49.9314 Q3051.47 38.7509 3056.98 32.4315 Q3062.53 26.1121 3072.29 26.1121 Z" fill="#000000" fill-rule="nonzero" fill-opacity="1" /><path clip-path="url(#clip880)" d="M3140.63 27.2059 L3124.23 49.2833 L3141.48 72.576 L3132.69 72.576 L3119.49 54.752 L3106.28 72.576 L3097.49 72.576 L3115.11 48.8377 L3098.99 27.2059 L3107.78 27.2059 L3119.81 43.369 L3131.84 27.2059 L3140.63 27.2059 Z" fill="#000000" fill-rule="nonzero" fill-opacity="1" /><path clip-path="url(#clip880)" d="M3186.89 18.8205 L3186.89 41.5461 L3197.18 41.5461 Q3202.89 41.5461 3206.01 38.5889 Q3209.13 35.6318 3209.13 30.163 Q3209.13 24.7348 3206.01 21.7777 Q3202.89 18.8205 3197.18 18.8205 L3186.89 18.8205 M3178.71 12.096 L3197.18 12.096 Q3207.35 12.096 3212.54 16.714 Q3217.76 21.2916 3217.76 30.163 Q3217.76 39.1155 3212.54 43.6931 Q3207.35 48.2706 3197.18 48.2706 L3186.89 48.2706 L3186.89 72.576 L3178.71 72.576 L3178.71 12.096 Z" fill="#000000" fill-rule="nonzero" fill-opacity="1" /><path clip-path="url(#clip880)" d="M3228.42 9.54393 L3235.87 9.54393 L3235.87 72.576 L3228.42 72.576 L3228.42 9.54393 Z" fill="#000000" fill-rule="nonzero" fill-opacity="1" /><path clip-path="url(#clip880)" d="M3269.05 32.4315 Q3263.05 32.4315 3259.57 37.1306 Q3256.08 41.7891 3256.08 49.9314 Q3256.08 58.0738 3259.53 62.7728 Q3263.01 67.4314 3269.05 67.4314 Q3275 67.4314 3278.48 62.7323 Q3281.97 58.0333 3281.97 49.9314 Q3281.97 41.8701 3278.48 37.1711 Q3275 32.4315 3269.05 32.4315 M3269.05 26.1121 Q3278.77 26.1121 3284.32 32.4315 Q3289.87 38.7509 3289.87 49.9314 Q3289.87 61.0714 3284.32 67.4314 Q3278.77 73.7508 3269.05 73.7508 Q3259.28 73.7508 3253.73 67.4314 Q3248.22 61.0714 3248.22 49.9314 Q3248.22 38.7509 3253.73 32.4315 Q3259.28 26.1121 3269.05 26.1121 Z" fill="#000000" fill-rule="nonzero" fill-opacity="1" /><path clip-path="url(#clip880)" d="M3309.6 14.324 L3309.6 27.2059 L3324.95 27.2059 L3324.95 32.9987 L3309.6 32.9987 L3309.6 57.6282 Q3309.6 63.1779 3311.09 64.7578 Q3312.63 66.3376 3317.29 66.3376 L3324.95 66.3376 L3324.95 72.576 L3317.29 72.576 Q3308.66 72.576 3305.38 69.3758 Q3302.1 66.1351 3302.1 57.6282 L3302.1 32.9987 L3296.63 32.9987 L3296.63 27.2059 L3302.1 27.2059 L3302.1 14.324 L3309.6 14.324 Z" fill="#000000" fill-rule="nonzero" fill-opacity="1" /><path clip-path="url(#clip880)" d="M3361.45 12.096 L3399.69 12.096 L3399.69 18.9825 L3369.63 18.9825 L3369.63 36.8875 L3398.43 36.8875 L3398.43 43.7741 L3369.63 43.7741 L3369.63 65.6895 L3400.42 65.6895 L3400.42 72.576 L3361.45 72.576 L3361.45 12.096 Z" fill="#000000" fill-rule="nonzero" fill-opacity="1" /><path clip-path="url(#clip880)" d="M3451.26 27.2059 L3434.85 49.2833 L3452.11 72.576 L3443.32 72.576 L3430.11 54.752 L3416.9 72.576 L3408.11 72.576 L3425.73 48.8377 L3409.61 27.2059 L3418.4 27.2059 L3430.43 43.369 L3442.46 27.2059 L3451.26 27.2059 Z" fill="#000000" fill-rule="nonzero" fill-opacity="1" /><path clip-path="url(#clip880)" d="M3483.26 49.7694 Q3474.22 49.7694 3470.74 51.8354 Q3467.26 53.9013 3467.26 58.8839 Q3467.26 62.8538 3469.85 65.2034 Q3472.48 67.5124 3476.98 67.5124 Q3483.18 67.5124 3486.9 63.1374 Q3490.67 58.7219 3490.67 51.4303 L3490.67 49.7694 L3483.26 49.7694 M3498.12 46.6907 L3498.12 72.576 L3490.67 72.576 L3490.67 65.6895 Q3488.12 69.8214 3484.31 71.8063 Q3480.5 73.7508 3474.99 73.7508 Q3468.03 73.7508 3463.89 69.8619 Q3459.8 65.9325 3459.8 59.3701 Q3459.8 51.7138 3464.91 47.825 Q3470.05 43.9361 3480.22 43.9361 L3490.67 43.9361 L3490.67 43.2069 Q3490.67 38.0623 3487.27 35.2672 Q3483.91 32.4315 3477.79 32.4315 Q3473.9 32.4315 3470.21 33.3632 Q3466.53 34.295 3463.12 36.1584 L3463.12 29.2718 Q3467.22 27.692 3471.06 26.9223 Q3474.91 26.1121 3478.56 26.1121 Q3488.4 26.1121 3493.26 31.2163 Q3498.12 36.3204 3498.12 46.6907 Z" fill="#000000" fill-rule="nonzero" fill-opacity="1" /><path clip-path="url(#clip880)" d="M3548.8 35.9153 Q3551.6 30.8922 3555.49 28.5022 Q3559.37 26.1121 3564.64 26.1121 Q3571.73 26.1121 3575.58 31.0947 Q3579.43 36.0368 3579.43 45.1919 L3579.43 72.576 L3571.93 72.576 L3571.93 45.4349 Q3571.93 38.913 3569.62 35.7533 Q3567.31 32.5936 3562.57 32.5936 Q3556.78 32.5936 3553.42 36.4419 Q3550.06 40.2903 3550.06 46.9338 L3550.06 72.576 L3542.56 72.576 L3542.56 45.4349 Q3542.56 38.8725 3540.25 35.7533 Q3537.94 32.5936 3533.12 32.5936 Q3527.41 32.5936 3524.05 36.4824 Q3520.69 40.3308 3520.69 46.9338 L3520.69 72.576 L3513.19 72.576 L3513.19 27.2059 L3520.69 27.2059 L3520.69 34.2544 Q3523.24 30.082 3526.8 28.0971 Q3530.37 26.1121 3535.27 26.1121 Q3540.21 26.1121 3543.66 28.6237 Q3547.14 31.1352 3548.8 35.9153 Z" fill="#000000" fill-rule="nonzero" fill-opacity="1" /><path clip-path="url(#clip880)" d="M3601.5 65.7705 L3601.5 89.8329 L3594.01 89.8329 L3594.01 27.2059 L3601.5 27.2059 L3601.5 34.0924 Q3603.85 30.0415 3607.42 28.0971 Q3611.02 26.1121 3616.01 26.1121 Q3624.27 26.1121 3629.41 32.6746 Q3634.6 39.2371 3634.6 49.9314 Q3634.6 60.6258 3629.41 67.1883 Q3624.27 73.7508 3616.01 73.7508 Q3611.02 73.7508 3607.42 71.8063 Q3603.85 69.8214 3601.5 65.7705 M3626.86 49.9314 Q3626.86 41.7081 3623.46 37.0496 Q3620.1 32.3505 3614.18 32.3505 Q3608.27 32.3505 3604.87 37.0496 Q3601.5 41.7081 3601.5 49.9314 Q3601.5 58.1548 3604.87 62.8538 Q3608.27 67.5124 3614.18 67.5124 Q3620.1 67.5124 3623.46 62.8538 Q3626.86 58.1548 3626.86 49.9314 Z" fill="#000000" fill-rule="nonzero" fill-opacity="1" /><path clip-path="url(#clip880)" d="M3646.95 9.54393 L3654.41 9.54393 L3654.41 72.576 L3646.95 72.576 L3646.95 9.54393 Z" fill="#000000" fill-rule="nonzero" fill-opacity="1" /><path clip-path="url(#clip880)" d="M3708.81 48.0275 L3708.81 51.6733 L3674.54 51.6733 Q3675.03 59.3701 3679.16 63.421 Q3683.33 67.4314 3690.74 67.4314 Q3695.04 67.4314 3699.05 66.3781 Q3703.1 65.3249 3707.07 63.2184 L3707.07 70.267 Q3703.06 71.9684 3698.85 72.8596 Q3694.63 73.7508 3690.3 73.7508 Q3679.44 73.7508 3673.08 67.4314 Q3666.76 61.1119 3666.76 50.3365 Q3666.76 39.1965 3672.76 32.6746 Q3678.79 26.1121 3689 26.1121 Q3698.16 26.1121 3703.46 32.0264 Q3708.81 37.9003 3708.81 48.0275 M3701.36 45.84 Q3701.28 39.7232 3697.91 36.0774 Q3694.59 32.4315 3689.08 32.4315 Q3682.85 32.4315 3679.08 35.9558 Q3675.35 39.4801 3674.78 45.8805 L3701.36 45.84 Z" fill="#000000" fill-rule="nonzero" fill-opacity="1" /><path clip-path="url(#clip882)" d="M970.679 3950.47 L652.974 3950.47 L1288.38 3950.47 L970.679 3950.47 L970.679 3022.82 L970.679 3950.47  Z" fill="#009af9" fill-rule="evenodd" fill-opacity="1"/>
<polyline clip-path="url(#clip882)" style="stroke:#000000; stroke-linecap:round; stroke-linejoin:round; stroke-width:4; stroke-opacity:1; fill:none" points="970.679,3950.47 652.974,3950.47 1288.38,3950.47 970.679,3950.47 970.679,3022.82 970.679,3950.47 "/>
<path clip-path="url(#clip882)" d="M1606.09 3022.82 L1606.09 2575.89 L335.269 2575.89 L335.269 3022.82 L1606.09 3022.82 L1606.09 2575.89 L1606.09 3022.82  Z" fill="#009af9" fill-rule="evenodd" fill-opacity="1"/>
<polyline clip-path="url(#clip882)" style="stroke:#000000; stroke-linecap:round; stroke-linejoin:round; stroke-width:4; stroke-opacity:1; fill:none" points="1606.09,3022.82 1606.09,2575.89 335.269,2575.89 335.269,3022.82 1606.09,3022.82 1606.09,2575.89 1606.09,3022.82 "/>
<path clip-path="url(#clip882)" d="M1606.09 2295.69 L335.269 2295.69 L335.269 2575.89 L1606.09 2575.89 L1606.09 2295.69 L970.679 2295.69 L1606.09 2295.69  Z" fill="#009af9" fill-rule="evenodd" fill-opacity="1"/>
<polyline clip-path="url(#clip882)" style="stroke:#000000; stroke-linecap:round; stroke-linejoin:round; stroke-width:4; stroke-opacity:1; fill:none" points="1606.09,2295.69 335.269,2295.69 335.269,2575.89 1606.09,2575.89 1606.09,2295.69 970.679,2295.69 1606.09,2295.69 "/>
<path clip-path="url(#clip882)" d="M970.679 1691.37 L652.974 1691.37 L1288.38 1691.37 L970.679 1691.37 L970.679 2295.69 L970.679 1691.37  Z" fill="#009af9" fill-rule="evenodd" fill-opacity="1"/>
<polyline clip-path="url(#clip882)" style="stroke:#000000; stroke-linecap:round; stroke-linejoin:round; stroke-width:4; stroke-opacity:1; fill:none" points="970.679,1691.37 652.974,1691.37 1288.38,1691.37 970.679,1691.37 970.679,2295.69 970.679,1691.37 "/>
<path clip-path="url(#clip882)" d="M2559.2 3360.16 L2241.5 3360.16 L2876.91 3360.16 L2559.2 3360.16 L2559.2 2532.79 L2559.2 3360.16  Z" fill="#009af9" fill-rule="evenodd" fill-opacity="1"/>
<polyline clip-path="url(#clip882)" style="stroke:#000000; stroke-linecap:round; stroke-linejoin:round; stroke-width:4; stroke-opacity:1; fill:none" points="2559.2,3360.16 2241.5,3360.16 2876.91,3360.16 2559.2,3360.16 2559.2,2532.79 2559.2,3360.16 "/>
<path clip-path="url(#clip882)" d="M3194.61 2532.79 L3194.61 2238.75 L1923.79 2238.75 L1923.79 2532.79 L3194.61 2532.79 L3194.61 2238.75 L3194.61 2532.79  Z" fill="#009af9" fill-rule="evenodd" fill-opacity="1"/>
<polyline clip-path="url(#clip882)" style="stroke:#000000; stroke-linecap:round; stroke-linejoin:round; stroke-width:4; stroke-opacity:1; fill:none" points="3194.61,2532.79 3194.61,2238.75 1923.79,2238.75 1923.79,2532.79 3194.61,2532.79 3194.61,2238.75 3194.61,2532.79 "/>
<path clip-path="url(#clip882)" d="M3194.61 1893.07 L1923.79 1893.07 L1923.79 2238.75 L3194.61 2238.75 L3194.61 1893.07 L2559.2 1893.07 L3194.61 1893.07  Z" fill="#009af9" fill-rule="evenodd" fill-opacity="1"/>
<polyline clip-path="url(#clip882)" style="stroke:#000000; stroke-linecap:round; stroke-linejoin:round; stroke-width:4; stroke-opacity:1; fill:none" points="3194.61,1893.07 1923.79,1893.07 1923.79,2238.75 3194.61,2238.75 3194.61,1893.07 2559.2,1893.07 3194.61,1893.07 "/>
<path clip-path="url(#clip882)" d="M2559.2 1038.43 L2241.5 1038.43 L2876.91 1038.43 L2559.2 1038.43 L2559.2 1893.07 L2559.2 1038.43  Z" fill="#009af9" fill-rule="evenodd" fill-opacity="1"/>
<polyline clip-path="url(#clip882)" style="stroke:#000000; stroke-linecap:round; stroke-linejoin:round; stroke-width:4; stroke-opacity:1; fill:none" points="2559.2,1038.43 2241.5,1038.43 2876.91,1038.43 2559.2,1038.43 2559.2,1893.07 2559.2,1038.43 "/>
<path clip-path="url(#clip882)" d="M4147.73 2707.07 L3830.02 2707.07 L4465.43 2707.07 L4147.73 2707.07 L4147.73 1935.07 L4147.73 2707.07  Z" fill="#009af9" fill-rule="evenodd" fill-opacity="1"/>
<polyline clip-path="url(#clip882)" style="stroke:#000000; stroke-linecap:round; stroke-linejoin:round; stroke-width:4; stroke-opacity:1; fill:none" points="4147.73,2707.07 3830.02,2707.07 4465.43,2707.07 4147.73,2707.07 4147.73,1935.07 4147.73,2707.07 "/>
<path clip-path="url(#clip882)" d="M4783.14 1935.07 L4783.14 1713.79 L3512.32 1713.79 L3512.32 1935.07 L4783.14 1935.07 L4783.14 1713.79 L4783.14 1935.07  Z" fill="#009af9" fill-rule="evenodd" fill-opacity="1"/>
<polyline clip-path="url(#clip882)" style="stroke:#000000; stroke-linecap:round; stroke-linejoin:round; stroke-width:4; stroke-opacity:1; fill:none" points="4783.14,1935.07 4783.14,1713.79 3512.32,1713.79 3512.32,1935.07 4783.14,1935.07 4783.14,1713.79 4783.14,1935.07 "/>
<path clip-path="url(#clip882)" d="M4783.14 1403.66 L3512.32 1403.66 L3512.32 1713.79 L4783.14 1713.79 L4783.14 1403.66 L4147.73 1403.66 L4783.14 1403.66  Z" fill="#009af9" fill-rule="evenodd" fill-opacity="1"/>
<polyline clip-path="url(#clip882)" style="stroke:#000000; stroke-linecap:round; stroke-linejoin:round; stroke-width:4; stroke-opacity:1; fill:none" points="4783.14,1403.66 3512.32,1403.66 3512.32,1713.79 4783.14,1713.79 4783.14,1403.66 4147.73,1403.66 4783.14,1403.66 "/>
<path clip-path="url(#clip882)" d="M4147.73 739.875 L3830.02 739.875 L4465.43 739.875 L4147.73 739.875 L4147.73 1403.66 L4147.73 739.875  Z" fill="#009af9" fill-rule="evenodd" fill-opacity="1"/>
<polyline clip-path="url(#clip882)" style="stroke:#000000; stroke-linecap:round; stroke-linejoin:round; stroke-width:4; stroke-opacity:1; fill:none" points="4147.73,739.875 3830.02,739.875 4465.43,739.875 4147.73,739.875 4147.73,1403.66 4147.73,739.875 "/>
<path clip-path="url(#clip882)" d="M5736.25 2405.75 L5418.55 2405.75 L6053.96 2405.75 L5736.25 2405.75 L5736.25 1583.97 L5736.25 2405.75  Z" fill="#009af9" fill-rule="evenodd" fill-opacity="1"/>
<polyline clip-path="url(#clip882)" style="stroke:#000000; stroke-linecap:round; stroke-linejoin:round; stroke-width:4; stroke-opacity:1; fill:none" points="5736.25,2405.75 5418.55,2405.75 6053.96,2405.75 5736.25,2405.75 5736.25,1583.97 5736.25,2405.75 "/>
<path clip-path="url(#clip882)" d="M6371.66 1583.97 L6371.66 1249.45 L5100.84 1249.45 L5100.84 1583.97 L6371.66 1583.97 L6371.66 1249.45 L6371.66 1583.97  Z" fill="#009af9" fill-rule="evenodd" fill-opacity="1"/>
<polyline clip-path="url(#clip882)" style="stroke:#000000; stroke-linecap:round; stroke-linejoin:round; stroke-width:4; stroke-opacity:1; fill:none" points="6371.66,1583.97 6371.66,1249.45 5100.84,1249.45 5100.84,1583.97 6371.66,1583.97 6371.66,1249.45 6371.66,1583.97 "/>
<path clip-path="url(#clip882)" d="M6371.66 962.708 L5100.84 962.708 L5100.84 1249.45 L6371.66 1249.45 L6371.66 962.708 L5736.25 962.708 L6371.66 962.708  Z" fill="#009af9" fill-rule="evenodd" fill-opacity="1"/>
<polyline clip-path="url(#clip882)" style="stroke:#000000; stroke-linecap:round; stroke-linejoin:round; stroke-width:4; stroke-opacity:1; fill:none" points="6371.66,962.708 5100.84,962.708 5100.84,1249.45 6371.66,1249.45 6371.66,962.708 5736.25,962.708 6371.66,962.708 "/>
<path clip-path="url(#clip882)" d="M5736.25 232.269 L5418.55 232.269 L6053.96 232.269 L5736.25 232.269 L5736.25 962.708 L5736.25 232.269  Z" fill="#009af9" fill-rule="evenodd" fill-opacity="1"/>
<polyline clip-path="url(#clip882)" style="stroke:#000000; stroke-linecap:round; stroke-linejoin:round; stroke-width:4; stroke-opacity:1; fill:none" points="5736.25,232.269 5418.55,232.269 6053.96,232.269 5736.25,232.269 5736.25,962.708 5736.25,232.269 "/>
<polyline clip-path="url(#clip882)" style="stroke:#009af9; stroke-linecap:round; stroke-linejoin:round; stroke-width:0; stroke-opacity:1; fill:none" points="970.679,3950.47 652.974,3950.47 1288.38,3950.47 970.679,3950.47 970.679,3022.82 "/>
<polyline clip-path="url(#clip882)" style="stroke:#009af9; stroke-linecap:round; stroke-linejoin:round; stroke-width:0; stroke-opacity:1; fill:none" points="1606.09,3022.82 1606.09,2575.89 335.269,2575.89 335.269,3022.82 1606.09,3022.82 1606.09,2575.89 "/>
<polyline clip-path="url(#clip882)" style="stroke:#009af9; stroke-linecap:round; stroke-linejoin:round; stroke-width:0; stroke-opacity:1; fill:none" points="1606.09,2295.69 335.269,2295.69 335.269,2575.89 1606.09,2575.89 1606.09,2295.69 970.679,2295.69 "/>
<polyline clip-path="url(#clip882)" style="stroke:#009af9; stroke-linecap:round; stroke-linejoin:round; stroke-width:0; stroke-opacity:1; fill:none" points="970.679,1691.37 652.974,1691.37 1288.38,1691.37 970.679,1691.37 970.679,2295.69 "/>
<polyline clip-path="url(#clip882)" style="stroke:#009af9; stroke-linecap:round; stroke-linejoin:round; stroke-width:0; stroke-opacity:1; fill:none" points="2559.2,3360.16 2241.5,3360.16 2876.91,3360.16 2559.2,3360.16 2559.2,2532.79 "/>
<polyline clip-path="url(#clip882)" style="stroke:#009af9; stroke-linecap:round; stroke-linejoin:round; stroke-width:0; stroke-opacity:1; fill:none" points="3194.61,2532.79 3194.61,2238.75 1923.79,2238.75 1923.79,2532.79 3194.61,2532.79 3194.61,2238.75 "/>
<polyline clip-path="url(#clip882)" style="stroke:#009af9; stroke-linecap:round; stroke-linejoin:round; stroke-width:0; stroke-opacity:1; fill:none" points="3194.61,1893.07 1923.79,1893.07 1923.79,2238.75 3194.61,2238.75 3194.61,1893.07 2559.2,1893.07 "/>
<polyline clip-path="url(#clip882)" style="stroke:#009af9; stroke-linecap:round; stroke-linejoin:round; stroke-width:0; stroke-opacity:1; fill:none" points="2559.2,1038.43 2241.5,1038.43 2876.91,1038.43 2559.2,1038.43 2559.2,1893.07 "/>
<polyline clip-path="url(#clip882)" style="stroke:#009af9; stroke-linecap:round; stroke-linejoin:round; stroke-width:0; stroke-opacity:1; fill:none" points="4147.73,2707.07 3830.02,2707.07 4465.43,2707.07 4147.73,2707.07 4147.73,1935.07 "/>
<polyline clip-path="url(#clip882)" style="stroke:#009af9; stroke-linecap:round; stroke-linejoin:round; stroke-width:0; stroke-opacity:1; fill:none" points="4783.14,1935.07 4783.14,1713.79 3512.32,1713.79 3512.32,1935.07 4783.14,1935.07 4783.14,1713.79 "/>
<polyline clip-path="url(#clip882)" style="stroke:#009af9; stroke-linecap:round; stroke-linejoin:round; stroke-width:0; stroke-opacity:1; fill:none" points="4783.14,1403.66 3512.32,1403.66 3512.32,1713.79 4783.14,1713.79 4783.14,1403.66 4147.73,1403.66 "/>
<polyline clip-path="url(#clip882)" style="stroke:#009af9; stroke-linecap:round; stroke-linejoin:round; stroke-width:0; stroke-opacity:1; fill:none" points="4147.73,739.875 3830.02,739.875 4465.43,739.875 4147.73,739.875 4147.73,1403.66 "/>
<polyline clip-path="url(#clip882)" style="stroke:#009af9; stroke-linecap:round; stroke-linejoin:round; stroke-width:0; stroke-opacity:1; fill:none" points="5736.25,2405.75 5418.55,2405.75 6053.96,2405.75 5736.25,2405.75 5736.25,1583.97 "/>
<polyline clip-path="url(#clip882)" style="stroke:#009af9; stroke-linecap:round; stroke-linejoin:round; stroke-width:0; stroke-opacity:1; fill:none" points="6371.66,1583.97 6371.66,1249.45 5100.84,1249.45 5100.84,1583.97 6371.66,1583.97 6371.66,1249.45 "/>
<polyline clip-path="url(#clip882)" style="stroke:#009af9; stroke-linecap:round; stroke-linejoin:round; stroke-width:0; stroke-opacity:1; fill:none" points="6371.66,962.708 5100.84,962.708 5100.84,1249.45 6371.66,1249.45 6371.66,962.708 5736.25,962.708 "/>
<polyline clip-path="url(#clip882)" style="stroke:#009af9; stroke-linecap:round; stroke-linejoin:round; stroke-width:0; stroke-opacity:1; fill:none" points="5736.25,232.269 5418.55,232.269 6053.96,232.269 5736.25,232.269 5736.25,962.708 "/>
<path clip-path="url(#clip880)" d="M367.463 355.78 L1059.75 355.78 L1059.75 252.1 L367.463 252.1  Z" fill="#ffffff" fill-rule="evenodd" fill-opacity="1"/>
<polyline clip-path="url(#clip880)" style="stroke:#000000; stroke-linecap:round; stroke-linejoin:round; stroke-width:4; stroke-opacity:1; fill:none" points="367.463,355.78 1059.75,355.78 1059.75,252.1 367.463,252.1 367.463,355.78 "/>
<path clip-path="url(#clip880)" d="M438.558 324.676 L865.13 324.676 L865.13 283.204 L438.558 283.204 L438.558 324.676  Z" fill="#009af9" fill-rule="evenodd" fill-opacity="1"/>
<polyline clip-path="url(#clip880)" style="stroke:#000000; stroke-linecap:round; stroke-linejoin:round; stroke-width:4; stroke-opacity:1; fill:none" points="438.558,324.676 865.13,324.676 865.13,283.204 438.558,283.204 438.558,324.676 "/>
<path clip-path="url(#clip880)" d="M950.068 323.627 Q948.263 328.257 946.55 329.669 Q944.837 331.081 941.966 331.081 L938.564 331.081 L938.564 327.516 L941.064 327.516 Q942.823 327.516 943.795 326.682 Q944.767 325.849 945.948 322.747 L946.712 320.803 L936.226 295.294 L940.74 295.294 L948.841 315.571 L956.943 295.294 L961.457 295.294 L950.068 323.627 Z" fill="#000000" fill-rule="nonzero" fill-opacity="1" /><path clip-path="url(#clip880)" d="M968.749 317.284 L976.388 317.284 L976.388 290.919 L968.077 292.585 L968.077 288.326 L976.341 286.66 L981.017 286.66 L981.017 317.284 L988.656 317.284 L988.656 321.22 L968.749 321.22 L968.749 317.284 Z" fill="#000000" fill-rule="nonzero" fill-opacity="1" /></svg>
