<?xml version="1.0" encoding="utf-8"?>
<svg xmlns="http://www.w3.org/2000/svg" xmlns:xlink="http://www.w3.org/1999/xlink" width="528" height="336" viewBox="0 0 2112 1344">
<defs>
  <clipPath id="clip560">
    <rect x="0" y="0" width="2112" height="1344"/>
  </clipPath>
</defs>
<path clip-path="url(#clip560)" d="M0 1344 L2112 1344 L2112 2.13163e-14 L0 2.13163e-14  Z" fill="#ffffff" fill-rule="evenodd" fill-opacity="1"/>
<defs>
  <clipPath id="clip561">
    <rect x="422" y="0" width="1479" height="1344"/>
  </clipPath>
</defs>
<path clip-path="url(#clip560)" d="M244.502 1173.47 L2064.76 1173.47 L2064.76 120.723 L244.502 120.723  Z" fill="#ffffff" fill-rule="evenodd" fill-opacity="1"/>
<defs>
  <clipPath id="clip562">
    <rect x="244" y="120" width="1821" height="1054"/>
  </clipPath>
</defs>
<polyline clip-path="url(#clip562)" style="stroke:#000000; stroke-linecap:round; stroke-linejoin:round; stroke-width:2; stroke-opacity:0.1; fill:none" points="486.821,1173.47 486.821,120.723 "/>
<polyline clip-path="url(#clip562)" style="stroke:#000000; stroke-linecap:round; stroke-linejoin:round; stroke-width:2; stroke-opacity:0.1; fill:none" points="868.426,1173.47 868.426,120.723 "/>
<polyline clip-path="url(#clip562)" style="stroke:#000000; stroke-linecap:round; stroke-linejoin:round; stroke-width:2; stroke-opacity:0.1; fill:none" points="1250.03,1173.47 1250.03,120.723 "/>
<polyline clip-path="url(#clip562)" style="stroke:#000000; stroke-linecap:round; stroke-linejoin:round; stroke-width:2; stroke-opacity:0.1; fill:none" points="1631.63,1173.47 1631.63,120.723 "/>
<polyline clip-path="url(#clip562)" style="stroke:#000000; stroke-linecap:round; stroke-linejoin:round; stroke-width:2; stroke-opacity:0.1; fill:none" points="2013.24,1173.47 2013.24,120.723 "/>
<polyline clip-path="url(#clip562)" style="stroke:#000000; stroke-linecap:round; stroke-linejoin:round; stroke-width:2; stroke-opacity:0.1; fill:none" points="244.502,1149.26 2064.76,1149.26 "/>
<polyline clip-path="url(#clip562)" style="stroke:#000000; stroke-linecap:round; stroke-linejoin:round; stroke-width:2; stroke-opacity:0.1; fill:none" points="244.502,898.144 2064.76,898.144 "/>
<polyline clip-path="url(#clip562)" style="stroke:#000000; stroke-linecap:round; stroke-linejoin:round; stroke-width:2; stroke-opacity:0.1; fill:none" points="244.502,647.031 2064.76,647.031 "/>
<polyline clip-path="url(#clip562)" style="stroke:#000000; stroke-linecap:round; stroke-linejoin:round; stroke-width:2; stroke-opacity:0.1; fill:none" points="244.502,395.917 2064.76,395.917 "/>
<polyline clip-path="url(#clip562)" style="stroke:#000000; stroke-linecap:round; stroke-linejoin:round; stroke-width:2; stroke-opacity:0.1; fill:none" points="244.502,144.804 2064.76,144.804 "/>
<polyline clip-path="url(#clip560)" style="stroke:#000000; stroke-linecap:round; stroke-linejoin:round; stroke-width:4; stroke-opacity:1; fill:none" points="244.502,1173.47 2064.76,1173.47 "/>
<polyline clip-path="url(#clip560)" style="stroke:#000000; stroke-linecap:round; stroke-linejoin:round; stroke-width:4; stroke-opacity:1; fill:none" points="486.821,1173.47 486.821,1154.57 "/>
<polyline clip-path="url(#clip560)" style="stroke:#000000; stroke-linecap:round; stroke-linejoin:round; stroke-width:4; stroke-opacity:1; fill:none" points="868.426,1173.47 868.426,1154.57 "/>
<polyline clip-path="url(#clip560)" style="stroke:#000000; stroke-linecap:round; stroke-linejoin:round; stroke-width:4; stroke-opacity:1; fill:none" points="1250.03,1173.47 1250.03,1154.57 "/>
<polyline clip-path="url(#clip560)" style="stroke:#000000; stroke-linecap:round; stroke-linejoin:round; stroke-width:4; stroke-opacity:1; fill:none" points="1631.63,1173.47 1631.63,1154.57 "/>
<polyline clip-path="url(#clip560)" style="stroke:#000000; stroke-linecap:round; stroke-linejoin:round; stroke-width:4; stroke-opacity:1; fill:none" points="2013.24,1173.47 2013.24,1154.57 "/>
<path clip-path="url(#clip560)" d="M481.474 1229.63 L497.793 1229.63 L497.793 1233.57 L475.849 1233.57 L475.849 1229.63 Q478.511 1226.88 483.094 1222.25 Q487.701 1217.59 488.881 1216.25 Q491.126 1213.73 492.006 1211.99 Q492.909 1210.23 492.909 1208.54 Q492.909 1205.79 490.964 1204.05 Q489.043 1202.32 485.941 1202.32 Q483.742 1202.32 481.289 1203.08 Q478.858 1203.84 476.08 1205.4 L476.08 1200.67 Q478.904 1199.54 481.358 1198.96 Q483.812 1198.38 485.849 1198.38 Q491.219 1198.38 494.413 1201.07 Q497.608 1203.75 497.608 1208.24 Q497.608 1210.37 496.798 1212.29 Q496.011 1214.19 493.904 1216.78 Q493.326 1217.46 490.224 1220.67 Q487.122 1223.87 481.474 1229.63 Z" fill="#000000" fill-rule="nonzero" fill-opacity="1" /><path clip-path="url(#clip560)" d="M871.435 1203.08 L859.629 1221.53 L871.435 1221.53 L871.435 1203.08 M870.208 1199.01 L876.088 1199.01 L876.088 1221.53 L881.018 1221.53 L881.018 1225.42 L876.088 1225.42 L876.088 1233.57 L871.435 1233.57 L871.435 1225.42 L855.833 1225.42 L855.833 1220.9 L870.208 1199.01 Z" fill="#000000" fill-rule="nonzero" fill-opacity="1" /><path clip-path="url(#clip560)" d="M1250.44 1214.42 Q1247.29 1214.42 1245.44 1216.58 Q1243.61 1218.73 1243.61 1222.48 Q1243.61 1226.21 1245.44 1228.38 Q1247.29 1230.53 1250.44 1230.53 Q1253.58 1230.53 1255.41 1228.38 Q1257.26 1226.21 1257.26 1222.48 Q1257.26 1218.73 1255.41 1216.58 Q1253.58 1214.42 1250.44 1214.42 M1259.72 1199.77 L1259.72 1204.03 Q1257.96 1203.2 1256.15 1202.76 Q1254.37 1202.32 1252.61 1202.32 Q1247.98 1202.32 1245.53 1205.44 Q1243.1 1208.57 1242.75 1214.89 Q1244.12 1212.87 1246.18 1211.81 Q1248.24 1210.72 1250.71 1210.72 Q1255.92 1210.72 1258.93 1213.89 Q1261.96 1217.04 1261.96 1222.48 Q1261.96 1227.8 1258.81 1231.02 Q1255.67 1234.24 1250.44 1234.24 Q1244.44 1234.24 1241.27 1229.65 Q1238.1 1225.05 1238.1 1216.32 Q1238.1 1208.13 1241.99 1203.27 Q1245.88 1198.38 1252.43 1198.38 Q1254.19 1198.38 1255.97 1198.73 Q1257.77 1199.08 1259.72 1199.77 Z" fill="#000000" fill-rule="nonzero" fill-opacity="1" /><path clip-path="url(#clip560)" d="M1631.63 1217.15 Q1628.3 1217.15 1626.38 1218.94 Q1624.48 1220.72 1624.48 1223.84 Q1624.48 1226.97 1626.38 1228.75 Q1628.3 1230.53 1631.63 1230.53 Q1634.97 1230.53 1636.89 1228.75 Q1638.81 1226.95 1638.81 1223.84 Q1638.81 1220.72 1636.89 1218.94 Q1634.99 1217.15 1631.63 1217.15 M1626.96 1215.16 Q1623.95 1214.42 1622.26 1212.36 Q1620.59 1210.3 1620.59 1207.34 Q1620.59 1203.2 1623.53 1200.79 Q1626.5 1198.38 1631.63 1198.38 Q1636.8 1198.38 1639.74 1200.79 Q1642.68 1203.2 1642.68 1207.34 Q1642.68 1210.3 1640.99 1212.36 Q1639.32 1214.42 1636.33 1215.16 Q1639.71 1215.95 1641.59 1218.24 Q1643.49 1220.53 1643.49 1223.84 Q1643.49 1228.87 1640.41 1231.55 Q1637.35 1234.24 1631.63 1234.24 Q1625.92 1234.24 1622.84 1231.55 Q1619.78 1228.87 1619.78 1223.84 Q1619.78 1220.53 1621.68 1218.24 Q1623.58 1215.95 1626.96 1215.16 M1625.25 1207.78 Q1625.25 1210.47 1626.91 1211.97 Q1628.6 1213.47 1631.63 1213.47 Q1634.64 1213.47 1636.33 1211.97 Q1638.05 1210.47 1638.05 1207.78 Q1638.05 1205.09 1636.33 1203.59 Q1634.64 1202.09 1631.63 1202.09 Q1628.6 1202.09 1626.91 1203.59 Q1625.25 1205.09 1625.25 1207.78 Z" fill="#000000" fill-rule="nonzero" fill-opacity="1" /><path clip-path="url(#clip560)" d="M1987.93 1229.63 L1995.57 1229.63 L1995.57 1203.27 L1987.26 1204.93 L1987.26 1200.67 L1995.52 1199.01 L2000.2 1199.01 L2000.2 1229.63 L2007.83 1229.63 L2007.83 1233.57 L1987.93 1233.57 L1987.93 1229.63 Z" fill="#000000" fill-rule="nonzero" fill-opacity="1" /><path clip-path="url(#clip560)" d="M2027.28 1202.09 Q2023.67 1202.09 2021.84 1205.65 Q2020.03 1209.19 2020.03 1216.32 Q2020.03 1223.43 2021.84 1226.99 Q2023.67 1230.53 2027.28 1230.53 Q2030.91 1230.53 2032.72 1226.99 Q2034.55 1223.43 2034.55 1216.32 Q2034.55 1209.19 2032.72 1205.65 Q2030.91 1202.09 2027.28 1202.09 M2027.28 1198.38 Q2033.09 1198.38 2036.14 1202.99 Q2039.22 1207.57 2039.22 1216.32 Q2039.22 1225.05 2036.14 1229.65 Q2033.09 1234.24 2027.28 1234.24 Q2021.47 1234.24 2018.39 1229.65 Q2015.33 1225.05 2015.33 1216.32 Q2015.33 1207.57 2018.39 1202.99 Q2021.47 1198.38 2027.28 1198.38 Z" fill="#000000" fill-rule="nonzero" fill-opacity="1" /><path clip-path="url(#clip560)" d="M1061.59 1266.49 L1068.5 1266.49 L1080.31 1284.16 L1092.18 1266.49 L1099.09 1266.49 L1083.81 1289.32 L1100.11 1314.01 L1093.2 1314.01 L1079.83 1293.8 L1066.37 1314.01 L1059.43 1314.01 L1076.39 1288.65 L1061.59 1266.49 Z" fill="#000000" fill-rule="nonzero" fill-opacity="1" /><path clip-path="url(#clip560)" d="M1102.08 1293.55 L1119.24 1293.55 L1119.24 1298.77 L1102.08 1298.77 L1102.08 1293.55 Z" fill="#000000" fill-rule="nonzero" fill-opacity="1" /><path clip-path="url(#clip560)" d="M1144.76 1296.1 Q1137.66 1296.1 1134.93 1297.72 Q1132.19 1299.34 1132.19 1303.26 Q1132.19 1306.38 1134.23 1308.22 Q1136.3 1310.04 1139.83 1310.04 Q1144.7 1310.04 1147.63 1306.6 Q1150.59 1303.13 1150.59 1297.4 L1150.59 1296.1 L1144.76 1296.1 M1156.44 1293.68 L1156.44 1314.01 L1150.59 1314.01 L1150.59 1308.6 Q1148.58 1311.85 1145.59 1313.41 Q1142.6 1314.94 1138.27 1314.94 Q1132.79 1314.94 1129.55 1311.88 Q1126.33 1308.79 1126.33 1303.64 Q1126.33 1297.62 1130.34 1294.57 Q1134.39 1291.51 1142.37 1291.51 L1150.59 1291.51 L1150.59 1290.94 Q1150.59 1286.9 1147.91 1284.7 Q1145.27 1282.47 1140.47 1282.47 Q1137.41 1282.47 1134.51 1283.2 Q1131.62 1283.94 1128.94 1285.4 L1128.94 1279.99 Q1132.16 1278.75 1135.18 1278.14 Q1138.21 1277.51 1141.07 1277.51 Q1148.8 1277.51 1152.62 1281.52 Q1156.44 1285.53 1156.44 1293.68 Z" fill="#000000" fill-rule="nonzero" fill-opacity="1" /><path clip-path="url(#clip560)" d="M1198.14 1278.37 L1185.25 1295.71 L1198.81 1314.01 L1191.9 1314.01 L1181.52 1300.01 L1171.15 1314.01 L1164.24 1314.01 L1178.09 1295.36 L1165.42 1278.37 L1172.33 1278.37 L1181.78 1291.07 L1191.23 1278.37 L1198.14 1278.37 Z" fill="#000000" fill-rule="nonzero" fill-opacity="1" /><path clip-path="url(#clip560)" d="M1207.08 1278.37 L1212.94 1278.37 L1212.94 1314.01 L1207.08 1314.01 L1207.08 1278.37 M1207.08 1264.49 L1212.94 1264.49 L1212.94 1271.91 L1207.08 1271.91 L1207.08 1264.49 Z" fill="#000000" fill-rule="nonzero" fill-opacity="1" /><path clip-path="url(#clip560)" d="M1247.92 1279.42 L1247.92 1284.96 Q1245.44 1283.68 1242.76 1283.05 Q1240.09 1282.41 1237.22 1282.41 Q1232.86 1282.41 1230.67 1283.75 Q1228.5 1285.08 1228.5 1287.76 Q1228.5 1289.79 1230.06 1290.97 Q1231.62 1292.12 1236.33 1293.17 L1238.34 1293.61 Q1244.58 1294.95 1247.19 1297.4 Q1249.83 1299.82 1249.83 1304.18 Q1249.83 1309.14 1245.88 1312.04 Q1241.97 1314.94 1235.09 1314.94 Q1232.23 1314.94 1229.11 1314.36 Q1226.02 1313.82 1222.58 1312.71 L1222.58 1306.66 Q1225.83 1308.35 1228.98 1309.21 Q1232.13 1310.04 1235.22 1310.04 Q1239.36 1310.04 1241.58 1308.64 Q1243.81 1307.2 1243.81 1304.63 Q1243.81 1302.24 1242.19 1300.97 Q1240.6 1299.69 1235.16 1298.51 L1233.12 1298.04 Q1227.68 1296.89 1225.26 1294.54 Q1222.84 1292.15 1222.84 1288.01 Q1222.84 1282.98 1226.4 1280.24 Q1229.97 1277.51 1236.52 1277.51 Q1239.77 1277.51 1242.63 1277.98 Q1245.5 1278.46 1247.92 1279.42 Z" fill="#000000" fill-rule="nonzero" fill-opacity="1" /><polyline clip-path="url(#clip560)" style="stroke:#000000; stroke-linecap:round; stroke-linejoin:round; stroke-width:4; stroke-opacity:1; fill:none" points="244.502,1173.47 244.502,120.723 "/>
<polyline clip-path="url(#clip560)" style="stroke:#000000; stroke-linecap:round; stroke-linejoin:round; stroke-width:4; stroke-opacity:1; fill:none" points="244.502,1149.26 263.4,1149.26 "/>
<polyline clip-path="url(#clip560)" style="stroke:#000000; stroke-linecap:round; stroke-linejoin:round; stroke-width:4; stroke-opacity:1; fill:none" points="244.502,898.144 263.4,898.144 "/>
<polyline clip-path="url(#clip560)" style="stroke:#000000; stroke-linecap:round; stroke-linejoin:round; stroke-width:4; stroke-opacity:1; fill:none" points="244.502,647.031 263.4,647.031 "/>
<polyline clip-path="url(#clip560)" style="stroke:#000000; stroke-linecap:round; stroke-linejoin:round; stroke-width:4; stroke-opacity:1; fill:none" points="244.502,395.917 263.4,395.917 "/>
<polyline clip-path="url(#clip560)" style="stroke:#000000; stroke-linecap:round; stroke-linejoin:round; stroke-width:4; stroke-opacity:1; fill:none" points="244.502,144.804 263.4,144.804 "/>
<path clip-path="url(#clip560)" d="M125.485 1135.06 Q121.873 1135.06 120.045 1138.62 Q118.239 1142.16 118.239 1149.29 Q118.239 1156.4 120.045 1159.96 Q121.873 1163.5 125.485 1163.5 Q129.119 1163.5 130.924 1159.96 Q132.753 1156.4 132.753 1149.29 Q132.753 1142.16 130.924 1138.62 Q129.119 1135.06 125.485 1135.06 M125.485 1131.35 Q131.295 1131.35 134.35 1135.96 Q137.429 1140.54 137.429 1149.29 Q137.429 1158.02 134.35 1162.63 Q131.295 1167.21 125.485 1167.21 Q119.674 1167.21 116.596 1162.63 Q113.54 1158.02 113.54 1149.29 Q113.54 1140.54 116.596 1135.96 Q119.674 1131.35 125.485 1131.35 Z" fill="#000000" fill-rule="nonzero" fill-opacity="1" /><path clip-path="url(#clip560)" d="M145.646 1160.66 L150.531 1160.66 L150.531 1166.54 L145.646 1166.54 L145.646 1160.66 Z" fill="#000000" fill-rule="nonzero" fill-opacity="1" /><path clip-path="url(#clip560)" d="M170.716 1135.06 Q167.105 1135.06 165.276 1138.62 Q163.47 1142.16 163.47 1149.29 Q163.47 1156.4 165.276 1159.96 Q167.105 1163.5 170.716 1163.5 Q174.35 1163.5 176.156 1159.96 Q177.984 1156.4 177.984 1149.29 Q177.984 1142.16 176.156 1138.62 Q174.35 1135.06 170.716 1135.06 M170.716 1131.35 Q176.526 1131.35 179.581 1135.96 Q182.66 1140.54 182.66 1149.29 Q182.66 1158.02 179.581 1162.63 Q176.526 1167.21 170.716 1167.21 Q164.906 1167.21 161.827 1162.63 Q158.771 1158.02 158.771 1149.29 Q158.771 1140.54 161.827 1135.96 Q164.906 1131.35 170.716 1131.35 Z" fill="#000000" fill-rule="nonzero" fill-opacity="1" /><path clip-path="url(#clip560)" d="M200.878 1135.06 Q197.267 1135.06 195.438 1138.62 Q193.632 1142.16 193.632 1149.29 Q193.632 1156.4 195.438 1159.96 Q197.267 1163.5 200.878 1163.5 Q204.512 1163.5 206.317 1159.96 Q208.146 1156.4 208.146 1149.29 Q208.146 1142.16 206.317 1138.62 Q204.512 1135.06 200.878 1135.06 M200.878 1131.35 Q206.688 1131.35 209.743 1135.96 Q212.822 1140.54 212.822 1149.29 Q212.822 1158.02 209.743 1162.63 Q206.688 1167.21 200.878 1167.21 Q195.067 1167.21 191.989 1162.63 Q188.933 1158.02 188.933 1149.29 Q188.933 1140.54 191.989 1135.96 Q195.067 1131.35 200.878 1131.35 Z" fill="#000000" fill-rule="nonzero" fill-opacity="1" /><path clip-path="url(#clip560)" d="M126.48 883.943 Q122.869 883.943 121.04 887.507 Q119.235 891.049 119.235 898.179 Q119.235 905.285 121.04 908.85 Q122.869 912.392 126.48 912.392 Q130.114 912.392 131.92 908.85 Q133.748 905.285 133.748 898.179 Q133.748 891.049 131.92 887.507 Q130.114 883.943 126.48 883.943 M126.48 880.239 Q132.29 880.239 135.346 884.845 Q138.424 889.429 138.424 898.179 Q138.424 906.905 135.346 911.512 Q132.29 916.095 126.48 916.095 Q120.67 916.095 117.591 911.512 Q114.536 906.905 114.536 898.179 Q114.536 889.429 117.591 884.845 Q120.67 880.239 126.48 880.239 Z" fill="#000000" fill-rule="nonzero" fill-opacity="1" /><path clip-path="url(#clip560)" d="M146.642 909.544 L151.526 909.544 L151.526 915.424 L146.642 915.424 L146.642 909.544 Z" fill="#000000" fill-rule="nonzero" fill-opacity="1" /><path clip-path="url(#clip560)" d="M165.739 911.489 L182.058 911.489 L182.058 915.424 L160.114 915.424 L160.114 911.489 Q162.776 908.734 167.359 904.105 Q171.966 899.452 173.146 898.109 Q175.392 895.586 176.271 893.85 Q177.174 892.091 177.174 890.401 Q177.174 887.646 175.23 885.91 Q173.308 884.174 170.207 884.174 Q168.007 884.174 165.554 884.938 Q163.123 885.702 160.345 887.253 L160.345 882.531 Q163.17 881.396 165.623 880.818 Q168.077 880.239 170.114 880.239 Q175.484 880.239 178.679 882.924 Q181.873 885.609 181.873 890.1 Q181.873 892.23 181.063 894.151 Q180.276 896.049 178.169 898.642 Q177.591 899.313 174.489 902.53 Q171.387 905.725 165.739 911.489 Z" fill="#000000" fill-rule="nonzero" fill-opacity="1" /><path clip-path="url(#clip560)" d="M191.919 880.864 L210.276 880.864 L210.276 884.799 L196.202 884.799 L196.202 893.271 Q197.22 892.924 198.239 892.762 Q199.257 892.577 200.276 892.577 Q206.063 892.577 209.442 895.748 Q212.822 898.919 212.822 904.336 Q212.822 909.915 209.35 913.017 Q205.878 916.095 199.558 916.095 Q197.382 916.095 195.114 915.725 Q192.868 915.354 190.461 914.614 L190.461 909.915 Q192.544 911.049 194.767 911.604 Q196.989 912.16 199.466 912.16 Q203.47 912.16 205.808 910.054 Q208.146 907.947 208.146 904.336 Q208.146 900.725 205.808 898.618 Q203.47 896.512 199.466 896.512 Q197.591 896.512 195.716 896.929 Q193.864 897.345 191.919 898.225 L191.919 880.864 Z" fill="#000000" fill-rule="nonzero" fill-opacity="1" /><path clip-path="url(#clip560)" d="M125.485 632.829 Q121.873 632.829 120.045 636.394 Q118.239 639.936 118.239 647.065 Q118.239 654.172 120.045 657.737 Q121.873 661.278 125.485 661.278 Q129.119 661.278 130.924 657.737 Q132.753 654.172 132.753 647.065 Q132.753 639.936 130.924 636.394 Q129.119 632.829 125.485 632.829 M125.485 629.126 Q131.295 629.126 134.35 633.732 Q137.429 638.315 137.429 647.065 Q137.429 655.792 134.35 660.399 Q131.295 664.982 125.485 664.982 Q119.674 664.982 116.596 660.399 Q113.54 655.792 113.54 647.065 Q113.54 638.315 116.596 633.732 Q119.674 629.126 125.485 629.126 Z" fill="#000000" fill-rule="nonzero" fill-opacity="1" /><path clip-path="url(#clip560)" d="M145.646 658.431 L150.531 658.431 L150.531 664.311 L145.646 664.311 L145.646 658.431 Z" fill="#000000" fill-rule="nonzero" fill-opacity="1" /><path clip-path="url(#clip560)" d="M160.762 629.751 L179.119 629.751 L179.119 633.686 L165.045 633.686 L165.045 642.158 Q166.063 641.811 167.082 641.649 Q168.1 641.463 169.119 641.463 Q174.906 641.463 178.285 644.635 Q181.665 647.806 181.665 653.223 Q181.665 658.801 178.193 661.903 Q174.72 664.982 168.401 664.982 Q166.225 664.982 163.957 664.611 Q161.711 664.241 159.304 663.5 L159.304 658.801 Q161.387 659.936 163.609 660.491 Q165.832 661.047 168.308 661.047 Q172.313 661.047 174.651 658.94 Q176.989 656.834 176.989 653.223 Q176.989 649.612 174.651 647.505 Q172.313 645.399 168.308 645.399 Q166.433 645.399 164.558 645.815 Q162.707 646.232 160.762 647.112 L160.762 629.751 Z" fill="#000000" fill-rule="nonzero" fill-opacity="1" /><path clip-path="url(#clip560)" d="M200.878 632.829 Q197.267 632.829 195.438 636.394 Q193.632 639.936 193.632 647.065 Q193.632 654.172 195.438 657.737 Q197.267 661.278 200.878 661.278 Q204.512 661.278 206.317 657.737 Q208.146 654.172 208.146 647.065 Q208.146 639.936 206.317 636.394 Q204.512 632.829 200.878 632.829 M200.878 629.126 Q206.688 629.126 209.743 633.732 Q212.822 638.315 212.822 647.065 Q212.822 655.792 209.743 660.399 Q206.688 664.982 200.878 664.982 Q195.067 664.982 191.989 660.399 Q188.933 655.792 188.933 647.065 Q188.933 638.315 191.989 633.732 Q195.067 629.126 200.878 629.126 Z" fill="#000000" fill-rule="nonzero" fill-opacity="1" /><path clip-path="url(#clip560)" d="M126.48 381.716 Q122.869 381.716 121.04 385.281 Q119.235 388.822 119.235 395.952 Q119.235 403.058 121.04 406.623 Q122.869 410.165 126.48 410.165 Q130.114 410.165 131.92 406.623 Q133.748 403.058 133.748 395.952 Q133.748 388.822 131.92 385.281 Q130.114 381.716 126.48 381.716 M126.48 378.012 Q132.29 378.012 135.346 382.619 Q138.424 387.202 138.424 395.952 Q138.424 404.679 135.346 409.285 Q132.29 413.868 126.48 413.868 Q120.67 413.868 117.591 409.285 Q114.536 404.679 114.536 395.952 Q114.536 387.202 117.591 382.619 Q120.67 378.012 126.48 378.012 Z" fill="#000000" fill-rule="nonzero" fill-opacity="1" /><path clip-path="url(#clip560)" d="M146.642 407.318 L151.526 407.318 L151.526 413.197 L146.642 413.197 L146.642 407.318 Z" fill="#000000" fill-rule="nonzero" fill-opacity="1" /><path clip-path="url(#clip560)" d="M160.531 378.637 L182.753 378.637 L182.753 380.628 L170.207 413.197 L165.322 413.197 L177.128 382.572 L160.531 382.572 L160.531 378.637 Z" fill="#000000" fill-rule="nonzero" fill-opacity="1" /><path clip-path="url(#clip560)" d="M191.919 378.637 L210.276 378.637 L210.276 382.572 L196.202 382.572 L196.202 391.045 Q197.22 390.697 198.239 390.535 Q199.257 390.35 200.276 390.35 Q206.063 390.35 209.442 393.521 Q212.822 396.693 212.822 402.109 Q212.822 407.688 209.35 410.79 Q205.878 413.868 199.558 413.868 Q197.382 413.868 195.114 413.498 Q192.868 413.128 190.461 412.387 L190.461 407.688 Q192.544 408.822 194.767 409.378 Q196.989 409.933 199.466 409.933 Q203.47 409.933 205.808 407.827 Q208.146 405.72 208.146 402.109 Q208.146 398.498 205.808 396.392 Q203.47 394.285 199.466 394.285 Q197.591 394.285 195.716 394.702 Q193.864 395.119 191.919 395.998 L191.919 378.637 Z" fill="#000000" fill-rule="nonzero" fill-opacity="1" /><path clip-path="url(#clip560)" d="M116.295 158.149 L123.934 158.149 L123.934 131.783 L115.623 133.45 L115.623 129.19 L123.887 127.524 L128.563 127.524 L128.563 158.149 L136.202 158.149 L136.202 162.084 L116.295 162.084 L116.295 158.149 Z" fill="#000000" fill-rule="nonzero" fill-opacity="1" /><path clip-path="url(#clip560)" d="M145.646 156.204 L150.531 156.204 L150.531 162.084 L145.646 162.084 L145.646 156.204 Z" fill="#000000" fill-rule="nonzero" fill-opacity="1" /><path clip-path="url(#clip560)" d="M170.716 130.603 Q167.105 130.603 165.276 134.167 Q163.47 137.709 163.47 144.839 Q163.47 151.945 165.276 155.51 Q167.105 159.051 170.716 159.051 Q174.35 159.051 176.156 155.51 Q177.984 151.945 177.984 144.839 Q177.984 137.709 176.156 134.167 Q174.35 130.603 170.716 130.603 M170.716 126.899 Q176.526 126.899 179.581 131.505 Q182.66 136.089 182.66 144.839 Q182.66 153.565 179.581 158.172 Q176.526 162.755 170.716 162.755 Q164.906 162.755 161.827 158.172 Q158.771 153.565 158.771 144.839 Q158.771 136.089 161.827 131.505 Q164.906 126.899 170.716 126.899 Z" fill="#000000" fill-rule="nonzero" fill-opacity="1" /><path clip-path="url(#clip560)" d="M200.878 130.603 Q197.267 130.603 195.438 134.167 Q193.632 137.709 193.632 144.839 Q193.632 151.945 195.438 155.51 Q197.267 159.051 200.878 159.051 Q204.512 159.051 206.317 155.51 Q208.146 151.945 208.146 144.839 Q208.146 137.709 206.317 134.167 Q204.512 130.603 200.878 130.603 M200.878 126.899 Q206.688 126.899 209.743 131.505 Q212.822 136.089 212.822 144.839 Q212.822 153.565 209.743 158.172 Q206.688 162.755 200.878 162.755 Q195.067 162.755 191.989 158.172 Q188.933 153.565 188.933 144.839 Q188.933 136.089 191.989 131.505 Q195.067 126.899 200.878 126.899 Z" fill="#000000" fill-rule="nonzero" fill-opacity="1" /><path clip-path="url(#clip560)" d="M20.0842 738.668 L20.0842 731.761 L39.6269 718.584 L20.0842 705.502 L20.0842 698.595 L44.9741 715.401 L67.6042 715.401 L67.6042 721.862 L44.9741 721.862 L20.0842 738.668 Z" fill="#000000" fill-rule="nonzero" fill-opacity="1" /><path clip-path="url(#clip560)" d="M47.1384 703.274 L47.1384 686.119 L52.3583 686.119 L52.3583 703.274 L47.1384 703.274 Z" fill="#000000" fill-rule="nonzero" fill-opacity="1" /><path clip-path="url(#clip560)" d="M49.6847 660.592 Q49.6847 667.69 51.3079 670.427 Q52.9312 673.164 56.8461 673.164 Q59.9653 673.164 61.8114 671.127 Q63.6256 669.059 63.6256 665.526 Q63.6256 660.656 60.1881 657.728 Q56.7188 654.768 50.9897 654.768 L49.6847 654.768 L49.6847 660.592 M47.2657 648.911 L67.6042 648.911 L67.6042 654.768 L62.1933 654.768 Q65.4398 656.773 66.9994 659.765 Q68.5272 662.757 68.5272 667.085 Q68.5272 672.56 65.4716 675.806 Q62.3843 679.021 57.2281 679.021 Q51.2125 679.021 48.1569 675.011 Q45.1014 670.968 45.1014 662.979 L45.1014 654.768 L44.5285 654.768 Q40.4862 654.768 38.2901 657.441 Q36.0621 660.083 36.0621 664.889 Q36.0621 667.945 36.7941 670.841 Q37.5262 673.737 38.9903 676.411 L33.5795 676.411 Q32.3381 673.196 31.7334 670.173 Q31.0968 667.149 31.0968 664.284 Q31.0968 656.55 35.1072 652.731 Q39.1176 648.911 47.2657 648.911 Z" fill="#000000" fill-rule="nonzero" fill-opacity="1" /><path clip-path="url(#clip560)" d="M31.9562 607.216 L49.3028 620.106 L67.6042 606.547 L67.6042 613.454 L53.5996 623.83 L67.6042 634.206 L67.6042 641.113 L48.9526 627.268 L31.9562 639.935 L31.9562 633.029 L44.6558 623.576 L31.9562 614.123 L31.9562 607.216 Z" fill="#000000" fill-rule="nonzero" fill-opacity="1" /><path clip-path="url(#clip560)" d="M31.9562 598.272 L31.9562 592.415 L67.6042 592.415 L67.6042 598.272 L31.9562 598.272 M18.079 598.272 L18.079 592.415 L25.495 592.415 L25.495 598.272 L18.079 598.272 Z" fill="#000000" fill-rule="nonzero" fill-opacity="1" /><path clip-path="url(#clip560)" d="M33.0065 557.436 L38.5447 557.436 Q37.2716 559.919 36.635 562.592 Q35.9984 565.266 35.9984 568.13 Q35.9984 572.491 37.3352 574.687 Q38.672 576.851 41.3456 576.851 Q43.3826 576.851 44.5603 575.292 Q45.7061 573.732 46.7565 569.022 L47.2021 567.016 Q48.5389 560.778 50.9897 558.168 Q53.4086 555.526 57.7691 555.526 Q62.7344 555.526 65.6308 559.473 Q68.5272 563.388 68.5272 570.263 Q68.5272 573.127 67.9543 576.247 Q67.4132 579.334 66.2992 582.771 L60.2518 582.771 Q61.9387 579.525 62.798 576.374 Q63.6256 573.223 63.6256 570.136 Q63.6256 565.998 62.2251 563.77 Q60.7929 561.542 58.2147 561.542 Q55.8276 561.542 54.5545 563.165 Q53.2813 564.756 52.1037 570.199 L51.6262 572.236 Q50.4804 577.679 48.1251 580.098 Q45.738 582.517 41.6002 582.517 Q36.5713 582.517 33.8341 578.952 Q31.0968 575.387 31.0968 568.831 Q31.0968 565.584 31.5743 562.719 Q32.0517 559.855 33.0065 557.436 Z" fill="#000000" fill-rule="nonzero" fill-opacity="1" /><path clip-path="url(#clip560)" d="M771.656 16.7545 L771.656 25.383 Q767.525 21.5346 762.826 19.6307 Q758.167 17.7268 752.901 17.7268 Q742.53 17.7268 737.021 24.0867 Q731.512 30.4061 731.512 42.3968 Q731.512 54.3469 737.021 60.7069 Q742.53 67.0263 752.901 67.0263 Q758.167 67.0263 762.826 65.1223 Q767.525 63.2184 771.656 59.3701 L771.656 67.9175 Q767.363 70.8341 762.542 72.2924 Q757.762 73.7508 752.415 73.7508 Q738.682 73.7508 730.783 65.3654 Q722.884 56.9395 722.884 42.3968 Q722.884 27.8135 730.783 19.4281 Q738.682 11.0023 752.415 11.0023 Q757.843 11.0023 762.623 12.4606 Q767.444 13.8784 771.656 16.7545 Z" fill="#000000" fill-rule="nonzero" fill-opacity="1" /><path clip-path="url(#clip560)" d="M783.202 54.671 L783.202 27.2059 L790.655 27.2059 L790.655 54.3874 Q790.655 60.8284 793.167 64.0691 Q795.678 67.2693 800.701 67.2693 Q806.737 67.2693 810.221 63.421 Q813.745 59.5726 813.745 52.9291 L813.745 27.2059 L821.199 27.2059 L821.199 72.576 L813.745 72.576 L813.745 65.6084 Q811.031 69.7404 807.426 71.7658 Q803.861 73.7508 799.122 73.7508 Q791.303 73.7508 787.252 68.8897 Q783.202 64.0286 783.202 54.671 M801.957 26.1121 L801.957 26.1121 Z" fill="#000000" fill-rule="nonzero" fill-opacity="1" /><path clip-path="url(#clip560)" d="M865.475 28.5427 L865.475 35.5912 Q862.316 33.9709 858.913 33.1607 Q855.51 32.3505 851.864 32.3505 Q846.315 32.3505 843.52 34.0519 Q840.765 35.7533 840.765 39.156 Q840.765 41.7486 842.75 43.2475 Q844.735 44.7058 850.73 46.0426 L853.282 46.6097 Q861.222 48.3111 864.544 51.4303 Q867.906 54.509 867.906 60.0587 Q867.906 66.3781 862.883 70.0644 Q857.9 73.7508 849.15 73.7508 Q845.504 73.7508 841.535 73.0216 Q837.605 72.3329 833.23 70.9151 L833.23 63.2184 Q837.362 65.3654 841.373 66.4591 Q845.383 67.5124 849.312 67.5124 Q854.578 67.5124 857.414 65.73 Q860.25 63.9071 860.25 60.6258 Q860.25 57.5877 858.184 55.9673 Q856.158 54.3469 849.231 52.8481 L846.639 52.2405 Q839.712 50.7821 836.633 47.7845 Q833.554 44.7463 833.554 39.4801 Q833.554 33.0797 838.091 29.5959 Q842.628 26.1121 850.973 26.1121 Q855.105 26.1121 858.751 26.7198 Q862.397 27.3274 865.475 28.5427 Z" fill="#000000" fill-rule="nonzero" fill-opacity="1" /><path clip-path="url(#clip560)" d="M887.148 14.324 L887.148 27.2059 L902.501 27.2059 L902.501 32.9987 L887.148 32.9987 L887.148 57.6282 Q887.148 63.1779 888.647 64.7578 Q890.186 66.3376 894.844 66.3376 L902.501 66.3376 L902.501 72.576 L894.844 72.576 Q886.216 72.576 882.935 69.3758 Q879.654 66.1351 879.654 57.6282 L879.654 32.9987 L874.185 32.9987 L874.185 27.2059 L879.654 27.2059 L879.654 14.324 L887.148 14.324 Z" fill="#000000" fill-rule="nonzero" fill-opacity="1" /><path clip-path="url(#clip560)" d="M929.885 32.4315 Q923.889 32.4315 920.406 37.1306 Q916.922 41.7891 916.922 49.9314 Q916.922 58.0738 920.365 62.7728 Q923.849 67.4314 929.885 67.4314 Q935.84 67.4314 939.323 62.7323 Q942.807 58.0333 942.807 49.9314 Q942.807 41.8701 939.323 37.1711 Q935.84 32.4315 929.885 32.4315 M929.885 26.1121 Q939.607 26.1121 945.157 32.4315 Q950.706 38.7509 950.706 49.9314 Q950.706 61.0714 945.157 67.4314 Q939.607 73.7508 929.885 73.7508 Q920.122 73.7508 914.572 67.4314 Q909.063 61.0714 909.063 49.9314 Q909.063 38.7509 914.572 32.4315 Q920.122 26.1121 929.885 26.1121 Z" fill="#000000" fill-rule="nonzero" fill-opacity="1" /><path clip-path="url(#clip560)" d="M998.386 35.9153 Q1001.18 30.8922 1005.07 28.5022 Q1008.96 26.1121 1014.22 26.1121 Q1021.31 26.1121 1025.16 31.0947 Q1029.01 36.0368 1029.01 45.1919 L1029.01 72.576 L1021.52 72.576 L1021.52 45.4349 Q1021.52 38.913 1019.21 35.7533 Q1016.9 32.5936 1012.16 32.5936 Q1006.37 32.5936 1003 36.4419 Q999.641 40.2903 999.641 46.9338 L999.641 72.576 L992.147 72.576 L992.147 45.4349 Q992.147 38.8725 989.838 35.7533 Q987.529 32.5936 982.709 32.5936 Q976.997 32.5936 973.635 36.4824 Q970.272 40.3308 970.272 46.9338 L970.272 72.576 L962.778 72.576 L962.778 27.2059 L970.272 27.2059 L970.272 34.2544 Q972.824 30.082 976.389 28.0971 Q979.954 26.1121 984.856 26.1121 Q989.798 26.1121 993.241 28.6237 Q996.725 31.1352 998.386 35.9153 Z" fill="#000000" fill-rule="nonzero" fill-opacity="1" /><path clip-path="url(#clip560)" d="M1043.88 27.2059 L1051.33 27.2059 L1051.33 72.576 L1043.88 72.576 L1043.88 27.2059 M1043.88 9.54393 L1051.33 9.54393 L1051.33 18.9825 L1043.88 18.9825 L1043.88 9.54393 Z" fill="#000000" fill-rule="nonzero" fill-opacity="1" /><path clip-path="url(#clip560)" d="M1063.69 27.2059 L1099.09 27.2059 L1099.09 34.0114 L1071.06 66.6212 L1099.09 66.6212 L1099.09 72.576 L1062.67 72.576 L1062.67 65.7705 L1090.71 33.1607 L1063.69 33.1607 L1063.69 27.2059 Z" fill="#000000" fill-rule="nonzero" fill-opacity="1" /><path clip-path="url(#clip560)" d="M1149.28 48.0275 L1149.28 51.6733 L1115.01 51.6733 Q1115.5 59.3701 1119.63 63.421 Q1123.8 67.4314 1131.21 67.4314 Q1135.51 67.4314 1139.52 66.3781 Q1143.57 65.3249 1147.54 63.2184 L1147.54 70.267 Q1143.53 71.9684 1139.32 72.8596 Q1135.1 73.7508 1130.77 73.7508 Q1119.91 73.7508 1113.55 67.4314 Q1107.23 61.1119 1107.23 50.3365 Q1107.23 39.1965 1113.23 32.6746 Q1119.26 26.1121 1129.47 26.1121 Q1138.63 26.1121 1143.93 32.0264 Q1149.28 37.9003 1149.28 48.0275 M1141.83 45.84 Q1141.75 39.7232 1138.38 36.0774 Q1135.06 32.4315 1129.55 32.4315 Q1123.32 32.4315 1119.55 35.9558 Q1115.82 39.4801 1115.25 45.8805 L1141.83 45.84 Z" fill="#000000" fill-rule="nonzero" fill-opacity="1" /><path clip-path="url(#clip560)" d="M1191.37 34.0924 L1191.37 9.54393 L1198.82 9.54393 L1198.82 72.576 L1191.37 72.576 L1191.37 65.7705 Q1189.02 69.8214 1185.42 71.8063 Q1181.85 73.7508 1176.83 73.7508 Q1168.6 73.7508 1163.42 67.1883 Q1158.27 60.6258 1158.27 49.9314 Q1158.27 39.2371 1163.42 32.6746 Q1168.6 26.1121 1176.83 26.1121 Q1181.85 26.1121 1185.42 28.0971 Q1189.02 30.0415 1191.37 34.0924 M1165.97 49.9314 Q1165.97 58.1548 1169.33 62.8538 Q1172.74 67.5124 1178.65 67.5124 Q1184.57 67.5124 1187.97 62.8538 Q1191.37 58.1548 1191.37 49.9314 Q1191.37 41.7081 1187.97 37.0496 Q1184.57 32.3505 1178.65 32.3505 Q1172.74 32.3505 1169.33 37.0496 Q1165.97 41.7081 1165.97 49.9314 Z" fill="#000000" fill-rule="nonzero" fill-opacity="1" /><path clip-path="url(#clip560)" d="M1240.87 12.096 L1249.06 12.096 L1249.06 65.6895 L1278.51 65.6895 L1278.51 72.576 L1240.87 72.576 L1240.87 12.096 Z" fill="#000000" fill-rule="nonzero" fill-opacity="1" /><path clip-path="url(#clip560)" d="M1286.77 27.2059 L1294.22 27.2059 L1294.22 72.576 L1286.77 72.576 L1286.77 27.2059 M1286.77 9.54393 L1294.22 9.54393 L1294.22 18.9825 L1286.77 18.9825 L1286.77 9.54393 Z" fill="#000000" fill-rule="nonzero" fill-opacity="1" /><path clip-path="url(#clip560)" d="M1347.53 45.1919 L1347.53 72.576 L1340.08 72.576 L1340.08 45.4349 Q1340.08 38.994 1337.57 35.7938 Q1335.06 32.5936 1330.03 32.5936 Q1324 32.5936 1320.51 36.4419 Q1317.03 40.2903 1317.03 46.9338 L1317.03 72.576 L1309.54 72.576 L1309.54 27.2059 L1317.03 27.2059 L1317.03 34.2544 Q1319.7 30.163 1323.31 28.1376 Q1326.95 26.1121 1331.69 26.1121 Q1339.51 26.1121 1343.52 30.9732 Q1347.53 35.7938 1347.53 45.1919 Z" fill="#000000" fill-rule="nonzero" fill-opacity="1" /><path clip-path="url(#clip560)" d="M1401.21 48.0275 L1401.21 51.6733 L1366.94 51.6733 Q1367.42 59.3701 1371.55 63.421 Q1375.73 67.4314 1383.14 67.4314 Q1387.43 67.4314 1391.44 66.3781 Q1395.5 65.3249 1399.47 63.2184 L1399.47 70.267 Q1395.46 71.9684 1391.24 72.8596 Q1387.03 73.7508 1382.69 73.7508 Q1371.84 73.7508 1365.48 67.4314 Q1359.16 61.1119 1359.16 50.3365 Q1359.16 39.1965 1365.15 32.6746 Q1371.19 26.1121 1381.4 26.1121 Q1390.55 26.1121 1395.86 32.0264 Q1401.21 37.9003 1401.21 48.0275 M1393.75 45.84 Q1393.67 39.7232 1390.31 36.0774 Q1386.99 32.4315 1381.48 32.4315 Q1375.24 32.4315 1371.47 35.9558 Q1367.75 39.4801 1367.18 45.8805 L1393.75 45.84 Z" fill="#000000" fill-rule="nonzero" fill-opacity="1" /><path clip-path="url(#clip560)" d="M1448.32 18.8205 L1448.32 41.5461 L1458.61 41.5461 Q1464.32 41.5461 1467.44 38.5889 Q1470.56 35.6318 1470.56 30.163 Q1470.56 24.7348 1467.44 21.7777 Q1464.32 18.8205 1458.61 18.8205 L1448.32 18.8205 M1440.14 12.096 L1458.61 12.096 Q1468.78 12.096 1473.96 16.714 Q1479.19 21.2916 1479.19 30.163 Q1479.19 39.1155 1473.96 43.6931 Q1468.78 48.2706 1458.61 48.2706 L1448.32 48.2706 L1448.32 72.576 L1440.14 72.576 L1440.14 12.096 Z" fill="#000000" fill-rule="nonzero" fill-opacity="1" /><path clip-path="url(#clip560)" d="M1489.84 9.54393 L1497.29 9.54393 L1497.29 72.576 L1489.84 72.576 L1489.84 9.54393 Z" fill="#000000" fill-rule="nonzero" fill-opacity="1" /><path clip-path="url(#clip560)" d="M1530.47 32.4315 Q1524.48 32.4315 1520.99 37.1306 Q1517.51 41.7891 1517.51 49.9314 Q1517.51 58.0738 1520.95 62.7728 Q1524.44 67.4314 1530.47 67.4314 Q1536.43 67.4314 1539.91 62.7323 Q1543.39 58.0333 1543.39 49.9314 Q1543.39 41.8701 1539.91 37.1711 Q1536.43 32.4315 1530.47 32.4315 M1530.47 26.1121 Q1540.19 26.1121 1545.74 32.4315 Q1551.29 38.7509 1551.29 49.9314 Q1551.29 61.0714 1545.74 67.4314 Q1540.19 73.7508 1530.47 73.7508 Q1520.71 73.7508 1515.16 67.4314 Q1509.65 61.0714 1509.65 49.9314 Q1509.65 38.7509 1515.16 32.4315 Q1520.71 26.1121 1530.47 26.1121 Z" fill="#000000" fill-rule="nonzero" fill-opacity="1" /><path clip-path="url(#clip560)" d="M1571.02 14.324 L1571.02 27.2059 L1586.37 27.2059 L1586.37 32.9987 L1571.02 32.9987 L1571.02 57.6282 Q1571.02 63.1779 1572.52 64.7578 Q1574.06 66.3376 1578.72 66.3376 L1586.37 66.3376 L1586.37 72.576 L1578.72 72.576 Q1570.09 72.576 1566.81 69.3758 Q1563.53 66.1351 1563.53 57.6282 L1563.53 32.9987 L1558.06 32.9987 L1558.06 27.2059 L1563.53 27.2059 L1563.53 14.324 L1571.02 14.324 Z" fill="#000000" fill-rule="nonzero" fill-opacity="1" /><polyline clip-path="url(#clip562)" style="stroke:#ff0000; stroke-linecap:round; stroke-linejoin:round; stroke-width:8; stroke-opacity:1; fill:none" stroke-dasharray="32, 20" points="296.019,489.822 486.821,150.518 677.623,214.789 868.426,454.233 1059.23,1143.68 1250.03,306.964 1440.83,899.07 1631.63,325.993 1822.44,290.221 2013.24,691.752 "/>
<circle clip-path="url(#clip562)" cx="296.019" cy="489.822" r="28.8" fill="#ff0000" fill-rule="evenodd" fill-opacity="1" stroke="#000000" stroke-opacity="1" stroke-width="2.688"/>
<circle clip-path="url(#clip562)" cx="486.821" cy="150.518" r="28.8" fill="#ff0000" fill-rule="evenodd" fill-opacity="1" stroke="#000000" stroke-opacity="1" stroke-width="2.688"/>
<circle clip-path="url(#clip562)" cx="677.623" cy="214.789" r="28.8" fill="#ff0000" fill-rule="evenodd" fill-opacity="1" stroke="#000000" stroke-opacity="1" stroke-width="2.688"/>
<circle clip-path="url(#clip562)" cx="868.426" cy="454.233" r="28.8" fill="#ff0000" fill-rule="evenodd" fill-opacity="1" stroke="#000000" stroke-opacity="1" stroke-width="2.688"/>
<circle clip-path="url(#clip562)" cx="1059.23" cy="1143.68" r="28.8" fill="#ff0000" fill-rule="evenodd" fill-opacity="1" stroke="#000000" stroke-opacity="1" stroke-width="2.688"/>
<circle clip-path="url(#clip562)" cx="1250.03" cy="306.964" r="28.8" fill="#ff0000" fill-rule="evenodd" fill-opacity="1" stroke="#000000" stroke-opacity="1" stroke-width="2.688"/>
<circle clip-path="url(#clip562)" cx="1440.83" cy="899.07" r="28.8" fill="#ff0000" fill-rule="evenodd" fill-opacity="1" stroke="#000000" stroke-opacity="1" stroke-width="2.688"/>
<circle clip-path="url(#clip562)" cx="1631.63" cy="325.993" r="28.8" fill="#ff0000" fill-rule="evenodd" fill-opacity="1" stroke="#000000" stroke-opacity="1" stroke-width="2.688"/>
<circle clip-path="url(#clip562)" cx="1822.44" cy="290.221" r="28.8" fill="#ff0000" fill-rule="evenodd" fill-opacity="1" stroke="#000000" stroke-opacity="1" stroke-width="2.688"/>
<circle clip-path="url(#clip562)" cx="2013.24" cy="691.752" r="28.8" fill="#ff0000" fill-rule="evenodd" fill-opacity="1" stroke="#000000" stroke-opacity="1" stroke-width="2.688"/>
<path clip-path="url(#clip560)" d="M1769.63 1138.38 L2004.08 1138.38 L2004.08 1034.7 L1769.63 1034.7  Z" fill="#ffffff" fill-rule="evenodd" fill-opacity="1"/>
<polyline clip-path="url(#clip560)" style="stroke:#000000; stroke-linecap:round; stroke-linejoin:round; stroke-width:4; stroke-opacity:1; fill:none" points="1769.63,1138.38 2004.08,1138.38 2004.08,1034.7 1769.63,1034.7 1769.63,1138.38 "/>
<polyline clip-path="url(#clip560)" style="stroke:#ff0000; stroke-linecap:round; stroke-linejoin:round; stroke-width:8; stroke-opacity:1; fill:none" stroke-dasharray="32, 20" points="1789.85,1086.54 1911.2,1086.54 "/>
<circle clip-path="url(#clip560)" cx="1850.53" cy="1086.54" r="16.8542" fill="#ff0000" fill-rule="evenodd" fill-opacity="1" stroke="#000000" stroke-opacity="1" stroke-width="2.02391"/>
<path clip-path="url(#clip560)" d="M1945.27 1106.23 Q1943.46 1110.86 1941.75 1112.27 Q1940.04 1113.68 1937.17 1113.68 L1933.76 1113.68 L1933.76 1110.12 L1936.26 1110.12 Q1938.02 1110.12 1938.99 1109.28 Q1939.97 1108.45 1941.15 1105.35 L1941.91 1103.4 L1931.43 1077.89 L1935.94 1077.89 L1944.04 1098.17 L1952.14 1077.89 L1956.66 1077.89 L1945.27 1106.23 Z" fill="#000000" fill-rule="nonzero" fill-opacity="1" /><path clip-path="url(#clip560)" d="M1963.95 1099.88 L1971.59 1099.88 L1971.59 1073.52 L1963.28 1075.19 L1963.28 1070.93 L1971.54 1069.26 L1976.22 1069.26 L1976.22 1099.88 L1983.86 1099.88 L1983.86 1103.82 L1963.95 1103.82 L1963.95 1099.88 Z" fill="#000000" fill-rule="nonzero" fill-opacity="1" /></svg>
