<?xml version="1.0" encoding="utf-8"?>
<svg xmlns="http://www.w3.org/2000/svg" xmlns:xlink="http://www.w3.org/1999/xlink" width="528" height="336" viewBox="0 0 2112 1344">
<defs>
  <clipPath id="clip620">
    <rect x="0" y="0" width="2112" height="1344"/>
  </clipPath>
</defs>
<path clip-path="url(#clip620)" d="M0 1344 L2112 1344 L2112 2.13163e-14 L0 2.13163e-14  Z" fill="#ffffff" fill-rule="evenodd" fill-opacity="1"/>
<defs>
  <clipPath id="clip621">
    <rect x="422" y="0" width="1479" height="1344"/>
  </clipPath>
</defs>
<path clip-path="url(#clip620)" d="M244.502 1173.47 L2064.76 1173.47 L2064.76 120.723 L244.502 120.723  Z" fill="#ffffff" fill-rule="evenodd" fill-opacity="1"/>
<defs>
  <clipPath id="clip622">
    <rect x="244" y="120" width="1821" height="1054"/>
  </clipPath>
</defs>
<polyline clip-path="url(#clip622)" style="stroke:#000000; stroke-linecap:round; stroke-linejoin:round; stroke-width:2; stroke-opacity:0.1; fill:none" points="657.539,1173.47 657.539,120.723 "/>
<polyline clip-path="url(#clip622)" style="stroke:#000000; stroke-linecap:round; stroke-linejoin:round; stroke-width:2; stroke-opacity:0.1; fill:none" points="1109.44,1173.47 1109.44,120.723 "/>
<polyline clip-path="url(#clip622)" style="stroke:#000000; stroke-linecap:round; stroke-linejoin:round; stroke-width:2; stroke-opacity:0.1; fill:none" points="1561.34,1173.47 1561.34,120.723 "/>
<polyline clip-path="url(#clip622)" style="stroke:#000000; stroke-linecap:round; stroke-linejoin:round; stroke-width:2; stroke-opacity:0.1; fill:none" points="2013.24,1173.47 2013.24,120.723 "/>
<polyline clip-path="url(#clip622)" style="stroke:#000000; stroke-linecap:round; stroke-linejoin:round; stroke-width:2; stroke-opacity:0.1; fill:none" points="244.502,1158.68 2064.76,1158.68 "/>
<polyline clip-path="url(#clip622)" style="stroke:#000000; stroke-linecap:round; stroke-linejoin:round; stroke-width:2; stroke-opacity:0.1; fill:none" points="244.502,904.27 2064.76,904.27 "/>
<polyline clip-path="url(#clip622)" style="stroke:#000000; stroke-linecap:round; stroke-linejoin:round; stroke-width:2; stroke-opacity:0.1; fill:none" points="244.502,649.857 2064.76,649.857 "/>
<polyline clip-path="url(#clip622)" style="stroke:#000000; stroke-linecap:round; stroke-linejoin:round; stroke-width:2; stroke-opacity:0.1; fill:none" points="244.502,395.445 2064.76,395.445 "/>
<polyline clip-path="url(#clip622)" style="stroke:#000000; stroke-linecap:round; stroke-linejoin:round; stroke-width:2; stroke-opacity:0.1; fill:none" points="244.502,141.032 2064.76,141.032 "/>
<polyline clip-path="url(#clip620)" style="stroke:#000000; stroke-linecap:round; stroke-linejoin:round; stroke-width:4; stroke-opacity:1; fill:none" points="244.502,1173.47 2064.76,1173.47 "/>
<polyline clip-path="url(#clip620)" style="stroke:#000000; stroke-linecap:round; stroke-linejoin:round; stroke-width:4; stroke-opacity:1; fill:none" points="657.539,1173.47 657.539,1154.57 "/>
<polyline clip-path="url(#clip620)" style="stroke:#000000; stroke-linecap:round; stroke-linejoin:round; stroke-width:4; stroke-opacity:1; fill:none" points="1109.44,1173.47 1109.44,1154.57 "/>
<polyline clip-path="url(#clip620)" style="stroke:#000000; stroke-linecap:round; stroke-linejoin:round; stroke-width:4; stroke-opacity:1; fill:none" points="1561.34,1173.47 1561.34,1154.57 "/>
<polyline clip-path="url(#clip620)" style="stroke:#000000; stroke-linecap:round; stroke-linejoin:round; stroke-width:4; stroke-opacity:1; fill:none" points="2013.24,1173.47 2013.24,1154.57 "/>
<path clip-path="url(#clip620)" d="M647.817 1199.01 L666.173 1199.01 L666.173 1202.94 L652.099 1202.94 L652.099 1211.41 Q653.118 1211.07 654.136 1210.9 Q655.155 1210.72 656.173 1210.72 Q661.96 1210.72 665.34 1213.89 Q668.719 1217.06 668.719 1222.48 Q668.719 1228.06 665.247 1231.16 Q661.775 1234.24 655.455 1234.24 Q653.28 1234.24 651.011 1233.87 Q648.766 1233.5 646.358 1232.76 L646.358 1228.06 Q648.442 1229.19 650.664 1229.75 Q652.886 1230.3 655.363 1230.3 Q659.367 1230.3 661.705 1228.2 Q664.043 1226.09 664.043 1222.48 Q664.043 1218.87 661.705 1216.76 Q659.367 1214.65 655.363 1214.65 Q653.488 1214.65 651.613 1215.07 Q649.761 1215.49 647.817 1216.37 L647.817 1199.01 Z" fill="#000000" fill-rule="nonzero" fill-opacity="1" /><path clip-path="url(#clip620)" d="M1084.13 1229.63 L1091.77 1229.63 L1091.77 1203.27 L1083.46 1204.93 L1083.46 1200.67 L1091.72 1199.01 L1096.4 1199.01 L1096.4 1229.63 L1104.03 1229.63 L1104.03 1233.57 L1084.13 1233.57 L1084.13 1229.63 Z" fill="#000000" fill-rule="nonzero" fill-opacity="1" /><path clip-path="url(#clip620)" d="M1123.48 1202.09 Q1119.87 1202.09 1118.04 1205.65 Q1116.23 1209.19 1116.23 1216.32 Q1116.23 1223.43 1118.04 1226.99 Q1119.87 1230.53 1123.48 1230.53 Q1127.11 1230.53 1128.92 1226.99 Q1130.75 1223.43 1130.75 1216.32 Q1130.75 1209.19 1128.92 1205.65 Q1127.11 1202.09 1123.48 1202.09 M1123.48 1198.38 Q1129.29 1198.38 1132.34 1202.99 Q1135.42 1207.57 1135.42 1216.32 Q1135.42 1225.05 1132.34 1229.65 Q1129.29 1234.24 1123.48 1234.24 Q1117.67 1234.24 1114.59 1229.65 Q1111.53 1225.05 1111.53 1216.32 Q1111.53 1207.57 1114.59 1202.99 Q1117.67 1198.38 1123.48 1198.38 Z" fill="#000000" fill-rule="nonzero" fill-opacity="1" /><path clip-path="url(#clip620)" d="M1536.52 1229.63 L1544.16 1229.63 L1544.16 1203.27 L1535.85 1204.93 L1535.85 1200.67 L1544.12 1199.01 L1548.79 1199.01 L1548.79 1229.63 L1556.43 1229.63 L1556.43 1233.57 L1536.52 1233.57 L1536.52 1229.63 Z" fill="#000000" fill-rule="nonzero" fill-opacity="1" /><path clip-path="url(#clip620)" d="M1565.92 1199.01 L1584.28 1199.01 L1584.28 1202.94 L1570.2 1202.94 L1570.2 1211.41 Q1571.22 1211.07 1572.24 1210.9 Q1573.26 1210.72 1574.28 1210.72 Q1580.07 1210.72 1583.45 1213.89 Q1586.83 1217.06 1586.83 1222.48 Q1586.83 1228.06 1583.35 1231.16 Q1579.88 1234.24 1573.56 1234.24 Q1571.39 1234.24 1569.12 1233.87 Q1566.87 1233.5 1564.46 1232.76 L1564.46 1228.06 Q1566.55 1229.19 1568.77 1229.75 Q1570.99 1230.3 1573.47 1230.3 Q1577.47 1230.3 1579.81 1228.2 Q1582.15 1226.09 1582.15 1222.48 Q1582.15 1218.87 1579.81 1216.76 Q1577.47 1214.65 1573.47 1214.65 Q1571.59 1214.65 1569.72 1215.07 Q1567.87 1215.49 1565.92 1216.37 L1565.92 1199.01 Z" fill="#000000" fill-rule="nonzero" fill-opacity="1" /><path clip-path="url(#clip620)" d="M1992.01 1229.63 L2008.33 1229.63 L2008.33 1233.57 L1986.39 1233.57 L1986.39 1229.63 Q1989.05 1226.88 1993.63 1222.25 Q1998.24 1217.59 1999.42 1216.25 Q2001.67 1213.73 2002.54 1211.99 Q2003.45 1210.23 2003.45 1208.54 Q2003.45 1205.79 2001.5 1204.05 Q1999.58 1202.32 1996.48 1202.32 Q1994.28 1202.32 1991.83 1203.08 Q1989.4 1203.84 1986.62 1205.4 L1986.62 1200.67 Q1989.44 1199.54 1991.9 1198.96 Q1994.35 1198.38 1996.39 1198.38 Q2001.76 1198.38 2004.95 1201.07 Q2008.15 1203.75 2008.15 1208.24 Q2008.15 1210.37 2007.34 1212.29 Q2006.55 1214.19 2004.44 1216.78 Q2003.86 1217.46 2000.76 1220.67 Q1997.66 1223.87 1992.01 1229.63 Z" fill="#000000" fill-rule="nonzero" fill-opacity="1" /><path clip-path="url(#clip620)" d="M2028.15 1202.09 Q2024.54 1202.09 2022.71 1205.65 Q2020.9 1209.19 2020.9 1216.32 Q2020.9 1223.43 2022.71 1226.99 Q2024.54 1230.53 2028.15 1230.53 Q2031.78 1230.53 2033.59 1226.99 Q2035.42 1223.43 2035.42 1216.32 Q2035.42 1209.19 2033.59 1205.65 Q2031.78 1202.09 2028.15 1202.09 M2028.15 1198.38 Q2033.96 1198.38 2037.01 1202.99 Q2040.09 1207.57 2040.09 1216.32 Q2040.09 1225.05 2037.01 1229.65 Q2033.96 1234.24 2028.15 1234.24 Q2022.34 1234.24 2019.26 1229.65 Q2016.2 1225.05 2016.2 1216.32 Q2016.2 1207.57 2019.26 1202.99 Q2022.34 1198.38 2028.15 1198.38 Z" fill="#000000" fill-rule="nonzero" fill-opacity="1" /><path clip-path="url(#clip620)" d="M1061.59 1266.49 L1068.5 1266.49 L1080.31 1284.16 L1092.18 1266.49 L1099.09 1266.49 L1083.81 1289.32 L1100.11 1314.01 L1093.2 1314.01 L1079.83 1293.8 L1066.37 1314.01 L1059.43 1314.01 L1076.39 1288.65 L1061.59 1266.49 Z" fill="#000000" fill-rule="nonzero" fill-opacity="1" /><path clip-path="url(#clip620)" d="M1102.08 1293.55 L1119.24 1293.55 L1119.24 1298.77 L1102.08 1298.77 L1102.08 1293.55 Z" fill="#000000" fill-rule="nonzero" fill-opacity="1" /><path clip-path="url(#clip620)" d="M1144.76 1296.1 Q1137.66 1296.1 1134.93 1297.72 Q1132.19 1299.34 1132.19 1303.26 Q1132.19 1306.38 1134.23 1308.22 Q1136.3 1310.04 1139.83 1310.04 Q1144.7 1310.04 1147.63 1306.6 Q1150.59 1303.13 1150.59 1297.4 L1150.59 1296.1 L1144.76 1296.1 M1156.44 1293.68 L1156.44 1314.01 L1150.59 1314.01 L1150.59 1308.6 Q1148.58 1311.85 1145.59 1313.41 Q1142.6 1314.94 1138.27 1314.94 Q1132.79 1314.94 1129.55 1311.88 Q1126.33 1308.79 1126.33 1303.64 Q1126.33 1297.62 1130.34 1294.57 Q1134.39 1291.51 1142.37 1291.51 L1150.59 1291.51 L1150.59 1290.94 Q1150.59 1286.9 1147.91 1284.7 Q1145.27 1282.47 1140.47 1282.47 Q1137.41 1282.47 1134.51 1283.2 Q1131.62 1283.94 1128.94 1285.4 L1128.94 1279.99 Q1132.16 1278.75 1135.18 1278.14 Q1138.21 1277.51 1141.07 1277.51 Q1148.8 1277.51 1152.62 1281.52 Q1156.44 1285.53 1156.44 1293.68 Z" fill="#000000" fill-rule="nonzero" fill-opacity="1" /><path clip-path="url(#clip620)" d="M1198.14 1278.37 L1185.25 1295.71 L1198.81 1314.01 L1191.9 1314.01 L1181.52 1300.01 L1171.15 1314.01 L1164.24 1314.01 L1178.09 1295.36 L1165.42 1278.37 L1172.33 1278.37 L1181.78 1291.07 L1191.23 1278.37 L1198.14 1278.37 Z" fill="#000000" fill-rule="nonzero" fill-opacity="1" /><path clip-path="url(#clip620)" d="M1207.08 1278.37 L1212.94 1278.37 L1212.94 1314.01 L1207.08 1314.01 L1207.08 1278.37 M1207.08 1264.49 L1212.94 1264.49 L1212.94 1271.91 L1207.08 1271.91 L1207.08 1264.49 Z" fill="#000000" fill-rule="nonzero" fill-opacity="1" /><path clip-path="url(#clip620)" d="M1247.92 1279.42 L1247.92 1284.96 Q1245.44 1283.68 1242.76 1283.05 Q1240.09 1282.41 1237.22 1282.41 Q1232.86 1282.41 1230.67 1283.75 Q1228.5 1285.08 1228.5 1287.76 Q1228.5 1289.79 1230.06 1290.97 Q1231.62 1292.12 1236.33 1293.17 L1238.34 1293.61 Q1244.58 1294.95 1247.19 1297.4 Q1249.83 1299.82 1249.83 1304.18 Q1249.83 1309.14 1245.88 1312.04 Q1241.97 1314.94 1235.09 1314.94 Q1232.23 1314.94 1229.11 1314.36 Q1226.02 1313.82 1222.58 1312.71 L1222.58 1306.66 Q1225.83 1308.35 1228.98 1309.21 Q1232.13 1310.04 1235.22 1310.04 Q1239.36 1310.04 1241.58 1308.64 Q1243.81 1307.2 1243.81 1304.63 Q1243.81 1302.24 1242.19 1300.97 Q1240.6 1299.69 1235.16 1298.51 L1233.12 1298.04 Q1227.68 1296.89 1225.26 1294.54 Q1222.84 1292.15 1222.84 1288.01 Q1222.84 1282.98 1226.4 1280.24 Q1229.97 1277.51 1236.52 1277.51 Q1239.77 1277.51 1242.63 1277.98 Q1245.5 1278.46 1247.92 1279.42 Z" fill="#000000" fill-rule="nonzero" fill-opacity="1" /><polyline clip-path="url(#clip620)" style="stroke:#000000; stroke-linecap:round; stroke-linejoin:round; stroke-width:4; stroke-opacity:1; fill:none" points="244.502,1173.47 244.502,120.723 "/>
<polyline clip-path="url(#clip620)" style="stroke:#000000; stroke-linecap:round; stroke-linejoin:round; stroke-width:4; stroke-opacity:1; fill:none" points="244.502,1158.68 263.4,1158.68 "/>
<polyline clip-path="url(#clip620)" style="stroke:#000000; stroke-linecap:round; stroke-linejoin:round; stroke-width:4; stroke-opacity:1; fill:none" points="244.502,904.27 263.4,904.27 "/>
<polyline clip-path="url(#clip620)" style="stroke:#000000; stroke-linecap:round; stroke-linejoin:round; stroke-width:4; stroke-opacity:1; fill:none" points="244.502,649.857 263.4,649.857 "/>
<polyline clip-path="url(#clip620)" style="stroke:#000000; stroke-linecap:round; stroke-linejoin:round; stroke-width:4; stroke-opacity:1; fill:none" points="244.502,395.445 263.4,395.445 "/>
<polyline clip-path="url(#clip620)" style="stroke:#000000; stroke-linecap:round; stroke-linejoin:round; stroke-width:4; stroke-opacity:1; fill:none" points="244.502,141.032 263.4,141.032 "/>
<path clip-path="url(#clip620)" d="M125.485 1144.48 Q121.873 1144.48 120.045 1148.05 Q118.239 1151.59 118.239 1158.72 Q118.239 1165.82 120.045 1169.39 Q121.873 1172.93 125.485 1172.93 Q129.119 1172.93 130.924 1169.39 Q132.753 1165.82 132.753 1158.72 Q132.753 1151.59 130.924 1148.05 Q129.119 1144.48 125.485 1144.48 M125.485 1140.78 Q131.295 1140.78 134.35 1145.38 Q137.429 1149.97 137.429 1158.72 Q137.429 1167.44 134.35 1172.05 Q131.295 1176.63 125.485 1176.63 Q119.674 1176.63 116.596 1172.05 Q113.54 1167.44 113.54 1158.72 Q113.54 1149.97 116.596 1145.38 Q119.674 1140.78 125.485 1140.78 Z" fill="#000000" fill-rule="nonzero" fill-opacity="1" /><path clip-path="url(#clip620)" d="M145.646 1170.08 L150.531 1170.08 L150.531 1175.96 L145.646 1175.96 L145.646 1170.08 Z" fill="#000000" fill-rule="nonzero" fill-opacity="1" /><path clip-path="url(#clip620)" d="M170.716 1144.48 Q167.105 1144.48 165.276 1148.05 Q163.47 1151.59 163.47 1158.72 Q163.47 1165.82 165.276 1169.39 Q167.105 1172.93 170.716 1172.93 Q174.35 1172.93 176.156 1169.39 Q177.984 1165.82 177.984 1158.72 Q177.984 1151.59 176.156 1148.05 Q174.35 1144.48 170.716 1144.48 M170.716 1140.78 Q176.526 1140.78 179.581 1145.38 Q182.66 1149.97 182.66 1158.72 Q182.66 1167.44 179.581 1172.05 Q176.526 1176.63 170.716 1176.63 Q164.906 1176.63 161.827 1172.05 Q158.771 1167.44 158.771 1158.72 Q158.771 1149.97 161.827 1145.38 Q164.906 1140.78 170.716 1140.78 Z" fill="#000000" fill-rule="nonzero" fill-opacity="1" /><path clip-path="url(#clip620)" d="M200.878 1144.48 Q197.267 1144.48 195.438 1148.05 Q193.632 1151.59 193.632 1158.72 Q193.632 1165.82 195.438 1169.39 Q197.267 1172.93 200.878 1172.93 Q204.512 1172.93 206.317 1169.39 Q208.146 1165.82 208.146 1158.72 Q208.146 1151.59 206.317 1148.05 Q204.512 1144.48 200.878 1144.48 M200.878 1140.78 Q206.688 1140.78 209.743 1145.38 Q212.822 1149.97 212.822 1158.72 Q212.822 1167.44 209.743 1172.05 Q206.688 1176.63 200.878 1176.63 Q195.067 1176.63 191.989 1172.05 Q188.933 1167.44 188.933 1158.72 Q188.933 1149.97 191.989 1145.38 Q195.067 1140.78 200.878 1140.78 Z" fill="#000000" fill-rule="nonzero" fill-opacity="1" /><path clip-path="url(#clip620)" d="M126.48 890.069 Q122.869 890.069 121.04 893.634 Q119.235 897.175 119.235 904.305 Q119.235 911.412 121.04 914.976 Q122.869 918.518 126.48 918.518 Q130.114 918.518 131.92 914.976 Q133.748 911.412 133.748 904.305 Q133.748 897.175 131.92 893.634 Q130.114 890.069 126.48 890.069 M126.48 886.365 Q132.29 886.365 135.346 890.972 Q138.424 895.555 138.424 904.305 Q138.424 913.032 135.346 917.638 Q132.29 922.222 126.48 922.222 Q120.67 922.222 117.591 917.638 Q114.536 913.032 114.536 904.305 Q114.536 895.555 117.591 890.972 Q120.67 886.365 126.48 886.365 Z" fill="#000000" fill-rule="nonzero" fill-opacity="1" /><path clip-path="url(#clip620)" d="M146.642 915.671 L151.526 915.671 L151.526 921.55 L146.642 921.55 L146.642 915.671 Z" fill="#000000" fill-rule="nonzero" fill-opacity="1" /><path clip-path="url(#clip620)" d="M165.739 917.615 L182.058 917.615 L182.058 921.55 L160.114 921.55 L160.114 917.615 Q162.776 914.861 167.359 910.231 Q171.966 905.578 173.146 904.236 Q175.392 901.712 176.271 899.976 Q177.174 898.217 177.174 896.527 Q177.174 893.773 175.23 892.037 Q173.308 890.301 170.207 890.301 Q168.007 890.301 165.554 891.064 Q163.123 891.828 160.345 893.379 L160.345 888.657 Q163.17 887.523 165.623 886.944 Q168.077 886.365 170.114 886.365 Q175.484 886.365 178.679 889.051 Q181.873 891.736 181.873 896.226 Q181.873 898.356 181.063 900.277 Q180.276 902.175 178.169 904.768 Q177.591 905.439 174.489 908.657 Q171.387 911.851 165.739 917.615 Z" fill="#000000" fill-rule="nonzero" fill-opacity="1" /><path clip-path="url(#clip620)" d="M191.919 886.99 L210.276 886.99 L210.276 890.926 L196.202 890.926 L196.202 899.398 Q197.22 899.05 198.239 898.888 Q199.257 898.703 200.276 898.703 Q206.063 898.703 209.442 901.875 Q212.822 905.046 212.822 910.462 Q212.822 916.041 209.35 919.143 Q205.878 922.222 199.558 922.222 Q197.382 922.222 195.114 921.851 Q192.868 921.481 190.461 920.74 L190.461 916.041 Q192.544 917.175 194.767 917.731 Q196.989 918.286 199.466 918.286 Q203.47 918.286 205.808 916.18 Q208.146 914.074 208.146 910.462 Q208.146 906.851 205.808 904.745 Q203.47 902.638 199.466 902.638 Q197.591 902.638 195.716 903.055 Q193.864 903.472 191.919 904.351 L191.919 886.99 Z" fill="#000000" fill-rule="nonzero" fill-opacity="1" /><path clip-path="url(#clip620)" d="M125.485 635.656 Q121.873 635.656 120.045 639.221 Q118.239 642.763 118.239 649.892 Q118.239 656.999 120.045 660.563 Q121.873 664.105 125.485 664.105 Q129.119 664.105 130.924 660.563 Q132.753 656.999 132.753 649.892 Q132.753 642.763 130.924 639.221 Q129.119 635.656 125.485 635.656 M125.485 631.952 Q131.295 631.952 134.35 636.559 Q137.429 641.142 137.429 649.892 Q137.429 658.619 134.35 663.225 Q131.295 667.809 125.485 667.809 Q119.674 667.809 116.596 663.225 Q113.54 658.619 113.54 649.892 Q113.54 641.142 116.596 636.559 Q119.674 631.952 125.485 631.952 Z" fill="#000000" fill-rule="nonzero" fill-opacity="1" /><path clip-path="url(#clip620)" d="M145.646 661.258 L150.531 661.258 L150.531 667.137 L145.646 667.137 L145.646 661.258 Z" fill="#000000" fill-rule="nonzero" fill-opacity="1" /><path clip-path="url(#clip620)" d="M160.762 632.577 L179.119 632.577 L179.119 636.513 L165.045 636.513 L165.045 644.985 Q166.063 644.638 167.082 644.476 Q168.1 644.29 169.119 644.29 Q174.906 644.29 178.285 647.462 Q181.665 650.633 181.665 656.05 Q181.665 661.628 178.193 664.73 Q174.72 667.809 168.401 667.809 Q166.225 667.809 163.957 667.438 Q161.711 667.068 159.304 666.327 L159.304 661.628 Q161.387 662.763 163.609 663.318 Q165.832 663.874 168.308 663.874 Q172.313 663.874 174.651 661.767 Q176.989 659.661 176.989 656.05 Q176.989 652.439 174.651 650.332 Q172.313 648.226 168.308 648.226 Q166.433 648.226 164.558 648.642 Q162.707 649.059 160.762 649.939 L160.762 632.577 Z" fill="#000000" fill-rule="nonzero" fill-opacity="1" /><path clip-path="url(#clip620)" d="M200.878 635.656 Q197.267 635.656 195.438 639.221 Q193.632 642.763 193.632 649.892 Q193.632 656.999 195.438 660.563 Q197.267 664.105 200.878 664.105 Q204.512 664.105 206.317 660.563 Q208.146 656.999 208.146 649.892 Q208.146 642.763 206.317 639.221 Q204.512 635.656 200.878 635.656 M200.878 631.952 Q206.688 631.952 209.743 636.559 Q212.822 641.142 212.822 649.892 Q212.822 658.619 209.743 663.225 Q206.688 667.809 200.878 667.809 Q195.067 667.809 191.989 663.225 Q188.933 658.619 188.933 649.892 Q188.933 641.142 191.989 636.559 Q195.067 631.952 200.878 631.952 Z" fill="#000000" fill-rule="nonzero" fill-opacity="1" /><path clip-path="url(#clip620)" d="M126.48 381.243 Q122.869 381.243 121.04 384.808 Q119.235 388.35 119.235 395.479 Q119.235 402.586 121.04 406.151 Q122.869 409.692 126.48 409.692 Q130.114 409.692 131.92 406.151 Q133.748 402.586 133.748 395.479 Q133.748 388.35 131.92 384.808 Q130.114 381.243 126.48 381.243 M126.48 377.54 Q132.29 377.54 135.346 382.146 Q138.424 386.729 138.424 395.479 Q138.424 404.206 135.346 408.813 Q132.29 413.396 126.48 413.396 Q120.67 413.396 117.591 408.813 Q114.536 404.206 114.536 395.479 Q114.536 386.729 117.591 382.146 Q120.67 377.54 126.48 377.54 Z" fill="#000000" fill-rule="nonzero" fill-opacity="1" /><path clip-path="url(#clip620)" d="M146.642 406.845 L151.526 406.845 L151.526 412.725 L146.642 412.725 L146.642 406.845 Z" fill="#000000" fill-rule="nonzero" fill-opacity="1" /><path clip-path="url(#clip620)" d="M160.531 378.165 L182.753 378.165 L182.753 380.155 L170.207 412.725 L165.322 412.725 L177.128 382.1 L160.531 382.1 L160.531 378.165 Z" fill="#000000" fill-rule="nonzero" fill-opacity="1" /><path clip-path="url(#clip620)" d="M191.919 378.165 L210.276 378.165 L210.276 382.1 L196.202 382.1 L196.202 390.572 Q197.22 390.225 198.239 390.063 Q199.257 389.878 200.276 389.878 Q206.063 389.878 209.442 393.049 Q212.822 396.22 212.822 401.637 Q212.822 407.215 209.35 410.317 Q205.878 413.396 199.558 413.396 Q197.382 413.396 195.114 413.026 Q192.868 412.655 190.461 411.914 L190.461 407.215 Q192.544 408.35 194.767 408.905 Q196.989 409.461 199.466 409.461 Q203.47 409.461 205.808 407.354 Q208.146 405.248 208.146 401.637 Q208.146 398.026 205.808 395.919 Q203.47 393.813 199.466 393.813 Q197.591 393.813 195.716 394.229 Q193.864 394.646 191.919 395.526 L191.919 378.165 Z" fill="#000000" fill-rule="nonzero" fill-opacity="1" /><path clip-path="url(#clip620)" d="M116.295 154.377 L123.934 154.377 L123.934 128.011 L115.623 129.678 L115.623 125.418 L123.887 123.752 L128.563 123.752 L128.563 154.377 L136.202 154.377 L136.202 158.312 L116.295 158.312 L116.295 154.377 Z" fill="#000000" fill-rule="nonzero" fill-opacity="1" /><path clip-path="url(#clip620)" d="M145.646 152.432 L150.531 152.432 L150.531 158.312 L145.646 158.312 L145.646 152.432 Z" fill="#000000" fill-rule="nonzero" fill-opacity="1" /><path clip-path="url(#clip620)" d="M170.716 126.83 Q167.105 126.83 165.276 130.395 Q163.47 133.937 163.47 141.067 Q163.47 148.173 165.276 151.738 Q167.105 155.279 170.716 155.279 Q174.35 155.279 176.156 151.738 Q177.984 148.173 177.984 141.067 Q177.984 133.937 176.156 130.395 Q174.35 126.83 170.716 126.83 M170.716 123.127 Q176.526 123.127 179.581 127.733 Q182.66 132.317 182.66 141.067 Q182.66 149.793 179.581 154.4 Q176.526 158.983 170.716 158.983 Q164.906 158.983 161.827 154.4 Q158.771 149.793 158.771 141.067 Q158.771 132.317 161.827 127.733 Q164.906 123.127 170.716 123.127 Z" fill="#000000" fill-rule="nonzero" fill-opacity="1" /><path clip-path="url(#clip620)" d="M200.878 126.83 Q197.267 126.83 195.438 130.395 Q193.632 133.937 193.632 141.067 Q193.632 148.173 195.438 151.738 Q197.267 155.279 200.878 155.279 Q204.512 155.279 206.317 151.738 Q208.146 148.173 208.146 141.067 Q208.146 133.937 206.317 130.395 Q204.512 126.83 200.878 126.83 M200.878 123.127 Q206.688 123.127 209.743 127.733 Q212.822 132.317 212.822 141.067 Q212.822 149.793 209.743 154.4 Q206.688 158.983 200.878 158.983 Q195.067 158.983 191.989 154.4 Q188.933 149.793 188.933 141.067 Q188.933 132.317 191.989 127.733 Q195.067 123.127 200.878 123.127 Z" fill="#000000" fill-rule="nonzero" fill-opacity="1" /><path clip-path="url(#clip620)" d="M20.0842 738.668 L20.0842 731.761 L39.6269 718.584 L20.0842 705.502 L20.0842 698.595 L44.9741 715.401 L67.6042 715.401 L67.6042 721.862 L44.9741 721.862 L20.0842 738.668 Z" fill="#000000" fill-rule="nonzero" fill-opacity="1" /><path clip-path="url(#clip620)" d="M47.1384 703.274 L47.1384 686.119 L52.3583 686.119 L52.3583 703.274 L47.1384 703.274 Z" fill="#000000" fill-rule="nonzero" fill-opacity="1" /><path clip-path="url(#clip620)" d="M49.6847 660.592 Q49.6847 667.69 51.3079 670.427 Q52.9312 673.164 56.8461 673.164 Q59.9653 673.164 61.8114 671.127 Q63.6256 669.059 63.6256 665.526 Q63.6256 660.656 60.1881 657.728 Q56.7188 654.768 50.9897 654.768 L49.6847 654.768 L49.6847 660.592 M47.2657 648.911 L67.6042 648.911 L67.6042 654.768 L62.1933 654.768 Q65.4398 656.773 66.9994 659.765 Q68.5272 662.757 68.5272 667.085 Q68.5272 672.56 65.4716 675.806 Q62.3843 679.021 57.2281 679.021 Q51.2125 679.021 48.1569 675.011 Q45.1014 670.968 45.1014 662.979 L45.1014 654.768 L44.5285 654.768 Q40.4862 654.768 38.2901 657.441 Q36.0621 660.083 36.0621 664.889 Q36.0621 667.945 36.7941 670.841 Q37.5262 673.737 38.9903 676.411 L33.5795 676.411 Q32.3381 673.196 31.7334 670.173 Q31.0968 667.149 31.0968 664.284 Q31.0968 656.55 35.1072 652.731 Q39.1176 648.911 47.2657 648.911 Z" fill="#000000" fill-rule="nonzero" fill-opacity="1" /><path clip-path="url(#clip620)" d="M31.9562 607.216 L49.3028 620.106 L67.6042 606.547 L67.6042 613.454 L53.5996 623.83 L67.6042 634.206 L67.6042 641.113 L48.9526 627.268 L31.9562 639.935 L31.9562 633.029 L44.6558 623.576 L31.9562 614.123 L31.9562 607.216 Z" fill="#000000" fill-rule="nonzero" fill-opacity="1" /><path clip-path="url(#clip620)" d="M31.9562 598.272 L31.9562 592.415 L67.6042 592.415 L67.6042 598.272 L31.9562 598.272 M18.079 598.272 L18.079 592.415 L25.495 592.415 L25.495 598.272 L18.079 598.272 Z" fill="#000000" fill-rule="nonzero" fill-opacity="1" /><path clip-path="url(#clip620)" d="M33.0065 557.436 L38.5447 557.436 Q37.2716 559.919 36.635 562.592 Q35.9984 565.266 35.9984 568.13 Q35.9984 572.491 37.3352 574.687 Q38.672 576.851 41.3456 576.851 Q43.3826 576.851 44.5603 575.292 Q45.7061 573.732 46.7565 569.022 L47.2021 567.016 Q48.5389 560.778 50.9897 558.168 Q53.4086 555.526 57.7691 555.526 Q62.7344 555.526 65.6308 559.473 Q68.5272 563.388 68.5272 570.263 Q68.5272 573.127 67.9543 576.247 Q67.4132 579.334 66.2992 582.771 L60.2518 582.771 Q61.9387 579.525 62.798 576.374 Q63.6256 573.223 63.6256 570.136 Q63.6256 565.998 62.2251 563.77 Q60.7929 561.542 58.2147 561.542 Q55.8276 561.542 54.5545 563.165 Q53.2813 564.756 52.1037 570.199 L51.6262 572.236 Q50.4804 577.679 48.1251 580.098 Q45.738 582.517 41.6002 582.517 Q36.5713 582.517 33.8341 578.952 Q31.0968 575.387 31.0968 568.831 Q31.0968 565.584 31.5743 562.719 Q32.0517 559.855 33.0065 557.436 Z" fill="#000000" fill-rule="nonzero" fill-opacity="1" /><path clip-path="url(#clip620)" d="M757.823 18.8205 L757.823 41.5461 L768.112 41.5461 Q773.824 41.5461 776.943 38.5889 Q780.062 35.6318 780.062 30.163 Q780.062 24.7348 776.943 21.7777 Q773.824 18.8205 768.112 18.8205 L757.823 18.8205 M749.64 12.096 L768.112 12.096 Q778.28 12.096 783.465 16.714 Q788.691 21.2916 788.691 30.163 Q788.691 39.1155 783.465 43.6931 Q778.28 48.2706 768.112 48.2706 L757.823 48.2706 L757.823 72.576 L749.64 72.576 L749.64 12.096 Z" fill="#000000" fill-rule="nonzero" fill-opacity="1" /><path clip-path="url(#clip620)" d="M799.344 9.54393 L806.798 9.54393 L806.798 72.576 L799.344 72.576 L799.344 9.54393 Z" fill="#000000" fill-rule="nonzero" fill-opacity="1" /><path clip-path="url(#clip620)" d="M839.975 32.4315 Q833.98 32.4315 830.496 37.1306 Q827.012 41.7891 827.012 49.9314 Q827.012 58.0738 830.455 62.7728 Q833.939 67.4314 839.975 67.4314 Q845.93 67.4314 849.414 62.7323 Q852.897 58.0333 852.897 49.9314 Q852.897 41.8701 849.414 37.1711 Q845.93 32.4315 839.975 32.4315 M839.975 26.1121 Q849.697 26.1121 855.247 32.4315 Q860.797 38.7509 860.797 49.9314 Q860.797 61.0714 855.247 67.4314 Q849.697 73.7508 839.975 73.7508 Q830.212 73.7508 824.663 67.4314 Q819.153 61.0714 819.153 49.9314 Q819.153 38.7509 824.663 32.4315 Q830.212 26.1121 839.975 26.1121 Z" fill="#000000" fill-rule="nonzero" fill-opacity="1" /><path clip-path="url(#clip620)" d="M880.525 14.324 L880.525 27.2059 L895.877 27.2059 L895.877 32.9987 L880.525 32.9987 L880.525 57.6282 Q880.525 63.1779 882.023 64.7578 Q883.563 66.3376 888.221 66.3376 L895.877 66.3376 L895.877 72.576 L888.221 72.576 Q879.593 72.576 876.312 69.3758 Q873.03 66.1351 873.03 57.6282 L873.03 32.9987 L867.562 32.9987 L867.562 27.2059 L873.03 27.2059 L873.03 14.324 L880.525 14.324 Z" fill="#000000" fill-rule="nonzero" fill-opacity="1" /><path clip-path="url(#clip620)" d="M927.718 27.2059 L935.171 27.2059 L944.488 62.6108 L953.765 27.2059 L962.555 27.2059 L971.872 62.6108 L981.149 27.2059 L988.603 27.2059 L976.734 72.576 L967.943 72.576 L958.18 35.3887 L948.377 72.576 L939.587 72.576 L927.718 27.2059 Z" fill="#000000" fill-rule="nonzero" fill-opacity="1" /><path clip-path="url(#clip620)" d="M999.905 27.2059 L1007.36 27.2059 L1007.36 72.576 L999.905 72.576 L999.905 27.2059 M999.905 9.54393 L1007.36 9.54393 L1007.36 18.9825 L999.905 18.9825 L999.905 9.54393 Z" fill="#000000" fill-rule="nonzero" fill-opacity="1" /><path clip-path="url(#clip620)" d="M1030.33 14.324 L1030.33 27.2059 L1045.68 27.2059 L1045.68 32.9987 L1030.33 32.9987 L1030.33 57.6282 Q1030.33 63.1779 1031.83 64.7578 Q1033.37 66.3376 1038.02 66.3376 L1045.68 66.3376 L1045.68 72.576 L1038.02 72.576 Q1029.4 72.576 1026.11 69.3758 Q1022.83 66.1351 1022.83 57.6282 L1022.83 32.9987 L1017.36 32.9987 L1017.36 27.2059 L1022.83 27.2059 L1022.83 14.324 L1030.33 14.324 Z" fill="#000000" fill-rule="nonzero" fill-opacity="1" /><path clip-path="url(#clip620)" d="M1093.2 45.1919 L1093.2 72.576 L1085.74 72.576 L1085.74 45.4349 Q1085.74 38.994 1083.23 35.7938 Q1080.72 32.5936 1075.7 32.5936 Q1069.66 32.5936 1066.18 36.4419 Q1062.69 40.2903 1062.69 46.9338 L1062.69 72.576 L1055.2 72.576 L1055.2 9.54393 L1062.69 9.54393 L1062.69 34.2544 Q1065.37 30.163 1068.97 28.1376 Q1072.62 26.1121 1077.36 26.1121 Q1085.18 26.1121 1089.19 30.9732 Q1093.2 35.7938 1093.2 45.1919 Z" fill="#000000" fill-rule="nonzero" fill-opacity="1" /><path clip-path="url(#clip620)" d="M1126.37 12.096 L1177.54 12.096 L1177.54 18.9825 L1156.07 18.9825 L1156.07 72.576 L1147.84 72.576 L1147.84 18.9825 L1126.37 18.9825 L1126.37 12.096 Z" fill="#000000" fill-rule="nonzero" fill-opacity="1" /><path clip-path="url(#clip620)" d="M1167.04 27.2059 L1174.5 27.2059 L1183.82 62.6108 L1193.09 27.2059 L1201.88 27.2059 L1211.2 62.6108 L1220.48 27.2059 L1227.93 27.2059 L1216.06 72.576 L1207.27 72.576 L1197.51 35.3887 L1187.7 72.576 L1178.91 72.576 L1167.04 27.2059 Z" fill="#000000" fill-rule="nonzero" fill-opacity="1" /><path clip-path="url(#clip620)" d="M1256.81 32.4315 Q1250.82 32.4315 1247.33 37.1306 Q1243.85 41.7891 1243.85 49.9314 Q1243.85 58.0738 1247.29 62.7728 Q1250.78 67.4314 1256.81 67.4314 Q1262.77 67.4314 1266.25 62.7323 Q1269.74 58.0333 1269.74 49.9314 Q1269.74 41.8701 1266.25 37.1711 Q1262.77 32.4315 1256.81 32.4315 M1256.81 26.1121 Q1266.54 26.1121 1272.08 32.4315 Q1277.63 38.7509 1277.63 49.9314 Q1277.63 61.0714 1272.08 67.4314 Q1266.54 73.7508 1256.81 73.7508 Q1247.05 73.7508 1241.5 67.4314 Q1235.99 61.0714 1235.99 49.9314 Q1235.99 38.7509 1241.5 32.4315 Q1247.05 26.1121 1256.81 26.1121 Z" fill="#000000" fill-rule="nonzero" fill-opacity="1" /><path clip-path="url(#clip620)" d="M1352.94 14.0809 L1352.94 22.0612 Q1348.28 19.8332 1344.15 18.7395 Q1340.02 17.6457 1336.17 17.6457 Q1329.49 17.6457 1325.84 20.2383 Q1322.24 22.8309 1322.24 27.611 Q1322.24 31.6214 1324.63 33.6873 Q1327.06 35.7128 1333.78 36.9686 L1338.72 37.9813 Q1347.88 39.7232 1352.21 44.1387 Q1356.59 48.5136 1356.59 55.8863 Q1356.59 64.6767 1350.67 69.2137 Q1344.8 73.7508 1333.42 73.7508 Q1329.12 73.7508 1324.26 72.7785 Q1319.44 71.8063 1314.25 69.9024 L1314.25 61.4765 Q1319.24 64.2716 1324.02 65.6895 Q1328.8 67.1073 1333.42 67.1073 Q1340.42 67.1073 1344.23 64.3527 Q1348.04 61.598 1348.04 56.4939 Q1348.04 52.0379 1345.28 49.5264 Q1342.57 47.0148 1336.33 45.759 L1331.35 44.7868 Q1322.19 42.9639 1318.1 39.075 Q1314.01 35.1862 1314.01 28.2591 Q1314.01 20.2383 1319.64 15.6203 Q1325.31 11.0023 1335.24 11.0023 Q1339.49 11.0023 1343.91 11.7719 Q1348.32 12.5416 1352.94 14.0809 Z" fill="#000000" fill-rule="nonzero" fill-opacity="1" /><path clip-path="url(#clip620)" d="M1407.83 48.0275 L1407.83 51.6733 L1373.56 51.6733 Q1374.05 59.3701 1378.18 63.421 Q1382.35 67.4314 1389.76 67.4314 Q1394.06 67.4314 1398.07 66.3781 Q1402.12 65.3249 1406.09 63.2184 L1406.09 70.267 Q1402.08 71.9684 1397.87 72.8596 Q1393.65 73.7508 1389.32 73.7508 Q1378.46 73.7508 1372.1 67.4314 Q1365.78 61.1119 1365.78 50.3365 Q1365.78 39.1965 1371.78 32.6746 Q1377.81 26.1121 1388.02 26.1121 Q1397.18 26.1121 1402.48 32.0264 Q1407.83 37.9003 1407.83 48.0275 M1400.38 45.84 Q1400.3 39.7232 1396.93 36.0774 Q1393.61 32.4315 1388.1 32.4315 Q1381.86 32.4315 1378.1 35.9558 Q1374.37 39.4801 1373.8 45.8805 L1400.38 45.84 Z" fill="#000000" fill-rule="nonzero" fill-opacity="1" /><path clip-path="url(#clip620)" d="M1446.35 34.1734 Q1445.1 33.4443 1443.6 33.1202 Q1442.14 32.7556 1440.36 32.7556 Q1434.04 32.7556 1430.64 36.8875 Q1427.28 40.9789 1427.28 48.6757 L1427.28 72.576 L1419.78 72.576 L1419.78 27.2059 L1427.28 27.2059 L1427.28 34.2544 Q1429.62 30.1225 1433.39 28.1376 Q1437.16 26.1121 1442.55 26.1121 Q1443.32 26.1121 1444.25 26.2337 Q1445.18 26.3147 1446.31 26.5172 L1446.35 34.1734 Z" fill="#000000" fill-rule="nonzero" fill-opacity="1" /><path clip-path="url(#clip620)" d="M1454.17 27.2059 L1461.63 27.2059 L1461.63 72.576 L1454.17 72.576 L1454.17 27.2059 M1454.17 9.54393 L1461.63 9.54393 L1461.63 18.9825 L1454.17 18.9825 L1454.17 9.54393 Z" fill="#000000" fill-rule="nonzero" fill-opacity="1" /><path clip-path="url(#clip620)" d="M1516.03 48.0275 L1516.03 51.6733 L1481.76 51.6733 Q1482.25 59.3701 1486.38 63.421 Q1490.55 67.4314 1497.96 67.4314 Q1502.26 67.4314 1506.27 66.3781 Q1510.32 65.3249 1514.29 63.2184 L1514.29 70.267 Q1510.28 71.9684 1506.07 72.8596 Q1501.85 73.7508 1497.52 73.7508 Q1486.66 73.7508 1480.3 67.4314 Q1473.98 61.1119 1473.98 50.3365 Q1473.98 39.1965 1479.98 32.6746 Q1486.01 26.1121 1496.22 26.1121 Q1505.38 26.1121 1510.68 32.0264 Q1516.03 37.9003 1516.03 48.0275 M1508.58 45.84 Q1508.5 39.7232 1505.13 36.0774 Q1501.81 32.4315 1496.3 32.4315 Q1490.06 32.4315 1486.3 35.9558 Q1482.57 39.4801 1482 45.8805 L1508.58 45.84 Z" fill="#000000" fill-rule="nonzero" fill-opacity="1" /><path clip-path="url(#clip620)" d="M1557.19 28.5427 L1557.19 35.5912 Q1554.03 33.9709 1550.63 33.1607 Q1547.22 32.3505 1543.58 32.3505 Q1538.03 32.3505 1535.23 34.0519 Q1532.48 35.7533 1532.48 39.156 Q1532.48 41.7486 1534.46 43.2475 Q1536.45 44.7058 1542.44 46.0426 L1544.99 46.6097 Q1552.93 48.3111 1556.26 51.4303 Q1559.62 54.509 1559.62 60.0587 Q1559.62 66.3781 1554.59 70.0644 Q1549.61 73.7508 1540.86 73.7508 Q1537.22 73.7508 1533.25 73.0216 Q1529.32 72.3329 1524.94 70.9151 L1524.94 63.2184 Q1529.07 65.3654 1533.08 66.4591 Q1537.1 67.5124 1541.02 67.5124 Q1546.29 67.5124 1549.13 65.73 Q1551.96 63.9071 1551.96 60.6258 Q1551.96 57.5877 1549.9 55.9673 Q1547.87 54.3469 1540.94 52.8481 L1538.35 52.2405 Q1531.42 50.7821 1528.35 47.7845 Q1525.27 44.7463 1525.27 39.4801 Q1525.27 33.0797 1529.8 29.5959 Q1534.34 26.1121 1542.69 26.1121 Q1546.82 26.1121 1550.46 26.7198 Q1554.11 27.3274 1557.19 28.5427 Z" fill="#000000" fill-rule="nonzero" fill-opacity="1" /><polyline clip-path="url(#clip622)" style="stroke:#009af9; stroke-linecap:round; stroke-linejoin:round; stroke-width:4; stroke-opacity:1; fill:none" points="296.019,618.271 386.399,253.717 476.779,342.988 567.159,1125.56 657.539,181.015 747.919,557.114 838.299,433.472 928.679,291.852 1019.06,338.862 1109.44,822.257 1199.82,439.054 1290.2,813.087 1380.58,217.561 1470.96,759.049 1561.34,267.468 1651.72,914.744 1742.1,807.22 1832.48,997.679 1922.86,257.845 2013.24,150.518 "/>
<polyline clip-path="url(#clip622)" style="stroke:#e26f46; stroke-linecap:round; stroke-linejoin:round; stroke-width:4; stroke-opacity:1; fill:none" points="296.019,710.282 386.399,1002.6 476.779,1105.88 567.159,653.233 657.539,289.013 747.919,523.639 838.299,812.311 928.679,398.442 1019.06,189.731 1109.44,875.629 1199.82,457.078 1290.2,1032.02 1380.58,375.464 1470.96,161.64 1561.34,858.692 1651.72,265.383 1742.1,963.477 1832.48,1143.68 1922.86,815.028 2013.24,503.988 "/>
<path clip-path="url(#clip620)" d="M305.177 311.335 L676.97 311.335 L676.97 155.815 L305.177 155.815  Z" fill="#ffffff" fill-rule="evenodd" fill-opacity="1"/>
<polyline clip-path="url(#clip620)" style="stroke:#000000; stroke-linecap:round; stroke-linejoin:round; stroke-width:4; stroke-opacity:1; fill:none" points="305.177,311.335 676.97,311.335 676.97,155.815 305.177,155.815 305.177,311.335 "/>
<polyline clip-path="url(#clip620)" style="stroke:#009af9; stroke-linecap:round; stroke-linejoin:round; stroke-width:4; stroke-opacity:1; fill:none" points="325.402,207.655 446.752,207.655 "/>
<path clip-path="url(#clip620)" d="M489.223 191.509 L489.223 196.069 Q486.561 194.796 484.2 194.171 Q481.839 193.546 479.639 193.546 Q475.82 193.546 473.737 195.027 Q471.677 196.509 471.677 199.24 Q471.677 201.532 473.042 202.713 Q474.431 203.87 478.274 204.588 L481.098 205.166 Q486.329 206.162 488.806 208.685 Q491.306 211.185 491.306 215.398 Q491.306 220.421 487.926 223.013 Q484.57 225.606 478.065 225.606 Q475.612 225.606 472.834 225.05 Q470.079 224.495 467.116 223.407 L467.116 218.592 Q469.964 220.189 472.695 220.999 Q475.427 221.81 478.065 221.81 Q482.07 221.81 484.246 220.236 Q486.422 218.662 486.422 215.745 Q486.422 213.199 484.848 211.763 Q483.297 210.328 479.732 209.611 L476.885 209.055 Q471.653 208.013 469.315 205.791 Q466.978 203.569 466.978 199.611 Q466.978 195.027 470.195 192.389 Q473.436 189.75 479.107 189.75 Q481.538 189.75 484.061 190.189 Q486.584 190.629 489.223 191.509 Z" fill="#000000" fill-rule="nonzero" fill-opacity="1" /><path clip-path="url(#clip620)" d="M520.588 210.907 L520.588 212.99 L501.005 212.99 Q501.283 217.388 503.644 219.703 Q506.028 221.995 510.264 221.995 Q512.718 221.995 515.01 221.393 Q517.324 220.791 519.593 219.587 L519.593 223.615 Q517.301 224.587 514.894 225.097 Q512.487 225.606 510.01 225.606 Q503.806 225.606 500.172 221.995 Q496.561 218.384 496.561 212.226 Q496.561 205.861 499.987 202.134 Q503.436 198.384 509.269 198.384 Q514.5 198.384 517.533 201.763 Q520.588 205.12 520.588 210.907 M516.329 209.657 Q516.283 206.162 514.362 204.078 Q512.463 201.995 509.315 201.995 Q505.75 201.995 503.598 204.009 Q501.468 206.023 501.144 209.68 L516.329 209.657 Z" fill="#000000" fill-rule="nonzero" fill-opacity="1" /><path clip-path="url(#clip620)" d="M542.602 202.99 Q541.885 202.574 541.028 202.388 Q540.195 202.18 539.176 202.18 Q535.565 202.18 533.621 204.541 Q531.699 206.879 531.699 211.277 L531.699 224.935 L527.417 224.935 L527.417 199.009 L531.699 199.009 L531.699 203.037 Q533.042 200.675 535.195 199.541 Q537.347 198.384 540.426 198.384 Q540.866 198.384 541.398 198.453 Q541.931 198.5 542.579 198.615 L542.602 202.99 Z" fill="#000000" fill-rule="nonzero" fill-opacity="1" /><path clip-path="url(#clip620)" d="M547.07 199.009 L551.329 199.009 L551.329 224.935 L547.07 224.935 L547.07 199.009 M547.07 188.916 L551.329 188.916 L551.329 194.31 L547.07 194.31 L547.07 188.916 Z" fill="#000000" fill-rule="nonzero" fill-opacity="1" /><path clip-path="url(#clip620)" d="M582.417 210.907 L582.417 212.99 L562.833 212.99 Q563.111 217.388 565.472 219.703 Q567.857 221.995 572.093 221.995 Q574.546 221.995 576.838 221.393 Q579.153 220.791 581.421 219.587 L581.421 223.615 Q579.13 224.587 576.722 225.097 Q574.315 225.606 571.838 225.606 Q565.634 225.606 562 221.995 Q558.389 218.384 558.389 212.226 Q558.389 205.861 561.815 202.134 Q565.264 198.384 571.097 198.384 Q576.329 198.384 579.361 201.763 Q582.417 205.12 582.417 210.907 M578.157 209.657 Q578.111 206.162 576.19 204.078 Q574.292 201.995 571.144 201.995 Q567.579 201.995 565.426 204.009 Q563.296 206.023 562.972 209.68 L578.157 209.657 Z" fill="#000000" fill-rule="nonzero" fill-opacity="1" /><path clip-path="url(#clip620)" d="M605.935 199.773 L605.935 203.8 Q604.13 202.875 602.185 202.412 Q600.241 201.949 598.157 201.949 Q594.986 201.949 593.389 202.921 Q591.815 203.893 591.815 205.838 Q591.815 207.319 592.949 208.175 Q594.083 209.009 597.509 209.773 L598.968 210.097 Q603.505 211.069 605.403 212.851 Q607.324 214.611 607.324 217.782 Q607.324 221.393 604.454 223.499 Q601.606 225.606 596.606 225.606 Q594.523 225.606 592.255 225.189 Q590.009 224.796 587.509 223.986 L587.509 219.587 Q589.87 220.814 592.162 221.439 Q594.454 222.041 596.699 222.041 Q599.708 222.041 601.329 221.023 Q602.949 219.981 602.949 218.106 Q602.949 216.37 601.768 215.444 Q600.611 214.518 596.653 213.662 L595.171 213.314 Q591.213 212.481 589.454 210.768 Q587.694 209.032 587.694 206.023 Q587.694 202.365 590.287 200.375 Q592.88 198.384 597.648 198.384 Q600.009 198.384 602.093 198.731 Q604.176 199.078 605.935 199.773 Z" fill="#000000" fill-rule="nonzero" fill-opacity="1" /><path clip-path="url(#clip620)" d="M640.912 194.981 L634.569 212.18 L647.277 212.18 L640.912 194.981 M638.273 190.375 L643.574 190.375 L656.745 224.935 L651.884 224.935 L648.736 216.069 L633.157 216.069 L630.009 224.935 L625.079 224.935 L638.273 190.375 Z" fill="#000000" fill-rule="nonzero" fill-opacity="1" /><polyline clip-path="url(#clip620)" style="stroke:#e26f46; stroke-linecap:round; stroke-linejoin:round; stroke-width:4; stroke-opacity:1; fill:none" points="325.402,259.495 446.752,259.495 "/>
<path clip-path="url(#clip620)" d="M489.223 243.349 L489.223 247.909 Q486.561 246.636 484.2 246.011 Q481.839 245.386 479.639 245.386 Q475.82 245.386 473.737 246.867 Q471.677 248.349 471.677 251.08 Q471.677 253.372 473.042 254.553 Q474.431 255.71 478.274 256.428 L481.098 257.006 Q486.329 258.002 488.806 260.525 Q491.306 263.025 491.306 267.238 Q491.306 272.261 487.926 274.853 Q484.57 277.446 478.065 277.446 Q475.612 277.446 472.834 276.89 Q470.079 276.335 467.116 275.247 L467.116 270.432 Q469.964 272.029 472.695 272.839 Q475.427 273.65 478.065 273.65 Q482.07 273.65 484.246 272.076 Q486.422 270.502 486.422 267.585 Q486.422 265.039 484.848 263.603 Q483.297 262.168 479.732 261.451 L476.885 260.895 Q471.653 259.853 469.315 257.631 Q466.978 255.409 466.978 251.451 Q466.978 246.867 470.195 244.229 Q473.436 241.59 479.107 241.59 Q481.538 241.59 484.061 242.029 Q486.584 242.469 489.223 243.349 Z" fill="#000000" fill-rule="nonzero" fill-opacity="1" /><path clip-path="url(#clip620)" d="M520.588 262.747 L520.588 264.83 L501.005 264.83 Q501.283 269.228 503.644 271.543 Q506.028 273.835 510.264 273.835 Q512.718 273.835 515.01 273.233 Q517.324 272.631 519.593 271.427 L519.593 275.455 Q517.301 276.427 514.894 276.937 Q512.487 277.446 510.01 277.446 Q503.806 277.446 500.172 273.835 Q496.561 270.224 496.561 264.066 Q496.561 257.701 499.987 253.974 Q503.436 250.224 509.269 250.224 Q514.5 250.224 517.533 253.603 Q520.588 256.96 520.588 262.747 M516.329 261.497 Q516.283 258.002 514.362 255.918 Q512.463 253.835 509.315 253.835 Q505.75 253.835 503.598 255.849 Q501.468 257.863 501.144 261.52 L516.329 261.497 Z" fill="#000000" fill-rule="nonzero" fill-opacity="1" /><path clip-path="url(#clip620)" d="M542.602 254.83 Q541.885 254.414 541.028 254.228 Q540.195 254.02 539.176 254.02 Q535.565 254.02 533.621 256.381 Q531.699 258.719 531.699 263.117 L531.699 276.775 L527.417 276.775 L527.417 250.849 L531.699 250.849 L531.699 254.877 Q533.042 252.515 535.195 251.381 Q537.347 250.224 540.426 250.224 Q540.866 250.224 541.398 250.293 Q541.931 250.34 542.579 250.455 L542.602 254.83 Z" fill="#000000" fill-rule="nonzero" fill-opacity="1" /><path clip-path="url(#clip620)" d="M547.07 250.849 L551.329 250.849 L551.329 276.775 L547.07 276.775 L547.07 250.849 M547.07 240.756 L551.329 240.756 L551.329 246.15 L547.07 246.15 L547.07 240.756 Z" fill="#000000" fill-rule="nonzero" fill-opacity="1" /><path clip-path="url(#clip620)" d="M582.417 262.747 L582.417 264.83 L562.833 264.83 Q563.111 269.228 565.472 271.543 Q567.857 273.835 572.093 273.835 Q574.546 273.835 576.838 273.233 Q579.153 272.631 581.421 271.427 L581.421 275.455 Q579.13 276.427 576.722 276.937 Q574.315 277.446 571.838 277.446 Q565.634 277.446 562 273.835 Q558.389 270.224 558.389 264.066 Q558.389 257.701 561.815 253.974 Q565.264 250.224 571.097 250.224 Q576.329 250.224 579.361 253.603 Q582.417 256.96 582.417 262.747 M578.157 261.497 Q578.111 258.002 576.19 255.918 Q574.292 253.835 571.144 253.835 Q567.579 253.835 565.426 255.849 Q563.296 257.863 562.972 261.52 L578.157 261.497 Z" fill="#000000" fill-rule="nonzero" fill-opacity="1" /><path clip-path="url(#clip620)" d="M605.935 251.613 L605.935 255.64 Q604.13 254.715 602.185 254.252 Q600.241 253.789 598.157 253.789 Q594.986 253.789 593.389 254.761 Q591.815 255.733 591.815 257.678 Q591.815 259.159 592.949 260.015 Q594.083 260.849 597.509 261.613 L598.968 261.937 Q603.505 262.909 605.403 264.691 Q607.324 266.451 607.324 269.622 Q607.324 273.233 604.454 275.339 Q601.606 277.446 596.606 277.446 Q594.523 277.446 592.255 277.029 Q590.009 276.636 587.509 275.826 L587.509 271.427 Q589.87 272.654 592.162 273.279 Q594.454 273.881 596.699 273.881 Q599.708 273.881 601.329 272.863 Q602.949 271.821 602.949 269.946 Q602.949 268.21 601.768 267.284 Q600.611 266.358 596.653 265.502 L595.171 265.154 Q591.213 264.321 589.454 262.608 Q587.694 260.872 587.694 257.863 Q587.694 254.205 590.287 252.215 Q592.88 250.224 597.648 250.224 Q600.009 250.224 602.093 250.571 Q604.176 250.918 605.935 251.613 Z" fill="#000000" fill-rule="nonzero" fill-opacity="1" /><path clip-path="url(#clip620)" d="M634.037 260.27 L634.037 272.932 L641.537 272.932 Q645.31 272.932 647.115 271.381 Q648.944 269.807 648.944 266.589 Q648.944 263.349 647.115 261.821 Q645.31 260.27 641.537 260.27 L634.037 260.27 M634.037 246.057 L634.037 256.474 L640.958 256.474 Q644.384 256.474 646.051 255.201 Q647.74 253.904 647.74 251.266 Q647.74 248.65 646.051 247.353 Q644.384 246.057 640.958 246.057 L634.037 246.057 M629.361 242.215 L641.305 242.215 Q646.652 242.215 649.546 244.437 Q652.439 246.659 652.439 250.756 Q652.439 253.928 650.958 255.803 Q649.477 257.678 646.606 258.14 Q650.055 258.881 651.953 261.242 Q653.875 263.58 653.875 267.099 Q653.875 271.728 650.727 274.251 Q647.578 276.775 641.768 276.775 L629.361 276.775 L629.361 242.215 Z" fill="#000000" fill-rule="nonzero" fill-opacity="1" /></svg>
