<?xml version="1.0" encoding="utf-8"?>
<svg xmlns="http://www.w3.org/2000/svg" xmlns:xlink="http://www.w3.org/1999/xlink" width="1650" height="1050" viewBox="0 0 6600 4200">
<defs>
  <clipPath id="clip820">
    <rect x="0" y="0" width="6600" height="4200"/>
  </clipPath>
</defs>
<path clip-path="url(#clip820)" d="M0 4200 L6600 4200 L6600 6.66134e-14 L0 6.66134e-14  Z" fill="#ffffff" fill-rule="evenodd" fill-opacity="1"/>
<defs>
  <clipPath id="clip821">
    <rect x="1320" y="0" width="4621" height="4200"/>
  </clipPath>
</defs>
<path clip-path="url(#clip820)" d="M211.121 4062.02 L6552.76 4062.02 L6552.76 120.723 L211.121 120.723  Z" fill="#ffffff" fill-rule="evenodd" fill-opacity="1"/>
<defs>
  <clipPath id="clip822">
    <rect x="211" y="120" width="6343" height="3942"/>
  </clipPath>
</defs>
<polyline clip-path="url(#clip822)" style="stroke:#000000; stroke-linecap:round; stroke-linejoin:round; stroke-width:2; stroke-opacity:0.1; fill:none" points="963.068,4062.02 963.068,120.723 "/>
<polyline clip-path="url(#clip822)" style="stroke:#000000; stroke-linecap:round; stroke-linejoin:round; stroke-width:2; stroke-opacity:0.1; fill:none" points="1769.36,4062.02 1769.36,120.723 "/>
<polyline clip-path="url(#clip822)" style="stroke:#000000; stroke-linecap:round; stroke-linejoin:round; stroke-width:2; stroke-opacity:0.1; fill:none" points="2575.65,4062.02 2575.65,120.723 "/>
<polyline clip-path="url(#clip822)" style="stroke:#000000; stroke-linecap:round; stroke-linejoin:round; stroke-width:2; stroke-opacity:0.1; fill:none" points="3381.94,4062.02 3381.94,120.723 "/>
<polyline clip-path="url(#clip822)" style="stroke:#000000; stroke-linecap:round; stroke-linejoin:round; stroke-width:2; stroke-opacity:0.1; fill:none" points="4188.23,4062.02 4188.23,120.723 "/>
<polyline clip-path="url(#clip822)" style="stroke:#000000; stroke-linecap:round; stroke-linejoin:round; stroke-width:2; stroke-opacity:0.1; fill:none" points="4994.52,4062.02 4994.52,120.723 "/>
<polyline clip-path="url(#clip822)" style="stroke:#000000; stroke-linecap:round; stroke-linejoin:round; stroke-width:2; stroke-opacity:0.1; fill:none" points="5800.81,4062.02 5800.81,120.723 "/>
<polyline clip-path="url(#clip822)" style="stroke:#000000; stroke-linecap:round; stroke-linejoin:round; stroke-width:2; stroke-opacity:0.1; fill:none" points="211.121,4062.02 6552.76,4062.02 "/>
<polyline clip-path="url(#clip822)" style="stroke:#000000; stroke-linecap:round; stroke-linejoin:round; stroke-width:2; stroke-opacity:0.1; fill:none" points="211.121,3030.27 6552.76,3030.27 "/>
<polyline clip-path="url(#clip822)" style="stroke:#000000; stroke-linecap:round; stroke-linejoin:round; stroke-width:2; stroke-opacity:0.1; fill:none" points="211.121,1998.51 6552.76,1998.51 "/>
<polyline clip-path="url(#clip822)" style="stroke:#000000; stroke-linecap:round; stroke-linejoin:round; stroke-width:2; stroke-opacity:0.1; fill:none" points="211.121,966.76 6552.76,966.76 "/>
<polyline clip-path="url(#clip820)" style="stroke:#000000; stroke-linecap:round; stroke-linejoin:round; stroke-width:4; stroke-opacity:1; fill:none" points="211.121,4062.02 6552.76,4062.02 "/>
<polyline clip-path="url(#clip820)" style="stroke:#000000; stroke-linecap:round; stroke-linejoin:round; stroke-width:4; stroke-opacity:1; fill:none" points="963.068,4062.02 963.068,4043.12 "/>
<polyline clip-path="url(#clip820)" style="stroke:#000000; stroke-linecap:round; stroke-linejoin:round; stroke-width:4; stroke-opacity:1; fill:none" points="1769.36,4062.02 1769.36,4043.12 "/>
<polyline clip-path="url(#clip820)" style="stroke:#000000; stroke-linecap:round; stroke-linejoin:round; stroke-width:4; stroke-opacity:1; fill:none" points="2575.65,4062.02 2575.65,4043.12 "/>
<polyline clip-path="url(#clip820)" style="stroke:#000000; stroke-linecap:round; stroke-linejoin:round; stroke-width:4; stroke-opacity:1; fill:none" points="3381.94,4062.02 3381.94,4043.12 "/>
<polyline clip-path="url(#clip820)" style="stroke:#000000; stroke-linecap:round; stroke-linejoin:round; stroke-width:4; stroke-opacity:1; fill:none" points="4188.23,4062.02 4188.23,4043.12 "/>
<polyline clip-path="url(#clip820)" style="stroke:#000000; stroke-linecap:round; stroke-linejoin:round; stroke-width:4; stroke-opacity:1; fill:none" points="4994.52,4062.02 4994.52,4043.12 "/>
<polyline clip-path="url(#clip820)" style="stroke:#000000; stroke-linecap:round; stroke-linejoin:round; stroke-width:4; stroke-opacity:1; fill:none" points="5800.81,4062.02 5800.81,4043.12 "/>
<path clip-path="url(#clip820)" d="M932.535 4141.19 L962.211 4141.19 L962.211 4145.13 L932.535 4145.13 L932.535 4141.19 Z" fill="#000000" fill-rule="nonzero" fill-opacity="1" /><path clip-path="url(#clip820)" d="M986.47 4139.38 Q989.827 4140.1 991.702 4142.37 Q993.6 4144.64 993.6 4147.97 Q993.6 4153.09 990.081 4155.89 Q986.563 4158.69 980.081 4158.69 Q977.906 4158.69 975.591 4158.25 Q973.299 4157.83 970.845 4156.98 L970.845 4152.46 Q972.79 4153.6 975.105 4154.18 Q977.419 4154.75 979.943 4154.75 Q984.341 4154.75 986.632 4153.02 Q988.947 4151.28 988.947 4147.97 Q988.947 4144.92 986.794 4143.2 Q984.665 4141.47 980.845 4141.47 L976.818 4141.47 L976.818 4137.63 L981.031 4137.63 Q984.48 4137.63 986.308 4136.26 Q988.137 4134.87 988.137 4132.28 Q988.137 4129.62 986.239 4128.2 Q984.364 4126.77 980.845 4126.77 Q978.924 4126.77 976.725 4127.19 Q974.526 4127.6 971.887 4128.48 L971.887 4124.32 Q974.549 4123.57 976.864 4123.2 Q979.202 4122.83 981.262 4122.83 Q986.586 4122.83 989.688 4125.26 Q992.79 4127.67 992.79 4131.79 Q992.79 4134.66 991.146 4136.65 Q989.503 4138.62 986.47 4139.38 Z" fill="#000000" fill-rule="nonzero" fill-opacity="1" /><path clip-path="url(#clip820)" d="M1739.3 4141.19 L1768.98 4141.19 L1768.98 4145.13 L1739.3 4145.13 L1739.3 4141.19 Z" fill="#000000" fill-rule="nonzero" fill-opacity="1" /><path clip-path="url(#clip820)" d="M1783.1 4154.08 L1799.42 4154.08 L1799.42 4158.02 L1777.47 4158.02 L1777.47 4154.08 Q1780.13 4151.33 1784.72 4146.7 Q1789.32 4142.05 1790.5 4140.7 Q1792.75 4138.18 1793.63 4136.44 Q1794.53 4134.69 1794.53 4133 Q1794.53 4130.24 1792.59 4128.51 Q1790.67 4126.77 1787.56 4126.77 Q1785.36 4126.77 1782.91 4127.53 Q1780.48 4128.3 1777.7 4129.85 L1777.7 4125.13 Q1780.53 4123.99 1782.98 4123.41 Q1785.43 4122.83 1787.47 4122.83 Q1792.84 4122.83 1796.04 4125.52 Q1799.23 4128.2 1799.23 4132.69 Q1799.23 4134.82 1798.42 4136.75 Q1797.63 4138.64 1795.53 4141.24 Q1794.95 4141.91 1791.85 4145.13 Q1788.74 4148.32 1783.1 4154.08 Z" fill="#000000" fill-rule="nonzero" fill-opacity="1" /><path clip-path="url(#clip820)" d="M2545.41 4141.19 L2575.08 4141.19 L2575.08 4145.13 L2545.41 4145.13 L2545.41 4141.19 Z" fill="#000000" fill-rule="nonzero" fill-opacity="1" /><path clip-path="url(#clip820)" d="M2585.98 4154.08 L2593.62 4154.08 L2593.62 4127.72 L2585.31 4129.38 L2585.31 4125.13 L2593.58 4123.46 L2598.25 4123.46 L2598.25 4154.08 L2605.89 4154.08 L2605.89 4158.02 L2585.98 4158.02 L2585.98 4154.08 Z" fill="#000000" fill-rule="nonzero" fill-opacity="1" /><path clip-path="url(#clip820)" d="M3381.94 4126.54 Q3378.33 4126.54 3376.5 4130.1 Q3374.69 4133.64 3374.69 4140.77 Q3374.69 4147.88 3376.5 4151.44 Q3378.33 4154.99 3381.94 4154.99 Q3385.57 4154.99 3387.38 4151.44 Q3389.21 4147.88 3389.21 4140.77 Q3389.21 4133.64 3387.38 4130.1 Q3385.57 4126.54 3381.94 4126.54 M3381.94 4122.83 Q3387.75 4122.83 3390.8 4127.44 Q3393.88 4132.02 3393.88 4140.77 Q3393.88 4149.5 3390.8 4154.11 Q3387.75 4158.69 3381.94 4158.69 Q3376.13 4158.69 3373.05 4154.11 Q3369.99 4149.5 3369.99 4140.77 Q3369.99 4132.02 3373.05 4127.44 Q3376.13 4122.83 3381.94 4122.83 Z" fill="#000000" fill-rule="nonzero" fill-opacity="1" /><path clip-path="url(#clip820)" d="M4178.61 4154.08 L4186.25 4154.08 L4186.25 4127.72 L4177.94 4129.38 L4177.94 4125.13 L4186.2 4123.46 L4190.88 4123.46 L4190.88 4154.08 L4198.52 4154.08 L4198.52 4158.02 L4178.61 4158.02 L4178.61 4154.08 Z" fill="#000000" fill-rule="nonzero" fill-opacity="1" /><path clip-path="url(#clip820)" d="M4989.17 4154.08 L5005.49 4154.08 L5005.49 4158.02 L4983.55 4158.02 L4983.55 4154.08 Q4986.21 4151.33 4990.79 4146.7 Q4995.4 4142.05 4996.58 4140.7 Q4998.82 4138.18 4999.7 4136.44 Q5000.61 4134.69 5000.61 4133 Q5000.61 4130.24 4998.66 4128.51 Q4996.74 4126.77 4993.64 4126.77 Q4991.44 4126.77 4988.99 4127.53 Q4986.56 4128.3 4983.78 4129.85 L4983.78 4125.13 Q4986.6 4123.99 4989.06 4123.41 Q4991.51 4122.83 4993.55 4122.83 Q4998.92 4122.83 5002.11 4125.52 Q5005.31 4128.2 5005.31 4132.69 Q5005.31 4134.82 5004.5 4136.75 Q5003.71 4138.64 5001.6 4141.24 Q5001.02 4141.91 4997.92 4145.13 Q4994.82 4148.32 4989.17 4154.08 Z" fill="#000000" fill-rule="nonzero" fill-opacity="1" /><path clip-path="url(#clip820)" d="M5805.06 4139.38 Q5808.41 4140.1 5810.29 4142.37 Q5812.19 4144.64 5812.19 4147.97 Q5812.19 4153.09 5808.67 4155.89 Q5805.15 4158.69 5798.67 4158.69 Q5796.49 4158.69 5794.18 4158.25 Q5791.89 4157.83 5789.43 4156.98 L5789.43 4152.46 Q5791.38 4153.6 5793.69 4154.18 Q5796.01 4154.75 5798.53 4154.75 Q5802.93 4154.75 5805.22 4153.02 Q5807.53 4151.28 5807.53 4147.97 Q5807.53 4144.92 5805.38 4143.2 Q5803.25 4141.47 5799.43 4141.47 L5795.4 4141.47 L5795.4 4137.63 L5799.62 4137.63 Q5803.07 4137.63 5804.9 4136.26 Q5806.72 4134.87 5806.72 4132.28 Q5806.72 4129.62 5804.83 4128.2 Q5802.95 4126.77 5799.43 4126.77 Q5797.51 4126.77 5795.31 4127.19 Q5793.11 4127.6 5790.47 4128.48 L5790.47 4124.32 Q5793.14 4123.57 5795.45 4123.2 Q5797.79 4122.83 5799.85 4122.83 Q5805.17 4122.83 5808.27 4125.26 Q5811.38 4127.67 5811.38 4131.79 Q5811.38 4134.66 5809.73 4136.65 Q5808.09 4138.62 5805.06 4139.38 Z" fill="#000000" fill-rule="nonzero" fill-opacity="1" /><polyline clip-path="url(#clip820)" style="stroke:#000000; stroke-linecap:round; stroke-linejoin:round; stroke-width:4; stroke-opacity:1; fill:none" points="211.121,4062.02 211.121,120.723 "/>
<polyline clip-path="url(#clip820)" style="stroke:#000000; stroke-linecap:round; stroke-linejoin:round; stroke-width:4; stroke-opacity:1; fill:none" points="211.121,4062.02 230.019,4062.02 "/>
<polyline clip-path="url(#clip820)" style="stroke:#000000; stroke-linecap:round; stroke-linejoin:round; stroke-width:4; stroke-opacity:1; fill:none" points="211.121,3030.27 230.019,3030.27 "/>
<polyline clip-path="url(#clip820)" style="stroke:#000000; stroke-linecap:round; stroke-linejoin:round; stroke-width:4; stroke-opacity:1; fill:none" points="211.121,1998.51 230.019,1998.51 "/>
<polyline clip-path="url(#clip820)" style="stroke:#000000; stroke-linecap:round; stroke-linejoin:round; stroke-width:4; stroke-opacity:1; fill:none" points="211.121,966.76 230.019,966.76 "/>
<path clip-path="url(#clip820)" d="M100.177 4047.82 Q96.5658 4047.82 94.7371 4051.38 Q92.9316 4054.92 92.9316 4062.05 Q92.9316 4069.16 94.7371 4072.72 Q96.5658 4076.27 100.177 4076.27 Q103.811 4076.27 105.617 4072.72 Q107.445 4069.16 107.445 4062.05 Q107.445 4054.92 105.617 4051.38 Q103.811 4047.82 100.177 4047.82 M100.177 4044.11 Q105.987 4044.11 109.043 4048.72 Q112.121 4053.3 112.121 4062.05 Q112.121 4070.78 109.043 4075.39 Q105.987 4079.97 100.177 4079.97 Q94.3668 4079.97 91.2881 4075.39 Q88.2326 4070.78 88.2326 4062.05 Q88.2326 4053.3 91.2881 4048.72 Q94.3668 4044.11 100.177 4044.11 Z" fill="#000000" fill-rule="nonzero" fill-opacity="1" /><path clip-path="url(#clip820)" d="M60.0614 3012.99 L78.4178 3012.99 L78.4178 3016.92 L64.3438 3016.92 L64.3438 3025.39 Q65.3623 3025.05 66.3808 3024.88 Q67.3993 3024.7 68.4178 3024.7 Q74.2049 3024.7 77.5845 3027.87 Q80.9641 3031.04 80.9641 3036.46 Q80.9641 3042.04 77.4919 3045.14 Q74.0197 3048.22 67.7003 3048.22 Q65.5243 3048.22 63.2558 3047.85 Q61.0105 3047.48 58.6031 3046.74 L58.6031 3042.04 Q60.6864 3043.17 62.9086 3043.73 Q65.1308 3044.28 67.6077 3044.28 Q71.6123 3044.28 73.9502 3042.18 Q76.2882 3040.07 76.2882 3036.46 Q76.2882 3032.85 73.9502 3030.74 Q71.6123 3028.63 67.6077 3028.63 Q65.7327 3028.63 63.8577 3029.05 Q62.0058 3029.47 60.0614 3030.35 L60.0614 3012.99 Z" fill="#000000" fill-rule="nonzero" fill-opacity="1" /><path clip-path="url(#clip820)" d="M100.177 3016.06 Q96.5658 3016.06 94.7371 3019.63 Q92.9316 3023.17 92.9316 3030.3 Q92.9316 3037.41 94.7371 3040.97 Q96.5658 3044.51 100.177 3044.51 Q103.811 3044.51 105.617 3040.97 Q107.445 3037.41 107.445 3030.3 Q107.445 3023.17 105.617 3019.63 Q103.811 3016.06 100.177 3016.06 M100.177 3012.36 Q105.987 3012.36 109.043 3016.97 Q112.121 3021.55 112.121 3030.3 Q112.121 3039.03 109.043 3043.63 Q105.987 3048.22 100.177 3048.22 Q94.3668 3048.22 91.2881 3043.63 Q88.2326 3039.03 88.2326 3030.3 Q88.2326 3021.55 91.2881 3016.97 Q94.3668 3012.36 100.177 3012.36 Z" fill="#000000" fill-rule="nonzero" fill-opacity="1" /><path clip-path="url(#clip820)" d="M30.6634 2011.86 L38.3023 2011.86 L38.3023 1985.49 L29.9921 1987.16 L29.9921 1982.9 L38.256 1981.23 L42.9319 1981.23 L42.9319 2011.86 L50.5707 2011.86 L50.5707 2015.79 L30.6634 2015.79 L30.6634 2011.86 Z" fill="#000000" fill-rule="nonzero" fill-opacity="1" /><path clip-path="url(#clip820)" d="M70.0151 1984.31 Q66.404 1984.31 64.5753 1987.88 Q62.7697 1991.42 62.7697 1998.55 Q62.7697 2005.65 64.5753 2009.22 Q66.404 2012.76 70.0151 2012.76 Q73.6493 2012.76 75.4548 2009.22 Q77.2835 2005.65 77.2835 1998.55 Q77.2835 1991.42 75.4548 1987.88 Q73.6493 1984.31 70.0151 1984.31 M70.0151 1980.61 Q75.8252 1980.61 78.8808 1985.21 Q81.9594 1989.8 81.9594 1998.55 Q81.9594 2007.27 78.8808 2011.88 Q75.8252 2016.46 70.0151 2016.46 Q64.2049 2016.46 61.1262 2011.88 Q58.0707 2007.27 58.0707 1998.55 Q58.0707 1989.8 61.1262 1985.21 Q64.2049 1980.61 70.0151 1980.61 Z" fill="#000000" fill-rule="nonzero" fill-opacity="1" /><path clip-path="url(#clip820)" d="M100.177 1984.31 Q96.5658 1984.31 94.7371 1987.88 Q92.9316 1991.42 92.9316 1998.55 Q92.9316 2005.65 94.7371 2009.22 Q96.5658 2012.76 100.177 2012.76 Q103.811 2012.76 105.617 2009.22 Q107.445 2005.65 107.445 1998.55 Q107.445 1991.42 105.617 1987.88 Q103.811 1984.31 100.177 1984.31 M100.177 1980.61 Q105.987 1980.61 109.043 1985.21 Q112.121 1989.8 112.121 1998.55 Q112.121 2007.27 109.043 2011.88 Q105.987 2016.46 100.177 2016.46 Q94.3668 2016.46 91.2881 2011.88 Q88.2326 2007.27 88.2326 1998.55 Q88.2326 1989.8 91.2881 1985.21 Q94.3668 1980.61 100.177 1980.61 Z" fill="#000000" fill-rule="nonzero" fill-opacity="1" /><path clip-path="url(#clip820)" d="M30.6634 980.105 L38.3023 980.105 L38.3023 953.74 L29.9921 955.406 L29.9921 951.147 L38.256 949.48 L42.9319 949.48 L42.9319 980.105 L50.5707 980.105 L50.5707 984.04 L30.6634 984.04 L30.6634 980.105 Z" fill="#000000" fill-rule="nonzero" fill-opacity="1" /><path clip-path="url(#clip820)" d="M60.0614 949.48 L78.4178 949.48 L78.4178 953.416 L64.3438 953.416 L64.3438 961.888 Q65.3623 961.54 66.3808 961.378 Q67.3993 961.193 68.4178 961.193 Q74.2049 961.193 77.5845 964.365 Q80.9641 967.536 80.9641 972.952 Q80.9641 978.531 77.4919 981.633 Q74.0197 984.712 67.7003 984.712 Q65.5243 984.712 63.2558 984.341 Q61.0105 983.971 58.6031 983.23 L58.6031 978.531 Q60.6864 979.665 62.9086 980.221 Q65.1308 980.776 67.6077 980.776 Q71.6123 980.776 73.9502 978.67 Q76.2882 976.564 76.2882 972.952 Q76.2882 969.341 73.9502 967.235 Q71.6123 965.128 67.6077 965.128 Q65.7327 965.128 63.8577 965.545 Q62.0058 965.962 60.0614 966.841 L60.0614 949.48 Z" fill="#000000" fill-rule="nonzero" fill-opacity="1" /><path clip-path="url(#clip820)" d="M100.177 952.559 Q96.5658 952.559 94.7371 956.124 Q92.9316 959.665 92.9316 966.795 Q92.9316 973.902 94.7371 977.466 Q96.5658 981.008 100.177 981.008 Q103.811 981.008 105.617 977.466 Q107.445 973.902 107.445 966.795 Q107.445 959.665 105.617 956.124 Q103.811 952.559 100.177 952.559 M100.177 948.855 Q105.987 948.855 109.043 953.462 Q112.121 958.045 112.121 966.795 Q112.121 975.522 109.043 980.128 Q105.987 984.712 100.177 984.712 Q94.3668 984.712 91.2881 980.128 Q88.2326 975.522 88.2326 966.795 Q88.2326 958.045 91.2881 953.462 Q94.3668 948.855 100.177 948.855 Z" fill="#000000" fill-rule="nonzero" fill-opacity="1" /><path clip-path="url(#clip820)" d="M2979.89 12.096 L2988.07 12.096 L2988.07 36.8875 L3017.8 36.8875 L3017.8 12.096 L3025.99 12.096 L3025.99 72.576 L3017.8 72.576 L3017.8 43.7741 L2988.07 43.7741 L2988.07 72.576 L2979.89 72.576 L2979.89 12.096 Z" fill="#000000" fill-rule="nonzero" fill-opacity="1" /><path clip-path="url(#clip820)" d="M3041.95 27.2059 L3049.4 27.2059 L3049.4 72.576 L3041.95 72.576 L3041.95 27.2059 M3041.95 9.54393 L3049.4 9.54393 L3049.4 18.9825 L3041.95 18.9825 L3041.95 9.54393 Z" fill="#000000" fill-rule="nonzero" fill-opacity="1" /><path clip-path="url(#clip820)" d="M3093.92 28.5427 L3093.92 35.5912 Q3090.76 33.9709 3087.36 33.1607 Q3083.95 32.3505 3080.31 32.3505 Q3074.76 32.3505 3071.96 34.0519 Q3069.21 35.7533 3069.21 39.156 Q3069.21 41.7486 3071.19 43.2475 Q3073.18 44.7058 3079.17 46.0426 L3081.73 46.6097 Q3089.67 48.3111 3092.99 51.4303 Q3096.35 54.509 3096.35 60.0587 Q3096.35 66.3781 3091.33 70.0644 Q3086.34 73.7508 3077.59 73.7508 Q3073.95 73.7508 3069.98 73.0216 Q3066.05 72.3329 3061.67 70.9151 L3061.67 63.2184 Q3065.81 65.3654 3069.82 66.4591 Q3073.83 67.5124 3077.76 67.5124 Q3083.02 67.5124 3085.86 65.73 Q3088.69 63.9071 3088.69 60.6258 Q3088.69 57.5877 3086.63 55.9673 Q3084.6 54.3469 3077.68 52.8481 L3075.08 52.2405 Q3068.16 50.7821 3065.08 47.7845 Q3062 44.7463 3062 39.4801 Q3062 33.0797 3066.54 29.5959 Q3071.07 26.1121 3079.42 26.1121 Q3083.55 26.1121 3087.19 26.7198 Q3090.84 27.3274 3093.92 28.5427 Z" fill="#000000" fill-rule="nonzero" fill-opacity="1" /><path clip-path="url(#clip820)" d="M3115.59 14.324 L3115.59 27.2059 L3130.94 27.2059 L3130.94 32.9987 L3115.59 32.9987 L3115.59 57.6282 Q3115.59 63.1779 3117.09 64.7578 Q3118.63 66.3376 3123.29 66.3376 L3130.94 66.3376 L3130.94 72.576 L3123.29 72.576 Q3114.66 72.576 3111.38 69.3758 Q3108.1 66.1351 3108.1 57.6282 L3108.1 32.9987 L3102.63 32.9987 L3102.63 27.2059 L3108.1 27.2059 L3108.1 14.324 L3115.59 14.324 Z" fill="#000000" fill-rule="nonzero" fill-opacity="1" /><path clip-path="url(#clip820)" d="M3158.33 32.4315 Q3152.33 32.4315 3148.85 37.1306 Q3145.37 41.7891 3145.37 49.9314 Q3145.37 58.0738 3148.81 62.7728 Q3152.29 67.4314 3158.33 67.4314 Q3164.28 67.4314 3167.77 62.7323 Q3171.25 58.0333 3171.25 49.9314 Q3171.25 41.8701 3167.77 37.1711 Q3164.28 32.4315 3158.33 32.4315 M3158.33 26.1121 Q3168.05 26.1121 3173.6 32.4315 Q3179.15 38.7509 3179.15 49.9314 Q3179.15 61.0714 3173.6 67.4314 Q3168.05 73.7508 3158.33 73.7508 Q3148.57 73.7508 3143.02 67.4314 Q3137.51 61.0714 3137.51 49.9314 Q3137.51 38.7509 3143.02 32.4315 Q3148.57 26.1121 3158.33 26.1121 Z" fill="#000000" fill-rule="nonzero" fill-opacity="1" /><path clip-path="url(#clip820)" d="M3221.36 49.3643 Q3221.36 41.2625 3218 36.8065 Q3214.68 32.3505 3208.64 32.3505 Q3202.65 32.3505 3199.28 36.8065 Q3195.96 41.2625 3195.96 49.3643 Q3195.96 57.4256 3199.28 61.8816 Q3202.65 66.3376 3208.64 66.3376 Q3214.68 66.3376 3218 61.8816 Q3221.36 57.4256 3221.36 49.3643 M3228.81 66.9452 Q3228.81 78.5308 3223.67 84.1616 Q3218.53 89.8329 3207.91 89.8329 Q3203.98 89.8329 3200.5 89.2252 Q3197.01 88.6581 3193.73 87.4428 L3193.73 80.1917 Q3197.01 81.9741 3200.22 82.8248 Q3203.42 83.6755 3206.74 83.6755 Q3214.07 83.6755 3217.71 79.8271 Q3221.36 76.0193 3221.36 68.282 L3221.36 64.5957 Q3219.05 68.6061 3215.45 70.5911 Q3211.84 72.576 3206.82 72.576 Q3198.47 72.576 3193.37 66.2161 Q3188.26 59.8562 3188.26 49.3643 Q3188.26 38.832 3193.37 32.472 Q3198.47 26.1121 3206.82 26.1121 Q3211.84 26.1121 3215.45 28.0971 Q3219.05 30.082 3221.36 34.0924 L3221.36 27.2059 L3228.81 27.2059 L3228.81 66.9452 Z" fill="#000000" fill-rule="nonzero" fill-opacity="1" /><path clip-path="url(#clip820)" d="M3270.46 34.1734 Q3269.2 33.4443 3267.7 33.1202 Q3266.24 32.7556 3264.46 32.7556 Q3258.14 32.7556 3254.74 36.8875 Q3251.38 40.9789 3251.38 48.6757 L3251.38 72.576 L3243.88 72.576 L3243.88 27.2059 L3251.38 27.2059 L3251.38 34.2544 Q3253.73 30.1225 3257.49 28.1376 Q3261.26 26.1121 3266.65 26.1121 Q3267.42 26.1121 3268.35 26.2337 Q3269.28 26.3147 3270.42 26.5172 L3270.46 34.1734 Z" fill="#000000" fill-rule="nonzero" fill-opacity="1" /><path clip-path="url(#clip820)" d="M3298.9 49.7694 Q3289.86 49.7694 3286.38 51.8354 Q3282.89 53.9013 3282.89 58.8839 Q3282.89 62.8538 3285.49 65.2034 Q3288.12 67.5124 3292.62 67.5124 Q3298.81 67.5124 3302.54 63.1374 Q3306.31 58.7219 3306.31 51.4303 L3306.31 49.7694 L3298.9 49.7694 M3313.76 46.6907 L3313.76 72.576 L3306.31 72.576 L3306.31 65.6895 Q3303.76 69.8214 3299.95 71.8063 Q3296.14 73.7508 3290.63 73.7508 Q3283.66 73.7508 3279.53 69.8619 Q3275.44 65.9325 3275.44 59.3701 Q3275.44 51.7138 3280.54 47.825 Q3285.69 43.9361 3295.86 43.9361 L3306.31 43.9361 L3306.31 43.2069 Q3306.31 38.0623 3302.91 35.2672 Q3299.54 32.4315 3293.43 32.4315 Q3289.54 32.4315 3285.85 33.3632 Q3282.16 34.295 3278.76 36.1584 L3278.76 29.2718 Q3282.85 27.692 3286.7 26.9223 Q3290.55 26.1121 3294.2 26.1121 Q3304.04 26.1121 3308.9 31.2163 Q3313.76 36.3204 3313.76 46.6907 Z" fill="#000000" fill-rule="nonzero" fill-opacity="1" /><path clip-path="url(#clip820)" d="M3364.44 35.9153 Q3367.23 30.8922 3371.12 28.5022 Q3375.01 26.1121 3380.28 26.1121 Q3387.37 26.1121 3391.22 31.0947 Q3395.06 36.0368 3395.06 45.1919 L3395.06 72.576 L3387.57 72.576 L3387.57 45.4349 Q3387.57 38.913 3385.26 35.7533 Q3382.95 32.5936 3378.21 32.5936 Q3372.42 32.5936 3369.06 36.4419 Q3365.69 40.2903 3365.69 46.9338 L3365.69 72.576 L3358.2 72.576 L3358.2 45.4349 Q3358.2 38.8725 3355.89 35.7533 Q3353.58 32.5936 3348.76 32.5936 Q3343.05 32.5936 3339.69 36.4824 Q3336.33 40.3308 3336.33 46.9338 L3336.33 72.576 L3328.83 72.576 L3328.83 27.2059 L3336.33 27.2059 L3336.33 34.2544 Q3338.88 30.082 3342.44 28.0971 Q3346.01 26.1121 3350.91 26.1121 Q3355.85 26.1121 3359.29 28.6237 Q3362.78 31.1352 3364.44 35.9153 Z" fill="#000000" fill-rule="nonzero" fill-opacity="1" /><path clip-path="url(#clip820)" d="M3436.63 12.096 L3474.87 12.096 L3474.87 18.9825 L3444.81 18.9825 L3444.81 36.8875 L3473.61 36.8875 L3473.61 43.7741 L3444.81 43.7741 L3444.81 65.6895 L3475.6 65.6895 L3475.6 72.576 L3436.63 72.576 L3436.63 12.096 Z" fill="#000000" fill-rule="nonzero" fill-opacity="1" /><path clip-path="url(#clip820)" d="M3526.43 27.2059 L3510.03 49.2833 L3527.29 72.576 L3518.49 72.576 L3505.29 54.752 L3492.08 72.576 L3483.29 72.576 L3500.91 48.8377 L3484.79 27.2059 L3493.58 27.2059 L3505.61 43.369 L3517.64 27.2059 L3526.43 27.2059 Z" fill="#000000" fill-rule="nonzero" fill-opacity="1" /><path clip-path="url(#clip820)" d="M3558.44 49.7694 Q3549.4 49.7694 3545.92 51.8354 Q3542.44 53.9013 3542.44 58.8839 Q3542.44 62.8538 3545.03 65.2034 Q3547.66 67.5124 3552.16 67.5124 Q3558.36 67.5124 3562.08 63.1374 Q3565.85 58.7219 3565.85 51.4303 L3565.85 49.7694 L3558.44 49.7694 M3573.3 46.6907 L3573.3 72.576 L3565.85 72.576 L3565.85 65.6895 Q3563.3 69.8214 3559.49 71.8063 Q3555.68 73.7508 3550.17 73.7508 Q3543.21 73.7508 3539.07 69.8619 Q3534.98 65.9325 3534.98 59.3701 Q3534.98 51.7138 3540.09 47.825 Q3545.23 43.9361 3555.4 43.9361 L3565.85 43.9361 L3565.85 43.2069 Q3565.85 38.0623 3562.45 35.2672 Q3559.08 32.4315 3552.97 32.4315 Q3549.08 32.4315 3545.39 33.3632 Q3541.71 34.295 3538.3 36.1584 L3538.3 29.2718 Q3542.39 27.692 3546.24 26.9223 Q3550.09 26.1121 3553.74 26.1121 Q3563.58 26.1121 3568.44 31.2163 Q3573.3 36.3204 3573.3 46.6907 Z" fill="#000000" fill-rule="nonzero" fill-opacity="1" /><path clip-path="url(#clip820)" d="M3623.98 35.9153 Q3626.78 30.8922 3630.66 28.5022 Q3634.55 26.1121 3639.82 26.1121 Q3646.91 26.1121 3650.76 31.0947 Q3654.6 36.0368 3654.6 45.1919 L3654.6 72.576 L3647.11 72.576 L3647.11 45.4349 Q3647.11 38.913 3644.8 35.7533 Q3642.49 32.5936 3637.75 32.5936 Q3631.96 32.5936 3628.6 36.4419 Q3625.24 40.2903 3625.24 46.9338 L3625.24 72.576 L3617.74 72.576 L3617.74 45.4349 Q3617.74 38.8725 3615.43 35.7533 Q3613.12 32.5936 3608.3 32.5936 Q3602.59 32.5936 3599.23 36.4824 Q3595.87 40.3308 3595.87 46.9338 L3595.87 72.576 L3588.37 72.576 L3588.37 27.2059 L3595.87 27.2059 L3595.87 34.2544 Q3598.42 30.082 3601.98 28.0971 Q3605.55 26.1121 3610.45 26.1121 Q3615.39 26.1121 3618.84 28.6237 Q3622.32 31.1352 3623.98 35.9153 Z" fill="#000000" fill-rule="nonzero" fill-opacity="1" /><path clip-path="url(#clip820)" d="M3676.68 65.7705 L3676.68 89.8329 L3669.19 89.8329 L3669.19 27.2059 L3676.68 27.2059 L3676.68 34.0924 Q3679.03 30.0415 3682.6 28.0971 Q3686.2 26.1121 3691.18 26.1121 Q3699.45 26.1121 3704.59 32.6746 Q3709.78 39.2371 3709.78 49.9314 Q3709.78 60.6258 3704.59 67.1883 Q3699.45 73.7508 3691.18 73.7508 Q3686.2 73.7508 3682.6 71.8063 Q3679.03 69.8214 3676.68 65.7705 M3702.04 49.9314 Q3702.04 41.7081 3698.64 37.0496 Q3695.28 32.3505 3689.36 32.3505 Q3683.45 32.3505 3680.04 37.0496 Q3676.68 41.7081 3676.68 49.9314 Q3676.68 58.1548 3680.04 62.8538 Q3683.45 67.5124 3689.36 67.5124 Q3695.28 67.5124 3698.64 62.8538 Q3702.04 58.1548 3702.04 49.9314 Z" fill="#000000" fill-rule="nonzero" fill-opacity="1" /><path clip-path="url(#clip820)" d="M3722.13 9.54393 L3729.59 9.54393 L3729.59 72.576 L3722.13 72.576 L3722.13 9.54393 Z" fill="#000000" fill-rule="nonzero" fill-opacity="1" /><path clip-path="url(#clip820)" d="M3783.99 48.0275 L3783.99 51.6733 L3749.72 51.6733 Q3750.21 59.3701 3754.34 63.421 Q3758.51 67.4314 3765.92 67.4314 Q3770.22 67.4314 3774.23 66.3781 Q3778.28 65.3249 3782.25 63.2184 L3782.25 70.267 Q3778.24 71.9684 3774.03 72.8596 Q3769.81 73.7508 3765.48 73.7508 Q3754.62 73.7508 3748.26 67.4314 Q3741.94 61.1119 3741.94 50.3365 Q3741.94 39.1965 3747.94 32.6746 Q3753.97 26.1121 3764.18 26.1121 Q3773.34 26.1121 3778.64 32.0264 Q3783.99 37.9003 3783.99 48.0275 M3776.54 45.84 Q3776.46 39.7232 3773.09 36.0774 Q3769.77 32.4315 3764.26 32.4315 Q3758.02 32.4315 3754.26 35.9558 Q3750.53 39.4801 3749.96 45.8805 L3776.54 45.84 Z" fill="#000000" fill-rule="nonzero" fill-opacity="1" /><path clip-path="url(#clip822)" d="M559.923 4000.11 L559.923 4062.02 L963.068 4062.02 L963.068 4000.11 L559.923 4000.11 L559.923 4000.11  Z" fill="#009af9" fill-rule="evenodd" fill-opacity="1"/>
<polyline clip-path="url(#clip822)" style="stroke:#000000; stroke-linecap:round; stroke-linejoin:round; stroke-width:4; stroke-opacity:1; fill:none" points="559.923,4000.11 559.923,4062.02 963.068,4062.02 963.068,4000.11 559.923,4000.11 "/>
<path clip-path="url(#clip822)" d="M963.068 3979.48 L963.068 4062.02 L1366.21 4062.02 L1366.21 3979.48 L963.068 3979.48 L963.068 3979.48  Z" fill="#009af9" fill-rule="evenodd" fill-opacity="1"/>
<polyline clip-path="url(#clip822)" style="stroke:#000000; stroke-linecap:round; stroke-linejoin:round; stroke-width:4; stroke-opacity:1; fill:none" points="963.068,3979.48 963.068,4062.02 1366.21,4062.02 1366.21,3979.48 963.068,3979.48 "/>
<path clip-path="url(#clip822)" d="M1366.21 3793.76 L1366.21 4062.02 L1769.36 4062.02 L1769.36 3793.76 L1366.21 3793.76 L1366.21 3793.76  Z" fill="#009af9" fill-rule="evenodd" fill-opacity="1"/>
<polyline clip-path="url(#clip822)" style="stroke:#000000; stroke-linecap:round; stroke-linejoin:round; stroke-width:4; stroke-opacity:1; fill:none" points="1366.21,3793.76 1366.21,4062.02 1769.36,4062.02 1769.36,3793.76 1366.21,3793.76 "/>
<path clip-path="url(#clip822)" d="M1769.36 2803.28 L1769.36 4062.02 L2172.5 4062.02 L2172.5 2803.28 L1769.36 2803.28 L1769.36 2803.28  Z" fill="#009af9" fill-rule="evenodd" fill-opacity="1"/>
<polyline clip-path="url(#clip822)" style="stroke:#000000; stroke-linecap:round; stroke-linejoin:round; stroke-width:4; stroke-opacity:1; fill:none" points="1769.36,2803.28 1769.36,4062.02 2172.5,4062.02 2172.5,2803.28 1769.36,2803.28 "/>
<path clip-path="url(#clip822)" d="M2172.5 2101.69 L2172.5 4062.02 L2575.65 4062.02 L2575.65 2101.69 L2172.5 2101.69 L2172.5 2101.69  Z" fill="#009af9" fill-rule="evenodd" fill-opacity="1"/>
<polyline clip-path="url(#clip822)" style="stroke:#000000; stroke-linecap:round; stroke-linejoin:round; stroke-width:4; stroke-opacity:1; fill:none" points="2172.5,2101.69 2172.5,4062.02 2575.65,4062.02 2575.65,2101.69 2172.5,2101.69 "/>
<path clip-path="url(#clip822)" d="M2575.65 1049.3 L2575.65 4062.02 L2978.79 4062.02 L2978.79 1049.3 L2575.65 1049.3 L2575.65 1049.3  Z" fill="#009af9" fill-rule="evenodd" fill-opacity="1"/>
<polyline clip-path="url(#clip822)" style="stroke:#000000; stroke-linecap:round; stroke-linejoin:round; stroke-width:4; stroke-opacity:1; fill:none" points="2575.65,1049.3 2575.65,4062.02 2978.79,4062.02 2978.79,1049.3 2575.65,1049.3 "/>
<path clip-path="url(#clip822)" d="M2978.79 120.723 L2978.79 4062.02 L3381.94 4062.02 L3381.94 120.723 L2978.79 120.723 L2978.79 120.723  Z" fill="#009af9" fill-rule="evenodd" fill-opacity="1"/>
<polyline clip-path="url(#clip822)" style="stroke:#000000; stroke-linecap:round; stroke-linejoin:round; stroke-width:4; stroke-opacity:1; fill:none" points="2978.79,120.723 2978.79,4062.02 3381.94,4062.02 3381.94,120.723 2978.79,120.723 "/>
<path clip-path="url(#clip822)" d="M3381.94 161.993 L3381.94 4062.02 L3785.08 4062.02 L3785.08 161.993 L3381.94 161.993 L3381.94 161.993  Z" fill="#009af9" fill-rule="evenodd" fill-opacity="1"/>
<polyline clip-path="url(#clip822)" style="stroke:#000000; stroke-linecap:round; stroke-linejoin:round; stroke-width:4; stroke-opacity:1; fill:none" points="3381.94,161.993 3381.94,4062.02 3785.08,4062.02 3785.08,161.993 3381.94,161.993 "/>
<path clip-path="url(#clip822)" d="M3785.08 1523.91 L3785.08 4062.02 L4188.23 4062.02 L4188.23 1523.91 L3785.08 1523.91 L3785.08 1523.91  Z" fill="#009af9" fill-rule="evenodd" fill-opacity="1"/>
<polyline clip-path="url(#clip822)" style="stroke:#000000; stroke-linecap:round; stroke-linejoin:round; stroke-width:4; stroke-opacity:1; fill:none" points="3785.08,1523.91 3785.08,4062.02 4188.23,4062.02 4188.23,1523.91 3785.08,1523.91 "/>
<path clip-path="url(#clip822)" d="M4188.23 2081.05 L4188.23 4062.02 L4591.37 4062.02 L4591.37 2081.05 L4188.23 2081.05 L4188.23 2081.05  Z" fill="#009af9" fill-rule="evenodd" fill-opacity="1"/>
<polyline clip-path="url(#clip822)" style="stroke:#000000; stroke-linecap:round; stroke-linejoin:round; stroke-width:4; stroke-opacity:1; fill:none" points="4188.23,2081.05 4188.23,4062.02 4591.37,4062.02 4591.37,2081.05 4188.23,2081.05 "/>
<path clip-path="url(#clip822)" d="M4591.37 2927.09 L4591.37 4062.02 L4994.52 4062.02 L4994.52 2927.09 L4591.37 2927.09 L4591.37 2927.09  Z" fill="#009af9" fill-rule="evenodd" fill-opacity="1"/>
<polyline clip-path="url(#clip822)" style="stroke:#000000; stroke-linecap:round; stroke-linejoin:round; stroke-width:4; stroke-opacity:1; fill:none" points="4591.37,2927.09 4591.37,4062.02 4994.52,4062.02 4994.52,2927.09 4591.37,2927.09 "/>
<path clip-path="url(#clip822)" d="M4994.52 3752.49 L4994.52 4062.02 L5397.66 4062.02 L5397.66 3752.49 L4994.52 3752.49 L4994.52 3752.49  Z" fill="#009af9" fill-rule="evenodd" fill-opacity="1"/>
<polyline clip-path="url(#clip822)" style="stroke:#000000; stroke-linecap:round; stroke-linejoin:round; stroke-width:4; stroke-opacity:1; fill:none" points="4994.52,3752.49 4994.52,4062.02 5397.66,4062.02 5397.66,3752.49 4994.52,3752.49 "/>
<path clip-path="url(#clip822)" d="M5397.66 3917.57 L5397.66 4062.02 L5800.81 4062.02 L5800.81 3917.57 L5397.66 3917.57 L5397.66 3917.57  Z" fill="#009af9" fill-rule="evenodd" fill-opacity="1"/>
<polyline clip-path="url(#clip822)" style="stroke:#000000; stroke-linecap:round; stroke-linejoin:round; stroke-width:4; stroke-opacity:1; fill:none" points="5397.66,3917.57 5397.66,4062.02 5800.81,4062.02 5800.81,3917.57 5397.66,3917.57 "/>
<path clip-path="url(#clip822)" d="M5800.81 4020.75 L5800.81 4062.02 L6203.95 4062.02 L6203.95 4020.75 L5800.81 4020.75 L5800.81 4020.75  Z" fill="#009af9" fill-rule="evenodd" fill-opacity="1"/>
<polyline clip-path="url(#clip822)" style="stroke:#000000; stroke-linecap:round; stroke-linejoin:round; stroke-width:4; stroke-opacity:1; fill:none" points="5800.81,4020.75 5800.81,4062.02 6203.95,4062.02 6203.95,4020.75 5800.81,4020.75 "/>
<circle clip-path="url(#clip822)" style="fill:#009af9; stroke:none; fill-opacity:0" cx="761.495" cy="4000.11" r="2"/>
<circle clip-path="url(#clip822)" style="fill:#009af9; stroke:none; fill-opacity:0" cx="1164.64" cy="3979.48" r="2"/>
<circle clip-path="url(#clip822)" style="fill:#009af9; stroke:none; fill-opacity:0" cx="1567.79" cy="3793.76" r="2"/>
<circle clip-path="url(#clip822)" style="fill:#009af9; stroke:none; fill-opacity:0" cx="1970.93" cy="2803.28" r="2"/>
<circle clip-path="url(#clip822)" style="fill:#009af9; stroke:none; fill-opacity:0" cx="2374.08" cy="2101.69" r="2"/>
<circle clip-path="url(#clip822)" style="fill:#009af9; stroke:none; fill-opacity:0" cx="2777.22" cy="1049.3" r="2"/>
<circle clip-path="url(#clip822)" style="fill:#009af9; stroke:none; fill-opacity:0" cx="3180.37" cy="120.723" r="2"/>
<circle clip-path="url(#clip822)" style="fill:#009af9; stroke:none; fill-opacity:0" cx="3583.51" cy="161.993" r="2"/>
<circle clip-path="url(#clip822)" style="fill:#009af9; stroke:none; fill-opacity:0" cx="3986.66" cy="1523.91" r="2"/>
<circle clip-path="url(#clip822)" style="fill:#009af9; stroke:none; fill-opacity:0" cx="4389.8" cy="2081.05" r="2"/>
<circle clip-path="url(#clip822)" style="fill:#009af9; stroke:none; fill-opacity:0" cx="4792.95" cy="2927.09" r="2"/>
<circle clip-path="url(#clip822)" style="fill:#009af9; stroke:none; fill-opacity:0" cx="5196.09" cy="3752.49" r="2"/>
<circle clip-path="url(#clip822)" style="fill:#009af9; stroke:none; fill-opacity:0" cx="5599.24" cy="3917.57" r="2"/>
<circle clip-path="url(#clip822)" style="fill:#009af9; stroke:none; fill-opacity:0" cx="6002.38" cy="4020.75" r="2"/>
<path clip-path="url(#clip820)" d="M5654.77 355.78 L6341.37 355.78 L6341.37 252.1 L5654.77 252.1  Z" fill="#ffffff" fill-rule="evenodd" fill-opacity="1"/>
<polyline clip-path="url(#clip820)" style="stroke:#000000; stroke-linecap:round; stroke-linejoin:round; stroke-width:4; stroke-opacity:1; fill:none" points="5654.77,355.78 6341.37,355.78 6341.37,252.1 5654.77,252.1 5654.77,355.78 "/>
<path clip-path="url(#clip820)" d="M5725.24 324.676 L6148.01 324.676 L6148.01 283.204 L5725.24 283.204 L5725.24 324.676  Z" fill="#009af9" fill-rule="evenodd" fill-opacity="1"/>
<polyline clip-path="url(#clip820)" style="stroke:#000000; stroke-linecap:round; stroke-linejoin:round; stroke-width:4; stroke-opacity:1; fill:none" points="5725.24,324.676 6148.01,324.676 6148.01,283.204 5725.24,283.204 5725.24,324.676 "/>
<path clip-path="url(#clip820)" d="M6232.32 323.627 Q6230.51 328.257 6228.8 329.669 Q6227.09 331.081 6224.22 331.081 L6220.81 331.081 L6220.81 327.516 L6223.31 327.516 Q6225.07 327.516 6226.04 326.682 Q6227.02 325.849 6228.2 322.747 L6228.96 320.803 L6218.48 295.294 L6222.99 295.294 L6231.09 315.571 L6239.19 295.294 L6243.71 295.294 L6232.32 323.627 Z" fill="#000000" fill-rule="nonzero" fill-opacity="1" /><path clip-path="url(#clip820)" d="M6251 317.284 L6258.64 317.284 L6258.64 290.919 L6250.33 292.585 L6250.33 288.326 L6258.59 286.66 L6263.27 286.66 L6263.27 317.284 L6270.91 317.284 L6270.91 321.22 L6251 321.22 L6251 317.284 Z" fill="#000000" fill-rule="nonzero" fill-opacity="1" /></svg>
